<svg width="62" height="23" viewBox="0 0 62 23" fill="none" xmlns="http://www.w3.org/2000/svg">
<path opacity="0.86" d="M4.56082 18.2414C3.60859 18.2414 2.77035 18 2.04612 17.5172C1.80471 17.3696 1.63706 17.2959 1.54318 17.2959C1.30176 17.2959 1.14753 17.5306 1.08047 18H0.698235L1.40235 14.6404H1.76447C1.75106 14.7476 1.74435 14.9086 1.74435 15.1232C1.74435 15.9949 1.99247 16.6387 2.48871 17.0545C2.99835 17.4568 3.68906 17.658 4.56082 17.658C5.446 17.658 6.18365 17.3495 6.77376 16.7326C7.37729 16.1022 7.67906 15.3847 7.67906 14.58C7.67906 13.7619 7.26329 13.1516 6.43176 12.7493L4.82235 11.9245C3.56165 11.3075 2.93129 10.3486 2.93129 9.04765C2.93129 8.02835 3.32694 7.11635 4.11824 6.31165C4.90953 5.49353 5.902 5.08447 7.09565 5.08447C7.88694 5.08447 8.60447 5.30576 9.24824 5.74835C9.46282 5.89588 9.61035 5.96965 9.69082 5.96965C9.82494 5.96965 9.93894 5.82882 10.0328 5.54718L10.1334 5.20518H10.4955L9.75118 8.68553H9.40918C9.436 8.41729 9.44941 8.22282 9.44941 8.10212C9.44941 7.27059 9.23482 6.66035 8.80565 6.27141C8.38988 5.86906 7.78635 5.66788 6.99506 5.66788C6.20376 5.66788 5.52647 5.96294 4.96318 6.55306C4.41329 7.14318 4.13835 7.80706 4.13835 8.54471C4.13835 9.45671 4.54741 10.1273 5.36553 10.5565L7.43765 11.6227C8.55082 12.1994 9.10741 13.0175 9.10741 14.0771C9.10741 15.1232 8.65141 16.0821 7.73941 16.9539C6.82741 17.8122 5.76788 18.2414 4.56082 18.2414ZM11.9446 10.0334L12.0452 9.65118H16.5113L16.4107 10.0334H11.9446ZM15.1433 7.1767L15.425 7.37788C15.1165 8.31671 14.7007 9.792 14.1777 11.8038C13.668 13.8155 13.3596 15.1165 13.2523 15.7066C13.145 16.2833 13.0913 16.7192 13.0913 17.0142C13.0913 17.4568 13.259 17.6781 13.5943 17.6781C13.8491 17.6781 14.124 17.5105 14.4191 17.1752C14.7142 16.8265 14.969 16.3369 15.1836 15.7066L15.5055 15.7871C14.9287 17.4233 14.1777 18.2414 13.2523 18.2414C12.4207 18.2414 12.005 17.7385 12.005 16.7326C12.005 15.9011 12.5012 13.5808 13.4937 9.77188L12.0452 9.65118C12.7829 9.65118 13.3797 9.47682 13.8357 9.12812C14.2917 8.766 14.7276 8.11553 15.1433 7.1767ZM17.3637 15.0829C17.3637 13.7015 17.766 12.3805 18.5707 11.1198C18.9597 10.5162 19.4693 10.0267 20.0997 9.65118C20.73 9.26223 21.4475 9.06776 22.2523 9.06776C23.0704 9.06776 23.7343 9.34271 24.2439 9.89259C24.7535 10.4425 25.0084 11.1935 25.0084 12.1458C25.0084 13.098 24.834 14.0234 24.4853 14.922C24.1366 15.8206 23.5867 16.5985 22.8357 17.2556C22.0846 17.9128 21.2397 18.2414 20.3008 18.2414C19.362 18.2414 18.6378 17.9665 18.1281 17.4166C17.6185 16.8667 17.3637 16.0888 17.3637 15.0829ZM22.0913 9.51035C21.3671 9.51035 20.7233 9.87247 20.16 10.5967C19.6101 11.3209 19.2145 12.1122 18.9731 12.9706C18.7451 13.8289 18.6311 14.6336 18.6311 15.3847C18.6311 16.1224 18.7786 16.7125 19.0737 17.1551C19.3821 17.5842 19.7979 17.7988 20.321 17.7988C20.8574 17.7988 21.3537 17.5842 21.8097 17.1551C22.2791 16.7259 22.6479 16.1961 22.9161 15.5658C23.466 14.2782 23.741 13.1651 23.741 12.2262C23.741 11.274 23.5934 10.5833 23.2984 10.1541C23.0033 9.72494 22.601 9.51035 22.0913 9.51035ZM30.379 9.24882L30.6606 9.45C30.0169 10.9253 29.4536 12.6219 28.9708 14.5398H29.1317L29.4536 13.6546C30.0839 11.9379 30.7076 10.7442 31.3245 10.0736C31.9415 9.40306 32.4779 9.06776 32.9339 9.06776C33.3899 9.06776 33.7252 9.21529 33.9398 9.51035C34.1678 9.80541 34.2818 10.1876 34.2818 10.6571C34.2818 11.1265 34.1946 11.5355 34.0203 11.8842C33.8459 12.2329 33.5911 12.4073 33.2558 12.4073C32.9339 12.4073 32.6657 12.3 32.4511 12.0854C32.5852 11.9111 32.7126 11.6562 32.8333 11.3209C32.9541 10.9856 33.0144 10.6906 33.0144 10.4358C33.0144 10.0468 32.8535 9.85235 32.5316 9.85235C32.1963 9.85235 31.7805 10.1809 31.2843 10.8381C30.1979 12.2598 29.2792 14.6471 28.5282 18L27.1199 18.1207L29.0915 9.99318L27.8039 10.0938L27.7838 9.75176C28.7092 9.63106 29.5743 9.46341 30.379 9.24882ZM43.0349 9.45C42.5655 10.8448 42.1229 12.3402 41.7071 13.9362C41.2914 15.5322 41.0835 16.5582 41.0835 17.0142C41.0835 17.4568 41.2511 17.6781 41.5864 17.6781C41.8412 17.6781 42.1162 17.5105 42.4112 17.1752C42.7063 16.8265 42.9611 16.3369 43.1757 15.7066L43.4976 15.7871C42.9209 17.4233 42.1698 18.2414 41.2444 18.2414C40.4129 18.2414 39.9971 17.7385 39.9971 16.7326C39.9971 16.5314 40.0306 16.2095 40.0977 15.7669H39.9971C39.1656 17.4166 38.1999 18.2414 37.1002 18.2414C36.4698 18.2414 35.9401 17.9665 35.5109 17.4166C35.0951 16.8533 34.8872 16.1693 34.8872 15.3646C34.8872 14.5465 34.9945 13.7887 35.2091 13.0913C35.4237 12.3939 35.7255 11.7434 36.1144 11.1399C36.5034 10.5229 37.0197 10.0267 37.6635 9.65118C38.3072 9.26223 39.0114 9.06776 39.7758 9.06776C40.7683 9.06776 41.5529 9.49023 42.1296 10.3352L42.7532 9.24882L43.0349 9.45ZM37.583 17.6379C38.1463 17.6379 38.7163 17.202 39.293 16.3302C39.9502 15.3244 40.5604 13.6814 41.1237 11.4014C41.2444 10.8649 41.3383 10.476 41.4054 10.2346C40.9359 9.77859 40.3928 9.55059 39.7758 9.55059C39.1723 9.55059 38.6291 9.75847 38.1463 10.1742C37.6769 10.59 37.3081 11.1131 37.0398 11.7434C36.4899 13.0309 36.215 14.2447 36.215 15.3847C36.215 16.1358 36.3357 16.6991 36.5771 17.0746C36.8319 17.4501 37.1672 17.6379 37.583 17.6379ZM46.7768 16.8332L49.9755 17.5574C50.6729 17.7184 51.1691 17.9329 51.4642 18.2012C51.7592 18.4828 51.9068 18.8651 51.9068 19.3479C51.9068 20.1258 51.4776 20.8567 50.6192 21.5407C49.7743 22.2381 48.8086 22.5868 47.7223 22.5868C46.6359 22.5868 45.7508 22.3387 45.0668 21.8425C44.3962 21.3462 44.0609 20.7561 44.0609 20.0721C44.0609 19.6027 44.2218 19.1534 44.5437 18.7242C44.8522 18.2951 45.3149 17.9329 45.9318 17.6379L46.3342 17.7586C45.9318 17.9598 45.6234 18.2615 45.4088 18.6639C45.1942 19.0796 45.0869 19.5155 45.0869 19.9715C45.0869 20.7226 45.335 21.2792 45.8312 21.6413C46.3275 22.0168 46.9645 22.2046 47.7424 22.2046C48.5337 22.2046 49.2579 21.9766 49.9151 21.5206C50.5857 21.078 50.921 20.5415 50.921 19.9112C50.921 19.2808 50.5119 18.8718 49.6938 18.684L46.2336 17.9195C45.8446 17.8391 45.5429 17.658 45.3283 17.3764C45.1137 17.0947 45.0064 16.7527 45.0064 16.3504C45.0064 15.948 45.1741 15.5792 45.5094 15.2439C45.8446 14.9086 46.3074 14.7409 46.8975 14.7409H48.9294L48.869 15.0226H46.8975C46.6158 15.0226 46.3878 15.1098 46.2135 15.2841C46.0525 15.4585 45.9721 15.6664 45.9721 15.9078C45.9721 16.404 46.2403 16.7125 46.7768 16.8332ZM50.1565 9.34941L50.1364 9.06776C50.5119 9.06776 50.8271 8.98059 51.0819 8.80623C51.3368 8.61847 51.4642 8.37706 51.4642 8.082C51.4642 7.78694 51.2496 7.50529 50.8204 7.23706C51.035 6.78106 51.2898 6.55306 51.5849 6.55306C51.8934 6.55306 52.1214 6.64023 52.2689 6.81459C52.4298 6.98894 52.5103 7.21023 52.5103 7.47847C52.5103 7.94788 52.2957 8.37706 51.8665 8.766C51.4508 9.15494 50.8808 9.34941 50.1565 9.34941ZM46.475 12.8298C46.475 11.8373 46.8237 10.9655 47.5211 10.2145C48.2319 9.45 49.1037 9.06776 50.1364 9.06776C50.8606 9.06776 51.4306 9.26223 51.8464 9.65118C52.2756 10.0267 52.4902 10.5632 52.4902 11.2606C52.4902 12.3872 52.1281 13.2992 51.4038 13.9966C50.6796 14.6806 49.8346 15.0226 48.869 15.0226C48.1314 15.0226 47.5479 14.8348 47.1188 14.4593C46.6896 14.0704 46.475 13.5272 46.475 12.8298ZM50.1163 9.45C49.3786 9.45 48.7751 9.85906 48.3057 10.6772C47.8363 11.4819 47.6016 12.1994 47.6016 12.8298C47.6016 13.4601 47.7156 13.9228 47.9436 14.2179C48.185 14.4995 48.5002 14.6404 48.8891 14.6404C49.4792 14.6404 50.0425 14.3051 50.579 13.6345C51.1155 12.9639 51.3837 12.1189 51.3837 11.0996C51.3837 10.59 51.263 10.1876 51.0216 9.89259C50.7936 9.59753 50.4918 9.45 50.1163 9.45ZM59.1648 9.06776C59.8757 9.06776 60.4054 9.24212 60.7541 9.59082C61.1162 9.92612 61.2973 10.4156 61.2973 11.0594C61.2973 11.6898 61.0492 12.2396 60.5529 12.7091C59.708 13.5138 58.454 13.9161 56.7909 13.9161C56.2947 13.9161 55.8655 13.8759 55.5034 13.7954V13.4132C55.9728 13.4802 56.3618 13.5138 56.6702 13.5138C57.7834 13.5138 58.6418 13.2321 59.2453 12.6688C59.8622 12.1055 60.1707 11.4886 60.1707 10.818C60.1707 10.4559 60.0701 10.1541 59.8689 9.91271C59.6812 9.67129 59.3593 9.55059 58.9033 9.55059C58.4607 9.55059 58.0047 9.75847 57.5353 10.1742C57.0793 10.59 56.7172 11.1064 56.4489 11.7233C55.9125 13.0242 55.6442 14.1508 55.6442 15.1031C55.6442 16.8734 56.1807 17.7586 57.2537 17.7586C58.5814 17.7586 59.5538 17.0344 60.1707 15.5859L60.4926 15.6664C60.1707 16.4845 59.7013 17.1215 59.0844 17.5775C58.4808 18.0201 57.7968 18.2414 57.0324 18.2414C56.2679 18.2414 55.6241 17.9598 55.1011 17.3965C54.578 16.8332 54.3165 16.0754 54.3165 15.1232C54.3165 14.1709 54.4975 13.2522 54.8597 12.3671C55.2218 11.4685 55.7851 10.6973 56.5495 10.0535C57.314 9.39635 58.1858 9.06776 59.1648 9.06776Z" fill="#6082FA"/>
</svg>
