<svg width="111" height="25" viewBox="0 0 111 25" fill="none" xmlns="http://www.w3.org/2000/svg">
<path opacity="0.86" d="M7.62459 5.78859H5.31106L2.83659 17.5373H5.17024C6.02859 17.5373 6.81988 17.2691 7.54412 16.7326C8.26835 16.1961 8.85177 15.5188 9.29435 14.7007C10.2064 12.9974 10.6624 11.3008 10.6624 9.61094C10.6624 8.40388 10.3807 7.46506 9.81741 6.79447C9.26753 6.12388 8.53659 5.78859 7.62459 5.78859ZM2.87682 5.32588H7.74529C9.08647 5.32588 10.146 5.72153 10.9239 6.51282C11.7018 7.29071 12.0907 8.38376 12.0907 9.792C12.0907 10.7442 11.9231 11.7032 11.5878 12.6688C11.2659 13.6211 10.8166 14.4995 10.2399 15.3042C9.66318 16.0955 8.91882 16.746 8.00682 17.2556C7.10824 17.7519 6.12918 18 5.06965 18H0.201176L0.261529 17.6379H1.18694C1.36129 17.6379 1.46859 17.5373 1.50882 17.3361C3.11824 9.71824 3.92294 5.87576 3.92294 5.80871C3.92294 5.72823 3.84918 5.688 3.70165 5.688H2.81647L2.87682 5.32588ZM26.924 12.87H19.4201L19.6414 11.8038H27.1453L26.924 12.87ZM26.1998 16.29H18.6959L18.9172 15.2238H26.4211L26.1998 16.29Z" fill="#6082FA"/>
<path opacity="0.86" d="M32.2834 14.0174V14.0997C32.7634 14.2506 33.1131 14.4974 33.3326 14.8403C33.5657 15.1832 33.6823 15.6837 33.6823 16.342V18.9546C33.6823 19.7363 33.84 20.2986 34.1554 20.6414C34.3063 20.7923 34.6217 21.0597 35.1017 21.4437L34.896 21.7523C34.4709 21.5329 34.1897 21.3889 34.0526 21.3203C33.9154 21.2517 33.7029 21.1283 33.4149 20.95C33.1406 20.7854 32.9691 20.6689 32.9006 20.6003C32.8457 20.5317 32.736 20.4152 32.5714 20.2506C32.4206 20.086 32.3314 19.942 32.304 19.8186C32.2903 19.7089 32.2491 19.5306 32.1806 19.2837C32.1257 19.0232 32.0983 18.5226 32.0983 17.782V15.4574C32.0983 15.0597 32.016 14.7512 31.8514 14.5317C31.6869 14.3123 31.3783 14.2026 30.9257 14.2026V13.9146C31.3783 13.9146 31.6869 13.8049 31.8514 13.5854C32.016 13.366 32.0983 13.0574 32.0983 12.6597V10.3352C32.0983 9.59459 32.1257 9.10088 32.1806 8.85402C32.2491 8.59345 32.2903 8.40831 32.304 8.29859C32.3314 8.17516 32.4206 8.03116 32.5714 7.86659C32.736 7.70202 32.8457 7.58545 32.9006 7.51688C32.9691 7.4483 33.1406 7.33173 33.4149 7.16716C33.7029 6.98888 33.9154 6.86545 34.0526 6.79688C34.1897 6.72831 34.4709 6.58431 34.896 6.36488L35.1017 6.67345C34.6217 7.05745 34.3063 7.32488 34.1554 7.47573C33.84 7.81859 33.6823 8.38088 33.6823 9.16259V11.7752C33.6823 12.4334 33.5657 12.934 33.3326 13.2769C33.1131 13.6197 32.7634 13.8666 32.2834 14.0174Z" fill="#6082FA"/>
<path opacity="0.86" d="M108.213 14.0997V14.0174C107.733 13.8666 107.376 13.6197 107.143 13.2769C106.924 12.934 106.814 12.4334 106.814 11.7752V9.16259C106.814 8.38088 106.656 7.81859 106.341 7.47573C106.19 7.32488 105.874 7.05745 105.394 6.67345L105.6 6.36488C106.025 6.58431 106.306 6.72831 106.444 6.79688C106.581 6.86545 106.786 6.98888 107.061 7.16716C107.349 7.33173 107.52 7.4483 107.575 7.51688C107.644 7.58545 107.753 7.70202 107.904 7.86659C108.069 8.03116 108.158 8.17516 108.172 8.29859C108.199 8.40831 108.24 8.59345 108.295 8.85402C108.364 9.10088 108.398 9.59459 108.398 10.3352V12.6597C108.398 13.0574 108.48 13.366 108.645 13.5854C108.809 13.8049 109.118 13.9146 109.57 13.9146V14.2026C109.118 14.2026 108.809 14.3123 108.645 14.5317C108.48 14.7512 108.398 15.0597 108.398 15.4574V17.782C108.398 18.5226 108.364 19.0232 108.295 19.2837C108.24 19.5306 108.199 19.7089 108.172 19.8186C108.158 19.942 108.069 20.086 107.904 20.2506C107.753 20.4152 107.644 20.5317 107.575 20.6003C107.52 20.6689 107.349 20.7854 107.061 20.95C106.786 21.1283 106.581 21.2517 106.444 21.3203C106.306 21.3889 106.025 21.5329 105.6 21.7523L105.394 21.4437C105.874 21.0597 106.19 20.7923 106.341 20.6414C106.656 20.2986 106.814 19.7363 106.814 18.9546V16.342C106.814 15.6837 106.924 15.1832 107.143 14.8403C107.376 14.4974 107.733 14.2506 108.213 14.0997Z" fill="#6082FA"/>
<path opacity="0.86" d="M51.9415 18.5853C52.6725 18.023 53.038 17.4326 53.038 16.8141C53.038 16.4767 52.9199 16.2012 52.6838 15.9875C52.74 15.7289 52.8693 15.504 53.0717 15.3128C53.2854 15.1216 53.5103 15.026 53.7465 15.026C54.2076 15.026 54.4381 15.2565 54.4381 15.7176C54.4381 16.1787 54.2076 16.7241 53.7465 17.3539C53.2967 17.9949 52.74 18.4841 52.0765 18.8215L51.9415 18.5853Z" fill="#6082FA"/>
<path opacity="0.86" d="M74.6927 16.6623C74.5241 16.4823 74.4397 16.2687 74.4397 16.0213C74.4397 15.7739 74.5241 15.5658 74.6927 15.3971C74.8727 15.2172 75.0864 15.1272 75.3338 15.1272C75.5812 15.1272 75.7892 15.2172 75.9579 15.3971C76.1378 15.5658 76.2278 15.7739 76.2278 16.0213C76.2278 16.2687 76.1378 16.4823 75.9579 16.6623C75.7892 16.831 75.5812 16.9153 75.3338 16.9153C75.0864 16.9153 74.8727 16.831 74.6927 16.6623ZM78.2754 16.6623C78.1067 16.4823 78.0224 16.2687 78.0224 16.0213C78.0224 15.7739 78.1067 15.5658 78.2754 15.3971C78.4553 15.2172 78.669 15.1272 78.9164 15.1272C79.1638 15.1272 79.3719 15.2172 79.5406 15.3971C79.7205 15.5658 79.8105 15.7739 79.8105 16.0213C79.8105 16.2687 79.7205 16.4823 79.5406 16.6623C79.3719 16.831 79.1638 16.9153 78.9164 16.9153C78.669 16.9153 78.4553 16.831 78.2754 16.6623ZM81.858 16.6623C81.6894 16.4823 81.605 16.2687 81.605 16.0213C81.605 15.7739 81.6894 15.5658 81.858 15.3971C82.038 15.2172 82.2517 15.1272 82.4991 15.1272C82.7465 15.1272 82.9545 15.2172 83.1232 15.3971C83.3031 15.5658 83.3931 15.7739 83.3931 16.0213C83.3931 16.2687 83.3031 16.4823 83.1232 16.6623C82.9545 16.831 82.7465 16.9153 82.4991 16.9153C82.2517 16.9153 82.038 16.831 81.858 16.6623Z" fill="#6082FA"/>
<path opacity="0.86" d="M42.2991 15.8863C42.2991 16.2574 42.4396 16.443 42.7208 16.443C42.9345 16.443 43.165 16.3024 43.4124 16.0213C43.6598 15.7289 43.8735 15.3184 44.0534 14.7898L44.3233 14.8573C43.8398 16.2293 43.21 16.9153 42.434 16.9153C41.7368 16.9153 41.3881 16.4767 41.3881 15.5995C41.3881 14.7111 42.1248 11.596 43.598 6.25421L42.5184 6.33856L42.5015 6.05179C43.2775 5.95057 44.0028 5.81 44.6776 5.63007L44.9137 5.79875C44.4414 7.182 43.8847 9.06006 43.2437 11.4329C42.614 13.7946 42.2991 15.279 42.2991 15.8863ZM41.5568 14.8404H41.3881C40.6909 16.2237 39.8812 16.9153 38.959 16.9153C38.4305 16.9153 37.9863 16.6848 37.6264 16.2237C37.2778 15.7514 37.1035 15.1778 37.1035 14.5031C37.1035 13.8171 37.1934 13.1817 37.3734 12.5969C37.5533 12.0121 37.8063 11.4667 38.1325 10.9606C38.4586 10.4433 38.8916 10.0272 39.4314 9.71232C39.9712 9.38619 40.5222 9.22313 41.0845 9.22313C42.1641 9.22313 42.9288 9.69545 43.3787 10.6401L43.1425 10.9437C42.614 10.0666 41.9561 9.62798 41.1689 9.62798C40.6853 9.62798 40.2411 9.80229 39.8362 10.1509C39.4426 10.4995 39.1333 10.9381 38.9084 11.4667C38.4473 12.5463 38.2168 13.564 38.2168 14.5199C38.2168 15.1497 38.318 15.622 38.5204 15.9369C38.7341 16.2518 39.0153 16.4093 39.3639 16.4093C39.8475 16.4093 40.3423 16.0044 40.8483 15.1947C41.3544 14.3737 41.8042 13.2042 42.1979 11.686L41.5568 14.8404Z" fill="#6082FA"/>
<path opacity="0.86" d="M48.4927 12.8982L48.504 12.797C48.504 12.677 48.414 12.617 48.2341 12.617L47.0308 12.6845L47.0645 12.4146L48.0766 12.2684C48.7139 12.171 49.2237 12.051 49.6061 11.9086C49.4711 12.1934 49.3437 12.6208 49.2237 13.1906L48.1216 18.4199H47.3232L48.4927 12.8982ZM48.2003 18.0488L48.1891 18.0938C48.1891 18.1688 48.2341 18.2062 48.324 18.2062H49.3362L49.2912 18.4199H45.9287L45.9737 18.2062H47.2219C47.3194 18.2062 47.3794 18.1538 47.4019 18.0488H48.2003Z" fill="#6082FA"/>
<path opacity="0.86" d="M61.5847 15.8883C61.5847 16.2594 61.7253 16.4449 62.0064 16.4449C62.2201 16.4449 62.4506 16.3044 62.6981 16.0232C62.9455 15.7308 63.1591 15.3204 63.3391 14.7918L63.609 14.8593C63.1254 16.2313 62.4956 16.9173 61.7197 16.9173C61.0224 16.9173 60.6738 16.4787 60.6738 15.6015C60.6738 14.7131 61.4104 11.598 62.8836 6.25617L61.804 6.34051L61.7871 6.05374C62.5631 5.95253 63.2885 5.81195 63.9632 5.63202L64.1994 5.80071C63.7271 7.18395 63.1704 9.06201 62.5294 11.4349C61.8996 13.7965 61.5847 15.281 61.5847 15.8883ZM60.8425 14.8424H60.6738C59.9765 16.2256 59.1668 16.9173 58.2447 16.9173C57.7161 16.9173 57.2719 16.6867 56.912 16.2256C56.5634 15.7533 56.3891 15.1798 56.3891 14.505C56.3891 13.819 56.4791 13.1836 56.659 12.5988C56.8389 12.0141 57.092 11.4686 57.4181 10.9626C57.7442 10.4453 58.1772 10.0292 58.717 9.71428C59.2568 9.38815 59.8079 9.22508 60.3702 9.22508C61.4498 9.22508 62.2145 9.69741 62.6643 10.6421L62.4282 10.9457C61.8996 10.0685 61.2417 9.62993 60.4545 9.62993C59.9709 9.62993 59.5267 9.80424 59.1219 10.1529C58.7283 10.5015 58.419 10.9401 58.1941 11.4686C57.733 12.5482 57.5025 13.566 57.5025 14.5219C57.5025 15.1517 57.6037 15.624 57.8061 15.9389C58.0198 16.2538 58.3009 16.4112 58.6495 16.4112C59.1331 16.4112 59.6279 16.0064 60.134 15.1966C60.6401 14.3757 61.0899 13.2061 61.4835 11.6879L60.8425 14.8424Z" fill="#6082FA"/>
<path opacity="0.86" d="M69.0941 12.1579C68.6893 12.1579 68.3819 12.2854 68.172 12.5403C67.9621 12.7952 67.8571 13.1063 67.8571 13.4737C67.8571 13.5786 67.8683 13.6761 67.8908 13.7661C67.7484 13.8785 67.5722 13.9348 67.3623 13.9348C67.1749 13.9348 67.0811 13.8148 67.0811 13.5749C67.0811 13.1251 67.2648 12.7352 67.6322 12.4053C67.9995 12.0754 68.4719 11.9105 69.0492 11.9105C69.6265 11.9105 70.05 12.0267 70.32 12.2591C70.5973 12.484 70.736 12.7689 70.736 13.1138C70.736 13.4587 70.6686 13.7398 70.5336 13.9573C70.4062 14.1672 70.305 14.3284 70.23 14.4408C70.155 14.5533 70.0388 14.692 69.8814 14.8569C69.7239 15.0144 69.604 15.1343 69.5215 15.2168C69.439 15.2918 69.3041 15.4117 69.1166 15.5767C68.9292 15.7416 68.8093 15.8503 68.7568 15.9028L66.7775 17.7134H69.3528C69.5177 17.7134 69.634 17.6309 69.7014 17.466L70.05 16.4876H70.2862L70.1738 17.0274C70.0388 17.6796 69.9713 18.1782 69.9713 18.5231C69.7389 18.4556 69.3378 18.4219 68.768 18.4219H65.6079L68.6331 15.6104C69.0904 15.1906 69.4128 14.7445 69.6002 14.2721C69.7951 13.7923 69.8926 13.3875 69.8926 13.0576C69.8926 12.4578 69.6265 12.1579 69.0941 12.1579Z" fill="#6082FA"/>
<path opacity="0.86" d="M92.4419 15.8883C92.4419 16.2594 92.5825 16.4449 92.8636 16.4449C93.0773 16.4449 93.3078 16.3044 93.5552 16.0232C93.8026 15.7308 94.0163 15.3204 94.1962 14.7918L94.4661 14.8593C93.9826 16.2313 93.3528 16.9173 92.5768 16.9173C91.8796 16.9173 91.531 16.4787 91.531 15.6015C91.531 14.7131 92.2676 11.598 93.7408 6.25617L92.6612 6.34051L92.6443 6.05374C93.4203 5.95253 94.1456 5.81195 94.8204 5.63202L95.0566 5.80071C94.5842 7.18395 94.0276 9.06201 93.3865 11.4349C92.7568 13.7965 92.4419 15.281 92.4419 15.8883ZM91.6997 14.8424H91.531C90.8337 16.2256 90.024 16.9173 89.1019 16.9173C88.5733 16.9173 88.1291 16.6867 87.7692 16.2256C87.4206 15.7533 87.2463 15.1798 87.2463 14.505C87.2463 13.819 87.3363 13.1836 87.5162 12.5988C87.6961 12.0141 87.9492 11.4686 88.2753 10.9626C88.6014 10.4453 89.0344 10.0292 89.5742 9.71428C90.114 9.38815 90.665 9.22508 91.2273 9.22508C92.3069 9.22508 93.0717 9.69741 93.5215 10.6421L93.2853 10.9457C92.7568 10.0685 92.0989 9.62993 91.3117 9.62993C90.8281 9.62993 90.3839 9.80424 89.979 10.1529C89.5854 10.5015 89.2762 10.9401 89.0513 11.4686C88.5902 12.5482 88.3596 13.566 88.3596 14.5219C88.3596 15.1517 88.4608 15.624 88.6633 15.9389C88.8769 16.2538 89.1581 16.4112 89.5067 16.4112C89.9903 16.4112 90.4851 16.0064 90.9912 15.1966C91.4972 14.3757 91.9471 13.2061 92.3407 11.6879L91.6997 14.8424Z" fill="#6082FA"/>
<path opacity="0.86" d="M101.672 14.4521C101.672 14.7745 101.488 15.3667 101.121 16.2289C100.761 17.0911 100.581 17.6422 100.581 17.8821C100.581 18.122 100.675 18.2419 100.862 18.2419C101.005 18.2419 101.158 18.1482 101.323 17.9608C101.488 17.7659 101.631 17.4922 101.751 17.1398L101.931 17.1848C101.608 18.0995 101.188 18.5568 100.671 18.5568C100.206 18.5568 99.9738 18.3019 99.9738 17.7921C99.9738 17.5747 100.143 17.0349 100.48 16.1727C100.825 15.3105 100.997 14.7557 100.997 14.5083C100.997 14.036 100.825 13.7998 100.48 13.7998C100.105 13.7998 99.7002 14.1035 99.2653 14.7107C98.763 15.438 98.3169 16.675 97.9271 18.4219L97.1399 18.4894L98.242 13.946L97.5222 14.0022L97.511 13.8111C98.0283 13.7436 98.5119 13.6499 98.9617 13.5299L99.1191 13.6424C98.7593 14.4671 98.4444 15.4155 98.1745 16.4876H98.2644L98.4444 15.9928C98.8492 14.8607 99.2878 14.1259 99.7601 13.7886C99.9851 13.6386 100.169 13.5412 100.311 13.4962C100.461 13.4512 100.645 13.4287 100.862 13.4287C101.087 13.4287 101.278 13.5187 101.436 13.6986C101.593 13.8785 101.672 14.1297 101.672 14.4521Z" fill="#6082FA"/>
</svg>
