<svg width="67" height="23" viewBox="0 0 67 23" fill="none" xmlns="http://www.w3.org/2000/svg">
<path opacity="0.86" d="M3.82235 5.32588H8.95235C9.95824 5.32588 10.6758 5.26553 11.1049 5.14482C10.9306 5.54718 10.6959 6.41223 10.4008 7.74L10.1996 8.68553H9.75706L9.97835 6.25129C9.97835 6.00988 9.82412 5.88918 9.51565 5.88918H6.94059C5.31777 13.5473 4.50635 17.4233 4.50635 17.5172C4.50635 17.5976 4.58012 17.6379 4.72765 17.6379H6.45776L6.39741 18H1.00588L1.06624 17.6379H2.83659C3.01094 17.6379 3.11824 17.5373 3.15847 17.3361L5.57259 5.88918H3.01765C2.69576 5.88918 2.48788 6.0367 2.394 6.33176L1.60941 8.68553H1.16682L1.368 7.74C1.62282 6.57318 1.75024 5.70812 1.75024 5.14482C2.13918 5.26553 2.82988 5.32588 3.82235 5.32588ZM12.7683 5.32588H18.8237C19.843 5.32588 20.5672 5.26553 20.9964 5.14482C20.7952 5.61423 20.5538 6.47929 20.2721 7.74L20.071 8.68553H19.6284L19.8899 6.13059C19.8899 5.90259 19.7424 5.78859 19.4473 5.78859H15.2025L14.0156 11.3813H18.0793C18.2134 11.3679 18.3073 11.274 18.361 11.0996L18.7633 9.85235H19.1053L18.3207 13.4735H17.9787L18.1598 12.2262C18.1598 12.0385 18.086 11.9446 17.9385 11.9446H13.915L12.728 17.5373H17.174C17.4959 17.5373 17.7038 17.3898 17.7977 17.0947L18.6426 14.6404H19.0852L18.884 15.5859C18.6292 16.7795 18.5018 17.6446 18.5018 18.1811C18.1129 18.0604 17.4221 18 16.4297 18H10.0926L10.153 17.6379H11.0784C11.2527 17.6379 11.36 17.5373 11.4003 17.3361C13.0097 9.71824 13.8144 5.87576 13.8144 5.80871C13.8144 5.72823 13.7406 5.688 13.5931 5.688H12.7079L12.7683 5.32588ZM24.0742 5.32588H30.1296C31.1489 5.32588 31.8732 5.26553 32.3023 5.14482C32.1012 5.61423 31.8598 6.47929 31.5781 7.74L31.3769 8.68553H30.9343L31.1959 6.13059C31.1959 5.90259 31.0483 5.78859 30.7533 5.78859H26.5085L25.3215 11.3813H29.3853C29.5194 11.3679 29.6133 11.274 29.6669 11.0996L30.0693 9.85235H30.4113L29.6267 13.4735H29.2847L29.4658 12.2262C29.4658 12.0385 29.392 11.9446 29.2445 11.9446H25.2209L24.034 17.5373H28.48C28.8019 17.5373 29.0098 17.3898 29.1036 17.0947L29.9486 14.6404H30.3912L30.19 15.5859C29.9352 16.7795 29.8078 17.6446 29.8078 18.1811C29.4188 18.0604 28.7281 18 27.7356 18H21.3986L21.4589 17.6379H22.3843C22.5587 17.6379 22.666 17.5373 22.7062 17.3361C24.3156 9.71824 25.1203 5.87576 25.1203 5.80871C25.1203 5.72823 25.0466 5.688 24.899 5.688H24.0139L24.0742 5.32588ZM37.7742 5.96965L35.3601 17.4367C35.3601 17.5708 35.4338 17.6379 35.5814 17.6379H36.4665L36.4062 18H32.7045L32.7649 17.6379H33.6903C33.8647 17.6379 33.9719 17.5373 34.0122 17.3361C35.6216 9.71824 36.4263 5.87576 36.4263 5.80871C36.4263 5.72823 36.3525 5.688 36.205 5.688H35.3198L35.3802 5.32588H39.0818L39.0215 5.688H38.1162C37.9418 5.688 37.8278 5.78188 37.7742 5.96965ZM40.651 14.4794L40.6912 16.3302C40.7181 17.1618 40.9394 17.5775 41.3551 17.5775C41.6234 17.5775 41.8447 17.4367 42.019 17.1551C42.2068 16.8734 42.3007 16.5113 42.3007 16.0687L42.6829 16.0084C42.6829 16.6924 42.5018 17.2355 42.1397 17.6379C41.791 18.0402 41.3484 18.2414 40.8119 18.2414C39.8597 18.2414 39.3568 17.5239 39.3031 16.0888L39.2227 14.1173C39.1824 13.2455 39.0014 12.642 38.6795 12.3067C38.3576 11.958 37.8278 11.7836 37.0902 11.7836L37.1908 11.4618L42.9243 5.688H41.9788L42.0391 5.32588H44.6343L44.5739 5.688H44.0509C43.8363 5.688 43.6418 5.78188 43.4675 5.96965L38.0156 11.4215C38.9812 11.4349 39.6518 11.7166 40.0274 12.2665C40.4163 12.8164 40.6242 13.554 40.651 14.4794ZM47.2166 5.32588H53.272C54.2913 5.32588 55.0155 5.26553 55.4447 5.14482C55.2435 5.61423 55.0021 6.47929 54.7205 7.74L54.5193 8.68553H54.0767L54.3382 6.13059C54.3382 5.90259 54.1907 5.78859 53.8956 5.78859H49.6508L48.4639 11.3813H52.5276C52.6618 11.3679 52.7556 11.274 52.8093 11.0996L53.2116 9.85235H53.5536L52.7691 13.4735H52.4271L52.6081 12.2262C52.6081 12.0385 52.5344 11.9446 52.3868 11.9446H48.3633L47.1764 17.5373H51.6224C51.9442 17.5373 52.1521 17.3898 52.246 17.0947L53.0909 14.6404H53.5335L53.3324 15.5859C53.0775 16.7795 52.9501 17.6446 52.9501 18.1811C52.5612 18.0604 51.8705 18 50.878 18H44.5409L44.6013 17.6379H45.5267C45.7011 17.6379 45.8084 17.5373 45.8486 17.3361C47.458 9.71824 48.2627 5.87576 48.2627 5.80871C48.2627 5.72823 48.1889 5.688 48.0414 5.688H47.1562L47.2166 5.32588ZM60.6148 14.1776L59.7296 14.2782L57.8788 5.96965C57.8385 5.78188 57.738 5.688 57.577 5.688H56.8729L56.9333 5.32588H60.2527L60.1923 5.688H59.2468L60.8562 12.8298L65.101 5.688H64.1555L64.2158 5.32588H66.811L66.7507 5.688H66.0465C65.8856 5.688 65.7448 5.78188 65.6241 5.96965L60.6148 14.1776ZM59.6894 13.1315L60.9769 13.4735C60.427 16.0754 60.1521 17.4233 60.1521 17.5172C60.1521 17.5976 60.2258 17.6379 60.3734 17.6379H61.7011L61.6408 18H57.054L57.1143 17.6379H58.4823C58.6567 17.6379 58.764 17.5373 58.8042 17.3361L59.6894 13.1315Z" fill="#6082FA"/>
</svg>
