<svg width="291" height="23" viewBox="0 0 291 23" fill="none" xmlns="http://www.w3.org/2000/svg">
<path opacity="0.86" d="M3.82235 5.32588H8.95235C9.95824 5.32588 10.6758 5.26553 11.1049 5.14482C10.9306 5.54718 10.6959 6.41223 10.4008 7.74L10.1996 8.68553H9.75706L9.97835 6.25129C9.97835 6.00988 9.82412 5.88918 9.51565 5.88918H6.94059C5.31777 13.5473 4.50635 17.4233 4.50635 17.5172C4.50635 17.5976 4.58012 17.6379 4.72765 17.6379H6.45776L6.39741 18H1.00588L1.06624 17.6379H2.83659C3.01094 17.6379 3.11824 17.5373 3.15847 17.3361L5.57259 5.88918H3.01765C2.69576 5.88918 2.48788 6.0367 2.394 6.33176L1.60941 8.68553H1.16682L1.368 7.74C1.62282 6.57318 1.75024 5.70812 1.75024 5.14482C2.13918 5.26553 2.82988 5.32588 3.82235 5.32588ZM14.739 9.06776C15.4498 9.06776 15.9796 9.24212 16.3283 9.59082C16.6904 9.92612 16.8715 10.4156 16.8715 11.0594C16.8715 11.6898 16.6234 12.2396 16.1271 12.7091C15.2822 13.5138 14.0282 13.9161 12.3651 13.9161C11.8689 13.9161 11.4397 13.8759 11.0776 13.7954V13.4132C11.547 13.4802 11.9359 13.5138 12.2444 13.5138C13.3576 13.5138 14.2159 13.2321 14.8195 12.6688C15.4364 12.1055 15.7449 11.4886 15.7449 10.818C15.7449 10.4559 15.6443 10.1541 15.4431 9.91271C15.2554 9.67129 14.9335 9.55059 14.4775 9.55059C14.0349 9.55059 13.5789 9.75847 13.1095 10.1742C12.6535 10.59 12.2914 11.1064 12.0231 11.7233C11.4867 13.0242 11.2184 14.1508 11.2184 15.1031C11.2184 16.8734 11.7549 17.7586 12.8278 17.7586C14.1556 17.7586 15.1279 17.0344 15.7449 15.5859L16.0668 15.6664C15.7449 16.4845 15.2755 17.1215 14.6585 17.5775C14.055 18.0201 13.371 18.2414 12.6065 18.2414C11.8421 18.2414 11.1983 17.9598 10.6752 17.3965C10.1522 16.8332 9.89065 16.0754 9.89065 15.1232C9.89065 14.1709 10.0717 13.2522 10.4338 12.3671C10.7959 11.4685 11.3592 10.6973 12.1237 10.0535C12.8882 9.39635 13.7599 9.06776 14.739 9.06776ZM24.7065 18L23.2782 18.1207L24.0024 15.3646C24.0829 15.0561 24.2036 14.6001 24.3645 13.9966C24.5389 13.3931 24.6663 12.9304 24.7467 12.6085C24.9747 11.7233 25.0887 11.1265 25.0887 10.818C25.0887 10.5095 25.0083 10.2547 24.8473 10.0535C24.6998 9.83894 24.4718 9.73165 24.1633 9.73165C23.4927 9.73165 22.7618 10.4089 21.9705 11.7635C21.1792 13.1181 20.455 15.1969 19.7978 18L18.3896 18.1207L20.3611 9.99318L19.0736 10.0938L19.0535 9.75176C19.9789 9.63106 20.8439 9.46341 21.6486 9.24882L21.9303 9.45C21.2865 10.9253 20.7232 12.6219 20.2404 14.5398H20.4013L20.7232 13.6546C21.3536 11.9379 22.0242 10.7442 22.735 10.0736C23.4458 9.40306 24.1097 9.06776 24.7266 9.06776C25.6655 9.06776 26.1349 9.59753 26.1349 10.6571C26.1349 11.274 25.9404 12.1458 25.5515 13.2724L25.129 14.5398H25.31L25.6319 13.6546C26.3562 11.6294 27.1407 10.3151 27.9857 9.71153C28.388 9.44329 28.7166 9.26894 28.9715 9.18847C29.2397 9.108 29.5549 9.06776 29.917 9.06776C30.2791 9.06776 30.5809 9.22871 30.8223 9.55059C31.0637 9.87247 31.1844 10.3218 31.1844 10.8985C31.1844 11.4752 30.8558 12.5347 30.1986 14.0771C29.5549 15.6194 29.233 16.6052 29.233 17.0344C29.233 17.4635 29.4006 17.6781 29.7359 17.6781C29.9907 17.6781 30.2657 17.5105 30.5607 17.1752C30.8558 16.8265 31.1106 16.3369 31.3252 15.7066L31.6471 15.7871C31.0704 17.4233 30.3193 18.2414 29.3939 18.2414C28.5624 18.2414 28.1466 17.7854 28.1466 16.8734C28.1466 16.4845 28.4484 15.5188 29.0519 13.9765C29.6689 12.4341 29.9773 11.3813 29.9773 10.818C29.9773 10.0938 29.7426 9.73165 29.2732 9.73165C28.6026 9.73165 27.8784 10.2748 27.1005 11.3612C26.2019 12.6621 25.4039 14.8751 24.7065 18ZM36.8843 9.24882L37.1659 9.45C36.5222 10.9253 35.9589 12.6219 35.4761 14.5398H35.637L35.9589 13.6546C37.0721 10.5967 38.3462 9.06776 39.7812 9.06776C40.3579 9.06776 40.8475 9.34941 41.2498 9.91271C41.6656 10.476 41.8735 11.16 41.8735 11.9647C41.8735 12.7694 41.7662 13.5205 41.5516 14.2179C41.3504 14.9019 41.0554 15.5456 40.6664 16.1492C40.2775 16.7393 39.7678 17.2221 39.1375 17.5976C38.5071 17.9732 37.8097 18.1609 37.0452 18.1609C35.8784 18.1609 34.9664 17.6446 34.3092 16.6119L34.4501 16.2699C35.0938 17.2489 35.9388 17.7385 36.9849 17.7385C37.5884 17.7385 38.1249 17.5373 38.5943 17.1349C39.0771 16.7326 39.4459 16.2296 39.7008 15.6261C40.2104 14.3922 40.4652 13.1852 40.4652 12.0049C40.4652 11.3209 40.3646 10.7912 40.1635 10.4156C39.9757 10.0267 39.7276 9.83223 39.4191 9.83223C38.7888 9.83223 38.0779 10.4425 37.2866 11.6629C36.5088 12.8834 35.8046 14.7879 35.1743 17.3764L33.9672 22.3454L32.559 22.4661L35.5968 9.99318L34.3092 10.0938L34.2891 9.75176C35.2145 9.63106 36.0796 9.46341 36.8843 9.24882Z" fill="#6082FA"/>
<path opacity="0.86" d="M65.7261 12.87H57.84V11.8038H65.7261V12.87ZM65.7261 16.29H57.84V15.2238H65.7261V16.29Z" fill="#6082FA"/>
<path opacity="0.86" d="M168.739 5.52706C167.345 6.55976 166.258 8.00823 165.48 9.87247C164.702 11.7233 164.314 13.6412 164.314 15.6261C164.314 17.5976 164.77 19.0461 165.682 19.9715L165.4 20.2733C164.555 19.7502 163.911 19.0126 163.469 18.0604C163.039 17.1081 162.825 16.0486 162.825 14.8818C162.825 12.9639 163.348 11.0929 164.394 9.26894C165.454 7.43153 166.855 6.08365 168.599 5.22529L168.739 5.52706ZM171.726 5.32588H176.856C177.862 5.32588 178.579 5.26553 179.008 5.14482C178.834 5.54718 178.599 6.41223 178.304 7.74L178.103 8.68553H177.66L177.882 6.25129C177.882 6.00988 177.727 5.88918 177.419 5.88918H174.844C173.221 13.5473 172.41 17.4233 172.41 17.5172C172.41 17.5976 172.483 17.6379 172.631 17.6379H174.361L174.301 18H168.909L168.97 17.6379H170.74C170.914 17.6379 171.022 17.5373 171.062 17.3361L173.476 5.88918H170.921C170.599 5.88918 170.391 6.0367 170.297 6.33176L169.513 8.68553H169.07L169.271 7.74C169.526 6.57318 169.654 5.70812 169.654 5.14482C170.042 5.26553 170.733 5.32588 171.726 5.32588ZM182.642 9.06776C183.353 9.06776 183.883 9.24212 184.232 9.59082C184.594 9.92612 184.775 10.4156 184.775 11.0594C184.775 11.6898 184.527 12.2396 184.03 12.7091C183.185 13.5138 181.931 13.9161 180.268 13.9161C179.772 13.9161 179.343 13.8759 178.981 13.7954V13.4132C179.45 13.4802 179.839 13.5138 180.148 13.5138C181.261 13.5138 182.119 13.2321 182.723 12.6688C183.34 12.1055 183.648 11.4886 183.648 10.818C183.648 10.4559 183.548 10.1541 183.346 9.91271C183.159 9.67129 182.837 9.55059 182.381 9.55059C181.938 9.55059 181.482 9.75847 181.013 10.1742C180.557 10.59 180.195 11.1064 179.926 11.7233C179.39 13.0242 179.122 14.1508 179.122 15.1031C179.122 16.8734 179.658 17.7586 180.731 17.7586C182.059 17.7586 183.031 17.0344 183.648 15.5859L183.97 15.6664C183.648 16.4845 183.179 17.1215 182.562 17.5775C181.958 18.0201 181.274 18.2414 180.51 18.2414C179.745 18.2414 179.102 17.9598 178.579 17.3965C178.055 16.8332 177.794 16.0754 177.794 15.1232C177.794 14.1709 177.975 13.2522 178.337 12.3671C178.699 11.4685 179.263 10.6973 180.027 10.0535C180.791 9.39635 181.663 9.06776 182.642 9.06776ZM192.61 18L191.181 18.1207L191.906 15.3646C191.986 15.0561 192.107 14.6001 192.268 13.9966C192.442 13.3931 192.57 12.9304 192.65 12.6085C192.878 11.7233 192.992 11.1265 192.992 10.818C192.992 10.5095 192.912 10.2547 192.751 10.0535C192.603 9.83894 192.375 9.73165 192.067 9.73165C191.396 9.73165 190.665 10.4089 189.874 11.7635C189.082 13.1181 188.358 15.1969 187.701 18L186.293 18.1207L188.264 9.99318L186.977 10.0938L186.957 9.75176C187.882 9.63106 188.747 9.46341 189.552 9.24882L189.834 9.45C189.19 10.9253 188.626 12.6219 188.144 14.5398H188.305L188.626 13.6546C189.257 11.9379 189.927 10.7442 190.638 10.0736C191.349 9.40306 192.013 9.06776 192.63 9.06776C193.569 9.06776 194.038 9.59753 194.038 10.6571C194.038 11.274 193.844 12.1458 193.455 13.2724L193.032 14.5398H193.213L193.535 13.6546C194.259 11.6294 195.044 10.3151 195.889 9.71153C196.291 9.44329 196.62 9.26894 196.875 9.18847C197.143 9.108 197.458 9.06776 197.82 9.06776C198.182 9.06776 198.484 9.22871 198.726 9.55059C198.967 9.87247 199.088 10.3218 199.088 10.8985C199.088 11.4752 198.759 12.5347 198.102 14.0771C197.458 15.6194 197.136 16.6052 197.136 17.0344C197.136 17.4635 197.304 17.6781 197.639 17.6781C197.894 17.6781 198.169 17.5105 198.464 17.1752C198.759 16.8265 199.014 16.3369 199.228 15.7066L199.55 15.7871C198.974 17.4233 198.223 18.2414 197.297 18.2414C196.466 18.2414 196.05 17.7854 196.05 16.8734C196.05 16.4845 196.352 15.5188 196.955 13.9765C197.572 12.4341 197.881 11.3813 197.881 10.818C197.881 10.0938 197.646 9.73165 197.176 9.73165C196.506 9.73165 195.782 10.2748 195.004 11.3612C194.105 12.6621 193.307 14.8751 192.61 18ZM204.788 9.24882L205.069 9.45C204.425 10.9253 203.862 12.6219 203.379 14.5398H203.54L203.862 13.6546C204.975 10.5967 206.249 9.06776 207.685 9.06776C208.261 9.06776 208.751 9.34941 209.153 9.91271C209.569 10.476 209.777 11.16 209.777 11.9647C209.777 12.7694 209.669 13.5205 209.455 14.2179C209.254 14.9019 208.959 15.5456 208.57 16.1492C208.181 16.7393 207.671 17.2221 207.041 17.5976C206.41 17.9732 205.713 18.1609 204.949 18.1609C203.782 18.1609 202.87 17.6446 202.213 16.6119L202.353 16.2699C202.997 17.2489 203.842 17.7385 204.888 17.7385C205.492 17.7385 206.028 17.5373 206.498 17.1349C206.98 16.7326 207.349 16.2296 207.604 15.6261C208.114 14.3922 208.369 13.1852 208.369 12.0049C208.369 11.3209 208.268 10.7912 208.067 10.4156C207.879 10.0267 207.631 9.83223 207.322 9.83223C206.692 9.83223 205.981 10.4425 205.19 11.6629C204.412 12.8834 203.708 14.7879 203.078 17.3764L201.871 22.3454L200.462 22.4661L203.5 9.99318L202.213 10.0938L202.192 9.75176C203.118 9.63106 203.983 9.46341 204.788 9.24882ZM210.674 20.2331C211.545 19.5625 211.981 18.8584 211.981 18.1207C211.981 17.7184 211.841 17.3898 211.559 17.1349C211.626 16.8265 211.78 16.5582 212.022 16.3302C212.276 16.1022 212.545 15.9882 212.826 15.9882C213.376 15.9882 213.651 16.2632 213.651 16.8131C213.651 17.3629 213.376 18.0134 212.826 18.7645C212.29 19.5289 211.626 20.1124 210.835 20.5147L210.674 20.2331ZM223.884 5.32588H229.014C230.02 5.32588 230.737 5.26553 231.166 5.14482C230.992 5.54718 230.757 6.41223 230.462 7.74L230.261 8.68553H229.818L230.04 6.25129C230.04 6.00988 229.886 5.88918 229.577 5.88918H227.002C225.379 13.5473 224.568 17.4233 224.568 17.5172C224.568 17.5976 224.642 17.6379 224.789 17.6379H226.519L226.459 18H221.067L221.128 17.6379H222.898C223.072 17.6379 223.18 17.5373 223.22 17.3361L225.634 5.88918H223.079C222.757 5.88918 222.549 6.0367 222.455 6.33176L221.671 8.68553H221.228L221.429 7.74C221.684 6.57318 221.812 5.70812 221.812 5.14482C222.201 5.26553 222.891 5.32588 223.884 5.32588ZM232.83 5.32588H238.885C239.904 5.32588 240.629 5.26553 241.058 5.14482C240.857 5.61423 240.615 6.47929 240.334 7.74L240.132 8.68553H239.69L239.951 6.13059C239.951 5.90259 239.804 5.78859 239.509 5.78859H235.264L234.077 11.3813H238.141C238.275 11.3679 238.369 11.274 238.422 11.0996L238.825 9.85235H239.167L238.382 13.4735H238.04L238.221 12.2262C238.221 12.0385 238.147 11.9446 238 11.9446H233.976L232.789 17.5373H237.235C237.557 17.5373 237.765 17.3898 237.859 17.0947L238.704 14.6404H239.147L238.945 15.5859C238.691 16.7795 238.563 17.6446 238.563 18.1811C238.174 18.0604 237.484 18 236.491 18H230.154L230.214 17.6379H231.14C231.314 17.6379 231.421 17.5373 231.462 17.3361C233.071 9.71824 233.876 5.87576 233.876 5.80871C233.876 5.72823 233.802 5.688 233.654 5.688H232.769L232.83 5.32588ZM244.136 5.32588H250.191C251.21 5.32588 251.935 5.26553 252.364 5.14482C252.163 5.61423 251.921 6.47929 251.64 7.74L251.438 8.68553H250.996L251.257 6.13059C251.257 5.90259 251.11 5.78859 250.815 5.78859H246.57L245.383 11.3813H249.447C249.581 11.3679 249.675 11.274 249.728 11.0996L250.131 9.85235H250.473L249.688 13.4735H249.346L249.527 12.2262C249.527 12.0385 249.453 11.9446 249.306 11.9446H245.282L244.095 17.5373H248.541C248.863 17.5373 249.071 17.3898 249.165 17.0947L250.01 14.6404H250.453L250.251 15.5859C249.997 16.7795 249.869 17.6446 249.869 18.1811C249.48 18.0604 248.79 18 247.797 18H241.46L241.52 17.6379H242.446C242.62 17.6379 242.727 17.5373 242.768 17.3361C244.377 9.71824 245.182 5.87576 245.182 5.80871C245.182 5.72823 245.108 5.688 244.96 5.688H244.075L244.136 5.32588ZM257.836 5.96965L255.421 17.4367C255.421 17.5708 255.495 17.6379 255.643 17.6379H256.528L256.468 18H252.766L252.826 17.6379H253.752C253.926 17.6379 254.033 17.5373 254.074 17.3361C255.683 9.71824 256.488 5.87576 256.488 5.80871C256.488 5.72823 256.414 5.688 256.266 5.688H255.381L255.442 5.32588H259.143L259.083 5.688H258.178C258.003 5.688 257.889 5.78188 257.836 5.96965ZM260.712 14.4794L260.753 16.3302C260.779 17.1618 261.001 17.5775 261.417 17.5775C261.685 17.5775 261.906 17.4367 262.08 17.1551C262.268 16.8734 262.362 16.5113 262.362 16.0687L262.744 16.0084C262.744 16.6924 262.563 17.2355 262.201 17.6379C261.852 18.0402 261.41 18.2414 260.873 18.2414C259.921 18.2414 259.418 17.5239 259.365 16.0888L259.284 14.1173C259.244 13.2455 259.063 12.642 258.741 12.3067C258.419 11.958 257.889 11.7836 257.152 11.7836L257.252 11.4618L262.986 5.688H262.04L262.101 5.32588H264.696L264.635 5.688H264.112C263.898 5.688 263.703 5.78188 263.529 5.96965L258.077 11.4215C259.043 11.4349 259.713 11.7166 260.089 12.2665C260.478 12.8164 260.686 13.554 260.712 14.4794ZM267.278 5.32588H273.333C274.353 5.32588 275.077 5.26553 275.506 5.14482C275.305 5.61423 275.064 6.47929 274.782 7.74L274.581 8.68553H274.138L274.4 6.13059C274.4 5.90259 274.252 5.78859 273.957 5.78859H269.712L268.525 11.3813H272.589C272.723 11.3679 272.817 11.274 272.871 11.0996L273.273 9.85235H273.615L272.83 13.4735H272.488L272.67 12.2262C272.67 12.0385 272.596 11.9446 272.448 11.9446H268.425L267.238 17.5373H271.684C272.006 17.5373 272.214 17.3898 272.307 17.0947L273.152 14.6404H273.595L273.394 15.5859C273.139 16.7795 273.012 17.6446 273.012 18.1811C272.623 18.0604 271.932 18 270.939 18H264.602L264.663 17.6379H265.588C265.762 17.6379 265.87 17.5373 265.91 17.3361C267.519 9.71824 268.324 5.87576 268.324 5.80871C268.324 5.72823 268.25 5.688 268.103 5.688H267.218L267.278 5.32588ZM280.676 14.1776L279.791 14.2782L277.94 5.96965C277.9 5.78188 277.799 5.688 277.638 5.688H276.934L276.995 5.32588H280.314L280.254 5.688H279.308L280.918 12.8298L285.162 5.688H284.217L284.277 5.32588H286.872L286.812 5.688H286.108C285.947 5.688 285.806 5.78188 285.685 5.96965L280.676 14.1776ZM279.751 13.1315L281.038 13.4735C280.488 16.0754 280.213 17.4233 280.213 17.5172C280.213 17.5976 280.287 17.6379 280.435 17.6379H281.763L281.702 18H277.115L277.176 17.6379H278.544C278.718 17.6379 278.825 17.5373 278.866 17.3361L279.751 13.1315ZM284.339 19.9715C285.68 18.9522 286.747 17.4971 287.538 15.606C288.329 13.7149 288.725 11.8038 288.725 9.87247C288.725 7.92776 288.276 6.47929 287.377 5.52706L287.618 5.22529C288.49 5.74835 289.141 6.486 289.57 7.43823C289.999 8.37706 290.214 9.43659 290.214 10.6168C290.214 12.5347 289.684 14.4124 288.624 16.2498C287.578 18.0872 286.177 19.4284 284.42 20.2733L284.339 19.9715Z" fill="#6082FA"/>
<path opacity="0.86" d="M45.002 13.18H49.216C49.9253 13.18 50.4293 13.138 50.728 13.054C50.588 13.3807 50.42 13.9827 50.224 14.86L50.084 15.518H49.776L49.958 13.74C49.958 13.5813 49.8553 13.502 49.65 13.502H46.696L45.87 17.394H48.698C48.7913 17.3847 48.8567 17.3193 48.894 17.198L49.174 16.33H49.412L48.866 18.85H48.628L48.754 17.982C48.754 17.8513 48.7027 17.786 48.6 17.786H45.8L44.974 21.678H48.068C48.292 21.678 48.4367 21.5753 48.502 21.37L49.09 19.662H49.398L49.258 20.32C49.0807 21.1507 48.992 21.7527 48.992 22.126C48.7213 22.042 48.2407 22 47.55 22H43.14L43.182 21.748H43.826C43.9473 21.748 44.022 21.678 44.05 21.538C45.17 16.2367 45.73 13.5627 45.73 13.516C45.73 13.46 45.6787 13.432 45.576 13.432H44.96L45.002 13.18Z" fill="#6082FA"/>
<path opacity="0.86" d="M76.8768 5.32588H82.9322C83.9515 5.32588 84.6758 5.26553 85.1049 5.14482C84.9038 5.61423 84.6624 6.47929 84.3807 7.74L84.1795 8.68553H83.7369L83.9985 6.13059C83.9985 5.90259 83.8509 5.78859 83.5559 5.78859H79.3111L78.1241 11.3813H82.1879C82.322 11.3679 82.4159 11.274 82.4695 11.0996L82.8719 9.85235H83.2139L82.4293 13.4735H82.0873L82.2684 12.2262C82.2684 12.0385 82.1946 11.9446 82.0471 11.9446H78.0235L76.8366 17.5373H81.2826C81.6045 17.5373 81.8124 17.3898 81.9062 17.0947L82.7512 14.6404H83.1938L82.9926 15.5859C82.7378 16.7795 82.6104 17.6446 82.6104 18.1811C82.2214 18.0604 81.5307 18 80.5382 18H74.2012L74.2615 17.6379H75.1869C75.3613 17.6379 75.4686 17.5373 75.5088 17.3361C77.1182 9.71824 77.9229 5.87576 77.9229 5.80871C77.9229 5.72823 77.8492 5.688 77.7016 5.688H76.8165L76.8768 5.32588ZM94.3187 10.8985C94.3187 11.4752 93.9901 12.5347 93.3329 14.0771C92.6891 15.6194 92.3673 16.6052 92.3673 17.0344C92.3673 17.4635 92.5349 17.6781 92.8702 17.6781C93.125 17.6781 93.4 17.5105 93.695 17.1752C93.9901 16.8265 94.2449 16.3369 94.4595 15.7066L94.7814 15.7871C94.2047 17.4233 93.4536 18.2414 92.5282 18.2414C91.6967 18.2414 91.2809 17.7854 91.2809 16.8734C91.2809 16.4845 91.5827 15.5188 92.1862 13.9765C92.8031 12.4341 93.1116 11.4416 93.1116 10.9991C93.1116 10.1541 92.8031 9.73165 92.1862 9.73165C91.5156 9.73165 90.7914 10.2748 90.0135 11.3612C89.1149 12.6621 88.3169 14.8751 87.6195 18L86.2113 18.1207L88.1828 9.99318L86.8953 10.0938L86.8751 9.75176C87.8005 9.63106 88.6656 9.46341 89.4703 9.24882L89.752 9.45C89.1082 10.9253 88.5449 12.6219 88.0621 14.5398H88.223L88.5449 13.6546C89.2691 11.6294 90.0537 10.3151 90.8987 9.71153C91.301 9.44329 91.6296 9.26894 91.8844 9.18847C92.1527 9.108 92.4813 9.06776 92.8702 9.06776C93.2725 9.06776 93.6145 9.22871 93.8962 9.55059C94.1778 9.87247 94.3187 10.3218 94.3187 10.8985ZM101.379 9.55059C100.829 9.55059 100.319 9.75847 99.8496 10.1742C99.3936 10.59 99.0315 11.1064 98.7633 11.7233C98.2268 13.0242 97.9585 14.1508 97.9585 15.1031C97.9585 16.8734 98.495 17.7586 99.568 17.7586C100.896 17.7586 101.868 17.0344 102.485 15.5859L102.807 15.6664C102.485 16.4845 102.016 17.1215 101.399 17.5775C100.795 18.0201 100.111 18.2414 99.3467 18.2414C98.5822 18.2414 97.9384 17.9598 97.4154 17.3965C96.8923 16.8332 96.6308 16.0754 96.6308 15.1232C96.6308 14.1709 96.8118 13.2522 97.174 12.3671C97.5361 11.4685 98.0994 10.6973 98.8638 10.0535C99.6283 9.39635 100.5 9.06776 101.479 9.06776C102.15 9.06776 102.653 9.24212 102.988 9.59082C103.337 9.92612 103.511 10.3352 103.511 10.818C103.511 11.2874 103.424 11.7099 103.249 12.0854C103.089 12.4609 102.827 12.6487 102.465 12.6487C102.116 12.6487 101.855 12.5414 101.68 12.3268C102.069 11.7367 102.264 11.16 102.264 10.5967C102.264 9.89929 101.969 9.55059 101.379 9.55059Z" fill="#6082FA"/>
<path opacity="0.86" d="M107.66 13.18H111.23C111.93 13.18 112.429 13.138 112.728 13.054C112.607 13.334 112.443 13.936 112.238 14.86L112.098 15.518H111.79L111.944 13.824C111.944 13.656 111.837 13.572 111.622 13.572H109.83C108.701 18.9013 108.136 21.5987 108.136 21.664C108.136 21.72 108.187 21.748 108.29 21.748H109.494L109.452 22H105.7L105.742 21.748H106.974C107.095 21.748 107.17 21.678 107.198 21.538L108.878 13.572H107.1C106.876 13.572 106.731 13.6747 106.666 13.88L106.12 15.518H105.812L105.952 14.86C106.129 14.048 106.218 13.446 106.218 13.054C106.489 13.138 106.969 13.18 107.66 13.18ZM113.886 13.18H118.1C118.809 13.18 119.313 13.138 119.612 13.054C119.472 13.3807 119.304 13.9827 119.108 14.86L118.968 15.518H118.66L118.842 13.74C118.842 13.5813 118.739 13.502 118.534 13.502H115.58L114.754 17.394H117.582C117.675 17.3847 117.74 17.3193 117.778 17.198L118.058 16.33H118.296L117.75 18.85H117.512L117.638 17.982C117.638 17.8513 117.586 17.786 117.484 17.786H114.684L113.858 21.678H116.952C117.176 21.678 117.32 21.5753 117.386 21.37L117.974 19.662H118.282L118.142 20.32C117.964 21.1507 117.876 21.7527 117.876 22.126C117.605 22.042 117.124 22 116.434 22H112.024L112.066 21.748H112.71C112.831 21.748 112.906 21.678 112.934 21.538C114.054 16.2367 114.614 13.5627 114.614 13.516C114.614 13.46 114.562 13.432 114.46 13.432H113.844L113.886 13.18ZM121.753 13.18H125.967C126.677 13.18 127.181 13.138 127.479 13.054C127.339 13.3807 127.171 13.9827 126.975 14.86L126.835 15.518H126.527L126.709 13.74C126.709 13.5813 126.607 13.502 126.401 13.502H123.447L122.621 17.394H125.449C125.543 17.3847 125.608 17.3193 125.645 17.198L125.925 16.33H126.163L125.617 18.85H125.379L125.505 17.982C125.505 17.8513 125.454 17.786 125.351 17.786H122.551L121.725 21.678H124.819C125.043 21.678 125.188 21.5753 125.253 21.37L125.841 19.662H126.149L126.009 20.32C125.832 21.1507 125.743 21.7527 125.743 22.126C125.473 22.042 124.992 22 124.301 22H119.891L119.933 21.748H120.577C120.699 21.748 120.773 21.678 120.801 21.538C121.921 16.2367 122.481 13.5627 122.481 13.516C122.481 13.46 122.43 13.432 122.327 13.432H121.711L121.753 13.18ZM132.673 21.748L132.295 19.046H129.201L127.689 21.748H128.557L128.515 22H126.499L126.555 21.748H127.045C127.176 21.748 127.274 21.6827 127.339 21.552L132.043 13.18H132.491L133.639 21.552C133.658 21.6827 133.728 21.748 133.849 21.748H134.339L134.297 22H131.763L131.805 21.748H132.673ZM131.693 14.608L129.411 18.654H132.239L131.693 14.608ZM138.704 13.628L137.01 21.678H139.768C140.001 21.678 140.151 21.5753 140.216 21.37L140.79 19.662H141.098L140.958 20.32C140.781 21.132 140.692 21.734 140.692 22.126C140.421 22.042 139.941 22 139.25 22H135.176L135.218 21.748H135.862C135.983 21.748 136.058 21.678 136.086 21.538C137.206 16.2367 137.766 13.5627 137.766 13.516C137.766 13.46 137.715 13.432 137.612 13.432H136.996L137.038 13.18H139.614L139.572 13.432H138.942C138.821 13.432 138.741 13.4973 138.704 13.628ZM149.094 18.836L148.996 19.312C148.818 20.1427 148.389 20.8287 147.708 21.37C147.036 21.902 146.247 22.168 145.342 22.168C144.436 22.168 143.713 21.888 143.172 21.328C142.63 20.768 142.36 19.984 142.36 18.976C142.36 18.2947 142.472 17.6087 142.696 16.918C142.92 16.2273 143.232 15.588 143.634 15C144.044 14.412 144.572 13.936 145.216 13.572C145.86 13.1987 146.56 13.012 147.316 13.012C147.894 13.012 148.436 13.18 148.94 13.516C149.108 13.6187 149.229 13.67 149.304 13.67C149.416 13.67 149.504 13.572 149.57 13.376L149.654 13.096H149.906L149.388 15.518H149.15C149.159 15.4433 149.164 15.336 149.164 15.196C149.164 14.5893 148.982 14.1413 148.618 13.852C148.263 13.5627 147.782 13.418 147.176 13.418C146.569 13.418 146.009 13.614 145.496 14.006C144.982 14.398 144.572 14.888 144.264 15.476C143.638 16.708 143.326 17.9307 143.326 19.144C143.326 19.984 143.512 20.6327 143.886 21.09C144.259 21.538 144.805 21.762 145.524 21.762C146.252 21.762 146.83 21.524 147.26 21.048C147.689 20.572 147.988 19.8207 148.156 18.794C148.156 18.6913 148.109 18.64 148.016 18.64H147.134L147.176 18.388H149.738L149.696 18.64H149.346C149.206 18.64 149.122 18.7053 149.094 18.836ZM153.967 13.376C154.509 13.1333 155.083 13.012 155.689 13.012C156.613 13.012 157.341 13.292 157.873 13.852C158.415 14.4027 158.685 15.182 158.685 16.19C158.685 16.8713 158.573 17.562 158.349 18.262C158.125 18.9527 157.813 19.592 157.411 20.18C157.01 20.768 156.487 21.2487 155.843 21.622C155.199 21.986 154.457 22.168 153.617 22.168C152.777 22.168 152.087 21.888 151.545 21.328C151.013 20.768 150.747 19.956 150.747 18.892C150.747 17.828 151.037 16.7547 151.615 15.672C152.203 14.5893 152.987 13.824 153.967 13.376ZM157.131 14.09C156.758 13.614 156.263 13.376 155.647 13.376C155.031 13.376 154.462 13.5767 153.939 13.978C153.417 14.37 153.001 14.8693 152.693 15.476C152.049 16.7267 151.727 17.94 151.727 19.116C151.727 19.9653 151.909 20.628 152.273 21.104C152.647 21.5707 153.141 21.804 153.757 21.804C154.383 21.804 154.957 21.608 155.479 21.216C156.002 20.8147 156.422 20.3153 156.739 19.718C157.383 18.4767 157.705 17.2633 157.705 16.078C157.705 15.2287 157.514 14.566 157.131 14.09Z" fill="#6082FA"/>
</svg>
