<svg width="215" height="19" viewBox="0 0 215 19" fill="none" xmlns="http://www.w3.org/2000/svg">
<path opacity="0.86" d="M6.20475 1.60753C6.98263 1.25882 7.80746 1.08447 8.67922 1.08447C10.007 1.08447 11.0531 1.48682 11.8176 2.29153C12.5955 3.08282 12.9844 4.20271 12.9844 5.65118C12.9844 6.63024 12.8235 7.62271 12.5016 8.62859C12.1797 9.62106 11.7304 10.5398 11.1537 11.3847C10.577 12.2296 9.82593 12.9204 8.90051 13.4568C7.9751 13.9799 6.90887 14.2414 5.70181 14.2414C4.49475 14.2414 3.50228 13.8391 2.7244 13.0344C1.95993 12.2296 1.57769 11.0628 1.57769 9.53388C1.57769 8.00494 1.99345 6.46259 2.82498 4.90682C3.66993 3.35106 4.79651 2.25129 6.20475 1.60753ZM10.7513 2.63353C10.2149 1.94953 9.50404 1.60753 8.61887 1.60753C7.73369 1.60753 6.91557 1.89588 6.16451 2.47259C5.41346 3.03588 4.81663 3.75341 4.37404 4.62518C3.44863 6.42235 2.98593 8.16588 2.98593 9.85576C2.98593 11.0762 3.24746 12.0285 3.77051 12.7125C4.30698 13.3831 5.01781 13.7184 5.90298 13.7184C6.80157 13.7184 7.6264 13.4367 8.37746 12.8734C9.12851 12.2967 9.73204 11.5792 10.188 10.7208C11.1135 8.93706 11.5762 7.19353 11.5762 5.49024C11.5762 4.26976 11.3012 3.31753 10.7513 2.63353ZM17.7513 5.24882L18.033 5.45C17.3892 6.92529 16.8259 8.62188 16.3431 10.5398H16.504L16.8259 9.65459C17.4563 7.93788 18.0799 6.74423 18.6969 6.07365C19.3138 5.40306 19.8503 5.06776 20.3063 5.06776C20.7623 5.06776 21.0976 5.21529 21.3122 5.51035C21.5402 5.80541 21.6542 6.18765 21.6542 6.65706C21.6542 7.12647 21.567 7.53553 21.3926 7.88423C21.2183 8.23294 20.9635 8.40729 20.6282 8.40729C20.3063 8.40729 20.038 8.3 19.8235 8.08541C19.9576 7.91106 20.085 7.65623 20.2057 7.32094C20.3264 6.98565 20.3867 6.69059 20.3867 6.43576C20.3867 6.04682 20.2258 5.85235 19.9039 5.85235C19.5686 5.85235 19.1529 6.18094 18.6566 6.83812C17.5703 8.25976 16.6516 10.6471 15.9005 14L14.4923 14.1207L16.4638 5.99318L15.1763 6.09376L15.1562 5.75176C16.0816 5.63106 16.9466 5.46341 17.7513 5.24882ZM28.4558 13.0142C28.4558 13.4568 28.6235 13.6781 28.9588 13.6781C29.2136 13.6781 29.4885 13.5105 29.7836 13.1752C30.0786 12.8265 30.3335 12.3369 30.548 11.7066L30.8699 11.7871C30.2932 13.4233 29.5422 14.2414 28.6168 14.2414C27.7852 14.2414 27.3695 13.7184 27.3695 12.6722C27.3695 11.6127 28.2479 7.89765 30.0049 1.52706L28.7173 1.62765L28.6972 1.28565C29.6226 1.16494 30.4877 0.997294 31.2924 0.782706L31.574 0.983882C31.0108 2.63353 30.3469 4.87329 29.5824 7.70318C28.8313 10.5196 28.4558 12.29 28.4558 13.0142ZM27.5706 11.7669H27.3695C26.5379 13.4166 25.5723 14.2414 24.4725 14.2414C23.8422 14.2414 23.3124 13.9665 22.8832 13.4166C22.4675 12.8533 22.2596 12.1693 22.2596 11.3646C22.2596 10.5465 22.3669 9.78871 22.5815 9.09129C22.796 8.39388 23.0978 7.74341 23.4868 7.13988C23.8757 6.52294 24.392 6.02671 25.0358 5.65118C25.6796 5.26223 26.3368 5.06776 27.0073 5.06776C28.2949 5.06776 29.2069 5.63106 29.7433 6.75765L29.4617 7.11976C28.8313 6.07365 28.0468 5.55059 27.1079 5.55059C26.5312 5.55059 26.0015 5.75847 25.5186 6.17423C25.0492 6.59 24.6804 7.11306 24.4122 7.74341C23.8623 9.03094 23.5873 10.2447 23.5873 11.3847C23.5873 12.1358 23.708 12.6991 23.9495 13.0746C24.2043 13.4501 24.5396 13.6379 24.9553 13.6379C25.532 13.6379 26.1222 13.1551 26.7257 12.1894C27.3292 11.2104 27.8657 9.81553 28.3351 8.00494L27.5706 11.7669ZM37.5691 5.06776C38.2799 5.06776 38.8097 5.24212 39.1584 5.59082C39.5205 5.92612 39.7016 6.41565 39.7016 7.05941C39.7016 7.68976 39.4535 8.23965 38.9572 8.70906C38.1123 9.51376 36.8583 9.91612 35.1952 9.91612C34.699 9.91612 34.2698 9.87588 33.9077 9.79541V9.41318C34.3771 9.48024 34.766 9.51376 35.0745 9.51376C36.1877 9.51376 37.046 9.23212 37.6496 8.66882C38.2665 8.10553 38.575 7.48859 38.575 6.818C38.575 6.45588 38.4744 6.15412 38.2732 5.91271C38.0855 5.67129 37.7636 5.55059 37.3076 5.55059C36.865 5.55059 36.409 5.75847 35.9396 6.17423C35.4836 6.59 35.1215 7.10635 34.8532 7.72329C34.3168 9.02424 34.0485 10.1508 34.0485 11.1031C34.0485 12.8734 34.585 13.7586 35.6579 13.7586C36.9857 13.7586 37.958 13.0344 38.575 11.5859L38.8969 11.6664C38.575 12.4845 38.1056 13.1215 37.4886 13.5775C36.8851 14.0201 36.2011 14.2414 35.4366 14.2414C34.6722 14.2414 34.0284 13.9598 33.5053 13.3965C32.9823 12.8332 32.7208 12.0754 32.7208 11.1232C32.7208 10.1709 32.9018 9.25224 33.2639 8.36706C33.626 7.46847 34.1893 6.69729 34.9538 6.05353C35.7183 5.39635 36.59 5.06776 37.5691 5.06776ZM44.4787 5.24882L44.7604 5.45C44.1166 6.92529 43.5533 8.62188 43.0705 10.5398H43.2314L43.5533 9.65459C44.1837 7.93788 44.8073 6.74423 45.4243 6.07365C46.0412 5.40306 46.5777 5.06776 47.0337 5.06776C47.4897 5.06776 47.825 5.21529 48.0396 5.51035C48.2676 5.80541 48.3816 6.18765 48.3816 6.65706C48.3816 7.12647 48.2944 7.53553 48.12 7.88423C47.9457 8.23294 47.6908 8.40729 47.3556 8.40729C47.0337 8.40729 46.7654 8.3 46.5508 8.08541C46.685 7.91106 46.8124 7.65623 46.9331 7.32094C47.0538 6.98565 47.1141 6.69059 47.1141 6.43576C47.1141 6.04682 46.9532 5.85235 46.6313 5.85235C46.296 5.85235 45.8803 6.18094 45.384 6.83812C44.2977 8.25976 43.379 10.6471 42.6279 14L41.2197 14.1207L43.1912 5.99318L41.9037 6.09376L41.8836 5.75176C42.809 5.63106 43.674 5.46341 44.4787 5.24882ZM49.3491 13.9396C49.1479 13.7251 49.0473 13.4702 49.0473 13.1752C49.0473 12.8801 49.1479 12.632 49.3491 12.4308C49.5637 12.2162 49.8185 12.1089 50.1136 12.1089C50.4086 12.1089 50.6567 12.2162 50.8579 12.4308C51.0725 12.632 51.1798 12.8801 51.1798 13.1752C51.1798 13.4702 51.0725 13.7251 50.8579 13.9396C50.6567 14.1408 50.4086 14.2414 50.1136 14.2414C49.8185 14.2414 49.5637 14.1408 49.3491 13.9396ZM56.6193 5.24882L56.9009 5.45C56.2571 6.92529 55.6938 8.62188 55.211 10.5398H55.372L55.6938 9.65459C56.3242 7.93788 56.9478 6.74423 57.5648 6.07365C58.1817 5.40306 58.7182 5.06776 59.1742 5.06776C59.6302 5.06776 59.9655 5.21529 60.1801 5.51035C60.4081 5.80541 60.5221 6.18765 60.5221 6.65706C60.5221 7.12647 60.4349 7.53553 60.2606 7.88423C60.0862 8.23294 59.8314 8.40729 59.4961 8.40729C59.1742 8.40729 58.906 8.3 58.6914 8.08541C58.8255 7.91106 58.9529 7.65623 59.0736 7.32094C59.1943 6.98565 59.2547 6.69059 59.2547 6.43576C59.2547 6.04682 59.0937 5.85235 58.7718 5.85235C58.4366 5.85235 58.0208 6.18094 57.5246 6.83812C56.4382 8.25976 55.5195 10.6471 54.7684 14L53.3602 14.1207L55.3317 5.99318L54.0442 6.09376L54.0241 5.75176C54.9495 5.63106 55.8146 5.46341 56.6193 5.24882ZM65.9759 5.06776C66.6867 5.06776 67.2164 5.24212 67.5651 5.59082C67.9273 5.92612 68.1083 6.41565 68.1083 7.05941C68.1083 7.68976 67.8602 8.23965 67.364 8.70906C66.519 9.51376 65.265 9.91612 63.602 9.91612C63.1057 9.91612 62.6766 9.87588 62.3144 9.79541V9.41318C62.7839 9.48024 63.1728 9.51376 63.4813 9.51376C64.5944 9.51376 65.4528 9.23212 66.0563 8.66882C66.6733 8.10553 66.9817 7.48859 66.9817 6.818C66.9817 6.45588 66.8811 6.15412 66.68 5.91271C66.4922 5.67129 66.1703 5.55059 65.7143 5.55059C65.2717 5.55059 64.8157 5.75847 64.3463 6.17423C63.8903 6.59 63.5282 7.10635 63.26 7.72329C62.7235 9.02424 62.4553 10.1508 62.4553 11.1031C62.4553 12.8734 62.9917 13.7586 64.0647 13.7586C65.3924 13.7586 66.3648 13.0344 66.9817 11.5859L67.3036 11.6664C66.9817 12.4845 66.5123 13.1215 65.8954 13.5775C65.2919 14.0201 64.6079 14.2414 63.8434 14.2414C63.0789 14.2414 62.4351 13.9598 61.9121 13.3965C61.389 12.8332 61.1275 12.0754 61.1275 11.1232C61.1275 10.1709 61.3086 9.25224 61.6707 8.36706C62.0328 7.46847 62.5961 6.69729 63.3606 6.05353C64.125 5.39635 64.9968 5.06776 65.9759 5.06776ZM73.3683 5.55059C72.8587 5.55059 72.4228 5.69812 72.0607 5.99318C71.6985 6.28823 71.5175 6.66376 71.5175 7.11976C71.5175 7.57576 71.7052 7.99153 72.0808 8.36706C72.4563 8.74259 72.8654 9.05776 73.3079 9.31259C73.7505 9.554 74.1596 9.87588 74.5351 10.2782C74.9107 10.6806 75.0984 11.1098 75.0984 11.5658C75.0984 12.4241 74.7631 13.088 74.0925 13.5574C73.4354 14.0134 72.6374 14.2414 71.6985 14.2414C70.7597 14.2414 69.9349 14.0201 69.2241 13.5775C69.4521 13.1215 69.6667 12.3302 69.8678 11.2036L70.2098 11.264C70.1159 11.8139 70.069 12.2498 70.069 12.5716C70.069 12.8801 70.2165 13.1685 70.5116 13.4367C70.8201 13.6915 71.2559 13.8189 71.8192 13.8189C72.3959 13.8189 72.8788 13.6446 73.2677 13.2959C73.6701 12.9472 73.8712 12.4912 73.8712 11.9279C73.8712 11.5658 73.6902 11.2171 73.3281 10.8818C72.9794 10.5331 72.5904 10.2447 72.1612 10.0167C71.7455 9.78871 71.3565 9.46682 70.9944 9.05106C70.6457 8.63529 70.4714 8.17929 70.4714 7.68306C70.4714 6.94541 70.7597 6.32847 71.3364 5.83223C71.9265 5.32259 72.6977 5.06776 73.6499 5.06776C74.3876 5.06776 75.1185 5.24882 75.8428 5.61094C75.7757 5.75847 75.6617 6.09376 75.5008 6.61682C75.3532 7.13988 75.2392 7.63612 75.1588 8.10553L74.8168 8.04518C74.8972 7.616 74.9375 7.20694 74.9375 6.818C74.9375 6.41565 74.8034 6.10718 74.5351 5.89259C74.2803 5.66459 73.8914 5.55059 73.3683 5.55059ZM83.0028 12.7326C83.0028 12.5314 83.0363 12.2095 83.1034 11.7669H83.0028C82.1444 13.4166 81.1519 14.2414 80.0254 14.2414C78.8183 14.2414 78.2148 13.5708 78.2148 12.2296C78.2148 11.3579 78.5232 9.74176 79.1402 7.38129L79.5023 5.99318L78.2148 6.09376L78.1946 5.75176C79.1201 5.63106 79.9851 5.46341 80.7898 5.24882L81.0715 5.45C79.9449 8.95047 79.3816 11.1902 79.3816 12.1693C79.3816 13.1484 79.7504 13.6379 80.4881 13.6379C81.105 13.6379 81.7085 13.1886 82.2986 12.29C82.9022 11.378 83.3984 10.1575 83.7874 8.62859L84.4714 5.99318L83.1838 6.09376L83.1637 5.75176C84.0891 5.63106 84.9542 5.46341 85.7589 5.24882L86.0405 5.45C85.5711 6.84482 85.1285 8.34024 84.7128 9.93624C84.297 11.5322 84.0891 12.5582 84.0891 13.0142C84.0891 13.4568 84.2568 13.6781 84.5921 13.6781C84.8469 13.6781 85.1218 13.5105 85.4169 13.1752C85.7119 12.8265 85.9668 12.3369 86.1814 11.7066L86.5032 11.7871C85.9265 13.4233 85.1755 14.2414 84.2501 14.2414C83.4185 14.2414 83.0028 13.7385 83.0028 12.7326ZM89.8347 13.0142C89.8347 13.4568 90.0024 13.6781 90.3377 13.6781C90.5925 13.6781 90.8675 13.5105 91.1625 13.1752C91.4576 12.8265 91.7124 12.3369 91.927 11.7066L92.2489 11.7871C91.6722 13.4233 90.9211 14.2414 89.9957 14.2414C89.1642 14.2414 88.7484 13.7184 88.7484 12.6722C88.7484 11.6127 89.6269 7.89765 91.3838 1.52706L90.0963 1.62765L90.0762 1.28565C91.0016 1.16494 91.8666 0.997294 92.6713 0.782706L92.953 0.983882C92.3897 2.63353 91.7258 4.87329 90.9613 7.70318C90.2103 10.5196 89.8347 12.29 89.8347 13.0142ZM94.6353 6.03341L94.7359 5.65118H99.202L99.1014 6.03341H94.6353ZM97.834 3.1767L98.1157 3.37788C97.8072 4.31671 97.3914 5.792 96.8684 7.80376C96.3587 9.81553 96.0503 11.1165 95.943 11.7066C95.8357 12.2833 95.782 12.7192 95.782 13.0142C95.782 13.4568 95.9497 13.6781 96.285 13.6781C96.5398 13.6781 96.8147 13.5105 97.1098 13.1752C97.4049 12.8265 97.6597 12.3369 97.8743 11.7066L98.1962 11.7871C97.6194 13.4233 96.8684 14.2414 95.943 14.2414C95.1114 14.2414 94.6957 13.7385 94.6957 12.7326C94.6957 11.9011 95.1919 9.58082 96.1844 5.77188L94.7359 5.65118C95.4736 5.65118 96.0704 5.47682 96.5264 5.12812C96.9824 4.766 97.4183 4.11553 97.834 3.1767ZM105.003 8.95047H103.032C102.415 11.7938 102.106 13.2892 102.106 13.4367C102.106 13.5708 102.18 13.6379 102.328 13.6379H103.796L103.736 14H99.4508L99.5112 13.6379H100.437C100.611 13.6379 100.718 13.5373 100.758 13.3361C102.368 5.71824 103.173 1.87576 103.173 1.80871C103.173 1.72823 103.099 1.688 102.951 1.688H102.066L102.126 1.32588H106.613C107.525 1.32588 108.276 1.58071 108.866 2.09035C109.456 2.6 109.751 3.30412 109.751 4.20271C109.751 5.62435 109.262 6.77106 108.282 7.64282C107.303 8.51459 106.21 8.95047 105.003 8.95047ZM106.391 1.78859H104.561L103.132 8.48776H105.023C105.989 8.48776 106.794 8.01835 107.438 7.07953C108.095 6.14071 108.423 5.15494 108.423 4.12223C108.423 3.45165 108.249 2.89506 107.9 2.45247C107.565 2.00988 107.062 1.78859 106.391 1.78859ZM115.81 12.7326C115.81 12.5314 115.844 12.2095 115.911 11.7669H115.81C114.952 13.4166 113.959 14.2414 112.833 14.2414C111.626 14.2414 111.022 13.5708 111.022 12.2296C111.022 11.3579 111.331 9.74176 111.948 7.38129L112.31 5.99318L111.022 6.09376L111.002 5.75176C111.928 5.63106 112.793 5.46341 113.597 5.24882L113.879 5.45C112.752 8.95047 112.189 11.1902 112.189 12.1693C112.189 13.1484 112.558 13.6379 113.296 13.6379C113.912 13.6379 114.516 13.1886 115.106 12.29C115.71 11.378 116.206 10.1575 116.595 8.62859L117.279 5.99318L115.991 6.09376L115.971 5.75176C116.897 5.63106 117.762 5.46341 118.566 5.24882L118.848 5.45C118.379 6.84482 117.936 8.34024 117.52 9.93624C117.104 11.5322 116.897 12.5582 116.897 13.0142C116.897 13.4568 117.064 13.6781 117.4 13.6781C117.654 13.6781 117.929 13.5105 118.224 13.1752C118.519 12.8265 118.774 12.3369 118.989 11.7066L119.311 11.7871C118.734 13.4233 117.983 14.2414 117.058 14.2414C116.226 14.2414 115.81 13.7385 115.81 12.7326ZM122.944 10.5398H123.105L123.427 9.65459C124.553 6.59671 125.787 5.06776 127.128 5.06776C127.759 5.06776 128.282 5.34941 128.698 5.91271C129.127 6.46259 129.341 7.14659 129.341 7.96471C129.341 8.76941 129.234 9.52047 129.02 10.2179C128.805 10.9153 128.503 11.5725 128.114 12.1894C127.725 12.7929 127.209 13.2892 126.565 13.6781C125.921 14.0536 125.264 14.2414 124.594 14.2414C123.923 14.2414 123.346 14.114 122.864 13.8592C122.381 13.5909 122.005 13.2422 121.737 12.8131L121.918 12.2699C122.562 13.2892 123.387 13.7988 124.392 13.7988C125.157 13.7988 125.821 13.4501 126.384 12.7527C126.947 12.0419 127.343 11.264 127.571 10.4191C127.812 9.56071 127.933 8.77612 127.933 8.06529C127.933 7.34106 127.812 6.79118 127.571 6.41565C127.343 6.02671 127.075 5.83223 126.766 5.83223C126.458 5.83223 126.149 5.96635 125.841 6.23459C125.532 6.48941 125.197 6.89176 124.835 7.44165C124.057 8.64871 123.326 10.6269 122.642 13.3764L122.039 12.7326L121.435 14.2414L121.093 14.1207L124.252 1.52706L122.964 1.62765L122.944 1.28565C123.869 1.16494 124.734 0.997294 125.539 0.782706L125.821 0.983882C124.734 4.14906 123.776 7.33435 122.944 10.5398ZM132.435 13.0142C132.435 13.4568 132.603 13.6781 132.938 13.6781C133.193 13.6781 133.468 13.5105 133.763 13.1752C134.058 12.8265 134.313 12.3369 134.528 11.7066L134.85 11.7871C134.273 13.4233 133.522 14.2414 132.596 14.2414C131.765 14.2414 131.349 13.7184 131.349 12.6722C131.349 11.6127 132.228 7.89765 133.984 1.52706L132.697 1.62765L132.677 1.28565C133.602 1.16494 134.467 0.997294 135.272 0.782706L135.554 0.983882C134.99 2.63353 134.326 4.87329 133.562 7.70318C132.811 10.5196 132.435 12.29 132.435 13.0142ZM139.57 3.056C139.395 2.88165 139.308 2.66706 139.308 2.41223C139.308 2.15741 139.395 1.94282 139.57 1.76847C139.744 1.59412 139.959 1.50694 140.213 1.50694C140.468 1.50694 140.683 1.59412 140.857 1.76847C141.032 1.94282 141.119 2.15741 141.119 2.41223C141.119 2.66706 141.032 2.88165 140.857 3.056C140.683 3.23035 140.468 3.31753 140.213 3.31753C139.959 3.31753 139.744 3.23035 139.57 3.056ZM137.296 12.7326C137.296 12.0218 137.786 9.77529 138.765 5.99318L137.477 6.09376L137.457 5.75176C138.383 5.63106 139.248 5.46341 140.052 5.24882L140.334 5.45C139.865 6.84482 139.422 8.34024 139.006 9.93624C138.591 11.5322 138.383 12.5582 138.383 13.0142C138.383 13.4568 138.55 13.6781 138.886 13.6781C139.14 13.6781 139.415 13.5105 139.71 13.1752C140.006 12.8265 140.26 12.3369 140.475 11.7066L140.797 11.7871C140.22 13.4233 139.469 14.2414 138.544 14.2414C137.712 14.2414 137.296 13.7385 137.296 12.7326ZM147.403 5.55059C146.853 5.55059 146.343 5.75847 145.874 6.17423C145.418 6.59 145.056 7.10635 144.788 7.72329C144.251 9.02424 143.983 10.1508 143.983 11.1031C143.983 12.8734 144.519 13.7586 145.592 13.7586C146.92 13.7586 147.892 13.0344 148.509 11.5859L148.831 11.6664C148.509 12.4845 148.04 13.1215 147.423 13.5775C146.819 14.0201 146.135 14.2414 145.371 14.2414C144.606 14.2414 143.963 13.9598 143.44 13.3965C142.917 12.8332 142.655 12.0754 142.655 11.1232C142.655 10.1709 142.836 9.25224 143.198 8.36706C143.56 7.46847 144.124 6.69729 144.888 6.05353C145.653 5.39635 146.524 5.06776 147.503 5.06776C148.174 5.06776 148.677 5.24212 149.012 5.59082C149.361 5.92612 149.535 6.33518 149.535 6.818C149.535 7.28741 149.448 7.70988 149.274 8.08541C149.113 8.46094 148.851 8.64871 148.489 8.64871C148.14 8.64871 147.879 8.54141 147.705 8.32682C148.094 7.73671 148.288 7.16 148.288 6.59671C148.288 5.89929 147.993 5.55059 147.403 5.55059ZM155.519 1.96965L153.105 13.4367C153.105 13.5708 153.179 13.6379 153.327 13.6379H154.212L154.151 14H150.45L150.51 13.6379H151.436C151.61 13.6379 151.717 13.5373 151.757 13.3361C153.367 5.71824 154.172 1.87576 154.172 1.80871C154.172 1.72823 154.098 1.688 153.95 1.688H153.065L153.125 1.32588H156.827L156.767 1.688H155.861C155.687 1.688 155.573 1.78188 155.519 1.96965ZM158.396 10.4794L158.437 12.3302C158.463 13.1618 158.685 13.5775 159.1 13.5775C159.369 13.5775 159.59 13.4367 159.764 13.1551C159.952 12.8734 160.046 12.5113 160.046 12.0687L160.428 12.0084C160.428 12.6924 160.247 13.2355 159.885 13.6379C159.536 14.0402 159.094 14.2414 158.557 14.2414C157.605 14.2414 157.102 13.5239 157.048 12.0888L156.968 10.1173C156.928 9.24553 156.747 8.642 156.425 8.30671C156.103 7.958 155.573 7.78365 154.835 7.78365L154.936 7.46176L160.67 1.688H159.724L159.784 1.32588H162.38L162.319 1.688H161.796C161.582 1.688 161.387 1.78188 161.213 1.96965L155.761 7.42153C156.727 7.43494 157.397 7.71659 157.773 8.26647C158.162 8.81635 158.369 9.554 158.396 10.4794ZM167.738 5.06776C168.449 5.06776 168.979 5.24212 169.327 5.59082C169.69 5.92612 169.871 6.41565 169.871 7.05941C169.871 7.68976 169.622 8.23965 169.126 8.70906C168.281 9.51376 167.027 9.91612 165.364 9.91612C164.868 9.91612 164.439 9.87588 164.077 9.79541V9.41318C164.546 9.48024 164.935 9.51376 165.244 9.51376C166.357 9.51376 167.215 9.23212 167.819 8.66882C168.436 8.10553 168.744 7.48859 168.744 6.818C168.744 6.45588 168.643 6.15412 168.442 5.91271C168.254 5.67129 167.933 5.55059 167.477 5.55059C167.034 5.55059 166.578 5.75847 166.109 6.17423C165.653 6.59 165.29 7.10635 165.022 7.72329C164.486 9.02424 164.218 10.1508 164.218 11.1031C164.218 12.8734 164.754 13.7586 165.827 13.7586C167.155 13.7586 168.127 13.0344 168.744 11.5859L169.066 11.6664C168.744 12.4845 168.275 13.1215 167.658 13.5775C167.054 14.0201 166.37 14.2414 165.606 14.2414C164.841 14.2414 164.197 13.9598 163.674 13.3965C163.151 12.8332 162.89 12.0754 162.89 11.1232C162.89 10.1709 163.071 9.25224 163.433 8.36706C163.795 7.46847 164.358 6.69729 165.123 6.05353C165.887 5.39635 166.759 5.06776 167.738 5.06776ZM174.507 13.5775C175.365 13.5775 176.217 12.9539 177.062 11.7066C177.92 10.4459 178.349 9.27235 178.349 8.186C178.349 7.08623 178.001 6.18765 177.303 5.49024C177.639 5.20859 177.947 5.06776 178.229 5.06776C178.752 5.06776 179.013 5.80541 179.013 7.28071C179.013 8.756 178.852 10.1106 178.53 11.3445C178.209 12.5649 177.786 13.6044 177.263 14.4627C176.753 15.3211 176.17 16.0654 175.513 16.6958C174.239 17.9565 172.944 18.5868 171.63 18.5868C170.96 18.5868 170.457 18.4326 170.121 18.1241C169.773 17.8156 169.598 17.4535 169.598 17.0378C169.598 16.622 169.685 16.2465 169.86 15.9112C170.021 15.5759 170.269 15.4082 170.604 15.4082C170.939 15.4082 171.214 15.5021 171.429 15.6899C171.04 16.1861 170.846 16.6421 170.846 17.0579C170.846 17.7285 171.201 18.0638 171.912 18.0638C172.381 18.0638 172.924 17.8894 173.541 17.5407C174.158 17.2054 174.782 16.7226 175.412 16.0922C176.043 15.4753 176.619 14.6438 177.142 13.5976C177.679 12.5515 178.054 11.4182 178.269 10.1978C177.826 11.3646 177.23 12.3302 176.478 13.0947C175.741 13.8592 174.889 14.2414 173.924 14.2414C173.427 14.2414 173.025 14.0738 172.716 13.7385C172.421 13.3898 172.274 12.9204 172.274 12.3302C172.274 11.7401 172.495 10.7074 172.938 9.23212C173.394 7.75682 173.622 6.79118 173.622 6.33518C173.622 5.86576 173.447 5.63106 173.099 5.63106C172.844 5.63106 172.576 5.80541 172.294 6.15412C172.012 6.48941 171.784 6.97224 171.61 7.60259L171.268 7.52212C171.764 5.88588 172.482 5.06776 173.421 5.06776C174.292 5.06776 174.728 5.53718 174.728 6.476C174.728 6.85153 174.52 7.78365 174.105 9.27235C173.689 10.7611 173.481 11.7401 173.481 12.2095C173.481 13.1215 173.823 13.5775 174.507 13.5775ZM187.637 13.6379L187.094 9.75518H182.648L180.475 13.6379H181.723L181.662 14H178.765L178.846 13.6379H179.55C179.738 13.6379 179.879 13.544 179.972 13.3562L186.732 1.32588H187.376L189.025 13.3562C189.052 13.544 189.153 13.6379 189.327 13.6379H190.031L189.971 14H186.33L186.39 13.6379H187.637ZM186.229 3.37788L182.95 9.19188H187.014L186.229 3.37788ZM193.326 13.0142C193.326 13.4568 193.494 13.6781 193.829 13.6781C194.084 13.6781 194.359 13.5105 194.654 13.1752C194.949 12.8265 195.204 12.3369 195.418 11.7066L195.74 11.7871C195.163 13.4233 194.412 14.2414 193.487 14.2414C192.655 14.2414 192.24 13.7184 192.24 12.6722C192.24 11.6127 193.118 7.89765 194.875 1.52706L193.587 1.62765L193.567 1.28565C194.493 1.16494 195.358 0.997294 196.162 0.782706L196.444 0.983882C195.881 2.63353 195.217 4.87329 194.452 7.70318C193.701 10.5196 193.326 12.29 193.326 13.0142ZM199.012 12.8332L202.21 13.5574C202.908 13.7184 203.404 13.9329 203.699 14.2012C203.994 14.4828 204.142 14.8651 204.142 15.3479C204.142 16.1258 203.712 16.8567 202.854 17.5407C202.009 18.2381 201.044 18.5868 199.957 18.5868C198.871 18.5868 197.986 18.3387 197.302 17.8425C196.631 17.3462 196.296 16.7561 196.296 16.0721C196.296 15.6027 196.457 15.1534 196.779 14.7242C197.087 14.2951 197.55 13.9329 198.167 13.6379L198.569 13.7586C198.167 13.9598 197.858 14.2615 197.644 14.6639C197.429 15.0796 197.322 15.5155 197.322 15.9715C197.322 16.7226 197.57 17.2792 198.066 17.6413C198.562 18.0168 199.199 18.2046 199.977 18.2046C200.769 18.2046 201.493 17.9766 202.15 17.5206C202.821 17.078 203.156 16.5415 203.156 15.9112C203.156 15.2808 202.747 14.8718 201.929 14.684L198.468 13.9195C198.08 13.8391 197.778 13.658 197.563 13.3764C197.349 13.0947 197.241 12.7527 197.241 12.3504C197.241 11.948 197.409 11.5792 197.744 11.2439C198.08 10.9086 198.542 10.7409 199.132 10.7409H201.164L201.104 11.0226H199.132C198.851 11.0226 198.623 11.1098 198.448 11.2841C198.287 11.4585 198.207 11.6664 198.207 11.9078C198.207 12.404 198.475 12.7125 199.012 12.8332ZM202.391 5.34941L202.371 5.06776C202.747 5.06776 203.062 4.98059 203.317 4.80623C203.572 4.61847 203.699 4.37706 203.699 4.082C203.699 3.78694 203.484 3.50529 203.055 3.23706C203.27 2.78106 203.525 2.55306 203.82 2.55306C204.128 2.55306 204.356 2.64023 204.504 2.81459C204.665 2.98894 204.745 3.21023 204.745 3.47847C204.745 3.94788 204.531 4.37706 204.101 4.766C203.686 5.15494 203.116 5.34941 202.391 5.34941ZM198.71 8.82976C198.71 7.83729 199.059 6.96553 199.756 6.21447C200.467 5.45 201.339 5.06776 202.371 5.06776C203.096 5.06776 203.666 5.26223 204.081 5.65118C204.51 6.02671 204.725 6.56318 204.725 7.26059C204.725 8.38718 204.363 9.29918 203.639 9.99659C202.914 10.6806 202.07 11.0226 201.104 11.0226C200.366 11.0226 199.783 10.8348 199.354 10.4593C198.924 10.0704 198.71 9.52718 198.71 8.82976ZM202.351 5.45C201.614 5.45 201.01 5.85906 200.541 6.67718C200.071 7.48188 199.836 8.19941 199.836 8.82976C199.836 9.46012 199.95 9.92282 200.178 10.2179C200.42 10.4995 200.735 10.6404 201.124 10.6404C201.714 10.6404 202.277 10.3051 202.814 9.63447C203.35 8.96388 203.619 8.11894 203.619 7.09965C203.619 6.59 203.498 6.18765 203.256 5.89259C203.028 5.59753 202.727 5.45 202.351 5.45ZM206.551 11.0829C206.551 9.70153 206.954 8.38047 207.758 7.11976C208.147 6.51623 208.657 6.02671 209.287 5.65118C209.918 5.26223 210.635 5.06776 211.44 5.06776C212.258 5.06776 212.922 5.34271 213.432 5.89259C213.941 6.44247 214.196 7.19353 214.196 8.14576C214.196 9.098 214.022 10.0234 213.673 10.922C213.324 11.8206 212.774 12.5985 212.023 13.2556C211.272 13.9128 210.427 14.2414 209.489 14.2414C208.55 14.2414 207.825 13.9665 207.316 13.4166C206.806 12.8667 206.551 12.0888 206.551 11.0829ZM211.279 5.51035C210.555 5.51035 209.911 5.87247 209.348 6.59671C208.798 7.32094 208.402 8.11224 208.161 8.97059C207.933 9.82894 207.819 10.6336 207.819 11.3847C207.819 12.1224 207.966 12.7125 208.261 13.1551C208.57 13.5842 208.986 13.7988 209.509 13.7988C210.045 13.7988 210.541 13.5842 210.997 13.1551C211.467 12.7259 211.836 12.1961 212.104 11.5658C212.654 10.2782 212.929 9.16506 212.929 8.22624C212.929 7.274 212.781 6.58329 212.486 6.15412C212.191 5.72494 211.789 5.51035 211.279 5.51035Z" fill="#6082FA"/>
</svg>
