<svg width="187" height="19" viewBox="0 0 187 19" fill="none" xmlns="http://www.w3.org/2000/svg">
<path opacity="0.86" d="M5.87516 1.60753C6.65304 1.25882 7.47787 1.08447 8.34963 1.08447C9.6774 1.08447 10.7235 1.48682 11.488 2.29153C12.2659 3.08282 12.6548 4.20271 12.6548 5.65118C12.6548 6.63024 12.4939 7.62271 12.172 8.62859C11.8501 9.62106 11.4008 10.5398 10.8241 11.3847C10.2474 12.2296 9.49634 12.9204 8.57092 13.4568C7.64551 13.9799 6.57928 14.2414 5.37222 14.2414C4.16516 14.2414 3.17269 13.8391 2.39481 13.0344C1.63034 12.2296 1.2481 11.0628 1.2481 9.53388C1.2481 8.00494 1.66387 6.46259 2.49539 4.90682C3.34034 3.35106 4.46692 2.25129 5.87516 1.60753ZM10.4217 2.63353C9.88528 1.94953 9.17445 1.60753 8.28928 1.60753C7.4041 1.60753 6.58598 1.89588 5.83492 2.47259C5.08387 3.03588 4.48704 3.75341 4.04445 4.62518C3.11904 6.42235 2.65634 8.16588 2.65634 9.85576C2.65634 11.0762 2.91787 12.0285 3.44092 12.7125C3.97739 13.3831 4.68822 13.7184 5.57339 13.7184C6.47198 13.7184 7.29681 13.4367 8.04787 12.8734C8.79892 12.2967 9.40245 11.5792 9.85845 10.7208C10.7839 8.93706 11.2466 7.19353 11.2466 5.49024C11.2466 4.26976 10.9716 3.31753 10.4217 2.63353ZM17.4217 5.24882L17.7034 5.45C17.0596 6.92529 16.4963 8.62188 16.0135 10.5398H16.1745L16.4963 9.65459C17.1267 7.93788 17.7503 6.74423 18.3673 6.07365C18.9842 5.40306 19.5207 5.06776 19.9767 5.06776C20.4327 5.06776 20.768 5.21529 20.9826 5.51035C21.2106 5.80541 21.3246 6.18765 21.3246 6.65706C21.3246 7.12647 21.2374 7.53553 21.063 7.88423C20.8887 8.23294 20.6339 8.40729 20.2986 8.40729C19.9767 8.40729 19.7085 8.3 19.4939 8.08541C19.628 7.91106 19.7554 7.65623 19.8761 7.32094C19.9968 6.98565 20.0572 6.69059 20.0572 6.43576C20.0572 6.04682 19.8962 5.85235 19.5743 5.85235C19.239 5.85235 18.8233 6.18094 18.327 6.83812C17.2407 8.25976 16.322 10.6471 15.5709 14L14.1627 14.1207L16.1342 5.99318L14.8467 6.09376L14.8266 5.75176C15.752 5.63106 16.617 5.46341 17.4217 5.24882ZM28.1262 13.0142C28.1262 13.4568 28.2939 13.6781 28.6292 13.6781C28.884 13.6781 29.1589 13.5105 29.454 13.1752C29.749 12.8265 30.0039 12.3369 30.2185 11.7066L30.5403 11.7871C29.9636 13.4233 29.2126 14.2414 28.2872 14.2414C27.4556 14.2414 27.0399 13.7184 27.0399 12.6722C27.0399 11.6127 27.9183 7.89765 29.6753 1.52706L28.3877 1.62765L28.3676 1.28565C29.293 1.16494 30.1581 0.997294 30.9628 0.782706L31.2445 0.983882C30.6812 2.63353 30.0173 4.87329 29.2528 7.70318C28.5017 10.5196 28.1262 12.29 28.1262 13.0142ZM27.241 11.7669H27.0399C26.2083 13.4166 25.2427 14.2414 24.1429 14.2414C23.5126 14.2414 22.9828 13.9665 22.5536 13.4166C22.1379 12.8533 21.93 12.1693 21.93 11.3646C21.93 10.5465 22.0373 9.78871 22.2519 9.09129C22.4665 8.39388 22.7682 7.74341 23.1572 7.13988C23.5461 6.52294 24.0625 6.02671 24.7062 5.65118C25.35 5.26223 26.0072 5.06776 26.6777 5.06776C27.9653 5.06776 28.8773 5.63106 29.4137 6.75765L29.1321 7.11976C28.5017 6.07365 27.7172 5.55059 26.7783 5.55059C26.2016 5.55059 25.6719 5.75847 25.189 6.17423C24.7196 6.59 24.3508 7.11306 24.0826 7.74341C23.5327 9.03094 23.2577 10.2447 23.2577 11.3847C23.2577 12.1358 23.3785 12.6991 23.6199 13.0746C23.8747 13.4501 24.21 13.6379 24.6257 13.6379C25.2025 13.6379 25.7926 13.1551 26.3961 12.1894C26.9996 11.2104 27.5361 9.81553 28.0055 8.00494L27.241 11.7669ZM37.2395 5.06776C37.9503 5.06776 38.4801 5.24212 38.8288 5.59082C39.1909 5.92612 39.372 6.41565 39.372 7.05941C39.372 7.68976 39.1239 8.23965 38.6276 8.70906C37.7827 9.51376 36.5287 9.91612 34.8656 9.91612C34.3694 9.91612 33.9402 9.87588 33.5781 9.79541V9.41318C34.0475 9.48024 34.4365 9.51376 34.7449 9.51376C35.8581 9.51376 36.7165 9.23212 37.32 8.66882C37.9369 8.10553 38.2454 7.48859 38.2454 6.818C38.2454 6.45588 38.1448 6.15412 37.9436 5.91271C37.7559 5.67129 37.434 5.55059 36.978 5.55059C36.5354 5.55059 36.0794 5.75847 35.61 6.17423C35.154 6.59 34.7919 7.10635 34.5236 7.72329C33.9872 9.02424 33.7189 10.1508 33.7189 11.1031C33.7189 12.8734 34.2554 13.7586 35.3283 13.7586C36.6561 13.7586 37.6285 13.0344 38.2454 11.5859L38.5673 11.6664C38.2454 12.4845 37.776 13.1215 37.159 13.5775C36.5555 14.0201 35.8715 14.2414 35.107 14.2414C34.3426 14.2414 33.6988 13.9598 33.1757 13.3965C32.6527 12.8332 32.3912 12.0754 32.3912 11.1232C32.3912 10.1709 32.5722 9.25224 32.9343 8.36706C33.2965 7.46847 33.8597 6.69729 34.6242 6.05353C35.3887 5.39635 36.2605 5.06776 37.2395 5.06776ZM44.1491 5.24882L44.4308 5.45C43.787 6.92529 43.2237 8.62188 42.7409 10.5398H42.9018L43.2237 9.65459C43.8541 7.93788 44.4777 6.74423 45.0947 6.07365C45.7116 5.40306 46.2481 5.06776 46.7041 5.06776C47.1601 5.06776 47.4954 5.21529 47.71 5.51035C47.938 5.80541 48.052 6.18765 48.052 6.65706C48.052 7.12647 47.9648 7.53553 47.7904 7.88423C47.6161 8.23294 47.3613 8.40729 47.026 8.40729C46.7041 8.40729 46.4358 8.3 46.2213 8.08541C46.3554 7.91106 46.4828 7.65623 46.6035 7.32094C46.7242 6.98565 46.7846 6.69059 46.7846 6.43576C46.7846 6.04682 46.6236 5.85235 46.3017 5.85235C45.9664 5.85235 45.5507 6.18094 45.0544 6.83812C43.9681 8.25976 43.0494 10.6471 42.2983 14L40.8901 14.1207L42.8616 5.99318L41.5741 6.09376L41.554 5.75176C42.4794 5.63106 43.3444 5.46341 44.1491 5.24882ZM49.0195 13.9396C48.8183 13.7251 48.7177 13.4702 48.7177 13.1752C48.7177 12.8801 48.8183 12.632 49.0195 12.4308C49.2341 12.2162 49.4889 12.1089 49.784 12.1089C50.079 12.1089 50.3271 12.2162 50.5283 12.4308C50.7429 12.632 50.8502 12.8801 50.8502 13.1752C50.8502 13.4702 50.7429 13.7251 50.5283 13.9396C50.3271 14.1408 50.079 14.2414 49.784 14.2414C49.4889 14.2414 49.2341 14.1408 49.0195 13.9396ZM56.2897 5.24882L56.5713 5.45C55.9276 6.92529 55.3643 8.62188 54.8814 10.5398H55.0424L55.3643 9.65459C55.9946 7.93788 56.6183 6.74423 57.2352 6.07365C57.8521 5.40306 58.3886 5.06776 58.8446 5.06776C59.3006 5.06776 59.6359 5.21529 59.8505 5.51035C60.0785 5.80541 60.1925 6.18765 60.1925 6.65706C60.1925 7.12647 60.1053 7.53553 59.931 7.88423C59.7566 8.23294 59.5018 8.40729 59.1665 8.40729C58.8446 8.40729 58.5764 8.3 58.3618 8.08541C58.4959 7.91106 58.6233 7.65623 58.744 7.32094C58.8647 6.98565 58.9251 6.69059 58.9251 6.43576C58.9251 6.04682 58.7641 5.85235 58.4423 5.85235C58.107 5.85235 57.6912 6.18094 57.195 6.83812C56.1086 8.25976 55.1899 10.6471 54.4388 14L53.0306 14.1207L55.0021 5.99318L53.7146 6.09376L53.6945 5.75176C54.6199 5.63106 55.485 5.46341 56.2897 5.24882ZM65.6463 5.06776C66.3571 5.06776 66.8868 5.24212 67.2356 5.59082C67.5977 5.92612 67.7787 6.41565 67.7787 7.05941C67.7787 7.68976 67.5306 8.23965 67.0344 8.70906C66.1894 9.51376 64.9354 9.91612 63.2724 9.91612C62.7761 9.91612 62.347 9.87588 61.9848 9.79541V9.41318C62.4543 9.48024 62.8432 9.51376 63.1517 9.51376C64.2648 9.51376 65.1232 9.23212 65.7267 8.66882C66.3437 8.10553 66.6521 7.48859 66.6521 6.818C66.6521 6.45588 66.5516 6.15412 66.3504 5.91271C66.1626 5.67129 65.8407 5.55059 65.3847 5.55059C64.9421 5.55059 64.4861 5.75847 64.0167 6.17423C63.5607 6.59 63.1986 7.10635 62.9304 7.72329C62.3939 9.02424 62.1257 10.1508 62.1257 11.1031C62.1257 12.8734 62.6621 13.7586 63.7351 13.7586C65.0628 13.7586 66.0352 13.0344 66.6521 11.5859L66.974 11.6664C66.6521 12.4845 66.1827 13.1215 65.5658 13.5775C64.9623 14.0201 64.2783 14.2414 63.5138 14.2414C62.7493 14.2414 62.1056 13.9598 61.5825 13.3965C61.0594 12.8332 60.7979 12.0754 60.7979 11.1232C60.7979 10.1709 60.979 9.25224 61.3411 8.36706C61.7032 7.46847 62.2665 6.69729 63.031 6.05353C63.7954 5.39635 64.6672 5.06776 65.6463 5.06776ZM73.0387 5.55059C72.5291 5.55059 72.0932 5.69812 71.7311 5.99318C71.3689 6.28823 71.1879 6.66376 71.1879 7.11976C71.1879 7.57576 71.3757 7.99153 71.7512 8.36706C72.1267 8.74259 72.5358 9.05776 72.9784 9.31259C73.4209 9.554 73.83 9.87588 74.2055 10.2782C74.5811 10.6806 74.7688 11.1098 74.7688 11.5658C74.7688 12.4241 74.4335 13.088 73.7629 13.5574C73.1058 14.0134 72.3078 14.2414 71.3689 14.2414C70.4301 14.2414 69.6053 14.0201 68.8945 13.5775C69.1225 13.1215 69.3371 12.3302 69.5382 11.2036L69.8802 11.264C69.7864 11.8139 69.7394 12.2498 69.7394 12.5716C69.7394 12.8801 69.8869 13.1685 70.182 13.4367C70.4905 13.6915 70.9264 13.8189 71.4897 13.8189C72.0664 13.8189 72.5492 13.6446 72.9381 13.2959C73.3405 12.9472 73.5417 12.4912 73.5417 11.9279C73.5417 11.5658 73.3606 11.2171 72.9985 10.8818C72.6498 10.5331 72.2608 10.2447 71.8317 10.0167C71.4159 9.78871 71.0269 9.46682 70.6648 9.05106C70.3161 8.63529 70.1418 8.17929 70.1418 7.68306C70.1418 6.94541 70.4301 6.32847 71.0068 5.83223C71.5969 5.32259 72.3681 5.06776 73.3204 5.06776C74.058 5.06776 74.7889 5.24882 75.5132 5.61094C75.4461 5.75847 75.3321 6.09376 75.1712 6.61682C75.0237 7.13988 74.9097 7.63612 74.8292 8.10553L74.4872 8.04518C74.5677 7.616 74.6079 7.20694 74.6079 6.818C74.6079 6.41565 74.4738 6.10718 74.2055 5.89259C73.9507 5.66459 73.5618 5.55059 73.0387 5.55059ZM82.6732 12.7326C82.6732 12.5314 82.7067 12.2095 82.7738 11.7669H82.6732C81.8148 13.4166 80.8224 14.2414 79.6958 14.2414C78.4887 14.2414 77.8852 13.5708 77.8852 12.2296C77.8852 11.3579 78.1936 9.74176 78.8106 7.38129L79.1727 5.99318L77.8852 6.09376L77.8651 5.75176C78.7905 5.63106 79.6555 5.46341 80.4602 5.24882L80.7419 5.45C79.6153 8.95047 79.052 11.1902 79.052 12.1693C79.052 13.1484 79.4208 13.6379 80.1585 13.6379C80.7754 13.6379 81.3789 13.1886 81.9691 12.29C82.5726 11.378 83.0688 10.1575 83.4578 8.62859L84.1418 5.99318L82.8542 6.09376L82.8341 5.75176C83.7595 5.63106 84.6246 5.46341 85.4293 5.24882L85.7109 5.45C85.2415 6.84482 84.7989 8.34024 84.3832 9.93624C83.9674 11.5322 83.7595 12.5582 83.7595 13.0142C83.7595 13.4568 83.9272 13.6781 84.2625 13.6781C84.5173 13.6781 84.7922 13.5105 85.0873 13.1752C85.3824 12.8265 85.6372 12.3369 85.8518 11.7066L86.1736 11.7871C85.5969 13.4233 84.8459 14.2414 83.9205 14.2414C83.0889 14.2414 82.6732 13.7385 82.6732 12.7326ZM89.5052 13.0142C89.5052 13.4568 89.6728 13.6781 90.0081 13.6781C90.2629 13.6781 90.5379 13.5105 90.8329 13.1752C91.128 12.8265 91.3828 12.3369 91.5974 11.7066L91.9193 11.7871C91.3426 13.4233 90.5915 14.2414 89.6661 14.2414C88.8346 14.2414 88.4188 13.7184 88.4188 12.6722C88.4188 11.6127 89.2973 7.89765 91.0542 1.52706L89.7667 1.62765L89.7466 1.28565C90.672 1.16494 91.537 0.997294 92.3417 0.782706L92.6234 0.983882C92.0601 2.63353 91.3962 4.87329 90.6317 7.70318C89.8807 10.5196 89.5052 12.29 89.5052 13.0142ZM94.3057 6.03341L94.4063 5.65118H98.8724L98.7719 6.03341H94.3057ZM97.5044 3.1767L97.7861 3.37788C97.4776 4.31671 97.0619 5.792 96.5388 7.80376C96.0291 9.81553 95.7207 11.1165 95.6134 11.7066C95.5061 12.2833 95.4524 12.7192 95.4524 13.0142C95.4524 13.4568 95.6201 13.6781 95.9554 13.6781C96.2102 13.6781 96.4851 13.5105 96.7802 13.1752C97.0753 12.8265 97.3301 12.3369 97.5447 11.7066L97.8666 11.7871C97.2899 13.4233 96.5388 14.2414 95.6134 14.2414C94.7819 14.2414 94.3661 13.7385 94.3661 12.7326C94.3661 11.9011 94.8623 9.58082 95.8548 5.77188L94.4063 5.65118C95.144 5.65118 95.7408 5.47682 96.1968 5.12812C96.6528 4.766 97.0887 4.11553 97.5044 3.1767ZM104.674 8.95047H102.702C102.085 11.7938 101.777 13.2892 101.777 13.4367C101.777 13.5708 101.851 13.6379 101.998 13.6379H103.467L103.406 14H99.1212L99.1816 13.6379H100.107C100.281 13.6379 100.389 13.5373 100.429 13.3361C102.038 5.71824 102.843 1.87576 102.843 1.80871C102.843 1.72823 102.769 1.688 102.622 1.688H101.737L101.797 1.32588H106.283C107.195 1.32588 107.946 1.58071 108.536 2.09035C109.126 2.6 109.421 3.30412 109.421 4.20271C109.421 5.62435 108.932 6.77106 107.953 7.64282C106.974 8.51459 105.881 8.95047 104.674 8.95047ZM106.062 1.78859H104.231L102.803 8.48776H104.694C105.659 8.48776 106.464 8.01835 107.108 7.07953C107.765 6.14071 108.094 5.15494 108.094 4.12223C108.094 3.45165 107.919 2.89506 107.571 2.45247C107.235 2.00988 106.732 1.78859 106.062 1.78859ZM113.388 5.24882L113.67 5.45C113.026 6.92529 112.463 8.62188 111.98 10.5398H112.141L112.463 9.65459C113.093 7.93788 113.717 6.74423 114.334 6.07365C114.951 5.40306 115.487 5.06776 115.943 5.06776C116.399 5.06776 116.735 5.21529 116.949 5.51035C117.177 5.80541 117.291 6.18765 117.291 6.65706C117.291 7.12647 117.204 7.53553 117.03 7.88423C116.855 8.23294 116.601 8.40729 116.265 8.40729C115.943 8.40729 115.675 8.3 115.461 8.08541C115.595 7.91106 115.722 7.65623 115.843 7.32094C115.963 6.98565 116.024 6.69059 116.024 6.43576C116.024 6.04682 115.863 5.85235 115.541 5.85235C115.206 5.85235 114.79 6.18094 114.294 6.83812C113.207 8.25976 112.289 10.6471 111.538 14L110.129 14.1207L112.101 5.99318L110.813 6.09376L110.793 5.75176C111.719 5.63106 112.584 5.46341 113.388 5.24882ZM120.773 3.056C120.599 2.88165 120.512 2.66706 120.512 2.41223C120.512 2.15741 120.599 1.94282 120.773 1.76847C120.948 1.59412 121.162 1.50694 121.417 1.50694C121.672 1.50694 121.887 1.59412 122.061 1.76847C122.235 1.94282 122.323 2.15741 122.323 2.41223C122.323 2.66706 122.235 2.88165 122.061 3.056C121.887 3.23035 121.672 3.31753 121.417 3.31753C121.162 3.31753 120.948 3.23035 120.773 3.056ZM118.5 12.7326C118.5 12.0218 118.99 9.77529 119.969 5.99318L118.681 6.09376L118.661 5.75176C119.587 5.63106 120.452 5.46341 121.256 5.24882L121.538 5.45C121.069 6.84482 120.626 8.34024 120.21 9.93624C119.794 11.5322 119.587 12.5582 119.587 13.0142C119.587 13.4568 119.754 13.6781 120.089 13.6781C120.344 13.6781 120.619 13.5105 120.914 13.1752C121.209 12.8265 121.464 12.3369 121.679 11.7066L122.001 11.7871C121.424 13.4233 120.673 14.2414 119.747 14.2414C118.916 14.2414 118.5 13.7385 118.5 12.7326ZM127.078 13.5775C127.936 13.5775 128.774 12.9539 129.592 11.7066C130.411 10.4593 130.82 9.31259 130.82 8.26647C130.82 7.22035 130.504 6.29494 129.874 5.49024C130.209 5.20859 130.511 5.06776 130.779 5.06776C131.048 5.06776 131.242 5.23541 131.363 5.57071C131.483 5.906 131.544 6.362 131.544 6.93871C131.544 7.502 131.43 8.20612 131.202 9.05106C130.974 9.896 130.659 10.7141 130.256 11.5054C129.854 12.2833 129.317 12.9338 128.647 13.4568C127.976 13.9799 127.259 14.2414 126.494 14.2414C125.998 14.2414 125.596 14.0738 125.287 13.7385C124.992 13.3898 124.845 12.9204 124.845 12.3302C124.845 11.7401 125.066 10.7074 125.509 9.23212C125.965 7.75682 126.193 6.79118 126.193 6.33518C126.193 5.86576 126.018 5.63106 125.669 5.63106C125.415 5.63106 125.146 5.80541 124.865 6.15412C124.583 6.48941 124.355 6.97224 124.181 7.60259L123.839 7.52212C124.335 5.88588 125.053 5.06776 125.991 5.06776C126.863 5.06776 127.299 5.53718 127.299 6.476C127.299 6.85153 127.091 7.78365 126.675 9.27235C126.26 10.7611 126.052 11.7401 126.052 12.2095C126.052 13.1215 126.394 13.5775 127.078 13.5775ZM141.407 5.45C140.937 6.84482 140.495 8.34024 140.079 9.93624C139.663 11.5322 139.455 12.5582 139.455 13.0142C139.455 13.4568 139.623 13.6781 139.958 13.6781C140.213 13.6781 140.488 13.5105 140.783 13.1752C141.078 12.8265 141.333 12.3369 141.548 11.7066L141.87 11.7871C141.293 13.4233 140.542 14.2414 139.616 14.2414C138.785 14.2414 138.369 13.7385 138.369 12.7326C138.369 12.5314 138.403 12.2095 138.47 11.7669H138.369C137.538 13.4166 136.572 14.2414 135.472 14.2414C134.842 14.2414 134.312 13.9665 133.883 13.4166C133.467 12.8533 133.259 12.1693 133.259 11.3646C133.259 10.5465 133.366 9.78871 133.581 9.09129C133.796 8.39388 134.097 7.74341 134.486 7.13988C134.875 6.52294 135.392 6.02671 136.035 5.65118C136.679 5.26223 137.383 5.06776 138.148 5.06776C139.14 5.06776 139.925 5.49023 140.502 6.33518L141.125 5.24882L141.407 5.45ZM135.955 13.6379C136.518 13.6379 137.088 13.202 137.665 12.3302C138.322 11.3244 138.932 9.68141 139.496 7.40141C139.616 6.86494 139.71 6.476 139.777 6.23459C139.308 5.77859 138.765 5.55059 138.148 5.55059C137.544 5.55059 137.001 5.75847 136.518 6.17423C136.049 6.59 135.68 7.11306 135.412 7.74341C134.862 9.03094 134.587 10.2447 134.587 11.3847C134.587 12.1358 134.708 12.6991 134.949 13.0746C135.204 13.4501 135.539 13.6379 135.955 13.6379ZM144.264 6.03341L144.364 5.65118H148.83L148.73 6.03341H144.264ZM147.462 3.1767L147.744 3.37788C147.435 4.31671 147.02 5.792 146.497 7.80376C145.987 9.81553 145.678 11.1165 145.571 11.7066C145.464 12.2833 145.41 12.7192 145.41 13.0142C145.41 13.4568 145.578 13.6781 145.913 13.6781C146.168 13.6781 146.443 13.5105 146.738 13.1752C147.033 12.8265 147.288 12.3369 147.502 11.7066L147.824 11.7871C147.248 13.4233 146.497 14.2414 145.571 14.2414C144.74 14.2414 144.324 13.7385 144.324 12.7326C144.324 11.9011 144.82 9.58082 145.813 5.77188L144.364 5.65118C145.102 5.65118 145.699 5.47682 146.155 5.12812C146.611 4.766 147.046 4.11553 147.462 3.1767ZM154.531 5.06776C155.242 5.06776 155.771 5.24212 156.12 5.59082C156.482 5.92612 156.663 6.41565 156.663 7.05941C156.663 7.68976 156.415 8.23965 155.919 8.70906C155.074 9.51376 153.82 9.91612 152.157 9.91612C151.661 9.91612 151.232 9.87588 150.869 9.79541V9.41318C151.339 9.48024 151.728 9.51376 152.036 9.51376C153.149 9.51376 154.008 9.23212 154.611 8.66882C155.228 8.10553 155.537 7.48859 155.537 6.818C155.537 6.45588 155.436 6.15412 155.235 5.91271C155.047 5.67129 154.725 5.55059 154.269 5.55059C153.827 5.55059 153.371 5.75847 152.901 6.17423C152.445 6.59 152.083 7.10635 151.815 7.72329C151.279 9.02424 151.01 10.1508 151.01 11.1031C151.01 12.8734 151.547 13.7586 152.62 13.7586C153.947 13.7586 154.92 13.0344 155.537 11.5859L155.859 11.6664C155.537 12.4845 155.067 13.1215 154.45 13.5775C153.847 14.0201 153.163 14.2414 152.398 14.2414C151.634 14.2414 150.99 13.9598 150.467 13.3965C149.944 12.8332 149.683 12.0754 149.683 11.1232C149.683 10.1709 149.864 9.25224 150.226 8.36706C150.588 7.46847 151.151 6.69729 151.916 6.05353C152.68 5.39635 153.552 5.06776 154.531 5.06776ZM162.547 1.96965L160.133 13.4367C160.133 13.5708 160.207 13.6379 160.354 13.6379H161.239L161.179 14H157.477L157.538 13.6379H158.463C158.637 13.6379 158.745 13.5373 158.785 13.3361C160.394 5.71824 161.199 1.87576 161.199 1.80871C161.199 1.72823 161.125 1.688 160.978 1.688H160.093L160.153 1.32588H163.855L163.794 1.688H162.889C162.715 1.688 162.601 1.78188 162.547 1.96965ZM165.424 10.4794L165.464 12.3302C165.491 13.1618 165.712 13.5775 166.128 13.5775C166.396 13.5775 166.617 13.4367 166.792 13.1551C166.98 12.8734 167.073 12.5113 167.073 12.0687L167.456 12.0084C167.456 12.6924 167.275 13.2355 166.913 13.6379C166.564 14.0402 166.121 14.2414 165.585 14.2414C164.633 14.2414 164.13 13.5239 164.076 12.0888L163.995 10.1173C163.955 9.24553 163.774 8.642 163.452 8.30671C163.13 7.958 162.601 7.78365 161.863 7.78365L161.964 7.46176L167.697 1.688H166.752L166.812 1.32588H169.407L169.347 1.688H168.824C168.609 1.688 168.415 1.78188 168.24 1.96965L162.788 7.42153C163.754 7.43494 164.425 7.71659 164.8 8.26647C165.189 8.81635 165.397 9.554 165.424 10.4794ZM174.766 5.06776C175.476 5.06776 176.006 5.24212 176.355 5.59082C176.717 5.92612 176.898 6.41565 176.898 7.05941C176.898 7.68976 176.65 8.23965 176.154 8.70906C175.309 9.51376 174.055 9.91612 172.392 9.91612C171.896 9.91612 171.466 9.87588 171.104 9.79541V9.41318C171.574 9.48024 171.963 9.51376 172.271 9.51376C173.384 9.51376 174.243 9.23212 174.846 8.66882C175.463 8.10553 175.772 7.48859 175.772 6.818C175.772 6.45588 175.671 6.15412 175.47 5.91271C175.282 5.67129 174.96 5.55059 174.504 5.55059C174.062 5.55059 173.606 5.75847 173.136 6.17423C172.68 6.59 172.318 7.10635 172.05 7.72329C171.513 9.02424 171.245 10.1508 171.245 11.1031C171.245 12.8734 171.782 13.7586 172.854 13.7586C174.182 13.7586 175.155 13.0344 175.772 11.5859L176.093 11.6664C175.772 12.4845 175.302 13.1215 174.685 13.5775C174.082 14.0201 173.398 14.2414 172.633 14.2414C171.869 14.2414 171.225 13.9598 170.702 13.3965C170.179 12.8332 169.917 12.0754 169.917 11.1232C169.917 10.1709 170.098 9.25224 170.46 8.36706C170.823 7.46847 171.386 6.69729 172.15 6.05353C172.915 5.39635 173.787 5.06776 174.766 5.06776ZM181.534 13.5775C182.393 13.5775 183.244 12.9539 184.089 11.7066C184.948 10.4459 185.377 9.27235 185.377 8.186C185.377 7.08623 185.028 6.18765 184.331 5.49024C184.666 5.20859 184.975 5.06776 185.256 5.06776C185.779 5.06776 186.041 5.80541 186.041 7.28071C186.041 8.756 185.88 10.1106 185.558 11.3445C185.236 12.5649 184.814 13.6044 184.291 14.4627C183.781 15.3211 183.197 16.0654 182.54 16.6958C181.266 17.9565 179.972 18.5868 178.658 18.5868C177.987 18.5868 177.484 18.4326 177.149 18.1241C176.8 17.8156 176.626 17.4535 176.626 17.0378C176.626 16.622 176.713 16.2465 176.887 15.9112C177.048 15.5759 177.296 15.4082 177.632 15.4082C177.967 15.4082 178.242 15.5021 178.456 15.6899C178.067 16.1861 177.873 16.6421 177.873 17.0579C177.873 17.7285 178.228 18.0638 178.939 18.0638C179.409 18.0638 179.952 17.8894 180.569 17.5407C181.186 17.2054 181.809 16.7226 182.44 16.0922C183.07 15.4753 183.647 14.6438 184.17 13.5976C184.706 12.5515 185.082 11.4182 185.296 10.1978C184.854 11.3646 184.257 12.3302 183.506 13.0947C182.768 13.8592 181.917 14.2414 180.951 14.2414C180.455 14.2414 180.052 14.0738 179.744 13.7385C179.449 13.3898 179.301 12.9204 179.301 12.3302C179.301 11.7401 179.523 10.7074 179.965 9.23212C180.421 7.75682 180.649 6.79118 180.649 6.33518C180.649 5.86576 180.475 5.63106 180.126 5.63106C179.871 5.63106 179.603 5.80541 179.321 6.15412C179.04 6.48941 178.812 6.97224 178.637 7.60259L178.295 7.52212C178.792 5.88588 179.509 5.06776 180.448 5.06776C181.32 5.06776 181.756 5.53718 181.756 6.476C181.756 6.85153 181.548 7.78365 181.132 9.27235C180.716 10.7611 180.508 11.7401 180.508 12.2095C180.508 13.1215 180.85 13.5775 181.534 13.5775Z" fill="#6082FA"/>
</svg>
