<svg width="169" height="23" viewBox="0 0 169 23" fill="none" xmlns="http://www.w3.org/2000/svg">
<path opacity="0.86" d="M5.63294 5.60753C6.41082 5.25882 7.23565 5.08447 8.10741 5.08447C9.43518 5.08447 10.4813 5.48682 11.2458 6.29153C12.0236 7.08282 12.4126 8.20271 12.4126 9.65118C12.4126 10.6302 12.2516 11.6227 11.9298 12.6286C11.6079 13.6211 11.1586 14.5398 10.5819 15.3847C10.0052 16.2296 9.25412 16.9204 8.32871 17.4568C7.40329 17.9799 6.33706 18.2414 5.13 18.2414C3.92294 18.2414 2.93047 17.8391 2.15259 17.0344C1.38812 16.2296 1.00588 15.0628 1.00588 13.5339C1.00588 12.0049 1.42165 10.4626 2.25318 8.90682C3.09812 7.35106 4.22471 6.25129 5.63294 5.60753ZM10.1795 6.63353C9.64306 5.94953 8.93224 5.60753 8.04706 5.60753C7.16188 5.60753 6.34377 5.89588 5.59271 6.47259C4.84165 7.03588 4.24482 7.75341 3.80224 8.62518C2.87682 10.4224 2.41412 12.1659 2.41412 13.8558C2.41412 15.0762 2.67565 16.0285 3.19871 16.7125C3.73518 17.3831 4.446 17.7184 5.33118 17.7184C6.22977 17.7184 7.05459 17.4367 7.80565 16.8734C8.55671 16.2967 9.16024 15.5792 9.61624 14.7208C10.5416 12.9371 11.0044 11.1935 11.0044 9.49024C11.0044 8.26976 10.7294 7.31753 10.1795 6.63353ZM14.0613 10.0334L14.1619 9.65118H19.2315L19.1309 10.0334H14.0613ZM17.4813 8.52459L15.5902 17.3562C15.2013 19.1266 14.7252 20.4409 14.1619 21.2993C13.5986 22.1576 12.9146 22.5868 12.1099 22.5868C11.6002 22.5868 11.2046 22.4326 10.9229 22.1241C10.6413 21.8156 10.5005 21.4669 10.5005 21.078C10.5005 20.7025 10.5809 20.3605 10.7419 20.052C10.8894 19.7569 11.1308 19.6094 11.4661 19.6094C11.8014 19.6094 12.0428 19.6966 12.1904 19.8709C12.016 20.0051 11.8752 20.2062 11.7679 20.4745C11.6472 20.7427 11.5868 21.0042 11.5868 21.2591C11.5868 21.8358 11.8282 22.1241 12.3111 22.1241C12.8475 22.1241 13.2566 21.7084 13.5382 20.8768C13.8199 20.0453 14.2088 18.3755 14.7051 15.8675L15.8719 9.91271C16.1535 8.49106 16.6498 7.27059 17.3606 6.25129C18.0714 5.232 18.8962 4.72235 19.8351 4.72235C20.5056 4.72235 21.0086 4.87659 21.3439 5.18506C21.6926 5.49353 21.8669 5.85565 21.8669 6.27141C21.8669 6.68718 21.7798 7.06271 21.6054 7.398C21.4445 7.73329 21.1829 7.90094 20.8208 7.90094C20.4587 7.90094 20.1972 7.80706 20.0362 7.61929C20.4252 7.12306 20.6196 6.62012 20.6196 6.11047C20.6196 5.49353 20.3246 5.18506 19.7345 5.18506C19.1578 5.18506 18.6951 5.48012 18.3464 6.07023C17.9976 6.64694 17.7093 7.46506 17.4813 8.52459ZM20.2985 10.0334L20.3991 9.65118H25.4688L25.3682 10.0334H20.2985ZM23.7185 8.52459L21.8275 17.3562C21.4385 19.1266 20.9624 20.4409 20.3991 21.2993C19.8358 22.1576 19.1518 22.5868 18.3471 22.5868C17.8375 22.5868 17.4418 22.4326 17.1602 22.1241C16.8785 21.8156 16.7377 21.4669 16.7377 21.078C16.7377 20.7025 16.8182 20.3605 16.9791 20.052C17.1267 19.7569 17.3681 19.6094 17.7034 19.6094C18.0387 19.6094 18.2801 19.6966 18.4276 19.8709C18.2533 20.0051 18.1124 20.2062 18.0051 20.4745C17.8844 20.7427 17.8241 21.0042 17.8241 21.2591C17.8241 21.8358 18.0655 22.1241 18.5483 22.1241C19.0848 22.1241 19.4938 21.7084 19.7755 20.8768C20.0571 20.0453 20.4461 18.3755 20.9423 15.8675L22.1091 9.91271C22.3908 8.49106 22.887 7.27059 23.5978 6.25129C24.3087 5.232 25.1335 4.72235 26.0723 4.72235C26.7429 4.72235 27.2458 4.87659 27.5811 5.18506C27.9298 5.49353 28.1042 5.85565 28.1042 6.27141C28.1042 6.68718 28.017 7.06271 27.8427 7.398C27.6817 7.73329 27.4202 7.90094 27.0581 7.90094C26.696 7.90094 26.4344 7.80706 26.2735 7.61929C26.6624 7.12306 26.8569 6.62012 26.8569 6.11047C26.8569 5.49353 26.5618 5.18506 25.9717 5.18506C25.395 5.18506 24.9323 5.48012 24.5836 6.07023C24.2349 6.64694 23.9465 7.46506 23.7185 8.52459ZM31.1427 9.06776C31.8536 9.06776 32.3833 9.24212 32.732 9.59082C33.0942 9.92612 33.2752 10.4156 33.2752 11.0594C33.2752 11.6898 33.0271 12.2396 32.5309 12.7091C31.6859 13.5138 30.4319 13.9161 28.7689 13.9161C28.2726 13.9161 27.8435 13.8759 27.4813 13.7954V13.4132C27.9507 13.4802 28.3397 13.5138 28.6482 13.5138C29.7613 13.5138 30.6197 13.2321 31.2232 12.6688C31.8402 12.1055 32.1486 11.4886 32.1486 10.818C32.1486 10.4559 32.048 10.1541 31.8469 9.91271C31.6591 9.67129 31.3372 9.55059 30.8812 9.55059C30.4386 9.55059 29.9826 9.75847 29.5132 10.1742C29.0572 10.59 28.6951 11.1064 28.4269 11.7233C27.8904 13.0242 27.6222 14.1508 27.6222 15.1031C27.6222 16.8734 28.1586 17.7586 29.2316 17.7586C30.5593 17.7586 31.5317 17.0344 32.1486 15.5859L32.4705 15.6664C32.1486 16.4845 31.6792 17.1215 31.0623 17.5775C30.4587 18.0201 29.7747 18.2414 29.0103 18.2414C28.2458 18.2414 27.602 17.9598 27.079 17.3965C26.5559 16.8332 26.2944 16.0754 26.2944 15.1232C26.2944 14.1709 26.4755 13.2522 26.8376 12.3671C27.1997 11.4685 27.763 10.6973 28.5275 10.0535C29.2919 9.39635 30.1637 9.06776 31.1427 9.06776ZM38.0524 9.24882L38.334 9.45C37.6903 10.9253 37.127 12.6219 36.6441 14.5398H36.8051L37.127 13.6546C37.7573 11.9379 38.381 10.7442 38.9979 10.0736C39.6148 9.40306 40.1513 9.06776 40.6073 9.06776C41.0633 9.06776 41.3986 9.21529 41.6132 9.51035C41.8412 9.80541 41.9552 10.1876 41.9552 10.6571C41.9552 11.1265 41.868 11.5355 41.6937 11.8842C41.5193 12.2329 41.2645 12.4073 40.9292 12.4073C40.6073 12.4073 40.3391 12.3 40.1245 12.0854C40.2586 11.9111 40.386 11.6562 40.5067 11.3209C40.6274 10.9856 40.6878 10.6906 40.6878 10.4358C40.6878 10.0468 40.5268 9.85235 40.205 9.85235C39.8697 9.85235 39.4539 10.1809 38.9577 10.8381C37.8713 12.2598 36.9526 14.6471 36.2015 18L34.7933 18.1207L36.7648 9.99318L35.4773 10.0938L35.4572 9.75176C36.3826 9.63106 37.2477 9.46341 38.0524 9.24882ZM42.9227 17.9396C42.7216 17.7251 42.621 17.4702 42.621 17.1752C42.621 16.8801 42.7216 16.632 42.9227 16.4308C43.1373 16.2162 43.3921 16.1089 43.6872 16.1089C43.9823 16.1089 44.2304 16.2162 44.4316 16.4308C44.6461 16.632 44.7534 16.8801 44.7534 17.1752C44.7534 17.4702 44.6461 17.7251 44.4316 17.9396C44.2304 18.1408 43.9823 18.2414 43.6872 18.2414C43.3921 18.2414 43.1373 18.1408 42.9227 17.9396ZM54.9809 9.45C54.5115 10.8448 54.0689 12.3402 53.6531 13.9362C53.2374 15.5322 53.0295 16.5582 53.0295 17.0142C53.0295 17.4568 53.1971 17.6781 53.5324 17.6781C53.7873 17.6781 54.0622 17.5105 54.3573 17.1752C54.6523 16.8265 54.9071 16.3369 55.1217 15.7066L55.4436 15.7871C54.8669 17.4233 54.1158 18.2414 53.1904 18.2414C52.3589 18.2414 51.9431 17.7385 51.9431 16.7326C51.9431 16.5314 51.9767 16.2095 52.0437 15.7669H51.9431C51.1116 17.4166 50.146 18.2414 49.0462 18.2414C48.4158 18.2414 47.8861 17.9665 47.4569 17.4166C47.0411 16.8533 46.8333 16.1693 46.8333 15.3646C46.8333 14.5465 46.9405 13.7887 47.1551 13.0913C47.3697 12.3939 47.6715 11.7434 48.0604 11.1399C48.4494 10.5229 48.9657 10.0267 49.6095 9.65118C50.2533 9.26223 50.9574 9.06776 51.7218 9.06776C52.7143 9.06776 53.4989 9.49023 54.0756 10.3352L54.6993 9.24882L54.9809 9.45ZM49.529 17.6379C50.0923 17.6379 50.6623 17.202 51.239 16.3302C51.8962 15.3244 52.5064 13.6814 53.0697 11.4014C53.1904 10.8649 53.2843 10.476 53.3514 10.2346C52.882 9.77859 52.3388 9.55059 51.7218 9.55059C51.1183 9.55059 50.5751 9.75847 50.0923 10.1742C49.6229 10.59 49.2541 11.1131 48.9858 11.7434C48.436 13.0309 48.161 14.2447 48.161 15.3847C48.161 16.1358 48.2817 16.6991 48.5231 17.0746C48.778 17.4501 49.1133 17.6379 49.529 17.6379ZM60.6541 9.24882L60.9357 9.45C60.292 10.9253 59.7287 12.6219 59.2458 14.5398H59.4068L59.7287 13.6546C60.359 11.9379 60.9827 10.7442 61.5996 10.0736C62.2165 9.40306 62.753 9.06776 63.209 9.06776C63.665 9.06776 64.0003 9.21529 64.2149 9.51035C64.4429 9.80541 64.5569 10.1876 64.5569 10.6571C64.5569 11.1265 64.4697 11.5355 64.2954 11.8842C64.121 12.2329 63.8662 12.4073 63.5309 12.4073C63.209 12.4073 62.9408 12.3 62.7262 12.0854C62.8603 11.9111 62.9877 11.6562 63.1084 11.3209C63.2291 10.9856 63.2895 10.6906 63.2895 10.4358C63.2895 10.0468 63.1285 9.85235 62.8067 9.85235C62.4714 9.85235 62.0556 10.1809 61.5594 10.8381C60.473 12.2598 59.5543 14.6471 58.8033 18L57.395 18.1207L59.3665 9.99318L58.079 10.0938L58.0589 9.75176C58.9843 9.63106 59.8494 9.46341 60.6541 9.24882ZM66.5907 16.8332L69.7894 17.5574C70.4868 17.7184 70.983 17.9329 71.2781 18.2012C71.5731 18.4828 71.7207 18.8651 71.7207 19.3479C71.7207 20.1258 71.2915 20.8567 70.4331 21.5407C69.5882 22.2381 68.6226 22.5868 67.5362 22.5868C66.4498 22.5868 65.5647 22.3387 64.8807 21.8425C64.2101 21.3462 63.8748 20.7561 63.8748 20.0721C63.8748 19.6027 64.0357 19.1534 64.3576 18.7242C64.6661 18.2951 65.1288 17.9329 65.7457 17.6379L66.1481 17.7586C65.7457 17.9598 65.4373 18.2615 65.2227 18.6639C65.0081 19.0796 64.9008 19.5155 64.9008 19.9715C64.9008 20.7226 65.1489 21.2792 65.6451 21.6413C66.1414 22.0168 66.7784 22.2046 67.5563 22.2046C68.3476 22.2046 69.0718 21.9766 69.729 21.5206C70.3996 21.078 70.7349 20.5415 70.7349 19.9112C70.7349 19.2808 70.3258 18.8718 69.5077 18.684L66.0475 17.9195C65.6586 17.8391 65.3568 17.658 65.1422 17.3764C64.9276 17.0947 64.8203 16.7527 64.8203 16.3504C64.8203 15.948 64.988 15.5792 65.3233 15.2439C65.6586 14.9086 66.1213 14.7409 66.7114 14.7409H68.7433L68.6829 15.0226H66.7114C66.4297 15.0226 66.2017 15.1098 66.0274 15.2841C65.8664 15.4585 65.786 15.6664 65.786 15.9078C65.786 16.404 66.0542 16.7125 66.5907 16.8332ZM69.9704 9.34941L69.9503 9.06776C70.3258 9.06776 70.641 8.98059 70.8958 8.80623C71.1507 8.61847 71.2781 8.37706 71.2781 8.082C71.2781 7.78694 71.0635 7.50529 70.6343 7.23706C70.8489 6.78106 71.1037 6.55306 71.3988 6.55306C71.7073 6.55306 71.9353 6.64023 72.0828 6.81459C72.2437 6.98894 72.3242 7.21023 72.3242 7.47847C72.3242 7.94788 72.1096 8.37706 71.6804 8.766C71.2647 9.15494 70.6947 9.34941 69.9704 9.34941ZM66.2889 12.8298C66.2889 11.8373 66.6376 10.9655 67.335 10.2145C68.0458 9.45 68.9176 9.06776 69.9503 9.06776C70.6746 9.06776 71.2446 9.26223 71.6603 9.65118C72.0895 10.0267 72.3041 10.5632 72.3041 11.2606C72.3041 12.3872 71.942 13.2992 71.2177 13.9966C70.4935 14.6806 69.6486 15.0226 68.6829 15.0226C67.9453 15.0226 67.3618 14.8348 66.9327 14.4593C66.5035 14.0704 66.2889 13.5272 66.2889 12.8298ZM69.9302 9.45C69.1926 9.45 68.589 9.85906 68.1196 10.6772C67.6502 11.4819 67.4155 12.1994 67.4155 12.8298C67.4155 13.4601 67.5295 13.9228 67.7575 14.2179C67.9989 14.4995 68.3141 14.6404 68.703 14.6404C69.2931 14.6404 69.8564 14.3051 70.3929 13.6345C70.9294 12.9639 71.1976 12.1189 71.1976 11.0996C71.1976 10.59 71.0769 10.1876 70.8355 9.89259C70.6075 9.59753 70.3057 9.45 69.9302 9.45ZM77.9729 9.55059C77.4632 9.55059 77.0273 9.69812 76.6652 9.99318C76.3031 10.2882 76.122 10.6638 76.122 11.1198C76.122 11.5758 76.3098 11.9915 76.6853 12.3671C77.0609 12.7426 77.4699 13.0578 77.9125 13.3126C78.3551 13.554 78.7642 13.8759 79.1397 14.2782C79.5152 14.6806 79.703 15.1098 79.703 15.5658C79.703 16.4241 79.3677 17.088 78.6971 17.5574C78.0399 18.0134 77.2419 18.2414 76.3031 18.2414C75.3643 18.2414 74.5394 18.0201 73.8286 17.5775C74.0566 17.1215 74.2712 16.3302 74.4724 15.2036L74.8144 15.264C74.7205 15.8139 74.6736 16.2498 74.6736 16.5716C74.6736 16.8801 74.8211 17.1685 75.1162 17.4367C75.4246 17.6915 75.8605 17.8189 76.4238 17.8189C77.0005 17.8189 77.4833 17.6446 77.8723 17.2959C78.2746 16.9472 78.4758 16.4912 78.4758 15.9279C78.4758 15.5658 78.2947 15.2171 77.9326 14.8818C77.5839 14.5331 77.195 14.2447 76.7658 14.0167C76.35 13.7887 75.9611 13.4668 75.599 13.0511C75.2503 12.6353 75.0759 12.1793 75.0759 11.6831C75.0759 10.9454 75.3643 10.3285 75.941 9.83223C76.5311 9.32259 77.3023 9.06776 78.2545 9.06776C78.9922 9.06776 79.7231 9.24882 80.4473 9.61094C80.3803 9.75847 80.2663 10.0938 80.1053 10.6168C79.9578 11.1399 79.8438 11.6361 79.7633 12.1055L79.4213 12.0452C79.5018 11.616 79.542 11.2069 79.542 10.818C79.542 10.4156 79.4079 10.1072 79.1397 9.89259C78.8849 9.66459 78.4959 9.55059 77.9729 9.55059Z" fill="#6082FA"/>
<path opacity="0.86" d="M86.7536 12.9505H84.7821C84.1652 15.7938 83.8567 17.2892 83.8567 17.4367C83.8567 17.5708 83.9305 17.6379 84.078 17.6379H85.5466L85.4862 18H81.2012L81.2615 17.6379H82.1869C82.3613 17.6379 82.4686 17.5373 82.5088 17.3361C84.1182 9.71824 84.9229 5.87576 84.9229 5.80871C84.9229 5.72823 84.8492 5.688 84.7016 5.688H83.8165L83.8768 5.32588H88.3631C89.2751 5.32588 90.0261 5.58071 90.6162 6.09035C91.2064 6.6 91.5014 7.30412 91.5014 8.20271C91.5014 9.62435 91.0119 10.7711 90.0328 11.6428C89.0538 12.5146 87.9607 12.9505 86.7536 12.9505ZM88.1418 5.78859H86.3111L84.8827 12.4878H86.7738C87.7394 12.4878 88.5441 12.0184 89.1879 11.0795C89.8451 10.1407 90.1736 9.15494 90.1736 8.12223C90.1736 7.45165 89.9993 6.89506 89.6506 6.45247C89.3153 6.00988 88.8124 5.78859 88.1418 5.78859ZM95.4684 9.24882L95.75 9.45C95.1062 10.9253 94.5429 12.6219 94.0601 14.5398H94.2211L94.5429 13.6546C95.1733 11.9379 95.7969 10.7442 96.4139 10.0736C97.0308 9.40306 97.5673 9.06776 98.0233 9.06776C98.4793 9.06776 98.8146 9.21529 99.0292 9.51035C99.2572 9.80541 99.3712 10.1876 99.3712 10.6571C99.3712 11.1265 99.284 11.5355 99.1097 11.8842C98.9353 12.2329 98.6805 12.4073 98.3452 12.4073C98.0233 12.4073 97.7551 12.3 97.5405 12.0854C97.6746 11.9111 97.802 11.6562 97.9227 11.3209C98.0434 10.9856 98.1038 10.6906 98.1038 10.4358C98.1038 10.0468 97.9428 9.85235 97.6209 9.85235C97.2857 9.85235 96.8699 10.1809 96.3737 10.8381C95.2873 12.2598 94.3686 14.6471 93.6175 18L92.2093 18.1207L94.1808 9.99318L92.8933 10.0938L92.8732 9.75176C93.7986 9.63106 94.6637 9.46341 95.4684 9.24882ZM102.853 7.056C102.679 6.88165 102.592 6.66706 102.592 6.41223C102.592 6.15741 102.679 5.94282 102.853 5.76847C103.028 5.59412 103.242 5.50694 103.497 5.50694C103.752 5.50694 103.967 5.59412 104.141 5.76847C104.315 5.94282 104.402 6.15741 104.402 6.41223C104.402 6.66706 104.315 6.88165 104.141 7.056C103.967 7.23035 103.752 7.31753 103.497 7.31753C103.242 7.31753 103.028 7.23035 102.853 7.056ZM100.58 16.7326C100.58 16.0218 101.07 13.7753 102.049 9.99318L100.761 10.0938L100.741 9.75176C101.666 9.63106 102.532 9.46341 103.336 9.24882L103.618 9.45C103.148 10.8448 102.706 12.3402 102.29 13.9362C101.874 15.5322 101.666 16.5582 101.666 17.0142C101.666 17.4568 101.834 17.6781 102.169 17.6781C102.424 17.6781 102.699 17.5105 102.994 17.1752C103.289 16.8265 103.544 16.3369 103.759 15.7066L104.081 15.7871C103.504 17.4233 102.753 18.2414 101.827 18.2414C100.996 18.2414 100.58 17.7385 100.58 16.7326ZM109.158 17.5775C110.016 17.5775 110.854 16.9539 111.672 15.7066C112.49 14.4593 112.9 13.3126 112.9 12.2665C112.9 11.2204 112.584 10.2949 111.954 9.49024C112.289 9.20859 112.591 9.06776 112.859 9.06776C113.128 9.06776 113.322 9.23541 113.443 9.57071C113.563 9.906 113.624 10.362 113.624 10.9387C113.624 11.502 113.51 12.2061 113.282 13.0511C113.054 13.896 112.739 14.7141 112.336 15.5054C111.934 16.2833 111.397 16.9338 110.727 17.4568C110.056 17.9799 109.339 18.2414 108.574 18.2414C108.078 18.2414 107.676 18.0738 107.367 17.7385C107.072 17.3898 106.925 16.9204 106.925 16.3302C106.925 15.7401 107.146 14.7074 107.588 13.2321C108.044 11.7568 108.272 10.7912 108.272 10.3352C108.272 9.86576 108.098 9.63106 107.749 9.63106C107.495 9.63106 107.226 9.80541 106.945 10.1541C106.663 10.4894 106.435 10.9722 106.261 11.6026L105.919 11.5221C106.415 9.88588 107.132 9.06776 108.071 9.06776C108.943 9.06776 109.379 9.53718 109.379 10.476C109.379 10.8515 109.171 11.7836 108.755 13.2724C108.34 14.7611 108.132 15.7401 108.132 16.2095C108.132 17.1215 108.474 17.5775 109.158 17.5775ZM123.487 9.45C123.017 10.8448 122.575 12.3402 122.159 13.9362C121.743 15.5322 121.535 16.5582 121.535 17.0142C121.535 17.4568 121.703 17.6781 122.038 17.6781C122.293 17.6781 122.568 17.5105 122.863 17.1752C123.158 16.8265 123.413 16.3369 123.628 15.7066L123.949 15.7871C123.373 17.4233 122.622 18.2414 121.696 18.2414C120.865 18.2414 120.449 17.7385 120.449 16.7326C120.449 16.5314 120.483 16.2095 120.55 15.7669H120.449C119.617 17.4166 118.652 18.2414 117.552 18.2414C116.922 18.2414 116.392 17.9665 115.963 17.4166C115.547 16.8533 115.339 16.1693 115.339 15.3646C115.339 14.5465 115.446 13.7887 115.661 13.0913C115.876 12.3939 116.177 11.7434 116.566 11.1399C116.955 10.5229 117.472 10.0267 118.115 9.65118C118.759 9.26223 119.463 9.06776 120.228 9.06776C121.22 9.06776 122.005 9.49023 122.581 10.3352L123.205 9.24882L123.487 9.45ZM118.035 17.6379C118.598 17.6379 119.168 17.202 119.745 16.3302C120.402 15.3244 121.012 13.6814 121.576 11.4014C121.696 10.8649 121.79 10.476 121.857 10.2346C121.388 9.77859 120.845 9.55059 120.228 9.55059C119.624 9.55059 119.081 9.75847 118.598 10.1742C118.129 10.59 117.76 11.1131 117.492 11.7434C116.942 13.0309 116.667 14.2447 116.667 15.3847C116.667 16.1358 116.788 16.6991 117.029 17.0746C117.284 17.4501 117.619 17.6379 118.035 17.6379ZM126.343 10.0334L126.444 9.65118H130.91L130.81 10.0334H126.343ZM129.542 7.1767L129.824 7.37788C129.515 8.31671 129.1 9.792 128.577 11.8038C128.067 13.8155 127.758 15.1165 127.651 15.7066C127.544 16.2833 127.49 16.7192 127.49 17.0142C127.49 17.4568 127.658 17.6781 127.993 17.6781C128.248 17.6781 128.523 17.5105 128.818 17.1752C129.113 16.8265 129.368 16.3369 129.582 15.7066L129.904 15.7871C129.328 17.4233 128.577 18.2414 127.651 18.2414C126.82 18.2414 126.404 17.7385 126.404 16.7326C126.404 15.9011 126.9 13.5808 127.893 9.77188L126.444 9.65118C127.182 9.65118 127.779 9.47682 128.235 9.12812C128.691 8.766 129.126 8.11553 129.542 7.1767ZM136.611 9.06776C137.322 9.06776 137.851 9.24212 138.2 9.59082C138.562 9.92612 138.743 10.4156 138.743 11.0594C138.743 11.6898 138.495 12.2396 137.999 12.7091C137.154 13.5138 135.9 13.9161 134.237 13.9161C133.741 13.9161 133.312 13.8759 132.949 13.7954V13.4132C133.419 13.4802 133.808 13.5138 134.116 13.5138C135.229 13.5138 136.088 13.2321 136.691 12.6688C137.308 12.1055 137.617 11.4886 137.617 10.818C137.617 10.4559 137.516 10.1541 137.315 9.91271C137.127 9.67129 136.805 9.55059 136.349 9.55059C135.907 9.55059 135.451 9.75847 134.981 10.1742C134.525 10.59 134.163 11.1064 133.895 11.7233C133.358 13.0242 133.09 14.1508 133.09 15.1031C133.09 16.8734 133.627 17.7586 134.7 17.7586C136.027 17.7586 137 17.0344 137.617 15.5859L137.939 15.6664C137.617 16.4845 137.147 17.1215 136.53 17.5775C135.927 18.0201 135.243 18.2414 134.478 18.2414C133.714 18.2414 133.07 17.9598 132.547 17.3965C132.024 16.8332 131.762 16.0754 131.762 15.1232C131.762 14.1709 131.944 13.2522 132.306 12.3671C132.668 11.4685 133.231 10.6973 133.996 10.0535C134.76 9.39635 135.632 9.06776 136.611 9.06776ZM144.627 5.96965L142.213 17.4367C142.213 17.5708 142.287 17.6379 142.434 17.6379H143.319L143.259 18H139.557L139.618 17.6379H140.543C140.717 17.6379 140.825 17.5373 140.865 17.3361C142.474 9.71824 143.279 5.87576 143.279 5.80871C143.279 5.72823 143.205 5.688 143.058 5.688H142.173L142.233 5.32588H145.935L145.874 5.688H144.969C144.795 5.688 144.681 5.78188 144.627 5.96965ZM147.504 14.4794L147.544 16.3302C147.571 17.1618 147.792 17.5775 148.208 17.5775C148.476 17.5775 148.697 17.4367 148.872 17.1551C149.06 16.8734 149.153 16.5113 149.153 16.0687L149.536 16.0084C149.536 16.6924 149.355 17.2355 148.992 17.6379C148.644 18.0402 148.201 18.2414 147.665 18.2414C146.712 18.2414 146.21 17.5239 146.156 16.0888L146.075 14.1173C146.035 13.2455 145.854 12.642 145.532 12.3067C145.21 11.958 144.681 11.7836 143.943 11.7836L144.044 11.4618L149.777 5.688H148.832L148.892 5.32588H151.487L151.427 5.688H150.904C150.689 5.688 150.495 5.78188 150.32 5.96965L144.868 11.4215C145.834 11.4349 146.505 11.7166 146.88 12.2665C147.269 12.8164 147.477 13.554 147.504 14.4794ZM156.846 9.06776C157.556 9.06776 158.086 9.24212 158.435 9.59082C158.797 9.92612 158.978 10.4156 158.978 11.0594C158.978 11.6898 158.73 12.2396 158.234 12.7091C157.389 13.5138 156.135 13.9161 154.472 13.9161C153.975 13.9161 153.546 13.8759 153.184 13.7954V13.4132C153.654 13.4802 154.043 13.5138 154.351 13.5138C155.464 13.5138 156.323 13.2321 156.926 12.6688C157.543 12.1055 157.851 11.4886 157.851 10.818C157.851 10.4559 157.751 10.1541 157.55 9.91271C157.362 9.67129 157.04 9.55059 156.584 9.55059C156.141 9.55059 155.685 9.75847 155.216 10.1742C154.76 10.59 154.398 11.1064 154.13 11.7233C153.593 13.0242 153.325 14.1508 153.325 15.1031C153.325 16.8734 153.861 17.7586 154.934 17.7586C156.262 17.7586 157.235 17.0344 157.851 15.5859L158.173 15.6664C157.851 16.4845 157.382 17.1215 156.765 17.5775C156.162 18.0201 155.478 18.2414 154.713 18.2414C153.949 18.2414 153.305 17.9598 152.782 17.3965C152.259 16.8332 151.997 16.0754 151.997 15.1232C151.997 14.1709 152.178 13.2522 152.54 12.3671C152.903 11.4685 153.466 10.6973 154.23 10.0535C154.995 9.39635 155.867 9.06776 156.846 9.06776ZM163.614 17.5775C164.473 17.5775 165.324 16.9539 166.169 15.7066C167.028 14.4459 167.457 13.2724 167.457 12.186C167.457 11.0862 167.108 10.1876 166.411 9.49024C166.746 9.20859 167.054 9.06776 167.336 9.06776C167.859 9.06776 168.121 9.80541 168.121 11.2807C168.121 12.756 167.96 14.1106 167.638 15.3445C167.316 16.5649 166.894 17.6044 166.37 18.4627C165.861 19.3211 165.277 20.0654 164.62 20.6958C163.346 21.9565 162.052 22.5868 160.738 22.5868C160.067 22.5868 159.564 22.4326 159.229 22.1241C158.88 21.8156 158.706 21.4535 158.706 21.0378C158.706 20.622 158.793 20.2465 158.967 19.9112C159.128 19.5759 159.376 19.4082 159.712 19.4082C160.047 19.4082 160.322 19.5021 160.536 19.6899C160.147 20.1861 159.953 20.6421 159.953 21.0579C159.953 21.7285 160.308 22.0638 161.019 22.0638C161.489 22.0638 162.032 21.8894 162.649 21.5407C163.266 21.2054 163.889 20.7226 164.52 20.0922C165.15 19.4753 165.727 18.6438 166.25 17.5976C166.786 16.5515 167.162 15.4182 167.376 14.1978C166.934 15.3646 166.337 16.3302 165.586 17.0947C164.848 17.8592 163.997 18.2414 163.031 18.2414C162.535 18.2414 162.132 18.0738 161.824 17.7385C161.529 17.3898 161.381 16.9204 161.381 16.3302C161.381 15.7401 161.603 14.7074 162.045 13.2321C162.501 11.7568 162.729 10.7912 162.729 10.3352C162.729 9.86576 162.555 9.63106 162.206 9.63106C161.951 9.63106 161.683 9.80541 161.401 10.1541C161.12 10.4894 160.892 10.9722 160.717 11.6026L160.375 11.5221C160.872 9.88588 161.589 9.06776 162.528 9.06776C163.4 9.06776 163.836 9.53718 163.836 10.476C163.836 10.8515 163.628 11.7836 163.212 13.2724C162.796 14.7611 162.588 15.7401 162.588 16.2095C162.588 17.1215 162.93 17.5775 163.614 17.5775Z" fill="#6082FA"/>
</svg>
