<svg width="61" height="23" viewBox="0 0 61 23" fill="none" xmlns="http://www.w3.org/2000/svg">
<path opacity="0.86" d="M5.75365 12.9505H3.78212C3.16518 15.7938 2.85671 17.2892 2.85671 17.4367C2.85671 17.5708 2.93047 17.6379 3.078 17.6379H4.54659L4.48624 18H0.201176L0.261529 17.6379H1.18694C1.36129 17.6379 1.46859 17.5373 1.50882 17.3361C3.11824 9.71824 3.92294 5.87576 3.92294 5.80871C3.92294 5.72823 3.84918 5.688 3.70165 5.688H2.81647L2.87682 5.32588H7.36306C8.27506 5.32588 9.02612 5.58071 9.61624 6.09035C10.2064 6.6 10.5014 7.30412 10.5014 8.20271C10.5014 9.62435 10.0119 10.7711 9.03282 11.6428C8.05377 12.5146 6.96071 12.9505 5.75365 12.9505ZM7.14177 5.78859H5.31106L3.88271 12.4878H5.77376C6.73941 12.4878 7.54412 12.0184 8.18788 11.0795C8.84506 10.1407 9.17365 9.15494 9.17365 8.12223C9.17365 7.45165 8.99929 6.89506 8.65059 6.45247C8.31529 6.00988 7.81235 5.78859 7.14177 5.78859ZM16.5606 16.7326C16.5606 16.5314 16.5941 16.2095 16.6612 15.7669H16.5606C15.7022 17.4166 14.7098 18.2414 13.5832 18.2414C12.3761 18.2414 11.7726 17.5708 11.7726 16.2296C11.7726 15.3579 12.0811 13.7418 12.698 11.3813L13.0601 9.99318L11.7726 10.0938L11.7525 9.75176C12.6779 9.63106 13.5429 9.46341 14.3477 9.24882L14.6293 9.45C13.5027 12.9505 12.9394 15.1902 12.9394 16.1693C12.9394 17.1484 13.3082 17.6379 14.0459 17.6379C14.6628 17.6379 15.2664 17.1886 15.8565 16.29C16.46 15.378 16.9562 14.1575 17.3452 12.6286L18.0292 9.99318L16.7417 10.0938L16.7215 9.75176C17.6469 9.63106 18.512 9.46341 19.3167 9.24882L19.5984 9.45C19.1289 10.8448 18.6864 12.3402 18.2706 13.9362C17.8548 15.5322 17.6469 16.5582 17.6469 17.0142C17.6469 17.4568 17.8146 17.6781 18.1499 17.6781C18.4047 17.6781 18.6797 17.5105 18.9747 17.1752C19.2698 16.8265 19.5246 16.3369 19.7392 15.7066L20.0611 15.7871C19.4844 17.4233 18.7333 18.2414 17.8079 18.2414C16.9764 18.2414 16.5606 17.7385 16.5606 16.7326ZM23.6943 14.5398H23.8553L24.1772 13.6546C25.3038 10.5967 26.5376 9.06776 27.8788 9.06776C28.5092 9.06776 29.0322 9.34941 29.448 9.91271C29.8772 10.4626 30.0918 11.1466 30.0918 11.9647C30.0918 12.7694 29.9845 13.5205 29.7699 14.2179C29.5553 14.9153 29.2535 15.5725 28.8646 16.1894C28.4756 16.7929 27.9593 17.2892 27.3155 17.6781C26.6718 18.0536 26.0146 18.2414 25.344 18.2414C24.6734 18.2414 24.0967 18.114 23.6139 17.8592C23.1311 17.5909 22.7555 17.2422 22.4873 16.8131L22.6683 16.2699C23.3121 17.2892 24.1369 17.7988 25.1428 17.7988C25.9073 17.7988 26.5712 17.4501 27.1345 16.7527C27.6978 16.0419 28.0934 15.264 28.3214 14.4191C28.5628 13.5607 28.6835 12.7761 28.6835 12.0653C28.6835 11.3411 28.5628 10.7912 28.3214 10.4156C28.0934 10.0267 27.8252 9.83223 27.5167 9.83223C27.2082 9.83223 26.8998 9.96635 26.5913 10.2346C26.2828 10.4894 25.9475 10.8918 25.5854 11.4416C24.8075 12.6487 24.0766 14.6269 23.3926 17.3764L22.7891 16.7326L22.1855 18.2414L21.8435 18.1207L25.002 5.52706L23.7145 5.62765L23.6943 5.28565C24.6198 5.16494 25.4848 4.99729 26.2895 4.78271L26.5712 4.98388C25.4848 8.14906 24.5259 11.3344 23.6943 14.5398Z" fill="#6082FA"/>
<path opacity="0.86" d="M34.7016 14.3671C34.3351 14.3671 33.9953 14.5056 33.6824 14.7828C33.3784 15.06 33.1369 15.4042 32.9581 15.8155C32.6005 16.6828 32.4216 17.4339 32.4216 18.0687C32.4216 19.2489 32.7793 19.8391 33.4946 19.8391C34.3798 19.8391 35.028 19.3562 35.4393 18.3906L35.6539 18.4442C35.4393 18.9896 35.1264 19.4144 34.7151 19.7184C34.3127 20.0134 33.8567 20.1609 33.3471 20.1609C32.8374 20.1609 32.4082 19.9732 32.0595 19.5976C31.7108 19.2221 31.5365 18.7169 31.5365 18.0821C31.5365 17.4473 31.6572 16.8348 31.8986 16.2447C32.14 15.6456 32.5155 15.1315 33.0252 14.7024C33.5348 14.2642 34.116 14.0452 34.7687 14.0452C35.2158 14.0452 35.5511 14.1614 35.7746 14.3939C36.0071 14.6174 36.1233 14.8901 36.1233 15.212C36.1233 15.5249 36.0652 15.8066 35.9489 16.0569C35.8416 16.3073 35.6673 16.4325 35.4259 16.4325C35.1934 16.4325 35.0191 16.3609 34.9028 16.2179C35.1621 15.8245 35.2918 15.44 35.2918 15.0645C35.2918 14.5995 35.0951 14.3671 34.7016 14.3671ZM38.1278 19.3428C38.1278 19.6379 38.2396 19.7854 38.4631 19.7854C38.633 19.7854 38.8163 19.6736 39.013 19.4501C39.2097 19.2176 39.3796 18.8913 39.5227 18.4711L39.7372 18.5247C39.3528 19.6155 38.8521 20.1609 38.2351 20.1609C37.6808 20.1609 37.4036 19.8122 37.4036 19.1148C37.4036 18.4085 37.9892 15.9318 39.1605 11.6847L38.3022 11.7518L38.2888 11.5238C38.9057 11.4433 39.4824 11.3315 40.0189 11.1885L40.2067 11.3226C39.8311 12.4224 39.3885 13.9155 38.8789 15.8021C38.3782 17.6798 38.1278 18.86 38.1278 19.3428ZM42.884 12.704C42.7677 12.5878 42.7096 12.4447 42.7096 12.2748C42.7096 12.1049 42.7677 11.9619 42.884 11.8456C43.0002 11.7294 43.1433 11.6713 43.3132 11.6713C43.483 11.6713 43.6261 11.7294 43.7423 11.8456C43.8586 11.9619 43.9167 12.1049 43.9167 12.2748C43.9167 12.4447 43.8586 12.5878 43.7423 12.704C43.6261 12.8202 43.483 12.8784 43.3132 12.8784C43.1433 12.8784 43.0002 12.8202 42.884 12.704ZM41.3684 19.1551C41.3684 18.6812 41.6948 17.1835 42.3475 14.6621L41.4892 14.7292L41.4757 14.5012C42.0927 14.4207 42.6694 14.3089 43.2059 14.1659L43.3936 14.3C43.0807 15.2299 42.7856 16.2268 42.5084 17.2908C42.2313 18.3548 42.0927 19.0388 42.0927 19.3428C42.0927 19.6379 42.2044 19.7854 42.428 19.7854C42.5979 19.7854 42.7812 19.6736 42.9779 19.4501C43.1746 19.2176 43.3444 18.8913 43.4875 18.4711L43.7021 18.5247C43.3176 19.6155 42.8169 20.1609 42.2 20.1609C41.6456 20.1609 41.3684 19.8256 41.3684 19.1551ZM48.1731 14.0452C48.647 14.0452 49.0002 14.1614 49.2327 14.3939C49.4741 14.6174 49.5948 14.9438 49.5948 15.3729C49.5948 15.7932 49.4294 16.1598 49.0985 16.4727C48.5353 17.0092 47.6993 17.2774 46.5905 17.2774C46.2597 17.2774 45.9736 17.2506 45.7322 17.1969V16.9421C46.0451 16.9868 46.3044 17.0092 46.5101 17.0092C47.2522 17.0092 47.8244 16.8214 48.2268 16.4459C48.6381 16.0704 48.8437 15.6591 48.8437 15.212C48.8437 14.9706 48.7767 14.7694 48.6425 14.6085C48.5174 14.4475 48.3028 14.3671 47.9988 14.3671C47.7037 14.3671 47.3997 14.5056 47.0868 14.7828C46.7828 15.06 46.5414 15.4042 46.3625 15.8155C46.0049 16.6828 45.8261 17.4339 45.8261 18.0687C45.8261 19.2489 46.1837 19.8391 46.899 19.8391C47.7842 19.8391 48.4324 19.3562 48.8437 18.3906L49.0583 18.4442C48.8437 18.9896 48.5308 19.4144 48.1195 19.7184C47.7171 20.0134 47.2611 20.1609 46.7515 20.1609C46.2418 20.1609 45.8127 19.9732 45.464 19.5976C45.1153 19.2221 44.9409 18.7169 44.9409 18.0821C44.9409 17.4473 45.0616 16.8348 45.303 16.2447C45.5444 15.6456 45.92 15.1315 46.4296 14.7024C46.9393 14.2642 47.5204 14.0452 48.1731 14.0452ZM56.0118 15.2656C56.0118 15.6501 55.7927 16.3565 55.3546 17.3847C54.9254 18.4129 54.7108 19.0701 54.7108 19.3562C54.7108 19.6424 54.8226 19.7854 55.0461 19.7854C55.216 19.7854 55.3993 19.6736 55.596 19.4501C55.7927 19.2176 55.9626 18.8913 56.1057 18.4711L56.3203 18.5247C55.9358 19.6155 55.4351 20.1609 54.8181 20.1609C54.2638 20.1609 53.9866 19.8569 53.9866 19.2489C53.9866 18.9896 54.1878 18.3459 54.5901 17.3176C55.0014 16.2894 55.2071 15.6278 55.2071 15.3327C55.2071 14.7694 55.0014 14.4878 54.5901 14.4878C54.1431 14.4878 53.6603 14.8499 53.1417 15.5741C52.5426 16.4414 52.0106 17.9167 51.5457 20L50.6068 20.0805L51.9212 14.6621L51.0628 14.7292L51.0494 14.5012C51.6664 14.4207 52.2431 14.3089 52.7796 14.1659L52.9673 14.3C52.5381 15.2835 52.1626 16.4146 51.8407 17.6932H51.948L52.1626 17.1031C52.6454 15.7529 53.1685 14.8767 53.7318 14.4744C54 14.2955 54.2191 14.1793 54.389 14.1256C54.5678 14.072 54.7868 14.0452 55.0461 14.0452C55.3144 14.0452 55.5424 14.1525 55.7301 14.3671C55.9179 14.5816 56.0118 14.8812 56.0118 15.2656ZM57.9153 14.6889L57.9824 14.4341H60.9598L60.8927 14.6889H57.9153ZM60.0478 12.7845L60.2356 12.9186C60.0299 13.5445 59.7527 14.528 59.404 15.8692C59.0643 17.2104 58.8586 18.0776 58.7871 18.4711C58.7156 18.8555 58.6798 19.1461 58.6798 19.3428C58.6798 19.6379 58.7916 19.7854 59.0151 19.7854C59.185 19.7854 59.3683 19.6736 59.565 19.4501C59.7617 19.2176 59.9316 18.8913 60.0746 18.4711L60.2892 18.5247C59.9047 19.6155 59.404 20.1609 58.7871 20.1609C58.2327 20.1609 57.9556 19.8256 57.9556 19.1551C57.9556 18.6007 58.2864 17.0539 58.948 14.5146L57.9824 14.4341C58.4741 14.4341 58.872 14.3179 59.176 14.0854C59.48 13.844 59.7706 13.4104 60.0478 12.7845Z" fill="#6082FA"/>
</svg>
