<svg width="700" height="24" viewBox="0 0 700 24" fill="none" xmlns="http://www.w3.org/2000/svg">
<path opacity="0.86" d="M30.5872 12.87H22.7011V11.8038H30.5872V12.87ZM30.5872 16.29H22.7011V15.2238H30.5872V16.29Z" fill="#6082FA"/>
<path opacity="0.86" d="M41.5608 18.2414C40.6086 18.2414 39.7704 18 39.0461 17.5172C38.8047 17.3696 38.6371 17.2959 38.5432 17.2959C38.3018 17.2959 38.1475 17.5306 38.0805 18H37.6982L38.4024 14.6404H38.7645C38.7511 14.7476 38.7444 14.9086 38.7444 15.1232C38.7444 15.9949 38.9925 16.6387 39.4887 17.0545C39.9984 17.4568 40.6891 17.658 41.5608 17.658C42.446 17.658 43.1836 17.3495 43.7738 16.7326C44.3773 16.1022 44.6791 15.3847 44.6791 14.58C44.6791 13.7619 44.2633 13.1516 43.4318 12.7493L41.8224 11.9245C40.5616 11.3075 39.9313 10.3486 39.9313 9.04765C39.9313 8.02835 40.3269 7.11635 41.1182 6.31165C41.9095 5.49353 42.902 5.08447 44.0956 5.08447C44.8869 5.08447 45.6045 5.30576 46.2482 5.74835C46.4628 5.89588 46.6104 5.96965 46.6908 5.96965C46.8249 5.96965 46.9389 5.82882 47.0328 5.54718L47.1334 5.20518H47.4955L46.7512 8.68553H46.4092C46.436 8.41729 46.4494 8.22282 46.4494 8.10212C46.4494 7.27059 46.2348 6.66035 45.8056 6.27141C45.3899 5.86906 44.7864 5.66788 43.9951 5.66788C43.2038 5.66788 42.5265 5.96294 41.9632 6.55306C41.4133 7.14318 41.1384 7.80706 41.1384 8.54471C41.1384 9.45671 41.5474 10.1273 42.3655 10.5565L44.4376 11.6227C45.5508 12.1994 46.1074 13.0175 46.1074 14.0771C46.1074 15.1232 45.6514 16.0821 44.7394 16.9539C43.8274 17.8122 42.7679 18.2414 41.5608 18.2414ZM48.4015 15.0829C48.4015 13.7015 48.8038 12.3805 49.6085 11.1198C49.9975 10.5162 50.5071 10.0267 51.1375 9.65118C51.7678 9.26223 52.4853 9.06776 53.29 9.06776C54.1082 9.06776 54.772 9.34271 55.2817 9.89259C55.7913 10.4425 56.0462 11.1935 56.0462 12.1458C56.0462 13.098 55.8718 14.0234 55.5231 14.922C55.1744 15.8206 54.6245 16.5985 53.8735 17.2556C53.1224 17.9128 52.2775 18.2414 51.3386 18.2414C50.3998 18.2414 49.6756 17.9665 49.1659 17.4166C48.6563 16.8667 48.4015 16.0888 48.4015 15.0829ZM53.1291 9.51035C52.4049 9.51035 51.7611 9.87247 51.1978 10.5967C50.6479 11.3209 50.2523 12.1122 50.0109 12.9706C49.7829 13.8289 49.6689 14.6336 49.6689 15.3847C49.6689 16.1224 49.8164 16.7125 50.1115 17.1551C50.4199 17.5842 50.8357 17.7988 51.3587 17.7988C51.8952 17.7988 52.3915 17.5842 52.8475 17.1551C53.3169 16.7259 53.6857 16.1961 53.9539 15.5658C54.5038 14.2782 54.7787 13.1651 54.7787 12.2262C54.7787 11.274 54.6312 10.5833 54.3362 10.1541C54.0411 9.72494 53.6387 9.51035 53.1291 9.51035ZM59.5458 17.0142C59.5458 17.4568 59.7135 17.6781 60.0488 17.6781C60.3036 17.6781 60.5785 17.5105 60.8736 17.1752C61.1687 16.8265 61.4235 16.3369 61.6381 15.7066L61.96 15.7871C61.3833 17.4233 60.6322 18.2414 59.7068 18.2414C58.8753 18.2414 58.4595 17.7184 58.4595 16.6722C58.4595 15.6127 59.338 11.8976 61.0949 5.52706L59.8074 5.62765L59.7873 5.28565C60.7127 5.16494 61.5777 4.99729 62.3824 4.78271L62.6641 4.98388C62.1008 6.63353 61.4369 8.87329 60.6724 11.7032C59.9214 14.5196 59.5458 16.29 59.5458 17.0142ZM69.2551 16.7326C69.2551 16.5314 69.2887 16.2095 69.3557 15.7669H69.2551C68.3968 17.4166 67.4043 18.2414 66.2777 18.2414C65.0707 18.2414 64.4671 17.5708 64.4671 16.2296C64.4671 15.3579 64.7756 13.7418 65.3925 11.3813L65.7547 9.99318L64.4671 10.0938L64.447 9.75176C65.3724 9.63106 66.2375 9.46341 67.0422 9.24882L67.3238 9.45C66.1972 12.9505 65.6339 15.1902 65.6339 16.1693C65.6339 17.1484 66.0028 17.6379 66.7404 17.6379C67.3574 17.6379 67.9609 17.1886 68.551 16.29C69.1545 15.378 69.6508 14.1575 70.0397 12.6286L70.7237 9.99318L69.4362 10.0938L69.4161 9.75176C70.3415 9.63106 71.2065 9.46341 72.0112 9.24882L72.2929 9.45C71.8235 10.8448 71.3809 12.3402 70.9651 13.9362C70.5494 15.5322 70.3415 16.5582 70.3415 17.0142C70.3415 17.4568 70.5091 17.6781 70.8444 17.6781C71.0992 17.6781 71.3742 17.5105 71.6692 17.1752C71.9643 16.8265 72.2191 16.3369 72.4337 15.7066L72.7556 15.7871C72.1789 17.4233 71.4278 18.2414 70.5024 18.2414C69.6709 18.2414 69.2551 17.7385 69.2551 16.7326ZM75.1416 10.0334L75.2422 9.65118H79.7083L79.6077 10.0334H75.1416ZM78.3403 7.1767L78.6219 7.37788C78.3135 8.31671 77.8977 9.792 77.3746 11.8038C76.865 13.8155 76.5565 15.1165 76.4492 15.7066C76.3419 16.2833 76.2883 16.7192 76.2883 17.0142C76.2883 17.4568 76.4559 17.6781 76.7912 17.6781C77.046 17.6781 77.321 17.5105 77.616 17.1752C77.9111 16.8265 78.1659 16.3369 78.3805 15.7066L78.7024 15.7871C78.1257 17.4233 77.3746 18.2414 76.4492 18.2414C75.6177 18.2414 75.2019 17.7385 75.2019 16.7326C75.2019 15.9011 75.6982 13.5808 76.6906 9.77188L75.2422 9.65118C75.9798 9.65118 76.5766 9.47682 77.0326 9.12812C77.4886 8.766 77.9245 8.11553 78.3403 7.1767ZM83.4374 7.056C83.2631 6.88165 83.1759 6.66706 83.1759 6.41223C83.1759 6.15741 83.2631 5.94282 83.4374 5.76847C83.6118 5.59412 83.8264 5.50694 84.0812 5.50694C84.336 5.50694 84.5506 5.59412 84.725 5.76847C84.8993 5.94282 84.9865 6.15741 84.9865 6.41223C84.9865 6.66706 84.8993 6.88165 84.725 7.056C84.5506 7.23035 84.336 7.31753 84.0812 7.31753C83.8264 7.31753 83.6118 7.23035 83.4374 7.056ZM81.1641 16.7326C81.1641 16.0218 81.6537 13.7753 82.6327 9.99318L81.3452 10.0938L81.3251 9.75176C82.2505 9.63106 83.1156 9.46341 83.9203 9.24882L84.2019 9.45C83.7325 10.8448 83.2899 12.3402 82.8741 13.9362C82.4584 15.5322 82.2505 16.5582 82.2505 17.0142C82.2505 17.4568 82.4181 17.6781 82.7534 17.6781C83.0083 17.6781 83.2832 17.5105 83.5783 17.1752C83.8733 16.8265 84.1281 16.3369 84.3427 15.7066L84.6646 15.7871C84.0879 17.4233 83.3368 18.2414 82.4114 18.2414C81.5799 18.2414 81.1641 17.7385 81.1641 16.7326ZM86.5228 15.0829C86.5228 13.7015 86.9252 12.3805 87.7299 11.1198C88.1188 10.5162 88.6285 10.0267 89.2588 9.65118C89.8892 9.26223 90.6067 9.06776 91.4114 9.06776C92.2295 9.06776 92.8934 9.34271 93.4031 9.89259C93.9127 10.4425 94.1675 11.1935 94.1675 12.1458C94.1675 13.098 93.9932 14.0234 93.6445 14.922C93.2958 15.8206 92.7459 16.5985 91.9948 17.2556C91.2438 17.9128 90.3988 18.2414 89.46 18.2414C88.5212 18.2414 87.7969 17.9665 87.2873 17.4166C86.7776 16.8667 86.5228 16.0888 86.5228 15.0829ZM91.2505 9.51035C90.5262 9.51035 89.8825 9.87247 89.3192 10.5967C88.7693 11.3209 88.3736 12.1122 88.1322 12.9706C87.9042 13.8289 87.7902 14.6336 87.7902 15.3847C87.7902 16.1224 87.9378 16.7125 88.2328 17.1551C88.5413 17.5842 88.9571 17.7988 89.4801 17.7988C90.0166 17.7988 90.5128 17.5842 90.9688 17.1551C91.4382 16.7259 91.8071 16.1961 92.0753 15.5658C92.6252 14.2782 92.9001 13.1651 92.9001 12.2262C92.9001 11.274 92.7526 10.5833 92.4575 10.1541C92.1625 9.72494 91.7601 9.51035 91.2505 9.51035ZM104.387 10.8985C104.387 11.4752 104.058 12.5347 103.401 14.0771C102.757 15.6194 102.435 16.6052 102.435 17.0344C102.435 17.4635 102.603 17.6781 102.938 17.6781C103.193 17.6781 103.468 17.5105 103.763 17.1752C104.058 16.8265 104.313 16.3369 104.527 15.7066L104.849 15.7871C104.273 17.4233 103.521 18.2414 102.596 18.2414C101.765 18.2414 101.349 17.7854 101.349 16.8734C101.349 16.4845 101.651 15.5188 102.254 13.9765C102.871 12.4341 103.179 11.4416 103.179 10.9991C103.179 10.1541 102.871 9.73165 102.254 9.73165C101.583 9.73165 100.859 10.2748 100.081 11.3612C99.1827 12.6621 98.3847 14.8751 97.6873 18L96.2791 18.1207L98.2506 9.99318L96.9631 10.0938L96.943 9.75176C97.8684 9.63106 98.7334 9.46341 99.5382 9.24882L99.8198 9.45C99.176 10.9253 98.6127 12.6219 98.1299 14.5398H98.2909L98.6127 13.6546C99.337 11.6294 100.122 10.3151 100.967 9.71153C101.369 9.44329 101.697 9.26894 101.952 9.18847C102.221 9.108 102.549 9.06776 102.938 9.06776C103.34 9.06776 103.682 9.22871 103.964 9.55059C104.246 9.87247 104.387 10.3218 104.387 10.8985ZM112.633 5.52706C111.239 6.55976 110.152 8.00823 109.374 9.87247C108.596 11.7233 108.207 13.6412 108.207 15.6261C108.207 17.5976 108.663 19.0461 109.575 19.9715L109.294 20.2733C108.449 19.7502 107.805 19.0126 107.363 18.0604C106.933 17.1081 106.719 16.0486 106.719 14.8818C106.719 12.9639 107.242 11.0929 108.288 9.26894C109.347 7.43153 110.749 6.08365 112.493 5.22529L112.633 5.52706ZM119.422 5.78859H117.108L114.634 17.5373H116.967C117.826 17.5373 118.617 17.2691 119.341 16.7326C120.066 16.1961 120.649 15.5188 121.092 14.7007C122.004 12.9974 122.46 11.3008 122.46 9.61094C122.46 8.40388 122.178 7.46506 121.615 6.79447C121.065 6.12388 120.334 5.78859 119.422 5.78859ZM114.674 5.32588H119.542C120.884 5.32588 121.943 5.72153 122.721 6.51282C123.499 7.29071 123.888 8.38376 123.888 9.792C123.888 10.7442 123.72 11.7032 123.385 12.6688C123.063 13.6211 122.614 14.4995 122.037 15.3042C121.46 16.0955 120.716 16.746 119.804 17.2556C118.905 17.7519 117.926 18 116.867 18H111.998L112.059 17.6379H112.984C113.158 17.6379 113.266 17.5373 113.306 17.3361C114.915 9.71824 115.72 5.87576 115.72 5.80871C115.72 5.72823 115.646 5.688 115.499 5.688H114.614L114.674 5.32588ZM130.151 9.06776C130.862 9.06776 131.392 9.24212 131.74 9.59082C132.102 9.92612 132.284 10.4156 132.284 11.0594C132.284 11.6898 132.035 12.2396 131.539 12.7091C130.694 13.5138 129.44 13.9161 127.777 13.9161C127.281 13.9161 126.852 13.8759 126.49 13.7954V13.4132C126.959 13.4802 127.348 13.5138 127.656 13.5138C128.77 13.5138 129.628 13.2321 130.232 12.6688C130.848 12.1055 131.157 11.4886 131.157 10.818C131.157 10.4559 131.056 10.1541 130.855 9.91271C130.667 9.67129 130.346 9.55059 129.89 9.55059C129.447 9.55059 128.991 9.75847 128.522 10.1742C128.066 10.59 127.703 11.1064 127.435 11.7233C126.899 13.0242 126.63 14.1508 126.63 15.1031C126.63 16.8734 127.167 17.7586 128.24 17.7586C129.568 17.7586 130.54 17.0344 131.157 15.5859L131.479 15.6664C131.157 16.4845 130.688 17.1215 130.071 17.5775C129.467 18.0201 128.783 18.2414 128.019 18.2414C127.254 18.2414 126.61 17.9598 126.087 17.3965C125.564 16.8332 125.303 16.0754 125.303 15.1232C125.303 14.1709 125.484 13.2522 125.846 12.3671C126.208 11.4685 126.771 10.6973 127.536 10.0535C128.3 9.39635 129.172 9.06776 130.151 9.06776ZM138.449 9.55059C137.899 9.55059 137.389 9.75847 136.92 10.1742C136.464 10.59 136.102 11.1064 135.834 11.7233C135.297 13.0242 135.029 14.1508 135.029 15.1031C135.029 16.8734 135.565 17.7586 136.638 17.7586C137.966 17.7586 138.938 17.0344 139.555 15.5859L139.877 15.6664C139.555 16.4845 139.086 17.1215 138.469 17.5775C137.865 18.0201 137.181 18.2414 136.417 18.2414C135.652 18.2414 135.009 17.9598 134.486 17.3965C133.963 16.8332 133.701 16.0754 133.701 15.1232C133.701 14.1709 133.882 13.2522 134.244 12.3671C134.606 11.4685 135.17 10.6973 135.934 10.0535C136.699 9.39635 137.57 9.06776 138.549 9.06776C139.22 9.06776 139.723 9.24212 140.058 9.59082C140.407 9.92612 140.581 10.3352 140.581 10.818C140.581 11.2874 140.494 11.7099 140.32 12.0854C140.159 12.4609 139.897 12.6487 139.535 12.6487C139.186 12.6487 138.925 12.5414 138.751 12.3268C139.14 11.7367 139.334 11.16 139.334 10.5967C139.334 9.89929 139.039 9.55059 138.449 9.55059Z" fill="#6082FA"/>
<path opacity="0.86" d="M144.755 11.7384C145.274 11.5059 145.824 11.3896 146.405 11.3896C147.29 11.3896 147.988 11.6579 148.497 12.1944C149.016 12.7219 149.275 13.4685 149.275 14.4341C149.275 15.0868 149.168 15.7485 148.953 16.4191C148.739 17.0807 148.439 17.6932 148.055 18.2565C147.67 18.8198 147.169 19.2802 146.552 19.6379C145.936 19.9866 145.225 20.1609 144.42 20.1609C143.615 20.1609 142.954 19.8927 142.435 19.3562C141.925 18.8198 141.671 18.0419 141.671 17.0226C141.671 16.0033 141.948 14.9751 142.502 13.9379C143.065 12.9007 143.816 12.1675 144.755 11.7384ZM147.786 12.4224C147.429 11.9664 146.955 11.7384 146.365 11.7384C145.775 11.7384 145.229 11.9306 144.728 12.3151C144.228 12.6906 143.83 13.1689 143.535 13.7501C142.918 14.9482 142.609 16.1106 142.609 17.2372C142.609 18.0508 142.784 18.6856 143.132 19.1416C143.49 19.5887 143.964 19.8122 144.554 19.8122C145.153 19.8122 145.703 19.6245 146.204 19.2489C146.704 18.8645 147.107 18.3861 147.411 17.8139C148.028 16.6247 148.336 15.4624 148.336 14.3268C148.336 13.5132 148.153 12.8784 147.786 12.4224ZM150.374 14.6889L150.441 14.4341H153.821L153.754 14.6889H150.374ZM152.654 13.6831L151.393 19.5708C151.134 20.7511 150.817 21.6273 150.441 22.1995C150.066 22.7718 149.61 23.0579 149.073 23.0579C148.733 23.0579 148.47 22.9551 148.282 22.7494C148.094 22.5438 148 22.3113 148 22.052C148 21.8016 148.054 21.5736 148.161 21.368C148.26 21.1713 148.421 21.0729 148.644 21.0729C148.868 21.0729 149.029 21.1311 149.127 21.2473C149.011 21.3367 148.917 21.4708 148.845 21.6496C148.765 21.8285 148.725 22.0028 148.725 22.1727C148.725 22.5572 148.885 22.7494 149.207 22.7494C149.565 22.7494 149.838 22.4722 150.025 21.9179C150.213 21.3635 150.473 20.2504 150.803 18.5784L151.581 14.6085C151.769 13.6607 152.1 12.8471 152.574 12.1675C153.048 11.488 153.597 11.1482 154.223 11.1482C154.67 11.1482 155.006 11.2511 155.229 11.4567C155.462 11.6624 155.578 11.9038 155.578 12.1809C155.578 12.4581 155.52 12.7085 155.404 12.932C155.296 13.1555 155.122 13.2673 154.881 13.2673C154.639 13.2673 154.465 13.2047 154.357 13.0795C154.617 12.7487 154.746 12.4134 154.746 12.0736C154.746 11.6624 154.55 11.4567 154.156 11.4567C153.772 11.4567 153.463 11.6534 153.231 12.0468C152.998 12.4313 152.806 12.9767 152.654 13.6831ZM154.532 14.6889L154.599 14.4341H157.979L157.912 14.6889H154.532ZM156.812 13.6831L155.552 19.5708C155.292 20.7511 154.975 21.6273 154.599 22.1995C154.224 22.7718 153.768 23.0579 153.231 23.0579C152.892 23.0579 152.628 22.9551 152.44 22.7494C152.252 22.5438 152.158 22.3113 152.158 22.052C152.158 21.8016 152.212 21.5736 152.319 21.368C152.418 21.1713 152.579 21.0729 152.802 21.0729C153.026 21.0729 153.187 21.1311 153.285 21.2473C153.169 21.3367 153.075 21.4708 153.003 21.6496C152.923 21.8285 152.883 22.0028 152.883 22.1727C152.883 22.5572 153.044 22.7494 153.366 22.7494C153.723 22.7494 153.996 22.4722 154.184 21.9179C154.371 21.3635 154.631 20.2504 154.962 18.5784L155.739 14.6085C155.927 13.6607 156.258 12.8471 156.732 12.1675C157.206 11.488 157.756 11.1482 158.382 11.1482C158.829 11.1482 159.164 11.2511 159.387 11.4567C159.62 11.6624 159.736 11.9038 159.736 12.1809C159.736 12.4581 159.678 12.7085 159.562 12.932C159.454 13.1555 159.28 13.2673 159.039 13.2673C158.797 13.2673 158.623 13.2047 158.516 13.0795C158.775 12.7487 158.905 12.4134 158.905 12.0736C158.905 11.6624 158.708 11.4567 158.314 11.4567C157.93 11.4567 157.622 11.6534 157.389 12.0468C157.157 12.4313 156.964 12.9767 156.812 13.6831ZM161.762 14.0452C162.236 14.0452 162.589 14.1614 162.821 14.3939C163.063 14.6174 163.183 14.9438 163.183 15.3729C163.183 15.7932 163.018 16.1598 162.687 16.4727C162.124 17.0092 161.288 17.2774 160.179 17.2774C159.848 17.2774 159.562 17.2506 159.321 17.1969V16.9421C159.634 16.9868 159.893 17.0092 160.099 17.0092C160.841 17.0092 161.413 16.8214 161.815 16.4459C162.227 16.0704 162.432 15.6591 162.432 15.212C162.432 14.9706 162.365 14.7694 162.231 14.6085C162.106 14.4475 161.891 14.3671 161.587 14.3671C161.292 14.3671 160.988 14.5056 160.675 14.7828C160.371 15.06 160.13 15.4042 159.951 15.8155C159.594 16.6828 159.415 17.4339 159.415 18.0687C159.415 19.2489 159.772 19.8391 160.488 19.8391C161.373 19.8391 162.021 19.3562 162.432 18.3906L162.647 18.4442C162.432 18.9896 162.119 19.4144 161.708 19.7184C161.306 20.0134 160.85 20.1609 160.34 20.1609C159.831 20.1609 159.401 19.9732 159.053 19.5976C158.704 19.2221 158.53 18.7169 158.53 18.0821C158.53 17.4473 158.65 16.8348 158.892 16.2447C159.133 15.6456 159.509 15.1315 160.018 14.7024C160.528 14.2642 161.109 14.0452 161.762 14.0452ZM166.368 14.1659L166.556 14.3C166.127 15.2835 165.751 16.4146 165.429 17.6932H165.537L165.751 17.1031C166.172 15.9586 166.587 15.1628 166.999 14.7158C167.41 14.2687 167.768 14.0452 168.072 14.0452C168.376 14.0452 168.599 14.1435 168.742 14.3402C168.894 14.5369 168.97 14.7918 168.97 15.1047C168.97 15.4176 168.912 15.6904 168.796 15.9228C168.68 16.1553 168.51 16.2715 168.286 16.2715C168.072 16.2715 167.893 16.2 167.75 16.0569C167.839 15.9407 167.924 15.7708 168.004 15.5473C168.085 15.3238 168.125 15.1271 168.125 14.9572C168.125 14.6979 168.018 14.5682 167.803 14.5682C167.58 14.5682 167.303 14.7873 166.972 15.2254C166.248 16.1732 165.635 17.7647 165.134 20L164.196 20.0805L165.51 14.6621L164.652 14.7292L164.638 14.5012C165.255 14.4207 165.832 14.3089 166.368 14.1659ZM169.615 19.9598C169.481 19.8167 169.414 19.6468 169.414 19.4501C169.414 19.2534 169.481 19.088 169.615 18.9539C169.758 18.8108 169.928 18.7393 170.125 18.7393C170.322 18.7393 170.487 18.8108 170.621 18.9539C170.764 19.088 170.836 19.2534 170.836 19.4501C170.836 19.6468 170.764 19.8167 170.621 19.9598C170.487 20.0939 170.322 20.1609 170.125 20.1609C169.928 20.1609 169.758 20.0939 169.615 19.9598ZM177.654 14.3C177.341 15.2299 177.046 16.2268 176.769 17.2908C176.492 18.3548 176.353 19.0388 176.353 19.3428C176.353 19.6379 176.465 19.7854 176.688 19.7854C176.858 19.7854 177.041 19.6736 177.238 19.4501C177.435 19.2176 177.605 18.8913 177.748 18.4711L177.962 18.5247C177.578 19.6155 177.077 20.1609 176.46 20.1609C175.906 20.1609 175.629 19.8256 175.629 19.1551C175.629 19.0209 175.651 18.8064 175.696 18.5113H175.629C175.074 19.6111 174.431 20.1609 173.697 20.1609C173.277 20.1609 172.924 19.9776 172.638 19.6111C172.361 19.2355 172.222 18.7795 172.222 18.2431C172.222 17.6976 172.294 17.1925 172.437 16.7275C172.58 16.2626 172.781 15.8289 173.04 15.4266C173.3 15.0153 173.644 14.6845 174.073 14.4341C174.502 14.1748 174.972 14.0452 175.481 14.0452C176.143 14.0452 176.666 14.3268 177.05 14.8901L177.466 14.1659L177.654 14.3ZM174.019 19.7586C174.395 19.7586 174.775 19.468 175.159 18.8868C175.597 18.2162 176.004 17.1209 176.38 15.6009C176.46 15.2433 176.523 14.984 176.568 14.8231C176.255 14.5191 175.893 14.3671 175.481 14.3671C175.079 14.3671 174.717 14.5056 174.395 14.7828C174.082 15.06 173.836 15.4087 173.657 15.8289C173.291 16.6873 173.107 17.4965 173.107 18.2565C173.107 18.7572 173.188 19.1327 173.349 19.3831C173.519 19.6334 173.742 19.7586 174.019 19.7586ZM181.436 14.1659L181.624 14.3C181.195 15.2835 180.819 16.4146 180.497 17.6932H180.605L180.819 17.1031C181.239 15.9586 181.655 15.1628 182.066 14.7158C182.478 14.2687 182.835 14.0452 183.139 14.0452C183.443 14.0452 183.667 14.1435 183.81 14.3402C183.962 14.5369 184.038 14.7918 184.038 15.1047C184.038 15.4176 183.98 15.6904 183.864 15.9228C183.747 16.1553 183.577 16.2715 183.354 16.2715C183.139 16.2715 182.961 16.2 182.817 16.0569C182.907 15.9407 182.992 15.7708 183.072 15.5473C183.153 15.3238 183.193 15.1271 183.193 14.9572C183.193 14.6979 183.086 14.5682 182.871 14.5682C182.648 14.5682 182.37 14.7873 182.04 15.2254C181.315 16.1732 180.703 17.7647 180.202 20L179.263 20.0805L180.578 14.6621L179.719 14.7292L179.706 14.5012C180.323 14.4207 180.9 14.3089 181.436 14.1659ZM185.394 19.2221L187.526 19.7049C187.991 19.8122 188.322 19.9553 188.519 20.1341C188.715 20.3219 188.814 20.5767 188.814 20.8986C188.814 21.4172 188.528 21.9045 187.955 22.3605C187.392 22.8254 186.748 23.0579 186.024 23.0579C185.3 23.0579 184.71 22.8925 184.254 22.5616C183.807 22.2308 183.583 21.8374 183.583 21.3814C183.583 21.0685 183.69 20.7689 183.905 20.4828C184.111 20.1967 184.419 19.9553 184.83 19.7586L185.099 19.8391C184.83 19.9732 184.625 20.1744 184.482 20.4426C184.339 20.7198 184.267 21.0104 184.267 21.3144C184.267 21.8151 184.433 22.1861 184.763 22.4275C185.094 22.6779 185.519 22.8031 186.038 22.8031C186.565 22.8031 187.048 22.6511 187.486 22.3471C187.933 22.052 188.157 21.6944 188.157 21.2741C188.157 20.8539 187.884 20.5812 187.338 20.456L185.032 19.9464C184.772 19.8927 184.571 19.772 184.428 19.5842C184.285 19.3965 184.214 19.1685 184.214 18.9002C184.214 18.632 184.325 18.3861 184.549 18.1626C184.772 17.9391 185.081 17.8273 185.474 17.8273H186.829L186.789 18.0151H185.474C185.286 18.0151 185.134 18.0732 185.018 18.1894C184.911 18.3056 184.857 18.4442 184.857 18.6052C184.857 18.936 185.036 19.1416 185.394 19.2221ZM187.647 14.2329L187.634 14.0452C187.884 14.0452 188.094 13.9871 188.264 13.8708C188.434 13.7456 188.519 13.5847 188.519 13.388C188.519 13.1913 188.376 13.0035 188.09 12.8247C188.233 12.5207 188.402 12.3687 188.599 12.3687C188.805 12.3687 188.957 12.4268 189.055 12.5431C189.162 12.6593 189.216 12.8068 189.216 12.9856C189.216 13.2986 189.073 13.5847 188.787 13.844C188.51 14.1033 188.13 14.2329 187.647 14.2329ZM185.193 16.5532C185.193 15.8915 185.425 15.3104 185.89 14.8096C186.364 14.3 186.945 14.0452 187.634 14.0452C188.116 14.0452 188.496 14.1748 188.774 14.4341C189.06 14.6845 189.203 15.0421 189.203 15.5071C189.203 16.2581 188.961 16.8661 188.478 17.3311C187.996 17.7871 187.432 18.0151 186.789 18.0151C186.297 18.0151 185.908 17.8899 185.622 17.6395C185.336 17.3802 185.193 17.0181 185.193 16.5532ZM187.62 14.3C187.128 14.3 186.726 14.5727 186.413 15.1181C186.1 15.6546 185.944 16.1329 185.944 16.5532C185.944 16.9734 186.02 17.2819 186.172 17.4786C186.333 17.6664 186.543 17.7602 186.802 17.7602C187.195 17.7602 187.571 17.5367 187.929 17.0896C188.286 16.6426 188.465 16.0793 188.465 15.3998C188.465 15.06 188.385 14.7918 188.224 14.5951C188.072 14.3984 187.87 14.3 187.62 14.3ZM192.982 14.3671C192.642 14.3671 192.352 14.4654 192.11 14.6621C191.869 14.8588 191.748 15.1092 191.748 15.4132C191.748 15.7172 191.873 15.9944 192.124 16.2447C192.374 16.4951 192.647 16.7052 192.942 16.8751C193.237 17.036 193.509 17.2506 193.76 17.5188C194.01 17.7871 194.135 18.0732 194.135 18.3772C194.135 18.9494 193.912 19.392 193.465 19.7049C193.027 20.0089 192.495 20.1609 191.869 20.1609C191.243 20.1609 190.693 20.0134 190.219 19.7184C190.371 19.4144 190.514 18.8868 190.648 18.1358L190.876 18.176C190.814 18.5426 190.782 18.8332 190.782 19.0478C190.782 19.2534 190.881 19.4456 191.077 19.6245C191.283 19.7944 191.574 19.8793 191.949 19.8793C192.334 19.8793 192.656 19.7631 192.915 19.5306C193.183 19.2981 193.317 18.9941 193.317 18.6186C193.317 18.3772 193.196 18.1447 192.955 17.9212C192.723 17.6887 192.463 17.4965 192.177 17.3445C191.9 17.1925 191.641 16.9779 191.399 16.7007C191.167 16.4235 191.051 16.1195 191.051 15.7887C191.051 15.2969 191.243 14.8856 191.627 14.5548C192.021 14.2151 192.535 14.0452 193.17 14.0452C193.661 14.0452 194.149 14.1659 194.632 14.4073C194.587 14.5056 194.511 14.7292 194.404 15.0779C194.305 15.4266 194.229 15.7574 194.176 16.0704L193.948 16.0301C194.001 15.744 194.028 15.4713 194.028 15.212C194.028 14.9438 193.939 14.7381 193.76 14.5951C193.59 14.4431 193.331 14.3671 192.982 14.3671ZM199.07 16.6336H197.755C197.344 18.5292 197.138 19.5261 197.138 19.6245C197.138 19.7139 197.187 19.7586 197.286 19.7586H198.265L198.225 20H195.368L195.408 19.7586H196.025C196.141 19.7586 196.213 19.6915 196.24 19.5574C197.313 14.4788 197.849 11.9172 197.849 11.8725C197.849 11.8188 197.8 11.792 197.702 11.792H197.111L197.152 11.5506H200.143C200.751 11.5506 201.251 11.7205 201.645 12.0602C202.038 12.4 202.235 12.8694 202.235 13.4685C202.235 14.4162 201.908 15.1807 201.256 15.7619C200.603 16.3431 199.874 16.6336 199.07 16.6336ZM199.995 11.8591H198.775L197.822 16.3252H199.083C199.727 16.3252 200.263 16.0122 200.692 15.3864C201.131 14.7605 201.35 14.1033 201.35 13.4148C201.35 12.9678 201.233 12.5967 201.001 12.3016C200.777 12.0066 200.442 11.8591 199.995 11.8591ZM204.879 14.1659L205.067 14.3C204.638 15.2835 204.262 16.4146 203.941 17.6932H204.048L204.262 17.1031C204.683 15.9586 205.098 15.1628 205.51 14.7158C205.921 14.2687 206.279 14.0452 206.583 14.0452C206.887 14.0452 207.11 14.1435 207.253 14.3402C207.405 14.5369 207.481 14.7918 207.481 15.1047C207.481 15.4176 207.423 15.6904 207.307 15.9228C207.191 16.1553 207.021 16.2715 206.797 16.2715C206.583 16.2715 206.404 16.2 206.261 16.0569C206.35 15.9407 206.435 15.7708 206.516 15.5473C206.596 15.3238 206.636 15.1271 206.636 14.9572C206.636 14.6979 206.529 14.5682 206.314 14.5682C206.091 14.5682 205.814 14.7873 205.483 15.2254C204.759 16.1732 204.146 17.7647 203.646 20L202.707 20.0805L204.021 14.6621L203.163 14.7292L203.149 14.5012C203.766 14.4207 204.343 14.3089 204.879 14.1659ZM209.803 12.704C209.687 12.5878 209.628 12.4447 209.628 12.2748C209.628 12.1049 209.687 11.9619 209.803 11.8456C209.919 11.7294 210.062 11.6713 210.232 11.6713C210.402 11.6713 210.545 11.7294 210.661 11.8456C210.777 11.9619 210.835 12.1049 210.835 12.2748C210.835 12.4447 210.777 12.5878 210.661 12.704C210.545 12.8202 210.402 12.8784 210.232 12.8784C210.062 12.8784 209.919 12.8202 209.803 12.704ZM208.287 19.1551C208.287 18.6812 208.614 17.1835 209.266 14.6621L208.408 14.7292L208.395 14.5012C209.011 14.4207 209.588 14.3089 210.125 14.1659L210.312 14.3C209.999 15.2299 209.704 16.2268 209.427 17.2908C209.15 18.3548 209.011 19.0388 209.011 19.3428C209.011 19.6379 209.123 19.7854 209.347 19.7854C209.517 19.7854 209.7 19.6736 209.897 19.4501C210.093 19.2176 210.263 18.8913 210.406 18.4711L210.621 18.5247C210.236 19.6155 209.736 20.1609 209.119 20.1609C208.564 20.1609 208.287 19.8256 208.287 19.1551ZM214.006 19.7184C214.578 19.7184 215.137 19.3026 215.682 18.4711C216.227 17.6395 216.5 16.8751 216.5 16.1776C216.5 15.4802 216.29 14.8633 215.87 14.3268C216.093 14.1391 216.295 14.0452 216.473 14.0452C216.652 14.0452 216.782 14.1569 216.862 14.3805C216.943 14.604 216.983 14.908 216.983 15.2925C216.983 15.668 216.907 16.1374 216.755 16.7007C216.603 17.264 216.393 17.8094 216.125 18.3369C215.856 18.8555 215.499 19.2892 215.052 19.6379C214.605 19.9866 214.126 20.1609 213.617 20.1609C213.286 20.1609 213.018 20.0492 212.812 19.8256C212.615 19.5932 212.517 19.2802 212.517 18.8868C212.517 18.4934 212.664 17.8049 212.959 16.8214C213.263 15.8379 213.415 15.1941 213.415 14.8901C213.415 14.5772 213.299 14.4207 213.067 14.4207C212.897 14.4207 212.718 14.5369 212.53 14.7694C212.343 14.9929 212.191 15.3148 212.074 15.7351L211.846 15.6814C212.177 14.5906 212.655 14.0452 213.281 14.0452C213.863 14.0452 214.153 14.3581 214.153 14.984C214.153 15.2344 214.015 15.8558 213.737 16.8482C213.46 17.8407 213.322 18.4934 213.322 18.8064C213.322 19.4144 213.55 19.7184 214.006 19.7184ZM223.558 14.3C223.245 15.2299 222.95 16.2268 222.673 17.2908C222.396 18.3548 222.257 19.0388 222.257 19.3428C222.257 19.6379 222.369 19.7854 222.593 19.7854C222.763 19.7854 222.946 19.6736 223.143 19.4501C223.339 19.2176 223.509 18.8913 223.652 18.4711L223.867 18.5247C223.482 19.6155 222.982 20.1609 222.365 20.1609C221.81 20.1609 221.533 19.8256 221.533 19.1551C221.533 19.0209 221.555 18.8064 221.6 18.5113H221.533C220.979 19.6111 220.335 20.1609 219.602 20.1609C219.182 20.1609 218.828 19.9776 218.542 19.6111C218.265 19.2355 218.127 18.7795 218.127 18.2431C218.127 17.6976 218.198 17.1925 218.341 16.7275C218.484 16.2626 218.685 15.8289 218.945 15.4266C219.204 15.0153 219.548 14.6845 219.977 14.4341C220.407 14.1748 220.876 14.0452 221.386 14.0452C222.047 14.0452 222.57 14.3268 222.955 14.8901L223.371 14.1659L223.558 14.3ZM219.924 19.7586C220.299 19.7586 220.679 19.468 221.064 18.8868C221.502 18.2162 221.909 17.1209 222.284 15.6009C222.365 15.2433 222.427 14.984 222.472 14.8231C222.159 14.5191 221.797 14.3671 221.386 14.3671C220.983 14.3671 220.621 14.5056 220.299 14.7828C219.986 15.06 219.74 15.4087 219.562 15.8289C219.195 16.6873 219.012 17.4965 219.012 18.2565C219.012 18.7572 219.092 19.1327 219.253 19.3831C219.423 19.6334 219.647 19.7586 219.924 19.7586ZM225.463 14.6889L225.53 14.4341H228.507L228.44 14.6889H225.463ZM227.595 12.7845L227.783 12.9186C227.577 13.5445 227.3 14.528 226.951 15.8692C226.612 17.2104 226.406 18.0776 226.335 18.4711C226.263 18.8555 226.227 19.1461 226.227 19.3428C226.227 19.6379 226.339 19.7854 226.563 19.7854C226.732 19.7854 226.916 19.6736 227.112 19.4501C227.309 19.2176 227.479 18.8913 227.622 18.4711L227.837 18.5247C227.452 19.6155 226.951 20.1609 226.335 20.1609C225.78 20.1609 225.503 19.8256 225.503 19.1551C225.503 18.6007 225.834 17.0539 226.495 14.5146L225.53 14.4341C226.022 14.4341 226.419 14.3179 226.723 14.0854C227.027 13.844 227.318 13.4104 227.595 12.7845ZM232.308 14.0452C232.782 14.0452 233.135 14.1614 233.367 14.3939C233.609 14.6174 233.729 14.9438 233.729 15.3729C233.729 15.7932 233.564 16.1598 233.233 16.4727C232.67 17.0092 231.834 17.2774 230.725 17.2774C230.394 17.2774 230.108 17.2506 229.867 17.1969V16.9421C230.18 16.9868 230.439 17.0092 230.645 17.0092C231.387 17.0092 231.959 16.8214 232.361 16.4459C232.773 16.0704 232.978 15.6591 232.978 15.212C232.978 14.9706 232.911 14.7694 232.777 14.6085C232.652 14.4475 232.437 14.3671 232.133 14.3671C231.838 14.3671 231.534 14.5056 231.221 14.7828C230.917 15.06 230.676 15.4042 230.497 15.8155C230.139 16.6828 229.961 17.4339 229.961 18.0687C229.961 19.2489 230.318 19.8391 231.034 19.8391C231.919 19.8391 232.567 19.3562 232.978 18.3906L233.193 18.4442C232.978 18.9896 232.665 19.4144 232.254 19.7184C231.852 20.0134 231.396 20.1609 230.886 20.1609C230.376 20.1609 229.947 19.9732 229.599 19.5976C229.25 19.2221 229.075 18.7169 229.075 18.0821C229.075 17.4473 229.196 16.8348 229.438 16.2447C229.679 15.6456 230.055 15.1315 230.564 14.7024C231.074 14.2642 231.655 14.0452 232.308 14.0452ZM237.652 11.9798L236.042 19.6245C236.042 19.7139 236.092 19.7586 236.19 19.7586H236.78L236.74 20H234.272L234.312 19.7586H234.929C235.045 19.7586 235.117 19.6915 235.144 19.5574C236.217 14.4788 236.753 11.9172 236.753 11.8725C236.753 11.8188 236.704 11.792 236.606 11.792H236.016L236.056 11.5506H238.524L238.483 11.792H237.88C237.764 11.792 237.688 11.8546 237.652 11.9798ZM239.57 17.6529L239.596 18.8868C239.614 19.4412 239.762 19.7184 240.039 19.7184C240.218 19.7184 240.365 19.6245 240.482 19.4367C240.607 19.2489 240.669 19.0075 240.669 18.7125L240.924 18.6722C240.924 19.1282 240.804 19.4904 240.562 19.7586C240.33 20.0268 240.035 20.1609 239.677 20.1609C239.042 20.1609 238.707 19.6826 238.671 18.7259L238.617 17.4115C238.591 16.8304 238.47 16.428 238.255 16.2045C238.041 15.972 237.688 15.8558 237.196 15.8558L237.263 15.6412L241.085 11.792H240.455L240.495 11.5506H242.225L242.185 11.792H241.836C241.693 11.792 241.564 11.8546 241.447 11.9798L237.813 15.6144C238.456 15.6233 238.904 15.8111 239.154 16.1776C239.413 16.5442 239.552 17.036 239.57 17.6529ZM245.798 14.0452C246.271 14.0452 246.625 14.1614 246.857 14.3939C247.098 14.6174 247.219 14.9438 247.219 15.3729C247.219 15.7932 247.054 16.1598 246.723 16.4727C246.16 17.0092 245.324 17.2774 244.215 17.2774C243.884 17.2774 243.598 17.2506 243.357 17.1969V16.9421C243.67 16.9868 243.929 17.0092 244.134 17.0092C244.877 17.0092 245.449 16.8214 245.851 16.4459C246.262 16.0704 246.468 15.6591 246.468 15.212C246.468 14.9706 246.401 14.7694 246.267 14.6085C246.142 14.4475 245.927 14.3671 245.623 14.3671C245.328 14.3671 245.024 14.5056 244.711 14.7828C244.407 15.06 244.166 15.4042 243.987 15.8155C243.629 16.6828 243.45 17.4339 243.45 18.0687C243.45 19.2489 243.808 19.8391 244.523 19.8391C245.409 19.8391 246.057 19.3562 246.468 18.3906L246.683 18.4442C246.468 18.9896 246.155 19.4144 245.744 19.7184C245.342 20.0134 244.886 20.1609 244.376 20.1609C243.866 20.1609 243.437 19.9732 243.088 19.5976C242.74 19.2221 242.565 18.7169 242.565 18.0821C242.565 17.4473 242.686 16.8348 242.927 16.2447C243.169 15.6456 243.544 15.1315 244.054 14.7024C244.564 14.2642 245.145 14.0452 245.798 14.0452ZM250.31 19.7184C250.882 19.7184 251.45 19.3026 252.013 18.4711C252.586 17.6306 252.872 16.8482 252.872 16.124C252.872 15.3908 252.639 14.7918 252.174 14.3268C252.398 14.1391 252.603 14.0452 252.791 14.0452C253.14 14.0452 253.314 14.5369 253.314 15.5205C253.314 16.504 253.207 17.4071 252.992 18.2296C252.778 19.0433 252.496 19.7362 252.147 20.3085C251.808 20.8807 251.419 21.3769 250.981 21.7972C250.131 22.6376 249.268 23.0579 248.392 23.0579C247.945 23.0579 247.61 22.9551 247.386 22.7494C247.154 22.5438 247.038 22.3024 247.038 22.0252C247.038 21.748 247.096 21.4976 247.212 21.2741C247.319 21.0506 247.485 20.9388 247.708 20.9388C247.932 20.9388 248.115 21.0014 248.258 21.1266C247.999 21.4574 247.869 21.7614 247.869 22.0386C247.869 22.4856 248.106 22.7092 248.58 22.7092C248.893 22.7092 249.255 22.5929 249.666 22.3605C250.078 22.1369 250.493 21.8151 250.914 21.3948C251.334 20.9835 251.718 20.4292 252.067 19.7318C252.425 19.0344 252.675 18.2788 252.818 17.4652C252.523 18.2431 252.125 18.8868 251.624 19.3965C251.133 19.9061 250.565 20.1609 249.921 20.1609C249.59 20.1609 249.322 20.0492 249.116 19.8256C248.92 19.5932 248.821 19.2802 248.821 18.8868C248.821 18.4934 248.969 17.8049 249.264 16.8214C249.568 15.8379 249.72 15.1941 249.72 14.8901C249.72 14.5772 249.604 14.4207 249.371 14.4207C249.201 14.4207 249.023 14.5369 248.835 14.7694C248.647 14.9929 248.495 15.3148 248.379 15.7351L248.151 15.6814C248.482 14.5906 248.96 14.0452 249.586 14.0452C250.167 14.0452 250.458 14.3581 250.458 14.984C250.458 15.2344 250.319 15.8558 250.042 16.8482C249.765 17.8407 249.626 18.4934 249.626 18.8064C249.626 19.4144 249.854 19.7184 250.31 19.7184ZM259.064 19.7586L258.702 17.1701H255.738L254.289 19.7586H255.121L255.08 20H253.149L253.203 19.7586H253.672C253.797 19.7586 253.891 19.696 253.954 19.5708L258.46 11.5506H258.889L259.989 19.5708C260.007 19.696 260.074 19.7586 260.19 19.7586H260.66L260.619 20H258.192L258.232 19.7586H259.064ZM258.125 12.9186L255.939 16.7946H258.648L258.125 12.9186ZM262.856 19.3428C262.856 19.6379 262.968 19.7854 263.191 19.7854C263.361 19.7854 263.545 19.6736 263.741 19.4501C263.938 19.2176 264.108 18.8913 264.251 18.4711L264.465 18.5247C264.081 19.6155 263.58 20.1609 262.963 20.1609C262.409 20.1609 262.132 19.8122 262.132 19.1148C262.132 18.4085 262.717 15.9318 263.889 11.6847L263.03 11.7518L263.017 11.5238C263.634 11.4433 264.211 11.3315 264.747 11.1885L264.935 11.3226C264.559 12.4224 264.117 13.9155 263.607 15.8021C263.106 17.6798 262.856 18.86 262.856 19.3428ZM266.647 19.2221L268.779 19.7049C269.244 19.8122 269.575 19.9553 269.771 20.1341C269.968 20.3219 270.067 20.5767 270.067 20.8986C270.067 21.4172 269.78 21.9045 269.208 22.3605C268.645 22.8254 268.001 23.0579 267.277 23.0579C266.553 23.0579 265.963 22.8925 265.507 22.5616C265.059 22.2308 264.836 21.8374 264.836 21.3814C264.836 21.0685 264.943 20.7689 265.158 20.4828C265.363 20.1967 265.672 19.9553 266.083 19.7586L266.351 19.8391C266.083 19.9732 265.878 20.1744 265.735 20.4426C265.591 20.7198 265.52 21.0104 265.52 21.3144C265.52 21.8151 265.685 22.1861 266.016 22.4275C266.347 22.6779 266.772 22.8031 267.29 22.8031C267.818 22.8031 268.301 22.6511 268.739 22.3471C269.186 22.052 269.409 21.6944 269.409 21.2741C269.409 20.8539 269.137 20.5812 268.591 20.456L266.284 19.9464C266.025 19.8927 265.824 19.772 265.681 19.5842C265.538 19.3965 265.466 19.1685 265.466 18.9002C265.466 18.632 265.578 18.3861 265.802 18.1626C266.025 17.9391 266.334 17.8273 266.727 17.8273H268.082L268.041 18.0151H266.727C266.539 18.0151 266.387 18.0732 266.271 18.1894C266.164 18.3056 266.11 18.4442 266.11 18.6052C266.11 18.936 266.289 19.1416 266.647 19.2221ZM268.9 14.2329L268.886 14.0452C269.137 14.0452 269.347 13.9871 269.517 13.8708C269.687 13.7456 269.771 13.5847 269.771 13.388C269.771 13.1913 269.628 13.0035 269.342 12.8247C269.485 12.5207 269.655 12.3687 269.852 12.3687C270.058 12.3687 270.21 12.4268 270.308 12.5431C270.415 12.6593 270.469 12.8068 270.469 12.9856C270.469 13.2986 270.326 13.5847 270.04 13.844C269.763 14.1033 269.383 14.2329 268.9 14.2329ZM266.445 16.5532C266.445 15.8915 266.678 15.3104 267.143 14.8096C267.617 14.3 268.198 14.0452 268.886 14.0452C269.369 14.0452 269.749 14.1748 270.026 14.4341C270.312 14.6845 270.455 15.0421 270.455 15.5071C270.455 16.2581 270.214 16.8661 269.731 17.3311C269.248 17.7871 268.685 18.0151 268.041 18.0151C267.55 18.0151 267.161 17.8899 266.875 17.6395C266.588 17.3802 266.445 17.0181 266.445 16.5532ZM268.873 14.3C268.381 14.3 267.979 14.5727 267.666 15.1181C267.353 15.6546 267.196 16.1329 267.196 16.5532C267.196 16.9734 267.272 17.2819 267.424 17.4786C267.585 17.6664 267.795 17.7602 268.055 17.7602C268.448 17.7602 268.824 17.5367 269.181 17.0896C269.539 16.6426 269.718 16.0793 269.718 15.3998C269.718 15.06 269.637 14.7918 269.476 14.5951C269.324 14.3984 269.123 14.3 268.873 14.3ZM271.673 18.0553C271.673 17.1344 271.941 16.2536 272.478 15.4132C272.737 15.0108 273.077 14.6845 273.497 14.4341C273.917 14.1748 274.396 14.0452 274.932 14.0452C275.477 14.0452 275.92 14.2285 276.26 14.5951C276.6 14.9616 276.769 15.4624 276.769 16.0972C276.769 16.732 276.653 17.3489 276.421 17.948C276.188 18.5471 275.822 19.0656 275.321 19.5038C274.82 19.9419 274.257 20.1609 273.631 20.1609C273.005 20.1609 272.522 19.9776 272.183 19.6111C271.843 19.2445 271.673 18.7259 271.673 18.0553ZM274.825 14.3402C274.342 14.3402 273.913 14.5816 273.537 15.0645C273.171 15.5473 272.907 16.0748 272.746 16.6471C272.594 17.2193 272.518 17.7558 272.518 18.2565C272.518 18.7482 272.616 19.1416 272.813 19.4367C273.019 19.7228 273.296 19.8659 273.645 19.8659C274.002 19.8659 274.333 19.7228 274.637 19.4367C274.95 19.1506 275.196 18.7974 275.375 18.3772C275.741 17.5188 275.925 16.7767 275.925 16.1508C275.925 15.516 275.826 15.0555 275.629 14.7694C275.433 14.4833 275.165 14.3402 274.825 14.3402Z" fill="#6082FA"/>
<path opacity="0.86" d="M284.739 5.52706C283.345 6.55976 282.258 8.00823 281.48 9.87247C280.702 11.7233 280.314 13.6412 280.314 15.6261C280.314 17.5976 280.77 19.0461 281.682 19.9715L281.4 20.2733C280.555 19.7502 279.911 19.0126 279.469 18.0604C279.039 17.1081 278.825 16.0486 278.825 14.8818C278.825 12.9639 279.348 11.0929 280.394 9.26894C281.454 7.43153 282.855 6.08365 284.599 5.22529L284.739 5.52706ZM289.536 5.60753C290.314 5.25882 291.139 5.08447 292.011 5.08447C293.338 5.08447 294.385 5.48682 295.149 6.29153C295.927 7.08282 296.316 8.20271 296.316 9.65118C296.316 10.6302 296.155 11.6227 295.833 12.6286C295.511 13.6211 295.062 14.5398 294.485 15.3847C293.908 16.2296 293.157 16.9204 292.232 17.4568C291.307 17.9799 290.24 18.2414 289.033 18.2414C287.826 18.2414 286.834 17.8391 286.056 17.0344C285.291 16.2296 284.909 15.0628 284.909 13.5339C284.909 12.0049 285.325 10.4626 286.156 8.90682C287.001 7.35106 288.128 6.25129 289.536 5.60753ZM294.083 6.63353C293.546 5.94953 292.836 5.60753 291.95 5.60753C291.065 5.60753 290.247 5.89588 289.496 6.47259C288.745 7.03588 288.148 7.75341 287.706 8.62518C286.78 10.4224 286.317 12.1659 286.317 13.8558C286.317 15.0762 286.579 16.0285 287.102 16.7125C287.638 17.3831 288.349 17.7184 289.234 17.7184C290.133 17.7184 290.958 17.4367 291.709 16.8734C292.46 16.2967 293.064 15.5792 293.52 14.7208C294.445 12.9371 294.908 11.1935 294.908 9.49024C294.908 8.26976 294.633 7.31753 294.083 6.63353ZM301.083 9.24882L301.364 9.45C300.721 10.9253 300.157 12.6219 299.675 14.5398H299.836L300.157 13.6546C300.788 11.9379 301.411 10.7442 302.028 10.0736C302.645 9.40306 303.182 9.06776 303.638 9.06776C304.094 9.06776 304.429 9.21529 304.644 9.51035C304.872 9.80541 304.986 10.1876 304.986 10.6571C304.986 11.1265 304.898 11.5355 304.724 11.8842C304.55 12.2329 304.295 12.4073 303.96 12.4073C303.638 12.4073 303.37 12.3 303.155 12.0854C303.289 11.9111 303.416 11.6562 303.537 11.3209C303.658 10.9856 303.718 10.6906 303.718 10.4358C303.718 10.0468 303.557 9.85235 303.235 9.85235C302.9 9.85235 302.484 10.1809 301.988 10.8381C300.902 12.2598 299.983 14.6471 299.232 18L297.824 18.1207L299.795 9.99318L298.508 10.0938L298.488 9.75176C299.413 9.63106 300.278 9.46341 301.083 9.24882ZM311.787 17.0142C311.787 17.4568 311.955 17.6781 312.29 17.6781C312.545 17.6781 312.82 17.5105 313.115 17.1752C313.41 16.8265 313.665 16.3369 313.88 15.7066L314.201 15.7871C313.625 17.4233 312.874 18.2414 311.948 18.2414C311.117 18.2414 310.701 17.7184 310.701 16.6722C310.701 15.6127 311.579 11.8976 313.336 5.52706L312.049 5.62765L312.029 5.28565C312.954 5.16494 313.819 4.99729 314.624 4.78271L314.906 4.98388C314.342 6.63353 313.678 8.87329 312.914 11.7032C312.163 14.5196 311.787 16.29 311.787 17.0142ZM310.902 15.7669H310.701C309.869 17.4166 308.904 18.2414 307.804 18.2414C307.174 18.2414 306.644 17.9665 306.215 17.4166C305.799 16.8533 305.591 16.1693 305.591 15.3646C305.591 14.5465 305.698 13.7887 305.913 13.0913C306.128 12.3939 306.429 11.7434 306.818 11.1399C307.207 10.5229 307.724 10.0267 308.367 9.65118C309.011 9.26223 309.668 9.06776 310.339 9.06776C311.626 9.06776 312.538 9.63106 313.075 10.7576L312.793 11.1198C312.163 10.0736 311.378 9.55059 310.439 9.55059C309.863 9.55059 309.333 9.75847 308.85 10.1742C308.381 10.59 308.012 11.1131 307.744 11.7434C307.194 13.0309 306.919 14.2447 306.919 15.3847C306.919 16.1358 307.04 16.6991 307.281 17.0746C307.536 17.4501 307.871 17.6379 308.287 17.6379C308.864 17.6379 309.454 17.1551 310.057 16.1894C310.661 15.2104 311.197 13.8155 311.667 12.0049L310.902 15.7669ZM320.901 9.06776C321.611 9.06776 322.141 9.24212 322.49 9.59082C322.852 9.92612 323.033 10.4156 323.033 11.0594C323.033 11.6898 322.785 12.2396 322.289 12.7091C321.444 13.5138 320.19 13.9161 318.527 13.9161C318.03 13.9161 317.601 13.8759 317.239 13.7954V13.4132C317.709 13.4802 318.098 13.5138 318.406 13.5138C319.519 13.5138 320.378 13.2321 320.981 12.6688C321.598 12.1055 321.906 11.4886 321.906 10.818C321.906 10.4559 321.806 10.1541 321.605 9.91271C321.417 9.67129 321.095 9.55059 320.639 9.55059C320.196 9.55059 319.74 9.75847 319.271 10.1742C318.815 10.59 318.453 11.1064 318.185 11.7233C317.648 13.0242 317.38 14.1508 317.38 15.1031C317.38 16.8734 317.916 17.7586 318.989 17.7586C320.317 17.7586 321.29 17.0344 321.906 15.5859L322.228 15.6664C321.906 16.4845 321.437 17.1215 320.82 17.5775C320.217 18.0201 319.533 18.2414 318.768 18.2414C318.004 18.2414 317.36 17.9598 316.837 17.3965C316.314 16.8332 316.052 16.0754 316.052 15.1232C316.052 14.1709 316.233 13.2522 316.595 12.3671C316.958 11.4685 317.521 10.6973 318.285 10.0535C319.05 9.39635 319.922 9.06776 320.901 9.06776ZM327.81 9.24882L328.092 9.45C327.448 10.9253 326.885 12.6219 326.402 14.5398H326.563L326.885 13.6546C327.515 11.9379 328.139 10.7442 328.756 10.0736C329.373 9.40306 329.909 9.06776 330.365 9.06776C330.821 9.06776 331.156 9.21529 331.371 9.51035C331.599 9.80541 331.713 10.1876 331.713 10.6571C331.713 11.1265 331.626 11.5355 331.451 11.8842C331.277 12.2329 331.022 12.4073 330.687 12.4073C330.365 12.4073 330.097 12.3 329.882 12.0854C330.016 11.9111 330.144 11.6562 330.265 11.3209C330.385 10.9856 330.446 10.6906 330.446 10.4358C330.446 10.0468 330.285 9.85235 329.963 9.85235C329.627 9.85235 329.212 10.1809 328.715 10.8381C327.629 12.2598 326.71 14.6471 325.959 18L324.551 18.1207L326.523 9.99318L325.235 10.0938L325.215 9.75176C326.14 9.63106 327.005 9.46341 327.81 9.24882ZM332.681 17.9396C332.479 17.7251 332.379 17.4702 332.379 17.1752C332.379 16.8801 332.479 16.632 332.681 16.4308C332.895 16.2162 333.15 16.1089 333.445 16.1089C333.74 16.1089 333.988 16.2162 334.189 16.4308C334.404 16.632 334.511 16.8801 334.511 17.1752C334.511 17.4702 334.404 17.7251 334.189 17.9396C333.988 18.1408 333.74 18.2414 333.445 18.2414C333.15 18.2414 332.895 18.1408 332.681 17.9396ZM341.439 9.06776C342.15 9.06776 342.68 9.24212 343.029 9.59082C343.391 9.92612 343.572 10.4156 343.572 11.0594C343.572 11.6898 343.324 12.2396 342.828 12.7091C341.983 13.5138 340.729 13.9161 339.066 13.9161C338.569 13.9161 338.14 13.8759 337.778 13.7954V13.4132C338.247 13.4802 338.636 13.5138 338.945 13.5138C340.058 13.5138 340.916 13.2321 341.52 12.6688C342.137 12.1055 342.445 11.4886 342.445 10.818C342.445 10.4559 342.345 10.1541 342.144 9.91271C341.956 9.67129 341.634 9.55059 341.178 9.55059C340.735 9.55059 340.279 9.75847 339.81 10.1742C339.354 10.59 338.992 11.1064 338.724 11.7233C338.187 13.0242 337.919 14.1508 337.919 15.1031C337.919 16.8734 338.455 17.7586 339.528 17.7586C340.856 17.7586 341.828 17.0344 342.445 15.5859L342.767 15.6664C342.445 16.4845 341.976 17.1215 341.359 17.5775C340.755 18.0201 340.071 18.2414 339.307 18.2414C338.542 18.2414 337.899 17.9598 337.376 17.3965C336.853 16.8332 336.591 16.0754 336.591 15.1232C336.591 14.1709 336.772 13.2522 337.134 12.3671C337.496 11.4685 338.06 10.6973 338.824 10.0535C339.589 9.39635 340.46 9.06776 341.439 9.06776ZM353.197 10.8985C353.197 11.4752 352.869 12.5347 352.212 14.0771C351.568 15.6194 351.246 16.6052 351.246 17.0344C351.246 17.4635 351.414 17.6781 351.749 17.6781C352.004 17.6781 352.279 17.5105 352.574 17.1752C352.869 16.8265 353.124 16.3369 353.338 15.7066L353.66 15.7871C353.083 17.4233 352.332 18.2414 351.407 18.2414C350.575 18.2414 350.16 17.7854 350.16 16.8734C350.16 16.4845 350.461 15.5188 351.065 13.9765C351.682 12.4341 351.99 11.4416 351.99 10.9991C351.99 10.1541 351.682 9.73165 351.065 9.73165C350.394 9.73165 349.67 10.2748 348.892 11.3612C347.994 12.6621 347.196 14.8751 346.498 18L345.09 18.1207L347.062 9.99318L345.774 10.0938L345.754 9.75176C346.679 9.63106 347.544 9.46341 348.349 9.24882L348.631 9.45C347.987 10.9253 347.424 12.6219 346.941 14.5398H347.102L347.424 13.6546C348.148 11.6294 348.932 10.3151 349.777 9.71153C350.18 9.44329 350.508 9.26894 350.763 9.18847C351.031 9.108 351.36 9.06776 351.749 9.06776C352.151 9.06776 352.493 9.22871 352.775 9.55059C353.057 9.87247 353.197 10.3218 353.197 10.8985ZM360.257 9.55059C359.707 9.55059 359.198 9.75847 358.728 10.1742C358.272 10.59 357.91 11.1064 357.642 11.7233C357.106 13.0242 356.837 14.1508 356.837 15.1031C356.837 16.8734 357.374 17.7586 358.447 17.7586C359.774 17.7586 360.747 17.0344 361.364 15.5859L361.686 15.6664C361.364 16.4845 360.894 17.1215 360.277 17.5775C359.674 18.0201 358.99 18.2414 358.225 18.2414C357.461 18.2414 356.817 17.9598 356.294 17.3965C355.771 16.8332 355.51 16.0754 355.51 15.1232C355.51 14.1709 355.691 13.2522 356.053 12.3671C356.415 11.4685 356.978 10.6973 357.743 10.0535C358.507 9.39635 359.379 9.06776 360.358 9.06776C361.028 9.06776 361.531 9.24212 361.867 9.59082C362.215 9.92612 362.39 10.3352 362.39 10.818C362.39 11.2874 362.303 11.7099 362.128 12.0854C361.967 12.4609 361.706 12.6487 361.344 12.6487C360.995 12.6487 360.733 12.5414 360.559 12.3268C360.948 11.7367 361.142 11.16 361.142 10.5967C361.142 9.89929 360.847 9.55059 360.257 9.55059ZM367.268 9.24882L367.549 9.45C366.905 10.9253 366.342 12.6219 365.859 14.5398H366.02L366.342 13.6546C366.972 11.9379 367.596 10.7442 368.213 10.0736C368.83 9.40306 369.366 9.06776 369.822 9.06776C370.278 9.06776 370.614 9.21529 370.828 9.51035C371.056 9.80541 371.17 10.1876 371.17 10.6571C371.17 11.1265 371.083 11.5355 370.909 11.8842C370.734 12.2329 370.48 12.4073 370.144 12.4073C369.822 12.4073 369.554 12.3 369.34 12.0854C369.474 11.9111 369.601 11.6562 369.722 11.3209C369.843 10.9856 369.903 10.6906 369.903 10.4358C369.903 10.0468 369.742 9.85235 369.42 9.85235C369.085 9.85235 368.669 10.1809 368.173 10.8381C367.086 12.2598 366.168 14.6471 365.417 18L364.008 18.1207L365.98 9.99318L364.692 10.0938L364.672 9.75176C365.598 9.63106 366.463 9.46341 367.268 9.24882ZM374.995 17.5775C375.853 17.5775 376.705 16.9539 377.55 15.7066C378.408 14.4459 378.837 13.2724 378.837 12.186C378.837 11.0862 378.488 10.1876 377.791 9.49024C378.126 9.20859 378.435 9.06776 378.716 9.06776C379.239 9.06776 379.501 9.80541 379.501 11.2807C379.501 12.756 379.34 14.1106 379.018 15.3445C378.696 16.5649 378.274 17.6044 377.751 18.4627C377.241 19.3211 376.658 20.0654 376 20.6958C374.726 21.9565 373.432 22.5868 372.118 22.5868C371.447 22.5868 370.944 22.4326 370.609 22.1241C370.26 21.8156 370.086 21.4535 370.086 21.0378C370.086 20.622 370.173 20.2465 370.347 19.9112C370.508 19.5759 370.756 19.4082 371.092 19.4082C371.427 19.4082 371.702 19.5021 371.917 19.6899C371.528 20.1861 371.333 20.6421 371.333 21.0579C371.333 21.7285 371.689 22.0638 372.399 22.0638C372.869 22.0638 373.412 21.8894 374.029 21.5407C374.646 21.2054 375.27 20.7226 375.9 20.0922C376.53 19.4753 377.107 18.6438 377.63 17.5976C378.166 16.5515 378.542 15.4182 378.757 14.1978C378.314 15.3646 377.717 16.3302 376.966 17.0947C376.228 17.8592 375.377 18.2414 374.411 18.2414C373.915 18.2414 373.513 18.0738 373.204 17.7385C372.909 17.3898 372.762 16.9204 372.762 16.3302C372.762 15.7401 372.983 14.7074 373.425 13.2321C373.881 11.7568 374.109 10.7912 374.109 10.3352C374.109 9.86576 373.935 9.63106 373.586 9.63106C373.332 9.63106 373.063 9.80541 372.782 10.1541C372.5 10.4894 372.272 10.9722 372.098 11.6026L371.756 11.5221C372.252 9.88588 372.969 9.06776 373.908 9.06776C374.78 9.06776 375.216 9.53718 375.216 10.476C375.216 10.8515 375.008 11.7836 374.592 13.2724C374.176 14.7611 373.969 15.7401 373.969 16.2095C373.969 17.1215 374.311 17.5775 374.995 17.5775ZM385.047 9.24882L385.329 9.45C384.685 10.9253 384.122 12.6219 383.639 14.5398H383.8L384.122 13.6546C385.235 10.5967 386.509 9.06776 387.944 9.06776C388.521 9.06776 389.01 9.34941 389.412 9.91271C389.828 10.476 390.036 11.16 390.036 11.9647C390.036 12.7694 389.929 13.5205 389.714 14.2179C389.513 14.9019 389.218 15.5456 388.829 16.1492C388.44 16.7393 387.93 17.2221 387.3 17.5976C386.67 17.9732 385.972 18.1609 385.208 18.1609C384.041 18.1609 383.129 17.6446 382.472 16.6119L382.613 16.2699C383.256 17.2489 384.101 17.7385 385.148 17.7385C385.751 17.7385 386.288 17.5373 386.757 17.1349C387.24 16.7326 387.609 16.2296 387.863 15.6261C388.373 14.3922 388.628 13.1852 388.628 12.0049C388.628 11.3209 388.527 10.7912 388.326 10.4156C388.138 10.0267 387.89 9.83223 387.582 9.83223C386.951 9.83223 386.241 10.4425 385.449 11.6629C384.671 12.8834 383.967 14.7879 383.337 17.3764L382.13 22.3454L380.722 22.4661L383.759 9.99318L382.472 10.0938L382.452 9.75176C383.377 9.63106 384.242 9.46341 385.047 9.24882ZM392.18 10.0334L392.281 9.65118H396.747L396.646 10.0334H392.18ZM395.379 7.1767L395.661 7.37788C395.352 8.31671 394.936 9.792 394.413 11.8038C393.904 13.8155 393.595 15.1165 393.488 15.7066C393.381 16.2833 393.327 16.7192 393.327 17.0142C393.327 17.4568 393.495 17.6781 393.83 17.6781C394.085 17.6781 394.36 17.5105 394.655 17.1752C394.95 16.8265 395.205 16.3369 395.419 15.7066L395.741 15.7871C395.164 17.4233 394.413 18.2414 393.488 18.2414C392.656 18.2414 392.241 17.7385 392.241 16.7326C392.241 15.9011 392.737 13.5808 393.729 9.77188L392.281 9.65118C393.019 9.65118 393.615 9.47682 394.071 9.12812C394.527 8.766 394.963 8.11553 395.379 7.1767ZM402.448 9.06776C403.159 9.06776 403.688 9.24212 404.037 9.59082C404.399 9.92612 404.58 10.4156 404.58 11.0594C404.58 11.6898 404.332 12.2396 403.836 12.7091C402.991 13.5138 401.737 13.9161 400.074 13.9161C399.578 13.9161 399.148 13.8759 398.786 13.7954V13.4132C399.256 13.4802 399.645 13.5138 399.953 13.5138C401.066 13.5138 401.925 13.2321 402.528 12.6688C403.145 12.1055 403.454 11.4886 403.454 10.818C403.454 10.4559 403.353 10.1541 403.152 9.91271C402.964 9.67129 402.642 9.55059 402.186 9.55059C401.744 9.55059 401.288 9.75847 400.818 10.1742C400.362 10.59 400 11.1064 399.732 11.7233C399.195 13.0242 398.927 14.1508 398.927 15.1031C398.927 16.8734 399.464 17.7586 400.537 17.7586C401.864 17.7586 402.837 17.0344 403.454 15.5859L403.776 15.6664C403.454 16.4845 402.984 17.1215 402.367 17.5775C401.764 18.0201 401.08 18.2414 400.315 18.2414C399.551 18.2414 398.907 17.9598 398.384 17.3965C397.861 16.8332 397.599 16.0754 397.599 15.1232C397.599 14.1709 397.78 13.2522 398.143 12.3671C398.505 11.4685 399.068 10.6973 399.832 10.0535C400.597 9.39635 401.469 9.06776 402.448 9.06776ZM412.194 17.0142C412.194 17.4568 412.362 17.6781 412.697 17.6781C412.952 17.6781 413.227 17.5105 413.522 17.1752C413.817 16.8265 414.072 16.3369 414.286 15.7066L414.608 15.7871C414.031 17.4233 413.28 18.2414 412.355 18.2414C411.523 18.2414 411.108 17.7184 411.108 16.6722C411.108 15.6127 411.986 11.8976 413.743 5.52706L412.456 5.62765L412.435 5.28565C413.361 5.16494 414.226 4.99729 415.031 4.78271L415.312 4.98388C414.749 6.63353 414.085 8.87329 413.321 11.7032C412.57 14.5196 412.194 16.29 412.194 17.0142ZM411.309 15.7669H411.108C410.276 17.4166 409.31 18.2414 408.211 18.2414C407.58 18.2414 407.051 17.9665 406.621 17.4166C406.206 16.8533 405.998 16.1693 405.998 15.3646C405.998 14.5465 406.105 13.7887 406.32 13.0913C406.534 12.3939 406.836 11.7434 407.225 11.1399C407.614 10.5229 408.13 10.0267 408.774 9.65118C409.418 9.26223 410.075 9.06776 410.746 9.06776C412.033 9.06776 412.945 9.63106 413.482 10.7576L413.2 11.1198C412.57 10.0736 411.785 9.55059 410.846 9.55059C410.269 9.55059 409.74 9.75847 409.257 10.1742C408.787 10.59 408.419 11.1131 408.15 11.7434C407.6 13.0309 407.326 14.2447 407.326 15.3847C407.326 16.1358 407.446 16.6991 407.688 17.0746C407.942 17.4501 408.278 17.6379 408.694 17.6379C409.27 17.6379 409.86 17.1551 410.464 16.1894C411.067 15.2104 411.604 13.8155 412.073 12.0049L411.309 15.7669ZM422.917 17.6379L422.374 13.7552H417.928L415.755 17.6379H417.002L416.942 18H414.045L414.125 17.6379H414.829C415.017 17.6379 415.158 17.544 415.252 17.3562L422.011 5.32588H422.655L424.305 17.3562C424.332 17.544 424.432 17.6379 424.607 17.6379H425.311L425.25 18H421.609L421.669 17.6379H422.917ZM421.508 7.37788L418.229 13.1919H422.293L421.508 7.37788ZM430.476 9.24882L430.758 9.45C430.114 10.9253 429.551 12.6219 429.068 14.5398H429.229L429.551 13.6546C430.181 11.9379 430.805 10.7442 431.422 10.0736C432.039 9.40306 432.575 9.06776 433.031 9.06776C433.487 9.06776 433.822 9.21529 434.037 9.51035C434.265 9.80541 434.379 10.1876 434.379 10.6571C434.379 11.1265 434.292 11.5355 434.118 11.8842C433.943 12.2329 433.688 12.4073 433.353 12.4073C433.031 12.4073 432.763 12.3 432.548 12.0854C432.682 11.9111 432.81 11.6562 432.931 11.3209C433.051 10.9856 433.112 10.6906 433.112 10.4358C433.112 10.0468 432.951 9.85235 432.629 9.85235C432.294 9.85235 431.878 10.1809 431.382 10.8381C430.295 12.2598 429.376 14.6471 428.625 18L427.217 18.1207L429.189 9.99318L427.901 10.0938L427.881 9.75176C428.806 9.63106 429.672 9.46341 430.476 9.24882ZM436.413 16.8332L439.611 17.5574C440.309 17.7184 440.805 17.9329 441.1 18.2012C441.395 18.4828 441.543 18.8651 441.543 19.3479C441.543 20.1258 441.114 20.8567 440.255 21.5407C439.41 22.2381 438.445 22.5868 437.358 22.5868C436.272 22.5868 435.387 22.3387 434.703 21.8425C434.032 21.3462 433.697 20.7561 433.697 20.0721C433.697 19.6027 433.858 19.1534 434.18 18.7242C434.488 18.2951 434.951 17.9329 435.568 17.6379L435.97 17.7586C435.568 17.9598 435.259 18.2615 435.045 18.6639C434.83 19.0796 434.723 19.5155 434.723 19.9715C434.723 20.7226 434.971 21.2792 435.467 21.6413C435.963 22.0168 436.601 22.2046 437.378 22.2046C438.17 22.2046 438.894 21.9766 439.551 21.5206C440.222 21.078 440.557 20.5415 440.557 19.9112C440.557 19.2808 440.148 18.8718 439.33 18.684L435.87 17.9195C435.481 17.8391 435.179 17.658 434.964 17.3764C434.75 17.0947 434.642 16.7527 434.642 16.3504C434.642 15.948 434.81 15.5792 435.145 15.2439C435.481 14.9086 435.943 14.7409 436.533 14.7409H438.565L438.505 15.0226H436.533C436.252 15.0226 436.024 15.1098 435.849 15.2841C435.689 15.4585 435.608 15.6664 435.608 15.9078C435.608 16.404 435.876 16.7125 436.413 16.8332ZM439.793 9.34941L439.772 9.06776C440.148 9.06776 440.463 8.98059 440.718 8.80623C440.973 8.61847 441.1 8.37706 441.1 8.082C441.1 7.78694 440.886 7.50529 440.456 7.23706C440.671 6.78106 440.926 6.55306 441.221 6.55306C441.529 6.55306 441.757 6.64023 441.905 6.81459C442.066 6.98894 442.146 7.21023 442.146 7.47847C442.146 7.94788 441.932 8.37706 441.503 8.766C441.087 9.15494 440.517 9.34941 439.793 9.34941ZM436.111 12.8298C436.111 11.8373 436.46 10.9655 437.157 10.2145C437.868 9.45 438.74 9.06776 439.772 9.06776C440.497 9.06776 441.067 9.26223 441.482 9.65118C441.912 10.0267 442.126 10.5632 442.126 11.2606C442.126 12.3872 441.764 13.2992 441.04 13.9966C440.316 14.6806 439.471 15.0226 438.505 15.0226C437.767 15.0226 437.184 14.8348 436.755 14.4593C436.326 14.0704 436.111 13.5272 436.111 12.8298ZM439.752 9.45C439.015 9.45 438.411 9.85906 437.942 10.6772C437.472 11.4819 437.238 12.1994 437.238 12.8298C437.238 13.4601 437.352 13.9228 437.58 14.2179C437.821 14.4995 438.136 14.6404 438.525 14.6404C439.115 14.6404 439.679 14.3051 440.215 13.6345C440.751 12.9639 441.02 12.1189 441.02 11.0996C441.02 10.59 440.899 10.1876 440.658 9.89259C440.43 9.59753 440.128 9.45 439.752 9.45ZM447.795 9.55059C447.285 9.55059 446.849 9.69812 446.487 9.99318C446.125 10.2882 445.944 10.6638 445.944 11.1198C445.944 11.5758 446.132 11.9915 446.507 12.3671C446.883 12.7426 447.292 13.0578 447.735 13.3126C448.177 13.554 448.586 13.8759 448.962 14.2782C449.337 14.6806 449.525 15.1098 449.525 15.5658C449.525 16.4241 449.19 17.088 448.519 17.5574C447.862 18.0134 447.064 18.2414 446.125 18.2414C445.186 18.2414 444.362 18.0201 443.651 17.5775C443.879 17.1215 444.093 16.3302 444.295 15.2036L444.637 15.264C444.543 15.8139 444.496 16.2498 444.496 16.5716C444.496 16.8801 444.643 17.1685 444.938 17.4367C445.247 17.6915 445.683 17.8189 446.246 17.8189C446.823 17.8189 447.305 17.6446 447.694 17.2959C448.097 16.9472 448.298 16.4912 448.298 15.9279C448.298 15.5658 448.117 15.2171 447.755 14.8818C447.406 14.5331 447.017 14.2447 446.588 14.0167C446.172 13.7887 445.783 13.4668 445.421 13.0511C445.072 12.6353 444.898 12.1793 444.898 11.6831C444.898 10.9454 445.186 10.3285 445.763 9.83223C446.353 9.32259 447.124 9.06776 448.077 9.06776C448.814 9.06776 449.545 9.24882 450.269 9.61094C450.202 9.75847 450.088 10.0938 449.927 10.6168C449.78 11.1399 449.666 11.6361 449.585 12.1055L449.243 12.0452C449.324 11.616 449.364 11.2069 449.364 10.818C449.364 10.4156 449.23 10.1072 448.962 9.89259C448.707 9.66459 448.318 9.55059 447.795 9.55059ZM451.273 20.2331C452.145 19.5625 452.581 18.8584 452.581 18.1207C452.581 17.7184 452.44 17.3898 452.159 17.1349C452.226 16.8265 452.38 16.5582 452.621 16.3302C452.876 16.1022 453.144 15.9882 453.426 15.9882C453.976 15.9882 454.251 16.2632 454.251 16.8131C454.251 17.3629 453.976 18.0134 453.426 18.7645C452.89 19.5289 452.226 20.1124 451.434 20.5147L451.273 20.2331ZM460.862 5.60753C461.64 5.25882 462.465 5.08447 463.337 5.08447C464.665 5.08447 465.711 5.48682 466.475 6.29153C467.253 7.08282 467.642 8.20271 467.642 9.65118C467.642 10.6302 467.481 11.6227 467.159 12.6286C466.837 13.6211 466.388 14.5398 465.811 15.3847C465.235 16.2296 464.484 16.9204 463.558 17.4568C462.633 17.9799 461.566 18.2414 460.359 18.2414C459.152 18.2414 458.16 17.8391 457.382 17.0344C456.618 16.2296 456.235 15.0628 456.235 13.5339C456.235 12.0049 456.651 10.4626 457.483 8.90682C458.328 7.35106 459.454 6.25129 460.862 5.60753ZM465.409 6.63353C464.872 5.94953 464.162 5.60753 463.276 5.60753C462.391 5.60753 461.573 5.89588 460.822 6.47259C460.071 7.03588 459.474 7.75341 459.032 8.62518C458.106 10.4224 457.644 12.1659 457.644 13.8558C457.644 15.0762 457.905 16.0285 458.428 16.7125C458.965 17.3831 459.675 17.7184 460.561 17.7184C461.459 17.7184 462.284 17.4367 463.035 16.8734C463.786 16.2967 464.39 15.5792 464.846 14.7208C465.771 12.9371 466.234 11.1935 466.234 9.49024C466.234 8.26976 465.959 7.31753 465.409 6.63353ZM469.291 10.0334L469.391 9.65118H474.461L474.36 10.0334H469.291ZM472.711 8.52459L470.82 17.3562C470.431 19.1266 469.955 20.4409 469.391 21.2993C468.828 22.1576 468.144 22.5868 467.339 22.5868C466.83 22.5868 466.434 22.4326 466.152 22.1241C465.871 21.8156 465.73 21.4669 465.73 21.078C465.73 20.7025 465.81 20.3605 465.971 20.052C466.119 19.7569 466.36 19.6094 466.696 19.6094C467.031 19.6094 467.272 19.6966 467.42 19.8709C467.245 20.0051 467.105 20.2062 466.997 20.4745C466.877 20.7427 466.816 21.0042 466.816 21.2591C466.816 21.8358 467.058 22.1241 467.54 22.1241C468.077 22.1241 468.486 21.7084 468.768 20.8768C469.049 20.0453 469.438 18.3755 469.934 15.8675L471.101 9.91271C471.383 8.49106 471.879 7.27059 472.59 6.25129C473.301 5.232 474.126 4.72235 475.064 4.72235C475.735 4.72235 476.238 4.87659 476.573 5.18506C476.922 5.49353 477.096 5.85565 477.096 6.27141C477.096 6.68718 477.009 7.06271 476.835 7.398C476.674 7.73329 476.412 7.90094 476.05 7.90094C475.688 7.90094 475.427 7.80706 475.266 7.61929C475.655 7.12306 475.849 6.62012 475.849 6.11047C475.849 5.49353 475.554 5.18506 474.964 5.18506C474.387 5.18506 473.924 5.48012 473.576 6.07023C473.227 6.64694 472.939 7.46506 472.711 8.52459ZM475.528 10.0334L475.629 9.65118H480.698L480.598 10.0334H475.528ZM478.948 8.52459L477.057 17.3562C476.668 19.1266 476.192 20.4409 475.629 21.2993C475.065 22.1576 474.381 22.5868 473.577 22.5868C473.067 22.5868 472.671 22.4326 472.39 22.1241C472.108 21.8156 471.967 21.4669 471.967 21.078C471.967 20.7025 472.048 20.3605 472.209 20.052C472.356 19.7569 472.597 19.6094 472.933 19.6094C473.268 19.6094 473.509 19.6966 473.657 19.8709C473.483 20.0051 473.342 20.2062 473.235 20.4745C473.114 20.7427 473.053 21.0042 473.053 21.2591C473.053 21.8358 473.295 22.1241 473.778 22.1241C474.314 22.1241 474.723 21.7084 475.005 20.8768C475.287 20.0453 475.675 18.3755 476.172 15.8675L477.339 9.91271C477.62 8.49106 478.116 7.27059 478.827 6.25129C479.538 5.232 480.363 4.72235 481.302 4.72235C481.972 4.72235 482.475 4.87659 482.811 5.18506C483.159 5.49353 483.334 5.85565 483.334 6.27141C483.334 6.68718 483.246 7.06271 483.072 7.398C482.911 7.73329 482.65 7.90094 482.287 7.90094C481.925 7.90094 481.664 7.80706 481.503 7.61929C481.892 7.12306 482.086 6.62012 482.086 6.11047C482.086 5.49353 481.791 5.18506 481.201 5.18506C480.624 5.18506 480.162 5.48012 479.813 6.07023C479.464 6.64694 479.176 7.46506 478.948 8.52459ZM486.372 9.06776C487.083 9.06776 487.613 9.24212 487.961 9.59082C488.324 9.92612 488.505 10.4156 488.505 11.0594C488.505 11.6898 488.256 12.2396 487.76 12.7091C486.915 13.5138 485.661 13.9161 483.998 13.9161C483.502 13.9161 483.073 13.8759 482.711 13.7954V13.4132C483.18 13.4802 483.569 13.5138 483.878 13.5138C484.991 13.5138 485.849 13.2321 486.453 12.6688C487.07 12.1055 487.378 11.4886 487.378 10.818C487.378 10.4559 487.277 10.1541 487.076 9.91271C486.888 9.67129 486.567 9.55059 486.111 9.55059C485.668 9.55059 485.212 9.75847 484.743 10.1742C484.287 10.59 483.924 11.1064 483.656 11.7233C483.12 13.0242 482.852 14.1508 482.852 15.1031C482.852 16.8734 483.388 17.7586 484.461 17.7586C485.789 17.7586 486.761 17.0344 487.378 15.5859L487.7 15.6664C487.378 16.4845 486.909 17.1215 486.292 17.5775C485.688 18.0201 485.004 18.2414 484.24 18.2414C483.475 18.2414 482.831 17.9598 482.308 17.3965C481.785 16.8332 481.524 16.0754 481.524 15.1232C481.524 14.1709 481.705 13.2522 482.067 12.3671C482.429 11.4685 482.992 10.6973 483.757 10.0535C484.521 9.39635 485.393 9.06776 486.372 9.06776ZM493.282 9.24882L493.563 9.45C492.92 10.9253 492.356 12.6219 491.874 14.5398H492.034L492.356 13.6546C492.987 11.9379 493.61 10.7442 494.227 10.0736C494.844 9.40306 495.381 9.06776 495.837 9.06776C496.293 9.06776 496.628 9.21529 496.843 9.51035C497.071 9.80541 497.185 10.1876 497.185 10.6571C497.185 11.1265 497.097 11.5355 496.923 11.8842C496.749 12.2329 496.494 12.4073 496.159 12.4073C495.837 12.4073 495.568 12.3 495.354 12.0854C495.488 11.9111 495.615 11.6562 495.736 11.3209C495.857 10.9856 495.917 10.6906 495.917 10.4358C495.917 10.0468 495.756 9.85235 495.434 9.85235C495.099 9.85235 494.683 10.1809 494.187 10.8381C493.101 12.2598 492.182 14.6471 491.431 18L490.023 18.1207L491.994 9.99318L490.707 10.0938L490.687 9.75176C491.612 9.63106 492.477 9.46341 493.282 9.24882ZM498.152 17.9396C497.951 17.7251 497.85 17.4702 497.85 17.1752C497.85 16.8801 497.951 16.632 498.152 16.4308C498.367 16.2162 498.622 16.1089 498.917 16.1089C499.212 16.1089 499.46 16.2162 499.661 16.4308C499.876 16.632 499.983 16.8801 499.983 17.1752C499.983 17.4702 499.876 17.7251 499.661 17.9396C499.46 18.1408 499.212 18.2414 498.917 18.2414C498.622 18.2414 498.367 18.1408 498.152 17.9396ZM510.21 9.45C509.741 10.8448 509.298 12.3402 508.883 13.9362C508.467 15.5322 508.259 16.5582 508.259 17.0142C508.259 17.4568 508.427 17.6781 508.762 17.6781C509.017 17.6781 509.292 17.5105 509.587 17.1752C509.882 16.8265 510.137 16.3369 510.351 15.7066L510.673 15.7871C510.096 17.4233 509.345 18.2414 508.42 18.2414C507.588 18.2414 507.173 17.7385 507.173 16.7326C507.173 16.5314 507.206 16.2095 507.273 15.7669H507.173C506.341 17.4166 505.375 18.2414 504.276 18.2414C503.645 18.2414 503.115 17.9665 502.686 17.4166C502.271 16.8533 502.063 16.1693 502.063 15.3646C502.063 14.5465 502.17 13.7887 502.385 13.0913C502.599 12.3939 502.901 11.7434 503.29 11.1399C503.679 10.5229 504.195 10.0267 504.839 9.65118C505.483 9.26223 506.187 9.06776 506.951 9.06776C507.944 9.06776 508.728 9.49023 509.305 10.3352L509.929 9.24882L510.21 9.45ZM504.758 17.6379C505.322 17.6379 505.892 17.202 506.468 16.3302C507.126 15.3244 507.736 13.6814 508.299 11.4014C508.42 10.8649 508.514 10.476 508.581 10.2346C508.111 9.77859 507.568 9.55059 506.951 9.55059C506.348 9.55059 505.805 9.75847 505.322 10.1742C504.852 10.59 504.483 11.1131 504.215 11.7434C503.665 13.0309 503.39 14.2447 503.39 15.3847C503.39 16.1358 503.511 16.6991 503.753 17.0746C504.007 17.4501 504.343 17.6379 504.758 17.6379ZM515.883 9.24882L516.165 9.45C515.521 10.9253 514.958 12.6219 514.475 14.5398H514.636L514.958 13.6546C515.588 11.9379 516.212 10.7442 516.829 10.0736C517.446 9.40306 517.982 9.06776 518.438 9.06776C518.894 9.06776 519.23 9.21529 519.444 9.51035C519.672 9.80541 519.786 10.1876 519.786 10.6571C519.786 11.1265 519.699 11.5355 519.525 11.8842C519.35 12.2329 519.096 12.4073 518.76 12.4073C518.438 12.4073 518.17 12.3 517.956 12.0854C518.09 11.9111 518.217 11.6562 518.338 11.3209C518.459 10.9856 518.519 10.6906 518.519 10.4358C518.519 10.0468 518.358 9.85235 518.036 9.85235C517.701 9.85235 517.285 10.1809 516.789 10.8381C515.702 12.2598 514.784 14.6471 514.033 18L512.624 18.1207L514.596 9.99318L513.308 10.0938L513.288 9.75176C514.214 9.63106 515.079 9.46341 515.883 9.24882ZM521.82 16.8332L525.019 17.5574C525.716 17.7184 526.212 17.9329 526.507 18.2012C526.803 18.4828 526.95 18.8651 526.95 19.3479C526.95 20.1258 526.521 20.8567 525.663 21.5407C524.818 22.2381 523.852 22.5868 522.766 22.5868C521.679 22.5868 520.794 22.3387 520.11 21.8425C519.439 21.3462 519.104 20.7561 519.104 20.0721C519.104 19.6027 519.265 19.1534 519.587 18.7242C519.895 18.2951 520.358 17.9329 520.975 17.6379L521.377 17.7586C520.975 17.9598 520.667 18.2615 520.452 18.6639C520.237 19.0796 520.13 19.5155 520.13 19.9715C520.13 20.7226 520.378 21.2792 520.875 21.6413C521.371 22.0168 522.008 22.2046 522.786 22.2046C523.577 22.2046 524.301 21.9766 524.958 21.5206C525.629 21.078 525.964 20.5415 525.964 19.9112C525.964 19.2808 525.555 18.8718 524.737 18.684L521.277 17.9195C520.888 17.8391 520.586 17.658 520.372 17.3764C520.157 17.0947 520.05 16.7527 520.05 16.3504C520.05 15.948 520.217 15.5792 520.553 15.2439C520.888 14.9086 521.351 14.7409 521.941 14.7409H523.973L523.912 15.0226H521.941C521.659 15.0226 521.431 15.1098 521.257 15.2841C521.096 15.4585 521.015 15.6664 521.015 15.9078C521.015 16.404 521.284 16.7125 521.82 16.8332ZM525.2 9.34941L525.18 9.06776C525.555 9.06776 525.87 8.98059 526.125 8.80623C526.38 8.61847 526.507 8.37706 526.507 8.082C526.507 7.78694 526.293 7.50529 525.864 7.23706C526.078 6.78106 526.333 6.55306 526.628 6.55306C526.937 6.55306 527.165 6.64023 527.312 6.81459C527.473 6.98894 527.554 7.21023 527.554 7.47847C527.554 7.94788 527.339 8.37706 526.91 8.766C526.494 9.15494 525.924 9.34941 525.2 9.34941ZM521.518 12.8298C521.518 11.8373 521.867 10.9655 522.564 10.2145C523.275 9.45 524.147 9.06776 525.18 9.06776C525.904 9.06776 526.474 9.26223 526.89 9.65118C527.319 10.0267 527.533 10.5632 527.533 11.2606C527.533 12.3872 527.171 13.2992 526.447 13.9966C525.723 14.6806 524.878 15.0226 523.912 15.0226C523.175 15.0226 522.591 14.8348 522.162 14.4593C521.733 14.0704 521.518 13.5272 521.518 12.8298ZM525.16 9.45C524.422 9.45 523.818 9.85906 523.349 10.6772C522.88 11.4819 522.645 12.1994 522.645 12.8298C522.645 13.4601 522.759 13.9228 522.987 14.2179C523.228 14.4995 523.543 14.6404 523.932 14.6404C524.523 14.6404 525.086 14.3051 525.622 13.6345C526.159 12.9639 526.427 12.1189 526.427 11.0996C526.427 10.59 526.306 10.1876 526.065 9.89259C525.837 9.59753 525.535 9.45 525.16 9.45ZM533.202 9.55059C532.693 9.55059 532.257 9.69812 531.895 9.99318C531.532 10.2882 531.351 10.6638 531.351 11.1198C531.351 11.5758 531.539 11.9915 531.915 12.3671C532.29 12.7426 532.699 13.0578 533.142 13.3126C533.584 13.554 533.994 13.8759 534.369 14.2782C534.745 14.6806 534.932 15.1098 534.932 15.5658C534.932 16.4241 534.597 17.088 533.926 17.5574C533.269 18.0134 532.471 18.2414 531.532 18.2414C530.594 18.2414 529.769 18.0201 529.058 17.5775C529.286 17.1215 529.501 16.3302 529.702 15.2036L530.044 15.264C529.95 15.8139 529.903 16.2498 529.903 16.5716C529.903 16.8801 530.05 17.1685 530.346 17.4367C530.654 17.6915 531.09 17.8189 531.653 17.8189C532.23 17.8189 532.713 17.6446 533.102 17.2959C533.504 16.9472 533.705 16.4912 533.705 15.9279C533.705 15.5658 533.524 15.2171 533.162 14.8818C532.813 14.5331 532.424 14.2447 531.995 14.0167C531.579 13.7887 531.19 13.4668 530.828 13.0511C530.48 12.6353 530.305 12.1793 530.305 11.6831C530.305 10.9454 530.594 10.3285 531.17 9.83223C531.76 9.32259 532.532 9.06776 533.484 9.06776C534.222 9.06776 534.952 9.24882 535.677 9.61094C535.61 9.75847 535.496 10.0938 535.335 10.6168C535.187 11.1399 535.073 11.6361 534.993 12.1055L534.651 12.0452C534.731 11.616 534.771 11.2069 534.771 10.818C534.771 10.4156 534.637 10.1072 534.369 9.89259C534.114 9.66459 533.725 9.55059 533.202 9.55059ZM542.334 12.9505H540.362C539.745 15.7938 539.437 17.2892 539.437 17.4367C539.437 17.5708 539.511 17.6379 539.658 17.6379H541.127L541.066 18H536.781L536.842 17.6379H537.767C537.941 17.6379 538.049 17.5373 538.089 17.3361C539.698 9.71824 540.503 5.87576 540.503 5.80871C540.503 5.72823 540.429 5.688 540.282 5.688H539.397L539.457 5.32588H543.943C544.855 5.32588 545.606 5.58071 546.196 6.09035C546.786 6.6 547.082 7.30412 547.082 8.20271C547.082 9.62435 546.592 10.7711 545.613 11.6428C544.634 12.5146 543.541 12.9505 542.334 12.9505ZM543.722 5.78859H541.891L540.463 12.4878H542.354C543.32 12.4878 544.124 12.0184 544.768 11.0795C545.425 10.1407 545.754 9.15494 545.754 8.12223C545.754 7.45165 545.579 6.89506 545.231 6.45247C544.895 6.00988 544.392 5.78859 543.722 5.78859ZM551.049 9.24882L551.33 9.45C550.686 10.9253 550.123 12.6219 549.64 14.5398H549.801L550.123 13.6546C550.753 11.9379 551.377 10.7442 551.994 10.0736C552.611 9.40306 553.147 9.06776 553.603 9.06776C554.059 9.06776 554.395 9.21529 554.609 9.51035C554.837 9.80541 554.951 10.1876 554.951 10.6571C554.951 11.1265 554.864 11.5355 554.69 11.8842C554.515 12.2329 554.261 12.4073 553.925 12.4073C553.603 12.4073 553.335 12.3 553.121 12.0854C553.255 11.9111 553.382 11.6562 553.503 11.3209C553.624 10.9856 553.684 10.6906 553.684 10.4358C553.684 10.0468 553.523 9.85235 553.201 9.85235C552.866 9.85235 552.45 10.1809 551.954 10.8381C550.867 12.2598 549.949 14.6471 549.198 18L547.789 18.1207L549.761 9.99318L548.473 10.0938L548.453 9.75176C549.379 9.63106 550.244 9.46341 551.049 9.24882ZM558.434 7.056C558.259 6.88165 558.172 6.66706 558.172 6.41223C558.172 6.15741 558.259 5.94282 558.434 5.76847C558.608 5.59412 558.822 5.50694 559.077 5.50694C559.332 5.50694 559.547 5.59412 559.721 5.76847C559.895 5.94282 559.983 6.15741 559.983 6.41223C559.983 6.66706 559.895 6.88165 559.721 7.056C559.547 7.23035 559.332 7.31753 559.077 7.31753C558.822 7.31753 558.608 7.23035 558.434 7.056ZM556.16 16.7326C556.16 16.0218 556.65 13.7753 557.629 9.99318L556.341 10.0938L556.321 9.75176C557.247 9.63106 558.112 9.46341 558.916 9.24882L559.198 9.45C558.729 10.8448 558.286 12.3402 557.87 13.9362C557.454 15.5322 557.247 16.5582 557.247 17.0142C557.247 17.4568 557.414 17.6781 557.75 17.6781C558.004 17.6781 558.279 17.5105 558.574 17.1752C558.869 16.8265 559.124 16.3369 559.339 15.7066L559.661 15.7871C559.084 17.4233 558.333 18.2414 557.408 18.2414C556.576 18.2414 556.16 17.7385 556.16 16.7326ZM564.738 17.5775C565.596 17.5775 566.434 16.9539 567.252 15.7066C568.071 14.4593 568.48 13.3126 568.48 12.2665C568.48 11.2204 568.164 10.2949 567.534 9.49024C567.869 9.20859 568.171 9.06776 568.439 9.06776C568.708 9.06776 568.902 9.23541 569.023 9.57071C569.144 9.906 569.204 10.362 569.204 10.9387C569.204 11.502 569.09 12.2061 568.862 13.0511C568.634 13.896 568.319 14.7141 567.916 15.5054C567.514 16.2833 566.978 16.9338 566.307 17.4568C565.636 17.9799 564.919 18.2414 564.154 18.2414C563.658 18.2414 563.256 18.0738 562.947 17.7385C562.652 17.3898 562.505 16.9204 562.505 16.3302C562.505 15.7401 562.726 14.7074 563.169 13.2321C563.625 11.7568 563.853 10.7912 563.853 10.3352C563.853 9.86576 563.678 9.63106 563.33 9.63106C563.075 9.63106 562.806 9.80541 562.525 10.1541C562.243 10.4894 562.015 10.9722 561.841 11.6026L561.499 11.5221C561.995 9.88588 562.713 9.06776 563.651 9.06776C564.523 9.06776 564.959 9.53718 564.959 10.476C564.959 10.8515 564.751 11.7836 564.335 13.2724C563.92 14.7611 563.712 15.7401 563.712 16.2095C563.712 17.1215 564.054 17.5775 564.738 17.5775ZM579.067 9.45C578.597 10.8448 578.155 12.3402 577.739 13.9362C577.323 15.5322 577.115 16.5582 577.115 17.0142C577.115 17.4568 577.283 17.6781 577.618 17.6781C577.873 17.6781 578.148 17.5105 578.443 17.1752C578.738 16.8265 578.993 16.3369 579.208 15.7066L579.53 15.7871C578.953 17.4233 578.202 18.2414 577.276 18.2414C576.445 18.2414 576.029 17.7385 576.029 16.7326C576.029 16.5314 576.063 16.2095 576.13 15.7669H576.029C575.198 17.4166 574.232 18.2414 573.132 18.2414C572.502 18.2414 571.972 17.9665 571.543 17.4166C571.127 16.8533 570.919 16.1693 570.919 15.3646C570.919 14.5465 571.027 13.7887 571.241 13.0913C571.456 12.3939 571.757 11.7434 572.146 11.1399C572.535 10.5229 573.052 10.0267 573.695 9.65118C574.339 9.26223 575.043 9.06776 575.808 9.06776C576.8 9.06776 577.585 9.49023 578.162 10.3352L578.785 9.24882L579.067 9.45ZM573.615 17.6379C574.178 17.6379 574.748 17.202 575.325 16.3302C575.982 15.3244 576.592 13.6814 577.156 11.4014C577.276 10.8649 577.37 10.476 577.437 10.2346C576.968 9.77859 576.425 9.55059 575.808 9.55059C575.204 9.55059 574.661 9.75847 574.178 10.1742C573.709 10.59 573.34 11.1131 573.072 11.7434C572.522 13.0309 572.247 14.2447 572.247 15.3847C572.247 16.1358 572.368 16.6991 572.609 17.0746C572.864 17.4501 573.199 17.6379 573.615 17.6379ZM581.924 10.0334L582.024 9.65118H586.49L586.39 10.0334H581.924ZM585.122 7.1767L585.404 7.37788C585.095 8.31671 584.68 9.792 584.157 11.8038C583.647 13.8155 583.339 15.1165 583.231 15.7066C583.124 16.2833 583.07 16.7192 583.07 17.0142C583.07 17.4568 583.238 17.6781 583.573 17.6781C583.828 17.6781 584.103 17.5105 584.398 17.1752C584.693 16.8265 584.948 16.3369 585.163 15.7066L585.484 15.7871C584.908 17.4233 584.157 18.2414 583.231 18.2414C582.4 18.2414 581.984 17.7385 581.984 16.7326C581.984 15.9011 582.48 13.5808 583.473 9.77188L582.024 9.65118C582.762 9.65118 583.359 9.47682 583.815 9.12812C584.271 8.766 584.707 8.11553 585.122 7.1767ZM592.191 9.06776C592.902 9.06776 593.432 9.24212 593.78 9.59082C594.142 9.92612 594.323 10.4156 594.323 11.0594C594.323 11.6898 594.075 12.2396 593.579 12.7091C592.734 13.5138 591.48 13.9161 589.817 13.9161C589.321 13.9161 588.892 13.8759 588.53 13.7954V13.4132C588.999 13.4802 589.388 13.5138 589.696 13.5138C590.81 13.5138 591.668 13.2321 592.271 12.6688C592.888 12.1055 593.197 11.4886 593.197 10.818C593.197 10.4559 593.096 10.1541 592.895 9.91271C592.707 9.67129 592.385 9.55059 591.929 9.55059C591.487 9.55059 591.031 9.75847 590.561 10.1742C590.105 10.59 589.743 11.1064 589.475 11.7233C588.939 13.0242 588.67 14.1508 588.67 15.1031C588.67 16.8734 589.207 17.7586 590.28 17.7586C591.608 17.7586 592.58 17.0344 593.197 15.5859L593.519 15.6664C593.197 16.4845 592.727 17.1215 592.11 17.5775C591.507 18.0201 590.823 18.2414 590.058 18.2414C589.294 18.2414 588.65 17.9598 588.127 17.3965C587.604 16.8332 587.343 16.0754 587.343 15.1232C587.343 14.1709 587.524 13.2522 587.886 12.3671C588.248 11.4685 588.811 10.6973 589.576 10.0535C590.34 9.39635 591.212 9.06776 592.191 9.06776ZM600.207 5.96965L597.793 17.4367C597.793 17.5708 597.867 17.6379 598.014 17.6379H598.899L598.839 18H595.137L595.198 17.6379H596.123C596.298 17.6379 596.405 17.5373 596.445 17.3361C598.054 9.71824 598.859 5.87576 598.859 5.80871C598.859 5.72823 598.785 5.688 598.638 5.688H597.753L597.813 5.32588H601.515L601.454 5.688H600.549C600.375 5.688 600.261 5.78188 600.207 5.96965ZM603.084 14.4794L603.124 16.3302C603.151 17.1618 603.372 17.5775 603.788 17.5775C604.056 17.5775 604.278 17.4367 604.452 17.1551C604.64 16.8734 604.734 16.5113 604.734 16.0687L605.116 16.0084C605.116 16.6924 604.935 17.2355 604.573 17.6379C604.224 18.0402 603.781 18.2414 603.245 18.2414C602.293 18.2414 601.79 17.5239 601.736 16.0888L601.656 14.1173C601.615 13.2455 601.434 12.642 601.112 12.3067C600.79 11.958 600.261 11.7836 599.523 11.7836L599.624 11.4618L605.357 5.688H604.412L604.472 5.32588H607.067L607.007 5.688H606.484C606.269 5.688 606.075 5.78188 605.9 5.96965L600.448 11.4215C601.414 11.4349 602.085 11.7166 602.46 12.2665C602.849 12.8164 603.057 13.554 603.084 14.4794ZM612.426 9.06776C613.137 9.06776 613.666 9.24212 614.015 9.59082C614.377 9.92612 614.558 10.4156 614.558 11.0594C614.558 11.6898 614.31 12.2396 613.814 12.7091C612.969 13.5138 611.715 13.9161 610.052 13.9161C609.556 13.9161 609.126 13.8759 608.764 13.7954V13.4132C609.234 13.4802 609.623 13.5138 609.931 13.5138C611.044 13.5138 611.903 13.2321 612.506 12.6688C613.123 12.1055 613.432 11.4886 613.432 10.818C613.432 10.4559 613.331 10.1541 613.13 9.91271C612.942 9.67129 612.62 9.55059 612.164 9.55059C611.722 9.55059 611.266 9.75847 610.796 10.1742C610.34 10.59 609.978 11.1064 609.71 11.7233C609.173 13.0242 608.905 14.1508 608.905 15.1031C608.905 16.8734 609.442 17.7586 610.515 17.7586C611.842 17.7586 612.815 17.0344 613.432 15.5859L613.753 15.6664C613.432 16.4845 612.962 17.1215 612.345 17.5775C611.742 18.0201 611.058 18.2414 610.293 18.2414C609.529 18.2414 608.885 17.9598 608.362 17.3965C607.839 16.8332 607.577 16.0754 607.577 15.1232C607.577 14.1709 607.758 13.2522 608.121 12.3671C608.483 11.4685 609.046 10.6973 609.81 10.0535C610.575 9.39635 611.447 9.06776 612.426 9.06776ZM619.195 17.5775C620.053 17.5775 620.905 16.9539 621.749 15.7066C622.608 14.4459 623.037 13.2724 623.037 12.186C623.037 11.0862 622.688 10.1876 621.991 9.49024C622.326 9.20859 622.635 9.06776 622.916 9.06776C623.439 9.06776 623.701 9.80541 623.701 11.2807C623.701 12.756 623.54 14.1106 623.218 15.3445C622.896 16.5649 622.474 17.6044 621.951 18.4627C621.441 19.3211 620.858 20.0654 620.2 20.6958C618.926 21.9565 617.632 22.5868 616.318 22.5868C615.647 22.5868 615.144 22.4326 614.809 22.1241C614.46 21.8156 614.286 21.4535 614.286 21.0378C614.286 20.622 614.373 20.2465 614.547 19.9112C614.708 19.5759 614.956 19.4082 615.292 19.4082C615.627 19.4082 615.902 19.5021 616.117 19.6899C615.728 20.1861 615.533 20.6421 615.533 21.0579C615.533 21.7285 615.889 22.0638 616.599 22.0638C617.069 22.0638 617.612 21.8894 618.229 21.5407C618.846 21.2054 619.469 20.7226 620.1 20.0922C620.73 19.4753 621.307 18.6438 621.83 17.5976C622.366 16.5515 622.742 15.4182 622.957 14.1978C622.514 15.3646 621.917 16.3302 621.166 17.0947C620.428 17.8592 619.577 18.2414 618.611 18.2414C618.115 18.2414 617.713 18.0738 617.404 17.7385C617.109 17.3898 616.961 16.9204 616.961 16.3302C616.961 15.7401 617.183 14.7074 617.625 13.2321C618.081 11.7568 618.309 10.7912 618.309 10.3352C618.309 9.86576 618.135 9.63106 617.786 9.63106C617.531 9.63106 617.263 9.80541 616.982 10.1541C616.7 10.4894 616.472 10.9722 616.298 11.6026L615.956 11.5221C616.452 9.88588 617.169 9.06776 618.108 9.06776C618.98 9.06776 619.416 9.53718 619.416 10.476C619.416 10.8515 619.208 11.7836 618.792 13.2724C618.376 14.7611 618.169 15.7401 618.169 16.2095C618.169 17.1215 618.511 17.5775 619.195 17.5775ZM624.137 19.9715C625.478 18.9522 626.544 17.4971 627.336 15.606C628.127 13.7149 628.523 11.8038 628.523 9.87247C628.523 7.92776 628.073 6.47929 627.175 5.52706L627.416 5.22529C628.288 5.74835 628.938 6.486 629.368 7.43823C629.797 8.37706 630.011 9.43659 630.011 10.6168C630.011 12.5347 629.482 14.4124 628.422 16.2498C627.376 18.0872 625.974 19.4284 624.217 20.2733L624.137 19.9715ZM631.066 20.2331C631.938 19.5625 632.374 18.8584 632.374 18.1207C632.374 17.7184 632.233 17.3898 631.951 17.1349C632.019 16.8265 632.173 16.5582 632.414 16.3302C632.669 16.1022 632.937 15.9882 633.219 15.9882C633.769 15.9882 634.044 16.2632 634.044 16.8131C634.044 17.3629 633.769 18.0134 633.219 18.7645C632.682 19.5289 632.019 20.1124 631.227 20.5147L631.066 20.2331ZM648.079 5.78859H645.765L643.291 17.5373H645.624C646.483 17.5373 647.274 17.2691 647.998 16.7326C648.722 16.1961 649.306 15.5188 649.748 14.7007C650.66 12.9974 651.116 11.3008 651.116 9.61094C651.116 8.40388 650.835 7.46506 650.271 6.79447C649.722 6.12388 648.991 5.78859 648.079 5.78859ZM643.331 5.32588H648.199C649.54 5.32588 650.6 5.72153 651.378 6.51282C652.156 7.29071 652.545 8.38376 652.545 9.792C652.545 10.7442 652.377 11.7032 652.042 12.6688C651.72 13.6211 651.271 14.4995 650.694 15.3042C650.117 16.0955 649.373 16.746 648.461 17.2556C647.562 17.7519 646.583 18 645.524 18H640.655L640.716 17.6379H641.641C641.815 17.6379 641.923 17.5373 641.963 17.3361C643.572 9.71824 644.377 5.87576 644.377 5.80871C644.377 5.72823 644.303 5.688 644.156 5.688H643.27L643.331 5.32588ZM653.255 20.2331C654.127 19.5625 654.563 18.8584 654.563 18.1207C654.563 17.7184 654.422 17.3898 654.141 17.1349C654.208 16.8265 654.362 16.5582 654.603 16.3302C654.858 16.1022 655.126 15.9882 655.408 15.9882C655.958 15.9882 656.233 16.2632 656.233 16.8131C656.233 17.3629 655.958 18.0134 655.408 18.7645C654.872 19.5289 654.208 20.1124 653.416 20.5147L653.255 20.2331ZM670.268 5.78859H667.954L665.48 17.5373H667.813C668.672 17.5373 669.463 17.2691 670.187 16.7326C670.911 16.1961 671.495 15.5188 671.937 14.7007C672.849 12.9974 673.305 11.3008 673.305 9.61094C673.305 8.40388 673.024 7.46506 672.461 6.79447C671.911 6.12388 671.18 5.78859 670.268 5.78859ZM665.52 5.32588H670.388C671.73 5.32588 672.789 5.72153 673.567 6.51282C674.345 7.29071 674.734 8.38376 674.734 9.792C674.734 10.7442 674.566 11.7032 674.231 12.6688C673.909 13.6211 673.46 14.4995 672.883 15.3042C672.306 16.0955 671.562 16.746 670.65 17.2556C669.751 17.7519 668.772 18 667.713 18H662.844L662.905 17.6379H663.83C664.004 17.6379 664.112 17.5373 664.152 17.3361C665.761 9.71824 666.566 5.87576 666.566 5.80871C666.566 5.72823 666.492 5.688 666.345 5.688H665.46L665.52 5.32588Z" fill="#6082FA"/>
<path opacity="0.86" d="M678.769 14.0452C679.243 14.0452 679.596 14.1614 679.828 14.3939C680.07 14.6174 680.19 14.9438 680.19 15.3729C680.19 15.7932 680.025 16.1598 679.694 16.4727C679.131 17.0092 678.295 17.2774 677.186 17.2774C676.855 17.2774 676.569 17.2506 676.328 17.1969V16.9421C676.641 16.9868 676.9 17.0092 677.106 17.0092C677.848 17.0092 678.42 16.8214 678.822 16.4459C679.234 16.0704 679.439 15.6591 679.439 15.212C679.439 14.9706 679.372 14.7694 679.238 14.6085C679.113 14.4475 678.898 14.3671 678.594 14.3671C678.299 14.3671 677.995 14.5056 677.682 14.7828C677.378 15.06 677.137 15.4042 676.958 15.8155C676.6 16.6828 676.422 17.4339 676.422 18.0687C676.422 19.2489 676.779 19.8391 677.495 19.8391C678.38 19.8391 679.028 19.3562 679.439 18.3906L679.654 18.4442C679.439 18.9896 679.126 19.4144 678.715 19.7184C678.313 20.0134 677.857 20.1609 677.347 20.1609C676.837 20.1609 676.408 19.9732 676.06 19.5976C675.711 19.2221 675.536 18.7169 675.536 18.0821C675.536 17.4473 675.657 16.8348 675.899 16.2447C676.14 15.6456 676.516 15.1315 677.025 14.7024C677.535 14.2642 678.116 14.0452 678.769 14.0452ZM682.785 14.0452C683.143 14.0452 683.433 14.2419 683.657 14.6353C683.88 15.0287 684.032 15.5071 684.113 16.0704C684.202 16.6336 684.278 17.1969 684.341 17.7602C684.493 19.1104 684.743 19.7854 685.092 19.7854C685.262 19.7854 685.445 19.6736 685.642 19.4501C685.838 19.2176 686.008 18.8913 686.151 18.4711L686.366 18.5247C685.981 19.6155 685.481 20.1609 684.864 20.1609C684.506 20.1609 684.216 19.9642 683.992 19.5708C683.769 19.1774 683.612 18.6991 683.523 18.1358C683.442 17.5725 683.371 17.0092 683.308 16.4459C683.156 15.0958 682.906 14.4207 682.557 14.4207C682.387 14.4207 682.204 14.5369 682.007 14.7694C681.81 14.9929 681.641 15.3148 681.497 15.7351L681.283 15.6814C681.667 14.5906 682.168 14.0452 682.785 14.0452ZM683.04 17.948L683.536 17.0896L683.871 17.0628L683.228 18.1894C682.485 19.5038 681.833 20.1609 681.269 20.1609C681.001 20.1609 680.867 19.9195 680.867 19.4367C681.788 19.3562 682.512 18.86 683.04 17.948ZM684.475 16.2581L683.979 17.1165L683.643 17.1433L684.287 16.0167C685.029 14.7024 685.682 14.0452 686.245 14.0452C686.513 14.0452 686.648 14.2866 686.648 14.7694C685.727 14.8499 685.002 15.3461 684.475 16.2581ZM687.948 14.6889L688.015 14.4341H690.992L690.925 14.6889H687.948ZM690.08 12.7845L690.268 12.9186C690.062 13.5445 689.785 14.528 689.436 15.8692C689.097 17.2104 688.891 18.0776 688.819 18.4711C688.748 18.8555 688.712 19.1461 688.712 19.3428C688.712 19.6379 688.824 19.7854 689.047 19.7854C689.217 19.7854 689.401 19.6736 689.597 19.4501C689.794 19.2176 689.964 18.8913 690.107 18.4711L690.322 18.5247C689.937 19.6155 689.436 20.1609 688.819 20.1609C688.265 20.1609 687.988 19.8256 687.988 19.1551C687.988 18.6007 688.319 17.0539 688.98 14.5146L688.015 14.4341C688.507 14.4341 688.904 14.3179 689.208 14.0854C689.512 13.844 689.803 13.4104 690.08 12.7845Z" fill="#6082FA"/>
<path opacity="0.86" d="M7.62459 5.78859H5.31106L2.83659 17.5373H5.17024C6.02859 17.5373 6.81988 17.2691 7.54412 16.7326C8.26835 16.1961 8.85177 15.5188 9.29435 14.7007C10.2064 12.9974 10.6624 11.3008 10.6624 9.61094C10.6624 8.40388 10.3807 7.46506 9.81741 6.79447C9.26753 6.12388 8.53659 5.78859 7.62459 5.78859ZM2.87682 5.32588H7.74529C9.08647 5.32588 10.146 5.72153 10.9239 6.51282C11.7018 7.29071 12.0907 8.38376 12.0907 9.792C12.0907 10.7442 11.9231 11.7032 11.5878 12.6688C11.2659 13.6211 10.8166 14.4995 10.2399 15.3042C9.66318 16.0955 8.91882 16.746 8.00682 17.2556C7.10824 17.7519 6.12918 18 5.06965 18H0.201176L0.261529 17.6379H1.18694C1.36129 17.6379 1.46859 17.5373 1.50882 17.3361C3.11824 9.71824 3.92294 5.87576 3.92294 5.80871C3.92294 5.72823 3.84918 5.688 3.70165 5.688H2.81647L2.87682 5.32588Z" fill="#6082FA"/>
<path opacity="0.86" d="M14.3223 20.6574C13.7013 20.6574 13.1546 20.5 12.6823 20.1851C12.5248 20.0889 12.4155 20.0408 12.3542 20.0408C12.1968 20.0408 12.0962 20.1939 12.0525 20.5H11.8032L12.2624 18.3089H12.4986C12.4898 18.3789 12.4854 18.4839 12.4854 18.6238C12.4854 19.1924 12.6473 19.6122 12.9709 19.8834C13.3033 20.1458 13.7537 20.277 14.3223 20.277C14.8996 20.277 15.3806 20.0758 15.7655 19.6734C16.1591 19.2623 16.3559 18.7944 16.3559 18.2696C16.3559 17.736 16.0848 17.338 15.5425 17.0756L14.4928 16.5377C13.6706 16.1353 13.2595 15.5099 13.2595 14.6615C13.2595 13.9968 13.5176 13.402 14.0336 12.8772C14.5497 12.3436 15.197 12.0768 15.9754 12.0768C16.4915 12.0768 16.9594 12.2212 17.3793 12.5098C17.5192 12.606 17.6154 12.6541 17.6679 12.6541C17.7554 12.6541 17.8297 12.5623 17.891 12.3786L17.9566 12.1555H18.1927L17.7073 14.4253H17.4842C17.5017 14.2504 17.5105 14.1236 17.5105 14.0449C17.5105 13.5026 17.3705 13.1046 17.0906 12.8509C16.8195 12.5885 16.4259 12.4573 15.9098 12.4573C15.3938 12.4573 14.952 12.6497 14.5847 13.0346C14.2261 13.4195 14.0468 13.8524 14.0468 14.3335C14.0468 14.9283 14.3135 15.3656 14.8471 15.6455L16.1985 16.3409C16.9245 16.717 17.2874 17.2506 17.2874 17.9416C17.2874 18.6238 16.9901 19.2492 16.3953 19.8177C15.8005 20.3775 15.1095 20.6574 14.3223 20.6574Z" fill="#6082FA"/>
<path opacity="0.86" d="M693.075 20.9715C694.416 19.9522 695.482 18.4971 696.273 16.606C697.065 14.7149 697.46 12.8038 697.46 10.8725C697.46 8.92776 697.011 7.47929 696.112 6.52706L696.354 6.22529C697.226 6.74835 697.876 7.486 698.305 8.43823C698.734 9.37706 698.949 10.4366 698.949 11.6168C698.949 13.5347 698.419 15.4124 697.36 17.2498C696.314 19.0872 694.912 20.4284 693.155 21.2733L693.075 20.9715Z" fill="#6082FA"/>
</svg>
