<svg width="83" height="25" viewBox="0 0 83 25" fill="none" xmlns="http://www.w3.org/2000/svg">
<path opacity="0.86" d="M4.98396 6.38841H10.3859C11.4451 6.38841 12.2007 6.32485 12.6526 6.19775C12.469 6.62143 12.2219 7.53235 11.9112 8.9305L11.6993 9.92615H11.2333L11.4663 7.36287C11.4663 7.10867 11.3039 6.98156 10.9791 6.98156H8.26749C6.55864 15.0456 5.70422 19.1271 5.70422 19.226C5.70422 19.3107 5.78189 19.3531 5.93724 19.3531H7.75907L7.69552 19.7344H2.01819L2.08174 19.3531H3.94594C4.12953 19.3531 4.24252 19.2471 4.28488 19.0353L6.82697 6.98156H4.1366C3.79765 6.98156 3.57875 7.13691 3.47989 7.44761L2.65371 9.92615H2.18766L2.3995 8.9305C2.66783 7.70182 2.802 6.79091 2.802 6.19775C3.21156 6.32485 3.93888 6.38841 4.98396 6.38841ZM14.4041 6.38841H20.7805C21.8538 6.38841 22.6164 6.32485 23.0684 6.19775C22.8565 6.69205 22.6023 7.60296 22.3057 8.9305L22.0939 9.92615H21.6279L21.9032 7.23577C21.9032 6.99568 21.7479 6.87564 21.4372 6.87564H16.9674L15.7175 12.7648H19.9967C20.1379 12.7507 20.2368 12.6518 20.2933 12.4682L20.7169 11.1548H21.0771L20.2509 14.968H19.8908L20.0814 13.6545C20.0814 13.4568 20.0037 13.358 19.8484 13.358H15.6116L14.3617 19.2471H19.0434C19.3823 19.2471 19.6012 19.0918 19.7001 18.7811L20.5898 16.1966H21.0559L20.844 17.1923C20.5757 18.4492 20.4415 19.3601 20.4415 19.925C20.032 19.7979 19.3047 19.7344 18.2596 19.7344H11.5866L11.6502 19.3531H12.6246C12.8082 19.3531 12.9212 19.2471 12.9636 19.0353C14.6583 11.0136 15.5057 6.96744 15.5057 6.89683C15.5057 6.81209 15.428 6.76972 15.2726 6.76972H14.3405L14.4041 6.38841ZM26.3094 6.38841H32.6858C33.7591 6.38841 34.5217 6.32485 34.9737 6.19775C34.7618 6.69205 34.5076 7.60296 34.211 8.9305L33.9992 9.92615H33.5331L33.8085 7.23577C33.8085 6.99568 33.6532 6.87564 33.3425 6.87564H28.8726L27.6228 12.7648H31.902C32.0432 12.7507 32.1421 12.6518 32.1985 12.4682L32.6222 11.1548H32.9824L32.1562 14.968H31.796L31.9867 13.6545C31.9867 13.4568 31.909 13.358 31.7537 13.358H27.5169L26.267 19.2471H30.9487C31.2876 19.2471 31.5065 19.0918 31.6054 18.7811L32.4951 16.1966H32.9612L32.7493 17.1923C32.481 18.4492 32.3468 19.3601 32.3468 19.925C31.9373 19.7979 31.21 19.7344 30.1649 19.7344H23.4919L23.5554 19.3531H24.5299C24.7135 19.3531 24.8265 19.2471 24.8689 19.0353C26.5636 11.0136 27.4109 6.96744 27.4109 6.89683C27.4109 6.81209 27.3333 6.76972 27.1779 6.76972H26.2458L26.3094 6.38841ZM42.8328 19.3531L42.2608 15.2645H37.5791L35.2913 19.3531H36.6047L36.5411 19.7344H33.4906L33.5753 19.3531H34.3168C34.5145 19.3531 34.6628 19.2542 34.7617 19.0565L41.8795 6.38841H42.5574L44.2945 19.0565C44.3227 19.2542 44.4287 19.3531 44.6122 19.3531H45.3537L45.2901 19.7344H41.4558L41.5194 19.3531H42.8328ZM41.3499 8.54918L37.8969 14.6714H42.1761L41.3499 8.54918ZM51.9582 7.0663L49.3949 19.2471H53.5681C53.9212 19.2471 54.1472 19.0918 54.246 18.7811L55.1146 16.1966H55.5806L55.3688 17.1923C55.1005 18.421 54.9663 19.3319 54.9663 19.925C54.5567 19.7979 53.8294 19.7344 52.7843 19.7344H46.6198L46.6833 19.3531H47.6578C47.8414 19.3531 47.9544 19.2471 47.9967 19.0353C49.6915 11.0136 50.5388 6.96744 50.5388 6.89683C50.5388 6.81209 50.4611 6.76972 50.3058 6.76972H49.3737L49.4373 6.38841H53.3351L53.2716 6.76972H52.3183C52.1347 6.76972 52.0146 6.86858 51.9582 7.0663ZM67.6794 14.9468L67.5311 15.667C67.2628 16.924 66.6131 17.962 65.5822 18.7811C64.5653 19.5861 63.372 19.9886 62.0021 19.9886C60.6321 19.9886 59.5376 19.5649 58.7185 18.7175C57.8994 17.8702 57.4898 16.6839 57.4898 15.1586C57.4898 14.1277 57.6593 13.0896 57.9983 12.0446C58.3372 10.9995 58.8103 10.0321 59.4176 9.14234C60.039 8.25261 60.8369 7.53235 61.8114 6.98156C62.7859 6.41665 63.8451 6.1342 64.989 6.1342C65.8646 6.1342 66.6837 6.38841 67.4464 6.89683C67.7006 7.05218 67.8842 7.12985 67.9971 7.12985C68.1666 7.12985 68.3008 6.98156 68.3996 6.68498L68.5267 6.2613H68.9081L68.1243 9.92615H67.7641C67.7782 9.81317 67.7853 9.65076 67.7853 9.43891C67.7853 8.52094 67.5099 7.84305 66.9591 7.40524C66.4225 6.96744 65.6951 6.74854 64.7772 6.74854C63.8592 6.74854 63.0118 7.04511 62.2351 7.63827C61.4583 8.23142 60.8369 8.97286 60.3709 9.8626C59.4247 11.7268 58.9515 13.5769 58.9515 15.4128C58.9515 16.6839 59.234 17.6654 59.7989 18.3574C60.3638 19.0353 61.19 19.3742 62.2774 19.3742C63.379 19.3742 64.2546 19.0141 64.9043 18.2939C65.5539 17.5736 66.0058 16.4367 66.2601 14.8832C66.2601 14.7279 66.1894 14.6502 66.0482 14.6502H64.7136L64.7772 14.2689H68.6539L68.5903 14.6502H68.0607C67.8489 14.6502 67.7218 14.7491 67.6794 14.9468ZM75.0536 6.68498C75.8727 6.31779 76.7413 6.1342 77.6592 6.1342C79.0574 6.1342 80.159 6.55788 80.964 7.40524C81.7831 8.23848 82.1926 9.41773 82.1926 10.943C82.1926 11.9739 82.0232 13.019 81.6842 14.0782C81.3453 15.1233 80.8722 16.0907 80.2649 16.9804C79.6576 17.8702 78.8667 18.5975 77.8923 19.1624C76.9178 19.7132 75.795 19.9886 74.524 19.9886C73.2529 19.9886 72.2079 19.5649 71.3888 18.7175C70.5838 17.8702 70.1813 16.6415 70.1813 15.0315C70.1813 13.4215 70.6191 11.7974 71.4947 10.1592C72.3844 8.52094 73.5707 7.36287 75.0536 6.68498ZM79.8412 7.76537C79.2763 7.04511 78.5278 6.68498 77.5957 6.68498C76.6636 6.68498 75.8021 6.98862 75.0112 7.5959C74.2204 8.18905 73.5919 8.94462 73.1258 9.8626C72.1514 11.755 71.6641 13.591 71.6641 15.3705C71.6641 16.6556 71.9395 17.6583 72.4903 18.3786C73.0552 19.0847 73.8037 19.4378 74.7358 19.4378C75.6821 19.4378 76.5506 19.1412 77.3415 18.5481C78.1323 17.9408 78.7679 17.1852 79.248 16.2814C80.2225 14.403 80.7097 12.5671 80.7097 10.7735C80.7097 9.48834 80.4202 8.48563 79.8412 7.76537Z" fill="#6082FA"/>
</svg>
