<svg width="429" height="23" viewBox="0 0 429 23" fill="none" xmlns="http://www.w3.org/2000/svg">
<path opacity="0.86" d="M30.5872 11.87H22.7011V10.8038H30.5872V11.87ZM30.5872 15.29H22.7011V14.2238H30.5872V15.29Z" fill="#6082FA"/>
<path opacity="0.86" d="M40.8768 4.32588H46.9322C47.9515 4.32588 48.6758 4.26553 49.1049 4.14482C48.9038 4.61423 48.6624 5.47929 48.3807 6.74L48.1795 7.68553H47.7369L47.9985 5.13059C47.9985 4.90259 47.8509 4.78859 47.5559 4.78859H43.3111L42.1241 10.3813H46.1879C46.322 10.3679 46.4159 10.274 46.4695 10.0996L46.8719 8.85235H47.2139L46.4293 12.4735H46.0873L46.2684 11.2262C46.2684 11.0385 46.1946 10.9446 46.0471 10.9446H42.0235L40.8366 16.5373H45.2826C45.6045 16.5373 45.8124 16.3898 45.9062 16.0947L46.7512 13.6404H47.1938L46.9926 14.5859C46.7378 15.7795 46.6104 16.6446 46.6104 17.1811C46.2214 17.0604 45.5307 17 44.5382 17H38.2012L38.2615 16.6379H39.1869C39.3613 16.6379 39.4686 16.5373 39.5088 16.3361C41.1182 8.71824 41.9229 4.87576 41.9229 4.80871C41.9229 4.72823 41.8492 4.688 41.7016 4.688H40.8165L40.8768 4.32588ZM58.3187 9.89847C58.3187 10.4752 57.9901 11.5347 57.3329 13.0771C56.6891 14.6194 56.3673 15.6052 56.3673 16.0344C56.3673 16.4635 56.5349 16.6781 56.8702 16.6781C57.125 16.6781 57.4 16.5105 57.695 16.1752C57.9901 15.8265 58.2449 15.3369 58.4595 14.7066L58.7814 14.7871C58.2047 16.4233 57.4536 17.2414 56.5282 17.2414C55.6967 17.2414 55.2809 16.7854 55.2809 15.8734C55.2809 15.4845 55.5827 14.5188 56.1862 12.9765C56.8031 11.4341 57.1116 10.4416 57.1116 9.99906C57.1116 9.15412 56.8031 8.73165 56.1862 8.73165C55.5156 8.73165 54.7914 9.27482 54.0135 10.3612C53.1149 11.6621 52.3169 13.8751 51.6195 17L50.2113 17.1207L52.1828 8.99318L50.8953 9.09376L50.8751 8.75176C51.8005 8.63106 52.6656 8.46341 53.4703 8.24882L53.752 8.45C53.1082 9.92529 52.5449 11.6219 52.0621 13.5398H52.223L52.5449 12.6546C53.2691 10.6294 54.0537 9.31506 54.8987 8.71153C55.301 8.44329 55.6296 8.26894 55.8844 8.18847C56.1527 8.108 56.4813 8.06776 56.8702 8.06776C57.2725 8.06776 57.6145 8.22871 57.8962 8.55059C58.1778 8.87247 58.3187 9.32176 58.3187 9.89847ZM65.3785 8.55059C64.8287 8.55059 64.319 8.75847 63.8496 9.17423C63.3936 9.59 63.0315 10.1064 62.7633 10.7233C62.2268 12.0242 61.9585 13.1508 61.9585 14.1031C61.9585 15.8734 62.495 16.7586 63.568 16.7586C64.8957 16.7586 65.8681 16.0344 66.485 14.5859L66.8069 14.6664C66.485 15.4845 66.0156 16.1215 65.3987 16.5775C64.7951 17.0201 64.1111 17.2414 63.3467 17.2414C62.5822 17.2414 61.9384 16.9598 61.4154 16.3965C60.8923 15.8332 60.6308 15.0754 60.6308 14.1232C60.6308 13.1709 60.8118 12.2522 61.174 11.3671C61.5361 10.4685 62.0994 9.69729 62.8638 9.05353C63.6283 8.39635 64.5001 8.06776 65.4791 8.06776C66.1497 8.06776 66.6527 8.24212 66.988 8.59082C67.3367 8.92612 67.511 9.33518 67.511 9.818C67.511 10.2874 67.4238 10.7099 67.2495 11.0854C67.0885 11.4609 66.827 11.6487 66.4649 11.6487C66.1162 11.6487 65.8547 11.5414 65.6803 11.3268C66.0693 10.7367 66.2637 10.16 66.2637 9.59671C66.2637 8.89929 65.9687 8.55059 65.3785 8.55059Z" fill="#6082FA"/>
<path opacity="0.86" d="M71.7553 10.7384C72.2739 10.5059 72.8238 10.3896 73.4049 10.3896C74.2901 10.3896 74.9875 10.6579 75.4972 11.1944C76.0158 11.7219 76.2751 12.4685 76.2751 13.4341C76.2751 14.0868 76.1678 14.7485 75.9532 15.4191C75.7386 16.0807 75.4391 16.6932 75.0546 17.2565C74.6701 17.8198 74.1694 18.2802 73.5525 18.6379C72.9355 18.9866 72.2247 19.1609 71.42 19.1609C70.6153 19.1609 69.9536 18.8927 69.4351 18.3562C68.9254 17.8198 68.6706 17.0419 68.6706 16.0226C68.6706 15.0033 68.9478 13.9751 69.5021 12.9379C70.0654 11.9007 70.8165 11.1675 71.7553 10.7384ZM74.7864 11.4224C74.4287 10.9664 73.9548 10.7384 73.3647 10.7384C72.7746 10.7384 72.2292 10.9306 71.7285 11.3151C71.2278 11.6906 70.8299 12.1689 70.5348 12.7501C69.9179 13.9482 69.6094 15.1106 69.6094 16.2372C69.6094 17.0508 69.7838 17.6856 70.1325 18.1416C70.4901 18.5887 70.964 18.8122 71.5541 18.8122C72.1532 18.8122 72.7031 18.6245 73.2038 18.2489C73.7045 17.8645 74.1068 17.3861 74.4108 16.8139C75.0278 15.6247 75.3362 14.4624 75.3362 13.3268C75.3362 12.5132 75.1529 11.8784 74.7864 11.4224ZM79.453 13.1659L79.6408 13.3C79.2116 14.2835 78.8361 15.4146 78.5142 16.6932H78.6215L78.8361 16.1031C79.2563 14.9586 79.6721 14.1628 80.0834 13.7158C80.4947 13.2687 80.8523 13.0452 81.1563 13.0452C81.4603 13.0452 81.6838 13.1435 81.8269 13.3402C81.9789 13.5369 82.0549 13.7918 82.0549 14.1047C82.0549 14.4176 81.9968 14.6904 81.8805 14.9228C81.7643 15.1553 81.5944 15.2715 81.3709 15.2715C81.1563 15.2715 80.9775 15.2 80.8344 15.0569C80.9238 14.9407 81.0088 14.7708 81.0893 14.5473C81.1697 14.3238 81.21 14.1271 81.21 13.9572C81.21 13.6979 81.1027 13.5682 80.8881 13.5682C80.6645 13.5682 80.3874 13.7873 80.0565 14.2254C79.3323 15.1732 78.7198 16.7647 78.2191 19L77.2803 19.0805L78.5947 13.6621L77.7363 13.7292L77.7229 13.5012C78.3398 13.4207 78.9165 13.3089 79.453 13.1659ZM86.5893 18.3428C86.5893 18.6379 86.7011 18.7854 86.9246 18.7854C87.0945 18.7854 87.2778 18.6736 87.4745 18.4501C87.6712 18.2176 87.8411 17.8913 87.9842 17.4711L88.1987 17.5247C87.8143 18.6155 87.3136 19.1609 86.6966 19.1609C86.1423 19.1609 85.8651 18.8122 85.8651 18.1148C85.8651 17.4085 86.4507 14.9318 87.622 10.6847L86.7637 10.7518L86.7503 10.5238C87.3672 10.4433 87.9439 10.3315 88.4804 10.1885L88.6682 10.3226C88.2926 11.4224 87.85 12.9155 87.3404 14.8021C86.8397 16.6798 86.5893 17.86 86.5893 18.3428ZM85.9992 17.5113H85.8651C85.3107 18.6111 84.667 19.1609 83.9338 19.1609C83.5136 19.1609 83.1604 18.9776 82.8743 18.6111C82.5971 18.2355 82.4585 17.7795 82.4585 17.2431C82.4585 16.6976 82.53 16.1925 82.6731 15.7275C82.8162 15.2626 83.0173 14.8289 83.2766 14.4266C83.5359 14.0153 83.8802 13.6845 84.3093 13.4341C84.7385 13.1748 85.1766 13.0452 85.6237 13.0452C86.482 13.0452 87.09 13.4207 87.4477 14.1718L87.2599 14.4132C86.8397 13.7158 86.3166 13.3671 85.6907 13.3671C85.3063 13.3671 84.9531 13.5056 84.6312 13.7828C84.3183 14.06 84.0724 14.4087 83.8936 14.8289C83.527 15.6873 83.3437 16.4965 83.3437 17.2565C83.3437 17.7572 83.4242 18.1327 83.5851 18.3831C83.755 18.6334 83.9785 18.7586 84.2557 18.7586C84.6402 18.7586 85.0336 18.4367 85.4359 17.7929C85.8383 17.1402 86.1959 16.2104 86.5089 15.0033L85.9992 17.5113ZM92.6649 13.0452C93.1387 13.0452 93.4919 13.1614 93.7244 13.3939C93.9658 13.6174 94.0865 13.9438 94.0865 14.3729C94.0865 14.7932 93.9211 15.1598 93.5903 15.4727C93.027 16.0092 92.191 16.2774 91.0823 16.2774C90.7515 16.2774 90.4653 16.2506 90.2239 16.1969V15.9421C90.5369 15.9868 90.7962 16.0092 91.0018 16.0092C91.7439 16.0092 92.3162 15.8214 92.7185 15.4459C93.1298 15.0704 93.3355 14.6591 93.3355 14.212C93.3355 13.9706 93.2684 13.7694 93.1343 13.6085C93.0091 13.4475 92.7945 13.3671 92.4905 13.3671C92.1955 13.3671 91.8915 13.5056 91.5785 13.7828C91.2745 14.06 91.0331 14.4042 90.8543 14.8155C90.4966 15.6828 90.3178 16.4339 90.3178 17.0687C90.3178 18.2489 90.6755 18.8391 91.3907 18.8391C92.2759 18.8391 92.9242 18.3562 93.3355 17.3906L93.55 17.4442C93.3355 17.9896 93.0225 18.4144 92.6112 18.7184C92.2089 19.0134 91.7529 19.1609 91.2432 19.1609C90.7336 19.1609 90.3044 18.9732 89.9557 18.5976C89.607 18.2221 89.4326 17.7169 89.4326 17.0821C89.4326 16.4473 89.5533 15.8348 89.7947 15.2447C90.0362 14.6456 90.4117 14.1315 90.9213 13.7024C91.431 13.2642 92.0122 13.0452 92.6649 13.0452ZM97.2713 13.1659L97.459 13.3C97.0299 14.2835 96.6543 15.4146 96.3325 16.6932H96.4398L96.6543 16.1031C97.0746 14.9586 97.4903 14.1628 97.9016 13.7158C98.3129 13.2687 98.6706 13.0452 98.9746 13.0452C99.2786 13.0452 99.5021 13.1435 99.6452 13.3402C99.7972 13.5369 99.8732 13.7918 99.8732 14.1047C99.8732 14.4176 99.815 14.6904 99.6988 14.9228C99.5826 15.1553 99.4127 15.2715 99.1892 15.2715C98.9746 15.2715 98.7958 15.2 98.6527 15.0569C98.7421 14.9407 98.827 14.7708 98.9075 14.5473C98.988 14.3238 99.0282 14.1271 99.0282 13.9572C99.0282 13.6979 98.9209 13.5682 98.7063 13.5682C98.4828 13.5682 98.2056 13.7873 97.8748 14.2254C97.1506 15.1732 96.5381 16.7647 96.0374 19L95.0986 19.0805L96.4129 13.6621L95.5546 13.7292L95.5412 13.5012C96.1581 13.4207 96.7348 13.3089 97.2713 13.1659ZM100.518 18.9598C100.384 18.8167 100.317 18.6468 100.317 18.4501C100.317 18.2534 100.384 18.088 100.518 17.9539C100.661 17.8108 100.831 17.7393 101.028 17.7393C101.225 17.7393 101.39 17.8108 101.524 17.9539C101.667 18.088 101.739 18.2534 101.739 18.4501C101.739 18.6468 101.667 18.8167 101.524 18.9598C101.39 19.0939 101.225 19.1609 101.028 19.1609C100.831 19.1609 100.661 19.0939 100.518 18.9598ZM105.365 13.1659L105.553 13.3C105.124 14.2835 104.748 15.4146 104.426 16.6932H104.533L104.748 16.1031C105.168 14.9586 105.584 14.1628 105.995 13.7158C106.407 13.2687 106.764 13.0452 107.068 13.0452C107.372 13.0452 107.596 13.1435 107.739 13.3402C107.891 13.5369 107.967 13.7918 107.967 14.1047C107.967 14.4176 107.909 14.6904 107.792 14.9228C107.676 15.1553 107.506 15.2715 107.283 15.2715C107.068 15.2715 106.889 15.2 106.746 15.0569C106.836 14.9407 106.921 14.7708 107.001 14.5473C107.082 14.3238 107.122 14.1271 107.122 13.9572C107.122 13.6979 107.015 13.5682 106.8 13.5682C106.576 13.5682 106.299 13.7873 105.968 14.2254C105.244 15.1732 104.632 16.7647 104.131 19L103.192 19.0805L104.507 13.6621L103.648 13.7292L103.635 13.5012C104.252 13.4207 104.828 13.3089 105.365 13.1659ZM111.603 13.0452C112.077 13.0452 112.43 13.1614 112.662 13.3939C112.904 13.6174 113.024 13.9438 113.024 14.3729C113.024 14.7932 112.859 15.1598 112.528 15.4727C111.965 16.0092 111.129 16.2774 110.02 16.2774C109.689 16.2774 109.403 16.2506 109.162 16.1969V15.9421C109.475 15.9868 109.734 16.0092 109.94 16.0092C110.682 16.0092 111.254 15.8214 111.656 15.4459C112.068 15.0704 112.273 14.6591 112.273 14.212C112.273 13.9706 112.206 13.7694 112.072 13.6085C111.947 13.4475 111.732 13.3671 111.428 13.3671C111.133 13.3671 110.829 13.5056 110.516 13.7828C110.212 14.06 109.971 14.4042 109.792 14.8155C109.434 15.6828 109.256 16.4339 109.256 17.0687C109.256 18.2489 109.613 18.8391 110.329 18.8391C111.214 18.8391 111.862 18.3562 112.273 17.3906L112.488 17.4442C112.273 17.9896 111.96 18.4144 111.549 18.7184C111.147 19.0134 110.691 19.1609 110.181 19.1609C109.671 19.1609 109.242 18.9732 108.894 18.5976C108.545 18.2221 108.37 17.7169 108.37 17.0821C108.37 16.4473 108.491 15.8348 108.733 15.2447C108.974 14.6456 109.35 14.1315 109.859 13.7024C110.369 13.2642 110.95 13.0452 111.603 13.0452ZM116.531 13.3671C116.191 13.3671 115.901 13.4654 115.659 13.6621C115.418 13.8588 115.297 14.1092 115.297 14.4132C115.297 14.7172 115.422 14.9944 115.673 15.2447C115.923 15.4951 116.196 15.7052 116.491 15.8751C116.786 16.036 117.059 16.2506 117.309 16.5188C117.559 16.7871 117.684 17.0732 117.684 17.3772C117.684 17.9494 117.461 18.392 117.014 18.7049C116.576 19.0089 116.044 19.1609 115.418 19.1609C114.792 19.1609 114.242 19.0134 113.768 18.7184C113.92 18.4144 114.063 17.8868 114.197 17.1358L114.425 17.176C114.363 17.5426 114.331 17.8332 114.331 18.0478C114.331 18.2534 114.43 18.4456 114.627 18.6245C114.832 18.7944 115.123 18.8793 115.498 18.8793C115.883 18.8793 116.205 18.7631 116.464 18.5306C116.732 18.2981 116.866 17.9941 116.866 17.6186C116.866 17.3772 116.746 17.1447 116.504 16.9212C116.272 16.6887 116.012 16.4965 115.726 16.3445C115.449 16.1925 115.19 15.9779 114.948 15.7007C114.716 15.4235 114.6 15.1195 114.6 14.7887C114.6 14.2969 114.792 13.8856 115.176 13.5548C115.57 13.2151 116.084 13.0452 116.719 13.0452C117.211 13.0452 117.698 13.1659 118.181 13.4073C118.136 13.5056 118.06 13.7292 117.953 14.0779C117.854 14.4266 117.778 14.7574 117.725 15.0704L117.497 15.0301C117.55 14.744 117.577 14.4713 117.577 14.212C117.577 13.9438 117.488 13.7381 117.309 13.5951C117.139 13.4431 116.88 13.3671 116.531 13.3671ZM122.954 18.1551C122.954 18.0209 122.976 17.8064 123.021 17.5113H122.954C122.382 18.6111 121.72 19.1609 120.969 19.1609C120.164 19.1609 119.762 18.7139 119.762 17.8198C119.762 17.2386 119.968 16.1612 120.379 14.5875L120.62 13.6621L119.762 13.7292L119.749 13.5012C120.365 13.4207 120.942 13.3089 121.479 13.1659L121.666 13.3C120.915 15.6336 120.54 17.1268 120.54 17.7795C120.54 18.4322 120.786 18.7586 121.277 18.7586C121.689 18.7586 122.091 18.4591 122.485 17.86C122.887 17.252 123.218 16.4384 123.477 15.4191L123.933 13.6621L123.075 13.7292L123.061 13.5012C123.678 13.4207 124.255 13.3089 124.791 13.1659L124.979 13.3C124.666 14.2299 124.371 15.2268 124.094 16.2908C123.817 17.3548 123.678 18.0388 123.678 18.3428C123.678 18.6379 123.79 18.7854 124.013 18.7854C124.183 18.7854 124.367 18.6736 124.563 18.4501C124.76 18.2176 124.93 17.8913 125.073 17.4711L125.288 17.5247C124.903 18.6155 124.402 19.1609 123.785 19.1609C123.231 19.1609 122.954 18.8256 122.954 18.1551ZM127.509 18.3428C127.509 18.6379 127.62 18.7854 127.844 18.7854C128.014 18.7854 128.197 18.6736 128.394 18.4501C128.591 18.2176 128.76 17.8913 128.903 17.4711L129.118 17.5247C128.734 18.6155 128.233 19.1609 127.616 19.1609C127.062 19.1609 126.784 18.8122 126.784 18.1148C126.784 17.4085 127.37 14.9318 128.541 10.6847L127.683 10.7518L127.67 10.5238C128.287 10.4433 128.863 10.3315 129.4 10.1885L129.587 10.3226C129.212 11.4224 128.769 12.9155 128.26 14.8021C127.759 16.6798 127.509 17.86 127.509 18.3428ZM130.709 13.6889L130.776 13.4341H133.753L133.686 13.6889H130.709ZM132.841 11.7845L133.029 11.9186C132.824 12.5445 132.546 13.528 132.198 14.8692C131.858 16.2104 131.652 17.0776 131.581 17.4711C131.509 17.8555 131.473 18.1461 131.473 18.3428C131.473 18.6379 131.585 18.7854 131.809 18.7854C131.979 18.7854 132.162 18.6736 132.359 18.4501C132.555 18.2176 132.725 17.8913 132.868 17.4711L133.083 17.5247C132.698 18.6155 132.198 19.1609 131.581 19.1609C131.026 19.1609 130.749 18.8256 130.749 18.1551C130.749 17.6007 131.08 16.0539 131.742 13.5146L130.776 13.4341C131.268 13.4341 131.666 13.3179 131.97 13.0854C132.274 12.844 132.564 12.4104 132.841 11.7845ZM137.621 15.6336H136.307C135.895 17.5292 135.69 18.5261 135.69 18.6245C135.69 18.7139 135.739 18.7586 135.837 18.7586H136.816L136.776 19H133.919L133.96 18.7586H134.577C134.693 18.7586 134.764 18.6915 134.791 18.5574C135.864 13.4788 136.401 10.9172 136.401 10.8725C136.401 10.8188 136.351 10.792 136.253 10.792H135.663L135.703 10.5506H138.694C139.302 10.5506 139.803 10.7205 140.196 11.0602C140.589 11.4 140.786 11.8694 140.786 12.4685C140.786 13.4162 140.46 14.1807 139.807 14.7619C139.154 15.3431 138.426 15.6336 137.621 15.6336ZM138.546 10.8591H137.326L136.374 15.3252H137.634C138.278 15.3252 138.815 15.0122 139.244 14.3864C139.682 13.7605 139.901 13.1033 139.901 12.4148C139.901 11.9678 139.785 11.5967 139.552 11.3016C139.329 11.0066 138.993 10.8591 138.546 10.8591ZM144.826 18.1551C144.826 18.0209 144.848 17.8064 144.893 17.5113H144.826C144.253 18.6111 143.592 19.1609 142.841 19.1609C142.036 19.1609 141.634 18.7139 141.634 17.8198C141.634 17.2386 141.839 16.1612 142.251 14.5875L142.492 13.6621L141.634 13.7292L141.62 13.5012C142.237 13.4207 142.814 13.3089 143.35 13.1659L143.538 13.3C142.787 15.6336 142.412 17.1268 142.412 17.7795C142.412 18.4322 142.657 18.7586 143.149 18.7586C143.56 18.7586 143.963 18.4591 144.356 17.86C144.759 17.252 145.089 16.4384 145.349 15.4191L145.805 13.6621L144.946 13.7292L144.933 13.5012C145.55 13.4207 146.127 13.3089 146.663 13.1659L146.851 13.3C146.538 14.2299 146.243 15.2268 145.966 16.2908C145.688 17.3548 145.55 18.0388 145.55 18.3428C145.55 18.6379 145.662 18.7854 145.885 18.7854C146.055 18.7854 146.238 18.6736 146.435 18.4501C146.632 18.2176 146.802 17.8913 146.945 17.4711L147.159 17.5247C146.775 18.6155 146.274 19.1609 145.657 19.1609C145.103 19.1609 144.826 18.8256 144.826 18.1551ZM149.581 16.6932H149.689L149.903 16.1031C150.654 14.0645 151.477 13.0452 152.371 13.0452C152.791 13.0452 153.14 13.2329 153.417 13.6085C153.703 13.9751 153.846 14.4311 153.846 14.9765C153.846 15.5129 153.775 16.0136 153.632 16.4786C153.489 16.9435 153.288 17.3816 153.028 17.7929C152.769 18.1953 152.425 18.5261 151.996 18.7854C151.566 19.0358 151.128 19.1609 150.681 19.1609C150.234 19.1609 149.85 19.076 149.528 18.9061C149.206 18.7273 148.956 18.4948 148.777 18.2087L148.897 17.8466C149.327 18.5261 149.877 18.8659 150.547 18.8659C151.057 18.8659 151.499 18.6334 151.875 18.1685C152.25 17.6946 152.514 17.176 152.666 16.6127C152.827 16.0405 152.908 15.5174 152.908 15.0435C152.908 14.5607 152.827 14.1941 152.666 13.9438C152.514 13.6845 152.335 13.5548 152.13 13.5548C151.924 13.5548 151.718 13.6442 151.513 13.8231C151.307 13.9929 151.084 14.2612 150.842 14.6278C150.324 15.4325 149.836 16.7513 149.38 18.5842L148.978 18.1551L148.576 19.1609L148.348 19.0805L150.453 10.6847L149.595 10.7518L149.581 10.5238C150.198 10.4433 150.775 10.3315 151.312 10.1885L151.499 10.3226C150.775 12.4327 150.136 14.5562 149.581 16.6932ZM155.909 18.3428C155.909 18.6379 156.021 18.7854 156.244 18.7854C156.414 18.7854 156.598 18.6736 156.794 18.4501C156.991 18.2176 157.161 17.8913 157.304 17.4711L157.518 17.5247C157.134 18.6155 156.633 19.1609 156.016 19.1609C155.462 19.1609 155.185 18.8122 155.185 18.1148C155.185 17.4085 155.77 14.9318 156.942 10.6847L156.083 10.7518L156.07 10.5238C156.687 10.4433 157.264 10.3315 157.8 10.1885L157.988 10.3226C157.612 11.4224 157.17 12.9155 156.66 14.8021C156.159 16.6798 155.909 17.86 155.909 18.3428ZM160.665 11.704C160.549 11.5878 160.491 11.4447 160.491 11.2748C160.491 11.1049 160.549 10.9619 160.665 10.8456C160.781 10.7294 160.925 10.6713 161.094 10.6713C161.264 10.6713 161.407 10.7294 161.524 10.8456C161.64 10.9619 161.698 11.1049 161.698 11.2748C161.698 11.4447 161.64 11.5878 161.524 11.704C161.407 11.8202 161.264 11.8784 161.094 11.8784C160.925 11.8784 160.781 11.8202 160.665 11.704ZM159.15 18.1551C159.15 17.6812 159.476 16.1835 160.129 13.6621L159.27 13.7292L159.257 13.5012C159.874 13.4207 160.451 13.3089 160.987 13.1659L161.175 13.3C160.862 14.2299 160.567 15.2268 160.29 16.2908C160.013 17.3548 159.874 18.0388 159.874 18.3428C159.874 18.6379 159.986 18.7854 160.209 18.7854C160.379 18.7854 160.562 18.6736 160.759 18.4501C160.956 18.2176 161.126 17.8913 161.269 17.4711L161.483 17.5247C161.099 18.6155 160.598 19.1609 159.981 19.1609C159.427 19.1609 159.15 18.8256 159.15 18.1551ZM165.887 13.3671C165.521 13.3671 165.181 13.5056 164.868 13.7828C164.564 14.06 164.323 14.4042 164.144 14.8155C163.786 15.6828 163.607 16.4339 163.607 17.0687C163.607 18.2489 163.965 18.8391 164.68 18.8391C165.565 18.8391 166.214 18.3562 166.625 17.3906L166.84 17.4442C166.625 17.9896 166.312 18.4144 165.901 18.7184C165.498 19.0134 165.042 19.1609 164.533 19.1609C164.023 19.1609 163.594 18.9732 163.245 18.5976C162.897 18.2221 162.722 17.7169 162.722 17.0821C162.722 16.4473 162.843 15.8348 163.084 15.2447C163.326 14.6456 163.701 14.1315 164.211 13.7024C164.721 13.2642 165.302 13.0452 165.954 13.0452C166.401 13.0452 166.737 13.1614 166.96 13.3939C167.193 13.6174 167.309 13.8901 167.309 14.212C167.309 14.5249 167.251 14.8066 167.135 15.0569C167.027 15.3073 166.853 15.4325 166.612 15.4325C166.379 15.4325 166.205 15.3609 166.089 15.2179C166.348 14.8245 166.477 14.44 166.477 14.0645C166.477 13.5995 166.281 13.3671 165.887 13.3671ZM171.298 10.9798L169.689 18.6245C169.689 18.7139 169.738 18.7586 169.837 18.7586H170.427L170.386 19H167.919L167.959 18.7586H168.576C168.692 18.7586 168.764 18.6915 168.79 18.5574C169.863 13.4788 170.4 10.9172 170.4 10.8725C170.4 10.8188 170.351 10.792 170.252 10.792H169.662L169.702 10.5506H172.17L172.13 10.792H171.526C171.41 10.792 171.334 10.8546 171.298 10.9798ZM173.216 16.6529L173.243 17.8868C173.261 18.4412 173.409 18.7184 173.686 18.7184C173.865 18.7184 174.012 18.6245 174.128 18.4367C174.254 18.2489 174.316 18.0075 174.316 17.7125L174.571 17.6722C174.571 18.1282 174.45 18.4904 174.209 18.7586C173.976 19.0268 173.681 19.1609 173.324 19.1609C172.689 19.1609 172.354 18.6826 172.318 17.7259L172.264 16.4115C172.237 15.8304 172.117 15.428 171.902 15.2045C171.687 14.972 171.334 14.8558 170.842 14.8558L170.91 14.6412L174.732 10.792H174.102L174.142 10.5506H175.872L175.832 10.792H175.483C175.34 10.792 175.21 10.8546 175.094 10.9798L171.459 14.6144C172.103 14.6233 172.55 14.8111 172.801 15.1776C173.06 15.5442 173.198 16.036 173.216 16.6529ZM179.444 13.0452C179.918 13.0452 180.271 13.1614 180.504 13.3939C180.745 13.6174 180.866 13.9438 180.866 14.3729C180.866 14.7932 180.7 15.1598 180.37 15.4727C179.806 16.0092 178.97 16.2774 177.862 16.2774C177.531 16.2774 177.245 16.2506 177.003 16.1969V15.9421C177.316 15.9868 177.576 16.0092 177.781 16.0092C178.523 16.0092 179.096 15.8214 179.498 15.4459C179.909 15.0704 180.115 14.6591 180.115 14.212C180.115 13.9706 180.048 13.7694 179.914 13.6085C179.788 13.4475 179.574 13.3671 179.27 13.3671C178.975 13.3671 178.671 13.5056 178.358 13.7828C178.054 14.06 177.812 14.4042 177.634 14.8155C177.276 15.6828 177.097 16.4339 177.097 17.0687C177.097 18.2489 177.455 18.8391 178.17 18.8391C179.055 18.8391 179.704 18.3562 180.115 17.3906L180.329 17.4442C180.115 17.9896 179.802 18.4144 179.391 18.7184C178.988 19.0134 178.532 19.1609 178.023 19.1609C177.513 19.1609 177.084 18.9732 176.735 18.5976C176.386 18.2221 176.212 17.7169 176.212 17.0821C176.212 16.4473 176.333 15.8348 176.574 15.2447C176.816 14.6456 177.191 14.1315 177.701 13.7024C178.21 13.2642 178.792 13.0452 179.444 13.0452ZM183.957 18.7184C184.529 18.7184 185.097 18.3026 185.66 17.4711C186.232 16.6306 186.518 15.8482 186.518 15.124C186.518 14.3908 186.286 13.7918 185.821 13.3268C186.045 13.1391 186.25 13.0452 186.438 13.0452C186.787 13.0452 186.961 13.5369 186.961 14.5205C186.961 15.504 186.854 16.4071 186.639 17.2296C186.425 18.0433 186.143 18.7362 185.794 19.3085C185.454 19.8807 185.065 20.3769 184.627 20.7972C183.778 21.6376 182.915 22.0579 182.039 22.0579C181.592 22.0579 181.257 21.9551 181.033 21.7494C180.801 21.5438 180.684 21.3024 180.684 21.0252C180.684 20.748 180.742 20.4976 180.859 20.2741C180.966 20.0506 181.131 19.9388 181.355 19.9388C181.578 19.9388 181.762 20.0014 181.905 20.1266C181.645 20.4574 181.516 20.7614 181.516 21.0386C181.516 21.4856 181.753 21.7092 182.227 21.7092C182.54 21.7092 182.902 21.5929 183.313 21.3605C183.724 21.1369 184.14 20.8151 184.56 20.3948C184.981 19.9835 185.365 19.4292 185.714 18.7318C186.071 18.0344 186.322 17.2788 186.465 16.4652C186.17 17.2431 185.772 17.8868 185.271 18.3965C184.779 18.9061 184.212 19.1609 183.568 19.1609C183.237 19.1609 182.969 19.0492 182.763 18.8256C182.566 18.5932 182.468 18.2802 182.468 17.8868C182.468 17.4934 182.616 16.8049 182.911 15.8214C183.215 14.8379 183.367 14.1941 183.367 13.8901C183.367 13.5772 183.25 13.4207 183.018 13.4207C182.848 13.4207 182.669 13.5369 182.481 13.7694C182.294 13.9929 182.142 14.3148 182.025 14.7351L181.797 14.6814C182.128 13.5906 182.607 13.0452 183.233 13.0452C183.814 13.0452 184.104 13.3581 184.104 13.984C184.104 14.2344 183.966 14.8558 183.689 15.8482C183.411 16.8407 183.273 17.4934 183.273 17.8064C183.273 18.4144 183.501 18.7184 183.957 18.7184ZM192.71 18.7586L192.348 16.1701H189.384L187.936 18.7586H188.767L188.727 19H186.796L186.849 18.7586H187.319C187.444 18.7586 187.538 18.696 187.6 18.5708L192.107 10.5506H192.536L193.636 18.5708C193.654 18.696 193.721 18.7586 193.837 18.7586H194.306L194.266 19H191.839L191.879 18.7586H192.71ZM191.772 11.9186L189.585 15.7946H192.295L191.772 11.9186ZM196.503 18.3428C196.503 18.6379 196.614 18.7854 196.838 18.7854C197.008 18.7854 197.191 18.6736 197.388 18.4501C197.585 18.2176 197.754 17.8913 197.898 17.4711L198.112 17.5247C197.728 18.6155 197.227 19.1609 196.61 19.1609C196.056 19.1609 195.778 18.8122 195.778 18.1148C195.778 17.4085 196.364 14.9318 197.535 10.6847L196.677 10.7518L196.664 10.5238C197.281 10.4433 197.857 10.3315 198.394 10.1885L198.582 10.3226C198.206 11.4224 197.763 12.9155 197.254 14.8021C196.753 16.6798 196.503 17.86 196.503 18.3428ZM200.293 18.2221L202.426 18.7049C202.891 18.8122 203.221 18.9553 203.418 19.1341C203.615 19.3219 203.713 19.5767 203.713 19.8986C203.713 20.4172 203.427 20.9045 202.855 21.3605C202.292 21.8254 201.648 22.0579 200.924 22.0579C200.199 22.0579 199.609 21.8925 199.153 21.5616C198.706 21.2308 198.483 20.8374 198.483 20.3814C198.483 20.0685 198.59 19.7689 198.805 19.4828C199.01 19.1967 199.319 18.9553 199.73 18.7586L199.998 18.8391C199.73 18.9732 199.524 19.1744 199.381 19.4426C199.238 19.7198 199.167 20.0104 199.167 20.3144C199.167 20.8151 199.332 21.1861 199.663 21.4275C199.994 21.6779 200.418 21.8031 200.937 21.8031C201.465 21.8031 201.947 21.6511 202.385 21.3471C202.833 21.052 203.056 20.6944 203.056 20.2741C203.056 19.8539 202.783 19.5812 202.238 19.456L199.931 18.9464C199.672 18.8927 199.471 18.772 199.328 18.5842C199.185 18.3965 199.113 18.1685 199.113 17.9002C199.113 17.632 199.225 17.3861 199.448 17.1626C199.672 16.9391 199.98 16.8273 200.374 16.8273H201.728L201.688 17.0151H200.374C200.186 17.0151 200.034 17.0732 199.918 17.1894C199.81 17.3056 199.757 17.4442 199.757 17.6052C199.757 17.936 199.936 18.1416 200.293 18.2221ZM202.546 13.2329L202.533 13.0452C202.783 13.0452 202.993 12.9871 203.163 12.8708C203.333 12.7456 203.418 12.5847 203.418 12.388C203.418 12.1913 203.275 12.0035 202.989 11.8247C203.132 11.5207 203.302 11.3687 203.499 11.3687C203.704 11.3687 203.856 11.4268 203.955 11.5431C204.062 11.6593 204.116 11.8068 204.116 11.9856C204.116 12.2986 203.973 12.5847 203.686 12.844C203.409 13.1033 203.029 13.2329 202.546 13.2329ZM200.092 15.5532C200.092 14.8915 200.325 14.3104 200.789 13.8096C201.263 13.3 201.845 13.0452 202.533 13.0452C203.016 13.0452 203.396 13.1748 203.673 13.4341C203.959 13.6845 204.102 14.0421 204.102 14.5071C204.102 15.2581 203.861 15.8661 203.378 16.3311C202.895 16.7871 202.332 17.0151 201.688 17.0151C201.196 17.0151 200.807 16.8899 200.521 16.6395C200.235 16.3802 200.092 16.0181 200.092 15.5532ZM202.52 13.3C202.028 13.3 201.625 13.5727 201.313 14.1181C201 14.6546 200.843 15.1329 200.843 15.5532C200.843 15.9734 200.919 16.2819 201.071 16.4786C201.232 16.6664 201.442 16.7602 201.701 16.7602C202.095 16.7602 202.47 16.5367 202.828 16.0896C203.186 15.6426 203.365 15.0793 203.365 14.3998C203.365 14.06 203.284 13.7918 203.123 13.5951C202.971 13.3984 202.77 13.3 202.52 13.3ZM205.32 17.0553C205.32 16.1344 205.588 15.2536 206.124 14.4132C206.384 14.0108 206.723 13.6845 207.144 13.4341C207.564 13.1748 208.042 13.0452 208.579 13.0452C209.124 13.0452 209.567 13.2285 209.907 13.5951C210.246 13.9616 210.416 14.4624 210.416 15.0972C210.416 15.732 210.3 16.3489 210.067 16.948C209.835 17.5471 209.468 18.0656 208.968 18.5038C208.467 18.9419 207.904 19.1609 207.278 19.1609C206.652 19.1609 206.169 18.9776 205.829 18.6111C205.49 18.2445 205.32 17.7259 205.32 17.0553ZM208.471 13.3402C207.989 13.3402 207.559 13.5816 207.184 14.0645C206.817 14.5473 206.554 15.0748 206.393 15.6471C206.241 16.2193 206.165 16.7558 206.165 17.2565C206.165 17.7482 206.263 18.1416 206.46 18.4367C206.665 18.7228 206.943 18.8659 207.291 18.8659C207.649 18.8659 207.98 18.7228 208.284 18.4367C208.597 18.1506 208.843 17.7974 209.021 17.3772C209.388 16.5188 209.571 15.7767 209.571 15.1508C209.571 14.516 209.473 14.0555 209.276 13.7694C209.079 13.4833 208.811 13.3402 208.471 13.3402Z" fill="#6082FA"/>
<path opacity="0.86" d="M7.62459 4.78859H5.31106L2.83659 16.5373H5.17024C6.02859 16.5373 6.81988 16.2691 7.54412 15.7326C8.26835 15.1961 8.85177 14.5188 9.29435 13.7007C10.2064 11.9974 10.6624 10.3008 10.6624 8.61094C10.6624 7.40388 10.3807 6.46506 9.81741 5.79447C9.26753 5.12388 8.53659 4.78859 7.62459 4.78859ZM2.87682 4.32588H7.74529C9.08647 4.32588 10.146 4.72153 10.9239 5.51282C11.7018 6.29071 12.0907 7.38376 12.0907 8.792C12.0907 9.74423 11.9231 10.7032 11.5878 11.6688C11.2659 12.6211 10.8166 13.4995 10.2399 14.3042C9.66318 15.0955 8.91882 15.746 8.00682 16.2556C7.10824 16.7519 6.12918 17 5.06965 17H0.201176L0.261529 16.6379H1.18694C1.36129 16.6379 1.46859 16.5373 1.50882 16.3361C3.11824 8.71824 3.92294 4.87576 3.92294 4.80871C3.92294 4.72823 3.84918 4.688 3.70165 4.688H2.81647L2.87682 4.32588Z" fill="#6082FA"/>
<path opacity="0.86" d="M13.7511 11.2853H17.437C18.0575 11.2853 18.4983 11.2486 18.7595 11.1751C18.6371 11.4608 18.4901 11.9874 18.3187 12.7548L18.1962 13.3303H17.9268L18.086 11.7751C18.086 11.6364 17.9962 11.567 17.8166 11.567H15.2328L14.5103 14.9712H16.9839C17.0656 14.9631 17.1227 14.9059 17.1554 14.7998L17.4003 14.0406H17.6085L17.1309 16.2448H16.9227L17.0329 15.4855C17.0329 15.3712 16.988 15.3141 16.8982 15.3141H14.4491L13.7266 18.7184H16.4329C16.6288 18.7184 16.7553 18.6286 16.8125 18.449L17.3268 16.955H17.5962L17.4737 17.5305C17.3186 18.2571 17.2411 18.7837 17.2411 19.1102C17.0043 19.0367 16.5839 19 15.9798 19H12.1225L12.1592 18.7796H12.7225C12.8286 18.7796 12.8939 18.7184 12.9184 18.5959C13.8981 13.9589 14.3879 11.62 14.3879 11.5792C14.3879 11.5302 14.343 11.5057 14.2532 11.5057H13.7144L13.7511 11.2853Z" fill="#6082FA"/>
<path opacity="0.86" d="M219.739 4.52706C218.345 5.55976 217.258 7.00823 216.48 8.87247C215.702 10.7233 215.314 12.6412 215.314 14.6261C215.314 16.5976 215.77 18.0461 216.682 18.9715L216.4 19.2733C215.555 18.7502 214.911 18.0126 214.469 17.0604C214.039 16.1081 213.825 15.0486 213.825 13.8818C213.825 11.9639 214.348 10.0929 215.394 8.26894C216.454 6.43153 217.855 5.08365 219.599 4.22529L219.739 4.52706ZM226.528 4.78859H224.214L221.74 16.5373H224.074C224.932 16.5373 225.723 16.2691 226.447 15.7326C227.172 15.1961 227.755 14.5188 228.198 13.7007C229.11 11.9974 229.566 10.3008 229.566 8.61094C229.566 7.40388 229.284 6.46506 228.721 5.79447C228.171 5.12388 227.44 4.78859 226.528 4.78859ZM221.78 4.32588H226.649C227.99 4.32588 229.049 4.72153 229.827 5.51282C230.605 6.29071 230.994 7.38376 230.994 8.792C230.994 9.74423 230.826 10.7032 230.491 11.6688C230.169 12.6211 229.72 13.4995 229.143 14.3042C228.566 15.0955 227.822 15.746 226.91 16.2556C226.012 16.7519 225.032 17 223.973 17H219.104L219.165 16.6379H220.09C220.265 16.6379 220.372 16.5373 220.412 16.3361C222.022 8.71824 222.826 4.87576 222.826 4.80871C222.826 4.72823 222.752 4.688 222.605 4.688H221.72L221.78 4.32588Z" fill="#6082FA"/>
<path opacity="0.86" d="M239.101 19.2331C239.972 18.5625 240.408 17.8584 240.408 17.1207C240.408 16.7184 240.267 16.3898 239.986 16.1349C240.053 15.8265 240.207 15.5582 240.448 15.3302C240.703 15.1022 240.972 14.9882 241.253 14.9882C241.803 14.9882 242.078 15.2632 242.078 15.8131C242.078 16.3629 241.803 17.0134 241.253 17.7645C240.717 18.5289 240.053 19.1124 239.262 19.5147L239.101 19.2331ZM248.689 4.60753C249.467 4.25882 250.292 4.08447 251.164 4.08447C252.492 4.08447 253.538 4.48682 254.302 5.29153C255.08 6.08282 255.469 7.20271 255.469 8.65118C255.469 9.63024 255.308 10.6227 254.986 11.6286C254.664 12.6211 254.215 13.5398 253.638 14.3847C253.062 15.2296 252.311 15.9204 251.385 16.4568C250.46 16.9799 249.394 17.2414 248.187 17.2414C246.979 17.2414 245.987 16.8391 245.209 16.0344C244.445 15.2296 244.062 14.0628 244.062 12.5339C244.062 11.0049 244.478 9.46259 245.31 7.90682C246.155 6.35106 247.281 5.25129 248.689 4.60753ZM253.236 5.63353C252.7 4.94953 251.989 4.60753 251.104 4.60753C250.218 4.60753 249.4 4.89588 248.649 5.47259C247.898 6.03588 247.301 6.75341 246.859 7.62518C245.933 9.42235 245.471 11.1659 245.471 12.8558C245.471 14.0762 245.732 15.0285 246.255 15.7125C246.792 16.3831 247.503 16.7184 248.388 16.7184C249.286 16.7184 250.111 16.4367 250.862 15.8734C251.613 15.2967 252.217 14.5792 252.673 13.7208C253.598 11.9371 254.061 10.1935 254.061 8.49024C254.061 7.26976 253.786 6.31753 253.236 5.63353ZM260.236 8.24882L260.518 8.45C259.874 9.92529 259.311 11.6219 258.828 13.5398H258.989L259.311 12.6546C259.941 10.9379 260.565 9.74423 261.182 9.07365C261.799 8.40306 262.335 8.06776 262.791 8.06776C263.247 8.06776 263.582 8.21529 263.797 8.51035C264.025 8.80541 264.139 9.18765 264.139 9.65706C264.139 10.1265 264.052 10.5355 263.877 10.8842C263.703 11.2329 263.448 11.4073 263.113 11.4073C262.791 11.4073 262.523 11.3 262.308 11.0854C262.442 10.9111 262.57 10.6562 262.69 10.3209C262.811 9.98565 262.871 9.69059 262.871 9.43576C262.871 9.04682 262.711 8.85235 262.389 8.85235C262.053 8.85235 261.638 9.18094 261.141 9.83812C260.055 11.2598 259.136 13.6471 258.385 17L256.977 17.1207L258.949 8.99318L257.661 9.09376L257.641 8.75176C258.566 8.63106 259.431 8.46341 260.236 8.24882ZM270.941 16.0142C270.941 16.4568 271.108 16.6781 271.443 16.6781C271.698 16.6781 271.973 16.5105 272.268 16.1752C272.563 15.8265 272.818 15.3369 273.033 14.7066L273.355 14.7871C272.778 16.4233 272.027 17.2414 271.101 17.2414C270.27 17.2414 269.854 16.7184 269.854 15.6722C269.854 14.6127 270.733 10.8976 272.49 4.52706L271.202 4.62765L271.182 4.28565C272.107 4.16494 272.972 3.99729 273.777 3.78271L274.059 3.98388C273.495 5.63353 272.832 7.87329 272.067 10.7032C271.316 13.5196 270.941 15.29 270.941 16.0142ZM270.055 14.7669H269.854C269.023 16.4166 268.057 17.2414 266.957 17.2414C266.327 17.2414 265.797 16.9665 265.368 16.4166C264.952 15.8533 264.744 15.1693 264.744 14.3646C264.744 13.5465 264.852 12.7887 265.066 12.0913C265.281 11.3939 265.583 10.7434 265.971 10.1399C266.36 9.52294 266.877 9.02671 267.521 8.65118C268.164 8.26223 268.821 8.06776 269.492 8.06776C270.78 8.06776 271.692 8.63106 272.228 9.75765L271.946 10.1198C271.316 9.07365 270.531 8.55059 269.593 8.55059C269.016 8.55059 268.486 8.75847 268.003 9.17423C267.534 9.59 267.165 10.1131 266.897 10.7434C266.347 12.0309 266.072 13.2447 266.072 14.3847C266.072 15.1358 266.193 15.6991 266.434 16.0746C266.689 16.4501 267.024 16.6379 267.44 16.6379C268.017 16.6379 268.607 16.1551 269.21 15.1894C269.814 14.2104 270.35 12.8155 270.82 11.0049L270.055 14.7669ZM280.054 8.06776C280.765 8.06776 281.294 8.24212 281.643 8.59082C282.005 8.92612 282.186 9.41565 282.186 10.0594C282.186 10.6898 281.938 11.2396 281.442 11.7091C280.597 12.5138 279.343 12.9161 277.68 12.9161C277.184 12.9161 276.755 12.8759 276.392 12.7954V12.4132C276.862 12.4802 277.251 12.5138 277.559 12.5138C278.672 12.5138 279.531 12.2321 280.134 11.6688C280.751 11.1055 281.06 10.4886 281.06 9.818C281.06 9.45588 280.959 9.15412 280.758 8.91271C280.57 8.67129 280.248 8.55059 279.792 8.55059C279.35 8.55059 278.894 8.75847 278.424 9.17423C277.968 9.59 277.606 10.1064 277.338 10.7233C276.801 12.0242 276.533 13.1508 276.533 14.1031C276.533 15.8734 277.07 16.7586 278.143 16.7586C279.47 16.7586 280.443 16.0344 281.06 14.5859L281.382 14.6664C281.06 15.4845 280.59 16.1215 279.973 16.5775C279.37 17.0201 278.686 17.2414 277.921 17.2414C277.157 17.2414 276.513 16.9598 275.99 16.3965C275.467 15.8332 275.205 15.0754 275.205 14.1232C275.205 13.1709 275.387 12.2522 275.749 11.3671C276.111 10.4685 276.674 9.69729 277.439 9.05353C278.203 8.39635 279.075 8.06776 280.054 8.06776ZM286.963 8.24882L287.245 8.45C286.601 9.92529 286.038 11.6219 285.555 13.5398H285.716L286.038 12.6546C286.668 10.9379 287.292 9.74423 287.909 9.07365C288.526 8.40306 289.062 8.06776 289.518 8.06776C289.974 8.06776 290.31 8.21529 290.524 8.51035C290.752 8.80541 290.866 9.18765 290.866 9.65706C290.866 10.1265 290.779 10.5355 290.605 10.8842C290.43 11.2329 290.176 11.4073 289.84 11.4073C289.518 11.4073 289.25 11.3 289.036 11.0854C289.17 10.9111 289.297 10.6562 289.418 10.3209C289.539 9.98565 289.599 9.69059 289.599 9.43576C289.599 9.04682 289.438 8.85235 289.116 8.85235C288.781 8.85235 288.365 9.18094 287.869 9.83812C286.782 11.2598 285.864 13.6471 285.113 17L283.704 17.1207L285.676 8.99318L284.388 9.09376L284.368 8.75176C285.294 8.63106 286.159 8.46341 286.963 8.24882ZM291.834 16.9396C291.633 16.7251 291.532 16.4702 291.532 16.1752C291.532 15.8801 291.633 15.632 291.834 15.4308C292.048 15.2162 292.303 15.1089 292.598 15.1089C292.893 15.1089 293.141 15.2162 293.343 15.4308C293.557 15.632 293.665 15.8801 293.665 16.1752C293.665 16.4702 293.557 16.7251 293.343 16.9396C293.141 17.1408 292.893 17.2414 292.598 17.2414C292.303 17.2414 292.048 17.1408 291.834 16.9396ZM299.104 8.24882L299.386 8.45C298.742 9.92529 298.179 11.6219 297.696 13.5398H297.857L298.179 12.6546C298.809 10.9379 299.433 9.74423 300.05 9.07365C300.666 8.40306 301.203 8.06776 301.659 8.06776C302.115 8.06776 302.45 8.21529 302.665 8.51035C302.893 8.80541 303.007 9.18765 303.007 9.65706C303.007 10.1265 302.92 10.5355 302.745 10.8842C302.571 11.2329 302.316 11.4073 301.981 11.4073C301.659 11.4073 301.391 11.3 301.176 11.0854C301.31 10.9111 301.438 10.6562 301.558 10.3209C301.679 9.98565 301.739 9.69059 301.739 9.43576C301.739 9.04682 301.578 8.85235 301.257 8.85235C300.921 8.85235 300.506 9.18094 300.009 9.83812C298.923 11.2598 298.004 13.6471 297.253 17L295.845 17.1207L297.816 8.99318L296.529 9.09376L296.509 8.75176C297.434 8.63106 298.299 8.46341 299.104 8.24882ZM308.461 8.06776C309.171 8.06776 309.701 8.24212 310.05 8.59082C310.412 8.92612 310.593 9.41565 310.593 10.0594C310.593 10.6898 310.345 11.2396 309.849 11.7091C309.004 12.5138 307.75 12.9161 306.087 12.9161C305.59 12.9161 305.161 12.8759 304.799 12.7954V12.4132C305.269 12.4802 305.658 12.5138 305.966 12.5138C307.079 12.5138 307.938 12.2321 308.541 11.6688C309.158 11.1055 309.466 10.4886 309.466 9.818C309.466 9.45588 309.366 9.15412 309.165 8.91271C308.977 8.67129 308.655 8.55059 308.199 8.55059C307.756 8.55059 307.3 8.75847 306.831 9.17423C306.375 9.59 306.013 10.1064 305.745 10.7233C305.208 12.0242 304.94 13.1508 304.94 14.1031C304.94 15.8734 305.476 16.7586 306.549 16.7586C307.877 16.7586 308.85 16.0344 309.466 14.5859L309.788 14.6664C309.466 15.4845 308.997 16.1215 308.38 16.5775C307.777 17.0201 307.093 17.2414 306.328 17.2414C305.564 17.2414 304.92 16.9598 304.397 16.3965C303.874 15.8332 303.612 15.0754 303.612 14.1232C303.612 13.1709 303.793 12.2522 304.155 11.3671C304.518 10.4685 305.081 9.69729 305.845 9.05353C306.61 8.39635 307.482 8.06776 308.461 8.06776ZM315.853 8.55059C315.343 8.55059 314.907 8.69812 314.545 8.99318C314.183 9.28823 314.002 9.66376 314.002 10.1198C314.002 10.5758 314.19 10.9915 314.565 11.3671C314.941 11.7426 315.35 12.0578 315.793 12.3126C316.235 12.554 316.644 12.8759 317.02 13.2782C317.395 13.6806 317.583 14.1098 317.583 14.5658C317.583 15.4241 317.248 16.088 316.577 16.5574C315.92 17.0134 315.122 17.2414 314.183 17.2414C313.244 17.2414 312.42 17.0201 311.709 16.5775C311.937 16.1215 312.151 15.3302 312.353 14.2036L312.695 14.264C312.601 14.8139 312.554 15.2498 312.554 15.5716C312.554 15.8801 312.701 16.1685 312.996 16.4367C313.305 16.6915 313.741 16.8189 314.304 16.8189C314.881 16.8189 315.363 16.6446 315.752 16.2959C316.155 15.9472 316.356 15.4912 316.356 14.9279C316.356 14.5658 316.175 14.2171 315.813 13.8818C315.464 13.5331 315.075 13.2447 314.646 13.0167C314.23 12.7887 313.841 12.4668 313.479 12.0511C313.13 11.6353 312.956 11.1793 312.956 10.6831C312.956 9.94541 313.244 9.32847 313.821 8.83223C314.411 8.32259 315.182 8.06776 316.135 8.06776C316.872 8.06776 317.603 8.24882 318.327 8.61094C318.26 8.75847 318.146 9.09376 317.985 9.61682C317.838 10.1399 317.724 10.6361 317.643 11.1055L317.301 11.0452C317.382 10.616 317.422 10.2069 317.422 9.818C317.422 9.41565 317.288 9.10718 317.02 8.89259C316.765 8.66459 316.376 8.55059 315.853 8.55059ZM325.487 15.7326C325.487 15.5314 325.521 15.2095 325.588 14.7669H325.487C324.629 16.4166 323.637 17.2414 322.51 17.2414C321.303 17.2414 320.699 16.5708 320.699 15.2296C320.699 14.3579 321.008 12.7418 321.625 10.3813L321.987 8.99318L320.699 9.09376L320.679 8.75176C321.605 8.63106 322.47 8.46341 323.275 8.24882L323.556 8.45C322.43 11.9505 321.866 14.1902 321.866 15.1693C321.866 16.1484 322.235 16.6379 322.973 16.6379C323.59 16.6379 324.193 16.1886 324.783 15.29C325.387 14.378 325.883 13.1575 326.272 11.6286L326.956 8.99318L325.669 9.09376L325.648 8.75176C326.574 8.63106 327.439 8.46341 328.244 8.24882L328.525 8.45C328.056 9.84482 327.613 11.3402 327.197 12.9362C326.782 14.5322 326.574 15.5582 326.574 16.0142C326.574 16.4568 326.741 16.6781 327.077 16.6781C327.332 16.6781 327.607 16.5105 327.902 16.1752C328.197 15.8265 328.451 15.3369 328.666 14.7066L328.988 14.7871C328.411 16.4233 327.66 17.2414 326.735 17.2414C325.903 17.2414 325.487 16.7385 325.487 15.7326ZM332.319 16.0142C332.319 16.4568 332.487 16.6781 332.822 16.6781C333.077 16.6781 333.352 16.5105 333.647 16.1752C333.942 15.8265 334.197 15.3369 334.412 14.7066L334.734 14.7871C334.157 16.4233 333.406 17.2414 332.48 17.2414C331.649 17.2414 331.233 16.7184 331.233 15.6722C331.233 14.6127 332.112 10.8976 333.869 4.52706L332.581 4.62765L332.561 4.28565C333.486 4.16494 334.351 3.99729 335.156 3.78271L335.438 3.98388C334.874 5.63353 334.211 7.87329 333.446 10.7032C332.695 13.5196 332.319 15.29 332.319 16.0142ZM337.12 9.03341L337.221 8.65118H341.687L341.586 9.03341H337.12ZM340.319 6.1767L340.6 6.37788C340.292 7.31671 339.876 8.792 339.353 10.8038C338.843 12.8155 338.535 14.1165 338.428 14.7066C338.32 15.2833 338.267 15.7192 338.267 16.0142C338.267 16.4568 338.434 16.6781 338.77 16.6781C339.025 16.6781 339.299 16.5105 339.595 16.1752C339.89 15.8265 340.144 15.3369 340.359 14.7066L340.681 14.7871C340.104 16.4233 339.353 17.2414 338.428 17.2414C337.596 17.2414 337.18 16.7385 337.18 15.7326C337.18 14.9011 337.677 12.5808 338.669 8.77188L337.221 8.65118C337.958 8.65118 338.555 8.47682 339.011 8.12812C339.467 7.766 339.903 7.11553 340.319 6.1767ZM347.488 11.9505H345.517C344.9 14.7938 344.591 16.2892 344.591 16.4367C344.591 16.5708 344.665 16.6379 344.812 16.6379H346.281L346.221 17H341.936L341.996 16.6379H342.921C343.096 16.6379 343.203 16.5373 343.243 16.3361C344.853 8.71824 345.657 4.87576 345.657 4.80871C345.657 4.72823 345.584 4.688 345.436 4.688H344.551L344.611 4.32588H349.097C350.009 4.32588 350.761 4.58071 351.351 5.09035C351.941 5.6 352.236 6.30412 352.236 7.20271C352.236 8.62435 351.746 9.77106 350.767 10.6428C349.788 11.5146 348.695 11.9505 347.488 11.9505ZM348.876 4.78859H347.045L345.617 11.4878H347.508C348.474 11.4878 349.279 11.0184 349.922 10.0795C350.579 9.14071 350.908 8.15494 350.908 7.12223C350.908 6.45165 350.734 5.89506 350.385 5.45247C350.05 5.00988 349.547 4.78859 348.876 4.78859ZM358.295 15.7326C358.295 15.5314 358.329 15.2095 358.396 14.7669H358.295C357.437 16.4166 356.444 17.2414 355.318 17.2414C354.111 17.2414 353.507 16.5708 353.507 15.2296C353.507 14.3579 353.815 12.7418 354.432 10.3813L354.795 8.99318L353.507 9.09376L353.487 8.75176C354.412 8.63106 355.277 8.46341 356.082 8.24882L356.364 8.45C355.237 11.9505 354.674 14.1902 354.674 15.1693C354.674 16.1484 355.043 16.6379 355.78 16.6379C356.397 16.6379 357.001 16.1886 357.591 15.29C358.194 14.378 358.691 13.1575 359.08 11.6286L359.764 8.99318L358.476 9.09376L358.456 8.75176C359.381 8.63106 360.246 8.46341 361.051 8.24882L361.333 8.45C360.863 9.84482 360.421 11.3402 360.005 12.9362C359.589 14.5322 359.381 15.5582 359.381 16.0142C359.381 16.4568 359.549 16.6781 359.884 16.6781C360.139 16.6781 360.414 16.5105 360.709 16.1752C361.004 15.8265 361.259 15.3369 361.474 14.7066L361.795 14.7871C361.219 16.4233 360.468 17.2414 359.542 17.2414C358.711 17.2414 358.295 16.7385 358.295 15.7326ZM365.429 13.5398H365.59L365.912 12.6546C367.038 9.59671 368.272 8.06776 369.613 8.06776C370.244 8.06776 370.767 8.34941 371.182 8.91271C371.612 9.46259 371.826 10.1466 371.826 10.9647C371.826 11.7694 371.719 12.5205 371.504 13.2179C371.29 13.9153 370.988 14.5725 370.599 15.1894C370.21 15.7929 369.694 16.2892 369.05 16.6781C368.406 17.0536 367.749 17.2414 367.078 17.2414C366.408 17.2414 365.831 17.114 365.348 16.8592C364.865 16.5909 364.49 16.2422 364.222 15.8131L364.403 15.2699C365.046 16.2892 365.871 16.7988 366.877 16.7988C367.642 16.7988 368.306 16.4501 368.869 15.7527C369.432 15.0419 369.828 14.264 370.056 13.4191C370.297 12.5607 370.418 11.7761 370.418 11.0653C370.418 10.3411 370.297 9.79118 370.056 9.41565C369.828 9.02671 369.56 8.83223 369.251 8.83223C368.943 8.83223 368.634 8.96635 368.326 9.23459C368.017 9.48941 367.682 9.89176 367.32 10.4416C366.542 11.6487 365.811 13.6269 365.127 16.3764L364.523 15.7326L363.92 17.2414L363.578 17.1207L366.736 4.52706L365.449 4.62765L365.429 4.28565C366.354 4.16494 367.219 3.99729 368.024 3.78271L368.306 3.98388C367.219 7.14906 366.26 10.3344 365.429 13.5398ZM374.92 16.0142C374.92 16.4568 375.088 16.6781 375.423 16.6781C375.678 16.6781 375.953 16.5105 376.248 16.1752C376.543 15.8265 376.798 15.3369 377.012 14.7066L377.334 14.7871C376.758 16.4233 376.007 17.2414 375.081 17.2414C374.25 17.2414 373.834 16.7184 373.834 15.6722C373.834 14.6127 374.712 10.8976 376.469 4.52706L375.182 4.62765L375.162 4.28565C376.087 4.16494 376.952 3.99729 377.757 3.78271L378.038 3.98388C377.475 5.63353 376.811 7.87329 376.047 10.7032C375.296 13.5196 374.92 15.29 374.92 16.0142ZM382.054 6.056C381.88 5.88165 381.793 5.66706 381.793 5.41223C381.793 5.15741 381.88 4.94282 382.054 4.76847C382.229 4.59412 382.443 4.50694 382.698 4.50694C382.953 4.50694 383.168 4.59412 383.342 4.76847C383.516 4.94282 383.603 5.15741 383.603 5.41223C383.603 5.66706 383.516 5.88165 383.342 6.056C383.168 6.23035 382.953 6.31753 382.698 6.31753C382.443 6.31753 382.229 6.23035 382.054 6.056ZM379.781 15.7326C379.781 15.0218 380.271 12.7753 381.25 8.99318L379.962 9.09376L379.942 8.75176C380.867 8.63106 381.733 8.46341 382.537 8.24882L382.819 8.45C382.349 9.84482 381.907 11.3402 381.491 12.9362C381.075 14.5322 380.867 15.5582 380.867 16.0142C380.867 16.4568 381.035 16.6781 381.37 16.6781C381.625 16.6781 381.9 16.5105 382.195 16.1752C382.49 15.8265 382.745 15.3369 382.96 14.7066L383.282 14.7871C382.705 16.4233 381.954 17.2414 381.028 17.2414C380.197 17.2414 379.781 16.7385 379.781 15.7326ZM389.888 8.55059C389.338 8.55059 388.828 8.75847 388.359 9.17423C387.903 9.59 387.54 10.1064 387.272 10.7233C386.736 12.0242 386.468 13.1508 386.468 14.1031C386.468 15.8734 387.004 16.7586 388.077 16.7586C389.405 16.7586 390.377 16.0344 390.994 14.5859L391.316 14.6664C390.994 15.4845 390.525 16.1215 389.908 16.5775C389.304 17.0201 388.62 17.2414 387.856 17.2414C387.091 17.2414 386.447 16.9598 385.924 16.3965C385.401 15.8332 385.14 15.0754 385.14 14.1232C385.14 13.1709 385.321 12.2522 385.683 11.3671C386.045 10.4685 386.608 9.69729 387.373 9.05353C388.137 8.39635 389.009 8.06776 389.988 8.06776C390.659 8.06776 391.162 8.24212 391.497 8.59082C391.846 8.92612 392.02 9.33518 392.02 9.818C392.02 10.2874 391.933 10.7099 391.758 11.0854C391.598 11.4609 391.336 11.6487 390.974 11.6487C390.625 11.6487 390.364 11.5414 390.189 11.3268C390.578 10.7367 390.773 10.16 390.773 9.59671C390.773 8.89929 390.478 8.55059 389.888 8.55059ZM398.004 4.96965L395.59 16.4367C395.59 16.5708 395.664 16.6379 395.811 16.6379H396.697L396.636 17H392.935L392.995 16.6379H393.92C394.095 16.6379 394.202 16.5373 394.242 16.3361C395.852 8.71824 396.656 4.87576 396.656 4.80871C396.656 4.72823 396.583 4.688 396.435 4.688H395.55L395.61 4.32588H399.312L399.252 4.688H398.346C398.172 4.688 398.058 4.78188 398.004 4.96965ZM400.881 13.4794L400.921 15.3302C400.948 16.1618 401.169 16.5775 401.585 16.5775C401.853 16.5775 402.075 16.4367 402.249 16.1551C402.437 15.8734 402.531 15.5113 402.531 15.0687L402.913 15.0084C402.913 15.6924 402.732 16.2355 402.37 16.6379C402.021 17.0402 401.578 17.2414 401.042 17.2414C400.09 17.2414 399.587 16.5239 399.533 15.0888L399.453 13.1173C399.412 12.2455 399.231 11.642 398.91 11.3067C398.588 10.958 398.058 10.7836 397.32 10.7836L397.421 10.4618L403.154 4.688H402.209L402.269 4.32588H404.864L404.804 4.688H404.281C404.066 4.688 403.872 4.78188 403.698 4.96965L398.246 10.4215C399.211 10.4349 399.882 10.7166 400.257 11.2665C400.646 11.8164 400.854 12.554 400.881 13.4794ZM410.223 8.06776C410.934 8.06776 411.463 8.24212 411.812 8.59082C412.174 8.92612 412.355 9.41565 412.355 10.0594C412.355 10.6898 412.107 11.2396 411.611 11.7091C410.766 12.5138 409.512 12.9161 407.849 12.9161C407.353 12.9161 406.924 12.8759 406.561 12.7954V12.4132C407.031 12.4802 407.42 12.5138 407.728 12.5138C408.841 12.5138 409.7 12.2321 410.303 11.6688C410.92 11.1055 411.229 10.4886 411.229 9.818C411.229 9.45588 411.128 9.15412 410.927 8.91271C410.739 8.67129 410.417 8.55059 409.961 8.55059C409.519 8.55059 409.063 8.75847 408.593 9.17423C408.137 9.59 407.775 10.1064 407.507 10.7233C406.971 12.0242 406.702 13.1508 406.702 14.1031C406.702 15.8734 407.239 16.7586 408.312 16.7586C409.639 16.7586 410.612 16.0344 411.229 14.5859L411.551 14.6664C411.229 15.4845 410.759 16.1215 410.142 16.5775C409.539 17.0201 408.855 17.2414 408.09 17.2414C407.326 17.2414 406.682 16.9598 406.159 16.3965C405.636 15.8332 405.375 15.0754 405.375 14.1232C405.375 13.1709 405.556 12.2522 405.918 11.3671C406.28 10.4685 406.843 9.69729 407.608 9.05353C408.372 8.39635 409.244 8.06776 410.223 8.06776ZM416.992 16.5775C417.85 16.5775 418.702 15.9539 419.547 14.7066C420.405 13.4459 420.834 12.2724 420.834 11.186C420.834 10.0862 420.485 9.18765 419.788 8.49024C420.123 8.20859 420.432 8.06776 420.713 8.06776C421.236 8.06776 421.498 8.80541 421.498 10.2807C421.498 11.756 421.337 13.1106 421.015 14.3445C420.693 15.5649 420.271 16.6044 419.748 17.4627C419.238 18.3211 418.655 19.0654 417.998 19.6958C416.723 20.9565 415.429 21.5868 414.115 21.5868C413.444 21.5868 412.941 21.4326 412.606 21.1241C412.257 20.8156 412.083 20.4535 412.083 20.0378C412.083 19.622 412.17 19.2465 412.344 18.9112C412.505 18.5759 412.754 18.4082 413.089 18.4082C413.424 18.4082 413.699 18.5021 413.914 18.6899C413.525 19.1861 413.33 19.6421 413.33 20.0579C413.33 20.7285 413.686 21.0638 414.396 21.0638C414.866 21.0638 415.409 20.8894 416.026 20.5407C416.643 20.2054 417.267 19.7226 417.897 19.0922C418.527 18.4753 419.104 17.6438 419.627 16.5976C420.164 15.5515 420.539 14.4182 420.754 13.1978C420.311 14.3646 419.714 15.3302 418.963 16.0947C418.226 16.8592 417.374 17.2414 416.408 17.2414C415.912 17.2414 415.51 17.0738 415.201 16.7385C414.906 16.3898 414.759 15.9204 414.759 15.3302C414.759 14.7401 414.98 13.7074 415.422 12.2321C415.878 10.7568 416.106 9.79118 416.106 9.33518C416.106 8.86576 415.932 8.63106 415.583 8.63106C415.329 8.63106 415.06 8.80541 414.779 9.15412C414.497 9.48941 414.269 9.97224 414.095 10.6026L413.753 10.5221C414.249 8.88588 414.966 8.06776 415.905 8.06776C416.777 8.06776 417.213 8.53718 417.213 9.476C417.213 9.85153 417.005 10.7836 416.589 12.2724C416.174 13.7611 415.966 14.7401 415.966 15.2095C415.966 16.1215 416.308 16.5775 416.992 16.5775ZM421.934 18.9715C423.275 17.9522 424.342 16.4971 425.133 14.606C425.924 12.7149 426.32 10.8038 426.32 8.87247C426.32 6.92776 425.871 5.47929 424.972 4.52706L425.213 4.22529C426.085 4.74835 426.736 5.486 427.165 6.43823C427.594 7.37706 427.809 8.43659 427.809 9.61682C427.809 11.5347 427.279 13.4124 426.219 15.2498C425.173 17.0872 423.772 18.4284 422.015 19.2733L421.934 18.9715Z" fill="#6082FA"/>
<path opacity="0.86" d="M232.935 18.1312C232.418 18.1312 231.962 18 231.569 17.7376C231.437 17.6574 231.346 17.6173 231.295 17.6173C231.164 17.6173 231.08 17.7449 231.044 18H230.836L231.219 16.1741H231.415C231.408 16.2324 231.405 16.3199 231.405 16.4365C231.405 16.9103 231.539 17.2602 231.809 17.4861C232.086 17.7048 232.461 17.8141 232.935 17.8141C233.416 17.8141 233.817 17.6465 234.138 17.3112C234.466 16.9686 234.63 16.5786 234.63 16.1413C234.63 15.6967 234.404 15.365 233.952 15.1464L233.077 14.6981C232.392 14.3628 232.05 13.8416 232.05 13.1346C232.05 12.5806 232.265 12.085 232.695 11.6476C233.125 11.203 233.664 10.9807 234.313 10.9807C234.743 10.9807 235.133 11.101 235.483 11.3415C235.599 11.4217 235.68 11.4618 235.723 11.4618C235.796 11.4618 235.858 11.3852 235.909 11.2322L235.964 11.0463H236.161L235.756 12.9378H235.57C235.585 12.792 235.592 12.6863 235.592 12.6207C235.592 12.1688 235.475 11.8371 235.242 11.6258C235.016 11.4071 234.688 11.2978 234.258 11.2978C233.828 11.2978 233.46 11.4581 233.154 11.7788C232.855 12.0996 232.706 12.4604 232.706 12.8613C232.706 13.3569 232.928 13.7214 233.373 13.9546L234.499 14.5341C235.104 14.8475 235.406 15.2921 235.406 15.868C235.406 16.4365 235.158 16.9577 234.663 17.4315C234.167 17.898 233.591 18.1312 232.935 18.1312Z" fill="#6082FA"/>
</svg>
