<svg width="614" height="23" viewBox="0 0 614 23" fill="none" xmlns="http://www.w3.org/2000/svg">
<path opacity="0.86" d="M40.5872 11.87H32.7011V10.8038H40.5872V11.87ZM40.5872 15.29H32.7011V14.2238H40.5872V15.29Z" fill="#6082FA"/>
<path opacity="0.86" d="M55.6246 4.78859H53.3111L50.8366 16.5373H53.1702C54.0286 16.5373 54.8199 16.2691 55.5441 15.7326C56.2684 15.1961 56.8518 14.5188 57.2944 13.7007C58.2064 11.9974 58.6624 10.3008 58.6624 8.61094C58.6624 7.40388 58.3807 6.46506 57.8174 5.79447C57.2675 5.12388 56.5366 4.78859 55.6246 4.78859ZM50.8768 4.32588H55.7453C57.0865 4.32588 58.146 4.72153 58.9239 5.51282C59.7018 6.29071 60.0907 7.38376 60.0907 8.792C60.0907 9.74423 59.9231 10.7032 59.5878 11.6688C59.2659 12.6211 58.8166 13.4995 58.2399 14.3042C57.6632 15.0955 56.9188 15.746 56.0068 16.2556C55.1082 16.7519 54.1292 17 53.0696 17H48.2012L48.2615 16.6379H49.1869C49.3613 16.6379 49.4686 16.5373 49.5088 16.3361C51.1182 8.71824 51.9229 4.87576 51.9229 4.80871C51.9229 4.72823 51.8492 4.688 51.7016 4.688H50.8165L50.8768 4.32588ZM66.3539 8.06776C67.0647 8.06776 67.5945 8.24212 67.9432 8.59082C68.3053 8.92612 68.4864 9.41565 68.4864 10.0594C68.4864 10.6898 68.2382 11.2396 67.742 11.7091C66.8971 12.5138 65.6431 12.9161 63.98 12.9161C63.4838 12.9161 63.0546 12.8759 62.6925 12.7954V12.4132C63.1619 12.4802 63.5508 12.5138 63.8593 12.5138C64.9725 12.5138 65.8308 12.2321 66.4344 11.6688C67.0513 11.1055 67.3598 10.4886 67.3598 9.818C67.3598 9.45588 67.2592 9.15412 67.058 8.91271C66.8702 8.67129 66.5484 8.55059 66.0924 8.55059C65.6498 8.55059 65.1938 8.75847 64.7244 9.17423C64.2684 9.59 63.9062 10.1064 63.638 10.7233C63.1015 12.0242 62.8333 13.1508 62.8333 14.1031C62.8333 15.8734 63.3698 16.7586 64.4427 16.7586C65.7705 16.7586 66.7428 16.0344 67.3598 14.5859L67.6817 14.6664C67.3598 15.4845 66.8904 16.1215 66.2734 16.5775C65.6699 17.0201 64.9859 17.2414 64.2214 17.2414C63.457 17.2414 62.8132 16.9598 62.2901 16.3965C61.7671 15.8332 61.5055 15.0754 61.5055 14.1232C61.5055 13.1709 61.6866 12.2522 62.0487 11.3671C62.4108 10.4685 62.9741 9.69729 63.7386 9.05353C64.5031 8.39635 65.3748 8.06776 66.3539 8.06776ZM74.6516 8.55059C74.1018 8.55059 73.5921 8.75847 73.1227 9.17423C72.6667 9.59 72.3046 10.1064 72.0363 10.7233C71.4999 12.0242 71.2316 13.1508 71.2316 14.1031C71.2316 15.8734 71.7681 16.7586 72.8411 16.7586C74.1688 16.7586 75.1412 16.0344 75.7581 14.5859L76.08 14.6664C75.7581 15.4845 75.2887 16.1215 74.6718 16.5775C74.0682 17.0201 73.3842 17.2414 72.6198 17.2414C71.8553 17.2414 71.2115 16.9598 70.6885 16.3965C70.1654 15.8332 69.9039 15.0754 69.9039 14.1232C69.9039 13.1709 70.0849 12.2522 70.4471 11.3671C70.8092 10.4685 71.3725 9.69729 72.1369 9.05353C72.9014 8.39635 73.7732 8.06776 74.7522 8.06776C75.4228 8.06776 75.9258 8.24212 76.2611 8.59082C76.6098 8.92612 76.7841 9.33518 76.7841 9.818C76.7841 10.2874 76.6969 10.7099 76.5226 11.0854C76.3616 11.4609 76.1001 11.6487 75.738 11.6487C75.3893 11.6487 75.1278 11.5414 74.9534 11.3268C75.3423 10.7367 75.5368 10.16 75.5368 9.59671C75.5368 8.89929 75.2418 8.55059 74.6516 8.55059Z" fill="#6082FA"/>
<path opacity="0.86" d="M81.7553 10.7384C82.2739 10.5059 82.8238 10.3896 83.4049 10.3896C84.2901 10.3896 84.9875 10.6579 85.4972 11.1944C86.0158 11.7219 86.2751 12.4685 86.2751 13.4341C86.2751 14.0868 86.1678 14.7485 85.9532 15.4191C85.7386 16.0807 85.4391 16.6932 85.0546 17.2565C84.6701 17.8198 84.1694 18.2802 83.5525 18.6379C82.9355 18.9866 82.2247 19.1609 81.42 19.1609C80.6153 19.1609 79.9536 18.8927 79.4351 18.3562C78.9254 17.8198 78.6706 17.0419 78.6706 16.0226C78.6706 15.0033 78.9478 13.9751 79.5021 12.9379C80.0654 11.9007 80.8165 11.1675 81.7553 10.7384ZM84.7864 11.4224C84.4287 10.9664 83.9548 10.7384 83.3647 10.7384C82.7746 10.7384 82.2292 10.9306 81.7285 11.3151C81.2278 11.6906 80.8299 12.1689 80.5348 12.7501C79.9179 13.9482 79.6094 15.1106 79.6094 16.2372C79.6094 17.0508 79.7838 17.6856 80.1325 18.1416C80.4901 18.5887 80.964 18.8122 81.5541 18.8122C82.1532 18.8122 82.7031 18.6245 83.2038 18.2489C83.7045 17.8645 84.1068 17.3861 84.4108 16.8139C85.0278 15.6247 85.3362 14.4624 85.3362 13.3268C85.3362 12.5132 85.1529 11.8784 84.7864 11.4224ZM89.453 13.1659L89.6408 13.3C89.2116 14.2835 88.8361 15.4146 88.5142 16.6932H88.6215L88.8361 16.1031C89.2563 14.9586 89.6721 14.1628 90.0834 13.7158C90.4947 13.2687 90.8523 13.0452 91.1563 13.0452C91.4603 13.0452 91.6838 13.1435 91.8269 13.3402C91.9789 13.5369 92.0549 13.7918 92.0549 14.1047C92.0549 14.4176 91.9968 14.6904 91.8805 14.9228C91.7643 15.1553 91.5944 15.2715 91.3709 15.2715C91.1563 15.2715 90.9775 15.2 90.8344 15.0569C90.9238 14.9407 91.0088 14.7708 91.0893 14.5473C91.1697 14.3238 91.21 14.1271 91.21 13.9572C91.21 13.6979 91.1027 13.5682 90.8881 13.5682C90.6645 13.5682 90.3874 13.7873 90.0565 14.2254C89.3323 15.1732 88.7198 16.7647 88.2191 19L87.2803 19.0805L88.5947 13.6621L87.7363 13.7292L87.7229 13.5012C88.3398 13.4207 88.9165 13.3089 89.453 13.1659ZM96.5893 18.3428C96.5893 18.6379 96.7011 18.7854 96.9246 18.7854C97.0945 18.7854 97.2778 18.6736 97.4745 18.4501C97.6712 18.2176 97.8411 17.8913 97.9842 17.4711L98.1987 17.5247C97.8143 18.6155 97.3136 19.1609 96.6966 19.1609C96.1423 19.1609 95.8651 18.8122 95.8651 18.1148C95.8651 17.4085 96.4507 14.9318 97.622 10.6847L96.7637 10.7518L96.7503 10.5238C97.3672 10.4433 97.9439 10.3315 98.4804 10.1885L98.6682 10.3226C98.2926 11.4224 97.85 12.9155 97.3404 14.8021C96.8397 16.6798 96.5893 17.86 96.5893 18.3428ZM95.9992 17.5113H95.8651C95.3107 18.6111 94.667 19.1609 93.9338 19.1609C93.5136 19.1609 93.1604 18.9776 92.8743 18.6111C92.5971 18.2355 92.4585 17.7795 92.4585 17.2431C92.4585 16.6976 92.53 16.1925 92.6731 15.7275C92.8162 15.2626 93.0173 14.8289 93.2766 14.4266C93.5359 14.0153 93.8802 13.6845 94.3093 13.4341C94.7385 13.1748 95.1766 13.0452 95.6237 13.0452C96.482 13.0452 97.09 13.4207 97.4477 14.1718L97.2599 14.4132C96.8397 13.7158 96.3166 13.3671 95.6907 13.3671C95.3063 13.3671 94.9531 13.5056 94.6312 13.7828C94.3183 14.06 94.0724 14.4087 93.8936 14.8289C93.527 15.6873 93.3437 16.4965 93.3437 17.2565C93.3437 17.7572 93.4242 18.1327 93.5851 18.3831C93.755 18.6334 93.9785 18.7586 94.2557 18.7586C94.6402 18.7586 95.0336 18.4367 95.4359 17.7929C95.8383 17.1402 96.1959 16.2104 96.5089 15.0033L95.9992 17.5113ZM102.665 13.0452C103.139 13.0452 103.492 13.1614 103.724 13.3939C103.966 13.6174 104.087 13.9438 104.087 14.3729C104.087 14.7932 103.921 15.1598 103.59 15.4727C103.027 16.0092 102.191 16.2774 101.082 16.2774C100.751 16.2774 100.465 16.2506 100.224 16.1969V15.9421C100.537 15.9868 100.796 16.0092 101.002 16.0092C101.744 16.0092 102.316 15.8214 102.719 15.4459C103.13 15.0704 103.335 14.6591 103.335 14.212C103.335 13.9706 103.268 13.7694 103.134 13.6085C103.009 13.4475 102.795 13.3671 102.491 13.3671C102.195 13.3671 101.891 13.5056 101.579 13.7828C101.275 14.06 101.033 14.4042 100.854 14.8155C100.497 15.6828 100.318 16.4339 100.318 17.0687C100.318 18.2489 100.675 18.8391 101.391 18.8391C102.276 18.8391 102.924 18.3562 103.335 17.3906L103.55 17.4442C103.335 17.9896 103.023 18.4144 102.611 18.7184C102.209 19.0134 101.753 19.1609 101.243 19.1609C100.734 19.1609 100.304 18.9732 99.9557 18.5976C99.607 18.2221 99.4326 17.7169 99.4326 17.0821C99.4326 16.4473 99.5533 15.8348 99.7947 15.2447C100.036 14.6456 100.412 14.1315 100.921 13.7024C101.431 13.2642 102.012 13.0452 102.665 13.0452ZM107.271 13.1659L107.459 13.3C107.03 14.2835 106.654 15.4146 106.332 16.6932H106.44L106.654 16.1031C107.075 14.9586 107.49 14.1628 107.902 13.7158C108.313 13.2687 108.671 13.0452 108.975 13.0452C109.279 13.0452 109.502 13.1435 109.645 13.3402C109.797 13.5369 109.873 13.7918 109.873 14.1047C109.873 14.4176 109.815 14.6904 109.699 14.9228C109.583 15.1553 109.413 15.2715 109.189 15.2715C108.975 15.2715 108.796 15.2 108.653 15.0569C108.742 14.9407 108.827 14.7708 108.908 14.5473C108.988 14.3238 109.028 14.1271 109.028 13.9572C109.028 13.6979 108.921 13.5682 108.706 13.5682C108.483 13.5682 108.206 13.7873 107.875 14.2254C107.151 15.1732 106.538 16.7647 106.037 19L105.099 19.0805L106.413 13.6621L105.555 13.7292L105.541 13.5012C106.158 13.4207 106.735 13.3089 107.271 13.1659ZM110.518 18.9598C110.384 18.8167 110.317 18.6468 110.317 18.4501C110.317 18.2534 110.384 18.088 110.518 17.9539C110.661 17.8108 110.831 17.7393 111.028 17.7393C111.225 17.7393 111.39 17.8108 111.524 17.9539C111.667 18.088 111.739 18.2534 111.739 18.4501C111.739 18.6468 111.667 18.8167 111.524 18.9598C111.39 19.0939 111.225 19.1609 111.028 19.1609C110.831 19.1609 110.661 19.0939 110.518 18.9598ZM115.365 13.1659L115.553 13.3C115.124 14.2835 114.748 15.4146 114.426 16.6932H114.533L114.748 16.1031C115.168 14.9586 115.584 14.1628 115.995 13.7158C116.407 13.2687 116.764 13.0452 117.068 13.0452C117.372 13.0452 117.596 13.1435 117.739 13.3402C117.891 13.5369 117.967 13.7918 117.967 14.1047C117.967 14.4176 117.909 14.6904 117.792 14.9228C117.676 15.1553 117.506 15.2715 117.283 15.2715C117.068 15.2715 116.889 15.2 116.746 15.0569C116.836 14.9407 116.921 14.7708 117.001 14.5473C117.082 14.3238 117.122 14.1271 117.122 13.9572C117.122 13.6979 117.015 13.5682 116.8 13.5682C116.576 13.5682 116.299 13.7873 115.968 14.2254C115.244 15.1732 114.632 16.7647 114.131 19L113.192 19.0805L114.507 13.6621L113.648 13.7292L113.635 13.5012C114.252 13.4207 114.828 13.3089 115.365 13.1659ZM121.603 13.0452C122.077 13.0452 122.43 13.1614 122.662 13.3939C122.904 13.6174 123.024 13.9438 123.024 14.3729C123.024 14.7932 122.859 15.1598 122.528 15.4727C121.965 16.0092 121.129 16.2774 120.02 16.2774C119.689 16.2774 119.403 16.2506 119.162 16.1969V15.9421C119.475 15.9868 119.734 16.0092 119.94 16.0092C120.682 16.0092 121.254 15.8214 121.656 15.4459C122.068 15.0704 122.273 14.6591 122.273 14.212C122.273 13.9706 122.206 13.7694 122.072 13.6085C121.947 13.4475 121.732 13.3671 121.428 13.3671C121.133 13.3671 120.829 13.5056 120.516 13.7828C120.212 14.06 119.971 14.4042 119.792 14.8155C119.434 15.6828 119.256 16.4339 119.256 17.0687C119.256 18.2489 119.613 18.8391 120.329 18.8391C121.214 18.8391 121.862 18.3562 122.273 17.3906L122.488 17.4442C122.273 17.9896 121.96 18.4144 121.549 18.7184C121.147 19.0134 120.691 19.1609 120.181 19.1609C119.671 19.1609 119.242 18.9732 118.894 18.5976C118.545 18.2221 118.37 17.7169 118.37 17.0821C118.37 16.4473 118.491 15.8348 118.733 15.2447C118.974 14.6456 119.35 14.1315 119.859 13.7024C120.369 13.2642 120.95 13.0452 121.603 13.0452ZM126.531 13.3671C126.191 13.3671 125.901 13.4654 125.659 13.6621C125.418 13.8588 125.297 14.1092 125.297 14.4132C125.297 14.7172 125.422 14.9944 125.673 15.2447C125.923 15.4951 126.196 15.7052 126.491 15.8751C126.786 16.036 127.059 16.2506 127.309 16.5188C127.559 16.7871 127.684 17.0732 127.684 17.3772C127.684 17.9494 127.461 18.392 127.014 18.7049C126.576 19.0089 126.044 19.1609 125.418 19.1609C124.792 19.1609 124.242 19.0134 123.768 18.7184C123.92 18.4144 124.063 17.8868 124.197 17.1358L124.425 17.176C124.363 17.5426 124.331 17.8332 124.331 18.0478C124.331 18.2534 124.43 18.4456 124.627 18.6245C124.832 18.7944 125.123 18.8793 125.498 18.8793C125.883 18.8793 126.205 18.7631 126.464 18.5306C126.732 18.2981 126.866 17.9941 126.866 17.6186C126.866 17.3772 126.746 17.1447 126.504 16.9212C126.272 16.6887 126.012 16.4965 125.726 16.3445C125.449 16.1925 125.19 15.9779 124.948 15.7007C124.716 15.4235 124.6 15.1195 124.6 14.7887C124.6 14.2969 124.792 13.8856 125.176 13.5548C125.57 13.2151 126.084 13.0452 126.719 13.0452C127.211 13.0452 127.698 13.1659 128.181 13.4073C128.136 13.5056 128.06 13.7292 127.953 14.0779C127.854 14.4266 127.778 14.7574 127.725 15.0704L127.497 15.0301C127.55 14.744 127.577 14.4713 127.577 14.212C127.577 13.9438 127.488 13.7381 127.309 13.5951C127.139 13.4431 126.88 13.3671 126.531 13.3671ZM132.954 18.1551C132.954 18.0209 132.976 17.8064 133.021 17.5113H132.954C132.382 18.6111 131.72 19.1609 130.969 19.1609C130.164 19.1609 129.762 18.7139 129.762 17.8198C129.762 17.2386 129.968 16.1612 130.379 14.5875L130.62 13.6621L129.762 13.7292L129.749 13.5012C130.365 13.4207 130.942 13.3089 131.479 13.1659L131.666 13.3C130.915 15.6336 130.54 17.1268 130.54 17.7795C130.54 18.4322 130.786 18.7586 131.277 18.7586C131.689 18.7586 132.091 18.4591 132.485 17.86C132.887 17.252 133.218 16.4384 133.477 15.4191L133.933 13.6621L133.075 13.7292L133.061 13.5012C133.678 13.4207 134.255 13.3089 134.791 13.1659L134.979 13.3C134.666 14.2299 134.371 15.2268 134.094 16.2908C133.817 17.3548 133.678 18.0388 133.678 18.3428C133.678 18.6379 133.79 18.7854 134.013 18.7854C134.183 18.7854 134.367 18.6736 134.563 18.4501C134.76 18.2176 134.93 17.8913 135.073 17.4711L135.288 17.5247C134.903 18.6155 134.402 19.1609 133.785 19.1609C133.231 19.1609 132.954 18.8256 132.954 18.1551ZM137.509 18.3428C137.509 18.6379 137.62 18.7854 137.844 18.7854C138.014 18.7854 138.197 18.6736 138.394 18.4501C138.591 18.2176 138.76 17.8913 138.903 17.4711L139.118 17.5247C138.734 18.6155 138.233 19.1609 137.616 19.1609C137.062 19.1609 136.784 18.8122 136.784 18.1148C136.784 17.4085 137.37 14.9318 138.541 10.6847L137.683 10.7518L137.67 10.5238C138.287 10.4433 138.863 10.3315 139.4 10.1885L139.587 10.3226C139.212 11.4224 138.769 12.9155 138.26 14.8021C137.759 16.6798 137.509 17.86 137.509 18.3428ZM140.709 13.6889L140.776 13.4341H143.753L143.686 13.6889H140.709ZM142.841 11.7845L143.029 11.9186C142.824 12.5445 142.546 13.528 142.198 14.8692C141.858 16.2104 141.652 17.0776 141.581 17.4711C141.509 17.8555 141.473 18.1461 141.473 18.3428C141.473 18.6379 141.585 18.7854 141.809 18.7854C141.979 18.7854 142.162 18.6736 142.359 18.4501C142.555 18.2176 142.725 17.8913 142.868 17.4711L143.083 17.5247C142.698 18.6155 142.198 19.1609 141.581 19.1609C141.026 19.1609 140.749 18.8256 140.749 18.1551C140.749 17.6007 141.08 16.0539 141.742 13.5146L140.776 13.4341C141.268 13.4341 141.666 13.3179 141.97 13.0854C142.274 12.844 142.564 12.4104 142.841 11.7845ZM147.621 15.6336H146.307C145.895 17.5292 145.69 18.5261 145.69 18.6245C145.69 18.7139 145.739 18.7586 145.837 18.7586H146.816L146.776 19H143.919L143.96 18.7586H144.577C144.693 18.7586 144.764 18.6915 144.791 18.5574C145.864 13.4788 146.401 10.9172 146.401 10.8725C146.401 10.8188 146.351 10.792 146.253 10.792H145.663L145.703 10.5506H148.694C149.302 10.5506 149.803 10.7205 150.196 11.0602C150.589 11.4 150.786 11.8694 150.786 12.4685C150.786 13.4162 150.46 14.1807 149.807 14.7619C149.154 15.3431 148.426 15.6336 147.621 15.6336ZM148.546 10.8591H147.326L146.374 15.3252H147.634C148.278 15.3252 148.815 15.0122 149.244 14.3864C149.682 13.7605 149.901 13.1033 149.901 12.4148C149.901 11.9678 149.785 11.5967 149.552 11.3016C149.329 11.0066 148.993 10.8591 148.546 10.8591ZM154.826 18.1551C154.826 18.0209 154.848 17.8064 154.893 17.5113H154.826C154.253 18.6111 153.592 19.1609 152.841 19.1609C152.036 19.1609 151.634 18.7139 151.634 17.8198C151.634 17.2386 151.839 16.1612 152.251 14.5875L152.492 13.6621L151.634 13.7292L151.62 13.5012C152.237 13.4207 152.814 13.3089 153.35 13.1659L153.538 13.3C152.787 15.6336 152.412 17.1268 152.412 17.7795C152.412 18.4322 152.657 18.7586 153.149 18.7586C153.56 18.7586 153.963 18.4591 154.356 17.86C154.759 17.252 155.089 16.4384 155.349 15.4191L155.805 13.6621L154.946 13.7292L154.933 13.5012C155.55 13.4207 156.127 13.3089 156.663 13.1659L156.851 13.3C156.538 14.2299 156.243 15.2268 155.966 16.2908C155.688 17.3548 155.55 18.0388 155.55 18.3428C155.55 18.6379 155.662 18.7854 155.885 18.7854C156.055 18.7854 156.238 18.6736 156.435 18.4501C156.632 18.2176 156.802 17.8913 156.945 17.4711L157.159 17.5247C156.775 18.6155 156.274 19.1609 155.657 19.1609C155.103 19.1609 154.826 18.8256 154.826 18.1551ZM159.581 16.6932H159.689L159.903 16.1031C160.654 14.0645 161.477 13.0452 162.371 13.0452C162.791 13.0452 163.14 13.2329 163.417 13.6085C163.703 13.9751 163.846 14.4311 163.846 14.9765C163.846 15.5129 163.775 16.0136 163.632 16.4786C163.489 16.9435 163.288 17.3816 163.028 17.7929C162.769 18.1953 162.425 18.5261 161.996 18.7854C161.566 19.0358 161.128 19.1609 160.681 19.1609C160.234 19.1609 159.85 19.076 159.528 18.9061C159.206 18.7273 158.956 18.4948 158.777 18.2087L158.897 17.8466C159.327 18.5261 159.877 18.8659 160.547 18.8659C161.057 18.8659 161.499 18.6334 161.875 18.1685C162.25 17.6946 162.514 17.176 162.666 16.6127C162.827 16.0405 162.908 15.5174 162.908 15.0435C162.908 14.5607 162.827 14.1941 162.666 13.9438C162.514 13.6845 162.335 13.5548 162.13 13.5548C161.924 13.5548 161.718 13.6442 161.513 13.8231C161.307 13.9929 161.084 14.2612 160.842 14.6278C160.324 15.4325 159.836 16.7513 159.38 18.5842L158.978 18.1551L158.576 19.1609L158.348 19.0805L160.453 10.6847L159.595 10.7518L159.581 10.5238C160.198 10.4433 160.775 10.3315 161.312 10.1885L161.499 10.3226C160.775 12.4327 160.136 14.5562 159.581 16.6932ZM165.909 18.3428C165.909 18.6379 166.021 18.7854 166.244 18.7854C166.414 18.7854 166.598 18.6736 166.794 18.4501C166.991 18.2176 167.161 17.8913 167.304 17.4711L167.518 17.5247C167.134 18.6155 166.633 19.1609 166.016 19.1609C165.462 19.1609 165.185 18.8122 165.185 18.1148C165.185 17.4085 165.77 14.9318 166.942 10.6847L166.083 10.7518L166.07 10.5238C166.687 10.4433 167.264 10.3315 167.8 10.1885L167.988 10.3226C167.612 11.4224 167.17 12.9155 166.66 14.8021C166.159 16.6798 165.909 17.86 165.909 18.3428ZM170.665 11.704C170.549 11.5878 170.491 11.4447 170.491 11.2748C170.491 11.1049 170.549 10.9619 170.665 10.8456C170.781 10.7294 170.925 10.6713 171.094 10.6713C171.264 10.6713 171.407 10.7294 171.524 10.8456C171.64 10.9619 171.698 11.1049 171.698 11.2748C171.698 11.4447 171.64 11.5878 171.524 11.704C171.407 11.8202 171.264 11.8784 171.094 11.8784C170.925 11.8784 170.781 11.8202 170.665 11.704ZM169.15 18.1551C169.15 17.6812 169.476 16.1835 170.129 13.6621L169.27 13.7292L169.257 13.5012C169.874 13.4207 170.451 13.3089 170.987 13.1659L171.175 13.3C170.862 14.2299 170.567 15.2268 170.29 16.2908C170.013 17.3548 169.874 18.0388 169.874 18.3428C169.874 18.6379 169.986 18.7854 170.209 18.7854C170.379 18.7854 170.562 18.6736 170.759 18.4501C170.956 18.2176 171.126 17.8913 171.269 17.4711L171.483 17.5247C171.099 18.6155 170.598 19.1609 169.981 19.1609C169.427 19.1609 169.15 18.8256 169.15 18.1551ZM175.887 13.3671C175.521 13.3671 175.181 13.5056 174.868 13.7828C174.564 14.06 174.323 14.4042 174.144 14.8155C173.786 15.6828 173.607 16.4339 173.607 17.0687C173.607 18.2489 173.965 18.8391 174.68 18.8391C175.565 18.8391 176.214 18.3562 176.625 17.3906L176.84 17.4442C176.625 17.9896 176.312 18.4144 175.901 18.7184C175.498 19.0134 175.042 19.1609 174.533 19.1609C174.023 19.1609 173.594 18.9732 173.245 18.5976C172.897 18.2221 172.722 17.7169 172.722 17.0821C172.722 16.4473 172.843 15.8348 173.084 15.2447C173.326 14.6456 173.701 14.1315 174.211 13.7024C174.721 13.2642 175.302 13.0452 175.954 13.0452C176.401 13.0452 176.737 13.1614 176.96 13.3939C177.193 13.6174 177.309 13.8901 177.309 14.212C177.309 14.5249 177.251 14.8066 177.135 15.0569C177.027 15.3073 176.853 15.4325 176.612 15.4325C176.379 15.4325 176.205 15.3609 176.089 15.2179C176.348 14.8245 176.477 14.44 176.477 14.0645C176.477 13.5995 176.281 13.3671 175.887 13.3671ZM181.298 10.9798L179.689 18.6245C179.689 18.7139 179.738 18.7586 179.837 18.7586H180.427L180.386 19H177.919L177.959 18.7586H178.576C178.692 18.7586 178.764 18.6915 178.79 18.5574C179.863 13.4788 180.4 10.9172 180.4 10.8725C180.4 10.8188 180.351 10.792 180.252 10.792H179.662L179.702 10.5506H182.17L182.13 10.792H181.526C181.41 10.792 181.334 10.8546 181.298 10.9798ZM183.216 16.6529L183.243 17.8868C183.261 18.4412 183.409 18.7184 183.686 18.7184C183.865 18.7184 184.012 18.6245 184.128 18.4367C184.254 18.2489 184.316 18.0075 184.316 17.7125L184.571 17.6722C184.571 18.1282 184.45 18.4904 184.209 18.7586C183.976 19.0268 183.681 19.1609 183.324 19.1609C182.689 19.1609 182.354 18.6826 182.318 17.7259L182.264 16.4115C182.237 15.8304 182.117 15.428 181.902 15.2045C181.687 14.972 181.334 14.8558 180.842 14.8558L180.91 14.6412L184.732 10.792H184.102L184.142 10.5506H185.872L185.832 10.792H185.483C185.34 10.792 185.21 10.8546 185.094 10.9798L181.459 14.6144C182.103 14.6233 182.55 14.8111 182.801 15.1776C183.06 15.5442 183.198 16.036 183.216 16.6529ZM189.444 13.0452C189.918 13.0452 190.271 13.1614 190.504 13.3939C190.745 13.6174 190.866 13.9438 190.866 14.3729C190.866 14.7932 190.7 15.1598 190.37 15.4727C189.806 16.0092 188.97 16.2774 187.862 16.2774C187.531 16.2774 187.245 16.2506 187.003 16.1969V15.9421C187.316 15.9868 187.576 16.0092 187.781 16.0092C188.523 16.0092 189.096 15.8214 189.498 15.4459C189.909 15.0704 190.115 14.6591 190.115 14.212C190.115 13.9706 190.048 13.7694 189.914 13.6085C189.788 13.4475 189.574 13.3671 189.27 13.3671C188.975 13.3671 188.671 13.5056 188.358 13.7828C188.054 14.06 187.812 14.4042 187.634 14.8155C187.276 15.6828 187.097 16.4339 187.097 17.0687C187.097 18.2489 187.455 18.8391 188.17 18.8391C189.055 18.8391 189.704 18.3562 190.115 17.3906L190.329 17.4442C190.115 17.9896 189.802 18.4144 189.391 18.7184C188.988 19.0134 188.532 19.1609 188.023 19.1609C187.513 19.1609 187.084 18.9732 186.735 18.5976C186.386 18.2221 186.212 17.7169 186.212 17.0821C186.212 16.4473 186.333 15.8348 186.574 15.2447C186.816 14.6456 187.191 14.1315 187.701 13.7024C188.21 13.2642 188.792 13.0452 189.444 13.0452ZM193.957 18.7184C194.529 18.7184 195.097 18.3026 195.66 17.4711C196.232 16.6306 196.518 15.8482 196.518 15.124C196.518 14.3908 196.286 13.7918 195.821 13.3268C196.045 13.1391 196.25 13.0452 196.438 13.0452C196.787 13.0452 196.961 13.5369 196.961 14.5205C196.961 15.504 196.854 16.4071 196.639 17.2296C196.425 18.0433 196.143 18.7362 195.794 19.3085C195.454 19.8807 195.065 20.3769 194.627 20.7972C193.778 21.6376 192.915 22.0579 192.039 22.0579C191.592 22.0579 191.257 21.9551 191.033 21.7494C190.801 21.5438 190.684 21.3024 190.684 21.0252C190.684 20.748 190.742 20.4976 190.859 20.2741C190.966 20.0506 191.131 19.9388 191.355 19.9388C191.578 19.9388 191.762 20.0014 191.905 20.1266C191.645 20.4574 191.516 20.7614 191.516 21.0386C191.516 21.4856 191.753 21.7092 192.227 21.7092C192.54 21.7092 192.902 21.5929 193.313 21.3605C193.724 21.1369 194.14 20.8151 194.56 20.3948C194.981 19.9835 195.365 19.4292 195.714 18.7318C196.071 18.0344 196.322 17.2788 196.465 16.4652C196.17 17.2431 195.772 17.8868 195.271 18.3965C194.779 18.9061 194.212 19.1609 193.568 19.1609C193.237 19.1609 192.969 19.0492 192.763 18.8256C192.566 18.5932 192.468 18.2802 192.468 17.8868C192.468 17.4934 192.616 16.8049 192.911 15.8214C193.215 14.8379 193.367 14.1941 193.367 13.8901C193.367 13.5772 193.25 13.4207 193.018 13.4207C192.848 13.4207 192.669 13.5369 192.481 13.7694C192.294 13.9929 192.142 14.3148 192.025 14.7351L191.797 14.6814C192.128 13.5906 192.607 13.0452 193.233 13.0452C193.814 13.0452 194.104 13.3581 194.104 13.984C194.104 14.2344 193.966 14.8558 193.689 15.8482C193.411 16.8407 193.273 17.4934 193.273 17.8064C193.273 18.4144 193.501 18.7184 193.957 18.7184ZM202.71 18.7586L202.348 16.1701H199.384L197.936 18.7586H198.767L198.727 19H196.796L196.849 18.7586H197.319C197.444 18.7586 197.538 18.696 197.6 18.5708L202.107 10.5506H202.536L203.636 18.5708C203.654 18.696 203.721 18.7586 203.837 18.7586H204.306L204.266 19H201.839L201.879 18.7586H202.71ZM201.772 11.9186L199.585 15.7946H202.295L201.772 11.9186ZM206.503 18.3428C206.503 18.6379 206.614 18.7854 206.838 18.7854C207.008 18.7854 207.191 18.6736 207.388 18.4501C207.585 18.2176 207.754 17.8913 207.898 17.4711L208.112 17.5247C207.728 18.6155 207.227 19.1609 206.61 19.1609C206.056 19.1609 205.778 18.8122 205.778 18.1148C205.778 17.4085 206.364 14.9318 207.535 10.6847L206.677 10.7518L206.664 10.5238C207.281 10.4433 207.857 10.3315 208.394 10.1885L208.582 10.3226C208.206 11.4224 207.763 12.9155 207.254 14.8021C206.753 16.6798 206.503 17.86 206.503 18.3428ZM210.293 18.2221L212.426 18.7049C212.891 18.8122 213.221 18.9553 213.418 19.1341C213.615 19.3219 213.713 19.5767 213.713 19.8986C213.713 20.4172 213.427 20.9045 212.855 21.3605C212.292 21.8254 211.648 22.0579 210.924 22.0579C210.199 22.0579 209.609 21.8925 209.153 21.5616C208.706 21.2308 208.483 20.8374 208.483 20.3814C208.483 20.0685 208.59 19.7689 208.805 19.4828C209.01 19.1967 209.319 18.9553 209.73 18.7586L209.998 18.8391C209.73 18.9732 209.524 19.1744 209.381 19.4426C209.238 19.7198 209.167 20.0104 209.167 20.3144C209.167 20.8151 209.332 21.1861 209.663 21.4275C209.994 21.6779 210.418 21.8031 210.937 21.8031C211.465 21.8031 211.947 21.6511 212.385 21.3471C212.833 21.052 213.056 20.6944 213.056 20.2741C213.056 19.8539 212.783 19.5812 212.238 19.456L209.931 18.9464C209.672 18.8927 209.471 18.772 209.328 18.5842C209.185 18.3965 209.113 18.1685 209.113 17.9002C209.113 17.632 209.225 17.3861 209.448 17.1626C209.672 16.9391 209.98 16.8273 210.374 16.8273H211.728L211.688 17.0151H210.374C210.186 17.0151 210.034 17.0732 209.918 17.1894C209.81 17.3056 209.757 17.4442 209.757 17.6052C209.757 17.936 209.936 18.1416 210.293 18.2221ZM212.546 13.2329L212.533 13.0452C212.783 13.0452 212.993 12.9871 213.163 12.8708C213.333 12.7456 213.418 12.5847 213.418 12.388C213.418 12.1913 213.275 12.0035 212.989 11.8247C213.132 11.5207 213.302 11.3687 213.499 11.3687C213.704 11.3687 213.856 11.4268 213.955 11.5431C214.062 11.6593 214.116 11.8068 214.116 11.9856C214.116 12.2986 213.973 12.5847 213.686 12.844C213.409 13.1033 213.029 13.2329 212.546 13.2329ZM210.092 15.5532C210.092 14.8915 210.325 14.3104 210.789 13.8096C211.263 13.3 211.845 13.0452 212.533 13.0452C213.016 13.0452 213.396 13.1748 213.673 13.4341C213.959 13.6845 214.102 14.0421 214.102 14.5071C214.102 15.2581 213.861 15.8661 213.378 16.3311C212.895 16.7871 212.332 17.0151 211.688 17.0151C211.196 17.0151 210.807 16.8899 210.521 16.6395C210.235 16.3802 210.092 16.0181 210.092 15.5532ZM212.52 13.3C212.028 13.3 211.625 13.5727 211.313 14.1181C211 14.6546 210.843 15.1329 210.843 15.5532C210.843 15.9734 210.919 16.2819 211.071 16.4786C211.232 16.6664 211.442 16.7602 211.701 16.7602C212.095 16.7602 212.47 16.5367 212.828 16.0896C213.186 15.6426 213.365 15.0793 213.365 14.3998C213.365 14.06 213.284 13.7918 213.123 13.5951C212.971 13.3984 212.77 13.3 212.52 13.3ZM215.32 17.0553C215.32 16.1344 215.588 15.2536 216.124 14.4132C216.384 14.0108 216.723 13.6845 217.144 13.4341C217.564 13.1748 218.042 13.0452 218.579 13.0452C219.124 13.0452 219.567 13.2285 219.907 13.5951C220.246 13.9616 220.416 14.4624 220.416 15.0972C220.416 15.732 220.3 16.3489 220.067 16.948C219.835 17.5471 219.468 18.0656 218.968 18.5038C218.467 18.9419 217.904 19.1609 217.278 19.1609C216.652 19.1609 216.169 18.9776 215.829 18.6111C215.49 18.2445 215.32 17.7259 215.32 17.0553ZM218.471 13.3402C217.989 13.3402 217.559 13.5816 217.184 14.0645C216.817 14.5473 216.554 15.0748 216.393 15.6471C216.241 16.2193 216.165 16.7558 216.165 17.2565C216.165 17.7482 216.263 18.1416 216.46 18.4367C216.665 18.7228 216.943 18.8659 217.291 18.8659C217.649 18.8659 217.98 18.7228 218.284 18.4367C218.597 18.1506 218.843 17.7974 219.021 17.3772C219.388 16.5188 219.571 15.7767 219.571 15.1508C219.571 14.516 219.473 14.0555 219.276 13.7694C219.079 13.4833 218.811 13.3402 218.471 13.3402Z" fill="#6082FA"/>
<path opacity="0.86" d="M229.739 4.52706C228.345 5.55976 227.258 7.00823 226.48 8.87247C225.702 10.7233 225.314 12.6412 225.314 14.6261C225.314 16.5976 225.77 18.0461 226.682 18.9715L226.4 19.2733C225.555 18.7502 224.911 18.0126 224.469 17.0604C224.039 16.1081 223.825 15.0486 223.825 13.8818C223.825 11.9639 224.348 10.0929 225.394 8.26894C226.454 6.43153 227.855 5.08365 229.599 4.22529L229.739 4.52706ZM234.536 4.60753C235.314 4.25882 236.139 4.08447 237.011 4.08447C238.338 4.08447 239.385 4.48682 240.149 5.29153C240.927 6.08282 241.316 7.20271 241.316 8.65118C241.316 9.63024 241.155 10.6227 240.833 11.6286C240.511 12.6211 240.062 13.5398 239.485 14.3847C238.908 15.2296 238.157 15.9204 237.232 16.4568C236.307 16.9799 235.24 17.2414 234.033 17.2414C232.826 17.2414 231.834 16.8391 231.056 16.0344C230.291 15.2296 229.909 14.0628 229.909 12.5339C229.909 11.0049 230.325 9.46259 231.156 7.90682C232.001 6.35106 233.128 5.25129 234.536 4.60753ZM239.083 5.63353C238.546 4.94953 237.836 4.60753 236.95 4.60753C236.065 4.60753 235.247 4.89588 234.496 5.47259C233.745 6.03588 233.148 6.75341 232.706 7.62518C231.78 9.42235 231.317 11.1659 231.317 12.8558C231.317 14.0762 231.579 15.0285 232.102 15.7125C232.638 16.3831 233.349 16.7184 234.234 16.7184C235.133 16.7184 235.958 16.4367 236.709 15.8734C237.46 15.2967 238.064 14.5792 238.52 13.7208C239.445 11.9371 239.908 10.1935 239.908 8.49024C239.908 7.26976 239.633 6.31753 239.083 5.63353ZM246.083 8.24882L246.364 8.45C245.721 9.92529 245.157 11.6219 244.675 13.5398H244.836L245.157 12.6546C245.788 10.9379 246.411 9.74423 247.028 9.07365C247.645 8.40306 248.182 8.06776 248.638 8.06776C249.094 8.06776 249.429 8.21529 249.644 8.51035C249.872 8.80541 249.986 9.18765 249.986 9.65706C249.986 10.1265 249.898 10.5355 249.724 10.8842C249.55 11.2329 249.295 11.4073 248.96 11.4073C248.638 11.4073 248.37 11.3 248.155 11.0854C248.289 10.9111 248.416 10.6562 248.537 10.3209C248.658 9.98565 248.718 9.69059 248.718 9.43576C248.718 9.04682 248.557 8.85235 248.235 8.85235C247.9 8.85235 247.484 9.18094 246.988 9.83812C245.902 11.2598 244.983 13.6471 244.232 17L242.824 17.1207L244.795 8.99318L243.508 9.09376L243.488 8.75176C244.413 8.63106 245.278 8.46341 246.083 8.24882ZM256.787 16.0142C256.787 16.4568 256.955 16.6781 257.29 16.6781C257.545 16.6781 257.82 16.5105 258.115 16.1752C258.41 15.8265 258.665 15.3369 258.88 14.7066L259.201 14.7871C258.625 16.4233 257.874 17.2414 256.948 17.2414C256.117 17.2414 255.701 16.7184 255.701 15.6722C255.701 14.6127 256.579 10.8976 258.336 4.52706L257.049 4.62765L257.029 4.28565C257.954 4.16494 258.819 3.99729 259.624 3.78271L259.906 3.98388C259.342 5.63353 258.678 7.87329 257.914 10.7032C257.163 13.5196 256.787 15.29 256.787 16.0142ZM255.902 14.7669H255.701C254.869 16.4166 253.904 17.2414 252.804 17.2414C252.174 17.2414 251.644 16.9665 251.215 16.4166C250.799 15.8533 250.591 15.1693 250.591 14.3646C250.591 13.5465 250.698 12.7887 250.913 12.0913C251.128 11.3939 251.429 10.7434 251.818 10.1399C252.207 9.52294 252.724 9.02671 253.367 8.65118C254.011 8.26223 254.668 8.06776 255.339 8.06776C256.626 8.06776 257.538 8.63106 258.075 9.75765L257.793 10.1198C257.163 9.07365 256.378 8.55059 255.439 8.55059C254.863 8.55059 254.333 8.75847 253.85 9.17423C253.381 9.59 253.012 10.1131 252.744 10.7434C252.194 12.0309 251.919 13.2447 251.919 14.3847C251.919 15.1358 252.04 15.6991 252.281 16.0746C252.536 16.4501 252.871 16.6379 253.287 16.6379C253.864 16.6379 254.454 16.1551 255.057 15.1894C255.661 14.2104 256.197 12.8155 256.667 11.0049L255.902 14.7669ZM265.901 8.06776C266.611 8.06776 267.141 8.24212 267.49 8.59082C267.852 8.92612 268.033 9.41565 268.033 10.0594C268.033 10.6898 267.785 11.2396 267.289 11.7091C266.444 12.5138 265.19 12.9161 263.527 12.9161C263.03 12.9161 262.601 12.8759 262.239 12.7954V12.4132C262.709 12.4802 263.098 12.5138 263.406 12.5138C264.519 12.5138 265.378 12.2321 265.981 11.6688C266.598 11.1055 266.906 10.4886 266.906 9.818C266.906 9.45588 266.806 9.15412 266.605 8.91271C266.417 8.67129 266.095 8.55059 265.639 8.55059C265.196 8.55059 264.74 8.75847 264.271 9.17423C263.815 9.59 263.453 10.1064 263.185 10.7233C262.648 12.0242 262.38 13.1508 262.38 14.1031C262.38 15.8734 262.916 16.7586 263.989 16.7586C265.317 16.7586 266.29 16.0344 266.906 14.5859L267.228 14.6664C266.906 15.4845 266.437 16.1215 265.82 16.5775C265.217 17.0201 264.533 17.2414 263.768 17.2414C263.004 17.2414 262.36 16.9598 261.837 16.3965C261.314 15.8332 261.052 15.0754 261.052 14.1232C261.052 13.1709 261.233 12.2522 261.595 11.3671C261.958 10.4685 262.521 9.69729 263.285 9.05353C264.05 8.39635 264.922 8.06776 265.901 8.06776ZM272.81 8.24882L273.092 8.45C272.448 9.92529 271.885 11.6219 271.402 13.5398H271.563L271.885 12.6546C272.515 10.9379 273.139 9.74423 273.756 9.07365C274.373 8.40306 274.909 8.06776 275.365 8.06776C275.821 8.06776 276.156 8.21529 276.371 8.51035C276.599 8.80541 276.713 9.18765 276.713 9.65706C276.713 10.1265 276.626 10.5355 276.451 10.8842C276.277 11.2329 276.022 11.4073 275.687 11.4073C275.365 11.4073 275.097 11.3 274.882 11.0854C275.016 10.9111 275.144 10.6562 275.265 10.3209C275.385 9.98565 275.446 9.69059 275.446 9.43576C275.446 9.04682 275.285 8.85235 274.963 8.85235C274.627 8.85235 274.212 9.18094 273.715 9.83812C272.629 11.2598 271.71 13.6471 270.959 17L269.551 17.1207L271.523 8.99318L270.235 9.09376L270.215 8.75176C271.14 8.63106 272.005 8.46341 272.81 8.24882ZM277.681 16.9396C277.479 16.7251 277.379 16.4702 277.379 16.1752C277.379 15.8801 277.479 15.632 277.681 15.4308C277.895 15.2162 278.15 15.1089 278.445 15.1089C278.74 15.1089 278.988 15.2162 279.189 15.4308C279.404 15.632 279.511 15.8801 279.511 16.1752C279.511 16.4702 279.404 16.7251 279.189 16.9396C278.988 17.1408 278.74 17.2414 278.445 17.2414C278.15 17.2414 277.895 17.1408 277.681 16.9396ZM286.439 8.06776C287.15 8.06776 287.68 8.24212 288.029 8.59082C288.391 8.92612 288.572 9.41565 288.572 10.0594C288.572 10.6898 288.324 11.2396 287.828 11.7091C286.983 12.5138 285.729 12.9161 284.066 12.9161C283.569 12.9161 283.14 12.8759 282.778 12.7954V12.4132C283.247 12.4802 283.636 12.5138 283.945 12.5138C285.058 12.5138 285.916 12.2321 286.52 11.6688C287.137 11.1055 287.445 10.4886 287.445 9.818C287.445 9.45588 287.345 9.15412 287.144 8.91271C286.956 8.67129 286.634 8.55059 286.178 8.55059C285.735 8.55059 285.279 8.75847 284.81 9.17423C284.354 9.59 283.992 10.1064 283.724 10.7233C283.187 12.0242 282.919 13.1508 282.919 14.1031C282.919 15.8734 283.455 16.7586 284.528 16.7586C285.856 16.7586 286.828 16.0344 287.445 14.5859L287.767 14.6664C287.445 15.4845 286.976 16.1215 286.359 16.5775C285.755 17.0201 285.071 17.2414 284.307 17.2414C283.542 17.2414 282.899 16.9598 282.376 16.3965C281.853 15.8332 281.591 15.0754 281.591 14.1232C281.591 13.1709 281.772 12.2522 282.134 11.3671C282.496 10.4685 283.06 9.69729 283.824 9.05353C284.589 8.39635 285.46 8.06776 286.439 8.06776ZM298.197 9.89847C298.197 10.4752 297.869 11.5347 297.212 13.0771C296.568 14.6194 296.246 15.6052 296.246 16.0344C296.246 16.4635 296.414 16.6781 296.749 16.6781C297.004 16.6781 297.279 16.5105 297.574 16.1752C297.869 15.8265 298.124 15.3369 298.338 14.7066L298.66 14.7871C298.083 16.4233 297.332 17.2414 296.407 17.2414C295.575 17.2414 295.16 16.7854 295.16 15.8734C295.16 15.4845 295.461 14.5188 296.065 12.9765C296.682 11.4341 296.99 10.4416 296.99 9.99906C296.99 9.15412 296.682 8.73165 296.065 8.73165C295.394 8.73165 294.67 9.27482 293.892 10.3612C292.994 11.6621 292.196 13.8751 291.498 17L290.09 17.1207L292.062 8.99318L290.774 9.09376L290.754 8.75176C291.679 8.63106 292.544 8.46341 293.349 8.24882L293.631 8.45C292.987 9.92529 292.424 11.6219 291.941 13.5398H292.102L292.424 12.6546C293.148 10.6294 293.932 9.31506 294.777 8.71153C295.18 8.44329 295.508 8.26894 295.763 8.18847C296.031 8.108 296.36 8.06776 296.749 8.06776C297.151 8.06776 297.493 8.22871 297.775 8.55059C298.057 8.87247 298.197 9.32176 298.197 9.89847ZM305.257 8.55059C304.707 8.55059 304.198 8.75847 303.728 9.17423C303.272 9.59 302.91 10.1064 302.642 10.7233C302.106 12.0242 301.837 13.1508 301.837 14.1031C301.837 15.8734 302.374 16.7586 303.447 16.7586C304.774 16.7586 305.747 16.0344 306.364 14.5859L306.686 14.6664C306.364 15.4845 305.894 16.1215 305.277 16.5775C304.674 17.0201 303.99 17.2414 303.225 17.2414C302.461 17.2414 301.817 16.9598 301.294 16.3965C300.771 15.8332 300.51 15.0754 300.51 14.1232C300.51 13.1709 300.691 12.2522 301.053 11.3671C301.415 10.4685 301.978 9.69729 302.743 9.05353C303.507 8.39635 304.379 8.06776 305.358 8.06776C306.028 8.06776 306.531 8.24212 306.867 8.59082C307.215 8.92612 307.39 9.33518 307.39 9.818C307.39 10.2874 307.303 10.7099 307.128 11.0854C306.967 11.4609 306.706 11.6487 306.344 11.6487C305.995 11.6487 305.733 11.5414 305.559 11.3268C305.948 10.7367 306.142 10.16 306.142 9.59671C306.142 8.89929 305.847 8.55059 305.257 8.55059ZM312.268 8.24882L312.549 8.45C311.905 9.92529 311.342 11.6219 310.859 13.5398H311.02L311.342 12.6546C311.972 10.9379 312.596 9.74423 313.213 9.07365C313.83 8.40306 314.366 8.06776 314.822 8.06776C315.278 8.06776 315.614 8.21529 315.828 8.51035C316.056 8.80541 316.17 9.18765 316.17 9.65706C316.17 10.1265 316.083 10.5355 315.909 10.8842C315.734 11.2329 315.48 11.4073 315.144 11.4073C314.822 11.4073 314.554 11.3 314.34 11.0854C314.474 10.9111 314.601 10.6562 314.722 10.3209C314.843 9.98565 314.903 9.69059 314.903 9.43576C314.903 9.04682 314.742 8.85235 314.42 8.85235C314.085 8.85235 313.669 9.18094 313.173 9.83812C312.086 11.2598 311.168 13.6471 310.417 17L309.008 17.1207L310.98 8.99318L309.692 9.09376L309.672 8.75176C310.598 8.63106 311.463 8.46341 312.268 8.24882ZM319.995 16.5775C320.853 16.5775 321.705 15.9539 322.55 14.7066C323.408 13.4459 323.837 12.2724 323.837 11.186C323.837 10.0862 323.488 9.18765 322.791 8.49024C323.126 8.20859 323.435 8.06776 323.716 8.06776C324.239 8.06776 324.501 8.80541 324.501 10.2807C324.501 11.756 324.34 13.1106 324.018 14.3445C323.696 15.5649 323.274 16.6044 322.751 17.4627C322.241 18.3211 321.658 19.0654 321 19.6958C319.726 20.9565 318.432 21.5868 317.118 21.5868C316.447 21.5868 315.944 21.4326 315.609 21.1241C315.26 20.8156 315.086 20.4535 315.086 20.0378C315.086 19.622 315.173 19.2465 315.347 18.9112C315.508 18.5759 315.756 18.4082 316.092 18.4082C316.427 18.4082 316.702 18.5021 316.917 18.6899C316.528 19.1861 316.333 19.6421 316.333 20.0579C316.333 20.7285 316.689 21.0638 317.399 21.0638C317.869 21.0638 318.412 20.8894 319.029 20.5407C319.646 20.2054 320.27 19.7226 320.9 19.0922C321.53 18.4753 322.107 17.6438 322.63 16.5976C323.166 15.5515 323.542 14.4182 323.757 13.1978C323.314 14.3646 322.717 15.3302 321.966 16.0947C321.228 16.8592 320.377 17.2414 319.411 17.2414C318.915 17.2414 318.513 17.0738 318.204 16.7385C317.909 16.3898 317.762 15.9204 317.762 15.3302C317.762 14.7401 317.983 13.7074 318.425 12.2321C318.881 10.7568 319.109 9.79118 319.109 9.33518C319.109 8.86576 318.935 8.63106 318.586 8.63106C318.332 8.63106 318.063 8.80541 317.782 9.15412C317.5 9.48941 317.272 9.97224 317.098 10.6026L316.756 10.5221C317.252 8.88588 317.969 8.06776 318.908 8.06776C319.78 8.06776 320.216 8.53718 320.216 9.476C320.216 9.85153 320.008 10.7836 319.592 12.2724C319.176 13.7611 318.969 14.7401 318.969 15.2095C318.969 16.1215 319.311 16.5775 319.995 16.5775ZM330.047 8.24882L330.329 8.45C329.685 9.92529 329.122 11.6219 328.639 13.5398H328.8L329.122 12.6546C330.235 9.59671 331.509 8.06776 332.944 8.06776C333.521 8.06776 334.01 8.34941 334.412 8.91271C334.828 9.476 335.036 10.16 335.036 10.9647C335.036 11.7694 334.929 12.5205 334.714 13.2179C334.513 13.9019 334.218 14.5456 333.829 15.1492C333.44 15.7393 332.93 16.2221 332.3 16.5976C331.67 16.9732 330.972 17.1609 330.208 17.1609C329.041 17.1609 328.129 16.6446 327.472 15.6119L327.613 15.2699C328.256 16.2489 329.101 16.7385 330.148 16.7385C330.751 16.7385 331.288 16.5373 331.757 16.1349C332.24 15.7326 332.609 15.2296 332.863 14.6261C333.373 13.3922 333.628 12.1852 333.628 11.0049C333.628 10.3209 333.527 9.79118 333.326 9.41565C333.138 9.02671 332.89 8.83223 332.582 8.83223C331.951 8.83223 331.241 9.44247 330.449 10.6629C329.671 11.8834 328.967 13.7879 328.337 16.3764L327.13 21.3454L325.722 21.4661L328.759 8.99318L327.472 9.09376L327.452 8.75176C328.377 8.63106 329.242 8.46341 330.047 8.24882ZM337.18 9.03341L337.281 8.65118H341.747L341.646 9.03341H337.18ZM340.379 6.1767L340.661 6.37788C340.352 7.31671 339.936 8.792 339.413 10.8038C338.904 12.8155 338.595 14.1165 338.488 14.7066C338.381 15.2833 338.327 15.7192 338.327 16.0142C338.327 16.4568 338.495 16.6781 338.83 16.6781C339.085 16.6781 339.36 16.5105 339.655 16.1752C339.95 15.8265 340.205 15.3369 340.419 14.7066L340.741 14.7871C340.164 16.4233 339.413 17.2414 338.488 17.2414C337.656 17.2414 337.241 16.7385 337.241 15.7326C337.241 14.9011 337.737 12.5808 338.729 8.77188L337.281 8.65118C338.019 8.65118 338.615 8.47682 339.071 8.12812C339.527 7.766 339.963 7.11553 340.379 6.1767ZM347.448 8.06776C348.159 8.06776 348.688 8.24212 349.037 8.59082C349.399 8.92612 349.58 9.41565 349.58 10.0594C349.58 10.6898 349.332 11.2396 348.836 11.7091C347.991 12.5138 346.737 12.9161 345.074 12.9161C344.578 12.9161 344.148 12.8759 343.786 12.7954V12.4132C344.256 12.4802 344.645 12.5138 344.953 12.5138C346.066 12.5138 346.925 12.2321 347.528 11.6688C348.145 11.1055 348.454 10.4886 348.454 9.818C348.454 9.45588 348.353 9.15412 348.152 8.91271C347.964 8.67129 347.642 8.55059 347.186 8.55059C346.744 8.55059 346.288 8.75847 345.818 9.17423C345.362 9.59 345 10.1064 344.732 10.7233C344.195 12.0242 343.927 13.1508 343.927 14.1031C343.927 15.8734 344.464 16.7586 345.537 16.7586C346.864 16.7586 347.837 16.0344 348.454 14.5859L348.776 14.6664C348.454 15.4845 347.984 16.1215 347.367 16.5775C346.764 17.0201 346.08 17.2414 345.315 17.2414C344.551 17.2414 343.907 16.9598 343.384 16.3965C342.861 15.8332 342.599 15.0754 342.599 14.1232C342.599 13.1709 342.78 12.2522 343.143 11.3671C343.505 10.4685 344.068 9.69729 344.832 9.05353C345.597 8.39635 346.469 8.06776 347.448 8.06776ZM357.194 16.0142C357.194 16.4568 357.362 16.6781 357.697 16.6781C357.952 16.6781 358.227 16.5105 358.522 16.1752C358.817 15.8265 359.072 15.3369 359.286 14.7066L359.608 14.7871C359.031 16.4233 358.28 17.2414 357.355 17.2414C356.523 17.2414 356.108 16.7184 356.108 15.6722C356.108 14.6127 356.986 10.8976 358.743 4.52706L357.456 4.62765L357.435 4.28565C358.361 4.16494 359.226 3.99729 360.031 3.78271L360.312 3.98388C359.749 5.63353 359.085 7.87329 358.321 10.7032C357.57 13.5196 357.194 15.29 357.194 16.0142ZM356.309 14.7669H356.108C355.276 16.4166 354.31 17.2414 353.211 17.2414C352.58 17.2414 352.051 16.9665 351.621 16.4166C351.206 15.8533 350.998 15.1693 350.998 14.3646C350.998 13.5465 351.105 12.7887 351.32 12.0913C351.534 11.3939 351.836 10.7434 352.225 10.1399C352.614 9.52294 353.13 9.02671 353.774 8.65118C354.418 8.26223 355.075 8.06776 355.746 8.06776C357.033 8.06776 357.945 8.63106 358.482 9.75765L358.2 10.1198C357.57 9.07365 356.785 8.55059 355.846 8.55059C355.269 8.55059 354.74 8.75847 354.257 9.17423C353.787 9.59 353.419 10.1131 353.15 10.7434C352.6 12.0309 352.326 13.2447 352.326 14.3847C352.326 15.1358 352.446 15.6991 352.688 16.0746C352.942 16.4501 353.278 16.6379 353.694 16.6379C354.27 16.6379 354.86 16.1551 355.464 15.1894C356.067 14.2104 356.604 12.8155 357.073 11.0049L356.309 14.7669ZM365.865 11.1458H364.597C363.873 14.5926 363.511 16.3696 363.511 16.4769C363.511 16.5842 363.585 16.6379 363.732 16.6379H365.02L364.959 17H360.855L360.916 16.6379H361.841C362.016 16.6379 362.123 16.5373 362.163 16.3361C363.772 8.71824 364.577 4.87576 364.577 4.80871C364.577 4.72823 364.503 4.688 364.356 4.688H363.471L363.531 4.32588H368.098C369.023 4.32588 369.788 4.56729 370.391 5.05012C371.008 5.51953 371.317 6.21694 371.317 7.14235C371.317 8.05435 370.981 8.86576 370.311 9.57659C369.654 10.2874 368.835 10.7635 367.856 11.0049C368.795 11.3671 369.265 12.098 369.265 13.1978C369.265 13.5867 369.198 14.1031 369.063 14.7468C368.943 15.3906 368.882 15.8064 368.882 15.9941C368.882 16.3696 369.03 16.5574 369.325 16.5574C369.62 16.5574 369.928 16.3495 370.25 15.9338C370.572 15.5046 370.861 14.9011 371.115 14.1232L371.457 14.2036C371.095 15.2766 370.693 16.0545 370.25 16.5373C369.808 17.0067 369.285 17.2414 368.681 17.2414C368.386 17.2414 368.138 17.1341 367.937 16.9195C367.736 16.6915 367.635 16.3764 367.635 15.974C367.635 15.5716 367.695 15.0553 367.816 14.4249C367.95 13.7946 368.017 13.2313 368.017 12.7351C368.017 11.6755 367.3 11.1458 365.865 11.1458ZM367.897 4.78859H365.965L364.698 10.6629H366.71C367.648 10.6629 368.426 10.2673 369.043 9.476C369.674 8.68471 369.989 7.84647 369.989 6.96129C369.989 6.33094 369.808 5.81459 369.446 5.41223C369.097 4.99647 368.581 4.78859 367.897 4.78859ZM378.124 8.06776C378.835 8.06776 379.365 8.24212 379.713 8.59082C380.075 8.92612 380.257 9.41565 380.257 10.0594C380.257 10.6898 380.008 11.2396 379.512 11.7091C378.667 12.5138 377.413 12.9161 375.75 12.9161C375.254 12.9161 374.825 12.8759 374.463 12.7954V12.4132C374.932 12.4802 375.321 12.5138 375.629 12.5138C376.743 12.5138 377.601 12.2321 378.205 11.6688C378.821 11.1055 379.13 10.4886 379.13 9.818C379.13 9.45588 379.029 9.15412 378.828 8.91271C378.64 8.67129 378.319 8.55059 377.863 8.55059C377.42 8.55059 376.964 8.75847 376.495 9.17423C376.039 9.59 375.676 10.1064 375.408 10.7233C374.872 12.0242 374.603 13.1508 374.603 14.1031C374.603 15.8734 375.14 16.7586 376.213 16.7586C377.541 16.7586 378.513 16.0344 379.13 14.5859L379.452 14.6664C379.13 15.4845 378.661 16.1215 378.044 16.5775C377.44 17.0201 376.756 17.2414 375.992 17.2414C375.227 17.2414 374.583 16.9598 374.06 16.3965C373.537 15.8332 373.276 15.0754 373.276 14.1232C373.276 13.1709 373.457 12.2522 373.819 11.3671C374.181 10.4685 374.744 9.69729 375.509 9.05353C376.273 8.39635 377.145 8.06776 378.124 8.06776ZM385.516 8.55059C385.007 8.55059 384.571 8.69812 384.209 8.99318C383.847 9.28823 383.666 9.66376 383.666 10.1198C383.666 10.5758 383.853 10.9915 384.229 11.3671C384.604 11.7426 385.014 12.0578 385.456 12.3126C385.899 12.554 386.308 12.8759 386.683 13.2782C387.059 13.6806 387.247 14.1098 387.247 14.5658C387.247 15.4241 386.911 16.088 386.241 16.5574C385.584 17.0134 384.786 17.2414 383.847 17.2414C382.908 17.2414 382.083 17.0201 381.372 16.5775C381.6 16.1215 381.815 15.3302 382.016 14.2036L382.358 14.264C382.264 14.8139 382.217 15.2498 382.217 15.5716C382.217 15.8801 382.365 16.1685 382.66 16.4367C382.968 16.6915 383.404 16.8189 383.967 16.8189C384.544 16.8189 385.027 16.6446 385.416 16.2959C385.818 15.9472 386.019 15.4912 386.019 14.9279C386.019 14.5658 385.838 14.2171 385.476 13.8818C385.128 13.5331 384.739 13.2447 384.309 13.0167C383.894 12.7887 383.505 12.4668 383.143 12.0511C382.794 11.6353 382.62 11.1793 382.62 10.6831C382.62 9.94541 382.908 9.32847 383.485 8.83223C384.075 8.32259 384.846 8.06776 385.798 8.06776C386.536 8.06776 387.267 8.24882 387.991 8.61094C387.924 8.75847 387.81 9.09376 387.649 9.61682C387.501 10.1399 387.387 10.6361 387.307 11.1055L386.965 11.0452C387.045 10.616 387.086 10.2069 387.086 9.818C387.086 9.41565 386.952 9.10718 386.683 8.89259C386.428 8.66459 386.04 8.55059 385.516 8.55059ZM395.151 15.7326C395.151 15.5314 395.184 15.2095 395.252 14.7669H395.151C394.293 16.4166 393.3 17.2414 392.174 17.2414C390.966 17.2414 390.363 16.5708 390.363 15.2296C390.363 14.3579 390.671 12.7418 391.288 10.3813L391.65 8.99318L390.363 9.09376L390.343 8.75176C391.268 8.63106 392.133 8.46341 392.938 8.24882L393.22 8.45C392.093 11.9505 391.53 14.1902 391.53 15.1693C391.53 16.1484 391.899 16.6379 392.636 16.6379C393.253 16.6379 393.857 16.1886 394.447 15.29C395.05 14.378 395.547 13.1575 395.936 11.6286L396.62 8.99318L395.332 9.09376L395.312 8.75176C396.237 8.63106 397.102 8.46341 397.907 8.24882L398.189 8.45C397.719 9.84482 397.277 11.3402 396.861 12.9362C396.445 14.5322 396.237 15.5582 396.237 16.0142C396.237 16.4568 396.405 16.6781 396.74 16.6781C396.995 16.6781 397.27 16.5105 397.565 16.1752C397.86 15.8265 398.115 15.3369 398.33 14.7066L398.651 14.7871C398.075 16.4233 397.324 17.2414 396.398 17.2414C395.567 17.2414 395.151 16.7385 395.151 15.7326ZM401.983 16.0142C401.983 16.4568 402.151 16.6781 402.486 16.6781C402.741 16.6781 403.016 16.5105 403.311 16.1752C403.606 15.8265 403.861 15.3369 404.075 14.7066L404.397 14.7871C403.82 16.4233 403.069 17.2414 402.144 17.2414C401.312 17.2414 400.897 16.7184 400.897 15.6722C400.897 14.6127 401.775 10.8976 403.532 4.52706L402.244 4.62765L402.224 4.28565C403.15 4.16494 404.015 3.99729 404.82 3.78271L405.101 3.98388C404.538 5.63353 403.874 7.87329 403.11 10.7032C402.358 13.5196 401.983 15.29 401.983 16.0142ZM406.784 9.03341L406.884 8.65118H411.35L411.25 9.03341H406.784ZM409.982 6.1767L410.264 6.37788C409.955 7.31671 409.54 8.792 409.017 10.8038C408.507 12.8155 408.198 14.1165 408.091 14.7066C407.984 15.2833 407.93 15.7192 407.93 16.0142C407.93 16.4568 408.098 16.6781 408.433 16.6781C408.688 16.6781 408.963 16.5105 409.258 16.1752C409.553 15.8265 409.808 15.3369 410.022 14.7066L410.344 14.7871C409.768 16.4233 409.017 17.2414 408.091 17.2414C407.26 17.2414 406.844 16.7385 406.844 15.7326C406.844 14.9011 407.34 12.5808 408.333 8.77188L406.884 8.65118C407.622 8.65118 408.219 8.47682 408.675 8.12812C409.131 7.766 409.566 7.11553 409.982 6.1767ZM411.498 19.2331C412.37 18.5625 412.806 17.8584 412.806 17.1207C412.806 16.7184 412.665 16.3898 412.384 16.1349C412.451 15.8265 412.605 15.5582 412.846 15.3302C413.101 15.1022 413.369 14.9882 413.651 14.9882C414.201 14.9882 414.476 15.2632 414.476 15.8131C414.476 16.3629 414.201 17.0134 413.651 17.7645C413.115 18.5289 412.451 19.1124 411.659 19.5147L411.498 19.2331ZM426.519 4.60753C427.297 4.25882 428.122 4.08447 428.994 4.08447C430.321 4.08447 431.367 4.48682 432.132 5.29153C432.91 6.08282 433.299 7.20271 433.299 8.65118C433.299 9.63024 433.138 10.6227 432.816 11.6286C432.494 12.6211 432.045 13.5398 431.468 14.3847C430.891 15.2296 430.14 15.9204 429.215 16.4568C428.289 16.9799 427.223 17.2414 426.016 17.2414C424.809 17.2414 423.817 16.8391 423.039 16.0344C422.274 15.2296 421.892 14.0628 421.892 12.5339C421.892 11.0049 422.308 9.46259 423.139 7.90682C423.984 6.35106 425.111 5.25129 426.519 4.60753ZM431.066 5.63353C430.529 4.94953 429.818 4.60753 428.933 4.60753C428.048 4.60753 427.23 4.89588 426.479 5.47259C425.728 6.03588 425.131 6.75341 424.688 7.62518C423.763 9.42235 423.3 11.1659 423.3 12.8558C423.3 14.0762 423.562 15.0285 424.085 15.7125C424.621 16.3831 425.332 16.7184 426.217 16.7184C427.116 16.7184 427.941 16.4367 428.692 15.8734C429.443 15.2967 430.046 14.5792 430.502 13.7208C431.428 11.9371 431.89 10.1935 431.89 8.49024C431.89 7.26976 431.616 6.31753 431.066 5.63353ZM438.066 8.24882L438.347 8.45C437.704 9.92529 437.14 11.6219 436.657 13.5398H436.818L437.14 12.6546C437.771 10.9379 438.394 9.74423 439.011 9.07365C439.628 8.40306 440.165 8.06776 440.621 8.06776C441.077 8.06776 441.412 8.21529 441.626 8.51035C441.854 8.80541 441.968 9.18765 441.968 9.65706C441.968 10.1265 441.881 10.5355 441.707 10.8842C441.533 11.2329 441.278 11.4073 440.942 11.4073C440.621 11.4073 440.352 11.3 440.138 11.0854C440.272 10.9111 440.399 10.6562 440.52 10.3209C440.641 9.98565 440.701 9.69059 440.701 9.43576C440.701 9.04682 440.54 8.85235 440.218 8.85235C439.883 8.85235 439.467 9.18094 438.971 9.83812C437.885 11.2598 436.966 13.6471 436.215 17L434.807 17.1207L436.778 8.99318L435.491 9.09376L435.47 8.75176C436.396 8.63106 437.261 8.46341 438.066 8.24882ZM448.77 16.0142C448.77 16.4568 448.938 16.6781 449.273 16.6781C449.528 16.6781 449.803 16.5105 450.098 16.1752C450.393 15.8265 450.648 15.3369 450.862 14.7066L451.184 14.7871C450.608 16.4233 449.856 17.2414 448.931 17.2414C448.1 17.2414 447.684 16.7184 447.684 15.6722C447.684 14.6127 448.562 10.8976 450.319 4.52706L449.032 4.62765L449.012 4.28565C449.937 4.16494 450.802 3.99729 451.607 3.78271L451.888 3.98388C451.325 5.63353 450.661 7.87329 449.897 10.7032C449.146 13.5196 448.77 15.29 448.77 16.0142ZM447.885 14.7669H447.684C446.852 16.4166 445.887 17.2414 444.787 17.2414C444.156 17.2414 443.627 16.9665 443.198 16.4166C442.782 15.8533 442.574 15.1693 442.574 14.3646C442.574 13.5465 442.681 12.7887 442.896 12.0913C443.11 11.3939 443.412 10.7434 443.801 10.1399C444.19 9.52294 444.706 9.02671 445.35 8.65118C445.994 8.26223 446.651 8.06776 447.322 8.06776C448.609 8.06776 449.521 8.63106 450.058 9.75765L449.776 10.1198C449.146 9.07365 448.361 8.55059 447.422 8.55059C446.846 8.55059 446.316 8.75847 445.833 9.17423C445.364 9.59 444.995 10.1131 444.726 10.7434C444.177 12.0309 443.902 13.2447 443.902 14.3847C443.902 15.1358 444.022 15.6991 444.264 16.0746C444.519 16.4501 444.854 16.6379 445.27 16.6379C445.846 16.6379 446.436 16.1551 447.04 15.1894C447.644 14.2104 448.18 12.8155 448.649 11.0049L447.885 14.7669ZM457.883 8.06776C458.594 8.06776 459.124 8.24212 459.473 8.59082C459.835 8.92612 460.016 9.41565 460.016 10.0594C460.016 10.6898 459.768 11.2396 459.272 11.7091C458.427 12.5138 457.173 12.9161 455.51 12.9161C455.013 12.9161 454.584 12.8759 454.222 12.7954V12.4132C454.691 12.4802 455.08 12.5138 455.389 12.5138C456.502 12.5138 457.36 12.2321 457.964 11.6688C458.581 11.1055 458.889 10.4886 458.889 9.818C458.889 9.45588 458.789 9.15412 458.588 8.91271C458.4 8.67129 458.078 8.55059 457.622 8.55059C457.179 8.55059 456.723 8.75847 456.254 9.17423C455.798 9.59 455.436 10.1064 455.168 10.7233C454.631 12.0242 454.363 13.1508 454.363 14.1031C454.363 15.8734 454.899 16.7586 455.972 16.7586C457.3 16.7586 458.272 16.0344 458.889 14.5859L459.211 14.6664C458.889 15.4845 458.42 16.1215 457.803 16.5775C457.199 17.0201 456.515 17.2414 455.751 17.2414C454.986 17.2414 454.343 16.9598 453.82 16.3965C453.297 15.8332 453.035 15.0754 453.035 14.1232C453.035 13.1709 453.216 12.2522 453.578 11.3671C453.94 10.4685 454.504 9.69729 455.268 9.05353C456.033 8.39635 456.904 8.06776 457.883 8.06776ZM464.793 8.24882L465.075 8.45C464.431 9.92529 463.868 11.6219 463.385 13.5398H463.546L463.868 12.6546C464.498 10.9379 465.122 9.74423 465.739 9.07365C466.356 8.40306 466.892 8.06776 467.348 8.06776C467.804 8.06776 468.139 8.21529 468.354 8.51035C468.582 8.80541 468.696 9.18765 468.696 9.65706C468.696 10.1265 468.609 10.5355 468.434 10.8842C468.26 11.2329 468.005 11.4073 467.67 11.4073C467.348 11.4073 467.08 11.3 466.865 11.0854C466.999 10.9111 467.127 10.6562 467.247 10.3209C467.368 9.98565 467.428 9.69059 467.428 9.43576C467.428 9.04682 467.268 8.85235 466.946 8.85235C466.61 8.85235 466.195 9.18094 465.698 9.83812C464.612 11.2598 463.693 13.6471 462.942 17L461.534 17.1207L463.506 8.99318L462.218 9.09376L462.198 8.75176C463.123 8.63106 463.988 8.46341 464.793 8.24882ZM469.663 16.9396C469.462 16.7251 469.362 16.4702 469.362 16.1752C469.362 15.8801 469.462 15.632 469.663 15.4308C469.878 15.2162 470.133 15.1089 470.428 15.1089C470.723 15.1089 470.971 15.2162 471.172 15.4308C471.387 15.632 471.494 15.8801 471.494 16.1752C471.494 16.4702 471.387 16.7251 471.172 16.9396C470.971 17.1408 470.723 17.2414 470.428 17.2414C470.133 17.2414 469.878 17.1408 469.663 16.9396ZM476.934 8.24882L477.215 8.45C476.571 9.92529 476.008 11.6219 475.525 13.5398H475.686L476.008 12.6546C476.639 10.9379 477.262 9.74423 477.879 9.07365C478.496 8.40306 479.033 8.06776 479.489 8.06776C479.945 8.06776 480.28 8.21529 480.494 8.51035C480.722 8.80541 480.836 9.18765 480.836 9.65706C480.836 10.1265 480.749 10.5355 480.575 10.8842C480.401 11.2329 480.146 11.4073 479.81 11.4073C479.489 11.4073 479.22 11.3 479.006 11.0854C479.14 10.9111 479.267 10.6562 479.388 10.3209C479.509 9.98565 479.569 9.69059 479.569 9.43576C479.569 9.04682 479.408 8.85235 479.086 8.85235C478.751 8.85235 478.335 9.18094 477.839 9.83812C476.753 11.2598 475.834 13.6471 475.083 17L473.675 17.1207L475.646 8.99318L474.359 9.09376L474.338 8.75176C475.264 8.63106 476.129 8.46341 476.934 8.24882ZM486.29 8.06776C487.001 8.06776 487.531 8.24212 487.879 8.59082C488.242 8.92612 488.423 9.41565 488.423 10.0594C488.423 10.6898 488.175 11.2396 487.678 11.7091C486.833 12.5138 485.579 12.9161 483.916 12.9161C483.42 12.9161 482.991 12.8759 482.629 12.7954V12.4132C483.098 12.4802 483.487 12.5138 483.796 12.5138C484.909 12.5138 485.767 12.2321 486.371 11.6688C486.988 11.1055 487.296 10.4886 487.296 9.818C487.296 9.45588 487.195 9.15412 486.994 8.91271C486.807 8.67129 486.485 8.55059 486.029 8.55059C485.586 8.55059 485.13 8.75847 484.661 9.17423C484.205 9.59 483.843 10.1064 483.574 10.7233C483.038 12.0242 482.77 13.1508 482.77 14.1031C482.77 15.8734 483.306 16.7586 484.379 16.7586C485.707 16.7586 486.679 16.0344 487.296 14.5859L487.618 14.6664C487.296 15.4845 486.827 16.1215 486.21 16.5775C485.606 17.0201 484.922 17.2414 484.158 17.2414C483.393 17.2414 482.749 16.9598 482.226 16.3965C481.703 15.8332 481.442 15.0754 481.442 14.1232C481.442 13.1709 481.623 12.2522 481.985 11.3671C482.347 10.4685 482.91 9.69729 483.675 9.05353C484.439 8.39635 485.311 8.06776 486.29 8.06776ZM493.683 8.55059C493.173 8.55059 492.737 8.69812 492.375 8.99318C492.013 9.28823 491.832 9.66376 491.832 10.1198C491.832 10.5758 492.02 10.9915 492.395 11.3671C492.771 11.7426 493.18 12.0578 493.622 12.3126C494.065 12.554 494.474 12.8759 494.849 13.2782C495.225 13.6806 495.413 14.1098 495.413 14.5658C495.413 15.4241 495.077 16.088 494.407 16.5574C493.75 17.0134 492.952 17.2414 492.013 17.2414C491.074 17.2414 490.249 17.0201 489.538 16.5775C489.766 16.1215 489.981 15.3302 490.182 14.2036L490.524 14.264C490.43 14.8139 490.383 15.2498 490.383 15.5716C490.383 15.8801 490.531 16.1685 490.826 16.4367C491.134 16.6915 491.57 16.8189 492.134 16.8189C492.71 16.8189 493.193 16.6446 493.582 16.2959C493.984 15.9472 494.186 15.4912 494.186 14.9279C494.186 14.5658 494.005 14.2171 493.642 13.8818C493.294 13.5331 492.905 13.2447 492.476 13.0167C492.06 12.7887 491.671 12.4668 491.309 12.0511C490.96 11.6353 490.786 11.1793 490.786 10.6831C490.786 9.94541 491.074 9.32847 491.651 8.83223C492.241 8.32259 493.012 8.06776 493.964 8.06776C494.702 8.06776 495.433 8.24882 496.157 8.61094C496.09 8.75847 495.976 9.09376 495.815 9.61682C495.668 10.1399 495.554 10.6361 495.473 11.1055L495.131 11.0452C495.212 10.616 495.252 10.2069 495.252 9.818C495.252 9.41565 495.118 9.10718 494.849 8.89259C494.595 8.66459 494.206 8.55059 493.683 8.55059ZM503.317 15.7326C503.317 15.5314 503.351 15.2095 503.418 14.7669H503.317C502.459 16.4166 501.466 17.2414 500.34 17.2414C499.133 17.2414 498.529 16.5708 498.529 15.2296C498.529 14.3579 498.838 12.7418 499.455 10.3813L499.817 8.99318L498.529 9.09376L498.509 8.75176C499.434 8.63106 500.299 8.46341 501.104 8.24882L501.386 8.45C500.259 11.9505 499.696 14.1902 499.696 15.1693C499.696 16.1484 500.065 16.6379 500.802 16.6379C501.419 16.6379 502.023 16.1886 502.613 15.29C503.217 14.378 503.713 13.1575 504.102 11.6286L504.786 8.99318L503.498 9.09376L503.478 8.75176C504.403 8.63106 505.269 8.46341 506.073 8.24882L506.355 8.45C505.885 9.84482 505.443 11.3402 505.027 12.9362C504.611 14.5322 504.403 15.5582 504.403 16.0142C504.403 16.4568 504.571 16.6781 504.906 16.6781C505.161 16.6781 505.436 16.5105 505.731 16.1752C506.026 15.8265 506.281 15.3369 506.496 14.7066L506.818 14.7871C506.241 16.4233 505.49 17.2414 504.564 17.2414C503.733 17.2414 503.317 16.7385 503.317 15.7326ZM510.149 16.0142C510.149 16.4568 510.317 16.6781 510.652 16.6781C510.907 16.6781 511.182 16.5105 511.477 16.1752C511.772 15.8265 512.027 15.3369 512.241 14.7066L512.563 14.7871C511.986 16.4233 511.235 17.2414 510.31 17.2414C509.478 17.2414 509.063 16.7184 509.063 15.6722C509.063 14.6127 509.941 10.8976 511.698 4.52706L510.411 4.62765L510.39 4.28565C511.316 4.16494 512.181 3.99729 512.986 3.78271L513.267 3.98388C512.704 5.63353 512.04 7.87329 511.276 10.7032C510.525 13.5196 510.149 15.29 510.149 16.0142ZM514.95 9.03341L515.05 8.65118H519.516L519.416 9.03341H514.95ZM518.148 6.1767L518.43 6.37788C518.122 7.31671 517.706 8.792 517.183 10.8038C516.673 12.8155 516.365 14.1165 516.257 14.7066C516.15 15.2833 516.096 15.7192 516.096 16.0142C516.096 16.4568 516.264 16.6781 516.599 16.6781C516.854 16.6781 517.129 16.5105 517.424 16.1752C517.719 15.8265 517.974 15.3369 518.189 14.7066L518.51 14.7871C517.934 16.4233 517.183 17.2414 516.257 17.2414C515.426 17.2414 515.01 16.7385 515.01 15.7326C515.01 14.9011 515.506 12.5808 516.499 8.77188L515.05 8.65118C515.788 8.65118 516.385 8.47682 516.841 8.12812C517.297 7.766 517.733 7.11553 518.148 6.1767ZM525.318 11.9505H523.346C522.729 14.7938 522.421 16.2892 522.421 16.4367C522.421 16.5708 522.494 16.6379 522.642 16.6379H524.111L524.05 17H519.765L519.825 16.6379H520.751C520.925 16.6379 521.033 16.5373 521.073 16.3361C522.682 8.71824 523.487 4.87576 523.487 4.80871C523.487 4.72823 523.413 4.688 523.266 4.688H522.38L522.441 4.32588H526.927C527.839 4.32588 528.59 4.58071 529.18 5.09035C529.77 5.6 530.065 6.30412 530.065 7.20271C530.065 8.62435 529.576 9.77106 528.597 10.6428C527.618 11.5146 526.525 11.9505 525.318 11.9505ZM526.706 4.78859H524.875L523.447 11.4878H525.338C526.303 11.4878 527.108 11.0184 527.752 10.0795C528.409 9.14071 528.738 8.15494 528.738 7.12223C528.738 6.45165 528.563 5.89506 528.215 5.45247C527.879 5.00988 527.376 4.78859 526.706 4.78859ZM534.032 8.24882L534.314 8.45C533.67 9.92529 533.107 11.6219 532.624 13.5398H532.785L533.107 12.6546C533.737 10.9379 534.361 9.74423 534.978 9.07365C535.595 8.40306 536.131 8.06776 536.587 8.06776C537.043 8.06776 537.379 8.21529 537.593 8.51035C537.821 8.80541 537.935 9.18765 537.935 9.65706C537.935 10.1265 537.848 10.5355 537.674 10.8842C537.499 11.2329 537.244 11.4073 536.909 11.4073C536.587 11.4073 536.319 11.3 536.104 11.0854C536.239 10.9111 536.366 10.6562 536.487 10.3209C536.607 9.98565 536.668 9.69059 536.668 9.43576C536.668 9.04682 536.507 8.85235 536.185 8.85235C535.85 8.85235 535.434 9.18094 534.938 9.83812C533.851 11.2598 532.933 13.6471 532.182 17L530.773 17.1207L532.745 8.99318L531.457 9.09376L531.437 8.75176C532.363 8.63106 533.228 8.46341 534.032 8.24882ZM541.417 6.056C541.243 5.88165 541.156 5.66706 541.156 5.41223C541.156 5.15741 541.243 4.94282 541.417 4.76847C541.592 4.59412 541.806 4.50694 542.061 4.50694C542.316 4.50694 542.531 4.59412 542.705 4.76847C542.879 4.94282 542.966 5.15741 542.966 5.41223C542.966 5.66706 542.879 5.88165 542.705 6.056C542.531 6.23035 542.316 6.31753 542.061 6.31753C541.806 6.31753 541.592 6.23035 541.417 6.056ZM539.144 15.7326C539.144 15.0218 539.634 12.7753 540.613 8.99318L539.325 9.09376L539.305 8.75176C540.23 8.63106 541.096 8.46341 541.9 8.24882L542.182 8.45C541.712 9.84482 541.27 11.3402 540.854 12.9362C540.438 14.5322 540.23 15.5582 540.23 16.0142C540.23 16.4568 540.398 16.6781 540.733 16.6781C540.988 16.6781 541.263 16.5105 541.558 16.1752C541.853 15.8265 542.108 15.3369 542.323 14.7066L542.645 14.7871C542.068 16.4233 541.317 17.2414 540.391 17.2414C539.56 17.2414 539.144 16.7385 539.144 15.7326ZM547.722 16.5775C548.58 16.5775 549.418 15.9539 550.236 14.7066C551.054 13.4593 551.464 12.3126 551.464 11.2665C551.464 10.2204 551.148 9.29494 550.518 8.49024C550.853 8.20859 551.155 8.06776 551.423 8.06776C551.692 8.06776 551.886 8.23541 552.007 8.57071C552.127 8.906 552.188 9.362 552.188 9.93871C552.188 10.502 552.074 11.2061 551.846 12.0511C551.618 12.896 551.303 13.7141 550.9 14.5054C550.498 15.2833 549.961 15.9338 549.291 16.4568C548.62 16.9799 547.903 17.2414 547.138 17.2414C546.642 17.2414 546.24 17.0738 545.931 16.7385C545.636 16.3898 545.489 15.9204 545.489 15.3302C545.489 14.7401 545.71 13.7074 546.152 12.2321C546.608 10.7568 546.836 9.79118 546.836 9.33518C546.836 8.86576 546.662 8.63106 546.313 8.63106C546.059 8.63106 545.79 8.80541 545.509 9.15412C545.227 9.48941 544.999 9.97224 544.825 10.6026L544.483 10.5221C544.979 8.88588 545.696 8.06776 546.635 8.06776C547.507 8.06776 547.943 8.53718 547.943 9.476C547.943 9.85153 547.735 10.7836 547.319 12.2724C546.904 13.7611 546.696 14.7401 546.696 15.2095C546.696 16.1215 547.038 16.5775 547.722 16.5775ZM562.051 8.45C561.581 9.84482 561.139 11.3402 560.723 12.9362C560.307 14.5322 560.099 15.5582 560.099 16.0142C560.099 16.4568 560.267 16.6781 560.602 16.6781C560.857 16.6781 561.132 16.5105 561.427 16.1752C561.722 15.8265 561.977 15.3369 562.192 14.7066L562.513 14.7871C561.937 16.4233 561.186 17.2414 560.26 17.2414C559.429 17.2414 559.013 16.7385 559.013 15.7326C559.013 15.5314 559.046 15.2095 559.114 14.7669H559.013C558.181 16.4166 557.216 17.2414 556.116 17.2414C555.486 17.2414 554.956 16.9665 554.527 16.4166C554.111 15.8533 553.903 15.1693 553.903 14.3646C553.903 13.5465 554.01 12.7887 554.225 12.0913C554.44 11.3939 554.741 10.7434 555.13 10.1399C555.519 9.52294 556.036 9.02671 556.679 8.65118C557.323 8.26223 558.027 8.06776 558.792 8.06776C559.784 8.06776 560.569 8.49023 561.145 9.33518L561.769 8.24882L562.051 8.45ZM556.599 16.6379C557.162 16.6379 557.732 16.202 558.309 15.3302C558.966 14.3244 559.576 12.6814 560.14 10.4014C560.26 9.86494 560.354 9.476 560.421 9.23459C559.952 8.77859 559.409 8.55059 558.792 8.55059C558.188 8.55059 557.645 8.75847 557.162 9.17423C556.693 9.59 556.324 10.1131 556.056 10.7434C555.506 12.0309 555.231 13.2447 555.231 14.3847C555.231 15.1358 555.352 15.6991 555.593 16.0746C555.848 16.4501 556.183 16.6379 556.599 16.6379ZM564.907 9.03341L565.008 8.65118H569.474L569.374 9.03341H564.907ZM568.106 6.1767L568.388 6.37788C568.079 7.31671 567.664 8.792 567.14 10.8038C566.631 12.8155 566.322 14.1165 566.215 14.7066C566.108 15.2833 566.054 15.7192 566.054 16.0142C566.054 16.4568 566.222 16.6781 566.557 16.6781C566.812 16.6781 567.087 16.5105 567.382 16.1752C567.677 15.8265 567.932 15.3369 568.146 14.7066L568.468 14.7871C567.892 16.4233 567.14 17.2414 566.215 17.2414C565.384 17.2414 564.968 16.7385 564.968 15.7326C564.968 14.9011 565.464 12.5808 566.456 8.77188L565.008 8.65118C565.746 8.65118 566.342 8.47682 566.798 8.12812C567.254 7.766 567.69 7.11553 568.106 6.1767ZM575.175 8.06776C575.886 8.06776 576.415 8.24212 576.764 8.59082C577.126 8.92612 577.307 9.41565 577.307 10.0594C577.307 10.6898 577.059 11.2396 576.563 11.7091C575.718 12.5138 574.464 12.9161 572.801 12.9161C572.305 12.9161 571.876 12.8759 571.513 12.7954V12.4132C571.983 12.4802 572.372 12.5138 572.68 12.5138C573.793 12.5138 574.652 12.2321 575.255 11.6688C575.872 11.1055 576.181 10.4886 576.181 9.818C576.181 9.45588 576.08 9.15412 575.879 8.91271C575.691 8.67129 575.369 8.55059 574.913 8.55059C574.471 8.55059 574.015 8.75847 573.545 9.17423C573.089 9.59 572.727 10.1064 572.459 10.7233C571.922 12.0242 571.654 13.1508 571.654 14.1031C571.654 15.8734 572.191 16.7586 573.264 16.7586C574.591 16.7586 575.564 16.0344 576.181 14.5859L576.503 14.6664C576.181 15.4845 575.711 16.1215 575.094 16.5775C574.491 17.0201 573.807 17.2414 573.042 17.2414C572.278 17.2414 571.634 16.9598 571.111 16.3965C570.588 15.8332 570.326 15.0754 570.326 14.1232C570.326 13.1709 570.508 12.2522 570.87 11.3671C571.232 10.4685 571.795 9.69729 572.56 9.05353C573.324 8.39635 574.196 8.06776 575.175 8.06776ZM583.191 4.96965L580.777 16.4367C580.777 16.5708 580.851 16.6379 580.998 16.6379H581.883L581.823 17H578.121L578.182 16.6379H579.107C579.281 16.6379 579.389 16.5373 579.429 16.3361C581.038 8.71824 581.843 4.87576 581.843 4.80871C581.843 4.72823 581.769 4.688 581.622 4.688H580.737L580.797 4.32588H584.499L584.438 4.688H583.533C583.359 4.688 583.245 4.78188 583.191 4.96965ZM586.068 13.4794L586.108 15.3302C586.135 16.1618 586.356 16.5775 586.772 16.5775C587.04 16.5775 587.261 16.4367 587.436 16.1551C587.623 15.8734 587.717 15.5113 587.717 15.0687L588.1 15.0084C588.1 15.6924 587.919 16.2355 587.556 16.6379C587.208 17.0402 586.765 17.2414 586.229 17.2414C585.276 17.2414 584.773 16.5239 584.72 15.0888L584.639 13.1173C584.599 12.2455 584.418 11.642 584.096 11.3067C583.774 10.958 583.245 10.7836 582.507 10.7836L582.607 10.4618L588.341 4.688H587.395L587.456 4.32588H590.051L589.991 4.688H589.468C589.253 4.688 589.059 4.78188 588.884 4.96965L583.432 10.4215C584.398 10.4349 585.069 10.7166 585.444 11.2665C585.833 11.8164 586.041 12.554 586.068 13.4794ZM595.41 8.06776C596.12 8.06776 596.65 8.24212 596.999 8.59082C597.361 8.92612 597.542 9.41565 597.542 10.0594C597.542 10.6898 597.294 11.2396 596.798 11.7091C595.953 12.5138 594.699 12.9161 593.036 12.9161C592.539 12.9161 592.11 12.8759 591.748 12.7954V12.4132C592.218 12.4802 592.607 12.5138 592.915 12.5138C594.028 12.5138 594.887 12.2321 595.49 11.6688C596.107 11.1055 596.415 10.4886 596.415 9.818C596.415 9.45588 596.315 9.15412 596.114 8.91271C595.926 8.67129 595.604 8.55059 595.148 8.55059C594.705 8.55059 594.249 8.75847 593.78 9.17423C593.324 9.59 592.962 10.1064 592.694 10.7233C592.157 12.0242 591.889 13.1508 591.889 14.1031C591.889 15.8734 592.425 16.7586 593.498 16.7586C594.826 16.7586 595.799 16.0344 596.415 14.5859L596.737 14.6664C596.415 15.4845 595.946 16.1215 595.329 16.5775C594.726 17.0201 594.042 17.2414 593.277 17.2414C592.513 17.2414 591.869 16.9598 591.346 16.3965C590.823 15.8332 590.561 15.0754 590.561 14.1232C590.561 13.1709 590.742 12.2522 591.104 11.3671C591.467 10.4685 592.03 9.69729 592.794 9.05353C593.559 8.39635 594.431 8.06776 595.41 8.06776ZM602.178 16.5775C603.037 16.5775 603.888 15.9539 604.733 14.7066C605.592 13.4459 606.021 12.2724 606.021 11.186C606.021 10.0862 605.672 9.18765 604.975 8.49024C605.31 8.20859 605.618 8.06776 605.9 8.06776C606.423 8.06776 606.685 8.80541 606.685 10.2807C606.685 11.756 606.524 13.1106 606.202 14.3445C605.88 15.5649 605.458 16.6044 604.934 17.4627C604.425 18.3211 603.841 19.0654 603.184 19.6958C601.91 20.9565 600.616 21.5868 599.302 21.5868C598.631 21.5868 598.128 21.4326 597.793 21.1241C597.444 20.8156 597.27 20.4535 597.27 20.0378C597.27 19.622 597.357 19.2465 597.531 18.9112C597.692 18.5759 597.94 18.4082 598.276 18.4082C598.611 18.4082 598.886 18.5021 599.1 18.6899C598.711 19.1861 598.517 19.6421 598.517 20.0579C598.517 20.7285 598.872 21.0638 599.583 21.0638C600.053 21.0638 600.596 20.8894 601.213 20.5407C601.83 20.2054 602.453 19.7226 603.084 19.0922C603.714 18.4753 604.291 17.6438 604.814 16.5976C605.35 15.5515 605.726 14.4182 605.94 13.1978C605.498 14.3646 604.901 15.3302 604.15 16.0947C603.412 16.8592 602.561 17.2414 601.595 17.2414C601.099 17.2414 600.696 17.0738 600.388 16.7385C600.093 16.3898 599.945 15.9204 599.945 15.3302C599.945 14.7401 600.167 13.7074 600.609 12.2321C601.065 10.7568 601.293 9.79118 601.293 9.33518C601.293 8.86576 601.119 8.63106 600.77 8.63106C600.515 8.63106 600.247 8.80541 599.965 9.15412C599.684 9.48941 599.456 9.97224 599.281 10.6026L598.939 10.5221C599.436 8.88588 600.153 8.06776 601.092 8.06776C601.964 8.06776 602.4 8.53718 602.4 9.476C602.4 9.85153 602.192 10.7836 601.776 12.2724C601.36 13.7611 601.152 14.7401 601.152 15.2095C601.152 16.1215 601.494 16.5775 602.178 16.5775ZM607.121 18.9715C608.462 17.9522 609.528 16.4971 610.32 14.606C611.111 12.7149 611.507 10.8038 611.507 8.87247C611.507 6.92776 611.057 5.47929 610.159 4.52706L610.4 4.22529C611.272 4.74835 611.922 5.486 612.351 6.43823C612.781 7.37706 612.995 8.43659 612.995 9.61682C612.995 11.5347 612.465 13.4124 611.406 15.2498C610.36 17.0872 608.958 18.4284 607.201 19.2733L607.121 18.9715Z" fill="#6082FA"/>
<path opacity="0.86" d="M5.21047 11.1458H3.94306C3.21882 14.5926 2.85671 16.3696 2.85671 16.4769C2.85671 16.5842 2.93047 16.6379 3.078 16.6379H4.36553L4.30518 17H0.201176L0.261529 16.6379H1.18694C1.36129 16.6379 1.46859 16.5373 1.50882 16.3361C3.11824 8.71824 3.92294 4.87576 3.92294 4.80871C3.92294 4.72823 3.84918 4.688 3.70165 4.688H2.81647L2.87682 4.32588H7.44353C8.36894 4.32588 9.13341 4.56729 9.73694 5.05012C10.3539 5.51953 10.6624 6.21694 10.6624 7.14235C10.6624 8.05435 10.3271 8.86576 9.65647 9.57659C8.99929 10.2874 8.18118 10.7635 7.20212 11.0049C8.14094 11.3671 8.61035 12.098 8.61035 13.1978C8.61035 13.5867 8.54329 14.1031 8.40918 14.7468C8.28847 15.3906 8.22812 15.8064 8.22812 15.9941C8.22812 16.3696 8.37565 16.5574 8.67071 16.5574C8.96577 16.5574 9.27424 16.3495 9.59612 15.9338C9.918 15.5046 10.2064 14.9011 10.4612 14.1232L10.8032 14.2036C10.4411 15.2766 10.0387 16.0545 9.59612 16.5373C9.15353 17.0067 8.63047 17.2414 8.02694 17.2414C7.73188 17.2414 7.48376 17.1341 7.28259 16.9195C7.08141 16.6915 6.98082 16.3764 6.98082 15.974C6.98082 15.5716 7.04118 15.0553 7.16188 14.4249C7.296 13.7946 7.36306 13.2313 7.36306 12.7351C7.36306 11.6755 6.64553 11.1458 5.21047 11.1458ZM7.24235 4.78859H5.31106L4.04365 10.6629H6.05541C6.99424 10.6629 7.77212 10.2673 8.38906 9.476C9.01941 8.68471 9.33459 7.84647 9.33459 6.96129C9.33459 6.33094 9.15353 5.81459 8.79141 5.41223C8.44271 4.99647 7.92635 4.78859 7.24235 4.78859Z" fill="#6082FA"/>
<path opacity="0.86" d="M12.9861 16.5056L13.95 11.9741C13.95 11.915 13.9093 11.8855 13.8281 11.8855H13.3295L13.3628 11.6861H15.4013L15.3681 11.8855H14.8695C14.7735 11.8855 14.7107 11.9372 14.6812 12.0406L13.7173 16.5831C13.673 16.7899 13.6508 16.9783 13.6508 17.1482C13.6508 17.5839 13.7801 17.9089 14.0386 18.1231C14.2971 18.3299 14.6406 18.4334 15.069 18.4334C15.4752 18.4334 15.8999 18.293 16.3431 18.0123C16.8158 17.7095 17.126 17.2109 17.2737 16.5166L18.2266 12.0074C18.2266 11.9261 18.1896 11.8855 18.1158 11.8855H17.6172L17.6504 11.6861H19.3012L19.268 11.8855H18.7694C18.6734 11.8855 18.6106 11.9372 18.5811 12.0406L17.6394 16.5056C17.4769 17.2737 17.1445 17.8498 16.6422 18.2339C16.1473 18.6106 15.5712 18.799 14.9139 18.799C13.577 18.799 12.9085 18.2561 12.9085 17.1703C12.9085 16.9561 12.9344 16.7345 12.9861 16.5056ZM21.8426 15.4419H21.1446C20.7457 17.3402 20.5463 18.3189 20.5463 18.378C20.5463 18.437 20.5869 18.4666 20.6682 18.4666H21.3772L21.344 18.666H19.0838L19.1171 18.4666H19.6267C19.7227 18.4666 19.7818 18.4112 19.804 18.3004C20.6903 14.105 21.1335 11.9889 21.1335 11.952C21.1335 11.9077 21.0929 11.8855 21.0116 11.8855H20.5241L20.5574 11.6861H23.0724C23.582 11.6861 24.003 11.819 24.3354 12.0849C24.6752 12.3434 24.845 12.7275 24.845 13.2372C24.845 13.7394 24.6604 14.1863 24.2911 14.5778C23.9292 14.9692 23.4786 15.2314 22.9394 15.3644C23.4564 15.5638 23.715 15.9664 23.715 16.572C23.715 16.7862 23.678 17.0706 23.6042 17.4251C23.5377 17.7797 23.5045 18.0086 23.5045 18.1121C23.5045 18.3189 23.5857 18.4223 23.7482 18.4223C23.9107 18.4223 24.0806 18.3078 24.2578 18.0788C24.4351 17.8425 24.5939 17.5101 24.7343 17.0817L24.9226 17.126C24.7232 17.7169 24.5016 18.1453 24.2578 18.4112C24.0141 18.6697 23.726 18.799 23.3937 18.799C23.2312 18.799 23.0945 18.7399 22.9837 18.6217C22.8729 18.4961 22.8175 18.3226 22.8175 18.101C22.8175 17.8794 22.8508 17.595 22.9172 17.2479C22.9911 16.9007 23.028 16.5905 23.028 16.3172C23.028 15.7337 22.6329 15.4419 21.8426 15.4419ZM22.9616 11.9409H21.898L21.2 15.176H22.3079C22.8249 15.176 23.2533 14.9581 23.5931 14.5224C23.9402 14.0866 24.1138 13.6249 24.1138 13.1375C24.1138 12.7903 24.0141 12.5059 23.8147 12.2843C23.6226 12.0554 23.3383 11.9409 22.9616 11.9409ZM28.3836 12.0406L27.043 18.4112H29.2256C29.4103 18.4112 29.5284 18.3299 29.5801 18.1674L30.0344 16.8158H30.2781L30.1673 17.3365C30.027 17.9791 29.9568 18.4555 29.9568 18.7657C29.7426 18.6993 29.3622 18.666 28.8157 18.666H25.5916L25.6248 18.4666H26.1345C26.2305 18.4666 26.2896 18.4112 26.3118 18.3004C27.1981 14.105 27.6413 11.9889 27.6413 11.952C27.6413 11.9077 27.6006 11.8855 27.5194 11.8855H27.0319L27.0651 11.6861H29.1037L29.0705 11.8855H28.5719C28.4759 11.8855 28.4131 11.9372 28.3836 12.0406Z" fill="#6082FA"/>
</svg>
