<svg width="28" height="23" viewBox="0 0 28 23" fill="none" xmlns="http://www.w3.org/2000/svg">
<path opacity="0.86" d="M15.5751 15.0777C16.0246 15.0777 16.3596 15.188 16.5801 15.4085C16.8092 15.6206 16.9237 15.9301 16.9237 16.3373C16.9237 16.7359 16.7667 17.0837 16.4529 17.3805C15.9186 17.8894 15.1255 18.1439 14.0738 18.1439C13.76 18.1439 13.4885 18.1184 13.2595 18.0675V17.8258C13.5564 17.8682 13.8024 17.8894 13.9975 17.8894C14.7014 17.8894 15.2443 17.7113 15.6259 17.3551C16.0161 16.9988 16.2112 16.6087 16.2112 16.1846C16.2112 15.9556 16.1476 15.7647 16.0203 15.6121C15.9016 15.4594 15.698 15.3831 15.4097 15.3831C15.1298 15.3831 14.8414 15.5145 14.5445 15.7775C14.2561 16.0404 14.0271 16.3669 13.8575 16.7571C13.5182 17.5798 13.3486 18.2923 13.3486 18.8945C13.3486 20.0141 13.6879 20.5739 14.3664 20.5739C15.2061 20.5739 15.821 20.1159 16.2112 19.1998L16.4147 19.2507C16.2112 19.7681 15.9143 20.171 15.5242 20.4594C15.1425 20.7393 14.7099 20.8792 14.2265 20.8792C13.743 20.8792 13.3359 20.7011 13.0051 20.3449C12.6743 19.9887 12.5089 19.5094 12.5089 18.9072C12.5089 18.305 12.6234 17.724 12.8524 17.1642C13.0814 16.596 13.4377 16.1083 13.9211 15.7011C14.4046 15.2855 14.9559 15.0777 15.5751 15.0777ZM19.385 15.0777C19.7243 15.0777 19.9999 15.2643 20.212 15.6375C20.424 16.0107 20.5682 16.4645 20.6445 16.9988C20.7293 17.5332 20.8014 18.0675 20.8608 18.6019C21.005 19.8826 21.2425 20.523 21.5733 20.523C21.7344 20.523 21.9083 20.417 22.0949 20.2049C22.2815 19.9844 22.4427 19.6748 22.5784 19.2762L22.7819 19.3271C22.4172 20.3618 21.9422 20.8792 21.357 20.8792C21.0177 20.8792 20.7421 20.6926 20.53 20.3194C20.318 19.9462 20.1695 19.4925 20.0847 18.9581C20.0084 18.4238 19.9405 17.8894 19.8812 17.3551C19.737 16.0743 19.4995 15.434 19.1687 15.434C19.0075 15.434 18.8337 15.5442 18.6471 15.7647C18.4605 15.9768 18.2993 16.2821 18.1636 16.6808L17.9601 16.6299C18.3248 15.5951 18.7997 15.0777 19.385 15.0777ZM19.6267 18.78L20.0975 17.9658L20.4155 17.9403L19.8048 19.009C19.1008 20.2558 18.4817 20.8792 17.9473 20.8792C17.6929 20.8792 17.5656 20.6502 17.5656 20.1922C18.4393 20.1159 19.1263 19.6451 19.6267 18.78ZM20.988 17.177L20.5173 17.9912L20.1992 18.0166L20.8099 16.9479C21.5139 15.7011 22.1331 15.0777 22.6674 15.0777C22.9219 15.0777 23.0491 15.3067 23.0491 15.7647C22.1755 15.8411 21.4885 16.3118 20.988 17.177ZM24.2824 15.6884L24.346 15.4467H27.1704L27.1068 15.6884H24.2824ZM26.3053 13.8818L26.4834 14.009C26.2883 14.6027 26.0254 15.5357 25.6946 16.808C25.3723 18.0803 25.1772 18.903 25.1094 19.2762C25.0415 19.6409 25.0076 19.9166 25.0076 20.1032C25.0076 20.3831 25.1136 20.523 25.3257 20.523C25.4868 20.523 25.6607 20.417 25.8473 20.2049C26.0339 19.9844 26.195 19.6748 26.3307 19.2762L26.5343 19.3271C26.1696 20.3618 25.6946 20.8792 25.1094 20.8792C24.5835 20.8792 24.3206 20.5612 24.3206 19.925C24.3206 19.3992 24.6344 17.9318 25.262 15.523L24.346 15.4467C24.8125 15.4467 25.1899 15.3364 25.4783 15.1159C25.7667 14.8869 26.0424 14.4755 26.3053 13.8818Z" fill="#6082FA"/>
<path opacity="0.86" d="M7.62459 5.78859H5.31106L2.83659 17.5373H5.17024C6.02859 17.5373 6.81988 17.2691 7.54412 16.7326C8.26835 16.1961 8.85177 15.5188 9.29435 14.7007C10.2064 12.9974 10.6624 11.3008 10.6624 9.61094C10.6624 8.40388 10.3807 7.46506 9.81741 6.79447C9.26753 6.12388 8.53659 5.78859 7.62459 5.78859ZM2.87682 5.32588H7.74529C9.08647 5.32588 10.146 5.72153 10.9239 6.51282C11.7018 7.29071 12.0907 8.38376 12.0907 9.792C12.0907 10.7442 11.9231 11.7032 11.5878 12.6688C11.2659 13.6211 10.8166 14.4995 10.2399 15.3042C9.66318 16.0955 8.91882 16.746 8.00682 17.2556C7.10824 17.7519 6.12918 18 5.06965 18H0.201176L0.261529 17.6379H1.18694C1.36129 17.6379 1.46859 17.5373 1.50882 17.3361C3.11824 9.71824 3.92294 5.87576 3.92294 5.80871C3.92294 5.72823 3.84918 5.688 3.70165 5.688H2.81647L2.87682 5.32588Z" fill="#6082FA"/>
</svg>
