<svg width="13" height="23" viewBox="0 0 13 23" fill="none" xmlns="http://www.w3.org/2000/svg">
<path opacity="0.86" d="M7.62459 5.78859H5.31106L2.83659 17.5373H5.17024C6.02859 17.5373 6.81988 17.2691 7.54412 16.7326C8.26835 16.1961 8.85177 15.5188 9.29435 14.7007C10.2064 12.9974 10.6624 11.3008 10.6624 9.61094C10.6624 8.40388 10.3807 7.46506 9.81741 6.79447C9.26753 6.12388 8.53659 5.78859 7.62459 5.78859ZM2.87682 5.32588H7.74529C9.08647 5.32588 10.146 5.72153 10.9239 6.51282C11.7018 7.29071 12.0907 8.38376 12.0907 9.792C12.0907 10.7442 11.9231 11.7032 11.5878 12.6688C11.2659 13.6211 10.8166 14.4995 10.2399 15.3042C9.66318 16.0955 8.91882 16.746 8.00682 17.2556C7.10824 17.7519 6.12918 18 5.06965 18H0.201176L0.261529 17.6379H1.18694C1.36129 17.6379 1.46859 17.5373 1.50882 17.3361C3.11824 9.71824 3.92294 5.87576 3.92294 5.80871C3.92294 5.72823 3.84918 5.688 3.70165 5.688H2.81647L2.87682 5.32588Z" fill="#6082FA"/>
</svg>
