<svg width="256" height="23" viewBox="0 0 256 23" fill="none" xmlns="http://www.w3.org/2000/svg">
<path opacity="0.86" d="M4.56082 18.2414C3.60859 18.2414 2.77035 18 2.04612 17.5172C1.80471 17.3696 1.63706 17.2959 1.54318 17.2959C1.30176 17.2959 1.14753 17.5306 1.08047 18H0.698235L1.40235 14.6404H1.76447C1.75106 14.7476 1.74435 14.9086 1.74435 15.1232C1.74435 15.9949 1.99247 16.6387 2.48871 17.0545C2.99835 17.4568 3.68906 17.658 4.56082 17.658C5.446 17.658 6.18365 17.3495 6.77376 16.7326C7.37729 16.1022 7.67906 15.3847 7.67906 14.58C7.67906 13.7619 7.26329 13.1516 6.43176 12.7493L4.82235 11.9245C3.56165 11.3075 2.93129 10.3486 2.93129 9.04765C2.93129 8.02835 3.32694 7.11635 4.11824 6.31165C4.90953 5.49353 5.902 5.08447 7.09565 5.08447C7.88694 5.08447 8.60447 5.30576 9.24824 5.74835C9.46282 5.89588 9.61035 5.96965 9.69082 5.96965C9.82494 5.96965 9.93894 5.82882 10.0328 5.54718L10.1334 5.20518H10.4955L9.75118 8.68553H9.40918C9.436 8.41729 9.44941 8.22282 9.44941 8.10212C9.44941 7.27059 9.23482 6.66035 8.80565 6.27141C8.38988 5.86906 7.78635 5.66788 6.99506 5.66788C6.20376 5.66788 5.52647 5.96294 4.96318 6.55306C4.41329 7.14318 4.13835 7.80706 4.13835 8.54471C4.13835 9.45671 4.54741 10.1273 5.36553 10.5565L7.43765 11.6227C8.55082 12.1994 9.10741 13.0175 9.10741 14.0771C9.10741 15.1232 8.65141 16.0821 7.73941 16.9539C6.82741 17.8122 5.76788 18.2414 4.56082 18.2414ZM11.4015 15.0829C11.4015 13.7015 11.8038 12.3805 12.6085 11.1198C12.9975 10.5162 13.5071 10.0267 14.1375 9.65118C14.7678 9.26223 15.4853 9.06776 16.29 9.06776C17.1082 9.06776 17.772 9.34271 18.2817 9.89259C18.7913 10.4425 19.0462 11.1935 19.0462 12.1458C19.0462 13.098 18.8718 14.0234 18.5231 14.922C18.1744 15.8206 17.6245 16.5985 16.8735 17.2556C16.1224 17.9128 15.2775 18.2414 14.3386 18.2414C13.3998 18.2414 12.6756 17.9665 12.1659 17.4166C11.6563 16.8667 11.4015 16.0888 11.4015 15.0829ZM16.1291 9.51035C15.4049 9.51035 14.7611 9.87247 14.1978 10.5967C13.6479 11.3209 13.2523 12.1122 13.0109 12.9706C12.7829 13.8289 12.6689 14.6336 12.6689 15.3847C12.6689 16.1224 12.8164 16.7125 13.1115 17.1551C13.4199 17.5842 13.8357 17.7988 14.3587 17.7988C14.8952 17.7988 15.3915 17.5842 15.8475 17.1551C16.3169 16.7259 16.6857 16.1961 16.9539 15.5658C17.5038 14.2782 17.7787 13.1651 17.7787 12.2262C17.7787 11.274 17.6312 10.5833 17.3362 10.1541C17.0411 9.72494 16.6387 9.51035 16.1291 9.51035ZM22.5458 17.0142C22.5458 17.4568 22.7135 17.6781 23.0488 17.6781C23.3036 17.6781 23.5785 17.5105 23.8736 17.1752C24.1687 16.8265 24.4235 16.3369 24.6381 15.7066L24.96 15.7871C24.3833 17.4233 23.6322 18.2414 22.7068 18.2414C21.8753 18.2414 21.4595 17.7184 21.4595 16.6722C21.4595 15.6127 22.338 11.8976 24.0949 5.52706L22.8074 5.62765L22.7873 5.28565C23.7127 5.16494 24.5777 4.99729 25.3824 4.78271L25.6641 4.98388C25.1008 6.63353 24.4369 8.87329 23.6724 11.7032C22.9214 14.5196 22.5458 16.29 22.5458 17.0142ZM32.2551 16.7326C32.2551 16.5314 32.2887 16.2095 32.3557 15.7669H32.2551C31.3968 17.4166 30.4043 18.2414 29.2777 18.2414C28.0707 18.2414 27.4671 17.5708 27.4671 16.2296C27.4671 15.3579 27.7756 13.7418 28.3925 11.3813L28.7547 9.99318L27.4671 10.0938L27.447 9.75176C28.3724 9.63106 29.2375 9.46341 30.0422 9.24882L30.3238 9.45C29.1972 12.9505 28.6339 15.1902 28.6339 16.1693C28.6339 17.1484 29.0028 17.6379 29.7404 17.6379C30.3574 17.6379 30.9609 17.1886 31.551 16.29C32.1545 15.378 32.6508 14.1575 33.0397 12.6286L33.7237 9.99318L32.4362 10.0938L32.4161 9.75176C33.3415 9.63106 34.2065 9.46341 35.0112 9.24882L35.2929 9.45C34.8235 10.8448 34.3809 12.3402 33.9651 13.9362C33.5494 15.5322 33.3415 16.5582 33.3415 17.0142C33.3415 17.4568 33.5091 17.6781 33.8444 17.6781C34.0992 17.6781 34.3742 17.5105 34.6692 17.1752C34.9643 16.8265 35.2191 16.3369 35.4337 15.7066L35.7556 15.7871C35.1789 17.4233 34.4278 18.2414 33.5024 18.2414C32.6709 18.2414 32.2551 17.7385 32.2551 16.7326ZM38.1416 10.0334L38.2422 9.65118H42.7083L42.6077 10.0334H38.1416ZM41.3403 7.1767L41.6219 7.37788C41.3135 8.31671 40.8977 9.792 40.3746 11.8038C39.865 13.8155 39.5565 15.1165 39.4492 15.7066C39.3419 16.2833 39.2883 16.7192 39.2883 17.0142C39.2883 17.4568 39.4559 17.6781 39.7912 17.6781C40.046 17.6781 40.321 17.5105 40.616 17.1752C40.9111 16.8265 41.1659 16.3369 41.3805 15.7066L41.7024 15.7871C41.1257 17.4233 40.3746 18.2414 39.4492 18.2414C38.6177 18.2414 38.2019 17.7385 38.2019 16.7326C38.2019 15.9011 38.6982 13.5808 39.6906 9.77188L38.2422 9.65118C38.9798 9.65118 39.5766 9.47682 40.0326 9.12812C40.4886 8.766 40.9245 8.11553 41.3403 7.1767ZM46.4374 7.056C46.2631 6.88165 46.1759 6.66706 46.1759 6.41223C46.1759 6.15741 46.2631 5.94282 46.4374 5.76847C46.6118 5.59412 46.8264 5.50694 47.0812 5.50694C47.336 5.50694 47.5506 5.59412 47.725 5.76847C47.8993 5.94282 47.9865 6.15741 47.9865 6.41223C47.9865 6.66706 47.8993 6.88165 47.725 7.056C47.5506 7.23035 47.336 7.31753 47.0812 7.31753C46.8264 7.31753 46.6118 7.23035 46.4374 7.056ZM44.1641 16.7326C44.1641 16.0218 44.6537 13.7753 45.6327 9.99318L44.3452 10.0938L44.3251 9.75176C45.2505 9.63106 46.1156 9.46341 46.9203 9.24882L47.2019 9.45C46.7325 10.8448 46.2899 12.3402 45.8741 13.9362C45.4584 15.5322 45.2505 16.5582 45.2505 17.0142C45.2505 17.4568 45.4181 17.6781 45.7534 17.6781C46.0083 17.6781 46.2832 17.5105 46.5783 17.1752C46.8733 16.8265 47.1281 16.3369 47.3427 15.7066L47.6646 15.7871C47.0879 17.4233 46.3368 18.2414 45.4114 18.2414C44.5799 18.2414 44.1641 17.7385 44.1641 16.7326ZM49.5228 15.0829C49.5228 13.7015 49.9252 12.3805 50.7299 11.1198C51.1188 10.5162 51.6285 10.0267 52.2588 9.65118C52.8892 9.26223 53.6067 9.06776 54.4114 9.06776C55.2295 9.06776 55.8934 9.34271 56.4031 9.89259C56.9127 10.4425 57.1675 11.1935 57.1675 12.1458C57.1675 13.098 56.9932 14.0234 56.6445 14.922C56.2958 15.8206 55.7459 16.5985 54.9948 17.2556C54.2438 17.9128 53.3988 18.2414 52.46 18.2414C51.5212 18.2414 50.7969 17.9665 50.2873 17.4166C49.7776 16.8667 49.5228 16.0888 49.5228 15.0829ZM54.2505 9.51035C53.5262 9.51035 52.8825 9.87247 52.3192 10.5967C51.7693 11.3209 51.3736 12.1122 51.1322 12.9706C50.9042 13.8289 50.7902 14.6336 50.7902 15.3847C50.7902 16.1224 50.9378 16.7125 51.2328 17.1551C51.5413 17.5842 51.9571 17.7988 52.4801 17.7988C53.0166 17.7988 53.5128 17.5842 53.9688 17.1551C54.4382 16.7259 54.8071 16.1961 55.0753 15.5658C55.6252 14.2782 55.9001 13.1651 55.9001 12.2262C55.9001 11.274 55.7526 10.5833 55.4575 10.1541C55.1625 9.72494 54.7601 9.51035 54.2505 9.51035ZM67.3865 10.8985C67.3865 11.4752 67.0579 12.5347 66.4007 14.0771C65.757 15.6194 65.4351 16.6052 65.4351 17.0344C65.4351 17.4635 65.6027 17.6781 65.938 17.6781C66.1929 17.6781 66.4678 17.5105 66.7629 17.1752C67.0579 16.8265 67.3127 16.3369 67.5273 15.7066L67.8492 15.7871C67.2725 17.4233 66.5214 18.2414 65.596 18.2414C64.7645 18.2414 64.3487 17.7854 64.3487 16.8734C64.3487 16.4845 64.6505 15.5188 65.254 13.9765C65.871 12.4341 66.1794 11.4416 66.1794 10.9991C66.1794 10.1541 65.871 9.73165 65.254 9.73165C64.5834 9.73165 63.8592 10.2748 63.0813 11.3612C62.1827 12.6621 61.3847 14.8751 60.6873 18L59.2791 18.1207L61.2506 9.99318L59.9631 10.0938L59.943 9.75176C60.8684 9.63106 61.7334 9.46341 62.5382 9.24882L62.8198 9.45C62.176 10.9253 61.6127 12.6219 61.1299 14.5398H61.2909L61.6127 13.6546C62.337 11.6294 63.1216 10.3151 63.9665 9.71153C64.3689 9.44329 64.6974 9.26894 64.9523 9.18847C65.2205 9.108 65.5491 9.06776 65.938 9.06776C66.3404 9.06776 66.6824 9.22871 66.964 9.55059C67.2457 9.87247 67.3865 10.3218 67.3865 10.8985ZM83.62 12.87H75.7339V11.8038H83.62V12.87ZM83.62 16.29H75.7339V15.2238H83.62V16.29Z" fill="#6082FA"/>
<path opacity="0.86" d="M95.6329 5.60753C96.4108 5.25882 97.2356 5.08447 98.1074 5.08447C99.4352 5.08447 100.481 5.48682 101.246 6.29153C102.024 7.08282 102.413 8.20271 102.413 9.65118C102.413 10.6302 102.252 11.6227 101.93 12.6286C101.608 13.6211 101.159 14.5398 100.582 15.3847C100.005 16.2296 99.2541 16.9204 98.3287 17.4568C97.4033 17.9799 96.3371 18.2414 95.13 18.2414C93.9229 18.2414 92.9305 17.8391 92.1526 17.0344C91.3881 16.2296 91.0059 15.0628 91.0059 13.5339C91.0059 12.0049 91.4216 10.4626 92.2532 8.90682C93.0981 7.35106 94.2247 6.25129 95.6329 5.60753ZM100.18 6.63353C99.6431 5.94953 98.9322 5.60753 98.0471 5.60753C97.1619 5.60753 96.3438 5.89588 95.5927 6.47259C94.8416 7.03588 94.2448 7.75341 93.8022 8.62518C92.8768 10.4224 92.4141 12.1659 92.4141 13.8558C92.4141 15.0762 92.6756 16.0285 93.1987 16.7125C93.7352 17.3831 94.446 17.7184 95.3312 17.7184C96.2298 17.7184 97.0546 17.4367 97.8056 16.8734C98.5567 16.2967 99.1602 15.5792 99.6162 14.7208C100.542 12.9371 101.004 11.1935 101.004 9.49024C101.004 8.26976 100.729 7.31753 100.18 6.63353ZM107.18 9.24882L107.461 9.45C106.817 10.9253 106.254 12.6219 105.771 14.5398H105.932L106.254 13.6546C106.884 11.9379 107.508 10.7442 108.125 10.0736C108.742 9.40306 109.278 9.06776 109.734 9.06776C110.19 9.06776 110.526 9.21529 110.74 9.51035C110.968 9.80541 111.082 10.1876 111.082 10.6571C111.082 11.1265 110.995 11.5355 110.821 11.8842C110.646 12.2329 110.392 12.4073 110.056 12.4073C109.734 12.4073 109.466 12.3 109.252 12.0854C109.386 11.9111 109.513 11.6562 109.634 11.3209C109.755 10.9856 109.815 10.6906 109.815 10.4358C109.815 10.0468 109.654 9.85235 109.332 9.85235C108.997 9.85235 108.581 10.1809 108.085 10.8381C106.998 12.2598 106.08 14.6471 105.329 18L103.92 18.1207L105.892 9.99318L104.604 10.0938L104.584 9.75176C105.51 9.63106 106.375 9.46341 107.18 9.24882ZM117.884 17.0142C117.884 17.4568 118.052 17.6781 118.387 17.6781C118.642 17.6781 118.917 17.5105 119.212 17.1752C119.507 16.8265 119.762 16.3369 119.976 15.7066L120.298 15.7871C119.721 17.4233 118.97 18.2414 118.045 18.2414C117.213 18.2414 116.798 17.7184 116.798 16.6722C116.798 15.6127 117.676 11.8976 119.433 5.52706L118.146 5.62765L118.125 5.28565C119.051 5.16494 119.916 4.99729 120.721 4.78271L121.002 4.98388C120.439 6.63353 119.775 8.87329 119.011 11.7032C118.26 14.5196 117.884 16.29 117.884 17.0142ZM116.999 15.7669H116.798C115.966 17.4166 115 18.2414 113.901 18.2414C113.27 18.2414 112.741 17.9665 112.311 17.4166C111.896 16.8533 111.688 16.1693 111.688 15.3646C111.688 14.5465 111.795 13.7887 112.01 13.0913C112.224 12.3939 112.526 11.7434 112.915 11.1399C113.304 10.5229 113.82 10.0267 114.464 9.65118C115.108 9.26223 115.765 9.06776 116.436 9.06776C117.723 9.06776 118.635 9.63106 119.172 10.7576L118.89 11.1198C118.26 10.0736 117.475 9.55059 116.536 9.55059C115.959 9.55059 115.43 9.75847 114.947 10.1742C114.477 10.59 114.109 11.1131 113.84 11.7434C113.29 13.0309 113.016 14.2447 113.016 15.3847C113.016 16.1358 113.136 16.6991 113.378 17.0746C113.632 17.4501 113.968 17.6379 114.384 17.6379C114.96 17.6379 115.55 17.1551 116.154 16.1894C116.757 15.2104 117.294 13.8155 117.763 12.0049L116.999 15.7669ZM126.997 9.06776C127.708 9.06776 128.238 9.24212 128.587 9.59082C128.949 9.92612 129.13 10.4156 129.13 11.0594C129.13 11.6898 128.882 12.2396 128.385 12.7091C127.54 13.5138 126.286 13.9161 124.623 13.9161C124.127 13.9161 123.698 13.8759 123.336 13.7954V13.4132C123.805 13.4802 124.194 13.5138 124.503 13.5138C125.616 13.5138 126.474 13.2321 127.078 12.6688C127.695 12.1055 128.003 11.4886 128.003 10.818C128.003 10.4559 127.903 10.1541 127.701 9.91271C127.514 9.67129 127.192 9.55059 126.736 9.55059C126.293 9.55059 125.837 9.75847 125.368 10.1742C124.912 10.59 124.55 11.1064 124.281 11.7233C123.745 13.0242 123.477 14.1508 123.477 15.1031C123.477 16.8734 124.013 17.7586 125.086 17.7586C126.414 17.7586 127.386 17.0344 128.003 15.5859L128.325 15.6664C128.003 16.4845 127.534 17.1215 126.917 17.5775C126.313 18.0201 125.629 18.2414 124.865 18.2414C124.1 18.2414 123.457 17.9598 122.934 17.3965C122.41 16.8332 122.149 16.0754 122.149 15.1232C122.149 14.1709 122.33 13.2522 122.692 12.3671C123.054 11.4685 123.618 10.6973 124.382 10.0535C125.146 9.39635 126.018 9.06776 126.997 9.06776ZM133.907 9.24882L134.189 9.45C133.545 10.9253 132.982 12.6219 132.499 14.5398H132.66L132.982 13.6546C133.612 11.9379 134.236 10.7442 134.852 10.0736C135.469 9.40306 136.006 9.06776 136.462 9.06776C136.918 9.06776 137.253 9.21529 137.468 9.51035C137.696 9.80541 137.81 10.1876 137.81 10.6571C137.81 11.1265 137.723 11.5355 137.548 11.8842C137.374 12.2329 137.119 12.4073 136.784 12.4073C136.462 12.4073 136.194 12.3 135.979 12.0854C136.113 11.9111 136.241 11.6562 136.361 11.3209C136.482 10.9856 136.542 10.6906 136.542 10.4358C136.542 10.0468 136.381 9.85235 136.06 9.85235C135.724 9.85235 135.308 10.1809 134.812 10.8381C133.726 12.2598 132.807 14.6471 132.056 18L130.648 18.1207L132.619 9.99318L131.332 10.0938L131.312 9.75176C132.237 9.63106 133.102 9.46341 133.907 9.24882ZM138.777 17.9396C138.576 17.7251 138.476 17.4702 138.476 17.1752C138.476 16.8801 138.576 16.632 138.777 16.4308C138.992 16.2162 139.247 16.1089 139.542 16.1089C139.837 16.1089 140.085 16.2162 140.286 16.4308C140.501 16.632 140.608 16.8801 140.608 17.1752C140.608 17.4702 140.501 17.7251 140.286 17.9396C140.085 18.1408 139.837 18.2414 139.542 18.2414C139.247 18.2414 138.992 18.1408 138.777 17.9396ZM147.516 5.60753C148.294 5.25882 149.119 5.08447 149.991 5.08447C151.318 5.08447 152.364 5.48682 153.129 6.29153C153.907 7.08282 154.296 8.20271 154.296 9.65118C154.296 10.6302 154.135 11.6227 153.813 12.6286C153.491 13.6211 153.042 14.5398 152.465 15.3847C151.888 16.2296 151.137 16.9204 150.212 17.4568C149.286 17.9799 148.22 18.2414 147.013 18.2414C145.806 18.2414 144.814 17.8391 144.036 17.0344C143.271 16.2296 142.889 15.0628 142.889 13.5339C142.889 12.0049 143.305 10.4626 144.136 8.90682C144.981 7.35106 146.108 6.25129 147.516 5.60753ZM152.063 6.63353C151.526 5.94953 150.815 5.60753 149.93 5.60753C149.045 5.60753 148.227 5.89588 147.476 6.47259C146.725 7.03588 146.128 7.75341 145.685 8.62518C144.76 10.4224 144.297 12.1659 144.297 13.8558C144.297 15.0762 144.559 16.0285 145.082 16.7125C145.618 17.3831 146.329 17.7184 147.214 17.7184C148.113 17.7184 148.938 17.4367 149.689 16.8734C150.44 16.2967 151.043 15.5792 151.499 14.7208C152.425 12.9371 152.887 11.1935 152.887 9.49024C152.887 8.26976 152.613 7.31753 152.063 6.63353ZM155.944 10.0334L156.045 9.65118H161.115L161.014 10.0334H155.944ZM159.364 8.52459L157.473 17.3562C157.084 19.1266 156.608 20.4409 156.045 21.2993C155.482 22.1576 154.798 22.5868 153.993 22.5868C153.483 22.5868 153.088 22.4326 152.806 22.1241C152.524 21.8156 152.384 21.4669 152.384 21.078C152.384 20.7025 152.464 20.3605 152.625 20.052C152.773 19.7569 153.014 19.6094 153.349 19.6094C153.685 19.6094 153.926 19.6966 154.073 19.8709C153.899 20.0051 153.758 20.2062 153.651 20.4745C153.53 20.7427 153.47 21.0042 153.47 21.2591C153.47 21.8358 153.711 22.1241 154.194 22.1241C154.731 22.1241 155.14 21.7084 155.421 20.8768C155.703 20.0453 156.092 18.3755 156.588 15.8675L157.755 9.91271C158.037 8.49106 158.533 7.27059 159.244 6.25129C159.955 5.232 160.779 4.72235 161.718 4.72235C162.389 4.72235 162.892 4.87659 163.227 5.18506C163.576 5.49353 163.75 5.85565 163.75 6.27141C163.75 6.68718 163.663 7.06271 163.489 7.398C163.328 7.73329 163.066 7.90094 162.704 7.90094C162.342 7.90094 162.08 7.80706 161.919 7.61929C162.308 7.12306 162.503 6.62012 162.503 6.11047C162.503 5.49353 162.208 5.18506 161.618 5.18506C161.041 5.18506 160.578 5.48012 160.229 6.07023C159.881 6.64694 159.592 7.46506 159.364 8.52459ZM162.182 10.0334L162.282 9.65118H167.352L167.251 10.0334H162.182ZM165.602 8.52459L163.711 17.3562C163.322 19.1266 162.846 20.4409 162.282 21.2993C161.719 22.1576 161.035 22.5868 160.23 22.5868C159.721 22.5868 159.325 22.4326 159.043 22.1241C158.762 21.8156 158.621 21.4669 158.621 21.078C158.621 20.7025 158.701 20.3605 158.862 20.052C159.01 19.7569 159.251 19.6094 159.586 19.6094C159.922 19.6094 160.163 19.6966 160.311 19.8709C160.136 20.0051 159.996 20.2062 159.888 20.4745C159.768 20.7427 159.707 21.0042 159.707 21.2591C159.707 21.8358 159.949 22.1241 160.431 22.1241C160.968 22.1241 161.377 21.7084 161.659 20.8768C161.94 20.0453 162.329 18.3755 162.825 15.8675L163.992 9.91271C164.274 8.49106 164.77 7.27059 165.481 6.25129C166.192 5.232 167.017 4.72235 167.955 4.72235C168.626 4.72235 169.129 4.87659 169.464 5.18506C169.813 5.49353 169.987 5.85565 169.987 6.27141C169.987 6.68718 169.9 7.06271 169.726 7.398C169.565 7.73329 169.303 7.90094 168.941 7.90094C168.579 7.90094 168.318 7.80706 168.157 7.61929C168.546 7.12306 168.74 6.62012 168.74 6.11047C168.74 5.49353 168.445 5.18506 167.855 5.18506C167.278 5.18506 166.815 5.48012 166.467 6.07023C166.118 6.64694 165.83 7.46506 165.602 8.52459ZM173.026 9.06776C173.737 9.06776 174.266 9.24212 174.615 9.59082C174.977 9.92612 175.158 10.4156 175.158 11.0594C175.158 11.6898 174.91 12.2396 174.414 12.7091C173.569 13.5138 172.315 13.9161 170.652 13.9161C170.156 13.9161 169.727 13.8759 169.364 13.7954V13.4132C169.834 13.4802 170.223 13.5138 170.531 13.5138C171.644 13.5138 172.503 13.2321 173.106 12.6688C173.723 12.1055 174.032 11.4886 174.032 10.818C174.032 10.4559 173.931 10.1541 173.73 9.91271C173.542 9.67129 173.22 9.55059 172.764 9.55059C172.322 9.55059 171.866 9.75847 171.396 10.1742C170.94 10.59 170.578 11.1064 170.31 11.7233C169.773 13.0242 169.505 14.1508 169.505 15.1031C169.505 16.8734 170.042 17.7586 171.115 17.7586C172.442 17.7586 173.415 17.0344 174.032 15.5859L174.354 15.6664C174.032 16.4845 173.562 17.1215 172.945 17.5775C172.342 18.0201 171.658 18.2414 170.893 18.2414C170.129 18.2414 169.485 17.9598 168.962 17.3965C168.439 16.8332 168.177 16.0754 168.177 15.1232C168.177 14.1709 168.359 13.2522 168.721 12.3671C169.083 11.4685 169.646 10.6973 170.411 10.0535C171.175 9.39635 172.047 9.06776 173.026 9.06776ZM179.935 9.24882L180.217 9.45C179.573 10.9253 179.01 12.6219 178.527 14.5398H178.688L179.01 13.6546C179.64 11.9379 180.264 10.7442 180.881 10.0736C181.498 9.40306 182.034 9.06776 182.49 9.06776C182.946 9.06776 183.282 9.21529 183.496 9.51035C183.724 9.80541 183.838 10.1876 183.838 10.6571C183.838 11.1265 183.751 11.5355 183.577 11.8842C183.402 12.2329 183.148 12.4073 182.812 12.4073C182.49 12.4073 182.222 12.3 182.008 12.0854C182.142 11.9111 182.269 11.6562 182.39 11.3209C182.511 10.9856 182.571 10.6906 182.571 10.4358C182.571 10.0468 182.41 9.85235 182.088 9.85235C181.753 9.85235 181.337 10.1809 180.841 10.8381C179.754 12.2598 178.836 14.6471 178.085 18L176.676 18.1207L178.648 9.99318L177.36 10.0938L177.34 9.75176C178.266 9.63106 179.131 9.46341 179.935 9.24882ZM184.806 17.9396C184.605 17.7251 184.504 17.4702 184.504 17.1752C184.504 16.8801 184.605 16.632 184.806 16.4308C185.02 16.2162 185.275 16.1089 185.57 16.1089C185.865 16.1089 186.113 16.2162 186.315 16.4308C186.529 16.632 186.637 16.8801 186.637 17.1752C186.637 17.4702 186.529 17.7251 186.315 17.9396C186.113 18.1408 185.865 18.2414 185.57 18.2414C185.275 18.2414 185.02 18.1408 184.806 17.9396ZM191.472 18.2414C190.52 18.2414 189.682 18 188.958 17.5172C188.716 17.3696 188.549 17.2959 188.455 17.2959C188.213 17.2959 188.059 17.5306 187.992 18H187.61L188.314 14.6404H188.676C188.663 14.7476 188.656 14.9086 188.656 15.1232C188.656 15.9949 188.904 16.6387 189.4 17.0545C189.91 17.4568 190.601 17.658 191.472 17.658C192.358 17.658 193.095 17.3495 193.685 16.7326C194.289 16.1022 194.591 15.3847 194.591 14.58C194.591 13.7619 194.175 13.1516 193.343 12.7493L191.734 11.9245C190.473 11.3075 189.843 10.3486 189.843 9.04765C189.843 8.02835 190.239 7.11635 191.03 6.31165C191.821 5.49353 192.814 5.08447 194.007 5.08447C194.799 5.08447 195.516 5.30576 196.16 5.74835C196.374 5.89588 196.522 5.96965 196.602 5.96965C196.737 5.96965 196.851 5.82882 196.944 5.54718L197.045 5.20518H197.407L196.663 8.68553H196.321C196.348 8.41729 196.361 8.22282 196.361 8.10212C196.361 7.27059 196.146 6.66035 195.717 6.27141C195.302 5.86906 194.698 5.66788 193.907 5.66788C193.115 5.66788 192.438 5.96294 191.875 6.55306C191.325 7.14318 191.05 7.80706 191.05 8.54471C191.05 9.45671 191.459 10.1273 192.277 10.5565L194.349 11.6227C195.462 12.1994 196.019 13.0175 196.019 14.0771C196.019 15.1232 195.563 16.0821 194.651 16.9539C193.739 17.8122 192.68 18.2414 191.472 18.2414ZM198.313 15.0829C198.313 13.7015 198.715 12.3805 199.52 11.1198C199.909 10.5162 200.419 10.0267 201.049 9.65118C201.679 9.26223 202.397 9.06776 203.202 9.06776C204.02 9.06776 204.684 9.34271 205.193 9.89259C205.703 10.4425 205.958 11.1935 205.958 12.1458C205.958 13.098 205.783 14.0234 205.435 14.922C205.086 15.8206 204.536 16.5985 203.785 17.2556C203.034 17.9128 202.189 18.2414 201.25 18.2414C200.311 18.2414 199.587 17.9665 199.078 17.4166C198.568 16.8667 198.313 16.0888 198.313 15.0829ZM203.041 9.51035C202.317 9.51035 201.673 9.87247 201.109 10.5967C200.56 11.3209 200.164 12.1122 199.923 12.9706C199.695 13.8289 199.581 14.6336 199.581 15.3847C199.581 16.1224 199.728 16.7125 200.023 17.1551C200.332 17.5842 200.747 17.7988 201.27 17.7988C201.807 17.7988 202.303 17.5842 202.759 17.1551C203.229 16.7259 203.597 16.1961 203.866 15.5658C204.415 14.2782 204.69 13.1651 204.69 12.2262C204.69 11.274 204.543 10.5833 204.248 10.1541C203.953 9.72494 203.55 9.51035 203.041 9.51035ZM209.457 17.0142C209.457 17.4568 209.625 17.6781 209.96 17.6781C210.215 17.6781 210.49 17.5105 210.785 17.1752C211.08 16.8265 211.335 16.3369 211.55 15.7066L211.872 15.7871C211.295 17.4233 210.544 18.2414 209.618 18.2414C208.787 18.2414 208.371 17.7184 208.371 16.6722C208.371 15.6127 209.25 11.8976 211.007 5.52706L209.719 5.62765L209.699 5.28565C210.624 5.16494 211.489 4.99729 212.294 4.78271L212.576 4.98388C212.012 6.63353 211.349 8.87329 210.584 11.7032C209.833 14.5196 209.457 16.29 209.457 17.0142ZM219.167 16.7326C219.167 16.5314 219.2 16.2095 219.267 15.7669H219.167C218.308 17.4166 217.316 18.2414 216.189 18.2414C214.982 18.2414 214.379 17.5708 214.379 16.2296C214.379 15.3579 214.687 13.7418 215.304 11.3813L215.666 9.99318L214.379 10.0938L214.359 9.75176C215.284 9.63106 216.149 9.46341 216.954 9.24882L217.235 9.45C216.109 12.9505 215.546 15.1902 215.546 16.1693C215.546 17.1484 215.914 17.6379 216.652 17.6379C217.269 17.6379 217.873 17.1886 218.463 16.29C219.066 15.378 219.562 14.1575 219.951 12.6286L220.635 9.99318L219.348 10.0938L219.328 9.75176C220.253 9.63106 221.118 9.46341 221.923 9.24882L222.205 9.45C221.735 10.8448 221.293 12.3402 220.877 13.9362C220.461 15.5322 220.253 16.5582 220.253 17.0142C220.253 17.4568 220.421 17.6781 220.756 17.6781C221.011 17.6781 221.286 17.5105 221.581 17.1752C221.876 16.8265 222.131 16.3369 222.345 15.7066L222.667 15.7871C222.091 17.4233 221.339 18.2414 220.414 18.2414C219.583 18.2414 219.167 17.7385 219.167 16.7326ZM225.053 10.0334L225.154 9.65118H229.62L229.519 10.0334H225.053ZM228.252 7.1767L228.534 7.37788C228.225 8.31671 227.809 9.792 227.286 11.8038C226.777 13.8155 226.468 15.1165 226.361 15.7066C226.254 16.2833 226.2 16.7192 226.2 17.0142C226.2 17.4568 226.368 17.6781 226.703 17.6781C226.958 17.6781 227.233 17.5105 227.528 17.1752C227.823 16.8265 228.078 16.3369 228.292 15.7066L228.614 15.7871C228.037 17.4233 227.286 18.2414 226.361 18.2414C225.529 18.2414 225.114 17.7385 225.114 16.7326C225.114 15.9011 225.61 13.5808 226.602 9.77188L225.154 9.65118C225.891 9.65118 226.488 9.47682 226.944 9.12812C227.4 8.766 227.836 8.11553 228.252 7.1767ZM233.349 7.056C233.175 6.88165 233.088 6.66706 233.088 6.41223C233.088 6.15741 233.175 5.94282 233.349 5.76847C233.523 5.59412 233.738 5.50694 233.993 5.50694C234.248 5.50694 234.462 5.59412 234.637 5.76847C234.811 5.94282 234.898 6.15741 234.898 6.41223C234.898 6.66706 234.811 6.88165 234.637 7.056C234.462 7.23035 234.248 7.31753 233.993 7.31753C233.738 7.31753 233.523 7.23035 233.349 7.056ZM231.076 16.7326C231.076 16.0218 231.565 13.7753 232.544 9.99318L231.257 10.0938L231.237 9.75176C232.162 9.63106 233.027 9.46341 233.832 9.24882L234.114 9.45C233.644 10.8448 233.202 12.3402 232.786 13.9362C232.37 15.5322 232.162 16.5582 232.162 17.0142C232.162 17.4568 232.33 17.6781 232.665 17.6781C232.92 17.6781 233.195 17.5105 233.49 17.1752C233.785 16.8265 234.04 16.3369 234.254 15.7066L234.576 15.7871C234 17.4233 233.248 18.2414 232.323 18.2414C231.492 18.2414 231.076 17.7385 231.076 16.7326ZM236.434 15.0829C236.434 13.7015 236.837 12.3805 237.642 11.1198C238.03 10.5162 238.54 10.0267 239.17 9.65118C239.801 9.26223 240.518 9.06776 241.323 9.06776C242.141 9.06776 242.805 9.34271 243.315 9.89259C243.824 10.4425 244.079 11.1935 244.079 12.1458C244.079 13.098 243.905 14.0234 243.556 14.922C243.207 15.8206 242.658 16.5985 241.906 17.2556C241.155 17.9128 240.31 18.2414 239.372 18.2414C238.433 18.2414 237.709 17.9665 237.199 17.4166C236.689 16.8667 236.434 16.0888 236.434 15.0829ZM241.162 9.51035C240.438 9.51035 239.794 9.87247 239.231 10.5967C238.681 11.3209 238.285 12.1122 238.044 12.9706C237.816 13.8289 237.702 14.6336 237.702 15.3847C237.702 16.1224 237.849 16.7125 238.144 17.1551C238.453 17.5842 238.869 17.7988 239.392 17.7988C239.928 17.7988 240.424 17.5842 240.88 17.1551C241.35 16.7259 241.719 16.1961 241.987 15.5658C242.537 14.2782 242.812 13.1651 242.812 12.2262C242.812 11.274 242.664 10.5833 242.369 10.1541C242.074 9.72494 241.672 9.51035 241.162 9.51035ZM254.298 10.8985C254.298 11.4752 253.97 12.5347 253.312 14.0771C252.669 15.6194 252.347 16.6052 252.347 17.0344C252.347 17.4635 252.514 17.6781 252.85 17.6781C253.105 17.6781 253.379 17.5105 253.675 17.1752C253.97 16.8265 254.224 16.3369 254.439 15.7066L254.761 15.7871C254.184 17.4233 253.433 18.2414 252.508 18.2414C251.676 18.2414 251.26 17.7854 251.26 16.8734C251.26 16.4845 251.562 15.5188 252.166 13.9765C252.783 12.4341 253.091 11.4416 253.091 10.9991C253.091 10.1541 252.783 9.73165 252.166 9.73165C251.495 9.73165 250.771 10.2748 249.993 11.3612C249.094 12.6621 248.296 14.8751 247.599 18L246.191 18.1207L248.162 9.99318L246.875 10.0938L246.855 9.75176C247.78 9.63106 248.645 9.46341 249.45 9.24882L249.731 9.45C249.088 10.9253 248.524 12.6219 248.042 14.5398H248.203L248.524 13.6546C249.249 11.6294 250.033 10.3151 250.878 9.71153C251.281 9.44329 251.609 9.26894 251.864 9.18847C252.132 9.108 252.461 9.06776 252.85 9.06776C253.252 9.06776 253.594 9.22871 253.876 9.55059C254.157 9.87247 254.298 10.3218 254.298 10.8985Z" fill="#6082FA"/>
</svg>
