<svg width="180" height="19" viewBox="0 0 180 19" fill="none" xmlns="http://www.w3.org/2000/svg">
<path opacity="0.86" d="M6.23225 1.60753C7.01013 1.25882 7.83495 1.08447 8.70672 1.08447C10.0345 1.08447 11.0806 1.48682 11.8451 2.29153C12.623 3.08282 13.0119 4.20271 13.0119 5.65118C13.0119 6.63024 12.851 7.62271 12.5291 8.62859C12.2072 9.62106 11.7579 10.5398 11.1812 11.3847C10.6045 12.2296 9.85342 12.9204 8.92801 13.4568C8.0026 13.9799 6.93636 14.2414 5.7293 14.2414C4.52225 14.2414 3.52977 13.8391 2.75189 13.0344C1.98742 12.2296 1.60519 11.0628 1.60519 9.53388C1.60519 8.00494 2.02095 6.46259 2.85248 4.90682C3.69742 3.35106 4.82401 2.25129 6.23225 1.60753ZM10.7788 2.63353C10.2424 1.94953 9.53154 1.60753 8.64636 1.60753C7.76119 1.60753 6.94307 1.89588 6.19201 2.47259C5.44095 3.03588 4.84413 3.75341 4.40154 4.62518C3.47613 6.42235 3.01342 8.16588 3.01342 9.85576C3.01342 11.0762 3.27495 12.0285 3.79801 12.7125C4.33448 13.3831 5.0453 13.7184 5.93048 13.7184C6.82907 13.7184 7.65389 13.4367 8.40495 12.8734C9.15601 12.2967 9.75954 11.5792 10.2155 10.7208C11.141 8.93706 11.6037 7.19353 11.6037 5.49024C11.6037 4.26976 11.3287 3.31753 10.7788 2.63353ZM17.7788 5.24882L18.0605 5.45C17.4167 6.92529 16.8534 8.62188 16.3706 10.5398H16.5315L16.8534 9.65459C17.4838 7.93788 18.1074 6.74423 18.7244 6.07365C19.3413 5.40306 19.8778 5.06776 20.3338 5.06776C20.7898 5.06776 21.1251 5.21529 21.3397 5.51035C21.5677 5.80541 21.6817 6.18765 21.6817 6.65706C21.6817 7.12647 21.5945 7.53553 21.4201 7.88423C21.2458 8.23294 20.991 8.40729 20.6557 8.40729C20.3338 8.40729 20.0655 8.3 19.8509 8.08541C19.9851 7.91106 20.1125 7.65623 20.2332 7.32094C20.3539 6.98565 20.4142 6.69059 20.4142 6.43576C20.4142 6.04682 20.2533 5.85235 19.9314 5.85235C19.5961 5.85235 19.1804 6.18094 18.6841 6.83812C17.5978 8.25976 16.6791 10.6471 15.928 14L14.5198 14.1207L16.4913 5.99318L15.2038 6.09376L15.1837 5.75176C16.1091 5.63106 16.9741 5.46341 17.7788 5.24882ZM28.4833 13.0142C28.4833 13.4568 28.651 13.6781 28.9862 13.6781C29.2411 13.6781 29.516 13.5105 29.8111 13.1752C30.1061 12.8265 30.361 12.3369 30.5755 11.7066L30.8974 11.7871C30.3207 13.4233 29.5697 14.2414 28.6442 14.2414C27.8127 14.2414 27.397 13.7184 27.397 12.6722C27.397 11.6127 28.2754 7.89765 30.0324 1.52706L28.7448 1.62765L28.7247 1.28565C29.6501 1.16494 30.5152 0.997294 31.3199 0.782706L31.6015 0.983882C31.0382 2.63353 30.3744 4.87329 29.6099 7.70318C28.8588 10.5196 28.4833 12.29 28.4833 13.0142ZM27.5981 11.7669H27.397C26.5654 13.4166 25.5998 14.2414 24.5 14.2414C23.8697 14.2414 23.3399 13.9665 22.9107 13.4166C22.495 12.8533 22.2871 12.1693 22.2871 11.3646C22.2871 10.5465 22.3944 9.78871 22.609 9.09129C22.8235 8.39388 23.1253 7.74341 23.5142 7.13988C23.9032 6.52294 24.4195 6.02671 25.0633 5.65118C25.7071 5.26223 26.3642 5.06776 27.0348 5.06776C28.3224 5.06776 29.2344 5.63106 29.7708 6.75765L29.4892 7.11976C28.8588 6.07365 28.0742 5.55059 27.1354 5.55059C26.5587 5.55059 26.029 5.75847 25.5461 6.17423C25.0767 6.59 24.7079 7.11306 24.4397 7.74341C23.8898 9.03094 23.6148 10.2447 23.6148 11.3847C23.6148 12.1358 23.7355 12.6991 23.977 13.0746C24.2318 13.4501 24.5671 13.6379 24.9828 13.6379C25.5595 13.6379 26.1497 13.1551 26.7532 12.1894C27.3567 11.2104 27.8932 9.81553 28.3626 8.00494L27.5981 11.7669ZM37.5966 5.06776C38.3074 5.06776 38.8372 5.24212 39.1859 5.59082C39.548 5.92612 39.7291 6.41565 39.7291 7.05941C39.7291 7.68976 39.481 8.23965 38.9847 8.70906C38.1398 9.51376 36.8858 9.91612 35.2227 9.91612C34.7265 9.91612 34.2973 9.87588 33.9352 9.79541V9.41318C34.4046 9.48024 34.7935 9.51376 35.102 9.51376C36.2152 9.51376 37.0735 9.23212 37.6771 8.66882C38.294 8.10553 38.6025 7.48859 38.6025 6.818C38.6025 6.45588 38.5019 6.15412 38.3007 5.91271C38.113 5.67129 37.7911 5.55059 37.3351 5.55059C36.8925 5.55059 36.4365 5.75847 35.9671 6.17423C35.5111 6.59 35.149 7.10635 34.8807 7.72329C34.3442 9.02424 34.076 10.1508 34.076 11.1031C34.076 12.8734 34.6125 13.7586 35.6854 13.7586C37.0132 13.7586 37.9855 13.0344 38.6025 11.5859L38.9244 11.6664C38.6025 12.4845 38.1331 13.1215 37.5161 13.5775C36.9126 14.0201 36.2286 14.2414 35.4641 14.2414C34.6997 14.2414 34.0559 13.9598 33.5328 13.3965C33.0098 12.8332 32.7482 12.0754 32.7482 11.1232C32.7482 10.1709 32.9293 9.25224 33.2914 8.36706C33.6535 7.46847 34.2168 6.69729 34.9813 6.05353C35.7458 5.39635 36.6175 5.06776 37.5966 5.06776ZM44.5062 5.24882L44.7879 5.45C44.1441 6.92529 43.5808 8.62188 43.098 10.5398H43.2589L43.5808 9.65459C44.2112 7.93788 44.8348 6.74423 45.4518 6.07365C46.0687 5.40306 46.6052 5.06776 47.0612 5.06776C47.5172 5.06776 47.8525 5.21529 48.067 5.51035C48.2951 5.80541 48.4091 6.18765 48.4091 6.65706C48.4091 7.12647 48.3219 7.53553 48.1475 7.88423C47.9732 8.23294 47.7183 8.40729 47.3831 8.40729C47.0612 8.40729 46.7929 8.3 46.5783 8.08541C46.7125 7.91106 46.8399 7.65623 46.9606 7.32094C47.0813 6.98565 47.1416 6.69059 47.1416 6.43576C47.1416 6.04682 46.9807 5.85235 46.6588 5.85235C46.3235 5.85235 45.9078 6.18094 45.4115 6.83812C44.3252 8.25976 43.4065 10.6471 42.6554 14L41.2472 14.1207L43.2187 5.99318L41.9312 6.09376L41.911 5.75176C42.8365 5.63106 43.7015 5.46341 44.5062 5.24882ZM49.3766 13.9396C49.1754 13.7251 49.0748 13.4702 49.0748 13.1752C49.0748 12.8801 49.1754 12.632 49.3766 12.4308C49.5912 12.2162 49.846 12.1089 50.1411 12.1089C50.4361 12.1089 50.6842 12.2162 50.8854 12.4308C51.1 12.632 51.2073 12.8801 51.2073 13.1752C51.2073 13.4702 51.1 13.7251 50.8854 13.9396C50.6842 14.1408 50.4361 14.2414 50.1411 14.2414C49.846 14.2414 49.5912 14.1408 49.3766 13.9396ZM56.6468 5.24882L56.9284 5.45C56.2846 6.92529 55.7213 8.62188 55.2385 10.5398H55.3995L55.7213 9.65459C56.3517 7.93788 56.9753 6.74423 57.5923 6.07365C58.2092 5.40306 58.7457 5.06776 59.2017 5.06776C59.6577 5.06776 59.993 5.21529 60.2076 5.51035C60.4356 5.80541 60.5496 6.18765 60.5496 6.65706C60.5496 7.12647 60.4624 7.53553 60.2881 7.88423C60.1137 8.23294 59.8589 8.40729 59.5236 8.40729C59.2017 8.40729 58.9335 8.3 58.7189 8.08541C58.853 7.91106 58.9804 7.65623 59.1011 7.32094C59.2218 6.98565 59.2822 6.69059 59.2822 6.43576C59.2822 6.04682 59.1212 5.85235 58.7993 5.85235C58.4641 5.85235 58.0483 6.18094 57.552 6.83812C56.4657 8.25976 55.547 10.6471 54.7959 14L53.3877 14.1207L55.3592 5.99318L54.0717 6.09376L54.0516 5.75176C54.977 5.63106 55.842 5.46341 56.6468 5.24882ZM66.0033 5.06776C66.7142 5.06776 67.2439 5.24212 67.5926 5.59082C67.9548 5.92612 68.1358 6.41565 68.1358 7.05941C68.1358 7.68976 67.8877 8.23965 67.3915 8.70906C66.5465 9.51376 65.2925 9.91612 63.6295 9.91612C63.1332 9.91612 62.7041 9.87588 62.3419 9.79541V9.41318C62.8113 9.48024 63.2003 9.51376 63.5088 9.51376C64.6219 9.51376 65.4803 9.23212 66.0838 8.66882C66.7008 8.10553 67.0092 7.48859 67.0092 6.818C67.0092 6.45588 66.9086 6.15412 66.7075 5.91271C66.5197 5.67129 66.1978 5.55059 65.7418 5.55059C65.2992 5.55059 64.8432 5.75847 64.3738 6.17423C63.9178 6.59 63.5557 7.10635 63.2875 7.72329C62.751 9.02424 62.4828 10.1508 62.4828 11.1031C62.4828 12.8734 63.0192 13.7586 64.0922 13.7586C65.4199 13.7586 66.3923 13.0344 67.0092 11.5859L67.3311 11.6664C67.0092 12.4845 66.5398 13.1215 65.9229 13.5775C65.3193 14.0201 64.6353 14.2414 63.8709 14.2414C63.1064 14.2414 62.4626 13.9598 61.9396 13.3965C61.4165 12.8332 61.155 12.0754 61.155 11.1232C61.155 10.1709 61.3361 9.25224 61.6982 8.36706C62.0603 7.46847 62.6236 6.69729 63.3881 6.05353C64.1525 5.39635 65.0243 5.06776 66.0033 5.06776ZM73.3958 5.55059C72.8861 5.55059 72.4503 5.69812 72.0881 5.99318C71.726 6.28823 71.545 6.66376 71.545 7.11976C71.545 7.57576 71.7327 7.99153 72.1083 8.36706C72.4838 8.74259 72.8929 9.05776 73.3354 9.31259C73.778 9.554 74.1871 9.87588 74.5626 10.2782C74.9381 10.6806 75.1259 11.1098 75.1259 11.5658C75.1259 12.4241 74.7906 13.088 74.12 13.5574C73.4629 14.0134 72.6649 14.2414 71.726 14.2414C70.7872 14.2414 69.9624 14.0201 69.2516 13.5775C69.4796 13.1215 69.6941 12.3302 69.8953 11.2036L70.2373 11.264C70.1434 11.8139 70.0965 12.2498 70.0965 12.5716C70.0965 12.8801 70.244 13.1685 70.5391 13.4367C70.8476 13.6915 71.2834 13.8189 71.8467 13.8189C72.4234 13.8189 72.9063 13.6446 73.2952 13.2959C73.6976 12.9472 73.8987 12.4912 73.8987 11.9279C73.8987 11.5658 73.7177 11.2171 73.3556 10.8818C73.0069 10.5331 72.6179 10.2447 72.1887 10.0167C71.773 9.78871 71.384 9.46682 71.0219 9.05106C70.6732 8.63529 70.4989 8.17929 70.4989 7.68306C70.4989 6.94541 70.7872 6.32847 71.3639 5.83223C71.954 5.32259 72.7252 5.06776 73.6774 5.06776C74.4151 5.06776 75.146 5.24882 75.8703 5.61094C75.8032 5.75847 75.6892 6.09376 75.5283 6.61682C75.3807 7.13988 75.2667 7.63612 75.1863 8.10553L74.8443 8.04518C74.9247 7.616 74.965 7.20694 74.965 6.818C74.965 6.41565 74.8309 6.10718 74.5626 5.89259C74.3078 5.66459 73.9189 5.55059 73.3958 5.55059ZM83.0303 12.7326C83.0303 12.5314 83.0638 12.2095 83.1309 11.7669H83.0303C82.1719 13.4166 81.1794 14.2414 80.0529 14.2414C78.8458 14.2414 78.2423 13.5708 78.2423 12.2296C78.2423 11.3579 78.5507 9.74176 79.1677 7.38129L79.5298 5.99318L78.2423 6.09376L78.2221 5.75176C79.1476 5.63106 80.0126 5.46341 80.8173 5.24882L81.099 5.45C79.9724 8.95047 79.4091 11.1902 79.4091 12.1693C79.4091 13.1484 79.7779 13.6379 80.5156 13.6379C81.1325 13.6379 81.736 13.1886 82.3261 12.29C82.9297 11.378 83.4259 10.1575 83.8149 8.62859L84.4989 5.99318L83.2113 6.09376L83.1912 5.75176C84.1166 5.63106 84.9817 5.46341 85.7864 5.24882L86.068 5.45C85.5986 6.84482 85.156 8.34024 84.7403 9.93624C84.3245 11.5322 84.1166 12.5582 84.1166 13.0142C84.1166 13.4568 84.2843 13.6781 84.6196 13.6781C84.8744 13.6781 85.1493 13.5105 85.4444 13.1752C85.7394 12.8265 85.9943 12.3369 86.2089 11.7066L86.5307 11.7871C85.954 13.4233 85.203 14.2414 84.2776 14.2414C83.446 14.2414 83.0303 13.7385 83.0303 12.7326ZM89.8622 13.0142C89.8622 13.4568 90.0299 13.6781 90.3652 13.6781C90.62 13.6781 90.895 13.5105 91.19 13.1752C91.4851 12.8265 91.7399 12.3369 91.9545 11.7066L92.2764 11.7871C91.6997 13.4233 90.9486 14.2414 90.0232 14.2414C89.1917 14.2414 88.7759 13.7184 88.7759 12.6722C88.7759 11.6127 89.6544 7.89765 91.4113 1.52706L90.1238 1.62765L90.1037 1.28565C91.0291 1.16494 91.8941 0.997294 92.6988 0.782706L92.9805 0.983882C92.4172 2.63353 91.7533 4.87329 90.9888 7.70318C90.2378 10.5196 89.8622 12.29 89.8622 13.0142ZM94.6628 6.03341L94.7634 5.65118H99.2295L99.1289 6.03341H94.6628ZM97.8615 3.1767L98.1432 3.37788C97.8347 4.31671 97.4189 5.792 96.8959 7.80376C96.3862 9.81553 96.0778 11.1165 95.9705 11.7066C95.8632 12.2833 95.8095 12.7192 95.8095 13.0142C95.8095 13.4568 95.9772 13.6781 96.3125 13.6781C96.5673 13.6781 96.8422 13.5105 97.1373 13.1752C97.4324 12.8265 97.6872 12.3369 97.9018 11.7066L98.2236 11.7871C97.6469 13.4233 96.8959 14.2414 95.9705 14.2414C95.1389 14.2414 94.7232 13.7385 94.7232 12.7326C94.7232 11.9011 95.2194 9.58082 96.2119 5.77188L94.7634 5.65118C95.5011 5.65118 96.0979 5.47682 96.5539 5.12812C97.0099 4.766 97.4458 4.11553 97.8615 3.1767ZM105.031 8.95047H103.059C102.442 11.7938 102.134 13.2892 102.134 13.4367C102.134 13.5708 102.208 13.6379 102.355 13.6379H103.824L103.763 14H99.4783L99.5387 13.6379H100.464C100.638 13.6379 100.746 13.5373 100.786 13.3361C102.395 5.71824 103.2 1.87576 103.2 1.80871C103.2 1.72823 103.126 1.688 102.979 1.688H102.094L102.154 1.32588H106.64C107.552 1.32588 108.303 1.58071 108.893 2.09035C109.483 2.6 109.779 3.30412 109.779 4.20271C109.779 5.62435 109.289 6.77106 108.31 7.64282C107.331 8.51459 106.238 8.95047 105.031 8.95047ZM106.419 1.78859H104.588L103.16 8.48776H105.051C106.017 8.48776 106.821 8.01835 107.465 7.07953C108.122 6.14071 108.451 5.15494 108.451 4.12223C108.451 3.45165 108.276 2.89506 107.928 2.45247C107.592 2.00988 107.089 1.78859 106.419 1.78859ZM115.838 12.7326C115.838 12.5314 115.871 12.2095 115.938 11.7669H115.838C114.979 13.4166 113.987 14.2414 112.86 14.2414C111.653 14.2414 111.05 13.5708 111.05 12.2296C111.05 11.3579 111.358 9.74176 111.975 7.38129L112.337 5.99318L111.05 6.09376L111.03 5.75176C111.955 5.63106 112.82 5.46341 113.625 5.24882L113.906 5.45C112.78 8.95047 112.217 11.1902 112.217 12.1693C112.217 13.1484 112.585 13.6379 113.323 13.6379C113.94 13.6379 114.544 13.1886 115.134 12.29C115.737 11.378 116.233 10.1575 116.622 8.62859L117.306 5.99318L116.019 6.09376L115.999 5.75176C116.924 5.63106 117.789 5.46341 118.594 5.24882L118.876 5.45C118.406 6.84482 117.964 8.34024 117.548 9.93624C117.132 11.5322 116.924 12.5582 116.924 13.0142C116.924 13.4568 117.092 13.6781 117.427 13.6781C117.682 13.6781 117.957 13.5105 118.252 13.1752C118.547 12.8265 118.802 12.3369 119.016 11.7066L119.338 11.7871C118.762 13.4233 118.01 14.2414 117.085 14.2414C116.254 14.2414 115.838 13.7385 115.838 12.7326ZM122.971 10.5398H123.132L123.454 9.65459C124.581 6.59671 125.815 5.06776 127.156 5.06776C127.786 5.06776 128.309 5.34941 128.725 5.91271C129.154 6.46259 129.369 7.14659 129.369 7.96471C129.369 8.76941 129.262 9.52047 129.047 10.2179C128.832 10.9153 128.531 11.5725 128.142 12.1894C127.753 12.7929 127.236 13.2892 126.593 13.6781C125.949 14.0536 125.292 14.2414 124.621 14.2414C123.951 14.2414 123.374 14.114 122.891 13.8592C122.408 13.5909 122.033 13.2422 121.764 12.8131L121.945 12.2699C122.589 13.2892 123.414 13.7988 124.42 13.7988C125.184 13.7988 125.848 13.4501 126.412 12.7527C126.975 12.0419 127.371 11.264 127.599 10.4191C127.84 9.56071 127.961 8.77612 127.961 8.06529C127.961 7.34106 127.84 6.79118 127.599 6.41565C127.371 6.02671 127.102 5.83223 126.794 5.83223C126.485 5.83223 126.177 5.96635 125.868 6.23459C125.56 6.48941 125.225 6.89176 124.863 7.44165C124.085 8.64871 123.354 10.6269 122.67 13.3764L122.066 12.7326L121.463 14.2414L121.121 14.1207L124.279 1.52706L122.992 1.62765L122.971 1.28565C123.897 1.16494 124.762 0.997294 125.567 0.782706L125.848 0.983882C124.762 4.14906 123.803 7.33435 122.971 10.5398ZM132.463 13.0142C132.463 13.4568 132.631 13.6781 132.966 13.6781C133.221 13.6781 133.496 13.5105 133.791 13.1752C134.086 12.8265 134.341 12.3369 134.555 11.7066L134.877 11.7871C134.3 13.4233 133.549 14.2414 132.624 14.2414C131.792 14.2414 131.377 13.7184 131.377 12.6722C131.377 11.6127 132.255 7.89765 134.012 1.52706L132.724 1.62765L132.704 1.28565C133.63 1.16494 134.495 0.997294 135.3 0.782706L135.581 0.983882C135.018 2.63353 134.354 4.87329 133.59 7.70318C132.838 10.5196 132.463 12.29 132.463 13.0142ZM139.597 3.056C139.423 2.88165 139.336 2.66706 139.336 2.41223C139.336 2.15741 139.423 1.94282 139.597 1.76847C139.772 1.59412 139.986 1.50694 140.241 1.50694C140.496 1.50694 140.71 1.59412 140.885 1.76847C141.059 1.94282 141.146 2.15741 141.146 2.41223C141.146 2.66706 141.059 2.88165 140.885 3.056C140.71 3.23035 140.496 3.31753 140.241 3.31753C139.986 3.31753 139.772 3.23035 139.597 3.056ZM137.324 12.7326C137.324 12.0218 137.813 9.77529 138.792 5.99318L137.505 6.09376L137.485 5.75176C138.41 5.63106 139.275 5.46341 140.08 5.24882L140.362 5.45C139.892 6.84482 139.45 8.34024 139.034 9.93624C138.618 11.5322 138.41 12.5582 138.41 13.0142C138.41 13.4568 138.578 13.6781 138.913 13.6781C139.168 13.6781 139.443 13.5105 139.738 13.1752C140.033 12.8265 140.288 12.3369 140.502 11.7066L140.824 11.7871C140.248 13.4233 139.497 14.2414 138.571 14.2414C137.74 14.2414 137.324 13.7385 137.324 12.7326ZM147.43 5.55059C146.88 5.55059 146.371 5.75847 145.901 6.17423C145.445 6.59 145.083 7.10635 144.815 7.72329C144.279 9.02424 144.01 10.1508 144.01 11.1031C144.01 12.8734 144.547 13.7586 145.62 13.7586C146.947 13.7586 147.92 13.0344 148.537 11.5859L148.859 11.6664C148.537 12.4845 148.067 13.1215 147.45 13.5775C146.847 14.0201 146.163 14.2414 145.398 14.2414C144.634 14.2414 143.99 13.9598 143.467 13.3965C142.944 12.8332 142.683 12.0754 142.683 11.1232C142.683 10.1709 142.864 9.25224 143.226 8.36706C143.588 7.46847 144.151 6.69729 144.916 6.05353C145.68 5.39635 146.552 5.06776 147.531 5.06776C148.201 5.06776 148.704 5.24212 149.04 5.59082C149.388 5.92612 149.563 6.33518 149.563 6.818C149.563 7.28741 149.476 7.70988 149.301 8.08541C149.14 8.46094 148.879 8.64871 148.517 8.64871C148.168 8.64871 147.906 8.54141 147.732 8.32682C148.121 7.73671 148.315 7.16 148.315 6.59671C148.315 5.89929 148.02 5.55059 147.43 5.55059ZM155.547 1.96965L153.133 13.4367C153.133 13.5708 153.207 13.6379 153.354 13.6379H154.239L154.179 14H150.477L150.538 13.6379H151.463C151.637 13.6379 151.745 13.5373 151.785 13.3361C153.394 5.71824 154.199 1.87576 154.199 1.80871C154.199 1.72823 154.125 1.688 153.978 1.688H153.093L153.153 1.32588H156.855L156.794 1.688H155.889C155.715 1.688 155.601 1.78188 155.547 1.96965ZM158.424 10.4794L158.464 12.3302C158.491 13.1618 158.712 13.5775 159.128 13.5775C159.396 13.5775 159.617 13.4367 159.792 13.1551C159.98 12.8734 160.073 12.5113 160.073 12.0687L160.456 12.0084C160.456 12.6924 160.275 13.2355 159.913 13.6379C159.564 14.0402 159.121 14.2414 158.585 14.2414C157.633 14.2414 157.13 13.5239 157.076 12.0888L156.995 10.1173C156.955 9.24553 156.774 8.642 156.452 8.30671C156.13 7.958 155.601 7.78365 154.863 7.78365L154.964 7.46176L160.697 1.688H159.752L159.812 1.32588H162.407L162.347 1.688H161.824C161.609 1.688 161.415 1.78188 161.24 1.96965L155.788 7.42153C156.754 7.43494 157.425 7.71659 157.8 8.26647C158.189 8.81635 158.397 9.554 158.424 10.4794ZM167.766 5.06776C168.476 5.06776 169.006 5.24212 169.355 5.59082C169.717 5.92612 169.898 6.41565 169.898 7.05941C169.898 7.68976 169.65 8.23965 169.154 8.70906C168.309 9.51376 167.055 9.91612 165.392 9.91612C164.896 9.91612 164.466 9.87588 164.104 9.79541V9.41318C164.574 9.48024 164.963 9.51376 165.271 9.51376C166.384 9.51376 167.243 9.23212 167.846 8.66882C168.463 8.10553 168.772 7.48859 168.772 6.818C168.772 6.45588 168.671 6.15412 168.47 5.91271C168.282 5.67129 167.96 5.55059 167.504 5.55059C167.062 5.55059 166.606 5.75847 166.136 6.17423C165.68 6.59 165.318 7.10635 165.05 7.72329C164.513 9.02424 164.245 10.1508 164.245 11.1031C164.245 12.8734 164.782 13.7586 165.854 13.7586C167.182 13.7586 168.155 13.0344 168.772 11.5859L169.093 11.6664C168.772 12.4845 168.302 13.1215 167.685 13.5775C167.082 14.0201 166.398 14.2414 165.633 14.2414C164.869 14.2414 164.225 13.9598 163.702 13.3965C163.179 12.8332 162.917 12.0754 162.917 11.1232C162.917 10.1709 163.098 9.25224 163.46 8.36706C163.823 7.46847 164.386 6.69729 165.15 6.05353C165.915 5.39635 166.787 5.06776 167.766 5.06776ZM174.534 13.5775C175.393 13.5775 176.244 12.9539 177.089 11.7066C177.948 10.4459 178.377 9.27235 178.377 8.186C178.377 7.08623 178.028 6.18765 177.331 5.49024C177.666 5.20859 177.975 5.06776 178.256 5.06776C178.779 5.06776 179.041 5.80541 179.041 7.28071C179.041 8.756 178.88 10.1106 178.558 11.3445C178.236 12.5649 177.814 13.6044 177.291 14.4627C176.781 15.3211 176.197 16.0654 175.54 16.6958C174.266 17.9565 172.972 18.5868 171.658 18.5868C170.987 18.5868 170.484 18.4326 170.149 18.1241C169.8 17.8156 169.626 17.4535 169.626 17.0378C169.626 16.622 169.713 16.2465 169.887 15.9112C170.048 15.5759 170.296 15.4082 170.632 15.4082C170.967 15.4082 171.242 15.5021 171.456 15.6899C171.067 16.1861 170.873 16.6421 170.873 17.0579C170.873 17.7285 171.228 18.0638 171.939 18.0638C172.409 18.0638 172.952 17.8894 173.569 17.5407C174.186 17.2054 174.809 16.7226 175.44 16.0922C176.07 15.4753 176.647 14.6438 177.17 13.5976C177.706 12.5515 178.082 11.4182 178.296 10.1978C177.854 11.3646 177.257 12.3302 176.506 13.0947C175.768 13.8592 174.917 14.2414 173.951 14.2414C173.455 14.2414 173.052 14.0738 172.744 13.7385C172.449 13.3898 172.301 12.9204 172.301 12.3302C172.301 11.7401 172.523 10.7074 172.965 9.23212C173.421 7.75682 173.649 6.79118 173.649 6.33518C173.649 5.86576 173.475 5.63106 173.126 5.63106C172.871 5.63106 172.603 5.80541 172.321 6.15412C172.04 6.48941 171.812 6.97224 171.637 7.60259L171.295 7.52212C171.792 5.88588 172.509 5.06776 173.448 5.06776C174.32 5.06776 174.756 5.53718 174.756 6.476C174.756 6.85153 174.548 7.78365 174.132 9.27235C173.716 10.7611 173.508 11.7401 173.508 12.2095C173.508 13.1215 173.85 13.5775 174.534 13.5775Z" fill="#6082FA"/>
</svg>
