<svg width="34" height="17" viewBox="0 0 34 17" fill="none" xmlns="http://www.w3.org/2000/svg">
<path opacity="0.86" d="M10.765 0.7798L11.2114 0.8914C11.0626 1.747 10.7929 2.3887 10.4023 2.8165L3.3157 10.5169C3.6877 10.5355 4.348 10.7401 5.2966 11.1307C6.2638 11.5213 7.0171 11.7166 7.5565 11.7166C8.6353 11.7166 9.3049 10.9726 9.5653 9.4846L10.0954 9.5683C9.835 12.0793 9.0631 13.3348 7.7797 13.3348C6.9985 13.3348 6.0778 13.0372 5.0176 12.442C3.976 11.8468 3.2413 11.5492 2.8135 11.5492C2.1625 11.5492 1.6603 12.1444 1.3069 13.3348L0.8884 13.1953C1.2046 12.1909 1.558 11.4655 1.9486 11.0191L9.091 3.235C8.7748 3.2164 8.1889 3.0397 7.3333 2.7049C6.4777 2.3701 5.7895 2.2027 5.2687 2.2027C4.1899 2.2027 3.5203 2.9095 3.2599 4.3231L2.7298 4.2394C2.9902 1.8214 3.7621 0.612399 5.0455 0.612399C5.8453 0.612399 6.7102 0.872799 7.6402 1.3936C8.5888 1.9144 9.1933 2.1748 9.4537 2.1748C10.0675 2.1748 10.5046 1.7098 10.765 0.7798Z" fill="#6082FA"/>
<path opacity="0.86" d="M19.867 6.772L18.372 10.88C18.4587 11.3653 18.5973 11.7337 18.788 11.985C18.9873 12.2363 19.1867 12.362 19.386 12.362C19.75 12.362 19.984 12.011 20.088 11.309H20.322L20.296 12.076C20.296 12.3967 20.1963 12.6783 19.997 12.921C19.8063 13.1637 19.5983 13.285 19.373 13.285C18.9657 13.285 18.541 12.6827 18.099 11.478C17.6137 12.3013 17.1543 12.817 16.721 13.025C16.2963 13.2243 15.8543 13.324 15.395 13.324C14.6583 13.324 14.0343 13.051 13.523 12.505C13.0203 11.959 12.769 11.1703 12.769 10.139C12.769 8.95167 13.0507 8.06767 13.614 7.487C14.1773 6.89767 14.8447 6.603 15.616 6.603C15.6767 6.603 15.7417 6.60733 15.811 6.616C15.8803 6.62467 15.9323 6.629 15.967 6.629C17.0243 6.811 17.6613 7.63 17.878 9.086L18.723 6.772H19.867ZM17.527 10.191C17.3363 8.90833 17.0677 8.07633 16.721 7.695C16.383 7.305 15.9713 7.11 15.486 7.11C15.122 7.11 14.8013 7.37433 14.524 7.903C14.2467 8.423 14.108 9.12067 14.108 9.996C14.108 11.01 14.2467 11.7467 14.524 12.206C14.8013 12.6567 15.148 12.882 15.564 12.882C16.214 12.882 16.7383 12.3403 17.137 11.257L17.527 10.191ZM23.923 14.962H23.494L26.731 5.576H27.173L23.923 14.962ZM31.5064 6.759C31.0384 6.759 30.683 6.90633 30.4404 7.201C30.1977 7.49567 30.0764 7.85533 30.0764 8.28C30.0764 8.40133 30.0894 8.514 30.1154 8.618C29.9507 8.748 29.747 8.813 29.5044 8.813C29.2877 8.813 29.1794 8.67433 29.1794 8.397C29.1794 7.877 29.3917 7.42633 29.8164 7.045C30.241 6.66367 30.787 6.473 31.4544 6.473C32.1217 6.473 32.6114 6.60733 32.9234 6.876C33.244 7.136 33.4044 7.46533 33.4044 7.864C33.4044 8.26267 33.3264 8.58767 33.1704 8.839C33.023 9.08167 32.906 9.268 32.8194 9.398C32.7327 9.528 32.5984 9.68833 32.4164 9.879C32.2344 10.061 32.0957 10.1997 32.0004 10.295C31.905 10.3817 31.749 10.5203 31.5324 10.711C31.3157 10.9017 31.177 11.0273 31.1164 11.088L28.8284 13.181H31.8054C31.996 13.181 32.1304 13.0857 32.2084 12.895L32.6114 11.764H32.8844L32.7544 12.388C32.5984 13.142 32.5204 13.7183 32.5204 14.117C32.2517 14.039 31.788 14 31.1294 14H27.4764L30.9734 10.75C31.502 10.2647 31.8747 9.749 32.0914 9.203C32.3167 8.64833 32.4294 8.18033 32.4294 7.799C32.4294 7.10567 32.1217 6.759 31.5064 6.759Z" fill="#6082FA"/>
</svg>
