<svg width="44" height="23" viewBox="0 0 44 23" fill="none" xmlns="http://www.w3.org/2000/svg">
<path opacity="0.86" d="M15.7924 5.32588H18.3875L18.3272 5.688H17.6231C17.4353 5.688 17.2945 5.78188 17.2006 5.96965L11.1049 18H10.4612L9.45529 7.98141L4.24482 18H3.60106L2.61529 5.96965C2.58847 5.78188 2.48788 5.688 2.31353 5.688H1.60941L1.66976 5.32588H5.00929L4.94894 5.688H4.00341L4.82824 15.6462L9.37482 6.91518L9.27424 5.96965C9.24741 5.78188 9.14682 5.688 8.97247 5.688H8.26835L8.32871 5.32588H11.6884L11.628 5.688H10.6624L11.6682 15.5859L16.6775 5.688H15.732L15.7924 5.32588Z" fill="#6082FA"/>
<path opacity="0.86" d="M17.8986 14.6889L17.9656 14.4341H20.9431L20.876 14.6889H17.8986ZM20.0311 12.7845L20.2188 12.9186C20.0132 13.5445 19.736 14.528 19.3873 15.8692C19.0475 17.2104 18.8419 18.0776 18.7704 18.4711C18.6988 18.8555 18.6631 19.1461 18.6631 19.3428C18.6631 19.6379 18.7748 19.7854 18.9984 19.7854C19.1682 19.7854 19.3515 19.6736 19.5482 19.4501C19.7449 19.2176 19.9148 18.8913 20.0579 18.4711L20.2725 18.5247C19.888 19.6155 19.3873 20.1609 18.7704 20.1609C18.216 20.1609 17.9388 19.8256 17.9388 19.1551C17.9388 18.6007 18.2696 17.0539 18.9313 14.5146L17.9656 14.4341C18.4574 14.4341 18.8553 14.3179 19.1593 14.0854C19.4633 13.844 19.7539 13.4104 20.0311 12.7845ZM21.5113 18.0553C21.5113 17.1344 21.7795 16.2536 22.316 15.4132C22.5753 15.0108 22.915 14.6845 23.3353 14.4341C23.7555 14.1748 24.2339 14.0452 24.7703 14.0452C25.3157 14.0452 25.7583 14.2285 26.0981 14.5951C26.4379 14.9616 26.6077 15.4624 26.6077 16.0972C26.6077 16.732 26.4915 17.3489 26.259 17.948C26.0266 18.5471 25.66 19.0656 25.1593 19.5038C24.6586 19.9419 24.0953 20.1609 23.4694 20.1609C22.8435 20.1609 22.3607 19.9776 22.0209 19.6111C21.6812 19.2445 21.5113 18.7259 21.5113 18.0553ZM24.663 14.3402C24.1802 14.3402 23.751 14.5816 23.3755 15.0645C23.0089 15.5473 22.7452 16.0748 22.5842 16.6471C22.4322 17.2193 22.3562 17.7558 22.3562 18.2565C22.3562 18.7482 22.4546 19.1416 22.6513 19.4367C22.8569 19.7228 23.1341 19.8659 23.4828 19.8659C23.8405 19.8659 24.1713 19.7228 24.4753 19.4367C24.7882 19.1506 25.0341 18.7974 25.2129 18.3772C25.5795 17.5188 25.7628 16.7767 25.7628 16.1508C25.7628 15.516 25.6645 15.0555 25.4677 14.7694C25.271 14.4833 25.0028 14.3402 24.663 14.3402ZM28.3105 14.6889L28.3776 14.4341H31.355L31.2879 14.6889H28.3105ZM30.443 12.7845L30.6308 12.9186C30.4251 13.5445 30.1479 14.528 29.7992 15.8692C29.4595 17.2104 29.2538 18.0776 29.1823 18.4711C29.1108 18.8555 29.075 19.1461 29.075 19.3428C29.075 19.6379 29.1868 19.7854 29.4103 19.7854C29.5802 19.7854 29.7635 19.6736 29.9602 19.4501C30.1569 19.2176 30.3268 18.8913 30.4698 18.4711L30.6844 18.5247C30.2999 19.6155 29.7992 20.1609 29.1823 20.1609C28.6279 20.1609 28.3508 19.8256 28.3508 19.1551C28.3508 18.6007 28.6816 17.0539 29.3432 14.5146L28.3776 14.4341C28.8693 14.4341 29.2672 14.3179 29.5712 14.0854C29.8752 13.844 30.1658 13.4104 30.443 12.7845ZM37.355 14.3C37.042 15.2299 36.747 16.2268 36.4698 17.2908C36.1926 18.3548 36.054 19.0388 36.054 19.3428C36.054 19.6379 36.1658 19.7854 36.3893 19.7854C36.5592 19.7854 36.7425 19.6736 36.9392 19.4501C37.1359 19.2176 37.3058 18.8913 37.4489 18.4711L37.6634 18.5247C37.279 19.6155 36.7783 20.1609 36.1613 20.1609C35.607 20.1609 35.3298 19.8256 35.3298 19.1551C35.3298 19.0209 35.3521 18.8064 35.3969 18.5113H35.3298C34.7754 19.6111 34.1317 20.1609 33.3985 20.1609C32.9783 20.1609 32.6251 19.9776 32.339 19.6111C32.0618 19.2355 31.9232 18.7795 31.9232 18.2431C31.9232 17.6976 31.9947 17.1925 32.1378 16.7275C32.2809 16.2626 32.482 15.8289 32.7413 15.4266C33.0006 15.0153 33.3449 14.6845 33.774 14.4341C34.2032 14.1748 34.6726 14.0452 35.1823 14.0452C35.8439 14.0452 36.367 14.3268 36.7514 14.8901L37.1672 14.1659L37.355 14.3ZM33.7204 19.7586C34.0959 19.7586 34.4759 19.468 34.8604 18.8868C35.2985 18.2162 35.7053 17.1209 36.0809 15.6009C36.1613 15.2433 36.2239 14.984 36.2686 14.8231C35.9557 14.5191 35.5936 14.3671 35.1823 14.3671C34.7799 14.3671 34.4178 14.5056 34.0959 14.7828C33.783 15.06 33.5371 15.4087 33.3583 15.8289C32.9917 16.6873 32.8084 17.4965 32.8084 18.2565C32.8084 18.7572 32.8889 19.1327 33.0498 19.3831C33.2197 19.6334 33.4432 19.7586 33.7204 19.7586ZM39.8898 19.3428C39.8898 19.6379 40.0016 19.7854 40.2251 19.7854C40.395 19.7854 40.5783 19.6736 40.775 19.4501C40.9717 19.2176 41.1416 18.8913 41.2846 18.4711L41.4992 18.5247C41.1147 19.6155 40.614 20.1609 39.9971 20.1609C39.4427 20.1609 39.1656 19.8122 39.1656 19.1148C39.1656 18.4085 39.7512 15.9318 40.9225 11.6847L40.0641 11.7518L40.0507 11.5238C40.6677 11.4433 41.2444 11.3315 41.7809 11.1885L41.9686 11.3226C41.5931 12.4224 41.1505 13.9155 40.6409 15.8021C40.1401 17.6798 39.8898 18.86 39.8898 19.3428Z" fill="#6082FA"/>
</svg>
