<svg width="12" height="19" viewBox="0 0 12 19" fill="none" xmlns="http://www.w3.org/2000/svg">
<path opacity="0.86" d="M5.17985 5.25849L5.46118 5.45945C4.81813 6.93311 4.25546 8.62782 3.77317 10.5436H3.93393L4.25546 9.65939C5.3674 6.60489 6.64011 5.07763 8.07359 5.07763C8.64966 5.07763 9.13864 5.35897 9.54055 5.92164C9.95586 6.48431 10.1635 7.16756 10.1635 7.97137C10.1635 8.77519 10.0563 9.52542 9.84198 10.2221C9.64103 10.9053 9.3463 11.5484 8.95779 12.1512C8.56927 12.7407 8.06019 13.223 7.43053 13.5981C6.80088 13.9732 6.10424 14.1608 5.34061 14.1608C4.17508 14.1608 3.26408 13.645 2.60763 12.6134L2.7483 12.2718C3.39135 13.2498 4.23536 13.7388 5.28032 13.7388C5.88319 13.7388 6.41906 13.5378 6.88796 13.1359C7.37025 12.734 7.73866 12.2316 7.99321 11.6287C8.50229 10.3962 8.75683 9.1905 8.75683 8.01157C8.75683 7.32832 8.65635 6.79914 8.4554 6.42403C8.26784 6.03552 8.02 5.84126 7.71187 5.84126C7.08221 5.84126 6.37218 6.45082 5.58176 7.66994C4.80473 8.88906 4.10139 10.7914 3.47174 13.377L2.26601 18.3406L0.859332 18.4612L3.89374 6.00202L2.60763 6.1025L2.58754 5.76088C3.51193 5.64031 4.37603 5.47284 5.17985 5.25849Z" fill="#6082FA"/>
<path opacity="0.86" d="M4.028 3.69544L7.304 1.60894L10.541 3.69544C10.736 3.69544 11.2235 3.53944 11.2625 3.42244L7.889 0.224437C7.655 0.126937 6.9335 0.126937 6.6995 0.224437L3.326 3.42244C3.365 3.53944 3.833 3.67594 4.028 3.69544Z" fill="#6082FA"/>
</svg>
