<svg width="398" height="24" viewBox="0 0 398 24" fill="none" xmlns="http://www.w3.org/2000/svg">
<path opacity="0.86" d="M5.63294 5.60753C6.41082 5.25882 7.23565 5.08447 8.10741 5.08447C9.43518 5.08447 10.4813 5.48682 11.2458 6.29153C12.0236 7.08282 12.4126 8.20271 12.4126 9.65118C12.4126 10.6302 12.2516 11.6227 11.9298 12.6286C11.6079 13.6211 11.1586 14.5398 10.5819 15.3847C10.0052 16.2296 9.25412 16.9204 8.32871 17.4568C7.40329 17.9799 6.33706 18.2414 5.13 18.2414C3.92294 18.2414 2.93047 17.8391 2.15259 17.0344C1.38812 16.2296 1.00588 15.0628 1.00588 13.5339C1.00588 12.0049 1.42165 10.4626 2.25318 8.90682C3.09812 7.35106 4.22471 6.25129 5.63294 5.60753ZM10.1795 6.63353C9.64306 5.94953 8.93224 5.60753 8.04706 5.60753C7.16188 5.60753 6.34377 5.89588 5.59271 6.47259C4.84165 7.03588 4.24482 7.75341 3.80224 8.62518C2.87682 10.4224 2.41412 12.1659 2.41412 13.8558C2.41412 15.0762 2.67565 16.0285 3.19871 16.7125C3.73518 17.3831 4.446 17.7184 5.33118 17.7184C6.22977 17.7184 7.05459 17.4367 7.80565 16.8734C8.55671 16.2967 9.16024 15.5792 9.61624 14.7208C10.5416 12.9371 11.0044 11.1935 11.0044 9.49024C11.0044 8.26976 10.7294 7.31753 10.1795 6.63353ZM17.1795 9.24882L17.4612 9.45C16.8174 10.9253 16.2541 12.6219 15.7713 14.5398H15.9322L16.2541 13.6546C16.8845 11.9379 17.5081 10.7442 18.1251 10.0736C18.742 9.40306 19.2785 9.06776 19.7345 9.06776C20.1905 9.06776 20.5258 9.21529 20.7404 9.51035C20.9684 9.80541 21.0824 10.1876 21.0824 10.6571C21.0824 11.1265 20.9952 11.5355 20.8208 11.8842C20.6465 12.2329 20.3916 12.4073 20.0564 12.4073C19.7345 12.4073 19.4662 12.3 19.2516 12.0854C19.3858 11.9111 19.5132 11.6562 19.6339 11.3209C19.7546 10.9856 19.8149 10.6906 19.8149 10.4358C19.8149 10.0468 19.654 9.85235 19.3321 9.85235C18.9968 9.85235 18.5811 10.1809 18.0848 10.8381C16.9985 12.2598 16.0798 14.6471 15.3287 18L13.9205 18.1207L15.892 9.99318L14.6045 10.0938L14.5844 9.75176C15.5098 9.63106 16.3748 9.46341 17.1795 9.24882ZM27.884 17.0142C27.884 17.4568 28.0516 17.6781 28.3869 17.6781C28.6418 17.6781 28.9167 17.5105 29.2118 17.1752C29.5068 16.8265 29.7616 16.3369 29.9762 15.7066L30.2981 15.7871C29.7214 17.4233 28.9704 18.2414 28.0449 18.2414C27.2134 18.2414 26.7976 17.7184 26.7976 16.6722C26.7976 15.6127 27.6761 11.8976 29.4331 5.52706L28.1455 5.62765L28.1254 5.28565C29.0508 5.16494 29.9159 4.99729 30.7206 4.78271L31.0022 4.98388C30.4389 6.63353 29.7751 8.87329 29.0106 11.7032C28.2595 14.5196 27.884 16.29 27.884 17.0142ZM26.9988 15.7669H26.7976C25.9661 17.4166 25.0005 18.2414 23.9007 18.2414C23.2704 18.2414 22.7406 17.9665 22.3114 17.4166C21.8956 16.8533 21.6878 16.1693 21.6878 15.3646C21.6878 14.5465 21.7951 13.7887 22.0096 13.0913C22.2242 12.3939 22.526 11.7434 22.9149 11.1399C23.3039 10.5229 23.8202 10.0267 24.464 9.65118C25.1078 9.26223 25.7649 9.06776 26.4355 9.06776C27.7231 9.06776 28.6351 9.63106 29.1715 10.7576L28.8899 11.1198C28.2595 10.0736 27.4749 9.55059 26.5361 9.55059C25.9594 9.55059 25.4296 9.75847 24.9468 10.1742C24.4774 10.59 24.1086 11.1131 23.8404 11.7434C23.2905 13.0309 23.0155 14.2447 23.0155 15.3847C23.0155 16.1358 23.1362 16.6991 23.3776 17.0746C23.6325 17.4501 23.9678 17.6379 24.3835 17.6379C24.9602 17.6379 25.5504 17.1551 26.1539 16.1894C26.7574 15.2104 27.2939 13.8155 27.7633 12.0049L26.9988 15.7669ZM36.9973 9.06776C37.7081 9.06776 38.2379 9.24212 38.5866 9.59082C38.9487 9.92612 39.1298 10.4156 39.1298 11.0594C39.1298 11.6898 38.8816 12.2396 38.3854 12.7091C37.5405 13.5138 36.2865 13.9161 34.6234 13.9161C34.1272 13.9161 33.698 13.8759 33.3359 13.7954V13.4132C33.8053 13.4802 34.1942 13.5138 34.5027 13.5138C35.6159 13.5138 36.4742 13.2321 37.0778 12.6688C37.6947 12.1055 38.0032 11.4886 38.0032 10.818C38.0032 10.4559 37.9026 10.1541 37.7014 9.91271C37.5136 9.67129 37.1918 9.55059 36.7358 9.55059C36.2932 9.55059 35.8372 9.75847 35.3678 10.1742C34.9118 10.59 34.5496 11.1064 34.2814 11.7233C33.7449 13.0242 33.4767 14.1508 33.4767 15.1031C33.4767 16.8734 34.0132 17.7586 35.0861 17.7586C36.4139 17.7586 37.3862 17.0344 38.0032 15.5859L38.3251 15.6664C38.0032 16.4845 37.5338 17.1215 36.9168 17.5775C36.3133 18.0201 35.6293 18.2414 34.8648 18.2414C34.1004 18.2414 33.4566 17.9598 32.9335 17.3965C32.4105 16.8332 32.1489 16.0754 32.1489 15.1232C32.1489 14.1709 32.33 13.2522 32.6921 12.3671C33.0542 11.4685 33.6175 10.6973 34.382 10.0535C35.1465 9.39635 36.0182 9.06776 36.9973 9.06776ZM43.9069 9.24882L44.1886 9.45C43.5448 10.9253 42.9815 12.6219 42.4987 14.5398H42.6596L42.9815 13.6546C43.6119 11.9379 44.2355 10.7442 44.8525 10.0736C45.4694 9.40306 46.0059 9.06776 46.4619 9.06776C46.9179 9.06776 47.2532 9.21529 47.4677 9.51035C47.6957 9.80541 47.8097 10.1876 47.8097 10.6571C47.8097 11.1265 47.7226 11.5355 47.5482 11.8842C47.3739 12.2329 47.119 12.4073 46.7837 12.4073C46.4619 12.4073 46.1936 12.3 45.979 12.0854C46.1132 11.9111 46.2406 11.6562 46.3613 11.3209C46.482 10.9856 46.5423 10.6906 46.5423 10.4358C46.5423 10.0468 46.3814 9.85235 46.0595 9.85235C45.7242 9.85235 45.3085 10.1809 44.8122 10.8381C43.7259 12.2598 42.8072 14.6471 42.0561 18L40.6479 18.1207L42.6194 9.99318L41.3319 10.0938L41.3117 9.75176C42.2372 9.63106 43.1022 9.46341 43.9069 9.24882ZM48.7773 17.9396C48.5761 17.7251 48.4755 17.4702 48.4755 17.1752C48.4755 16.8801 48.5761 16.632 48.7773 16.4308C48.9919 16.2162 49.2467 16.1089 49.5417 16.1089C49.8368 16.1089 50.0849 16.2162 50.2861 16.4308C50.5007 16.632 50.608 16.8801 50.608 17.1752C50.608 17.4702 50.5007 17.7251 50.2861 17.9396C50.0849 18.1408 49.8368 18.2414 49.5417 18.2414C49.2467 18.2414 48.9919 18.1408 48.7773 17.9396ZM54.7599 5.32588H60.8153C61.8346 5.32588 62.5589 5.26553 62.988 5.14482C62.7869 5.61423 62.5455 6.47929 62.2638 7.74L62.0626 8.68553H61.62L61.8816 6.13059C61.8816 5.90259 61.734 5.78859 61.439 5.78859H57.1942L56.0072 11.3813H60.071C60.2051 11.3679 60.299 11.274 60.3526 11.0996L60.755 9.85235H61.097L60.3124 13.4735H59.9704L60.1515 12.2262C60.1515 12.0385 60.0777 11.9446 59.9302 11.9446H55.9066L54.7197 17.5373H59.1657C59.4876 17.5373 59.6955 17.3898 59.7893 17.0947L60.6343 14.6404H61.0769L60.8757 15.5859C60.6209 16.7795 60.4935 17.6446 60.4935 18.1811C60.1045 18.0604 59.4138 18 58.4213 18H52.0843L52.1446 17.6379H53.07C53.2444 17.6379 53.3517 17.5373 53.3919 17.3361C55.0013 9.71824 55.806 5.87576 55.806 5.80871C55.806 5.72823 55.7323 5.688 55.5847 5.688H54.6996L54.7599 5.32588ZM72.2018 10.8985C72.2018 11.4752 71.8732 12.5347 71.216 14.0771C70.5722 15.6194 70.2504 16.6052 70.2504 17.0344C70.2504 17.4635 70.418 17.6781 70.7533 17.6781C71.0081 17.6781 71.2831 17.5105 71.5781 17.1752C71.8732 16.8265 72.128 16.3369 72.3426 15.7066L72.6645 15.7871C72.0878 17.4233 71.3367 18.2414 70.4113 18.2414C69.5798 18.2414 69.164 17.7854 69.164 16.8734C69.164 16.4845 69.4658 15.5188 70.0693 13.9765C70.6862 12.4341 70.9947 11.4416 70.9947 10.9991C70.9947 10.1541 70.6862 9.73165 70.0693 9.73165C69.3987 9.73165 68.6745 10.2748 67.8966 11.3612C66.998 12.6621 66.2 14.8751 65.5026 18L64.0944 18.1207L66.0659 9.99318L64.7784 10.0938L64.7582 9.75176C65.6836 9.63106 66.5487 9.46341 67.3534 9.24882L67.6351 9.45C66.9913 10.9253 66.428 12.6219 65.9452 14.5398H66.1061L66.428 13.6546C67.1522 11.6294 67.9368 10.3151 68.7818 9.71153C69.1841 9.44329 69.5127 9.26894 69.7675 9.18847C70.0358 9.108 70.3644 9.06776 70.7533 9.06776C71.1556 9.06776 71.4976 9.22871 71.7793 9.55059C72.0609 9.87247 72.2018 10.3218 72.2018 10.8985ZM79.2616 9.55059C78.7118 9.55059 78.2021 9.75847 77.7327 10.1742C77.2767 10.59 76.9146 11.1064 76.6464 11.7233C76.1099 13.0242 75.8416 14.1508 75.8416 15.1031C75.8416 16.8734 76.3781 17.7586 77.4511 17.7586C78.7788 17.7586 79.7512 17.0344 80.3681 15.5859L80.69 15.6664C80.3681 16.4845 79.8987 17.1215 79.2818 17.5775C78.6782 18.0201 77.9942 18.2414 77.2298 18.2414C76.4653 18.2414 75.8215 17.9598 75.2985 17.3965C74.7754 16.8332 74.5139 16.0754 74.5139 15.1232C74.5139 14.1709 74.6949 13.2522 75.0571 12.3671C75.4192 11.4685 75.9825 10.6973 76.7469 10.0535C77.5114 9.39635 78.3832 9.06776 79.3622 9.06776C80.0328 9.06776 80.5358 9.24212 80.8711 9.59082C81.2198 9.92612 81.3941 10.3352 81.3941 10.818C81.3941 11.2874 81.3069 11.7099 81.1326 12.0854C80.9716 12.4609 80.7101 12.6487 80.348 12.6487C79.9993 12.6487 79.7378 12.5414 79.5634 12.3268C79.9524 11.7367 80.1468 11.16 80.1468 10.5967C80.1468 9.89929 79.8518 9.55059 79.2616 9.55059ZM86.2719 9.24882L86.5535 9.45C85.9097 10.9253 85.3464 12.6219 84.8636 14.5398H85.0246L85.3464 13.6546C85.9768 11.9379 86.6004 10.7442 87.2174 10.0736C87.8343 9.40306 88.3708 9.06776 88.8268 9.06776C89.2828 9.06776 89.6181 9.21529 89.8327 9.51035C90.0607 9.80541 90.1747 10.1876 90.1747 10.6571C90.1747 11.1265 90.0875 11.5355 89.9132 11.8842C89.7388 12.2329 89.484 12.4073 89.1487 12.4073C88.8268 12.4073 88.5586 12.3 88.344 12.0854C88.4781 11.9111 88.6055 11.6562 88.7262 11.3209C88.8469 10.9856 88.9073 10.6906 88.9073 10.4358C88.9073 10.0468 88.7463 9.85235 88.4244 9.85235C88.0892 9.85235 87.6734 10.1809 87.1772 10.8381C86.0908 12.2598 85.1721 14.6471 84.421 18L83.0128 18.1207L84.9843 9.99318L83.6968 10.0938L83.6767 9.75176C84.6021 9.63106 85.4672 9.46341 86.2719 9.24882ZM93.9989 17.5775C94.8573 17.5775 95.7089 16.9539 96.5539 15.7066C97.4122 14.4459 97.8414 13.2724 97.8414 12.186C97.8414 11.0862 97.4927 10.1876 96.7953 9.49024C97.1306 9.20859 97.439 9.06776 97.7207 9.06776C98.2437 9.06776 98.5053 9.80541 98.5053 11.2807C98.5053 12.756 98.3443 14.1106 98.0224 15.3445C97.7006 16.5649 97.2781 17.6044 96.755 18.4627C96.2454 19.3211 95.662 20.0654 95.0048 20.6958C93.7307 21.9565 92.4364 22.5868 91.1221 22.5868C90.4515 22.5868 89.9486 22.4326 89.6133 22.1241C89.2646 21.8156 89.0902 21.4535 89.0902 21.0378C89.0902 20.622 89.1774 20.2465 89.3517 19.9112C89.5127 19.5759 89.7608 19.4082 90.0961 19.4082C90.4314 19.4082 90.7063 19.5021 90.9209 19.6899C90.532 20.1861 90.3375 20.6421 90.3375 21.0579C90.3375 21.7285 90.6929 22.0638 91.4037 22.0638C91.8732 22.0638 92.4163 21.8894 93.0333 21.5407C93.6502 21.2054 94.2739 20.7226 94.9042 20.0922C95.5346 19.4753 96.1113 18.6438 96.6343 17.5976C97.1708 16.5515 97.5463 15.4182 97.7609 14.1978C97.3183 15.3646 96.7215 16.3302 95.9704 17.0947C95.2328 17.8592 94.3812 18.2414 93.4155 18.2414C92.9193 18.2414 92.5169 18.0738 92.2084 17.7385C91.9134 17.3898 91.7659 16.9204 91.7659 16.3302C91.7659 15.7401 91.9872 14.7074 92.4297 13.2321C92.8857 11.7568 93.1137 10.7912 93.1137 10.3352C93.1137 9.86576 92.9394 9.63106 92.5907 9.63106C92.3359 9.63106 92.0676 9.80541 91.786 10.1541C91.5043 10.4894 91.2763 10.9722 91.102 11.6026L90.76 11.5221C91.2562 9.88588 91.9737 9.06776 92.9126 9.06776C93.7843 9.06776 94.2202 9.53718 94.2202 10.476C94.2202 10.8515 94.0123 11.7836 93.5966 13.2724C93.1808 14.7611 92.9729 15.7401 92.9729 16.2095C92.9729 17.1215 93.3149 17.5775 93.9989 17.5775ZM104.051 9.24882L104.333 9.45C103.689 10.9253 103.126 12.6219 102.643 14.5398H102.804L103.126 13.6546C104.239 10.5967 105.513 9.06776 106.948 9.06776C107.525 9.06776 108.014 9.34941 108.417 9.91271C108.833 10.476 109.04 11.16 109.04 11.9647C109.04 12.7694 108.933 13.5205 108.719 14.2179C108.517 14.9019 108.222 15.5456 107.833 16.1492C107.444 16.7393 106.935 17.2221 106.304 17.5976C105.674 17.9732 104.977 18.1609 104.212 18.1609C103.045 18.1609 102.133 17.6446 101.476 16.6119L101.617 16.2699C102.261 17.2489 103.106 17.7385 104.152 17.7385C104.755 17.7385 105.292 17.5373 105.761 17.1349C106.244 16.7326 106.613 16.2296 106.868 15.6261C107.377 14.3922 107.632 13.1852 107.632 12.0049C107.632 11.3209 107.532 10.7912 107.33 10.4156C107.143 10.0267 106.895 9.83223 106.586 9.83223C105.956 9.83223 105.245 10.4425 104.454 11.6629C103.676 12.8834 102.972 14.7879 102.341 17.3764L101.134 22.3454L99.726 22.4661L102.764 9.99318L101.476 10.0938L101.456 9.75176C102.382 9.63106 103.247 9.46341 104.051 9.24882ZM111.185 10.0334L111.285 9.65118H115.751L115.651 10.0334H111.185ZM114.383 7.1767L114.665 7.37788C114.357 8.31671 113.941 9.792 113.418 11.8038C112.908 13.8155 112.6 15.1165 112.492 15.7066C112.385 16.2833 112.331 16.7192 112.331 17.0142C112.331 17.4568 112.499 17.6781 112.834 17.6781C113.089 17.6781 113.364 17.5105 113.659 17.1752C113.954 16.8265 114.209 16.3369 114.424 15.7066L114.746 15.7871C114.169 17.4233 113.418 18.2414 112.492 18.2414C111.661 18.2414 111.245 17.7385 111.245 16.7326C111.245 15.9011 111.741 13.5808 112.734 9.77188L111.285 9.65118C112.023 9.65118 112.62 9.47682 113.076 9.12812C113.532 8.766 113.968 8.11553 114.383 7.1767ZM121.452 9.06776C122.163 9.06776 122.693 9.24212 123.041 9.59082C123.404 9.92612 123.585 10.4156 123.585 11.0594C123.585 11.6898 123.336 12.2396 122.84 12.7091C121.995 13.5138 120.741 13.9161 119.078 13.9161C118.582 13.9161 118.153 13.8759 117.791 13.7954V13.4132C118.26 13.4802 118.649 13.5138 118.958 13.5138C120.071 13.5138 120.929 13.2321 121.533 12.6688C122.15 12.1055 122.458 11.4886 122.458 10.818C122.458 10.4559 122.357 10.1541 122.156 9.91271C121.968 9.67129 121.647 9.55059 121.191 9.55059C120.748 9.55059 120.292 9.75847 119.823 10.1742C119.367 10.59 119.004 11.1064 118.736 11.7233C118.2 13.0242 117.932 14.1508 117.932 15.1031C117.932 16.8734 118.468 17.7586 119.541 17.7586C120.869 17.7586 121.841 17.0344 122.458 15.5859L122.78 15.6664C122.458 16.4845 121.989 17.1215 121.372 17.5775C120.768 18.0201 120.084 18.2414 119.32 18.2414C118.555 18.2414 117.911 17.9598 117.388 17.3965C116.865 16.8332 116.604 16.0754 116.604 15.1232C116.604 14.1709 116.785 13.2522 117.147 12.3671C117.509 11.4685 118.072 10.6973 118.837 10.0535C119.601 9.39635 120.473 9.06776 121.452 9.06776ZM131.198 17.0142C131.198 17.4568 131.366 17.6781 131.701 17.6781C131.956 17.6781 132.231 17.5105 132.526 17.1752C132.821 16.8265 133.076 16.3369 133.291 15.7066L133.612 15.7871C133.036 17.4233 132.285 18.2414 131.359 18.2414C130.528 18.2414 130.112 17.7184 130.112 16.6722C130.112 15.6127 130.99 11.8976 132.747 5.52706L131.46 5.62765L131.44 5.28565C132.365 5.16494 133.23 4.99729 134.035 4.78271L134.317 4.98388C133.753 6.63353 133.089 8.87329 132.325 11.7032C131.574 14.5196 131.198 16.29 131.198 17.0142ZM130.313 15.7669H130.112C129.28 17.4166 128.315 18.2414 127.215 18.2414C126.585 18.2414 126.055 17.9665 125.626 17.4166C125.21 16.8533 125.002 16.1693 125.002 15.3646C125.002 14.5465 125.109 13.7887 125.324 13.0913C125.539 12.3939 125.84 11.7434 126.229 11.1399C126.618 10.5229 127.135 10.0267 127.778 9.65118C128.422 9.26223 129.079 9.06776 129.75 9.06776C131.037 9.06776 131.949 9.63106 132.486 10.7576L132.204 11.1198C131.574 10.0736 130.789 9.55059 129.85 9.55059C129.274 9.55059 128.744 9.75847 128.261 10.1742C127.792 10.59 127.423 11.1131 127.155 11.7434C126.605 13.0309 126.33 14.2447 126.33 15.3847C126.33 16.1358 126.451 16.6991 126.692 17.0746C126.947 17.4501 127.282 17.6379 127.698 17.6379C128.275 17.6379 128.865 17.1551 129.468 16.1894C130.072 15.2104 130.608 13.8155 131.078 12.0049L130.313 15.7669ZM141.921 17.6379L141.378 13.7552H136.932L134.759 17.6379H136.006L135.946 18H133.049L133.13 17.6379H133.834C134.022 17.6379 134.162 17.544 134.256 17.3562L141.016 5.32588H141.66L143.309 17.3562C143.336 17.544 143.437 17.6379 143.611 17.6379H144.315L144.255 18H140.613L140.674 17.6379H141.921ZM140.513 7.37788L137.234 13.1919H141.297L140.513 7.37788ZM149.481 9.24882L149.762 9.45C149.118 10.9253 148.555 12.6219 148.072 14.5398H148.233L148.555 13.6546C149.186 11.9379 149.809 10.7442 150.426 10.0736C151.043 9.40306 151.58 9.06776 152.036 9.06776C152.492 9.06776 152.827 9.21529 153.041 9.51035C153.269 9.80541 153.383 10.1876 153.383 10.6571C153.383 11.1265 153.296 11.5355 153.122 11.8842C152.948 12.2329 152.693 12.4073 152.357 12.4073C152.036 12.4073 151.767 12.3 151.553 12.0854C151.687 11.9111 151.814 11.6562 151.935 11.3209C152.056 10.9856 152.116 10.6906 152.116 10.4358C152.116 10.0468 151.955 9.85235 151.633 9.85235C151.298 9.85235 150.882 10.1809 150.386 10.8381C149.3 12.2598 148.381 14.6471 147.63 18L146.222 18.1207L148.193 9.99318L146.906 10.0938L146.885 9.75176C147.811 9.63106 148.676 9.46341 149.481 9.24882ZM155.417 16.8332L158.616 17.5574C159.313 17.7184 159.81 17.9329 160.105 18.2012C160.4 18.4828 160.547 18.8651 160.547 19.3479C160.547 20.1258 160.118 20.8567 159.26 21.5407C158.415 22.2381 157.449 22.5868 156.363 22.5868C155.276 22.5868 154.391 22.3387 153.707 21.8425C153.037 21.3462 152.701 20.7561 152.701 20.0721C152.701 19.6027 152.862 19.1534 153.184 18.7242C153.493 18.2951 153.955 17.9329 154.572 17.6379L154.975 17.7586C154.572 17.9598 154.264 18.2615 154.049 18.6639C153.835 19.0796 153.727 19.5155 153.727 19.9715C153.727 20.7226 153.975 21.2792 154.472 21.6413C154.968 22.0168 155.605 22.2046 156.383 22.2046C157.174 22.2046 157.898 21.9766 158.556 21.5206C159.226 21.078 159.561 20.5415 159.561 19.9112C159.561 19.2808 159.152 18.8718 158.334 18.684L154.874 17.9195C154.485 17.8391 154.183 17.658 153.969 17.3764C153.754 17.0947 153.647 16.7527 153.647 16.3504C153.647 15.948 153.814 15.5792 154.15 15.2439C154.485 14.9086 154.948 14.7409 155.538 14.7409H157.57L157.509 15.0226H155.538C155.256 15.0226 155.028 15.1098 154.854 15.2841C154.693 15.4585 154.612 15.6664 154.612 15.9078C154.612 16.404 154.881 16.7125 155.417 16.8332ZM158.797 9.34941L158.777 9.06776C159.152 9.06776 159.468 8.98059 159.722 8.80623C159.977 8.61847 160.105 8.37706 160.105 8.082C160.105 7.78694 159.89 7.50529 159.461 7.23706C159.675 6.78106 159.93 6.55306 160.225 6.55306C160.534 6.55306 160.762 6.64023 160.909 6.81459C161.07 6.98894 161.151 7.21023 161.151 7.47847C161.151 7.94788 160.936 8.37706 160.507 8.766C160.091 9.15494 159.521 9.34941 158.797 9.34941ZM155.115 12.8298C155.115 11.8373 155.464 10.9655 156.162 10.2145C156.872 9.45 157.744 9.06776 158.777 9.06776C159.501 9.06776 160.071 9.26223 160.487 9.65118C160.916 10.0267 161.131 10.5632 161.131 11.2606C161.131 12.3872 160.768 13.2992 160.044 13.9966C159.32 14.6806 158.475 15.0226 157.509 15.0226C156.772 15.0226 156.188 14.8348 155.759 14.4593C155.33 14.0704 155.115 13.5272 155.115 12.8298ZM158.757 9.45C158.019 9.45 157.416 9.85906 156.946 10.6772C156.477 11.4819 156.242 12.1994 156.242 12.8298C156.242 13.4601 156.356 13.9228 156.584 14.2179C156.825 14.4995 157.141 14.6404 157.53 14.6404C158.12 14.6404 158.683 14.3051 159.219 13.6345C159.756 12.9639 160.024 12.1189 160.024 11.0996C160.024 10.59 159.903 10.1876 159.662 9.89259C159.434 9.59753 159.132 9.45 158.757 9.45ZM166.799 9.55059C166.29 9.55059 165.854 9.69812 165.492 9.99318C165.13 10.2882 164.949 10.6638 164.949 11.1198C164.949 11.5758 165.136 11.9915 165.512 12.3671C165.887 12.7426 166.296 13.0578 166.739 13.3126C167.182 13.554 167.591 13.8759 167.966 14.2782C168.342 14.6806 168.529 15.1098 168.529 15.5658C168.529 16.4241 168.194 17.088 167.524 17.5574C166.866 18.0134 166.068 18.2414 165.13 18.2414C164.191 18.2414 163.366 18.0201 162.655 17.5775C162.883 17.1215 163.098 16.3302 163.299 15.2036L163.641 15.264C163.547 15.8139 163.5 16.2498 163.5 16.5716C163.5 16.8801 163.648 17.1685 163.943 17.4367C164.251 17.6915 164.687 17.8189 165.25 17.8189C165.827 17.8189 166.31 17.6446 166.699 17.2959C167.101 16.9472 167.302 16.4912 167.302 15.9279C167.302 15.5658 167.121 15.2171 166.759 14.8818C166.41 14.5331 166.021 14.2447 165.592 14.0167C165.177 13.7887 164.788 13.4668 164.425 13.0511C164.077 12.6353 163.902 12.1793 163.902 11.6831C163.902 10.9454 164.191 10.3285 164.767 9.83223C165.358 9.32259 166.129 9.06776 167.081 9.06776C167.819 9.06776 168.55 9.24882 169.274 9.61094C169.207 9.75847 169.093 10.0938 168.932 10.6168C168.784 11.1399 168.67 11.6361 168.59 12.1055L168.248 12.0452C168.328 11.616 168.369 11.2069 168.369 10.818C168.369 10.4156 168.234 10.1072 167.966 9.89259C167.711 9.66459 167.322 9.55059 166.799 9.55059ZM184.903 12.87H177.017V11.8038H184.903V12.87ZM184.903 16.29H177.017V15.2238H184.903V16.29Z" fill="#6082FA"/>
<path opacity="0.86" d="M191.877 5.32588H197.932C198.952 5.32588 199.676 5.26553 200.105 5.14482C199.904 5.61423 199.662 6.47929 199.381 7.74L199.18 8.68553H198.737L198.998 6.13059C198.998 5.90259 198.851 5.78859 198.556 5.78859H194.311L193.124 11.3813H197.188C197.322 11.3679 197.416 11.274 197.47 11.0996L197.872 9.85235H198.214L197.429 13.4735H197.087L197.268 12.2262C197.268 12.0385 197.195 11.9446 197.047 11.9446H193.024L191.837 17.5373H196.283C196.604 17.5373 196.812 17.3898 196.906 17.0947L197.751 14.6404H198.194L197.993 15.5859C197.738 16.7795 197.61 17.6446 197.61 18.1811C197.221 18.0604 196.531 18 195.538 18H189.201L189.262 17.6379H190.187C190.361 17.6379 190.469 17.5373 190.509 17.3361C192.118 9.71824 192.923 5.87576 192.923 5.80871C192.923 5.72823 192.849 5.688 192.702 5.688H191.816L191.877 5.32588ZM209.319 10.8985C209.319 11.4752 208.99 12.5347 208.333 14.0771C207.689 15.6194 207.367 16.6052 207.367 17.0344C207.367 17.4635 207.535 17.6781 207.87 17.6781C208.125 17.6781 208.4 17.5105 208.695 17.1752C208.99 16.8265 209.245 16.3369 209.459 15.7066L209.781 15.7871C209.205 17.4233 208.454 18.2414 207.528 18.2414C206.697 18.2414 206.281 17.7854 206.281 16.8734C206.281 16.4845 206.583 15.5188 207.186 13.9765C207.803 12.4341 208.112 11.4416 208.112 10.9991C208.112 10.1541 207.803 9.73165 207.186 9.73165C206.516 9.73165 205.791 10.2748 205.013 11.3612C204.115 12.6621 203.317 14.8751 202.619 18L201.211 18.1207L203.183 9.99318L201.895 10.0938L201.875 9.75176C202.801 9.63106 203.666 9.46341 204.47 9.24882L204.752 9.45C204.108 10.9253 203.545 12.6219 203.062 14.5398H203.223L203.545 13.6546C204.269 11.6294 205.054 10.3151 205.899 9.71153C206.301 9.44329 206.63 9.26894 206.884 9.18847C207.153 9.108 207.481 9.06776 207.87 9.06776C208.273 9.06776 208.615 9.22871 208.896 9.55059C209.178 9.87247 209.319 10.3218 209.319 10.8985ZM216.379 9.55059C215.829 9.55059 215.319 9.75847 214.85 10.1742C214.394 10.59 214.031 11.1064 213.763 11.7233C213.227 13.0242 212.959 14.1508 212.959 15.1031C212.959 16.8734 213.495 17.7586 214.568 17.7586C215.896 17.7586 216.868 17.0344 217.485 15.5859L217.807 15.6664C217.485 16.4845 217.016 17.1215 216.399 17.5775C215.795 18.0201 215.111 18.2414 214.347 18.2414C213.582 18.2414 212.938 17.9598 212.415 17.3965C211.892 16.8332 211.631 16.0754 211.631 15.1232C211.631 14.1709 211.812 13.2522 212.174 12.3671C212.536 11.4685 213.099 10.6973 213.864 10.0535C214.628 9.39635 215.5 9.06776 216.479 9.06776C217.15 9.06776 217.653 9.24212 217.988 9.59082C218.337 9.92612 218.511 10.3352 218.511 10.818C218.511 11.2874 218.424 11.7099 218.249 12.0854C218.089 12.4609 217.827 12.6487 217.465 12.6487C217.116 12.6487 216.855 12.5414 216.68 12.3268C217.069 11.7367 217.264 11.16 217.264 10.5967C217.264 9.89929 216.969 9.55059 216.379 9.55059Z" fill="#6082FA"/>
<path opacity="0.86" d="M222.755 11.7384C223.274 11.5059 223.824 11.3896 224.405 11.3896C225.29 11.3896 225.988 11.6579 226.497 12.1944C227.016 12.7219 227.275 13.4685 227.275 14.4341C227.275 15.0868 227.168 15.7485 226.953 16.4191C226.739 17.0807 226.439 17.6932 226.055 18.2565C225.67 18.8198 225.169 19.2802 224.552 19.6379C223.936 19.9866 223.225 20.1609 222.42 20.1609C221.615 20.1609 220.954 19.8927 220.435 19.3562C219.925 18.8198 219.671 18.0419 219.671 17.0226C219.671 16.0033 219.948 14.9751 220.502 13.9379C221.065 12.9007 221.816 12.1675 222.755 11.7384ZM225.786 12.4224C225.429 11.9664 224.955 11.7384 224.365 11.7384C223.775 11.7384 223.229 11.9306 222.728 12.3151C222.228 12.6906 221.83 13.1689 221.535 13.7501C220.918 14.9482 220.609 16.1106 220.609 17.2372C220.609 18.0508 220.784 18.6856 221.132 19.1416C221.49 19.5887 221.964 19.8122 222.554 19.8122C223.153 19.8122 223.703 19.6245 224.204 19.2489C224.704 18.8645 225.107 18.3861 225.411 17.8139C226.028 16.6247 226.336 15.4624 226.336 14.3268C226.336 13.5132 226.153 12.8784 225.786 12.4224ZM228.374 14.6889L228.441 14.4341H231.821L231.754 14.6889H228.374ZM230.654 13.6831L229.393 19.5708C229.134 20.7511 228.817 21.6273 228.441 22.1995C228.066 22.7718 227.61 23.0579 227.073 23.0579C226.733 23.0579 226.47 22.9551 226.282 22.7494C226.094 22.5438 226 22.3113 226 22.052C226 21.8016 226.054 21.5736 226.161 21.368C226.26 21.1713 226.421 21.0729 226.644 21.0729C226.868 21.0729 227.029 21.1311 227.127 21.2473C227.011 21.3367 226.917 21.4708 226.845 21.6496C226.765 21.8285 226.725 22.0028 226.725 22.1727C226.725 22.5572 226.885 22.7494 227.207 22.7494C227.565 22.7494 227.838 22.4722 228.025 21.9179C228.213 21.3635 228.473 20.2504 228.803 18.5784L229.581 14.6085C229.769 13.6607 230.1 12.8471 230.574 12.1675C231.048 11.488 231.597 11.1482 232.223 11.1482C232.67 11.1482 233.006 11.2511 233.229 11.4567C233.462 11.6624 233.578 11.9038 233.578 12.1809C233.578 12.4581 233.52 12.7085 233.404 12.932C233.296 13.1555 233.122 13.2673 232.881 13.2673C232.639 13.2673 232.465 13.2047 232.357 13.0795C232.617 12.7487 232.746 12.4134 232.746 12.0736C232.746 11.6624 232.55 11.4567 232.156 11.4567C231.772 11.4567 231.463 11.6534 231.231 12.0468C230.998 12.4313 230.806 12.9767 230.654 13.6831ZM232.532 14.6889L232.599 14.4341H235.979L235.912 14.6889H232.532ZM234.812 13.6831L233.552 19.5708C233.292 20.7511 232.975 21.6273 232.599 22.1995C232.224 22.7718 231.768 23.0579 231.231 23.0579C230.892 23.0579 230.628 22.9551 230.44 22.7494C230.252 22.5438 230.158 22.3113 230.158 22.052C230.158 21.8016 230.212 21.5736 230.319 21.368C230.418 21.1713 230.579 21.0729 230.802 21.0729C231.026 21.0729 231.187 21.1311 231.285 21.2473C231.169 21.3367 231.075 21.4708 231.003 21.6496C230.923 21.8285 230.883 22.0028 230.883 22.1727C230.883 22.5572 231.044 22.7494 231.366 22.7494C231.723 22.7494 231.996 22.4722 232.184 21.9179C232.371 21.3635 232.631 20.2504 232.962 18.5784L233.739 14.6085C233.927 13.6607 234.258 12.8471 234.732 12.1675C235.206 11.488 235.756 11.1482 236.382 11.1482C236.829 11.1482 237.164 11.2511 237.387 11.4567C237.62 11.6624 237.736 11.9038 237.736 12.1809C237.736 12.4581 237.678 12.7085 237.562 12.932C237.454 13.1555 237.28 13.2673 237.039 13.2673C236.797 13.2673 236.623 13.2047 236.516 13.0795C236.775 12.7487 236.905 12.4134 236.905 12.0736C236.905 11.6624 236.708 11.4567 236.314 11.4567C235.93 11.4567 235.622 11.6534 235.389 12.0468C235.157 12.4313 234.964 12.9767 234.812 13.6831ZM239.762 14.0452C240.236 14.0452 240.589 14.1614 240.821 14.3939C241.063 14.6174 241.183 14.9438 241.183 15.3729C241.183 15.7932 241.018 16.1598 240.687 16.4727C240.124 17.0092 239.288 17.2774 238.179 17.2774C237.848 17.2774 237.562 17.2506 237.321 17.1969V16.9421C237.634 16.9868 237.893 17.0092 238.099 17.0092C238.841 17.0092 239.413 16.8214 239.815 16.4459C240.227 16.0704 240.432 15.6591 240.432 15.212C240.432 14.9706 240.365 14.7694 240.231 14.6085C240.106 14.4475 239.891 14.3671 239.587 14.3671C239.292 14.3671 238.988 14.5056 238.675 14.7828C238.371 15.06 238.13 15.4042 237.951 15.8155C237.594 16.6828 237.415 17.4339 237.415 18.0687C237.415 19.2489 237.772 19.8391 238.488 19.8391C239.373 19.8391 240.021 19.3562 240.432 18.3906L240.647 18.4442C240.432 18.9896 240.119 19.4144 239.708 19.7184C239.306 20.0134 238.85 20.1609 238.34 20.1609C237.831 20.1609 237.401 19.9732 237.053 19.5976C236.704 19.2221 236.53 18.7169 236.53 18.0821C236.53 17.4473 236.65 16.8348 236.892 16.2447C237.133 15.6456 237.509 15.1315 238.018 14.7024C238.528 14.2642 239.109 14.0452 239.762 14.0452ZM244.368 14.1659L244.556 14.3C244.127 15.2835 243.751 16.4146 243.429 17.6932H243.537L243.751 17.1031C244.172 15.9586 244.587 15.1628 244.999 14.7158C245.41 14.2687 245.768 14.0452 246.072 14.0452C246.376 14.0452 246.599 14.1435 246.742 14.3402C246.894 14.5369 246.97 14.7918 246.97 15.1047C246.97 15.4176 246.912 15.6904 246.796 15.9228C246.68 16.1553 246.51 16.2715 246.286 16.2715C246.072 16.2715 245.893 16.2 245.75 16.0569C245.839 15.9407 245.924 15.7708 246.004 15.5473C246.085 15.3238 246.125 15.1271 246.125 14.9572C246.125 14.6979 246.018 14.5682 245.803 14.5682C245.58 14.5682 245.303 14.7873 244.972 15.2254C244.248 16.1732 243.635 17.7647 243.134 20L242.196 20.0805L243.51 14.6621L242.652 14.7292L242.638 14.5012C243.255 14.4207 243.832 14.3089 244.368 14.1659ZM247.615 19.9598C247.481 19.8167 247.414 19.6468 247.414 19.4501C247.414 19.2534 247.481 19.088 247.615 18.9539C247.758 18.8108 247.928 18.7393 248.125 18.7393C248.322 18.7393 248.487 18.8108 248.621 18.9539C248.764 19.088 248.836 19.2534 248.836 19.4501C248.836 19.6468 248.764 19.8167 248.621 19.9598C248.487 20.0939 248.322 20.1609 248.125 20.1609C247.928 20.1609 247.758 20.0939 247.615 19.9598ZM255.654 14.3C255.341 15.2299 255.046 16.2268 254.769 17.2908C254.492 18.3548 254.353 19.0388 254.353 19.3428C254.353 19.6379 254.465 19.7854 254.688 19.7854C254.858 19.7854 255.041 19.6736 255.238 19.4501C255.435 19.2176 255.605 18.8913 255.748 18.4711L255.962 18.5247C255.578 19.6155 255.077 20.1609 254.46 20.1609C253.906 20.1609 253.629 19.8256 253.629 19.1551C253.629 19.0209 253.651 18.8064 253.696 18.5113H253.629C253.074 19.6111 252.431 20.1609 251.697 20.1609C251.277 20.1609 250.924 19.9776 250.638 19.6111C250.361 19.2355 250.222 18.7795 250.222 18.2431C250.222 17.6976 250.294 17.1925 250.437 16.7275C250.58 16.2626 250.781 15.8289 251.04 15.4266C251.3 15.0153 251.644 14.6845 252.073 14.4341C252.502 14.1748 252.972 14.0452 253.481 14.0452C254.143 14.0452 254.666 14.3268 255.05 14.8901L255.466 14.1659L255.654 14.3ZM252.019 19.7586C252.395 19.7586 252.775 19.468 253.159 18.8868C253.597 18.2162 254.004 17.1209 254.38 15.6009C254.46 15.2433 254.523 14.984 254.568 14.8231C254.255 14.5191 253.893 14.3671 253.481 14.3671C253.079 14.3671 252.717 14.5056 252.395 14.7828C252.082 15.06 251.836 15.4087 251.657 15.8289C251.291 16.6873 251.107 17.4965 251.107 18.2565C251.107 18.7572 251.188 19.1327 251.349 19.3831C251.519 19.6334 251.742 19.7586 252.019 19.7586ZM259.436 14.1659L259.624 14.3C259.195 15.2835 258.819 16.4146 258.497 17.6932H258.605L258.819 17.1031C259.239 15.9586 259.655 15.1628 260.066 14.7158C260.478 14.2687 260.835 14.0452 261.139 14.0452C261.443 14.0452 261.667 14.1435 261.81 14.3402C261.962 14.5369 262.038 14.7918 262.038 15.1047C262.038 15.4176 261.98 15.6904 261.864 15.9228C261.747 16.1553 261.577 16.2715 261.354 16.2715C261.139 16.2715 260.961 16.2 260.817 16.0569C260.907 15.9407 260.992 15.7708 261.072 15.5473C261.153 15.3238 261.193 15.1271 261.193 14.9572C261.193 14.6979 261.086 14.5682 260.871 14.5682C260.648 14.5682 260.37 14.7873 260.04 15.2254C259.315 16.1732 258.703 17.7647 258.202 20L257.263 20.0805L258.578 14.6621L257.719 14.7292L257.706 14.5012C258.323 14.4207 258.9 14.3089 259.436 14.1659ZM263.394 19.2221L265.526 19.7049C265.991 19.8122 266.322 19.9553 266.519 20.1341C266.715 20.3219 266.814 20.5767 266.814 20.8986C266.814 21.4172 266.528 21.9045 265.955 22.3605C265.392 22.8254 264.748 23.0579 264.024 23.0579C263.3 23.0579 262.71 22.8925 262.254 22.5616C261.807 22.2308 261.583 21.8374 261.583 21.3814C261.583 21.0685 261.69 20.7689 261.905 20.4828C262.111 20.1967 262.419 19.9553 262.83 19.7586L263.099 19.8391C262.83 19.9732 262.625 20.1744 262.482 20.4426C262.339 20.7198 262.267 21.0104 262.267 21.3144C262.267 21.8151 262.433 22.1861 262.763 22.4275C263.094 22.6779 263.519 22.8031 264.038 22.8031C264.565 22.8031 265.048 22.6511 265.486 22.3471C265.933 22.052 266.157 21.6944 266.157 21.2741C266.157 20.8539 265.884 20.5812 265.338 20.456L263.032 19.9464C262.772 19.8927 262.571 19.772 262.428 19.5842C262.285 19.3965 262.214 19.1685 262.214 18.9002C262.214 18.632 262.325 18.3861 262.549 18.1626C262.772 17.9391 263.081 17.8273 263.474 17.8273H264.829L264.789 18.0151H263.474C263.286 18.0151 263.134 18.0732 263.018 18.1894C262.911 18.3056 262.857 18.4442 262.857 18.6052C262.857 18.936 263.036 19.1416 263.394 19.2221ZM265.647 14.2329L265.634 14.0452C265.884 14.0452 266.094 13.9871 266.264 13.8708C266.434 13.7456 266.519 13.5847 266.519 13.388C266.519 13.1913 266.376 13.0035 266.09 12.8247C266.233 12.5207 266.402 12.3687 266.599 12.3687C266.805 12.3687 266.957 12.4268 267.055 12.5431C267.162 12.6593 267.216 12.8068 267.216 12.9856C267.216 13.2986 267.073 13.5847 266.787 13.844C266.51 14.1033 266.13 14.2329 265.647 14.2329ZM263.193 16.5532C263.193 15.8915 263.425 15.3104 263.89 14.8096C264.364 14.3 264.945 14.0452 265.634 14.0452C266.116 14.0452 266.496 14.1748 266.774 14.4341C267.06 14.6845 267.203 15.0421 267.203 15.5071C267.203 16.2581 266.961 16.8661 266.478 17.3311C265.996 17.7871 265.432 18.0151 264.789 18.0151C264.297 18.0151 263.908 17.8899 263.622 17.6395C263.336 17.3802 263.193 17.0181 263.193 16.5532ZM265.62 14.3C265.128 14.3 264.726 14.5727 264.413 15.1181C264.1 15.6546 263.944 16.1329 263.944 16.5532C263.944 16.9734 264.02 17.2819 264.172 17.4786C264.333 17.6664 264.543 17.7602 264.802 17.7602C265.195 17.7602 265.571 17.5367 265.929 17.0896C266.286 16.6426 266.465 16.0793 266.465 15.3998C266.465 15.06 266.385 14.7918 266.224 14.5951C266.072 14.3984 265.87 14.3 265.62 14.3ZM270.982 14.3671C270.642 14.3671 270.352 14.4654 270.11 14.6621C269.869 14.8588 269.748 15.1092 269.748 15.4132C269.748 15.7172 269.873 15.9944 270.124 16.2447C270.374 16.4951 270.647 16.7052 270.942 16.8751C271.237 17.036 271.509 17.2506 271.76 17.5188C272.01 17.7871 272.135 18.0732 272.135 18.3772C272.135 18.9494 271.912 19.392 271.465 19.7049C271.027 20.0089 270.495 20.1609 269.869 20.1609C269.243 20.1609 268.693 20.0134 268.219 19.7184C268.371 19.4144 268.514 18.8868 268.648 18.1358L268.876 18.176C268.814 18.5426 268.782 18.8332 268.782 19.0478C268.782 19.2534 268.881 19.4456 269.077 19.6245C269.283 19.7944 269.574 19.8793 269.949 19.8793C270.334 19.8793 270.656 19.7631 270.915 19.5306C271.183 19.2981 271.317 18.9941 271.317 18.6186C271.317 18.3772 271.196 18.1447 270.955 17.9212C270.723 17.6887 270.463 17.4965 270.177 17.3445C269.9 17.1925 269.641 16.9779 269.399 16.7007C269.167 16.4235 269.051 16.1195 269.051 15.7887C269.051 15.2969 269.243 14.8856 269.627 14.5548C270.021 14.2151 270.535 14.0452 271.17 14.0452C271.661 14.0452 272.149 14.1659 272.632 14.4073C272.587 14.5056 272.511 14.7292 272.404 15.0779C272.305 15.4266 272.229 15.7574 272.176 16.0704L271.948 16.0301C272.001 15.744 272.028 15.4713 272.028 15.212C272.028 14.9438 271.939 14.7381 271.76 14.5951C271.59 14.4431 271.331 14.3671 270.982 14.3671ZM277.07 16.6336H275.755C275.344 18.5292 275.138 19.5261 275.138 19.6245C275.138 19.7139 275.187 19.7586 275.286 19.7586H276.265L276.225 20H273.368L273.408 19.7586H274.025C274.141 19.7586 274.213 19.6915 274.24 19.5574C275.313 14.4788 275.849 11.9172 275.849 11.8725C275.849 11.8188 275.8 11.792 275.702 11.792H275.111L275.152 11.5506H278.143C278.751 11.5506 279.251 11.7205 279.645 12.0602C280.038 12.4 280.235 12.8694 280.235 13.4685C280.235 14.4162 279.908 15.1807 279.256 15.7619C278.603 16.3431 277.874 16.6336 277.07 16.6336ZM277.995 11.8591H276.775L275.822 16.3252H277.083C277.727 16.3252 278.263 16.0122 278.692 15.3864C279.131 14.7605 279.35 14.1033 279.35 13.4148C279.35 12.9678 279.233 12.5967 279.001 12.3016C278.777 12.0066 278.442 11.8591 277.995 11.8591ZM284.274 19.1551C284.274 19.0209 284.297 18.8064 284.341 18.5113H284.274C283.702 19.6111 283.04 20.1609 282.289 20.1609C281.485 20.1609 281.082 19.7139 281.082 18.8198C281.082 18.2386 281.288 17.1612 281.699 15.5875L281.941 14.6621L281.082 14.7292L281.069 14.5012C281.686 14.4207 282.262 14.3089 282.799 14.1659L282.987 14.3C282.236 16.6336 281.86 18.1268 281.86 18.7795C281.86 19.4322 282.106 19.7586 282.598 19.7586C283.009 19.7586 283.411 19.4591 283.805 18.86C284.207 18.252 284.538 17.4384 284.797 16.4191L285.253 14.6621L284.395 14.7292L284.382 14.5012C284.998 14.4207 285.575 14.3089 286.112 14.1659L286.299 14.3C285.986 15.2299 285.691 16.2268 285.414 17.2908C285.137 18.3548 284.998 19.0388 284.998 19.3428C284.998 19.6379 285.11 19.7854 285.334 19.7854C285.504 19.7854 285.687 19.6736 285.884 19.4501C286.08 19.2176 286.25 18.8913 286.393 18.4711L286.608 18.5247C286.223 19.6155 285.723 20.1609 285.106 20.1609C284.551 20.1609 284.274 19.8256 284.274 19.1551ZM289.03 17.6932H289.137L289.352 17.1031C290.103 15.0645 290.926 14.0452 291.82 14.0452C292.24 14.0452 292.589 14.2329 292.866 14.6085C293.152 14.9751 293.295 15.4311 293.295 15.9765C293.295 16.5129 293.223 17.0136 293.08 17.4786C292.937 17.9435 292.736 18.3816 292.477 18.7929C292.218 19.1953 291.873 19.5261 291.444 19.7854C291.015 20.0358 290.577 20.1609 290.13 20.1609C289.683 20.1609 289.298 20.076 288.976 19.9061C288.655 19.7273 288.404 19.4948 288.225 19.2087L288.346 18.8466C288.775 19.5261 289.325 19.8659 289.996 19.8659C290.505 19.8659 290.948 19.6334 291.323 19.1685C291.699 18.6946 291.963 18.176 292.115 17.6127C292.276 17.0405 292.356 16.5174 292.356 16.0435C292.356 15.5607 292.276 15.1941 292.115 14.9438C291.963 14.6845 291.784 14.5548 291.578 14.5548C291.373 14.5548 291.167 14.6442 290.961 14.8231C290.756 14.9929 290.532 15.2612 290.291 15.6278C289.772 16.4325 289.285 17.7513 288.829 19.5842L288.427 19.1551L288.024 20.1609L287.796 20.0805L289.902 11.6847L289.043 11.7518L289.03 11.5238C289.647 11.4433 290.224 11.3315 290.76 11.1885L290.948 11.3226C290.224 13.4327 289.584 15.5562 289.03 17.6932ZM295.358 19.3428C295.358 19.6379 295.469 19.7854 295.693 19.7854C295.863 19.7854 296.046 19.6736 296.243 19.4501C296.44 19.2176 296.609 18.8913 296.753 18.4711L296.967 18.5247C296.583 19.6155 296.082 20.1609 295.465 20.1609C294.911 20.1609 294.633 19.8122 294.633 19.1148C294.633 18.4085 295.219 15.9318 296.39 11.6847L295.532 11.7518L295.519 11.5238C296.136 11.4433 296.712 11.3315 297.249 11.1885L297.437 11.3226C297.061 12.4224 296.618 13.9155 296.109 15.8021C295.608 17.6798 295.358 18.86 295.358 19.3428ZM300.114 12.704C299.998 12.5878 299.939 12.4447 299.939 12.2748C299.939 12.1049 299.998 11.9619 300.114 11.8456C300.23 11.7294 300.373 11.6713 300.543 11.6713C300.713 11.6713 300.856 11.7294 300.972 11.8456C301.088 11.9619 301.147 12.1049 301.147 12.2748C301.147 12.4447 301.088 12.5878 300.972 12.704C300.856 12.8202 300.713 12.8784 300.543 12.8784C300.373 12.8784 300.23 12.8202 300.114 12.704ZM298.598 19.1551C298.598 18.6812 298.925 17.1835 299.577 14.6621L298.719 14.7292L298.706 14.5012C299.323 14.4207 299.899 14.3089 300.436 14.1659L300.623 14.3C300.311 15.2299 300.015 16.2268 299.738 17.2908C299.461 18.3548 299.323 19.0388 299.323 19.3428C299.323 19.6379 299.434 19.7854 299.658 19.7854C299.828 19.7854 300.011 19.6736 300.208 19.4501C300.404 19.2176 300.574 18.8913 300.717 18.4711L300.932 18.5247C300.547 19.6155 300.047 20.1609 299.43 20.1609C298.875 20.1609 298.598 19.8256 298.598 19.1551ZM305.336 14.3671C304.969 14.3671 304.63 14.5056 304.317 14.7828C304.013 15.06 303.771 15.4042 303.592 15.8155C303.235 16.6828 303.056 17.4339 303.056 18.0687C303.056 19.2489 303.414 19.8391 304.129 19.8391C305.014 19.8391 305.662 19.3562 306.074 18.3906L306.288 18.4442C306.074 18.9896 305.761 19.4144 305.349 19.7184C304.947 20.0134 304.491 20.1609 303.981 20.1609C303.472 20.1609 303.043 19.9732 302.694 19.5976C302.345 19.2221 302.171 18.7169 302.171 18.0821C302.171 17.4473 302.291 16.8348 302.533 16.2447C302.774 15.6456 303.15 15.1315 303.659 14.7024C304.169 14.2642 304.75 14.0452 305.403 14.0452C305.85 14.0452 306.185 14.1614 306.409 14.3939C306.641 14.6174 306.758 14.8901 306.758 15.212C306.758 15.5249 306.699 15.8066 306.583 16.0569C306.476 16.3073 306.302 16.4325 306.06 16.4325C305.828 16.4325 305.653 16.3609 305.537 16.2179C305.796 15.8245 305.926 15.44 305.926 15.0645C305.926 14.5995 305.729 14.3671 305.336 14.3671ZM310.747 11.9798L309.138 19.6245C309.138 19.7139 309.187 19.7586 309.285 19.7586H309.875L309.835 20H307.367L307.408 19.7586H308.024C308.141 19.7586 308.212 19.6915 308.239 19.5574C309.312 14.4788 309.848 11.9172 309.848 11.8725C309.848 11.8188 309.799 11.792 309.701 11.792H309.111L309.151 11.5506H311.619L311.579 11.792H310.975C310.859 11.792 310.783 11.8546 310.747 11.9798ZM312.665 17.6529L312.692 18.8868C312.71 19.4412 312.857 19.7184 313.134 19.7184C313.313 19.7184 313.461 19.6245 313.577 19.4367C313.702 19.2489 313.765 19.0075 313.765 18.7125L314.02 18.6722C314.02 19.1282 313.899 19.4904 313.657 19.7586C313.425 20.0268 313.13 20.1609 312.772 20.1609C312.137 20.1609 311.802 19.6826 311.766 18.7259L311.713 17.4115C311.686 16.8304 311.565 16.428 311.351 16.2045C311.136 15.972 310.783 15.8558 310.291 15.8558L310.358 15.6412L314.18 11.792H313.55L313.59 11.5506H315.32L315.28 11.792H314.932C314.788 11.792 314.659 11.8546 314.543 11.9798L310.908 15.6144C311.552 15.6233 311.999 15.8111 312.249 16.1776C312.508 16.5442 312.647 17.036 312.665 17.6529ZM318.893 14.0452C319.367 14.0452 319.72 14.1614 319.952 14.3939C320.194 14.6174 320.314 14.9438 320.314 15.3729C320.314 15.7932 320.149 16.1598 319.818 16.4727C319.255 17.0092 318.419 17.2774 317.31 17.2774C316.979 17.2774 316.693 17.2506 316.452 17.1969V16.9421C316.765 16.9868 317.024 17.0092 317.23 17.0092C317.972 17.0092 318.544 16.8214 318.946 16.4459C319.358 16.0704 319.563 15.6591 319.563 15.212C319.563 14.9706 319.496 14.7694 319.362 14.6085C319.237 14.4475 319.022 14.3671 318.718 14.3671C318.423 14.3671 318.119 14.5056 317.806 14.7828C317.502 15.06 317.261 15.4042 317.082 15.8155C316.725 16.6828 316.546 17.4339 316.546 18.0687C316.546 19.2489 316.903 19.8391 317.619 19.8391C318.504 19.8391 319.152 19.3562 319.563 18.3906L319.778 18.4442C319.563 18.9896 319.25 19.4144 318.839 19.7184C318.437 20.0134 317.981 20.1609 317.471 20.1609C316.962 20.1609 316.532 19.9732 316.184 19.5976C315.835 19.2221 315.661 18.7169 315.661 18.0821C315.661 17.4473 315.781 16.8348 316.023 16.2447C316.264 15.6456 316.64 15.1315 317.149 14.7024C317.659 14.2642 318.24 14.0452 318.893 14.0452ZM323.405 19.7184C323.978 19.7184 324.545 19.3026 325.109 18.4711C325.681 17.6306 325.967 16.8482 325.967 16.124C325.967 15.3908 325.735 14.7918 325.27 14.3268C325.493 14.1391 325.699 14.0452 325.887 14.0452C326.235 14.0452 326.41 14.5369 326.41 15.5205C326.41 16.504 326.302 17.4071 326.088 18.2296C325.873 19.0433 325.591 19.7362 325.243 20.3085C324.903 20.8807 324.514 21.3769 324.076 21.7972C323.227 22.6376 322.364 23.0579 321.487 23.0579C321.04 23.0579 320.705 22.9551 320.482 22.7494C320.249 22.5438 320.133 22.3024 320.133 22.0252C320.133 21.748 320.191 21.4976 320.307 21.2741C320.415 21.0506 320.58 20.9388 320.803 20.9388C321.027 20.9388 321.21 21.0014 321.353 21.1266C321.094 21.4574 320.964 21.7614 320.964 22.0386C320.964 22.4856 321.201 22.7092 321.675 22.7092C321.988 22.7092 322.35 22.5929 322.762 22.3605C323.173 22.1369 323.589 21.8151 324.009 21.3948C324.429 20.9835 324.814 20.4292 325.162 19.7318C325.52 19.0344 325.77 18.2788 325.913 17.4652C325.618 18.2431 325.22 18.8868 324.72 19.3965C324.228 19.9061 323.66 20.1609 323.016 20.1609C322.686 20.1609 322.417 20.0492 322.212 19.8256C322.015 19.5932 321.917 19.2802 321.917 18.8868C321.917 18.4934 322.064 17.8049 322.359 16.8214C322.663 15.8379 322.815 15.1941 322.815 14.8901C322.815 14.5772 322.699 14.4207 322.467 14.4207C322.297 14.4207 322.118 14.5369 321.93 14.7694C321.742 14.9929 321.59 15.3148 321.474 15.7351L321.246 15.6814C321.577 14.5906 322.055 14.0452 322.681 14.0452C323.262 14.0452 323.553 14.3581 323.553 14.984C323.553 15.2344 323.414 15.8558 323.137 16.8482C322.86 17.8407 322.721 18.4934 322.721 18.8064C322.721 19.4144 322.949 19.7184 323.405 19.7184ZM332.159 19.7586L331.797 17.1701H328.833L327.384 19.7586H328.216L328.176 20H326.244L326.298 19.7586H326.767C326.893 19.7586 326.986 19.696 327.049 19.5708L331.555 11.5506H331.985L333.084 19.5708C333.102 19.696 333.169 19.7586 333.286 19.7586H333.755L333.715 20H331.287L331.327 19.7586H332.159ZM331.22 12.9186L329.034 16.7946H331.743L331.22 12.9186ZM335.951 19.3428C335.951 19.6379 336.063 19.7854 336.287 19.7854C336.456 19.7854 336.64 19.6736 336.836 19.4501C337.033 19.2176 337.203 18.8913 337.346 18.4711L337.561 18.5247C337.176 19.6155 336.676 20.1609 336.059 20.1609C335.504 20.1609 335.227 19.8122 335.227 19.1148C335.227 18.4085 335.813 15.9318 336.984 11.6847L336.126 11.7518L336.112 11.5238C336.729 11.4433 337.306 11.3315 337.842 11.1885L338.03 11.3226C337.655 12.4224 337.212 13.9155 336.702 15.8021C336.202 17.6798 335.951 18.86 335.951 19.3428ZM339.742 19.2221L341.874 19.7049C342.339 19.8122 342.67 19.9553 342.867 20.1341C343.063 20.3219 343.162 20.5767 343.162 20.8986C343.162 21.4172 342.876 21.9045 342.303 22.3605C341.74 22.8254 341.096 23.0579 340.372 23.0579C339.648 23.0579 339.058 22.8925 338.602 22.5616C338.155 22.2308 337.931 21.8374 337.931 21.3814C337.931 21.0685 338.039 20.7689 338.253 20.4828C338.459 20.1967 338.767 19.9553 339.179 19.7586L339.447 19.8391C339.179 19.9732 338.973 20.1744 338.83 20.4426C338.687 20.7198 338.615 21.0104 338.615 21.3144C338.615 21.8151 338.781 22.1861 339.111 22.4275C339.442 22.6779 339.867 22.8031 340.386 22.8031C340.913 22.8031 341.396 22.6511 341.834 22.3471C342.281 22.052 342.505 21.6944 342.505 21.2741C342.505 20.8539 342.232 20.5812 341.687 20.456L339.38 19.9464C339.12 19.8927 338.919 19.772 338.776 19.5842C338.633 19.3965 338.562 19.1685 338.562 18.9002C338.562 18.632 338.673 18.3861 338.897 18.1626C339.12 17.9391 339.429 17.8273 339.822 17.8273H341.177L341.137 18.0151H339.822C339.635 18.0151 339.483 18.0732 339.366 18.1894C339.259 18.3056 339.205 18.4442 339.205 18.6052C339.205 18.936 339.384 19.1416 339.742 19.2221ZM341.995 14.2329L341.982 14.0452C342.232 14.0452 342.442 13.9871 342.612 13.8708C342.782 13.7456 342.867 13.5847 342.867 13.388C342.867 13.1913 342.724 13.0035 342.438 12.8247C342.581 12.5207 342.751 12.3687 342.947 12.3687C343.153 12.3687 343.305 12.4268 343.403 12.5431C343.511 12.6593 343.564 12.8068 343.564 12.9856C343.564 13.2986 343.421 13.5847 343.135 13.844C342.858 14.1033 342.478 14.2329 341.995 14.2329ZM339.541 16.5532C339.541 15.8915 339.773 15.3104 340.238 14.8096C340.712 14.3 341.293 14.0452 341.982 14.0452C342.464 14.0452 342.844 14.1748 343.122 14.4341C343.408 14.6845 343.551 15.0421 343.551 15.5071C343.551 16.2581 343.309 16.8661 342.827 17.3311C342.344 17.7871 341.78 18.0151 341.137 18.0151C340.645 18.0151 340.256 17.8899 339.97 17.6395C339.684 17.3802 339.541 17.0181 339.541 16.5532ZM341.968 14.3C341.476 14.3 341.074 14.5727 340.761 15.1181C340.448 15.6546 340.292 16.1329 340.292 16.5532C340.292 16.9734 340.368 17.2819 340.52 17.4786C340.681 17.6664 340.891 17.7602 341.15 17.7602C341.543 17.7602 341.919 17.5367 342.277 17.0896C342.634 16.6426 342.813 16.0793 342.813 15.3998C342.813 15.06 342.733 14.7918 342.572 14.5951C342.42 14.3984 342.219 14.3 341.968 14.3ZM344.768 18.0553C344.768 17.1344 345.037 16.2536 345.573 15.4132C345.832 15.0108 346.172 14.6845 346.592 14.4341C347.013 14.1748 347.491 14.0452 348.027 14.0452C348.573 14.0452 349.015 14.2285 349.355 14.5951C349.695 14.9616 349.865 15.4624 349.865 16.0972C349.865 16.732 349.749 17.3489 349.516 17.948C349.284 18.5471 348.917 19.0656 348.416 19.5038C347.916 19.9419 347.352 20.1609 346.726 20.1609C346.101 20.1609 345.618 19.9776 345.278 19.6111C344.938 19.2445 344.768 18.7259 344.768 18.0553ZM347.92 14.3402C347.437 14.3402 347.008 14.5816 346.633 15.0645C346.266 15.5473 346.002 16.0748 345.841 16.6471C345.689 17.2193 345.613 17.7558 345.613 18.2565C345.613 18.7482 345.712 19.1416 345.908 19.4367C346.114 19.7228 346.391 19.8659 346.74 19.8659C347.097 19.8659 347.428 19.7228 347.732 19.4367C348.045 19.1506 348.291 18.7974 348.47 18.3772C348.837 17.5188 349.02 16.7767 349.02 16.1508C349.02 15.516 348.921 15.0555 348.725 14.7694C348.528 14.4833 348.26 14.3402 347.92 14.3402Z" fill="#6082FA"/>
<path opacity="0.86" d="M357.739 5.52706C356.345 6.55976 355.258 8.00823 354.48 9.87247C353.702 11.7233 353.314 13.6412 353.314 15.6261C353.314 17.5976 353.77 19.0461 354.682 19.9715L354.4 20.2733C353.555 19.7502 352.911 19.0126 352.469 18.0604C352.039 17.1081 351.825 16.0486 351.825 14.8818C351.825 12.9639 352.348 11.0929 353.394 9.26894C354.454 7.43153 355.855 6.08365 357.599 5.22529L357.739 5.52706ZM365.856 9.45C365.386 10.8448 364.944 12.3402 364.528 13.9362C364.112 15.5322 363.904 16.5582 363.904 17.0142C363.904 17.4568 364.072 17.6781 364.407 17.6781C364.662 17.6781 364.937 17.5105 365.232 17.1752C365.527 16.8265 365.782 16.3369 365.996 15.7066L366.318 15.7871C365.742 17.4233 364.991 18.2414 364.065 18.2414C363.234 18.2414 362.818 17.7385 362.818 16.7326C362.818 16.5314 362.851 16.2095 362.918 15.7669H362.818C361.986 17.4166 361.021 18.2414 359.921 18.2414C359.291 18.2414 358.761 17.9665 358.332 17.4166C357.916 16.8533 357.708 16.1693 357.708 15.3646C357.708 14.5465 357.815 13.7887 358.03 13.0913C358.244 12.3939 358.546 11.7434 358.935 11.1399C359.324 10.5229 359.84 10.0267 360.484 9.65118C361.128 9.26223 361.832 9.06776 362.597 9.06776C363.589 9.06776 364.374 9.49023 364.95 10.3352L365.574 9.24882L365.856 9.45ZM360.404 17.6379C360.967 17.6379 361.537 17.202 362.114 16.3302C362.771 15.3244 363.381 13.6814 363.944 11.4014C364.065 10.8649 364.159 10.476 364.226 10.2346C363.757 9.77859 363.214 9.55059 362.597 9.55059C361.993 9.55059 361.45 9.75847 360.967 10.1742C360.498 10.59 360.129 11.1131 359.861 11.7434C359.311 13.0309 359.036 14.2447 359.036 15.3847C359.036 16.1358 359.156 16.6991 359.398 17.0746C359.653 17.4501 359.988 17.6379 360.404 17.6379ZM371.529 9.24882L371.81 9.45C371.167 10.9253 370.603 12.6219 370.121 14.5398H370.282L370.603 13.6546C371.234 11.9379 371.857 10.7442 372.474 10.0736C373.091 9.40306 373.628 9.06776 374.084 9.06776C374.54 9.06776 374.875 9.21529 375.09 9.51035C375.318 9.80541 375.432 10.1876 375.432 10.6571C375.432 11.1265 375.344 11.5355 375.17 11.8842C374.996 12.2329 374.741 12.4073 374.406 12.4073C374.084 12.4073 373.816 12.3 373.601 12.0854C373.735 11.9111 373.862 11.6562 373.983 11.3209C374.104 10.9856 374.164 10.6906 374.164 10.4358C374.164 10.0468 374.003 9.85235 373.681 9.85235C373.346 9.85235 372.93 10.1809 372.434 10.8381C371.348 12.2598 370.429 14.6471 369.678 18L368.27 18.1207L370.241 9.99318L368.954 10.0938L368.934 9.75176C369.859 9.63106 370.724 9.46341 371.529 9.24882ZM377.465 16.8332L380.664 17.5574C381.362 17.7184 381.858 17.9329 382.153 18.2012C382.448 18.4828 382.595 18.8651 382.595 19.3479C382.595 20.1258 382.166 20.8567 381.308 21.5407C380.463 22.2381 379.497 22.5868 378.411 22.5868C377.325 22.5868 376.439 22.3387 375.755 21.8425C375.085 21.3462 374.75 20.7561 374.75 20.0721C374.75 19.6027 374.91 19.1534 375.232 18.7242C375.541 18.2951 376.004 17.9329 376.62 17.6379L377.023 17.7586C376.62 17.9598 376.312 18.2615 376.097 18.6639C375.883 19.0796 375.776 19.5155 375.776 19.9715C375.776 20.7226 376.024 21.2792 376.52 21.6413C377.016 22.0168 377.653 22.2046 378.431 22.2046C379.222 22.2046 379.947 21.9766 380.604 21.5206C381.274 21.078 381.61 20.5415 381.61 19.9112C381.61 19.2808 381.201 18.8718 380.382 18.684L376.922 17.9195C376.533 17.8391 376.232 17.658 376.017 17.3764C375.802 17.0947 375.695 16.7527 375.695 16.3504C375.695 15.948 375.863 15.5792 376.198 15.2439C376.533 14.9086 376.996 14.7409 377.586 14.7409H379.618L379.558 15.0226H377.586C377.304 15.0226 377.076 15.1098 376.902 15.2841C376.741 15.4585 376.661 15.6664 376.661 15.9078C376.661 16.404 376.929 16.7125 377.465 16.8332ZM380.845 9.34941L380.825 9.06776C381.201 9.06776 381.516 8.98059 381.771 8.80623C382.025 8.61847 382.153 8.37706 382.153 8.082C382.153 7.78694 381.938 7.50529 381.509 7.23706C381.724 6.78106 381.978 6.55306 382.274 6.55306C382.582 6.55306 382.81 6.64023 382.958 6.81459C383.118 6.98894 383.199 7.21023 383.199 7.47847C383.199 7.94788 382.984 8.37706 382.555 8.766C382.139 9.15494 381.569 9.34941 380.845 9.34941ZM377.164 12.8298C377.164 11.8373 377.512 10.9655 378.21 10.2145C378.921 9.45 379.792 9.06776 380.825 9.06776C381.549 9.06776 382.119 9.26223 382.535 9.65118C382.964 10.0267 383.179 10.5632 383.179 11.2606C383.179 12.3872 382.817 13.2992 382.092 13.9966C381.368 14.6806 380.523 15.0226 379.558 15.0226C378.82 15.0226 378.237 14.8348 377.807 14.4593C377.378 14.0704 377.164 13.5272 377.164 12.8298ZM380.805 9.45C380.067 9.45 379.464 9.85906 378.994 10.6772C378.525 11.4819 378.29 12.1994 378.29 12.8298C378.29 13.4601 378.404 13.9228 378.632 14.2179C378.874 14.4995 379.189 14.6404 379.578 14.6404C380.168 14.6404 380.731 14.3051 381.268 13.6345C381.804 12.9639 382.072 12.1189 382.072 11.0996C382.072 10.59 381.952 10.1876 381.71 9.89259C381.482 9.59753 381.18 9.45 380.805 9.45ZM388.848 9.55059C388.338 9.55059 387.902 9.69812 387.54 9.99318C387.178 10.2882 386.997 10.6638 386.997 11.1198C386.997 11.5758 387.185 11.9915 387.56 12.3671C387.936 12.7426 388.345 13.0578 388.787 13.3126C389.23 13.554 389.639 13.8759 390.014 14.2782C390.39 14.6806 390.578 15.1098 390.578 15.5658C390.578 16.4241 390.242 17.088 389.572 17.5574C388.915 18.0134 388.117 18.2414 387.178 18.2414C386.239 18.2414 385.414 18.0201 384.703 17.5775C384.931 17.1215 385.146 16.3302 385.347 15.2036L385.689 15.264C385.595 15.8139 385.548 16.2498 385.548 16.5716C385.548 16.8801 385.696 17.1685 385.991 17.4367C386.299 17.6915 386.735 17.8189 387.299 17.8189C387.875 17.8189 388.358 17.6446 388.747 17.2959C389.149 16.9472 389.351 16.4912 389.351 15.9279C389.351 15.5658 389.169 15.2171 388.807 14.8818C388.459 14.5331 388.07 14.2447 387.641 14.0167C387.225 13.7887 386.836 13.4668 386.474 13.0511C386.125 12.6353 385.951 12.1793 385.951 11.6831C385.951 10.9454 386.239 10.3285 386.816 9.83223C387.406 9.32259 388.177 9.06776 389.129 9.06776C389.867 9.06776 390.598 9.24882 391.322 9.61094C391.255 9.75847 391.141 10.0938 390.98 10.6168C390.833 11.1399 390.719 11.6361 390.638 12.1055L390.296 12.0452C390.377 11.616 390.417 11.2069 390.417 10.818C390.417 10.4156 390.283 10.1072 390.014 9.89259C389.76 9.66459 389.371 9.55059 388.848 9.55059ZM391.3 19.9715C392.641 18.9522 393.707 17.4971 394.499 15.606C395.29 13.7149 395.686 11.8038 395.686 9.87247C395.686 7.92776 395.236 6.47929 394.338 5.52706L394.579 5.22529C395.451 5.74835 396.101 6.486 396.531 7.43823C396.96 8.37706 397.174 9.43659 397.174 10.6168C397.174 12.5347 396.645 14.4124 395.585 16.2498C394.539 18.0872 393.137 19.4284 391.381 20.2733L391.3 19.9715Z" fill="#6082FA"/>
</svg>
