<svg width="10" height="9" viewBox="0 0 10 9" fill="none" xmlns="http://www.w3.org/2000/svg">
<path opacity="0.86" d="M8.588 3.452V8.43C8.588 8.582 8.67667 8.658 8.854 8.658H9.747V9H6.327V8.658H6.954C7.13133 8.658 7.22 8.582 7.22 8.43V3.205C7.22 2.559 7.07433 2.084 6.783 1.78C6.50433 1.46333 6.13067 1.305 5.662 1.305C5.00333 1.305 4.45867 1.69767 4.028 2.483C3.59733 3.25567 3.382 4.37033 3.382 5.827V8.392C3.382 8.56933 3.47067 8.658 3.648 8.658H4.275V9H0.855V8.658H1.748C1.92533 8.658 2.014 8.582 2.014 8.43V1.4C2.014 1.22267 1.92533 1.134 1.748 1.134H0.855V0.792H1.786C2.546 0.792 3.078 0.754 3.382 0.678V3.262C3.81267 1.46333 4.76267 0.563999 6.232 0.563999C6.89067 0.563999 7.448 0.804666 7.904 1.286C8.36 1.75467 8.588 2.47667 8.588 3.452Z" fill="#6082FA"/>
</svg>
