<svg width="504" height="64" viewBox="0 0 504 64" fill="none" xmlns="http://www.w3.org/2000/svg">
<path opacity="0.86" d="M81.1641 17.03L81.5804 17.134C81.4416 17.9319 81.1901 18.5303 80.8259 18.9293L74.2173 26.1102C74.5642 26.1275 75.18 26.3183 76.0646 26.6826C76.9666 27.0468 77.669 27.229 78.172 27.229C79.1781 27.229 79.8025 26.5352 80.0453 25.1475L80.5397 25.2256C80.2968 27.5672 79.577 28.738 78.3802 28.738C77.6517 28.738 76.7931 28.4605 75.8044 27.9054C74.8331 27.3504 74.148 27.0729 73.749 27.0729C73.1419 27.0729 72.6736 27.6279 72.3441 28.738L71.9538 28.6079C72.2487 27.6713 72.5782 26.9948 72.9425 26.5785L79.603 19.3195C79.3082 19.3022 78.7618 19.1374 77.9639 18.8252C77.166 18.513 76.5243 18.3569 76.0386 18.3569C75.0326 18.3569 74.4081 19.016 74.1653 20.3342L73.671 20.2562C73.9138 18.0013 74.6336 16.8739 75.8304 16.8739C76.5763 16.8739 77.3828 17.1167 78.2501 17.6024C79.1347 18.088 79.6984 18.3309 79.9413 18.3309C80.5137 18.3309 80.9213 17.8972 81.1641 17.03Z" fill="#6082FA"/>
<path opacity="0.86" d="M86.3256 6.36764C85.8048 6.36764 85.4094 6.5316 85.1393 6.85952C84.8693 7.18744 84.7343 7.5877 84.7343 8.06029C84.7343 8.19531 84.7487 8.32069 84.7777 8.43643C84.5944 8.5811 84.3678 8.65344 84.0977 8.65344C83.8566 8.65344 83.736 8.49912 83.736 8.19049C83.736 7.61181 83.9723 7.11029 84.4449 6.68592C84.9175 6.26155 85.5251 6.04937 86.2678 6.04937C87.0104 6.04937 87.5553 6.19886 87.9025 6.49785C88.2594 6.78719 88.4378 7.15369 88.4378 7.59734C88.4378 8.041 88.351 8.40267 88.1774 8.68237C88.0135 8.95242 87.8833 9.15978 87.7868 9.30445C87.6904 9.44912 87.5409 9.62755 87.3383 9.83973C87.1358 10.0423 86.9815 10.1966 86.8754 10.3027C86.7693 10.3991 86.5957 10.5534 86.3546 10.7656C86.1135 10.9778 85.9591 11.1177 85.8916 11.1852L83.3454 13.5144H86.6584C86.8706 13.5144 87.0201 13.4083 87.1069 13.1961L87.5553 11.9375H87.8591L87.7145 12.6319C87.5409 13.471 87.4541 14.1123 87.4541 14.556C87.1551 14.4692 86.6391 14.4258 85.9061 14.4258H81.8409L85.7325 10.809C86.3208 10.2689 86.7355 9.69506 86.9767 9.08745C87.2274 8.47019 87.3528 7.94937 87.3528 7.52501C87.3528 6.75343 87.0104 6.36764 86.3256 6.36764Z" fill="#6082FA"/>
<path opacity="0.86" d="M93.0383 23.3821L91.3746 27.9537C91.4711 28.4938 91.6254 28.9037 91.8376 29.1834C92.0594 29.4631 92.2812 29.6029 92.5031 29.6029C92.9081 29.6029 93.1685 29.2123 93.2843 28.4311H93.5447L93.5158 29.2847C93.5158 29.6415 93.4048 29.955 93.183 30.225C92.9708 30.4951 92.7394 30.6301 92.4886 30.6301C92.0353 30.6301 91.5627 29.9598 91.0708 28.6192C90.5307 29.5354 90.0196 30.1093 89.5373 30.3408C89.0647 30.5626 88.5728 30.6735 88.0617 30.6735C87.2419 30.6735 86.5475 30.3697 85.9784 29.7621C85.419 29.1545 85.1393 28.2768 85.1393 27.1291C85.1393 25.8078 85.4528 24.824 86.0797 24.1778C86.7066 23.522 87.4492 23.194 88.3076 23.194C88.3751 23.194 88.4475 23.1989 88.5246 23.2085C88.6018 23.2182 88.6596 23.223 88.6982 23.223C89.8749 23.4255 90.5838 24.3369 90.8249 25.9572L91.7652 23.3821H93.0383ZM90.4343 27.1869C90.2221 25.7595 89.9231 24.8336 89.5373 24.4093C89.1612 23.9753 88.7031 23.7583 88.1629 23.7583C87.7579 23.7583 87.401 24.0524 87.0924 24.6407C86.7838 25.2194 86.6294 25.9958 86.6294 26.9699C86.6294 28.0984 86.7838 28.9182 87.0924 29.4293C87.401 29.9309 87.7868 30.1816 88.2498 30.1816C88.9731 30.1816 89.5566 29.5788 90.0003 28.3732L90.4343 27.1869ZM97.5521 32.4963H97.0746L100.677 22.0511H101.169L97.5521 32.4963ZM105.991 23.3676C105.47 23.3676 105.075 23.5316 104.805 23.8595C104.535 24.1874 104.4 24.5877 104.4 25.0603C104.4 25.1953 104.414 25.3207 104.443 25.4364C104.26 25.5811 104.033 25.6534 103.763 25.6534C103.522 25.6534 103.402 25.4991 103.402 25.1905C103.402 24.6118 103.638 24.1103 104.11 23.6859C104.583 23.2616 105.191 23.0494 105.933 23.0494C106.676 23.0494 107.221 23.1989 107.568 23.4978C107.925 23.7872 108.103 24.1537 108.103 24.5973C108.103 25.041 108.017 25.4027 107.843 25.6824C107.679 25.9524 107.549 26.1598 107.452 26.3045C107.356 26.4491 107.206 26.6275 107.004 26.8397C106.801 27.0423 106.647 27.1966 106.541 27.3027C106.435 27.3991 106.261 27.5534 106.02 27.7656C105.779 27.9778 105.625 28.1177 105.557 28.1852L103.011 30.5144H106.324C106.536 30.5144 106.686 30.4083 106.772 30.1961L107.221 28.9375H107.525L107.38 29.6319C107.206 30.471 107.12 31.1123 107.12 31.556C106.821 31.4692 106.305 31.4258 105.572 31.4258H101.506L105.398 27.809C105.986 27.2689 106.401 26.6951 106.642 26.0874C106.893 25.4702 107.018 24.9494 107.018 24.525C107.018 23.7534 106.676 23.3676 105.991 23.3676Z" fill="#6082FA"/>
<path opacity="0.86" d="M79.6366 39.8762C78.8834 39.8762 78.3116 40.1133 77.921 40.5875C77.5305 41.0618 77.3353 41.6406 77.3353 42.324C77.3353 42.5193 77.3562 42.7006 77.398 42.8679C77.133 43.0772 76.8053 43.1818 76.4147 43.1818C76.066 43.1818 75.8917 42.9586 75.8917 42.5123C75.8917 41.6754 76.2334 40.9502 76.9168 40.3365C77.6003 39.7228 78.4789 39.416 79.5529 39.416C80.6268 39.416 81.4149 39.6321 81.917 40.0645C82.433 40.4829 82.6911 41.0129 82.6911 41.6545C82.6911 42.2961 82.5655 42.8191 82.3145 43.2236C82.0774 43.6141 81.8891 43.914 81.7496 44.1232C81.6101 44.3324 81.394 44.5905 81.1011 44.8973C80.8082 45.1902 80.585 45.4134 80.4316 45.5668C80.2782 45.7062 80.0271 45.9294 79.6784 46.2363C79.3297 46.5431 79.1066 46.7453 79.0089 46.843L75.3268 50.2113H80.1178C80.4246 50.2113 80.6408 50.0578 80.7663 49.751L81.4149 47.9309H81.8542L81.645 48.9351C81.394 50.1485 81.2684 51.076 81.2684 51.7176C80.8361 51.5921 80.0899 51.5293 79.0299 51.5293H73.151L78.7788 46.299C79.6296 45.518 80.2293 44.6881 80.578 43.8094C80.9407 42.9168 81.122 42.1636 81.122 41.5499C81.122 40.4341 80.6268 39.8762 79.6366 39.8762Z" fill="#6082FA"/>
<path opacity="0.86" d="M89.7133 47.6059C89.7133 48.0057 89.4855 48.7402 89.0299 49.8095C88.5835 50.8789 88.3604 51.5623 88.3604 51.8598C88.3604 52.1574 88.4766 52.3061 88.7091 52.3061C88.8857 52.3061 89.0764 52.1899 89.2809 51.9575C89.4855 51.7157 89.6621 51.3763 89.8109 50.9393L90.0341 50.9951C89.6343 52.1295 89.1135 52.6967 88.472 52.6967C87.8955 52.6967 87.6072 52.3805 87.6072 51.7482C87.6072 51.4786 87.8164 50.8091 88.2349 49.7398C88.6626 48.6705 88.8764 47.9824 88.8764 47.6756C88.8764 47.0898 88.6626 46.7969 88.2349 46.7969C87.7699 46.7969 87.2678 47.1735 86.7285 47.9266C86.1056 48.8286 85.5523 50.3628 85.0688 52.5293L84.0925 52.613L85.4593 46.9782L84.5667 47.048L84.5527 46.8109C85.1943 46.7272 85.7941 46.6109 86.352 46.4622L86.5472 46.6016C86.1009 47.6245 85.7104 48.8007 85.3756 50.1303H85.4872L85.7104 49.5167C86.2125 48.1126 86.7564 47.2014 87.3422 46.783C87.6212 46.597 87.849 46.4761 88.0257 46.4203C88.2116 46.3645 88.4394 46.3366 88.7091 46.3366C88.988 46.3366 89.2251 46.4482 89.4204 46.6714C89.6157 46.8945 89.7133 47.206 89.7133 47.6059Z" fill="#6082FA"/>
<path opacity="0.86" d="M60.3956 25.4225V30.2008H65.2021V31.6993H60.3956V36.5059H58.8971V31.6993H54.1188V30.2008H58.8971V25.4225H60.3956Z" fill="#6082FA"/>
<path opacity="0.86" d="M122.523 22.5952V27.3734H127.33V28.8719H122.523V33.6785H121.025V28.8719H116.246V27.3734H121.025V22.5952H122.523ZM127.33 36.5059H116.246V35.0073H127.33V36.5059Z" fill="#6082FA"/>
<line x1="69.2441" y1="34.5038" x2="108.639" y2="34.5038" stroke="#6082FA" stroke-width="1.84394"/>
<path opacity="0.86" d="M39.9508 23.2947L40.3466 23.5774C39.4418 25.6508 38.6502 28.0352 37.9716 30.7307H38.1978L38.6502 29.4866C40.2147 25.189 42.0053 23.0402 44.0222 23.0402C44.8327 23.0402 45.5207 23.436 46.0862 24.2277C46.6705 25.0194 46.9627 25.9807 46.9627 27.1116C46.9627 28.2426 46.8119 29.2981 46.5103 30.2783C46.2276 31.2396 45.8129 32.1443 45.2662 32.9926C44.7196 33.8219 44.0033 34.5005 43.1174 35.0283C42.2315 35.5561 41.2514 35.8199 40.177 35.8199C38.5371 35.8199 37.2553 35.0942 36.3317 33.6429L36.5296 33.1622C37.4344 34.5382 38.6219 35.2262 40.0921 35.2262C40.9404 35.2262 41.6943 34.9435 42.354 34.378C43.0326 33.8125 43.551 33.1057 43.9091 32.2574C44.6254 30.5233 44.9835 28.8269 44.9835 27.1682C44.9835 26.2069 44.8421 25.4623 44.5594 24.9345C44.2955 24.3879 43.9468 24.1146 43.5133 24.1146C42.6274 24.1146 41.6283 24.9722 40.5162 26.6875C39.423 28.4028 38.4334 31.0794 37.5475 34.7173L35.8511 41.7009L33.8719 41.8705L38.1412 24.3408L36.3317 24.4822L36.3035 24.0015C37.604 23.8319 38.8198 23.5962 39.9508 23.2947Z" fill="#6082FA"/>
<path opacity="0.86" d="M38.3302 20.9434L42.9394 18.0077L47.4938 20.9434C47.7682 20.9434 48.4541 20.7239 48.5089 20.5592L43.7625 16.0597C43.4333 15.9226 42.4181 15.9226 42.0889 16.0597L37.3425 20.5592C37.3973 20.7239 38.0558 20.9159 38.3302 20.9434Z" fill="#6082FA"/>
<path opacity="0.86" d="M387.341 39.5981H386.238L393.278 19.1844H394.409L387.341 39.5981ZM400.13 24.2737C399.47 26.1209 399.14 28.0718 399.14 30.1264C399.14 32.181 399.47 34.1413 400.13 36.0073C400.79 37.8546 401.732 39.2777 402.957 40.2767L402.675 40.7008C400.808 39.7206 399.366 38.2787 398.349 36.3749C397.331 34.4523 396.822 32.3695 396.822 30.1264C396.822 27.8833 397.331 25.8099 398.349 23.9062C399.366 21.9836 400.808 20.5322 402.675 19.552L402.957 19.9761C401.732 20.9751 400.79 22.4077 400.13 24.2737ZM406.155 37.5059V36.9687H409.463C409.69 36.9687 409.821 36.8556 409.859 36.6294V23.6234C409.859 23.1522 409.576 22.9166 409.011 22.9166L405.873 23.0862L405.816 22.4077L408.389 22.0401C410.01 21.7951 411.292 21.4935 412.234 21.1353C412.046 21.8516 411.951 22.926 411.951 24.3585V36.5728C411.951 36.8367 412.093 36.9687 412.376 36.9687H415.033V37.5059H406.155ZM426 26.4225V31.2008H430.807V32.6993H426V37.5059H424.502V32.6993H419.724V31.2008H424.502V26.4225H426Z" fill="#6082FA"/>
<path opacity="0.86" d="M498.951 36.0073C499.611 34.1413 499.941 32.181 499.941 30.1264C499.941 28.0718 499.611 26.1209 498.951 24.2737C498.291 22.4077 497.349 20.9751 496.124 19.9761L496.406 19.552C498.272 20.5322 499.714 21.9836 500.732 23.9062C501.75 25.8099 502.259 27.8833 502.259 30.1264C502.259 32.3695 501.75 34.4523 500.732 36.3749C499.714 38.2787 498.272 39.7206 496.406 40.7008L496.124 40.2767C497.349 39.2777 498.291 37.8546 498.951 36.0073Z" fill="#6082FA"/>
<path opacity="0.86" d="M25.9032 17.2624C24.6853 20.6727 24.0763 24.2744 24.0763 28.0675C24.0763 31.8606 24.6853 35.4797 25.9032 38.9249C27.1212 42.3352 28.8612 44.9625 31.1231 46.8069L30.6011 47.5899C27.156 45.7803 24.4939 43.1182 22.6147 39.6035C20.7356 36.0539 19.796 32.2086 19.796 28.0675C19.796 23.9264 20.7356 20.0985 22.6147 16.5838C24.4939 13.0342 27.156 10.3547 30.6011 8.54514L31.1231 9.32813C28.8612 11.1725 27.1212 13.8172 25.9032 17.2624Z" fill="#6082FA"/>
<path opacity="0.86" d="M375.194 38.9249C376.412 35.4797 377.021 31.8606 377.021 28.0675C377.021 24.2744 376.412 20.6727 375.194 17.2624C373.976 13.8172 372.236 11.1725 369.974 9.32813L370.496 8.54514C373.941 10.3547 376.603 13.0342 378.483 16.5838C380.362 20.0985 381.301 23.9264 381.301 28.0675C381.301 32.2086 380.362 36.0539 378.483 39.6035C376.603 43.1182 373.941 45.7803 370.496 47.5899L369.974 46.8069C372.236 44.9625 373.976 42.3352 375.194 38.9249Z" fill="#6082FA"/>
<path opacity="0.86" d="M280.736 24.3932L281.206 24.5108C281.05 25.4128 280.765 26.0892 280.354 26.5402L272.883 34.6578C273.275 34.6774 273.971 34.8931 274.971 35.3048C275.991 35.7166 276.785 35.9225 277.354 35.9225C278.491 35.9225 279.197 35.1382 279.471 33.5695L280.03 33.6578C279.756 36.3048 278.942 37.6283 277.589 37.6283C276.765 37.6283 275.795 37.3146 274.677 36.6872C273.579 36.0597 272.805 35.746 272.354 35.746C271.667 35.746 271.138 36.3734 270.765 37.6283L270.324 37.4813C270.658 36.4225 271.03 35.6578 271.442 35.1872L278.971 26.9814C278.638 26.9618 278.02 26.7755 277.118 26.4226C276.216 26.0696 275.491 25.8932 274.942 25.8932C273.805 25.8932 273.099 26.6383 272.824 28.1284L272.265 28.0402C272.54 25.4912 273.354 24.2167 274.707 24.2167C275.55 24.2167 276.461 24.4912 277.442 25.0402C278.442 25.5892 279.079 25.8638 279.354 25.8638C280.001 25.8638 280.461 25.3736 280.736 24.3932Z" fill="#6082FA"/>
<path opacity="0.86" d="M285.524 17.5676C285.026 17.5676 284.648 17.7244 284.389 18.0381C284.131 18.3518 284.002 18.7346 284.002 19.1867C284.002 19.3158 284.016 19.4357 284.043 19.5464C283.868 19.6848 283.651 19.754 283.393 19.754C283.162 19.754 283.047 19.6064 283.047 19.3112C283.047 18.7577 283.273 18.278 283.725 17.872C284.177 17.4661 284.758 17.2632 285.469 17.2632C286.179 17.2632 286.7 17.4062 287.032 17.6922C287.374 17.9689 287.544 18.3195 287.544 18.7438C287.544 19.1682 287.461 19.5142 287.295 19.7817C287.139 20.04 287.014 20.2383 286.922 20.3767C286.83 20.5151 286.687 20.6858 286.493 20.8887C286.299 21.0825 286.151 21.2301 286.05 21.3316C285.948 21.4238 285.782 21.5714 285.552 21.7744C285.321 21.9773 285.174 22.1111 285.109 22.1757L282.673 24.4036H285.842C286.045 24.4036 286.188 24.3021 286.271 24.0992L286.7 22.8952H286.991L286.853 23.5595C286.687 24.3621 286.603 24.9756 286.603 25.3999C286.317 25.3169 285.824 25.2754 285.123 25.2754H281.234L284.957 21.8159C285.52 21.2993 285.916 20.7504 286.147 20.1692C286.387 19.5787 286.507 19.0806 286.507 18.6747C286.507 17.9366 286.179 17.5676 285.524 17.5676Z" fill="#6082FA"/>
<path opacity="0.86" d="M291.945 33.5814L290.354 37.9543C290.446 38.4709 290.593 38.863 290.796 39.1305C291.009 39.398 291.221 39.5318 291.433 39.5318C291.82 39.5318 292.07 39.1582 292.18 38.4109H292.429L292.402 39.2274C292.402 39.5687 292.296 39.8685 292.083 40.1268C291.88 40.3851 291.659 40.5143 291.419 40.5143C290.986 40.5143 290.533 39.8731 290.063 38.5908C289.546 39.4672 289.057 40.0161 288.596 40.2375C288.144 40.4497 287.674 40.5558 287.185 40.5558C286.401 40.5558 285.736 40.2652 285.192 39.684C284.657 39.1028 284.389 38.2633 284.389 37.1655C284.389 35.9016 284.689 34.9606 285.289 34.3425C285.889 33.7152 286.599 33.4016 287.42 33.4016C287.485 33.4016 287.554 33.4062 287.627 33.4154C287.701 33.4246 287.757 33.4292 287.794 33.4292C288.919 33.623 289.597 34.4948 289.828 36.0446L290.727 33.5814H291.945ZM289.454 37.2208C289.251 35.8555 288.965 34.9699 288.596 34.5639C288.236 34.1488 287.798 33.9412 287.282 33.9412C286.894 33.9412 286.553 34.2226 286.258 34.7854C285.962 35.3389 285.815 36.0815 285.815 37.0133C285.815 38.0926 285.962 38.8768 286.258 39.3657C286.553 39.8455 286.922 40.0853 287.365 40.0853C288.056 40.0853 288.615 39.5087 289.039 38.3556L289.454 37.2208ZM296.262 42.2994H295.806L299.251 32.3083H299.722L296.262 42.2994ZM304.335 33.5676C303.836 33.5676 303.458 33.7244 303.2 34.0381C302.942 34.3518 302.812 34.7346 302.812 35.1867C302.812 35.3158 302.826 35.4357 302.854 35.5464C302.679 35.6848 302.462 35.754 302.204 35.754C301.973 35.754 301.858 35.6064 301.858 35.3112C301.858 34.7577 302.084 34.278 302.536 33.872C302.988 33.4661 303.569 33.2632 304.279 33.2632C304.99 33.2632 305.511 33.4062 305.843 33.6922C306.184 33.9689 306.355 34.3195 306.355 34.7438C306.355 35.1682 306.272 35.5142 306.106 35.7817C305.949 36.04 305.825 36.2383 305.732 36.3767C305.64 36.5151 305.497 36.6858 305.303 36.8887C305.11 37.0825 304.962 37.2301 304.86 37.3316C304.759 37.4238 304.593 37.5714 304.362 37.7744C304.132 37.9773 303.984 38.1111 303.92 38.1757L301.484 40.4036H304.653C304.856 40.4036 304.999 40.3021 305.082 40.0992L305.511 38.8952H305.801L305.663 39.5595C305.497 40.3621 305.414 40.9756 305.414 41.3999C305.128 41.3169 304.634 41.2754 303.933 41.2754H300.045L303.767 37.8159C304.33 37.2993 304.727 36.7504 304.957 36.1692C305.197 35.5787 305.317 35.0806 305.317 34.6747C305.317 33.9366 304.99 33.5676 304.335 33.5676Z" fill="#6082FA"/>
<path opacity="0.86" d="M445.352 21.5807L445.823 21.6983C445.666 22.6003 445.382 23.2767 444.97 23.7277L437.499 31.8453C437.891 31.8649 438.587 32.0806 439.587 32.4923C440.607 32.9041 441.401 33.11 441.97 33.11C443.107 33.11 443.813 32.3257 444.087 30.757L444.646 30.8453C444.372 33.4923 443.558 34.8158 442.205 34.8158C441.382 34.8158 440.411 34.5021 439.293 33.8747C438.195 33.2472 437.421 32.9335 436.97 32.9335C436.284 32.9335 435.754 33.5609 435.382 34.8158L434.94 34.6688C435.274 33.61 435.646 32.8453 436.058 32.3747L443.587 24.1689C443.254 24.1493 442.636 23.963 441.735 23.6101C440.833 23.2571 440.107 23.0807 439.558 23.0807C438.421 23.0807 437.715 23.8258 437.44 25.3159L436.882 25.2277C437.156 22.6787 437.97 21.4042 439.323 21.4042C440.166 21.4042 441.078 21.6787 442.058 22.2277C443.058 22.7767 443.695 23.0513 443.97 23.0513C444.617 23.0513 445.078 22.5611 445.352 21.5807Z" fill="#6082FA"/>
<path opacity="0.86" d="M450.14 14.7551C449.642 14.7551 449.264 14.9119 449.006 15.2256C448.747 15.5393 448.618 15.9221 448.618 16.3742C448.618 16.5033 448.632 16.6232 448.66 16.7339C448.484 16.8723 448.268 16.9415 448.009 16.9415C447.779 16.9415 447.663 16.7939 447.663 16.4987C447.663 15.9452 447.889 15.4655 448.341 15.0595C448.793 14.6536 449.375 14.4507 450.085 14.4507C450.795 14.4507 451.317 14.5937 451.649 14.8797C451.99 15.1564 452.161 15.507 452.161 15.9313C452.161 16.3557 452.078 16.7017 451.912 16.9692C451.755 17.2275 451.63 17.4258 451.538 17.5642C451.446 17.7026 451.303 17.8733 451.109 18.0762C450.915 18.27 450.768 18.4176 450.666 18.5191C450.565 18.6113 450.399 18.7589 450.168 18.9619C449.937 19.1648 449.79 19.2986 449.725 19.3632L447.29 21.5911H450.459C450.662 21.5911 450.805 21.4896 450.888 21.2867L451.317 20.0827H451.607L451.469 20.747C451.303 21.5496 451.22 22.1631 451.22 22.5874C450.934 22.5044 450.44 22.4629 449.739 22.4629H445.851L449.573 19.0034C450.136 18.4868 450.532 17.9379 450.763 17.3567C451.003 16.7662 451.123 16.2681 451.123 15.8622C451.123 15.1241 450.795 14.7551 450.14 14.7551Z" fill="#6082FA"/>
<path opacity="0.86" d="M456.561 30.7689L454.97 35.1418C455.062 35.6584 455.21 36.0505 455.413 36.318C455.625 36.5855 455.837 36.7193 456.049 36.7193C456.437 36.7193 456.686 36.3457 456.796 35.5984H457.046L457.018 36.4149C457.018 36.7562 456.912 37.056 456.7 37.3143C456.497 37.5726 456.275 37.7018 456.035 37.7018C455.602 37.7018 455.15 37.0606 454.679 35.7783C454.163 36.6547 453.674 37.2036 453.212 37.425C452.76 37.6372 452.29 37.7433 451.801 37.7433C451.017 37.7433 450.353 37.4527 449.808 36.8715C449.273 36.2903 449.006 35.4508 449.006 34.353C449.006 33.0891 449.305 32.1481 449.905 31.53C450.505 30.9027 451.215 30.5891 452.036 30.5891C452.101 30.5891 452.17 30.5937 452.244 30.6029C452.318 30.6121 452.373 30.6167 452.41 30.6167C453.535 30.8105 454.213 31.6823 454.444 33.2321L455.343 30.7689H456.561ZM454.07 34.4083C453.867 33.043 453.581 32.1574 453.212 31.7514C452.853 31.3363 452.414 31.1287 451.898 31.1287C451.51 31.1287 451.169 31.4101 450.874 31.9729C450.579 32.5264 450.431 33.269 450.431 34.2008C450.431 35.2801 450.579 36.0643 450.874 36.5532C451.169 37.033 451.538 37.2728 451.981 37.2728C452.673 37.2728 453.231 36.6962 453.655 35.5431L454.07 34.4083ZM460.879 39.4869H460.422L463.868 29.4958H464.338L460.879 39.4869ZM468.951 30.7551C468.453 30.7551 468.074 30.9119 467.816 31.2256C467.558 31.5393 467.429 31.9221 467.429 32.3742C467.429 32.5033 467.443 32.6232 467.47 32.7339C467.295 32.8723 467.078 32.9415 466.82 32.9415C466.589 32.9415 466.474 32.7939 466.474 32.4987C466.474 31.9452 466.7 31.4655 467.152 31.0595C467.604 30.6536 468.185 30.4507 468.896 30.4507C469.606 30.4507 470.127 30.5937 470.459 30.8797C470.801 31.1564 470.971 31.507 470.971 31.9313C470.971 32.3557 470.888 32.7017 470.722 32.9692C470.565 33.2275 470.441 33.4258 470.348 33.5642C470.256 33.7026 470.113 33.8733 469.92 34.0762C469.726 34.27 469.578 34.4176 469.477 34.5191C469.375 34.6113 469.209 34.7589 468.979 34.9619C468.748 35.1648 468.6 35.2986 468.536 35.3632L466.1 37.5911H469.269C469.472 37.5911 469.615 37.4896 469.698 37.2867L470.127 36.0827H470.418L470.279 36.747C470.113 37.5496 470.03 38.1631 470.03 38.5874C469.744 38.5044 469.251 38.4629 468.55 38.4629H464.661L468.383 35.0034C468.946 34.4868 469.343 33.9379 469.574 33.3567C469.813 32.7662 469.933 32.2681 469.933 31.8622C469.933 31.1241 469.606 30.7551 468.951 30.7551Z" fill="#6082FA"/>
<path opacity="0.86" d="M148.657 16.7922L149.2 16.9279C149.019 17.9686 148.691 18.7492 148.216 19.2695L139.596 28.6359C140.048 28.6585 140.851 28.9074 142.005 29.3825C143.182 29.8576 144.098 30.0952 144.754 30.0952C146.066 30.0952 146.881 29.1902 147.197 27.3803L147.842 27.4821C147.526 30.5364 146.587 32.0635 145.026 32.0635C144.075 32.0635 142.955 31.7015 141.666 30.9775C140.399 30.2536 139.505 29.8916 138.985 29.8916C138.193 29.8916 137.582 30.6155 137.152 32.0635L136.643 31.8938C137.028 30.6721 137.458 29.7898 137.933 29.2468L146.621 19.7786C146.236 19.7559 145.523 19.541 144.483 19.1338C143.442 18.7265 142.605 18.5229 141.971 18.5229C140.659 18.5229 139.845 19.3826 139.528 21.1021L138.883 21.0003C139.2 18.0591 140.139 16.5885 141.7 16.5885C142.673 16.5885 143.725 16.9053 144.856 17.5388C146.01 18.1722 146.745 18.489 147.062 18.489C147.808 18.489 148.34 17.9234 148.657 16.7922Z" fill="#6082FA"/>
<path opacity="0.86" d="M164.101 25.1645L161.931 31.1274C162.057 31.8319 162.258 32.3666 162.535 32.7314C162.825 33.0962 163.114 33.2786 163.403 33.2786C163.932 33.2786 164.271 32.7691 164.422 31.7502H164.762L164.724 32.8635C164.724 33.3289 164.579 33.7378 164.29 34.09C164.013 34.4423 163.711 34.6184 163.384 34.6184C162.793 34.6184 162.177 33.7441 161.535 31.9955C160.831 33.1906 160.164 33.9391 159.535 34.241C158.918 34.5303 158.277 34.675 157.61 34.675C156.541 34.675 155.635 34.2787 154.893 33.4862C154.163 32.6937 153.798 31.5489 153.798 30.0518C153.798 28.3284 154.207 27.0452 155.025 26.2024C155.843 25.3469 156.811 24.9192 157.931 24.9192C158.019 24.9192 158.113 24.9255 158.214 24.9381C158.315 24.9506 158.39 24.9569 158.44 24.9569C159.975 25.2211 160.9 26.4099 161.214 28.5234L162.441 25.1645H164.101ZM160.705 30.1273C160.428 28.2655 160.038 27.0578 159.535 26.5043C159.044 25.9382 158.447 25.6551 157.742 25.6551C157.214 25.6551 156.748 26.0388 156.346 26.8062C155.943 27.561 155.742 28.5737 155.742 29.8443C155.742 31.3161 155.943 32.3854 156.346 33.0522C156.748 33.7063 157.252 34.0334 157.855 34.0334C158.799 34.0334 159.56 33.2472 160.139 31.6747L160.705 30.1273ZM169.989 37.0526H169.366L174.065 23.4285H174.706L169.989 37.0526ZM180.996 25.1456C180.317 25.1456 179.801 25.3595 179.449 25.7872C179.097 26.2149 178.921 26.737 178.921 27.3534C178.921 27.5296 178.94 27.6931 178.977 27.8441C178.738 28.0328 178.443 28.1271 178.09 28.1271C177.776 28.1271 177.619 27.9258 177.619 27.5233C177.619 26.7685 177.927 26.1143 178.543 25.5608C179.16 25.0073 179.952 24.7305 180.921 24.7305C181.89 24.7305 182.6 24.9255 183.053 25.3155C183.519 25.6929 183.751 26.1709 183.751 26.7496C183.751 27.3283 183.638 27.8 183.412 28.1648C183.198 28.5171 183.028 28.7876 182.902 28.9763C182.777 29.165 182.582 29.3977 182.317 29.6744C182.053 29.9386 181.852 30.1399 181.714 30.2783C181.575 30.4041 181.349 30.6054 181.034 30.8821C180.72 31.1589 180.518 31.3413 180.43 31.4294L177.109 34.4674H181.43C181.707 34.4674 181.902 34.3291 182.015 34.0523L182.6 32.4106H182.997L182.808 33.3164C182.582 34.4108 182.468 35.2474 182.468 35.8261C182.078 35.7129 181.405 35.6562 180.449 35.6562H175.147L180.223 30.9387C180.99 30.2343 181.531 29.4857 181.846 28.6932C182.173 27.8881 182.336 27.2088 182.336 26.6552C182.336 25.6488 181.89 25.1456 180.996 25.1456Z" fill="#6082FA"/>
<path opacity="0.86" d="M202.773 25.663V38.3625C202.773 38.5386 202.861 38.6267 203.037 38.6267H204.49V38.9664H202.999C202.244 38.9664 201.716 39.0041 201.414 39.0796V24.9459C201.716 25.0214 202.244 25.0591 202.999 25.0591H204.49V25.3988H203.037C202.861 25.3988 202.773 25.4869 202.773 25.663Z" fill="#6082FA"/>
<path opacity="0.86" d="M189.741 41.5611H187.433L185.397 25.4075H188.044L189.639 38.8123L200.872 13.5298H206.811L206.539 14.7854H201.652L189.741 41.5611Z" fill="#6082FA"/>
<path opacity="0.86" d="M312.263 38.3436H311.527L316.226 24.7195H316.981L312.263 38.3436ZM323.629 26.0215H324.252V33.8337H325.837V34.4187H324.252V36.3623C324.252 36.5133 324.346 36.5887 324.535 36.5887H325.837V36.9473H321.289V36.5887H322.591C322.768 36.5887 322.856 36.5007 322.856 36.3246V34.4187H317.648L323.629 26.0215ZM318.723 33.8337H322.856V28.0406L318.723 33.8337ZM335.289 31.4372V36.3812C335.289 36.5321 335.377 36.6076 335.553 36.6076H336.44V36.9473H333.043V36.6076H333.666C333.842 36.6076 333.93 36.5321 333.93 36.3812V31.1919C333.93 30.5503 333.786 30.0786 333.496 29.7766C333.22 29.4621 332.848 29.3049 332.383 29.3049C331.729 29.3049 331.188 29.6949 330.76 30.4748C330.332 31.2422 330.119 32.3493 330.119 33.796V36.3434C330.119 36.5195 330.207 36.6076 330.383 36.6076H331.005V36.9473H327.609V36.6076H328.496C328.672 36.6076 328.76 36.5321 328.76 36.3812V29.3992C328.76 29.2231 328.672 29.1351 328.496 29.1351H327.609V28.7954H328.533C329.288 28.7954 329.817 28.7577 330.119 28.6822V31.2485C330.546 29.4621 331.49 28.569 332.949 28.569C333.603 28.569 334.157 28.808 334.61 29.286C335.063 29.7515 335.289 30.4686 335.289 31.4372ZM339.758 38.3625V25.663C339.758 25.4869 339.67 25.3988 339.494 25.3988H338.041V25.0591H339.532C340.287 25.0591 340.815 25.0214 341.117 24.9459V39.0796C340.815 39.0041 340.287 38.9664 339.532 38.9664H338.041V38.6267H339.494C339.67 38.6267 339.758 38.5386 339.758 38.3625ZM348.923 38.3436H348.188L352.886 24.7195H353.641L348.923 38.3436ZM362.837 31.4372V36.3812C362.837 36.5321 362.925 36.6076 363.101 36.6076H363.988V36.9473H360.591V36.6076H361.214C361.39 36.6076 361.478 36.5321 361.478 36.3812V31.1919C361.478 30.5503 361.334 30.0786 361.044 29.7766C360.768 29.4621 360.396 29.3049 359.931 29.3049C359.277 29.3049 358.736 29.6949 358.308 30.4748C357.88 31.2422 357.667 32.3493 357.667 33.796V36.3434C357.667 36.5195 357.755 36.6076 357.931 36.6076H358.554V36.9473H355.157V36.6076H356.044C356.22 36.6076 356.308 36.5321 356.308 36.3812V29.3992C356.308 29.2231 356.22 29.1351 356.044 29.1351H355.157V28.7954H356.082C356.836 28.7954 357.365 28.7577 357.667 28.6822V31.2485C358.094 29.4621 359.038 28.569 360.497 28.569C361.151 28.569 361.705 28.808 362.158 29.286C362.611 29.7515 362.837 30.4686 362.837 31.4372Z" fill="#6082FA"/>
<path opacity="0.86" d="M476.879 35.5311H476.144L480.842 21.907H481.597L476.879 35.5311ZM490.793 28.6247V33.5687C490.793 33.7196 490.881 33.7951 491.057 33.7951H491.944V34.1348H488.547V33.7951H489.17C489.346 33.7951 489.434 33.7196 489.434 33.5687V28.3794C489.434 27.7378 489.29 27.2661 489 26.9641C488.724 26.6496 488.352 26.4924 487.887 26.4924C487.233 26.4924 486.692 26.8824 486.264 27.6623C485.836 28.4297 485.623 29.5368 485.623 30.9835V33.5309C485.623 33.707 485.711 33.7951 485.887 33.7951H486.51V34.1348H483.113V33.7951H484C484.176 33.7951 484.264 33.7196 484.264 33.5687V26.5867C484.264 26.4106 484.176 26.3226 484 26.3226H483.113V25.9829H484.038C484.792 25.9829 485.321 25.9452 485.623 25.8697V28.436C486.05 26.6496 486.994 25.7565 488.453 25.7565C489.107 25.7565 489.661 25.9955 490.114 26.4735C490.567 26.939 490.793 27.6561 490.793 28.6247Z" fill="#6082FA"/>
<path opacity="0.86" d="M263.289 29.5502V32.7392H266.497V33.7394H263.289V36.9473H262.289V33.7394H259.1V32.7392H262.289V29.5502H263.289Z" fill="#6082FA"/>
<path opacity="0.86" d="M221.535 28.1161C221.095 29.3489 220.875 30.651 220.875 32.0222C220.875 33.3934 221.095 34.7017 221.535 35.9472C221.975 37.18 222.604 38.1298 223.422 38.7965L223.233 39.0796C221.988 38.4254 221.026 37.463 220.346 36.1925C219.667 34.9093 219.327 33.5192 219.327 32.0222C219.327 30.5252 219.667 29.1414 220.346 27.8708C221.026 26.5876 221.988 25.619 223.233 24.9648L223.422 25.2478C222.604 25.9146 221.975 26.8707 221.535 28.1161ZM225.556 36.9473V36.5887H227.764C227.915 36.5887 228.003 36.5133 228.028 36.3623V27.6821C228.028 27.3676 227.84 27.2103 227.462 27.2103L225.368 27.3235L225.33 26.8707L227.047 26.6254C228.129 26.4618 228.985 26.2605 229.614 26.0215C229.488 26.4996 229.425 27.2166 229.425 28.1727V36.3246C229.425 36.5007 229.519 36.5887 229.708 36.5887H231.482V36.9473H225.556ZM233.857 32.9657V32.2109H238.612V32.9657H233.857Z" fill="#6082FA"/>
<path opacity="0.86" d="M253.009 35.9472C253.449 34.7017 253.669 33.3934 253.669 32.0222C253.669 30.651 253.449 29.3489 253.009 28.1161C252.568 26.8707 251.939 25.9146 251.122 25.2478L251.31 24.9648C252.556 25.619 253.518 26.5876 254.197 27.8708C254.877 29.1414 255.216 30.5252 255.216 32.0222C255.216 33.5192 254.877 34.9093 254.197 36.1925C253.518 37.463 252.556 38.4254 251.31 39.0796L251.122 38.7965C251.939 38.1298 252.568 37.18 253.009 35.9472Z" fill="#6082FA"/>
<path opacity="0.86" d="M210.203 28.4404L210.477 28.636C209.851 30.0701 209.304 31.7193 208.834 33.5836H208.991L209.304 32.7232C210.386 29.7507 211.624 28.2644 213.019 28.2644C213.58 28.2644 214.056 28.5382 214.447 29.0858C214.851 29.6333 215.053 30.2982 215.053 31.0805C215.053 31.8627 214.949 32.5928 214.74 33.2707C214.545 33.9356 214.258 34.5614 213.88 35.1481C213.502 35.7218 213.006 36.1911 212.394 36.5561C211.781 36.9212 211.103 37.1037 210.36 37.1037C209.226 37.1037 208.339 36.6018 207.7 35.5979L207.837 35.2655C208.463 36.2172 209.284 36.693 210.301 36.693C210.888 36.693 211.409 36.4975 211.866 36.1064C212.335 35.7152 212.694 35.2263 212.941 34.6397C213.437 33.4402 213.684 32.2669 213.684 31.1196C213.684 30.4547 213.587 29.9397 213.391 29.5747C213.208 29.1966 212.967 29.0076 212.667 29.0076C212.055 29.0076 211.364 29.6007 210.594 30.7871C209.838 31.9735 209.154 33.8248 208.541 36.341L207.368 41.1714L205.999 41.2887L208.952 29.164L207.7 29.2618L207.681 28.9293C208.58 28.812 209.421 28.649 210.203 28.4404Z" fill="#6082FA"/>
<path opacity="0.86" d="M209.101 27.5335L212.29 25.503L215.44 27.5335C215.629 27.5335 216.104 27.3817 216.142 27.2678L212.859 24.1557C212.631 24.0608 211.929 24.0608 211.701 24.1557L208.418 27.2678C208.456 27.3817 208.912 27.5145 209.101 27.5335Z" fill="#6082FA"/>
<path opacity="0.86" d="M243.556 28.4404L243.83 28.636C243.204 30.0701 242.657 31.7193 242.187 33.5836H242.344L242.657 32.7232C243.739 29.7507 244.977 28.2644 246.372 28.2644C246.933 28.2644 247.409 28.5382 247.8 29.0858C248.204 29.6333 248.406 30.2982 248.406 31.0805C248.406 31.8627 248.302 32.5928 248.093 33.2707C247.898 33.9356 247.611 34.5614 247.233 35.1481C246.855 35.7218 246.359 36.1911 245.746 36.5561C245.134 36.9212 244.456 37.1037 243.713 37.1037C242.578 37.1037 241.692 36.6018 241.053 35.5979L241.19 35.2655C241.816 36.2172 242.637 36.693 243.654 36.693C244.241 36.693 244.762 36.4975 245.218 36.1064C245.688 35.7152 246.046 35.2263 246.294 34.6397C246.789 33.4402 247.037 32.2669 247.037 31.1196C247.037 30.4547 246.939 29.9397 246.744 29.5747C246.561 29.1966 246.32 29.0076 246.02 29.0076C245.407 29.0076 244.716 29.6007 243.947 30.7871C243.191 31.9735 242.507 33.8248 241.894 36.341L240.721 41.1714L239.352 41.2887L242.305 29.164L241.053 29.2618L241.033 28.9293C241.933 28.812 242.774 28.649 243.556 28.4404Z" fill="#6082FA"/>
<path opacity="0.86" d="M242.435 27.7327L245.623 25.7022L248.773 27.7327C248.963 27.7327 249.437 27.5809 249.475 27.467L246.192 24.3549C245.965 24.26 245.263 24.26 245.035 24.3549L241.752 27.467C241.79 27.5809 242.245 27.7137 242.435 27.7327Z" fill="#6082FA"/>
<line x1="204.314" y1="15.0934" x2="364.709" y2="15.0934" stroke="#7390F7" stroke-width="1.26628"/>
</svg>
