<svg width="5" height="12" viewBox="0 0 5 12" fill="none" xmlns="http://www.w3.org/2000/svg">
<path opacity="0.86" d="M4.18359 2.3252C4.08333 2.43001 3.9694 2.5166 3.8418 2.58496C3.71419 2.64876 3.57975 2.68978 3.43848 2.70801C3.2972 2.72168 3.16276 2.69889 3.03516 2.63965C2.91211 2.5804 2.80501 2.49609 2.71387 2.38672C2.5179 2.15885 2.41992 1.92871 2.41992 1.69629C2.41992 1.46387 2.45638 1.29069 2.5293 1.17676C2.60677 1.05827 2.70247 0.962565 2.81641 0.889648C3.03516 0.748372 3.24023 0.677734 3.43164 0.677734C3.6276 0.677734 3.77799 0.691406 3.88281 0.71875C3.99219 0.746094 4.09245 0.791667 4.18359 0.855469C4.4069 1.00586 4.51855 1.19043 4.51855 1.40918C4.51855 1.62337 4.48665 1.80339 4.42285 1.94922C4.36361 2.09049 4.28385 2.21582 4.18359 2.3252ZM2.78223 9.72168C2.90072 9.72168 2.95996 9.79915 2.95996 9.9541C2.95996 10.1592 2.86654 10.3711 2.67969 10.5898C2.40625 10.9089 2.03939 11.0684 1.5791 11.0684C1.05046 11.0684 0.688151 10.8542 0.492188 10.4258C0.419271 10.2754 0.382812 10.0931 0.382812 9.87891C0.382812 9.66471 0.419271 9.42773 0.492188 9.16797C0.569661 8.90365 0.663086 8.62793 0.772461 8.34082C0.886393 8.04915 1.00944 7.75521 1.1416 7.45898L1.50391 6.59766C1.76823 5.95508 1.90039 5.53125 1.90039 5.32617C1.90039 5.12109 1.8776 4.98665 1.83203 4.92285C1.79102 4.85449 1.74544 4.80208 1.69531 4.76562L1.55859 4.66992C1.51302 4.63802 1.49023 4.58333 1.49023 4.50586C1.49023 4.42383 1.51986 4.34635 1.5791 4.27344C1.6429 4.20052 1.72493 4.13672 1.8252 4.08203C2.03027 3.97721 2.26953 3.9248 2.54297 3.9248C3.21289 3.9248 3.54785 4.10026 3.54785 4.45117C3.54785 4.86133 3.44076 5.33073 3.22656 5.85938C3.01237 6.38346 2.83008 6.80729 2.67969 7.13086L2.26953 8.07422C1.96875 8.76693 1.81836 9.26595 1.81836 9.57129C1.81836 9.77181 1.91862 9.87207 2.11914 9.87207C2.3151 9.87207 2.46322 9.84701 2.56348 9.79688C2.66374 9.74674 2.73665 9.72168 2.78223 9.72168Z" fill="#6082FA"/>
</svg>
