<svg width="13" height="16" viewBox="0 0 13 16" fill="none" xmlns="http://www.w3.org/2000/svg">
<path opacity="0.86" d="M6.578 9.227H4.324C3.61867 12.4777 3.266 14.1873 3.266 14.356C3.266 14.5093 3.35033 14.586 3.519 14.586H5.198L5.129 15H0.23L0.299 14.586H1.357C1.55633 14.586 1.679 14.471 1.725 14.241C3.565 5.53167 4.485 1.13867 4.485 1.062C4.485 0.969999 4.40067 0.923999 4.232 0.923999H3.22L3.289 0.509999H8.418C9.46067 0.509999 10.3193 0.801332 10.994 1.384C11.6687 1.96667 12.006 2.77167 12.006 3.799C12.006 5.42433 11.4463 6.73533 10.327 7.732C9.20767 8.72867 7.958 9.227 6.578 9.227ZM8.165 1.039H6.072L4.439 8.698H6.601C7.705 8.698 8.625 8.16133 9.361 7.088C10.1123 6.01467 10.488 4.88767 10.488 3.707C10.488 2.94033 10.2887 2.304 9.89 1.798C9.50667 1.292 8.93167 1.039 8.165 1.039Z" fill="#6082FA"/>
</svg>
