<svg width="96" height="66" viewBox="0 0 96 66" fill="none" xmlns="http://www.w3.org/2000/svg">
<path opacity="0.86" d="M48.5563 7.15223H47.2903C46.5669 10.5952 46.2051 12.3703 46.2051 12.4775C46.2051 12.5847 46.2788 12.6383 46.4262 12.6383H47.7123L47.652 13H43.5525L43.6128 12.6383H44.5372C44.7114 12.6383 44.8186 12.5378 44.8587 12.3369C46.4664 4.72739 47.2702 0.889161 47.2702 0.822176C47.2702 0.741794 47.1965 0.701603 47.0492 0.701603H46.165L46.2252 0.339885H50.7869C51.7113 0.339885 52.4749 0.58103 53.0778 1.06332C53.694 1.53221 54.0022 2.22886 54.0022 3.15324C54.0022 4.06424 53.6672 4.87475 52.9974 5.58479C52.3409 6.29483 51.5237 6.77042 50.5458 7.01157C51.4835 7.37328 51.9524 8.10342 51.9524 9.20197C51.9524 9.59048 51.8854 10.1063 51.7515 10.7493C51.6309 11.3924 51.5706 11.8077 51.5706 11.9952C51.5706 12.3703 51.718 12.5579 52.0127 12.5579C52.3075 12.5579 52.6156 12.3502 52.9371 11.9349C53.2586 11.5062 53.5467 10.9034 53.8012 10.1264L54.1428 10.2067C53.7811 11.2785 53.3792 12.0555 52.9371 12.5378C52.495 13.0067 51.9725 13.2411 51.3697 13.2411C51.0749 13.2411 50.8271 13.134 50.6261 12.9196C50.4252 12.6919 50.3247 12.377 50.3247 11.9751C50.3247 11.5732 50.385 11.0574 50.5056 10.4278C50.6395 9.79813 50.7065 9.23546 50.7065 8.73977C50.7065 7.68141 49.9898 7.15223 48.5563 7.15223ZM50.5859 0.80208H48.6568L47.3908 6.66994H49.4003C50.3381 6.66994 51.1151 6.27473 51.7314 5.48431C52.361 4.69389 52.6759 3.85658 52.6759 2.97239C52.6759 2.34273 52.495 1.82695 52.1333 1.42504C51.785 1.00973 51.2692 0.80208 50.5859 0.80208Z" fill="#6082FA"/>
<path opacity="0.86" d="M33.1274 18.2243H25.25V17.1592H33.1274V18.2243ZM33.1274 21.6405H25.25V20.5755H33.1274V21.6405Z" fill="#6082FA"/>
<path opacity="0.86" d="M52.838 55.0719C52.7154 54.9492 52.6541 54.8003 52.6541 54.6251C52.6541 54.4499 52.7154 54.3054 52.838 54.1915C52.9607 54.0689 53.1052 54.0076 53.2716 54.0076C53.4381 54.0076 53.5826 54.0689 53.7052 54.1915C53.8279 54.3054 53.8892 54.4499 53.8892 54.6251C53.8892 54.8003 53.8279 54.9492 53.7052 55.0719C53.5826 55.1857 53.4381 55.2427 53.2716 55.2427C53.1052 55.2427 52.9607 55.1857 52.838 55.0719ZM53.7446 56.4383L53.7315 61.7729C53.7315 62.8766 53.5651 63.7219 53.2322 64.3088C52.8993 64.8957 52.492 65.1891 52.0103 65.1891C51.5285 65.1891 51.1825 65.0752 50.9722 64.8475C50.762 64.6285 50.6569 64.392 50.6569 64.138C50.6569 63.6124 50.8102 63.3496 51.1168 63.3496C51.3708 63.3496 51.5767 63.4153 51.7343 63.5467C51.6029 63.8095 51.5372 64.0416 51.5372 64.2431C51.5372 64.6723 51.7168 64.8869 52.076 64.8869C52.5577 64.8869 52.7986 64.5146 52.7986 63.7701V56.9376C52.7986 56.815 52.7373 56.7537 52.6147 56.7537H51.9971V56.5172H52.6409C53.1665 56.5172 53.5344 56.4909 53.7446 56.4383ZM61.1568 58.8428H56.0061V58.1465H61.1568V58.8428ZM61.1568 61.0765H56.0061V60.3801H61.1568V61.0765ZM65.3775 62.351C64.5716 62.351 63.9146 62.0094 63.4066 61.3262C62.9073 60.6342 62.6576 59.6838 62.6576 58.4749C62.6576 57.2574 62.9073 56.3069 63.4066 55.6237C63.9146 54.9317 64.5716 54.5857 65.3775 54.5857C66.1833 54.5857 66.8403 54.9317 67.3483 55.6237C67.8564 56.3069 68.1104 57.2574 68.1104 58.4749C68.1104 59.6838 67.8564 60.6342 67.3483 61.3262C66.8403 62.0094 66.1833 62.351 65.3775 62.351ZM64.1555 55.8471C63.8314 56.4953 63.6693 57.3712 63.6693 58.4749C63.6693 59.5786 63.8314 60.4546 64.1555 61.1028C64.4884 61.751 64.8957 62.0751 65.3775 62.0751C65.8592 62.0751 66.2665 61.751 66.5994 61.1028C66.9323 60.4546 67.0987 59.5786 67.0987 58.4749C67.0987 57.3712 66.9323 56.4953 66.5994 55.8471C66.2665 55.1989 65.8592 54.8748 65.3775 54.8748C64.8957 54.8748 64.4884 55.1989 64.1555 55.8471Z" fill="#6082FA"/>
<path opacity="0.86" d="M63.8084 1.91183C64.0227 1.91183 64.1969 1.98551 64.3309 2.13288C64.4782 2.26685 64.5519 2.44101 64.5519 2.65536C64.5519 2.86971 64.4715 3.25822 64.3108 3.82089C64.15 4.37017 64.0361 4.81227 63.9691 5.14719C64.2773 4.97303 64.6993 4.70509 65.2351 4.34337C65.7844 3.96826 66.1662 3.7807 66.3806 3.7807C66.6083 3.7807 66.7892 3.85438 66.9232 4.00175C67.0705 4.14912 67.1442 4.32998 67.1442 4.54433C67.1442 5.04001 66.7088 5.30795 65.838 5.34814C64.9672 5.38834 64.3777 5.42853 64.0696 5.46872C64.3376 5.70986 64.6725 5.9912 65.0744 6.31272C65.4897 6.62085 65.771 6.862 65.9184 7.03616C66.0792 7.21032 66.1595 7.39118 66.1595 7.57874C66.1595 7.76629 66.0859 7.94045 65.9385 8.10122C65.7911 8.24858 65.6036 8.32227 65.3758 8.32227C65.1615 8.32227 64.9873 8.24188 64.8533 8.08112C64.7328 7.92036 64.5653 7.55864 64.3509 6.99597C64.15 6.4333 63.9691 5.9845 63.8084 5.64958C63.6208 6.03809 63.44 6.46009 63.2658 6.91559C63.105 7.37108 62.9845 7.68591 62.9041 7.86007C62.7299 8.1682 62.5156 8.32227 62.261 8.32227C62.0199 8.32227 61.8256 8.24858 61.6783 8.10122C61.5309 7.94045 61.4572 7.76629 61.4572 7.57874C61.4572 7.39118 61.5309 7.21032 61.6783 7.03616C61.839 6.862 62.1204 6.62085 62.5223 6.31272C62.9376 5.9912 63.2792 5.70986 63.5471 5.46872C63.2524 5.42853 62.6629 5.38834 61.7787 5.34814C60.9079 5.30795 60.4725 5.04001 60.4725 4.54433C60.4725 4.32998 60.5395 4.14912 60.6735 4.00175C60.8209 3.85438 60.9816 3.7807 61.1558 3.7807C61.3433 3.7807 61.5376 3.84099 61.7385 3.96156C61.9529 4.06874 62.2476 4.24959 62.6227 4.50414C62.9979 4.75868 63.3395 4.97303 63.6476 5.14719C63.5806 4.81227 63.4667 4.37017 63.306 3.82089C63.1452 3.25822 63.0648 2.86971 63.0648 2.65536C63.0648 2.44101 63.1318 2.26685 63.2658 2.13288C63.4132 1.98551 63.594 1.91183 63.8084 1.91183Z" fill="#6082FA"/>
<path opacity="0.86" d="M55.1144 24.1335L58.1905 31.9398C59.2314 27.0139 59.7518 24.5303 59.7518 24.4891C59.7518 24.4375 59.6951 24.4118 59.5818 24.4118H58.9016L58.948 24.1335H61.2358L61.1894 24.4118H60.4938C60.3598 24.4118 60.2722 24.4839 60.231 24.6282L58.2833 33.8721H57.8195L54.2024 24.7982C52.9966 30.528 52.3938 33.4289 52.3938 33.5011C52.3938 33.5629 52.4505 33.5938 52.5638 33.5938H53.244L53.1976 33.8721H50.8943L50.9407 33.5938H51.6518C51.7858 33.5938 51.8682 33.5165 51.8991 33.362C53.1358 27.5085 53.7541 24.556 53.7541 24.5045C53.7541 24.4427 53.6974 24.4118 53.584 24.4118H52.9039L52.9503 24.1335H55.1144Z" fill="#6082FA"/>
<path opacity="0.86" d="M66.5672 47.0369L65.9171 51.4614H53.2727L59.8151 44.2061L53.3986 36.5943H65.2671L65.6655 39.9074H65.2461C64.9386 38.873 64.5332 38.2089 64.0299 37.9154C63.5406 37.6078 62.9535 37.454 62.2685 37.454H56.1875L61.5346 43.7028L55.8729 49.8468H63.3379C64.0509 49.8468 64.617 49.6581 65.0364 49.2806C65.4558 48.9032 65.8123 48.1553 66.1059 47.0369H66.5672Z" fill="#6082FA"/>
<path opacity="0.86" d="M64.4011 30.4223C64.4011 30.0647 64.3196 29.7824 64.1565 29.5754C63.9997 29.3684 63.777 29.2649 63.4884 29.2649C63.2062 29.2649 62.9898 29.3371 62.8392 29.4813C62.6887 29.6256 62.6134 29.8075 62.6134 30.0271C62.6134 30.2466 62.6542 30.4411 62.7357 30.6104C62.6291 30.7045 62.4848 30.7516 62.3029 30.7516C62.0771 30.7516 61.9642 30.5822 61.9642 30.2435C61.9642 29.8985 62.0865 29.6162 62.3311 29.3966C62.582 29.1708 62.9647 29.0579 63.479 29.0579C63.9997 29.0579 64.4043 29.1802 64.6928 29.4249C64.9876 29.6695 65.1351 29.9612 65.1351 30.2999C65.1351 30.7704 64.9155 31.2565 64.4764 31.7584C64.4325 31.8085 64.329 31.9215 64.1659 32.0971C64.0091 32.2665 63.9181 32.3668 63.893 32.3982L62.4911 33.9131H64.6552C64.8057 33.9131 64.8936 33.8441 64.9186 33.7061L65.041 32.8875H65.2574V33.3391C65.2574 33.8911 65.2887 34.3083 65.3515 34.5905C65.1382 34.5341 64.7775 34.5059 64.2694 34.5059H61.5878L63.7237 32.1536C64.1753 31.6517 64.4011 31.0746 64.4011 30.4223ZM68.9259 29.0579H69.2365V32.9533H70.0268V33.245H69.2365V34.2142C69.2365 34.2894 69.2835 34.3271 69.3776 34.3271H70.0268V34.5059H67.7592V34.3271H68.4084C68.4963 34.3271 68.5402 34.2832 68.5402 34.1954V33.245H65.9432L68.9259 29.0579ZM66.4795 32.9533H68.5402V30.0647L66.4795 32.9533Z" fill="#6082FA"/>
<path opacity="0.86" d="M81.6126 7.95605H79.6432C79.0269 10.7962 78.7188 12.29 78.7188 12.4373C78.7188 12.5713 78.7925 12.6383 78.9399 12.6383H80.4068L80.3465 13H76.0662L76.1265 12.6383H77.0509C77.2251 12.6383 77.3322 12.5378 77.3724 12.3369C78.9801 4.72739 79.7839 0.889161 79.7839 0.822176C79.7839 0.741794 79.7102 0.701603 79.5628 0.701603H78.6786L78.7389 0.339885H83.2202C84.1312 0.339885 84.8814 0.594427 85.4709 1.10351C86.0603 1.6126 86.3551 2.31594 86.3551 3.21353C86.3551 4.63361 85.8661 5.77905 84.8881 6.64985C83.9101 7.52065 82.8183 7.95605 81.6126 7.95605ZM82.9991 0.80208H81.1705L79.7437 7.49385H81.6327C82.5972 7.49385 83.401 7.02496 84.0441 6.08718C84.7006 5.14939 85.0288 4.16471 85.0288 3.13315C85.0288 2.4633 84.8546 1.90733 84.5063 1.46523C84.1714 1.02313 83.669 0.80208 82.9991 0.80208Z" fill="#6082FA"/>
<path opacity="0.86" d="M93.6098 7.04473C93.5222 7.13631 93.4226 7.21196 93.3111 7.27169C93.1996 7.32743 93.0822 7.36327 92.9587 7.3792C92.8353 7.39114 92.7178 7.37123 92.6064 7.31947C92.4988 7.26771 92.4053 7.19404 92.3256 7.09848C92.1544 6.89939 92.0688 6.69831 92.0688 6.49524C92.0688 6.29217 92.1007 6.14087 92.1644 6.04132C92.2321 5.93779 92.3157 5.85418 92.4152 5.79047C92.6064 5.66703 92.7855 5.60532 92.9528 5.60532C93.124 5.60532 93.2554 5.61726 93.347 5.64115C93.4425 5.66504 93.5301 5.70486 93.6098 5.76061C93.8049 5.892 93.9024 6.05327 93.9024 6.24439C93.9024 6.43153 93.8745 6.58881 93.8188 6.71623C93.767 6.83967 93.6974 6.94916 93.6098 7.04473ZM92.3854 13.5071C92.4889 13.5071 92.5407 13.5748 92.5407 13.7102C92.5407 13.8894 92.459 14.0745 92.2958 14.2657C92.0569 14.5444 91.7363 14.6837 91.3342 14.6837C90.8723 14.6837 90.5557 14.4966 90.3845 14.1223C90.3208 13.9909 90.289 13.8317 90.289 13.6445C90.289 13.4574 90.3208 13.2503 90.3845 13.0234C90.4522 12.7924 90.5338 12.5515 90.6294 12.3007C90.729 12.0458 90.8365 11.789 90.9519 11.5302L91.2685 10.7776C91.4994 10.2162 91.6149 9.8459 91.6149 9.66672C91.6149 9.48754 91.595 9.37008 91.5552 9.31433C91.5193 9.25461 91.4795 9.20882 91.4357 9.17696L91.3163 9.09335C91.2764 9.06547 91.2565 9.01769 91.2565 8.95C91.2565 8.87833 91.2824 8.81064 91.3342 8.74693C91.3899 8.68322 91.4616 8.62748 91.5492 8.5797C91.7284 8.48812 91.9374 8.44233 92.1763 8.44233C92.7616 8.44233 93.0543 8.59563 93.0543 8.90222C93.0543 9.26058 92.9607 9.6707 92.7736 10.1326C92.5864 10.5905 92.4272 10.9608 92.2958 11.2435L91.9374 12.0677C91.6746 12.673 91.5432 13.109 91.5432 13.3757C91.5432 13.5509 91.6308 13.6385 91.806 13.6385C91.9772 13.6385 92.1066 13.6166 92.1942 13.5728C92.2818 13.529 92.3456 13.5071 92.3854 13.5071Z" fill="#6082FA"/>
<path opacity="0.86" d="M79.6963 47.6269H77.7269C77.1107 50.4671 76.8026 51.9609 76.8026 52.1082C76.8026 52.2422 76.8762 52.3092 77.0236 52.3092H78.4906L78.4303 52.6709H74.15L74.2102 52.3092H75.1346C75.3088 52.3092 75.416 52.2087 75.4562 52.0077C77.0638 44.3983 77.8676 40.5601 77.8676 40.4931C77.8676 40.4127 77.7939 40.3725 77.6466 40.3725H76.7624L76.8227 40.0108H81.3039C82.2149 40.0108 82.9652 40.2653 83.5546 40.7744C84.1441 41.2835 84.4388 41.9868 84.4388 42.8844C84.4388 44.3045 83.9498 45.4499 82.9718 46.3207C81.9939 47.1915 80.902 47.6269 79.6963 47.6269ZM81.0829 40.473H79.2542L77.8274 47.1648H79.7164C80.681 47.1648 81.4848 46.6959 82.1278 45.7581C82.7843 44.8203 83.1125 43.8356 83.1125 42.804C83.1125 42.1342 82.9384 41.5782 82.59 41.1361C82.2551 40.694 81.7527 40.473 81.0829 40.473Z" fill="#6082FA"/>
<path opacity="0.86" d="M91.6935 46.7156C91.6059 46.8072 91.5064 46.8829 91.3949 46.9426C91.2834 46.9983 91.1659 47.0342 91.0425 47.0501C90.9191 47.062 90.8016 47.0421 90.6901 46.9904C90.5826 46.9386 90.489 46.8649 90.4094 46.7694C90.2382 46.5703 90.1526 46.3692 90.1526 46.1661C90.1526 45.9631 90.1844 45.8118 90.2482 45.7122C90.3158 45.6087 90.3995 45.5251 90.499 45.4614C90.6901 45.3379 90.8693 45.2762 91.0365 45.2762C91.2078 45.2762 91.3392 45.2882 91.4307 45.3121C91.5263 45.3359 91.6139 45.3758 91.6935 45.4315C91.8886 45.5629 91.9862 45.7242 91.9862 45.9153C91.9862 46.1024 91.9583 46.2597 91.9026 46.3871C91.8508 46.5106 91.7811 46.6201 91.6935 46.7156ZM90.4691 53.178C90.5727 53.178 90.6244 53.2457 90.6244 53.3811C90.6244 53.5603 90.5428 53.7454 90.3795 53.9366C90.1406 54.2153 89.8201 54.3546 89.418 54.3546C88.9561 54.3546 88.6395 54.1675 88.4683 53.7932C88.4046 53.6618 88.3727 53.5025 88.3727 53.3154C88.3727 53.1283 88.4046 52.9212 88.4683 52.6943C88.536 52.4633 88.6176 52.2224 88.7132 51.9716C88.8127 51.7167 88.9202 51.4599 89.0357 51.2011L89.3523 50.4485C89.5832 49.8871 89.6987 49.5168 89.6987 49.3376C89.6987 49.1584 89.6788 49.041 89.6389 48.9852C89.6031 48.9255 89.5633 48.8797 89.5195 48.8479L89.4 48.7642C89.3602 48.7364 89.3403 48.6886 89.3403 48.6209C89.3403 48.5492 89.3662 48.4815 89.418 48.4178C89.4737 48.3541 89.5454 48.2984 89.633 48.2506C89.8121 48.159 90.0212 48.1132 90.2601 48.1132C90.8454 48.1132 91.1381 48.2665 91.1381 48.5731C91.1381 48.9315 91.0445 49.3416 90.8574 49.8035C90.6702 50.2614 90.5109 50.6317 90.3795 50.9144L90.0212 51.7386C89.7584 52.3439 89.627 52.7799 89.627 53.0466C89.627 53.2218 89.7146 53.3094 89.8898 53.3094C90.061 53.3094 90.1904 53.2875 90.278 53.2437C90.3656 53.1999 90.4293 53.178 90.4691 53.178Z" fill="#6082FA"/>
<path opacity="0.86" d="M5.20474 17.5018H3.93873C3.2153 20.9449 2.85358 22.72 2.85358 22.8271C2.85358 22.9343 2.92726 22.9879 3.07463 22.9879H4.36074L4.30045 23.3496H0.200985L0.261271 22.9879H1.18566C1.35982 22.9879 1.467 22.8874 1.50719 22.6865C3.11482 15.077 3.91864 11.2388 3.91864 11.1718C3.91864 11.0914 3.84495 11.0512 3.69759 11.0512H2.81339L2.87368 10.6895H7.43534C8.35972 10.6895 9.12335 10.9306 9.72621 11.4129C10.3425 11.8818 10.6506 12.5785 10.6506 13.5029C10.6506 14.4138 10.3157 15.2244 9.64583 15.9344C8.98938 16.6444 8.17217 17.12 7.19419 17.3612C8.13198 17.7229 8.60087 18.453 8.60087 19.5516C8.60087 19.9401 8.53389 20.4559 8.39992 21.0989C8.27934 21.742 8.21906 22.1573 8.21906 22.3448C8.21906 22.72 8.36642 22.9075 8.66116 22.9075C8.95589 22.9075 9.26402 22.6999 9.58555 22.2846C9.90707 21.8558 10.1951 21.253 10.4496 20.476L10.7913 20.5563C10.4296 21.6281 10.0276 22.4051 9.58555 22.8874C9.14345 23.3563 8.62097 23.5908 8.0181 23.5908C7.72337 23.5908 7.47553 23.4836 7.27457 23.2692C7.07362 23.0415 6.97314 22.7267 6.97314 22.3247C6.97314 21.9228 7.03343 21.4071 7.154 20.7774C7.28797 20.1477 7.35495 19.5851 7.35495 19.0894C7.35495 18.031 6.63822 17.5018 5.20474 17.5018ZM7.23438 11.1517H5.30522L4.03921 17.0196H6.04875C6.98654 17.0196 7.76356 16.6243 8.37982 15.8339C9.00948 15.0435 9.32431 14.2062 9.32431 13.322C9.32431 12.6923 9.14345 12.1766 8.78173 11.7746C8.43341 11.3593 7.91763 11.1517 7.23438 11.1517Z" fill="#6082FA"/>
<path opacity="0.86" d="M18.8284 17.3943C18.7408 17.4859 18.6412 17.5616 18.5297 17.6213C18.4182 17.677 18.3008 17.7129 18.1773 17.7288C18.0539 17.7407 17.9364 17.7208 17.825 17.6691C17.7174 17.6173 17.6239 17.5437 17.5442 17.4481C17.373 17.249 17.2874 17.0479 17.2874 16.8449C17.2874 16.6418 17.3193 16.4905 17.383 16.3909C17.4507 16.2874 17.5343 16.2038 17.6338 16.1401C17.825 16.0166 18.0041 15.9549 18.1714 15.9549C18.3426 15.9549 18.474 15.9669 18.5656 15.9908C18.6611 16.0147 18.7487 16.0545 18.8284 16.1102C19.0235 16.2416 19.121 16.4029 19.121 16.594C19.121 16.7811 19.0931 16.9384 19.0374 17.0658C18.9856 17.1893 18.916 17.2988 18.8284 17.3943ZM17.604 23.8567C17.7075 23.8567 17.7593 23.9244 17.7593 24.0598C17.7593 24.239 17.6776 24.4241 17.5144 24.6153C17.2755 24.894 16.9549 25.0334 16.5528 25.0334C16.0909 25.0334 15.7743 24.8462 15.6031 24.4719C15.5394 24.3405 15.5076 24.1813 15.5076 23.9941C15.5076 23.807 15.5394 23.5999 15.6031 23.373C15.6708 23.142 15.7524 22.9011 15.848 22.6503C15.9475 22.3954 16.0551 22.1386 16.1705 21.8798L16.4871 21.1272C16.718 20.5658 16.8335 20.1955 16.8335 20.0163C16.8335 19.8372 16.8136 19.7197 16.7738 19.6639C16.7379 19.6042 16.6981 19.5584 16.6543 19.5266L16.5349 19.443C16.495 19.4151 16.4751 19.3673 16.4751 19.2996C16.4751 19.2279 16.501 19.1603 16.5528 19.0965C16.6085 19.0328 16.6802 18.9771 16.7678 18.9293C16.947 18.8377 17.156 18.7919 17.3949 18.7919C17.9802 18.7919 18.2729 18.9452 18.2729 19.2518C18.2729 19.6102 18.1793 20.0203 17.9922 20.4822C17.805 20.9401 17.6458 21.3104 17.5144 21.5931L17.156 22.4173C16.8932 23.0226 16.7618 23.4586 16.7618 23.7253C16.7618 23.9005 16.8494 23.9881 17.0246 23.9881C17.1958 23.9881 17.3252 23.9662 17.4128 23.9224C17.5004 23.8786 17.5641 23.8567 17.604 23.8567Z" fill="#6082FA"/>
<line x1="41.184" y1="20.2178" x2="95.3735" y2="20.2178" stroke="#6082FA" stroke-width="1.31057"/>
</svg>
