<svg width="43" height="23" viewBox="0 0 43 23" fill="none" xmlns="http://www.w3.org/2000/svg">
<path opacity="0.86" d="M3.82235 5.32588H8.95235C9.95824 5.32588 10.6758 5.26553 11.1049 5.14482C10.9306 5.54718 10.6959 6.41223 10.4008 7.74L10.1996 8.68553H9.75706L9.97835 6.25129C9.97835 6.00988 9.82412 5.88918 9.51565 5.88918H6.94059C5.31777 13.5473 4.50635 17.4233 4.50635 17.5172C4.50635 17.5976 4.58012 17.6379 4.72765 17.6379H6.45776L6.39741 18H1.00588L1.06624 17.6379H2.83659C3.01094 17.6379 3.11824 17.5373 3.15847 17.3361L5.57259 5.88918H3.01765C2.69576 5.88918 2.48788 6.0367 2.394 6.33176L1.60941 8.68553H1.16682L1.368 7.74C1.62282 6.57318 1.75024 5.70812 1.75024 5.14482C2.13918 5.26553 2.82988 5.32588 3.82235 5.32588ZM14.739 9.06776C15.4498 9.06776 15.9796 9.24212 16.3283 9.59082C16.6904 9.92612 16.8715 10.4156 16.8715 11.0594C16.8715 11.6898 16.6234 12.2396 16.1271 12.7091C15.2822 13.5138 14.0282 13.9161 12.3651 13.9161C11.8689 13.9161 11.4397 13.8759 11.0776 13.7954V13.4132C11.547 13.4802 11.9359 13.5138 12.2444 13.5138C13.3576 13.5138 14.2159 13.2321 14.8195 12.6688C15.4364 12.1055 15.7449 11.4886 15.7449 10.818C15.7449 10.4559 15.6443 10.1541 15.4431 9.91271C15.2554 9.67129 14.9335 9.55059 14.4775 9.55059C14.0349 9.55059 13.5789 9.75847 13.1095 10.1742C12.6535 10.59 12.2914 11.1064 12.0231 11.7233C11.4867 13.0242 11.2184 14.1508 11.2184 15.1031C11.2184 16.8734 11.7549 17.7586 12.8278 17.7586C14.1556 17.7586 15.1279 17.0344 15.7449 15.5859L16.0668 15.6664C15.7449 16.4845 15.2755 17.1215 14.6585 17.5775C14.055 18.0201 13.371 18.2414 12.6065 18.2414C11.8421 18.2414 11.1983 17.9598 10.6752 17.3965C10.1522 16.8332 9.89065 16.0754 9.89065 15.1232C9.89065 14.1709 10.0717 13.2522 10.4338 12.3671C10.7959 11.4685 11.3592 10.6973 12.1237 10.0535C12.8882 9.39635 13.7599 9.06776 14.739 9.06776ZM24.7065 18L23.2782 18.1207L24.0024 15.3646C24.0829 15.0561 24.2036 14.6001 24.3645 13.9966C24.5389 13.3931 24.6663 12.9304 24.7467 12.6085C24.9747 11.7233 25.0887 11.1265 25.0887 10.818C25.0887 10.5095 25.0083 10.2547 24.8473 10.0535C24.6998 9.83894 24.4718 9.73165 24.1633 9.73165C23.4927 9.73165 22.7618 10.4089 21.9705 11.7635C21.1792 13.1181 20.455 15.1969 19.7978 18L18.3896 18.1207L20.3611 9.99318L19.0736 10.0938L19.0535 9.75176C19.9789 9.63106 20.8439 9.46341 21.6486 9.24882L21.9303 9.45C21.2865 10.9253 20.7232 12.6219 20.2404 14.5398H20.4013L20.7232 13.6546C21.3536 11.9379 22.0242 10.7442 22.735 10.0736C23.4458 9.40306 24.1097 9.06776 24.7266 9.06776C25.6655 9.06776 26.1349 9.59753 26.1349 10.6571C26.1349 11.274 25.9404 12.1458 25.5515 13.2724L25.129 14.5398H25.31L25.6319 13.6546C26.3562 11.6294 27.1407 10.3151 27.9857 9.71153C28.388 9.44329 28.7166 9.26894 28.9715 9.18847C29.2397 9.108 29.5549 9.06776 29.917 9.06776C30.2791 9.06776 30.5809 9.22871 30.8223 9.55059C31.0637 9.87247 31.1844 10.3218 31.1844 10.8985C31.1844 11.4752 30.8558 12.5347 30.1986 14.0771C29.5549 15.6194 29.233 16.6052 29.233 17.0344C29.233 17.4635 29.4006 17.6781 29.7359 17.6781C29.9907 17.6781 30.2657 17.5105 30.5607 17.1752C30.8558 16.8265 31.1106 16.3369 31.3252 15.7066L31.6471 15.7871C31.0704 17.4233 30.3193 18.2414 29.3939 18.2414C28.5624 18.2414 28.1466 17.7854 28.1466 16.8734C28.1466 16.4845 28.4484 15.5188 29.0519 13.9765C29.6689 12.4341 29.9773 11.3813 29.9773 10.818C29.9773 10.0938 29.7426 9.73165 29.2732 9.73165C28.6026 9.73165 27.8784 10.2748 27.1005 11.3612C26.2019 12.6621 25.4039 14.8751 24.7065 18ZM36.8843 9.24882L37.1659 9.45C36.5222 10.9253 35.9589 12.6219 35.4761 14.5398H35.637L35.9589 13.6546C37.0721 10.5967 38.3462 9.06776 39.7812 9.06776C40.3579 9.06776 40.8475 9.34941 41.2498 9.91271C41.6656 10.476 41.8735 11.16 41.8735 11.9647C41.8735 12.7694 41.7662 13.5205 41.5516 14.2179C41.3504 14.9019 41.0554 15.5456 40.6664 16.1492C40.2775 16.7393 39.7678 17.2221 39.1375 17.5976C38.5071 17.9732 37.8097 18.1609 37.0452 18.1609C35.8784 18.1609 34.9664 17.6446 34.3092 16.6119L34.4501 16.2699C35.0938 17.2489 35.9388 17.7385 36.9849 17.7385C37.5884 17.7385 38.1249 17.5373 38.5943 17.1349C39.0771 16.7326 39.4459 16.2296 39.7008 15.6261C40.2104 14.3922 40.4652 13.1852 40.4652 12.0049C40.4652 11.3209 40.3646 10.7912 40.1635 10.4156C39.9757 10.0267 39.7276 9.83223 39.4191 9.83223C38.7888 9.83223 38.0779 10.4425 37.2866 11.6629C36.5088 12.8834 35.8046 14.7879 35.1743 17.3764L33.9672 22.3454L32.559 22.4661L35.5968 9.99318L34.3092 10.0938L34.2891 9.75176C35.2145 9.63106 36.0796 9.46341 36.8843 9.24882Z" fill="#6082FA"/>
</svg>
