<svg width="437" height="23" viewBox="0 0 437 23" fill="none" xmlns="http://www.w3.org/2000/svg">
<path opacity="0.86" d="M32.5872 11.87H24.7011V10.8038H32.5872V11.87ZM32.5872 15.29H24.7011V14.2238H32.5872V15.29Z" fill="#6082FA"/>
<path opacity="0.86" d="M47.6246 4.78859H45.3111L42.8366 16.5373H45.1702C46.0286 16.5373 46.8199 16.2691 47.5441 15.7326C48.2684 15.1961 48.8518 14.5188 49.2944 13.7007C50.2064 11.9974 50.6624 10.3008 50.6624 8.61094C50.6624 7.40388 50.3807 6.46506 49.8174 5.79447C49.2675 5.12388 48.5366 4.78859 47.6246 4.78859ZM42.8768 4.32588H47.7453C49.0865 4.32588 50.146 4.72153 50.9239 5.51282C51.7018 6.29071 52.0907 7.38376 52.0907 8.792C52.0907 9.74423 51.9231 10.7032 51.5878 11.6688C51.2659 12.6211 50.8166 13.4995 50.2399 14.3042C49.6632 15.0955 48.9188 15.746 48.0068 16.2556C47.1082 16.7519 46.1292 17 45.0696 17H40.2012L40.2615 16.6379H41.1869C41.3613 16.6379 41.4686 16.5373 41.5088 16.3361C43.1182 8.71824 43.9229 4.87576 43.9229 4.80871C43.9229 4.72823 43.8492 4.688 43.7016 4.688H42.8165L42.8768 4.32588ZM58.3539 8.06776C59.0647 8.06776 59.5945 8.24212 59.9432 8.59082C60.3053 8.92612 60.4864 9.41565 60.4864 10.0594C60.4864 10.6898 60.2382 11.2396 59.742 11.7091C58.8971 12.5138 57.6431 12.9161 55.98 12.9161C55.4838 12.9161 55.0546 12.8759 54.6925 12.7954V12.4132C55.1619 12.4802 55.5508 12.5138 55.8593 12.5138C56.9725 12.5138 57.8308 12.2321 58.4344 11.6688C59.0513 11.1055 59.3598 10.4886 59.3598 9.818C59.3598 9.45588 59.2592 9.15412 59.058 8.91271C58.8702 8.67129 58.5484 8.55059 58.0924 8.55059C57.6498 8.55059 57.1938 8.75847 56.7244 9.17423C56.2684 9.59 55.9062 10.1064 55.638 10.7233C55.1015 12.0242 54.8333 13.1508 54.8333 14.1031C54.8333 15.8734 55.3698 16.7586 56.4427 16.7586C57.7705 16.7586 58.7428 16.0344 59.3598 14.5859L59.6817 14.6664C59.3598 15.4845 58.8904 16.1215 58.2734 16.5775C57.6699 17.0201 56.9859 17.2414 56.2214 17.2414C55.457 17.2414 54.8132 16.9598 54.2901 16.3965C53.7671 15.8332 53.5055 15.0754 53.5055 14.1232C53.5055 13.1709 53.6866 12.2522 54.0487 11.3671C54.4108 10.4685 54.9741 9.69729 55.7386 9.05353C56.5031 8.39635 57.3748 8.06776 58.3539 8.06776ZM66.6516 8.55059C66.1018 8.55059 65.5921 8.75847 65.1227 9.17423C64.6667 9.59 64.3046 10.1064 64.0363 10.7233C63.4999 12.0242 63.2316 13.1508 63.2316 14.1031C63.2316 15.8734 63.7681 16.7586 64.8411 16.7586C66.1688 16.7586 67.1412 16.0344 67.7581 14.5859L68.08 14.6664C67.7581 15.4845 67.2887 16.1215 66.6718 16.5775C66.0682 17.0201 65.3842 17.2414 64.6198 17.2414C63.8553 17.2414 63.2115 16.9598 62.6885 16.3965C62.1654 15.8332 61.9039 15.0754 61.9039 14.1232C61.9039 13.1709 62.0849 12.2522 62.4471 11.3671C62.8092 10.4685 63.3725 9.69729 64.1369 9.05353C64.9014 8.39635 65.7732 8.06776 66.7522 8.06776C67.4228 8.06776 67.9258 8.24212 68.2611 8.59082C68.6098 8.92612 68.7841 9.33518 68.7841 9.818C68.7841 10.2874 68.6969 10.7099 68.5226 11.0854C68.3616 11.4609 68.1001 11.6487 67.738 11.6487C67.3893 11.6487 67.1278 11.5414 66.9534 11.3268C67.3423 10.7367 67.5368 10.16 67.5368 9.59671C67.5368 8.89929 67.2418 8.55059 66.6516 8.55059Z" fill="#6082FA"/>
<path opacity="0.86" d="M73.7553 10.7384C74.2739 10.5059 74.8238 10.3896 75.4049 10.3896C76.2901 10.3896 76.9875 10.6579 77.4972 11.1944C78.0158 11.7219 78.2751 12.4685 78.2751 13.4341C78.2751 14.0868 78.1678 14.7485 77.9532 15.4191C77.7386 16.0807 77.4391 16.6932 77.0546 17.2565C76.6701 17.8198 76.1694 18.2802 75.5525 18.6379C74.9355 18.9866 74.2247 19.1609 73.42 19.1609C72.6153 19.1609 71.9536 18.8927 71.4351 18.3562C70.9254 17.8198 70.6706 17.0419 70.6706 16.0226C70.6706 15.0033 70.9478 13.9751 71.5021 12.9379C72.0654 11.9007 72.8165 11.1675 73.7553 10.7384ZM76.7864 11.4224C76.4287 10.9664 75.9548 10.7384 75.3647 10.7384C74.7746 10.7384 74.2292 10.9306 73.7285 11.3151C73.2278 11.6906 72.8299 12.1689 72.5348 12.7501C71.9179 13.9482 71.6094 15.1106 71.6094 16.2372C71.6094 17.0508 71.7838 17.6856 72.1325 18.1416C72.4901 18.5887 72.964 18.8122 73.5541 18.8122C74.1532 18.8122 74.7031 18.6245 75.2038 18.2489C75.7045 17.8645 76.1068 17.3861 76.4108 16.8139C77.0278 15.6247 77.3362 14.4624 77.3362 13.3268C77.3362 12.5132 77.1529 11.8784 76.7864 11.4224ZM81.453 13.1659L81.6408 13.3C81.2116 14.2835 80.8361 15.4146 80.5142 16.6932H80.6215L80.8361 16.1031C81.2563 14.9586 81.6721 14.1628 82.0834 13.7158C82.4947 13.2687 82.8523 13.0452 83.1563 13.0452C83.4603 13.0452 83.6838 13.1435 83.8269 13.3402C83.9789 13.5369 84.0549 13.7918 84.0549 14.1047C84.0549 14.4176 83.9968 14.6904 83.8805 14.9228C83.7643 15.1553 83.5944 15.2715 83.3709 15.2715C83.1563 15.2715 82.9775 15.2 82.8344 15.0569C82.9238 14.9407 83.0088 14.7708 83.0893 14.5473C83.1697 14.3238 83.21 14.1271 83.21 13.9572C83.21 13.6979 83.1027 13.5682 82.8881 13.5682C82.6645 13.5682 82.3874 13.7873 82.0565 14.2254C81.3323 15.1732 80.7198 16.7647 80.2191 19L79.2803 19.0805L80.5947 13.6621L79.7363 13.7292L79.7229 13.5012C80.3398 13.4207 80.9165 13.3089 81.453 13.1659ZM88.5893 18.3428C88.5893 18.6379 88.7011 18.7854 88.9246 18.7854C89.0945 18.7854 89.2778 18.6736 89.4745 18.4501C89.6712 18.2176 89.8411 17.8913 89.9842 17.4711L90.1987 17.5247C89.8143 18.6155 89.3136 19.1609 88.6966 19.1609C88.1423 19.1609 87.8651 18.8122 87.8651 18.1148C87.8651 17.4085 88.4507 14.9318 89.622 10.6847L88.7637 10.7518L88.7503 10.5238C89.3672 10.4433 89.9439 10.3315 90.4804 10.1885L90.6682 10.3226C90.2926 11.4224 89.85 12.9155 89.3404 14.8021C88.8397 16.6798 88.5893 17.86 88.5893 18.3428ZM87.9992 17.5113H87.8651C87.3107 18.6111 86.667 19.1609 85.9338 19.1609C85.5136 19.1609 85.1604 18.9776 84.8743 18.6111C84.5971 18.2355 84.4585 17.7795 84.4585 17.2431C84.4585 16.6976 84.53 16.1925 84.6731 15.7275C84.8162 15.2626 85.0173 14.8289 85.2766 14.4266C85.5359 14.0153 85.8802 13.6845 86.3093 13.4341C86.7385 13.1748 87.1766 13.0452 87.6237 13.0452C88.482 13.0452 89.09 13.4207 89.4477 14.1718L89.2599 14.4132C88.8397 13.7158 88.3166 13.3671 87.6907 13.3671C87.3063 13.3671 86.9531 13.5056 86.6312 13.7828C86.3183 14.06 86.0724 14.4087 85.8936 14.8289C85.527 15.6873 85.3437 16.4965 85.3437 17.2565C85.3437 17.7572 85.4242 18.1327 85.5851 18.3831C85.755 18.6334 85.9785 18.7586 86.2557 18.7586C86.6402 18.7586 87.0336 18.4367 87.4359 17.7929C87.8383 17.1402 88.1959 16.2104 88.5089 15.0033L87.9992 17.5113ZM94.6649 13.0452C95.1387 13.0452 95.4919 13.1614 95.7244 13.3939C95.9658 13.6174 96.0865 13.9438 96.0865 14.3729C96.0865 14.7932 95.9211 15.1598 95.5903 15.4727C95.027 16.0092 94.191 16.2774 93.0823 16.2774C92.7515 16.2774 92.4653 16.2506 92.2239 16.1969V15.9421C92.5369 15.9868 92.7962 16.0092 93.0018 16.0092C93.7439 16.0092 94.3162 15.8214 94.7185 15.4459C95.1298 15.0704 95.3355 14.6591 95.3355 14.212C95.3355 13.9706 95.2684 13.7694 95.1343 13.6085C95.0091 13.4475 94.7945 13.3671 94.4905 13.3671C94.1955 13.3671 93.8915 13.5056 93.5785 13.7828C93.2745 14.06 93.0331 14.4042 92.8543 14.8155C92.4966 15.6828 92.3178 16.4339 92.3178 17.0687C92.3178 18.2489 92.6755 18.8391 93.3907 18.8391C94.2759 18.8391 94.9242 18.3562 95.3355 17.3906L95.55 17.4442C95.3355 17.9896 95.0225 18.4144 94.6112 18.7184C94.2089 19.0134 93.7529 19.1609 93.2432 19.1609C92.7336 19.1609 92.3044 18.9732 91.9557 18.5976C91.607 18.2221 91.4326 17.7169 91.4326 17.0821C91.4326 16.4473 91.5533 15.8348 91.7947 15.2447C92.0362 14.6456 92.4117 14.1315 92.9213 13.7024C93.431 13.2642 94.0122 13.0452 94.6649 13.0452ZM99.2713 13.1659L99.459 13.3C99.0299 14.2835 98.6543 15.4146 98.3325 16.6932H98.4398L98.6543 16.1031C99.0746 14.9586 99.4903 14.1628 99.9016 13.7158C100.313 13.2687 100.671 13.0452 100.975 13.0452C101.279 13.0452 101.502 13.1435 101.645 13.3402C101.797 13.5369 101.873 13.7918 101.873 14.1047C101.873 14.4176 101.815 14.6904 101.699 14.9228C101.583 15.1553 101.413 15.2715 101.189 15.2715C100.975 15.2715 100.796 15.2 100.653 15.0569C100.742 14.9407 100.827 14.7708 100.908 14.5473C100.988 14.3238 101.028 14.1271 101.028 13.9572C101.028 13.6979 100.921 13.5682 100.706 13.5682C100.483 13.5682 100.206 13.7873 99.8748 14.2254C99.1506 15.1732 98.5381 16.7647 98.0374 19L97.0986 19.0805L98.4129 13.6621L97.5546 13.7292L97.5412 13.5012C98.1581 13.4207 98.7348 13.3089 99.2713 13.1659ZM102.518 18.9598C102.384 18.8167 102.317 18.6468 102.317 18.4501C102.317 18.2534 102.384 18.088 102.518 17.9539C102.661 17.8108 102.831 17.7393 103.028 17.7393C103.225 17.7393 103.39 17.8108 103.524 17.9539C103.667 18.088 103.739 18.2534 103.739 18.4501C103.739 18.6468 103.667 18.8167 103.524 18.9598C103.39 19.0939 103.225 19.1609 103.028 19.1609C102.831 19.1609 102.661 19.0939 102.518 18.9598ZM107.365 13.1659L107.553 13.3C107.124 14.2835 106.748 15.4146 106.426 16.6932H106.533L106.748 16.1031C107.168 14.9586 107.584 14.1628 107.995 13.7158C108.407 13.2687 108.764 13.0452 109.068 13.0452C109.372 13.0452 109.596 13.1435 109.739 13.3402C109.891 13.5369 109.967 13.7918 109.967 14.1047C109.967 14.4176 109.909 14.6904 109.792 14.9228C109.676 15.1553 109.506 15.2715 109.283 15.2715C109.068 15.2715 108.889 15.2 108.746 15.0569C108.836 14.9407 108.921 14.7708 109.001 14.5473C109.082 14.3238 109.122 14.1271 109.122 13.9572C109.122 13.6979 109.015 13.5682 108.8 13.5682C108.576 13.5682 108.299 13.7873 107.968 14.2254C107.244 15.1732 106.632 16.7647 106.131 19L105.192 19.0805L106.507 13.6621L105.648 13.7292L105.635 13.5012C106.252 13.4207 106.828 13.3089 107.365 13.1659ZM113.603 13.0452C114.077 13.0452 114.43 13.1614 114.662 13.3939C114.904 13.6174 115.024 13.9438 115.024 14.3729C115.024 14.7932 114.859 15.1598 114.528 15.4727C113.965 16.0092 113.129 16.2774 112.02 16.2774C111.689 16.2774 111.403 16.2506 111.162 16.1969V15.9421C111.475 15.9868 111.734 16.0092 111.94 16.0092C112.682 16.0092 113.254 15.8214 113.656 15.4459C114.068 15.0704 114.273 14.6591 114.273 14.212C114.273 13.9706 114.206 13.7694 114.072 13.6085C113.947 13.4475 113.732 13.3671 113.428 13.3671C113.133 13.3671 112.829 13.5056 112.516 13.7828C112.212 14.06 111.971 14.4042 111.792 14.8155C111.434 15.6828 111.256 16.4339 111.256 17.0687C111.256 18.2489 111.613 18.8391 112.329 18.8391C113.214 18.8391 113.862 18.3562 114.273 17.3906L114.488 17.4442C114.273 17.9896 113.96 18.4144 113.549 18.7184C113.147 19.0134 112.691 19.1609 112.181 19.1609C111.671 19.1609 111.242 18.9732 110.894 18.5976C110.545 18.2221 110.37 17.7169 110.37 17.0821C110.37 16.4473 110.491 15.8348 110.733 15.2447C110.974 14.6456 111.35 14.1315 111.859 13.7024C112.369 13.2642 112.95 13.0452 113.603 13.0452ZM118.531 13.3671C118.191 13.3671 117.901 13.4654 117.659 13.6621C117.418 13.8588 117.297 14.1092 117.297 14.4132C117.297 14.7172 117.422 14.9944 117.673 15.2447C117.923 15.4951 118.196 15.7052 118.491 15.8751C118.786 16.036 119.059 16.2506 119.309 16.5188C119.559 16.7871 119.684 17.0732 119.684 17.3772C119.684 17.9494 119.461 18.392 119.014 18.7049C118.576 19.0089 118.044 19.1609 117.418 19.1609C116.792 19.1609 116.242 19.0134 115.768 18.7184C115.92 18.4144 116.063 17.8868 116.197 17.1358L116.425 17.176C116.363 17.5426 116.331 17.8332 116.331 18.0478C116.331 18.2534 116.43 18.4456 116.627 18.6245C116.832 18.7944 117.123 18.8793 117.498 18.8793C117.883 18.8793 118.205 18.7631 118.464 18.5306C118.732 18.2981 118.866 17.9941 118.866 17.6186C118.866 17.3772 118.746 17.1447 118.504 16.9212C118.272 16.6887 118.012 16.4965 117.726 16.3445C117.449 16.1925 117.19 15.9779 116.948 15.7007C116.716 15.4235 116.6 15.1195 116.6 14.7887C116.6 14.2969 116.792 13.8856 117.176 13.5548C117.57 13.2151 118.084 13.0452 118.719 13.0452C119.211 13.0452 119.698 13.1659 120.181 13.4073C120.136 13.5056 120.06 13.7292 119.953 14.0779C119.854 14.4266 119.778 14.7574 119.725 15.0704L119.497 15.0301C119.55 14.744 119.577 14.4713 119.577 14.212C119.577 13.9438 119.488 13.7381 119.309 13.5951C119.139 13.4431 118.88 13.3671 118.531 13.3671ZM124.954 18.1551C124.954 18.0209 124.976 17.8064 125.021 17.5113H124.954C124.382 18.6111 123.72 19.1609 122.969 19.1609C122.164 19.1609 121.762 18.7139 121.762 17.8198C121.762 17.2386 121.968 16.1612 122.379 14.5875L122.62 13.6621L121.762 13.7292L121.749 13.5012C122.365 13.4207 122.942 13.3089 123.479 13.1659L123.666 13.3C122.915 15.6336 122.54 17.1268 122.54 17.7795C122.54 18.4322 122.786 18.7586 123.277 18.7586C123.689 18.7586 124.091 18.4591 124.485 17.86C124.887 17.252 125.218 16.4384 125.477 15.4191L125.933 13.6621L125.075 13.7292L125.061 13.5012C125.678 13.4207 126.255 13.3089 126.791 13.1659L126.979 13.3C126.666 14.2299 126.371 15.2268 126.094 16.2908C125.817 17.3548 125.678 18.0388 125.678 18.3428C125.678 18.6379 125.79 18.7854 126.013 18.7854C126.183 18.7854 126.367 18.6736 126.563 18.4501C126.76 18.2176 126.93 17.8913 127.073 17.4711L127.288 17.5247C126.903 18.6155 126.402 19.1609 125.785 19.1609C125.231 19.1609 124.954 18.8256 124.954 18.1551ZM129.509 18.3428C129.509 18.6379 129.62 18.7854 129.844 18.7854C130.014 18.7854 130.197 18.6736 130.394 18.4501C130.591 18.2176 130.76 17.8913 130.903 17.4711L131.118 17.5247C130.734 18.6155 130.233 19.1609 129.616 19.1609C129.062 19.1609 128.784 18.8122 128.784 18.1148C128.784 17.4085 129.37 14.9318 130.541 10.6847L129.683 10.7518L129.67 10.5238C130.287 10.4433 130.863 10.3315 131.4 10.1885L131.587 10.3226C131.212 11.4224 130.769 12.9155 130.26 14.8021C129.759 16.6798 129.509 17.86 129.509 18.3428ZM132.709 13.6889L132.776 13.4341H135.753L135.686 13.6889H132.709ZM134.841 11.7845L135.029 11.9186C134.824 12.5445 134.546 13.528 134.198 14.8692C133.858 16.2104 133.652 17.0776 133.581 17.4711C133.509 17.8555 133.473 18.1461 133.473 18.3428C133.473 18.6379 133.585 18.7854 133.809 18.7854C133.979 18.7854 134.162 18.6736 134.359 18.4501C134.555 18.2176 134.725 17.8913 134.868 17.4711L135.083 17.5247C134.698 18.6155 134.198 19.1609 133.581 19.1609C133.026 19.1609 132.749 18.8256 132.749 18.1551C132.749 17.6007 133.08 16.0539 133.742 13.5146L132.776 13.4341C133.268 13.4341 133.666 13.3179 133.97 13.0854C134.274 12.844 134.564 12.4104 134.841 11.7845ZM139.621 15.6336H138.307C137.895 17.5292 137.69 18.5261 137.69 18.6245C137.69 18.7139 137.739 18.7586 137.837 18.7586H138.816L138.776 19H135.919L135.96 18.7586H136.577C136.693 18.7586 136.764 18.6915 136.791 18.5574C137.864 13.4788 138.401 10.9172 138.401 10.8725C138.401 10.8188 138.351 10.792 138.253 10.792H137.663L137.703 10.5506H140.694C141.302 10.5506 141.803 10.7205 142.196 11.0602C142.589 11.4 142.786 11.8694 142.786 12.4685C142.786 13.4162 142.46 14.1807 141.807 14.7619C141.154 15.3431 140.426 15.6336 139.621 15.6336ZM140.546 10.8591H139.326L138.374 15.3252H139.634C140.278 15.3252 140.815 15.0122 141.244 14.3864C141.682 13.7605 141.901 13.1033 141.901 12.4148C141.901 11.9678 141.785 11.5967 141.552 11.3016C141.329 11.0066 140.993 10.8591 140.546 10.8591ZM146.826 18.1551C146.826 18.0209 146.848 17.8064 146.893 17.5113H146.826C146.253 18.6111 145.592 19.1609 144.841 19.1609C144.036 19.1609 143.634 18.7139 143.634 17.8198C143.634 17.2386 143.839 16.1612 144.251 14.5875L144.492 13.6621L143.634 13.7292L143.62 13.5012C144.237 13.4207 144.814 13.3089 145.35 13.1659L145.538 13.3C144.787 15.6336 144.412 17.1268 144.412 17.7795C144.412 18.4322 144.657 18.7586 145.149 18.7586C145.56 18.7586 145.963 18.4591 146.356 17.86C146.759 17.252 147.089 16.4384 147.349 15.4191L147.805 13.6621L146.946 13.7292L146.933 13.5012C147.55 13.4207 148.127 13.3089 148.663 13.1659L148.851 13.3C148.538 14.2299 148.243 15.2268 147.966 16.2908C147.688 17.3548 147.55 18.0388 147.55 18.3428C147.55 18.6379 147.662 18.7854 147.885 18.7854C148.055 18.7854 148.238 18.6736 148.435 18.4501C148.632 18.2176 148.802 17.8913 148.945 17.4711L149.159 17.5247C148.775 18.6155 148.274 19.1609 147.657 19.1609C147.103 19.1609 146.826 18.8256 146.826 18.1551ZM151.581 16.6932H151.689L151.903 16.1031C152.654 14.0645 153.477 13.0452 154.371 13.0452C154.791 13.0452 155.14 13.2329 155.417 13.6085C155.703 13.9751 155.846 14.4311 155.846 14.9765C155.846 15.5129 155.775 16.0136 155.632 16.4786C155.489 16.9435 155.288 17.3816 155.028 17.7929C154.769 18.1953 154.425 18.5261 153.996 18.7854C153.566 19.0358 153.128 19.1609 152.681 19.1609C152.234 19.1609 151.85 19.076 151.528 18.9061C151.206 18.7273 150.956 18.4948 150.777 18.2087L150.897 17.8466C151.327 18.5261 151.877 18.8659 152.547 18.8659C153.057 18.8659 153.499 18.6334 153.875 18.1685C154.25 17.6946 154.514 17.176 154.666 16.6127C154.827 16.0405 154.908 15.5174 154.908 15.0435C154.908 14.5607 154.827 14.1941 154.666 13.9438C154.514 13.6845 154.335 13.5548 154.13 13.5548C153.924 13.5548 153.718 13.6442 153.513 13.8231C153.307 13.9929 153.084 14.2612 152.842 14.6278C152.324 15.4325 151.836 16.7513 151.38 18.5842L150.978 18.1551L150.576 19.1609L150.348 19.0805L152.453 10.6847L151.595 10.7518L151.581 10.5238C152.198 10.4433 152.775 10.3315 153.312 10.1885L153.499 10.3226C152.775 12.4327 152.136 14.5562 151.581 16.6932ZM157.909 18.3428C157.909 18.6379 158.021 18.7854 158.244 18.7854C158.414 18.7854 158.598 18.6736 158.794 18.4501C158.991 18.2176 159.161 17.8913 159.304 17.4711L159.518 17.5247C159.134 18.6155 158.633 19.1609 158.016 19.1609C157.462 19.1609 157.185 18.8122 157.185 18.1148C157.185 17.4085 157.77 14.9318 158.942 10.6847L158.083 10.7518L158.07 10.5238C158.687 10.4433 159.264 10.3315 159.8 10.1885L159.988 10.3226C159.612 11.4224 159.17 12.9155 158.66 14.8021C158.159 16.6798 157.909 17.86 157.909 18.3428ZM162.665 11.704C162.549 11.5878 162.491 11.4447 162.491 11.2748C162.491 11.1049 162.549 10.9619 162.665 10.8456C162.781 10.7294 162.925 10.6713 163.094 10.6713C163.264 10.6713 163.407 10.7294 163.524 10.8456C163.64 10.9619 163.698 11.1049 163.698 11.2748C163.698 11.4447 163.64 11.5878 163.524 11.704C163.407 11.8202 163.264 11.8784 163.094 11.8784C162.925 11.8784 162.781 11.8202 162.665 11.704ZM161.15 18.1551C161.15 17.6812 161.476 16.1835 162.129 13.6621L161.27 13.7292L161.257 13.5012C161.874 13.4207 162.451 13.3089 162.987 13.1659L163.175 13.3C162.862 14.2299 162.567 15.2268 162.29 16.2908C162.013 17.3548 161.874 18.0388 161.874 18.3428C161.874 18.6379 161.986 18.7854 162.209 18.7854C162.379 18.7854 162.562 18.6736 162.759 18.4501C162.956 18.2176 163.126 17.8913 163.269 17.4711L163.483 17.5247C163.099 18.6155 162.598 19.1609 161.981 19.1609C161.427 19.1609 161.15 18.8256 161.15 18.1551ZM167.887 13.3671C167.521 13.3671 167.181 13.5056 166.868 13.7828C166.564 14.06 166.323 14.4042 166.144 14.8155C165.786 15.6828 165.607 16.4339 165.607 17.0687C165.607 18.2489 165.965 18.8391 166.68 18.8391C167.565 18.8391 168.214 18.3562 168.625 17.3906L168.84 17.4442C168.625 17.9896 168.312 18.4144 167.901 18.7184C167.498 19.0134 167.042 19.1609 166.533 19.1609C166.023 19.1609 165.594 18.9732 165.245 18.5976C164.897 18.2221 164.722 17.7169 164.722 17.0821C164.722 16.4473 164.843 15.8348 165.084 15.2447C165.326 14.6456 165.701 14.1315 166.211 13.7024C166.721 13.2642 167.302 13.0452 167.954 13.0452C168.401 13.0452 168.737 13.1614 168.96 13.3939C169.193 13.6174 169.309 13.8901 169.309 14.212C169.309 14.5249 169.251 14.8066 169.135 15.0569C169.027 15.3073 168.853 15.4325 168.612 15.4325C168.379 15.4325 168.205 15.3609 168.089 15.2179C168.348 14.8245 168.477 14.44 168.477 14.0645C168.477 13.5995 168.281 13.3671 167.887 13.3671ZM173.298 10.9798L171.689 18.6245C171.689 18.7139 171.738 18.7586 171.837 18.7586H172.427L172.386 19H169.919L169.959 18.7586H170.576C170.692 18.7586 170.764 18.6915 170.79 18.5574C171.863 13.4788 172.4 10.9172 172.4 10.8725C172.4 10.8188 172.351 10.792 172.252 10.792H171.662L171.702 10.5506H174.17L174.13 10.792H173.526C173.41 10.792 173.334 10.8546 173.298 10.9798ZM175.216 16.6529L175.243 17.8868C175.261 18.4412 175.409 18.7184 175.686 18.7184C175.865 18.7184 176.012 18.6245 176.128 18.4367C176.254 18.2489 176.316 18.0075 176.316 17.7125L176.571 17.6722C176.571 18.1282 176.45 18.4904 176.209 18.7586C175.976 19.0268 175.681 19.1609 175.324 19.1609C174.689 19.1609 174.354 18.6826 174.318 17.7259L174.264 16.4115C174.237 15.8304 174.117 15.428 173.902 15.2045C173.687 14.972 173.334 14.8558 172.842 14.8558L172.91 14.6412L176.732 10.792H176.102L176.142 10.5506H177.872L177.832 10.792H177.483C177.34 10.792 177.21 10.8546 177.094 10.9798L173.459 14.6144C174.103 14.6233 174.55 14.8111 174.801 15.1776C175.06 15.5442 175.198 16.036 175.216 16.6529ZM181.444 13.0452C181.918 13.0452 182.271 13.1614 182.504 13.3939C182.745 13.6174 182.866 13.9438 182.866 14.3729C182.866 14.7932 182.7 15.1598 182.37 15.4727C181.806 16.0092 180.97 16.2774 179.862 16.2774C179.531 16.2774 179.245 16.2506 179.003 16.1969V15.9421C179.316 15.9868 179.576 16.0092 179.781 16.0092C180.523 16.0092 181.096 15.8214 181.498 15.4459C181.909 15.0704 182.115 14.6591 182.115 14.212C182.115 13.9706 182.048 13.7694 181.914 13.6085C181.788 13.4475 181.574 13.3671 181.27 13.3671C180.975 13.3671 180.671 13.5056 180.358 13.7828C180.054 14.06 179.812 14.4042 179.634 14.8155C179.276 15.6828 179.097 16.4339 179.097 17.0687C179.097 18.2489 179.455 18.8391 180.17 18.8391C181.055 18.8391 181.704 18.3562 182.115 17.3906L182.329 17.4442C182.115 17.9896 181.802 18.4144 181.391 18.7184C180.988 19.0134 180.532 19.1609 180.023 19.1609C179.513 19.1609 179.084 18.9732 178.735 18.5976C178.386 18.2221 178.212 17.7169 178.212 17.0821C178.212 16.4473 178.333 15.8348 178.574 15.2447C178.816 14.6456 179.191 14.1315 179.701 13.7024C180.21 13.2642 180.792 13.0452 181.444 13.0452ZM185.957 18.7184C186.529 18.7184 187.097 18.3026 187.66 17.4711C188.232 16.6306 188.518 15.8482 188.518 15.124C188.518 14.3908 188.286 13.7918 187.821 13.3268C188.045 13.1391 188.25 13.0452 188.438 13.0452C188.787 13.0452 188.961 13.5369 188.961 14.5205C188.961 15.504 188.854 16.4071 188.639 17.2296C188.425 18.0433 188.143 18.7362 187.794 19.3085C187.454 19.8807 187.065 20.3769 186.627 20.7972C185.778 21.6376 184.915 22.0579 184.039 22.0579C183.592 22.0579 183.257 21.9551 183.033 21.7494C182.801 21.5438 182.684 21.3024 182.684 21.0252C182.684 20.748 182.742 20.4976 182.859 20.2741C182.966 20.0506 183.131 19.9388 183.355 19.9388C183.578 19.9388 183.762 20.0014 183.905 20.1266C183.645 20.4574 183.516 20.7614 183.516 21.0386C183.516 21.4856 183.753 21.7092 184.227 21.7092C184.54 21.7092 184.902 21.5929 185.313 21.3605C185.724 21.1369 186.14 20.8151 186.56 20.3948C186.981 19.9835 187.365 19.4292 187.714 18.7318C188.071 18.0344 188.322 17.2788 188.465 16.4652C188.17 17.2431 187.772 17.8868 187.271 18.3965C186.779 18.9061 186.212 19.1609 185.568 19.1609C185.237 19.1609 184.969 19.0492 184.763 18.8256C184.566 18.5932 184.468 18.2802 184.468 17.8868C184.468 17.4934 184.616 16.8049 184.911 15.8214C185.215 14.8379 185.367 14.1941 185.367 13.8901C185.367 13.5772 185.25 13.4207 185.018 13.4207C184.848 13.4207 184.669 13.5369 184.481 13.7694C184.294 13.9929 184.142 14.3148 184.025 14.7351L183.797 14.6814C184.128 13.5906 184.607 13.0452 185.233 13.0452C185.814 13.0452 186.104 13.3581 186.104 13.984C186.104 14.2344 185.966 14.8558 185.689 15.8482C185.411 16.8407 185.273 17.4934 185.273 17.8064C185.273 18.4144 185.501 18.7184 185.957 18.7184ZM194.71 18.7586L194.348 16.1701H191.384L189.936 18.7586H190.767L190.727 19H188.796L188.849 18.7586H189.319C189.444 18.7586 189.538 18.696 189.6 18.5708L194.107 10.5506H194.536L195.636 18.5708C195.654 18.696 195.721 18.7586 195.837 18.7586H196.306L196.266 19H193.839L193.879 18.7586H194.71ZM193.772 11.9186L191.585 15.7946H194.295L193.772 11.9186ZM198.503 18.3428C198.503 18.6379 198.614 18.7854 198.838 18.7854C199.008 18.7854 199.191 18.6736 199.388 18.4501C199.585 18.2176 199.754 17.8913 199.898 17.4711L200.112 17.5247C199.728 18.6155 199.227 19.1609 198.61 19.1609C198.056 19.1609 197.778 18.8122 197.778 18.1148C197.778 17.4085 198.364 14.9318 199.535 10.6847L198.677 10.7518L198.664 10.5238C199.281 10.4433 199.857 10.3315 200.394 10.1885L200.582 10.3226C200.206 11.4224 199.763 12.9155 199.254 14.8021C198.753 16.6798 198.503 17.86 198.503 18.3428ZM202.293 18.2221L204.426 18.7049C204.891 18.8122 205.221 18.9553 205.418 19.1341C205.615 19.3219 205.713 19.5767 205.713 19.8986C205.713 20.4172 205.427 20.9045 204.855 21.3605C204.292 21.8254 203.648 22.0579 202.924 22.0579C202.199 22.0579 201.609 21.8925 201.153 21.5616C200.706 21.2308 200.483 20.8374 200.483 20.3814C200.483 20.0685 200.59 19.7689 200.805 19.4828C201.01 19.1967 201.319 18.9553 201.73 18.7586L201.998 18.8391C201.73 18.9732 201.524 19.1744 201.381 19.4426C201.238 19.7198 201.167 20.0104 201.167 20.3144C201.167 20.8151 201.332 21.1861 201.663 21.4275C201.994 21.6779 202.418 21.8031 202.937 21.8031C203.465 21.8031 203.947 21.6511 204.385 21.3471C204.833 21.052 205.056 20.6944 205.056 20.2741C205.056 19.8539 204.783 19.5812 204.238 19.456L201.931 18.9464C201.672 18.8927 201.471 18.772 201.328 18.5842C201.185 18.3965 201.113 18.1685 201.113 17.9002C201.113 17.632 201.225 17.3861 201.448 17.1626C201.672 16.9391 201.98 16.8273 202.374 16.8273H203.728L203.688 17.0151H202.374C202.186 17.0151 202.034 17.0732 201.918 17.1894C201.81 17.3056 201.757 17.4442 201.757 17.6052C201.757 17.936 201.936 18.1416 202.293 18.2221ZM204.546 13.2329L204.533 13.0452C204.783 13.0452 204.993 12.9871 205.163 12.8708C205.333 12.7456 205.418 12.5847 205.418 12.388C205.418 12.1913 205.275 12.0035 204.989 11.8247C205.132 11.5207 205.302 11.3687 205.499 11.3687C205.704 11.3687 205.856 11.4268 205.955 11.5431C206.062 11.6593 206.116 11.8068 206.116 11.9856C206.116 12.2986 205.973 12.5847 205.686 12.844C205.409 13.1033 205.029 13.2329 204.546 13.2329ZM202.092 15.5532C202.092 14.8915 202.325 14.3104 202.789 13.8096C203.263 13.3 203.845 13.0452 204.533 13.0452C205.016 13.0452 205.396 13.1748 205.673 13.4341C205.959 13.6845 206.102 14.0421 206.102 14.5071C206.102 15.2581 205.861 15.8661 205.378 16.3311C204.895 16.7871 204.332 17.0151 203.688 17.0151C203.196 17.0151 202.807 16.8899 202.521 16.6395C202.235 16.3802 202.092 16.0181 202.092 15.5532ZM204.52 13.3C204.028 13.3 203.625 13.5727 203.313 14.1181C203 14.6546 202.843 15.1329 202.843 15.5532C202.843 15.9734 202.919 16.2819 203.071 16.4786C203.232 16.6664 203.442 16.7602 203.701 16.7602C204.095 16.7602 204.47 16.5367 204.828 16.0896C205.186 15.6426 205.365 15.0793 205.365 14.3998C205.365 14.06 205.284 13.7918 205.123 13.5951C204.971 13.3984 204.77 13.3 204.52 13.3ZM207.32 17.0553C207.32 16.1344 207.588 15.2536 208.124 14.4132C208.384 14.0108 208.723 13.6845 209.144 13.4341C209.564 13.1748 210.042 13.0452 210.579 13.0452C211.124 13.0452 211.567 13.2285 211.907 13.5951C212.246 13.9616 212.416 14.4624 212.416 15.0972C212.416 15.732 212.3 16.3489 212.067 16.948C211.835 17.5471 211.468 18.0656 210.968 18.5038C210.467 18.9419 209.904 19.1609 209.278 19.1609C208.652 19.1609 208.169 18.9776 207.829 18.6111C207.49 18.2445 207.32 17.7259 207.32 17.0553ZM210.471 13.3402C209.989 13.3402 209.559 13.5816 209.184 14.0645C208.817 14.5473 208.554 15.0748 208.393 15.6471C208.241 16.2193 208.165 16.7558 208.165 17.2565C208.165 17.7482 208.263 18.1416 208.46 18.4367C208.665 18.7228 208.943 18.8659 209.291 18.8659C209.649 18.8659 209.98 18.7228 210.284 18.4367C210.597 18.1506 210.843 17.7974 211.021 17.3772C211.388 16.5188 211.571 15.7767 211.571 15.1508C211.571 14.516 211.473 14.0555 211.276 13.7694C211.079 13.4833 210.811 13.3402 210.471 13.3402Z" fill="#6082FA"/>
<path opacity="0.86" d="M219.739 4.52706C218.345 5.55976 217.258 7.00823 216.48 8.87247C215.702 10.7233 215.314 12.6412 215.314 14.6261C215.314 16.5976 215.77 18.0461 216.682 18.9715L216.4 19.2733C215.555 18.7502 214.911 18.0126 214.469 17.0604C214.039 16.1081 213.825 15.0486 213.825 13.8818C213.825 11.9639 214.348 10.0929 215.394 8.26894C216.454 6.43153 217.855 5.08365 219.599 4.22529L219.739 4.52706ZM226.528 4.78859H224.214L221.74 16.5373H224.074C224.932 16.5373 225.723 16.2691 226.447 15.7326C227.172 15.1961 227.755 14.5188 228.198 13.7007C229.11 11.9974 229.566 10.3008 229.566 8.61094C229.566 7.40388 229.284 6.46506 228.721 5.79447C228.171 5.12388 227.44 4.78859 226.528 4.78859ZM221.78 4.32588H226.649C227.99 4.32588 229.049 4.72153 229.827 5.51282C230.605 6.29071 230.994 7.38376 230.994 8.792C230.994 9.74423 230.826 10.7032 230.491 11.6688C230.169 12.6211 229.72 13.4995 229.143 14.3042C228.566 15.0955 227.822 15.746 226.91 16.2556C226.012 16.7519 225.032 17 223.973 17H219.104L219.165 16.6379H220.09C220.265 16.6379 220.372 16.5373 220.412 16.3361C222.022 8.71824 222.826 4.87576 222.826 4.80871C222.826 4.72823 222.752 4.688 222.605 4.688H221.72L221.78 4.32588Z" fill="#6082FA"/>
<path opacity="0.86" d="M233.376 13.9385H236.272C236.759 13.9385 237.106 13.9096 237.311 13.8519C237.215 14.0764 237.099 14.4901 236.965 15.093L236.868 15.5453H236.657L236.782 14.3233C236.782 14.2143 236.711 14.1598 236.57 14.1598H234.54L233.972 16.8345H235.916C235.98 16.8281 236.025 16.7832 236.051 16.6998L236.243 16.1033H236.407L236.031 17.8352H235.868L235.954 17.2386C235.954 17.1488 235.919 17.1039 235.849 17.1039H233.924L233.357 19.7787H235.483C235.637 19.7787 235.736 19.7081 235.781 19.567L236.185 18.3932H236.397L236.301 18.8454C236.179 19.4163 236.118 19.83 236.118 20.0866C235.932 20.0289 235.602 20 235.127 20H232.096L232.125 19.8268H232.568C232.651 19.8268 232.702 19.7787 232.722 19.6825C233.491 16.0392 233.876 14.2015 233.876 14.1694C233.876 14.1309 233.841 14.1117 233.77 14.1117H233.347L233.376 13.9385Z" fill="#6082FA"/>
<path opacity="0.86" d="M7.62459 4.78859H5.31106L2.83659 16.5373H5.17024C6.02859 16.5373 6.81988 16.2691 7.54412 15.7326C8.26835 15.1961 8.85177 14.5188 9.29435 13.7007C10.2064 11.9974 10.6624 10.3008 10.6624 8.61094C10.6624 7.40388 10.3807 6.46506 9.81741 5.79447C9.26753 5.12388 8.53659 4.78859 7.62459 4.78859ZM2.87682 4.32588H7.74529C9.08647 4.32588 10.146 4.72153 10.9239 5.51282C11.7018 6.29071 12.0907 7.38376 12.0907 8.792C12.0907 9.74423 11.9231 10.7032 11.5878 11.6688C11.2659 12.6211 10.8166 13.4995 10.2399 14.3042C9.66318 15.0955 8.91882 15.746 8.00682 16.2556C7.10824 16.7519 6.12918 17 5.06965 17H0.201176L0.261529 16.6379H1.18694C1.36129 16.6379 1.46859 16.5373 1.50882 16.3361C3.11824 8.71824 3.92294 4.87576 3.92294 4.80871C3.92294 4.72823 3.84918 4.688 3.70165 4.688H2.81647L2.87682 4.32588Z" fill="#6082FA"/>
<path opacity="0.86" d="M16.3223 19.6574C15.7013 19.6574 15.1546 19.5 14.6823 19.1851C14.5248 19.0889 14.4155 19.0408 14.3542 19.0408C14.1968 19.0408 14.0962 19.1939 14.0525 19.5H13.8032L14.2624 17.3089H14.4986C14.4898 17.3789 14.4854 17.4839 14.4854 17.6238C14.4854 18.1924 14.6473 18.6122 14.9709 18.8834C15.3033 19.1458 15.7537 19.277 16.3223 19.277C16.8996 19.277 17.3806 19.0758 17.7655 18.6734C18.1591 18.2623 18.3559 17.7944 18.3559 17.2696C18.3559 16.736 18.0848 16.338 17.5425 16.0756L16.4928 15.5377C15.6706 15.1353 15.2595 14.5099 15.2595 13.6615C15.2595 12.9968 15.5176 12.402 16.0336 11.8772C16.5497 11.3436 17.197 11.0768 17.9754 11.0768C18.4915 11.0768 18.9594 11.2212 19.3793 11.5098C19.5192 11.606 19.6154 11.6541 19.6679 11.6541C19.7554 11.6541 19.8297 11.5623 19.891 11.3786L19.9566 11.1555H20.1927L19.7073 13.4253H19.4842C19.5017 13.2504 19.5105 13.1236 19.5105 13.0449C19.5105 12.5026 19.3705 12.1046 19.0906 11.8509C18.8195 11.5885 18.4259 11.4573 17.9098 11.4573C17.3938 11.4573 16.952 11.6497 16.5847 12.0346C16.2261 12.4195 16.0468 12.8524 16.0468 13.3335C16.0468 13.9283 16.3135 14.3656 16.8471 14.6455L18.1985 15.3409C18.9245 15.717 19.2874 16.2506 19.2874 16.9416C19.2874 17.6238 18.9901 18.2492 18.3953 18.8177C17.8005 19.3775 17.1095 19.6574 16.3223 19.6574Z" fill="#6082FA"/>
<path opacity="0.86" d="M240.101 19.2331C240.972 18.5625 241.408 17.8584 241.408 17.1207C241.408 16.7184 241.267 16.3898 240.986 16.1349C241.053 15.8265 241.207 15.5582 241.448 15.3302C241.703 15.1022 241.972 14.9882 242.253 14.9882C242.803 14.9882 243.078 15.2632 243.078 15.8131C243.078 16.3629 242.803 17.0134 242.253 17.7645C241.717 18.5289 241.053 19.1124 240.262 19.5147L240.101 19.2331ZM249.689 4.60753C250.467 4.25882 251.292 4.08447 252.164 4.08447C253.492 4.08447 254.538 4.48682 255.302 5.29153C256.08 6.08282 256.469 7.20271 256.469 8.65118C256.469 9.63024 256.308 10.6227 255.986 11.6286C255.664 12.6211 255.215 13.5398 254.638 14.3847C254.062 15.2296 253.311 15.9204 252.385 16.4568C251.46 16.9799 250.394 17.2414 249.187 17.2414C247.979 17.2414 246.987 16.8391 246.209 16.0344C245.445 15.2296 245.062 14.0628 245.062 12.5339C245.062 11.0049 245.478 9.46259 246.31 7.90682C247.155 6.35106 248.281 5.25129 249.689 4.60753ZM254.236 5.63353C253.7 4.94953 252.989 4.60753 252.104 4.60753C251.218 4.60753 250.4 4.89588 249.649 5.47259C248.898 6.03588 248.301 6.75341 247.859 7.62518C246.933 9.42235 246.471 11.1659 246.471 12.8558C246.471 14.0762 246.732 15.0285 247.255 15.7125C247.792 16.3831 248.503 16.7184 249.388 16.7184C250.286 16.7184 251.111 16.4367 251.862 15.8734C252.613 15.2967 253.217 14.5792 253.673 13.7208C254.598 11.9371 255.061 10.1935 255.061 8.49024C255.061 7.26976 254.786 6.31753 254.236 5.63353ZM261.236 8.24882L261.518 8.45C260.874 9.92529 260.311 11.6219 259.828 13.5398H259.989L260.311 12.6546C260.941 10.9379 261.565 9.74423 262.182 9.07365C262.799 8.40306 263.335 8.06776 263.791 8.06776C264.247 8.06776 264.582 8.21529 264.797 8.51035C265.025 8.80541 265.139 9.18765 265.139 9.65706C265.139 10.1265 265.052 10.5355 264.877 10.8842C264.703 11.2329 264.448 11.4073 264.113 11.4073C263.791 11.4073 263.523 11.3 263.308 11.0854C263.442 10.9111 263.57 10.6562 263.69 10.3209C263.811 9.98565 263.871 9.69059 263.871 9.43576C263.871 9.04682 263.711 8.85235 263.389 8.85235C263.053 8.85235 262.638 9.18094 262.141 9.83812C261.055 11.2598 260.136 13.6471 259.385 17L257.977 17.1207L259.949 8.99318L258.661 9.09376L258.641 8.75176C259.566 8.63106 260.431 8.46341 261.236 8.24882ZM271.941 16.0142C271.941 16.4568 272.108 16.6781 272.443 16.6781C272.698 16.6781 272.973 16.5105 273.268 16.1752C273.563 15.8265 273.818 15.3369 274.033 14.7066L274.355 14.7871C273.778 16.4233 273.027 17.2414 272.101 17.2414C271.27 17.2414 270.854 16.7184 270.854 15.6722C270.854 14.6127 271.733 10.8976 273.49 4.52706L272.202 4.62765L272.182 4.28565C273.107 4.16494 273.972 3.99729 274.777 3.78271L275.059 3.98388C274.495 5.63353 273.832 7.87329 273.067 10.7032C272.316 13.5196 271.941 15.29 271.941 16.0142ZM271.055 14.7669H270.854C270.023 16.4166 269.057 17.2414 267.957 17.2414C267.327 17.2414 266.797 16.9665 266.368 16.4166C265.952 15.8533 265.744 15.1693 265.744 14.3646C265.744 13.5465 265.852 12.7887 266.066 12.0913C266.281 11.3939 266.583 10.7434 266.971 10.1399C267.36 9.52294 267.877 9.02671 268.521 8.65118C269.164 8.26223 269.821 8.06776 270.492 8.06776C271.78 8.06776 272.692 8.63106 273.228 9.75765L272.946 10.1198C272.316 9.07365 271.531 8.55059 270.593 8.55059C270.016 8.55059 269.486 8.75847 269.003 9.17423C268.534 9.59 268.165 10.1131 267.897 10.7434C267.347 12.0309 267.072 13.2447 267.072 14.3847C267.072 15.1358 267.193 15.6991 267.434 16.0746C267.689 16.4501 268.024 16.6379 268.44 16.6379C269.017 16.6379 269.607 16.1551 270.21 15.1894C270.814 14.2104 271.35 12.8155 271.82 11.0049L271.055 14.7669ZM281.054 8.06776C281.765 8.06776 282.294 8.24212 282.643 8.59082C283.005 8.92612 283.186 9.41565 283.186 10.0594C283.186 10.6898 282.938 11.2396 282.442 11.7091C281.597 12.5138 280.343 12.9161 278.68 12.9161C278.184 12.9161 277.755 12.8759 277.392 12.7954V12.4132C277.862 12.4802 278.251 12.5138 278.559 12.5138C279.672 12.5138 280.531 12.2321 281.134 11.6688C281.751 11.1055 282.06 10.4886 282.06 9.818C282.06 9.45588 281.959 9.15412 281.758 8.91271C281.57 8.67129 281.248 8.55059 280.792 8.55059C280.35 8.55059 279.894 8.75847 279.424 9.17423C278.968 9.59 278.606 10.1064 278.338 10.7233C277.801 12.0242 277.533 13.1508 277.533 14.1031C277.533 15.8734 278.07 16.7586 279.143 16.7586C280.47 16.7586 281.443 16.0344 282.06 14.5859L282.382 14.6664C282.06 15.4845 281.59 16.1215 280.973 16.5775C280.37 17.0201 279.686 17.2414 278.921 17.2414C278.157 17.2414 277.513 16.9598 276.99 16.3965C276.467 15.8332 276.205 15.0754 276.205 14.1232C276.205 13.1709 276.387 12.2522 276.749 11.3671C277.111 10.4685 277.674 9.69729 278.439 9.05353C279.203 8.39635 280.075 8.06776 281.054 8.06776ZM287.963 8.24882L288.245 8.45C287.601 9.92529 287.038 11.6219 286.555 13.5398H286.716L287.038 12.6546C287.668 10.9379 288.292 9.74423 288.909 9.07365C289.526 8.40306 290.062 8.06776 290.518 8.06776C290.974 8.06776 291.31 8.21529 291.524 8.51035C291.752 8.80541 291.866 9.18765 291.866 9.65706C291.866 10.1265 291.779 10.5355 291.605 10.8842C291.43 11.2329 291.176 11.4073 290.84 11.4073C290.518 11.4073 290.25 11.3 290.036 11.0854C290.17 10.9111 290.297 10.6562 290.418 10.3209C290.539 9.98565 290.599 9.69059 290.599 9.43576C290.599 9.04682 290.438 8.85235 290.116 8.85235C289.781 8.85235 289.365 9.18094 288.869 9.83812C287.782 11.2598 286.864 13.6471 286.113 17L284.704 17.1207L286.676 8.99318L285.388 9.09376L285.368 8.75176C286.294 8.63106 287.159 8.46341 287.963 8.24882ZM292.834 16.9396C292.633 16.7251 292.532 16.4702 292.532 16.1752C292.532 15.8801 292.633 15.632 292.834 15.4308C293.048 15.2162 293.303 15.1089 293.598 15.1089C293.893 15.1089 294.141 15.2162 294.343 15.4308C294.557 15.632 294.665 15.8801 294.665 16.1752C294.665 16.4702 294.557 16.7251 294.343 16.9396C294.141 17.1408 293.893 17.2414 293.598 17.2414C293.303 17.2414 293.048 17.1408 292.834 16.9396ZM300.104 8.24882L300.386 8.45C299.742 9.92529 299.179 11.6219 298.696 13.5398H298.857L299.179 12.6546C299.809 10.9379 300.433 9.74423 301.05 9.07365C301.666 8.40306 302.203 8.06776 302.659 8.06776C303.115 8.06776 303.45 8.21529 303.665 8.51035C303.893 8.80541 304.007 9.18765 304.007 9.65706C304.007 10.1265 303.92 10.5355 303.745 10.8842C303.571 11.2329 303.316 11.4073 302.981 11.4073C302.659 11.4073 302.391 11.3 302.176 11.0854C302.31 10.9111 302.438 10.6562 302.558 10.3209C302.679 9.98565 302.739 9.69059 302.739 9.43576C302.739 9.04682 302.578 8.85235 302.257 8.85235C301.921 8.85235 301.506 9.18094 301.009 9.83812C299.923 11.2598 299.004 13.6471 298.253 17L296.845 17.1207L298.816 8.99318L297.529 9.09376L297.509 8.75176C298.434 8.63106 299.299 8.46341 300.104 8.24882ZM309.461 8.06776C310.171 8.06776 310.701 8.24212 311.05 8.59082C311.412 8.92612 311.593 9.41565 311.593 10.0594C311.593 10.6898 311.345 11.2396 310.849 11.7091C310.004 12.5138 308.75 12.9161 307.087 12.9161C306.59 12.9161 306.161 12.8759 305.799 12.7954V12.4132C306.269 12.4802 306.658 12.5138 306.966 12.5138C308.079 12.5138 308.938 12.2321 309.541 11.6688C310.158 11.1055 310.466 10.4886 310.466 9.818C310.466 9.45588 310.366 9.15412 310.165 8.91271C309.977 8.67129 309.655 8.55059 309.199 8.55059C308.756 8.55059 308.3 8.75847 307.831 9.17423C307.375 9.59 307.013 10.1064 306.745 10.7233C306.208 12.0242 305.94 13.1508 305.94 14.1031C305.94 15.8734 306.476 16.7586 307.549 16.7586C308.877 16.7586 309.85 16.0344 310.466 14.5859L310.788 14.6664C310.466 15.4845 309.997 16.1215 309.38 16.5775C308.777 17.0201 308.093 17.2414 307.328 17.2414C306.564 17.2414 305.92 16.9598 305.397 16.3965C304.874 15.8332 304.612 15.0754 304.612 14.1232C304.612 13.1709 304.793 12.2522 305.155 11.3671C305.518 10.4685 306.081 9.69729 306.845 9.05353C307.61 8.39635 308.482 8.06776 309.461 8.06776ZM316.853 8.55059C316.343 8.55059 315.907 8.69812 315.545 8.99318C315.183 9.28823 315.002 9.66376 315.002 10.1198C315.002 10.5758 315.19 10.9915 315.565 11.3671C315.941 11.7426 316.35 12.0578 316.793 12.3126C317.235 12.554 317.644 12.8759 318.02 13.2782C318.395 13.6806 318.583 14.1098 318.583 14.5658C318.583 15.4241 318.248 16.088 317.577 16.5574C316.92 17.0134 316.122 17.2414 315.183 17.2414C314.244 17.2414 313.42 17.0201 312.709 16.5775C312.937 16.1215 313.151 15.3302 313.353 14.2036L313.695 14.264C313.601 14.8139 313.554 15.2498 313.554 15.5716C313.554 15.8801 313.701 16.1685 313.996 16.4367C314.305 16.6915 314.741 16.8189 315.304 16.8189C315.881 16.8189 316.363 16.6446 316.752 16.2959C317.155 15.9472 317.356 15.4912 317.356 14.9279C317.356 14.5658 317.175 14.2171 316.813 13.8818C316.464 13.5331 316.075 13.2447 315.646 13.0167C315.23 12.7887 314.841 12.4668 314.479 12.0511C314.13 11.6353 313.956 11.1793 313.956 10.6831C313.956 9.94541 314.244 9.32847 314.821 8.83223C315.411 8.32259 316.182 8.06776 317.135 8.06776C317.872 8.06776 318.603 8.24882 319.327 8.61094C319.26 8.75847 319.146 9.09376 318.985 9.61682C318.838 10.1399 318.724 10.6361 318.643 11.1055L318.301 11.0452C318.382 10.616 318.422 10.2069 318.422 9.818C318.422 9.41565 318.288 9.10718 318.02 8.89259C317.765 8.66459 317.376 8.55059 316.853 8.55059ZM326.487 15.7326C326.487 15.5314 326.521 15.2095 326.588 14.7669H326.487C325.629 16.4166 324.637 17.2414 323.51 17.2414C322.303 17.2414 321.699 16.5708 321.699 15.2296C321.699 14.3579 322.008 12.7418 322.625 10.3813L322.987 8.99318L321.699 9.09376L321.679 8.75176C322.605 8.63106 323.47 8.46341 324.275 8.24882L324.556 8.45C323.43 11.9505 322.866 14.1902 322.866 15.1693C322.866 16.1484 323.235 16.6379 323.973 16.6379C324.59 16.6379 325.193 16.1886 325.783 15.29C326.387 14.378 326.883 13.1575 327.272 11.6286L327.956 8.99318L326.669 9.09376L326.648 8.75176C327.574 8.63106 328.439 8.46341 329.244 8.24882L329.525 8.45C329.056 9.84482 328.613 11.3402 328.197 12.9362C327.782 14.5322 327.574 15.5582 327.574 16.0142C327.574 16.4568 327.741 16.6781 328.077 16.6781C328.332 16.6781 328.607 16.5105 328.902 16.1752C329.197 15.8265 329.451 15.3369 329.666 14.7066L329.988 14.7871C329.411 16.4233 328.66 17.2414 327.735 17.2414C326.903 17.2414 326.487 16.7385 326.487 15.7326ZM333.319 16.0142C333.319 16.4568 333.487 16.6781 333.822 16.6781C334.077 16.6781 334.352 16.5105 334.647 16.1752C334.942 15.8265 335.197 15.3369 335.412 14.7066L335.734 14.7871C335.157 16.4233 334.406 17.2414 333.48 17.2414C332.649 17.2414 332.233 16.7184 332.233 15.6722C332.233 14.6127 333.112 10.8976 334.869 4.52706L333.581 4.62765L333.561 4.28565C334.486 4.16494 335.351 3.99729 336.156 3.78271L336.438 3.98388C335.874 5.63353 335.211 7.87329 334.446 10.7032C333.695 13.5196 333.319 15.29 333.319 16.0142ZM338.12 9.03341L338.221 8.65118H342.687L342.586 9.03341H338.12ZM341.319 6.1767L341.6 6.37788C341.292 7.31671 340.876 8.792 340.353 10.8038C339.843 12.8155 339.535 14.1165 339.428 14.7066C339.32 15.2833 339.267 15.7192 339.267 16.0142C339.267 16.4568 339.434 16.6781 339.77 16.6781C340.025 16.6781 340.299 16.5105 340.595 16.1752C340.89 15.8265 341.144 15.3369 341.359 14.7066L341.681 14.7871C341.104 16.4233 340.353 17.2414 339.428 17.2414C338.596 17.2414 338.18 16.7385 338.18 15.7326C338.18 14.9011 338.677 12.5808 339.669 8.77188L338.221 8.65118C338.958 8.65118 339.555 8.47682 340.011 8.12812C340.467 7.766 340.903 7.11553 341.319 6.1767ZM348.488 11.9505H346.517C345.9 14.7938 345.591 16.2892 345.591 16.4367C345.591 16.5708 345.665 16.6379 345.812 16.6379H347.281L347.221 17H342.936L342.996 16.6379H343.921C344.096 16.6379 344.203 16.5373 344.243 16.3361C345.853 8.71824 346.657 4.87576 346.657 4.80871C346.657 4.72823 346.584 4.688 346.436 4.688H345.551L345.611 4.32588H350.097C351.009 4.32588 351.761 4.58071 352.351 5.09035C352.941 5.6 353.236 6.30412 353.236 7.20271C353.236 8.62435 352.746 9.77106 351.767 10.6428C350.788 11.5146 349.695 11.9505 348.488 11.9505ZM349.876 4.78859H348.045L346.617 11.4878H348.508C349.474 11.4878 350.279 11.0184 350.922 10.0795C351.579 9.14071 351.908 8.15494 351.908 7.12223C351.908 6.45165 351.734 5.89506 351.385 5.45247C351.05 5.00988 350.547 4.78859 349.876 4.78859ZM357.203 8.24882L357.484 8.45C356.841 9.92529 356.277 11.6219 355.795 13.5398H355.955L356.277 12.6546C356.908 10.9379 357.531 9.74423 358.148 9.07365C358.765 8.40306 359.302 8.06776 359.758 8.06776C360.214 8.06776 360.549 8.21529 360.764 8.51035C360.992 8.80541 361.106 9.18765 361.106 9.65706C361.106 10.1265 361.018 10.5355 360.844 10.8842C360.67 11.2329 360.415 11.4073 360.08 11.4073C359.758 11.4073 359.489 11.3 359.275 11.0854C359.409 10.9111 359.536 10.6562 359.657 10.3209C359.778 9.98565 359.838 9.69059 359.838 9.43576C359.838 9.04682 359.677 8.85235 359.355 8.85235C359.02 8.85235 358.604 9.18094 358.108 9.83812C357.022 11.2598 356.103 13.6471 355.352 17L353.944 17.1207L355.915 8.99318L354.628 9.09376L354.608 8.75176C355.533 8.63106 356.398 8.46341 357.203 8.24882ZM364.588 6.056C364.413 5.88165 364.326 5.66706 364.326 5.41223C364.326 5.15741 364.413 4.94282 364.588 4.76847C364.762 4.59412 364.977 4.50694 365.232 4.50694C365.486 4.50694 365.701 4.59412 365.875 4.76847C366.05 4.94282 366.137 5.15741 366.137 5.41223C366.137 5.66706 366.05 5.88165 365.875 6.056C365.701 6.23035 365.486 6.31753 365.232 6.31753C364.977 6.31753 364.762 6.23035 364.588 6.056ZM362.315 15.7326C362.315 15.0218 362.804 12.7753 363.783 8.99318L362.496 9.09376L362.475 8.75176C363.401 8.63106 364.266 8.46341 365.071 8.24882L365.352 8.45C364.883 9.84482 364.44 11.3402 364.025 12.9362C363.609 14.5322 363.401 15.5582 363.401 16.0142C363.401 16.4568 363.569 16.6781 363.904 16.6781C364.159 16.6781 364.434 16.5105 364.729 16.1752C365.024 15.8265 365.279 15.3369 365.493 14.7066L365.815 14.7871C365.238 16.4233 364.487 17.2414 363.562 17.2414C362.73 17.2414 362.315 16.7385 362.315 15.7326ZM370.892 16.5775C371.75 16.5775 372.589 15.9539 373.407 14.7066C374.225 13.4593 374.634 12.3126 374.634 11.2665C374.634 10.2204 374.319 9.29494 373.688 8.49024C374.024 8.20859 374.325 8.06776 374.594 8.06776C374.862 8.06776 375.056 8.23541 375.177 8.57071C375.298 8.906 375.358 9.362 375.358 9.93871C375.358 10.502 375.244 11.2061 375.016 12.0511C374.788 12.896 374.473 13.7141 374.071 14.5054C373.668 15.2833 373.132 15.9338 372.461 16.4568C371.791 16.9799 371.073 17.2414 370.309 17.2414C369.812 17.2414 369.41 17.0738 369.102 16.7385C368.806 16.3898 368.659 15.9204 368.659 15.3302C368.659 14.7401 368.88 13.7074 369.323 12.2321C369.779 10.7568 370.007 9.79118 370.007 9.33518C370.007 8.86576 369.832 8.63106 369.484 8.63106C369.229 8.63106 368.961 8.80541 368.679 9.15412C368.397 9.48941 368.169 9.97224 367.995 10.6026L367.653 10.5221C368.149 8.88588 368.867 8.06776 369.806 8.06776C370.677 8.06776 371.113 8.53718 371.113 9.476C371.113 9.85153 370.905 10.7836 370.49 12.2724C370.074 13.7611 369.866 14.7401 369.866 15.2095C369.866 16.1215 370.208 16.5775 370.892 16.5775ZM385.221 8.45C384.752 9.84482 384.309 11.3402 383.893 12.9362C383.478 14.5322 383.27 15.5582 383.27 16.0142C383.27 16.4568 383.437 16.6781 383.773 16.6781C384.027 16.6781 384.302 16.5105 384.597 16.1752C384.893 15.8265 385.147 15.3369 385.362 14.7066L385.684 14.7871C385.107 16.4233 384.356 17.2414 383.431 17.2414C382.599 17.2414 382.183 16.7385 382.183 15.7326C382.183 15.5314 382.217 15.2095 382.284 14.7669H382.183C381.352 16.4166 380.386 17.2414 379.286 17.2414C378.656 17.2414 378.126 16.9665 377.697 16.4166C377.281 15.8533 377.073 15.1693 377.073 14.3646C377.073 13.5465 377.181 12.7887 377.395 12.0913C377.61 11.3939 377.912 10.7434 378.301 10.1399C378.69 9.52294 379.206 9.02671 379.85 8.65118C380.493 8.26223 381.198 8.06776 381.962 8.06776C382.955 8.06776 383.739 8.49023 384.316 9.33518L384.939 8.24882L385.221 8.45ZM379.769 16.6379C380.333 16.6379 380.903 16.202 381.479 15.3302C382.136 14.3244 382.747 12.6814 383.31 10.4014C383.431 9.86494 383.525 9.476 383.592 9.23459C383.122 8.77859 382.579 8.55059 381.962 8.55059C381.359 8.55059 380.815 8.75847 380.333 9.17423C379.863 9.59 379.494 10.1131 379.226 10.7434C378.676 12.0309 378.401 13.2447 378.401 14.3847C378.401 15.1358 378.522 15.6991 378.763 16.0746C379.018 16.4501 379.353 16.6379 379.769 16.6379ZM388.078 9.03341L388.178 8.65118H392.645L392.544 9.03341H388.078ZM391.277 6.1767L391.558 6.37788C391.25 7.31671 390.834 8.792 390.311 10.8038C389.801 12.8155 389.493 14.1165 389.385 14.7066C389.278 15.2833 389.225 15.7192 389.225 16.0142C389.225 16.4568 389.392 16.6781 389.727 16.6781C389.982 16.6781 390.257 16.5105 390.552 16.1752C390.847 15.8265 391.102 15.3369 391.317 14.7066L391.639 14.7871C391.062 16.4233 390.311 17.2414 389.385 17.2414C388.554 17.2414 388.138 16.7385 388.138 15.7326C388.138 14.9011 388.634 12.5808 389.627 8.77188L388.178 8.65118C388.916 8.65118 389.513 8.47682 389.969 8.12812C390.425 7.766 390.861 7.11553 391.277 6.1767ZM398.345 8.06776C399.056 8.06776 399.586 8.24212 399.935 8.59082C400.297 8.92612 400.478 9.41565 400.478 10.0594C400.478 10.6898 400.23 11.2396 399.733 11.7091C398.888 12.5138 397.634 12.9161 395.971 12.9161C395.475 12.9161 395.046 12.8759 394.684 12.7954V12.4132C395.153 12.4802 395.542 12.5138 395.851 12.5138C396.964 12.5138 397.822 12.2321 398.426 11.6688C399.043 11.1055 399.351 10.4886 399.351 9.818C399.351 9.45588 399.251 9.15412 399.049 8.91271C398.862 8.67129 398.54 8.55059 398.084 8.55059C397.641 8.55059 397.185 8.75847 396.716 9.17423C396.26 9.59 395.898 10.1064 395.629 10.7233C395.093 12.0242 394.825 13.1508 394.825 14.1031C394.825 15.8734 395.361 16.7586 396.434 16.7586C397.762 16.7586 398.734 16.0344 399.351 14.5859L399.673 14.6664C399.351 15.4845 398.882 16.1215 398.265 16.5775C397.661 17.0201 396.977 17.2414 396.213 17.2414C395.448 17.2414 394.805 16.9598 394.281 16.3965C393.758 15.8332 393.497 15.0754 393.497 14.1232C393.497 13.1709 393.678 12.2522 394.04 11.3671C394.402 10.4685 394.965 9.69729 395.73 9.05353C396.494 8.39635 397.366 8.06776 398.345 8.06776ZM406.361 4.96965L403.947 16.4367C403.947 16.5708 404.021 16.6379 404.168 16.6379H405.054L404.993 17H401.292L401.352 16.6379H402.277C402.452 16.6379 402.559 16.5373 402.599 16.3361C404.209 8.71824 405.013 4.87576 405.013 4.80871C405.013 4.72823 404.94 4.688 404.792 4.688H403.907L403.967 4.32588H407.669L407.609 4.688H406.703C406.529 4.688 406.415 4.78188 406.361 4.96965ZM409.238 13.4794L409.278 15.3302C409.305 16.1618 409.526 16.5775 409.942 16.5775C410.21 16.5775 410.432 16.4367 410.606 16.1551C410.794 15.8734 410.888 15.5113 410.888 15.0687L411.27 15.0084C411.27 15.6924 411.089 16.2355 410.727 16.6379C410.378 17.0402 409.936 17.2414 409.399 17.2414C408.447 17.2414 407.944 16.5239 407.89 15.0888L407.81 13.1173C407.77 12.2455 407.588 11.642 407.267 11.3067C406.945 10.958 406.415 10.7836 405.677 10.7836L405.778 10.4618L411.511 4.688H410.566L410.626 4.32588H413.221L413.161 4.688H412.638C412.423 4.688 412.229 4.78188 412.055 4.96965L406.603 10.4215C407.568 10.4349 408.239 10.7166 408.614 11.2665C409.003 11.8164 409.211 12.554 409.238 13.4794ZM418.58 8.06776C419.291 8.06776 419.821 8.24212 420.169 8.59082C420.531 8.92612 420.712 9.41565 420.712 10.0594C420.712 10.6898 420.464 11.2396 419.968 11.7091C419.123 12.5138 417.869 12.9161 416.206 12.9161C415.71 12.9161 415.281 12.8759 414.919 12.7954V12.4132C415.388 12.4802 415.777 12.5138 416.085 12.5138C417.199 12.5138 418.057 12.2321 418.66 11.6688C419.277 11.1055 419.586 10.4886 419.586 9.818C419.586 9.45588 419.485 9.15412 419.284 8.91271C419.096 8.67129 418.774 8.55059 418.318 8.55059C417.876 8.55059 417.42 8.75847 416.95 9.17423C416.494 9.59 416.132 10.1064 415.864 10.7233C415.328 12.0242 415.059 13.1508 415.059 14.1031C415.059 15.8734 415.596 16.7586 416.669 16.7586C417.997 16.7586 418.969 16.0344 419.586 14.5859L419.908 14.6664C419.586 15.4845 419.116 16.1215 418.499 16.5775C417.896 17.0201 417.212 17.2414 416.447 17.2414C415.683 17.2414 415.039 16.9598 414.516 16.3965C413.993 15.8332 413.732 15.0754 413.732 14.1232C413.732 13.1709 413.913 12.2522 414.275 11.3671C414.637 10.4685 415.2 9.69729 415.965 9.05353C416.729 8.39635 417.601 8.06776 418.58 8.06776ZM425.349 16.5775C426.207 16.5775 427.059 15.9539 427.904 14.7066C428.762 13.4459 429.191 12.2724 429.191 11.186C429.191 10.0862 428.843 9.18765 428.145 8.49024C428.48 8.20859 428.789 8.06776 429.071 8.06776C429.594 8.06776 429.855 8.80541 429.855 10.2807C429.855 11.756 429.694 13.1106 429.372 14.3445C429.05 15.5649 428.628 16.6044 428.105 17.4627C427.595 18.3211 427.012 19.0654 426.355 19.6958C425.081 20.9565 423.786 21.5868 422.472 21.5868C421.801 21.5868 421.298 21.4326 420.963 21.1241C420.614 20.8156 420.44 20.4535 420.44 20.0378C420.44 19.622 420.527 19.2465 420.702 18.9112C420.863 18.5759 421.111 18.4082 421.446 18.4082C421.781 18.4082 422.056 18.5021 422.271 18.6899C421.882 19.1861 421.687 19.6421 421.687 20.0579C421.687 20.7285 422.043 21.0638 422.754 21.0638C423.223 21.0638 423.766 20.8894 424.383 20.5407C425 20.2054 425.624 19.7226 426.254 19.0922C426.884 18.4753 427.461 17.6438 427.984 16.5976C428.521 15.5515 428.896 14.4182 429.111 13.1978C428.668 14.3646 428.071 15.3302 427.32 16.0947C426.583 16.8592 425.731 17.2414 424.765 17.2414C424.269 17.2414 423.867 17.0738 423.558 16.7385C423.263 16.3898 423.116 15.9204 423.116 15.3302C423.116 14.7401 423.337 13.7074 423.78 12.2321C424.236 10.7568 424.464 9.79118 424.464 9.33518C424.464 8.86576 424.289 8.63106 423.941 8.63106C423.686 8.63106 423.417 8.80541 423.136 9.15412C422.854 9.48941 422.626 9.97224 422.452 10.6026L422.11 10.5221C422.606 8.88588 423.324 8.06776 424.262 8.06776C425.134 8.06776 425.57 8.53718 425.57 9.476C425.57 9.85153 425.362 10.7836 424.946 12.2724C424.531 13.7611 424.323 14.7401 424.323 15.2095C424.323 16.1215 424.665 16.5775 425.349 16.5775ZM430.291 18.9715C431.632 17.9522 432.699 16.4971 433.49 14.606C434.281 12.7149 434.677 10.8038 434.677 8.87247C434.677 6.92776 434.228 5.47929 433.329 4.52706L433.57 4.22529C434.442 4.74835 435.093 5.486 435.522 6.43823C435.951 7.37706 436.166 8.43659 436.166 9.61682C436.166 11.5347 435.636 13.4124 434.576 15.2498C433.53 17.0872 432.129 18.4284 430.372 19.2733L430.291 18.9715Z" fill="#6082FA"/>
</svg>
