<svg width="570" height="24" viewBox="0 0 570 24" fill="none" xmlns="http://www.w3.org/2000/svg">
<path opacity="0.86" d="M5.63294 5.60753C6.41082 5.25882 7.23565 5.08447 8.10741 5.08447C9.43518 5.08447 10.4813 5.48682 11.2458 6.29153C12.0236 7.08282 12.4126 8.20271 12.4126 9.65118C12.4126 10.6302 12.2516 11.6227 11.9298 12.6286C11.6079 13.6211 11.1586 14.5398 10.5819 15.3847C10.0052 16.2296 9.25412 16.9204 8.32871 17.4568C7.40329 17.9799 6.33706 18.2414 5.13 18.2414C3.92294 18.2414 2.93047 17.8391 2.15259 17.0344C1.38812 16.2296 1.00588 15.0628 1.00588 13.5339C1.00588 12.0049 1.42165 10.4626 2.25318 8.90682C3.09812 7.35106 4.22471 6.25129 5.63294 5.60753ZM10.1795 6.63353C9.64306 5.94953 8.93224 5.60753 8.04706 5.60753C7.16188 5.60753 6.34377 5.89588 5.59271 6.47259C4.84165 7.03588 4.24482 7.75341 3.80224 8.62518C2.87682 10.4224 2.41412 12.1659 2.41412 13.8558C2.41412 15.0762 2.67565 16.0285 3.19871 16.7125C3.73518 17.3831 4.446 17.7184 5.33118 17.7184C6.22977 17.7184 7.05459 17.4367 7.80565 16.8734C8.55671 16.2967 9.16024 15.5792 9.61624 14.7208C10.5416 12.9371 11.0044 11.1935 11.0044 9.49024C11.0044 8.26976 10.7294 7.31753 10.1795 6.63353ZM17.1795 9.24882L17.4612 9.45C16.8174 10.9253 16.2541 12.6219 15.7713 14.5398H15.9322L16.2541 13.6546C16.8845 11.9379 17.5081 10.7442 18.1251 10.0736C18.742 9.40306 19.2785 9.06776 19.7345 9.06776C20.1905 9.06776 20.5258 9.21529 20.7404 9.51035C20.9684 9.80541 21.0824 10.1876 21.0824 10.6571C21.0824 11.1265 20.9952 11.5355 20.8208 11.8842C20.6465 12.2329 20.3916 12.4073 20.0564 12.4073C19.7345 12.4073 19.4662 12.3 19.2516 12.0854C19.3858 11.9111 19.5132 11.6562 19.6339 11.3209C19.7546 10.9856 19.8149 10.6906 19.8149 10.4358C19.8149 10.0468 19.654 9.85235 19.3321 9.85235C18.9968 9.85235 18.5811 10.1809 18.0848 10.8381C16.9985 12.2598 16.0798 14.6471 15.3287 18L13.9205 18.1207L15.892 9.99318L14.6045 10.0938L14.5844 9.75176C15.5098 9.63106 16.3748 9.46341 17.1795 9.24882ZM27.884 17.0142C27.884 17.4568 28.0516 17.6781 28.3869 17.6781C28.6418 17.6781 28.9167 17.5105 29.2118 17.1752C29.5068 16.8265 29.7616 16.3369 29.9762 15.7066L30.2981 15.7871C29.7214 17.4233 28.9704 18.2414 28.0449 18.2414C27.2134 18.2414 26.7976 17.7184 26.7976 16.6722C26.7976 15.6127 27.6761 11.8976 29.4331 5.52706L28.1455 5.62765L28.1254 5.28565C29.0508 5.16494 29.9159 4.99729 30.7206 4.78271L31.0022 4.98388C30.4389 6.63353 29.7751 8.87329 29.0106 11.7032C28.2595 14.5196 27.884 16.29 27.884 17.0142ZM26.9988 15.7669H26.7976C25.9661 17.4166 25.0005 18.2414 23.9007 18.2414C23.2704 18.2414 22.7406 17.9665 22.3114 17.4166C21.8956 16.8533 21.6878 16.1693 21.6878 15.3646C21.6878 14.5465 21.7951 13.7887 22.0096 13.0913C22.2242 12.3939 22.526 11.7434 22.9149 11.1399C23.3039 10.5229 23.8202 10.0267 24.464 9.65118C25.1078 9.26223 25.7649 9.06776 26.4355 9.06776C27.7231 9.06776 28.6351 9.63106 29.1715 10.7576L28.8899 11.1198C28.2595 10.0736 27.4749 9.55059 26.5361 9.55059C25.9594 9.55059 25.4296 9.75847 24.9468 10.1742C24.4774 10.59 24.1086 11.1131 23.8404 11.7434C23.2905 13.0309 23.0155 14.2447 23.0155 15.3847C23.0155 16.1358 23.1362 16.6991 23.3776 17.0746C23.6325 17.4501 23.9678 17.6379 24.3835 17.6379C24.9602 17.6379 25.5504 17.1551 26.1539 16.1894C26.7574 15.2104 27.2939 13.8155 27.7633 12.0049L26.9988 15.7669ZM36.9973 9.06776C37.7081 9.06776 38.2379 9.24212 38.5866 9.59082C38.9487 9.92612 39.1298 10.4156 39.1298 11.0594C39.1298 11.6898 38.8816 12.2396 38.3854 12.7091C37.5405 13.5138 36.2865 13.9161 34.6234 13.9161C34.1272 13.9161 33.698 13.8759 33.3359 13.7954V13.4132C33.8053 13.4802 34.1942 13.5138 34.5027 13.5138C35.6159 13.5138 36.4742 13.2321 37.0778 12.6688C37.6947 12.1055 38.0032 11.4886 38.0032 10.818C38.0032 10.4559 37.9026 10.1541 37.7014 9.91271C37.5136 9.67129 37.1918 9.55059 36.7358 9.55059C36.2932 9.55059 35.8372 9.75847 35.3678 10.1742C34.9118 10.59 34.5496 11.1064 34.2814 11.7233C33.7449 13.0242 33.4767 14.1508 33.4767 15.1031C33.4767 16.8734 34.0132 17.7586 35.0861 17.7586C36.4139 17.7586 37.3862 17.0344 38.0032 15.5859L38.3251 15.6664C38.0032 16.4845 37.5338 17.1215 36.9168 17.5775C36.3133 18.0201 35.6293 18.2414 34.8648 18.2414C34.1004 18.2414 33.4566 17.9598 32.9335 17.3965C32.4105 16.8332 32.1489 16.0754 32.1489 15.1232C32.1489 14.1709 32.33 13.2522 32.6921 12.3671C33.0542 11.4685 33.6175 10.6973 34.382 10.0535C35.1465 9.39635 36.0182 9.06776 36.9973 9.06776ZM43.9069 9.24882L44.1886 9.45C43.5448 10.9253 42.9815 12.6219 42.4987 14.5398H42.6596L42.9815 13.6546C43.6119 11.9379 44.2355 10.7442 44.8525 10.0736C45.4694 9.40306 46.0059 9.06776 46.4619 9.06776C46.9179 9.06776 47.2532 9.21529 47.4677 9.51035C47.6957 9.80541 47.8097 10.1876 47.8097 10.6571C47.8097 11.1265 47.7226 11.5355 47.5482 11.8842C47.3739 12.2329 47.119 12.4073 46.7837 12.4073C46.4619 12.4073 46.1936 12.3 45.979 12.0854C46.1132 11.9111 46.2406 11.6562 46.3613 11.3209C46.482 10.9856 46.5423 10.6906 46.5423 10.4358C46.5423 10.0468 46.3814 9.85235 46.0595 9.85235C45.7242 9.85235 45.3085 10.1809 44.8122 10.8381C43.7259 12.2598 42.8072 14.6471 42.0561 18L40.6479 18.1207L42.6194 9.99318L41.3319 10.0938L41.3117 9.75176C42.2372 9.63106 43.1022 9.46341 43.9069 9.24882ZM48.7773 17.9396C48.5761 17.7251 48.4755 17.4702 48.4755 17.1752C48.4755 16.8801 48.5761 16.632 48.7773 16.4308C48.9919 16.2162 49.2467 16.1089 49.5417 16.1089C49.8368 16.1089 50.0849 16.2162 50.2861 16.4308C50.5007 16.632 50.608 16.8801 50.608 17.1752C50.608 17.4702 50.5007 17.7251 50.2861 17.9396C50.0849 18.1408 49.8368 18.2414 49.5417 18.2414C49.2467 18.2414 48.9919 18.1408 48.7773 17.9396ZM57.5362 9.06776C58.247 9.06776 58.7767 9.24212 59.1255 9.59082C59.4876 9.92612 59.6686 10.4156 59.6686 11.0594C59.6686 11.6898 59.4205 12.2396 58.9243 12.7091C58.0793 13.5138 56.8253 13.9161 55.1623 13.9161C54.666 13.9161 54.2369 13.8759 53.8747 13.7954V13.4132C54.3442 13.4802 54.7331 13.5138 55.0416 13.5138C56.1547 13.5138 57.0131 13.2321 57.6166 12.6688C58.2336 12.1055 58.542 11.4886 58.542 10.818C58.542 10.4559 58.4415 10.1541 58.2403 9.91271C58.0525 9.67129 57.7306 9.55059 57.2746 9.55059C56.832 9.55059 56.376 9.75847 55.9066 10.1742C55.4506 10.59 55.0885 11.1064 54.8203 11.7233C54.2838 13.0242 54.0156 14.1508 54.0156 15.1031C54.0156 16.8734 54.552 17.7586 55.625 17.7586C56.9527 17.7586 57.9251 17.0344 58.542 15.5859L58.8639 15.6664C58.542 16.4845 58.0726 17.1215 57.4557 17.5775C56.8522 18.0201 56.1682 18.2414 55.4037 18.2414C54.6392 18.2414 53.9955 17.9598 53.4724 17.3965C52.9493 16.8332 52.6878 16.0754 52.6878 15.1232C52.6878 14.1709 52.8689 13.2522 53.231 12.3671C53.5931 11.4685 54.1564 10.6973 54.9209 10.0535C55.6853 9.39635 56.5571 9.06776 57.5362 9.06776ZM69.2941 10.8985C69.2941 11.4752 68.9655 12.5347 68.3084 14.0771C67.6646 15.6194 67.3427 16.6052 67.3427 17.0344C67.3427 17.4635 67.5104 17.6781 67.8457 17.6781C68.1005 17.6781 68.3754 17.5105 68.6705 17.1752C68.9655 16.8265 69.2204 16.3369 69.435 15.7066L69.7568 15.7871C69.1801 17.4233 68.4291 18.2414 67.5037 18.2414C66.6721 18.2414 66.2564 17.7854 66.2564 16.8734C66.2564 16.4845 66.5581 15.5188 67.1617 13.9765C67.7786 12.4341 68.0871 11.4416 68.0871 10.9991C68.0871 10.1541 67.7786 9.73165 67.1617 9.73165C66.4911 9.73165 65.7668 10.2748 64.989 11.3612C64.0904 12.6621 63.2924 14.8751 62.595 18L61.1867 18.1207L63.1583 9.99318L61.8707 10.0938L61.8506 9.75176C62.776 9.63106 63.6411 9.46341 64.4458 9.24882L64.7274 9.45C64.0837 10.9253 63.5204 12.6219 63.0375 14.5398H63.1985L63.5204 13.6546C64.2446 11.6294 65.0292 10.3151 65.8741 9.71153C66.2765 9.44329 66.6051 9.26894 66.8599 9.18847C67.1281 9.108 67.4567 9.06776 67.8457 9.06776C68.248 9.06776 68.59 9.22871 68.8717 9.55059C69.1533 9.87247 69.2941 10.3218 69.2941 10.8985ZM76.354 9.55059C75.8041 9.55059 75.2945 9.75847 74.8251 10.1742C74.3691 10.59 74.007 11.1064 73.7387 11.7233C73.2023 13.0242 72.934 14.1508 72.934 15.1031C72.934 16.8734 73.4705 17.7586 74.5434 17.7586C75.8712 17.7586 76.8435 17.0344 77.4605 15.5859L77.7824 15.6664C77.4605 16.4845 76.9911 17.1215 76.3741 17.5775C75.7706 18.0201 75.0866 18.2414 74.3221 18.2414C73.5577 18.2414 72.9139 17.9598 72.3908 17.3965C71.8678 16.8332 71.6063 16.0754 71.6063 15.1232C71.6063 14.1709 71.7873 13.2522 72.1494 12.3671C72.5115 11.4685 73.0748 10.6973 73.8393 10.0535C74.6038 9.39635 75.4755 9.06776 76.4546 9.06776C77.1252 9.06776 77.6281 9.24212 77.9634 9.59082C78.3121 9.92612 78.4865 10.3352 78.4865 10.818C78.4865 11.2874 78.3993 11.7099 78.225 12.0854C78.064 12.4609 77.8025 12.6487 77.4404 12.6487C77.0917 12.6487 76.8301 12.5414 76.6558 12.3268C77.0447 11.7367 77.2392 11.16 77.2392 10.5967C77.2392 9.89929 76.9441 9.55059 76.354 9.55059ZM83.3642 9.24882L83.6459 9.45C83.0021 10.9253 82.4388 12.6219 81.956 14.5398H82.1169L82.4388 13.6546C83.0692 11.9379 83.6928 10.7442 84.3098 10.0736C84.9267 9.40306 85.4632 9.06776 85.9192 9.06776C86.3752 9.06776 86.7105 9.21529 86.9251 9.51035C87.1531 9.80541 87.2671 10.1876 87.2671 10.6571C87.2671 11.1265 87.1799 11.5355 87.0055 11.8842C86.8312 12.2329 86.5763 12.4073 86.2411 12.4073C85.9192 12.4073 85.6509 12.3 85.4363 12.0854C85.5705 11.9111 85.6979 11.6562 85.8186 11.3209C85.9393 10.9856 85.9996 10.6906 85.9996 10.4358C85.9996 10.0468 85.8387 9.85235 85.5168 9.85235C85.1815 9.85235 84.7658 10.1809 84.2695 10.8381C83.1832 12.2598 82.2645 14.6471 81.5134 18L80.1052 18.1207L82.0767 9.99318L80.7892 10.0938L80.7691 9.75176C81.6945 9.63106 82.5595 9.46341 83.3642 9.24882ZM91.0913 17.5775C91.9496 17.5775 92.8013 16.9539 93.6462 15.7066C94.5046 14.4459 94.9338 13.2724 94.9338 12.186C94.9338 11.0862 94.5851 10.1876 93.8876 9.49024C94.2229 9.20859 94.5314 9.06776 94.8131 9.06776C95.3361 9.06776 95.5976 9.80541 95.5976 11.2807C95.5976 12.756 95.4367 14.1106 95.1148 15.3445C94.7929 16.5649 94.3705 17.6044 93.8474 18.4627C93.3378 19.3211 92.7544 20.0654 92.0972 20.6958C90.8231 21.9565 89.5288 22.5868 88.2145 22.5868C87.5439 22.5868 87.0409 22.4326 86.7056 22.1241C86.3569 21.8156 86.1826 21.4535 86.1826 21.0378C86.1826 20.622 86.2698 20.2465 86.4441 19.9112C86.6051 19.5759 86.8532 19.4082 87.1885 19.4082C87.5238 19.4082 87.7987 19.5021 88.0133 19.6899C87.6244 20.1861 87.4299 20.6421 87.4299 21.0579C87.4299 21.7285 87.7853 22.0638 88.4961 22.0638C88.9655 22.0638 89.5087 21.8894 90.1256 21.5407C90.7426 21.2054 91.3662 20.7226 91.9966 20.0922C92.6269 19.4753 93.2036 18.6438 93.7267 17.5976C94.2632 16.5515 94.6387 15.4182 94.8533 14.1978C94.4107 15.3646 93.8139 16.3302 93.0628 17.0947C92.3252 17.8592 91.4735 18.2414 90.5079 18.2414C90.0116 18.2414 89.6093 18.0738 89.3008 17.7385C89.0058 17.3898 88.8582 16.9204 88.8582 16.3302C88.8582 15.7401 89.0795 14.7074 89.5221 13.2321C89.9781 11.7568 90.2061 10.7912 90.2061 10.3352C90.2061 9.86576 90.0318 9.63106 89.6831 9.63106C89.4282 9.63106 89.16 9.80541 88.8784 10.1541C88.5967 10.4894 88.3687 10.9722 88.1944 11.6026L87.8524 11.5221C88.3486 9.88588 89.0661 9.06776 90.0049 9.06776C90.8767 9.06776 91.3126 9.53718 91.3126 10.476C91.3126 10.8515 91.1047 11.7836 90.6889 13.2724C90.2732 14.7611 90.0653 15.7401 90.0653 16.2095C90.0653 17.1215 90.4073 17.5775 91.0913 17.5775ZM101.144 9.24882L101.425 9.45C100.782 10.9253 100.218 12.6219 99.7354 14.5398H99.8964L100.218 13.6546C101.331 10.5967 102.606 9.06776 104.041 9.06776C104.617 9.06776 105.107 9.34941 105.509 9.91271C105.925 10.476 106.133 11.16 106.133 11.9647C106.133 12.7694 106.026 13.5205 105.811 14.2179C105.61 14.9019 105.315 15.5456 104.926 16.1492C104.537 16.7393 104.027 17.2221 103.397 17.5976C102.766 17.9732 102.069 18.1609 101.305 18.1609C100.138 18.1609 99.2258 17.6446 98.5686 16.6119L98.7094 16.2699C99.3532 17.2489 100.198 17.7385 101.244 17.7385C101.848 17.7385 102.384 17.5373 102.854 17.1349C103.336 16.7326 103.705 16.2296 103.96 15.6261C104.47 14.3922 104.725 13.1852 104.725 12.0049C104.725 11.3209 104.624 10.7912 104.423 10.4156C104.235 10.0267 103.987 9.83223 103.678 9.83223C103.048 9.83223 102.337 10.4425 101.546 11.6629C100.768 12.8834 100.064 14.7879 99.4337 17.3764L98.2266 22.3454L96.8184 22.4661L99.8561 9.99318L98.5686 10.0938L98.5485 9.75176C99.4739 9.63106 100.339 9.46341 101.144 9.24882ZM108.277 10.0334L108.378 9.65118H112.844L112.743 10.0334H108.277ZM111.476 7.1767L111.757 7.37788C111.449 8.31671 111.033 9.792 110.51 11.8038C110.001 13.8155 109.692 15.1165 109.585 15.7066C109.477 16.2833 109.424 16.7192 109.424 17.0142C109.424 17.4568 109.591 17.6781 109.927 17.6781C110.182 17.6781 110.457 17.5105 110.752 17.1752C111.047 16.8265 111.301 16.3369 111.516 15.7066L111.838 15.7871C111.261 17.4233 110.51 18.2414 109.585 18.2414C108.753 18.2414 108.337 17.7385 108.337 16.7326C108.337 15.9011 108.834 13.5808 109.826 9.77188L108.378 9.65118C109.115 9.65118 109.712 9.47682 110.168 9.12812C110.624 8.766 111.06 8.11553 111.476 7.1767ZM118.544 9.06776C119.255 9.06776 119.785 9.24212 120.134 9.59082C120.496 9.92612 120.677 10.4156 120.677 11.0594C120.677 11.6898 120.429 12.2396 119.933 12.7091C119.088 13.5138 117.834 13.9161 116.171 13.9161C115.674 13.9161 115.245 13.8759 114.883 13.7954V13.4132C115.352 13.4802 115.741 13.5138 116.05 13.5138C117.163 13.5138 118.021 13.2321 118.625 12.6688C119.242 12.1055 119.55 11.4886 119.55 10.818C119.55 10.4559 119.45 10.1541 119.249 9.91271C119.061 9.67129 118.739 9.55059 118.283 9.55059C117.84 9.55059 117.384 9.75847 116.915 10.1742C116.459 10.59 116.097 11.1064 115.829 11.7233C115.292 13.0242 115.024 14.1508 115.024 15.1031C115.024 16.8734 115.56 17.7586 116.633 17.7586C117.961 17.7586 118.933 17.0344 119.55 15.5859L119.872 15.6664C119.55 16.4845 119.081 17.1215 118.464 17.5775C117.86 18.0201 117.176 18.2414 116.412 18.2414C115.648 18.2414 115.004 17.9598 114.481 17.3965C113.958 16.8332 113.696 16.0754 113.696 15.1232C113.696 14.1709 113.877 13.2522 114.239 12.3671C114.601 11.4685 115.165 10.6973 115.929 10.0535C116.694 9.39635 117.565 9.06776 118.544 9.06776ZM128.291 17.0142C128.291 17.4568 128.458 17.6781 128.794 17.6781C129.048 17.6781 129.323 17.5105 129.618 17.1752C129.914 16.8265 130.168 16.3369 130.383 15.7066L130.705 15.7871C130.128 17.4233 129.377 18.2414 128.452 18.2414C127.62 18.2414 127.204 17.7184 127.204 16.6722C127.204 15.6127 128.083 11.8976 129.84 5.52706L128.552 5.62765L128.532 5.28565C129.458 5.16494 130.323 4.99729 131.127 4.78271L131.409 4.98388C130.846 6.63353 130.182 8.87329 129.417 11.7032C128.666 14.5196 128.291 16.29 128.291 17.0142ZM127.406 15.7669H127.204C126.373 17.4166 125.407 18.2414 124.307 18.2414C123.677 18.2414 123.147 17.9665 122.718 17.4166C122.302 16.8533 122.094 16.1693 122.094 15.3646C122.094 14.5465 122.202 13.7887 122.416 13.0913C122.631 12.3939 122.933 11.7434 123.322 11.1399C123.711 10.5229 124.227 10.0267 124.871 9.65118C125.514 9.26223 126.172 9.06776 126.842 9.06776C128.13 9.06776 129.042 9.63106 129.578 10.7576L129.297 11.1198C128.666 10.0736 127.882 9.55059 126.943 9.55059C126.366 9.55059 125.836 9.75847 125.354 10.1742C124.884 10.59 124.515 11.1131 124.247 11.7434C123.697 13.0309 123.422 14.2447 123.422 15.3847C123.422 16.1358 123.543 16.6991 123.784 17.0746C124.039 17.4501 124.374 17.6379 124.79 17.6379C125.367 17.6379 125.957 17.1551 126.561 16.1894C127.164 15.2104 127.701 13.8155 128.17 12.0049L127.406 15.7669ZM139.013 17.6379L138.47 13.7552H134.024L131.852 17.6379H133.099L133.038 18H130.142L130.222 17.6379H130.926C131.114 17.6379 131.255 17.544 131.349 17.3562L138.108 5.32588H138.752L140.402 17.3562C140.428 17.544 140.529 17.6379 140.703 17.6379H141.407L141.347 18H137.706L137.766 17.6379H139.013ZM137.605 7.37788L134.326 13.1919H138.39L137.605 7.37788ZM146.573 9.24882L146.855 9.45C146.211 10.9253 145.648 12.6219 145.165 14.5398H145.326L145.648 13.6546C146.278 11.9379 146.902 10.7442 147.518 10.0736C148.135 9.40306 148.672 9.06776 149.128 9.06776C149.584 9.06776 149.919 9.21529 150.134 9.51035C150.362 9.80541 150.476 10.1876 150.476 10.6571C150.476 11.1265 150.389 11.5355 150.214 11.8842C150.04 12.2329 149.785 12.4073 149.45 12.4073C149.128 12.4073 148.86 12.3 148.645 12.0854C148.779 11.9111 148.907 11.6562 149.027 11.3209C149.148 10.9856 149.208 10.6906 149.208 10.4358C149.208 10.0468 149.047 9.85235 148.726 9.85235C148.39 9.85235 147.974 10.1809 147.478 10.8381C146.392 12.2598 145.473 14.6471 144.722 18L143.314 18.1207L145.285 9.99318L143.998 10.0938L143.978 9.75176C144.903 9.63106 145.768 9.46341 146.573 9.24882ZM152.51 16.8332L155.708 17.5574C156.406 17.7184 156.902 17.9329 157.197 18.2012C157.492 18.4828 157.64 18.8651 157.64 19.3479C157.64 20.1258 157.21 20.8567 156.352 21.5407C155.507 22.2381 154.541 22.5868 153.455 22.5868C152.369 22.5868 151.484 22.3387 150.8 21.8425C150.129 21.3462 149.794 20.7561 149.794 20.0721C149.794 19.6027 149.955 19.1534 150.276 18.7242C150.585 18.2951 151.048 17.9329 151.665 17.6379L152.067 17.7586C151.665 17.9598 151.356 18.2615 151.142 18.6639C150.927 19.0796 150.82 19.5155 150.82 19.9715C150.82 20.7226 151.068 21.2792 151.564 21.6413C152.06 22.0168 152.697 22.2046 153.475 22.2046C154.266 22.2046 154.991 21.9766 155.648 21.5206C156.318 21.078 156.654 20.5415 156.654 19.9112C156.654 19.2808 156.245 18.8718 155.427 18.684L151.966 17.9195C151.577 17.8391 151.276 17.658 151.061 17.3764C150.846 17.0947 150.739 16.7527 150.739 16.3504C150.739 15.948 150.907 15.5792 151.242 15.2439C151.577 14.9086 152.04 14.7409 152.63 14.7409H154.662L154.602 15.0226H152.63C152.349 15.0226 152.121 15.1098 151.946 15.2841C151.785 15.4585 151.705 15.6664 151.705 15.9078C151.705 16.404 151.973 16.7125 152.51 16.8332ZM155.889 9.34941L155.869 9.06776C156.245 9.06776 156.56 8.98059 156.815 8.80623C157.07 8.61847 157.197 8.37706 157.197 8.082C157.197 7.78694 156.982 7.50529 156.553 7.23706C156.768 6.78106 157.023 6.55306 157.318 6.55306C157.626 6.55306 157.854 6.64023 158.002 6.81459C158.163 6.98894 158.243 7.21023 158.243 7.47847C158.243 7.94788 158.028 8.37706 157.599 8.766C157.184 9.15494 156.614 9.34941 155.889 9.34941ZM152.208 12.8298C152.208 11.8373 152.556 10.9655 153.254 10.2145C153.965 9.45 154.836 9.06776 155.869 9.06776C156.593 9.06776 157.163 9.26223 157.579 9.65118C158.008 10.0267 158.223 10.5632 158.223 11.2606C158.223 12.3872 157.861 13.2992 157.137 13.9966C156.412 14.6806 155.567 15.0226 154.602 15.0226C153.864 15.0226 153.281 14.8348 152.852 14.4593C152.422 14.0704 152.208 13.5272 152.208 12.8298ZM155.849 9.45C155.111 9.45 154.508 9.85906 154.038 10.6772C153.569 11.4819 153.334 12.1994 153.334 12.8298C153.334 13.4601 153.448 13.9228 153.676 14.2179C153.918 14.4995 154.233 14.6404 154.622 14.6404C155.212 14.6404 155.775 14.3051 156.312 13.6345C156.848 12.9639 157.116 12.1189 157.116 11.0996C157.116 10.59 156.996 10.1876 156.754 9.89259C156.526 9.59753 156.225 9.45 155.849 9.45ZM163.892 9.55059C163.382 9.55059 162.946 9.69812 162.584 9.99318C162.222 10.2882 162.041 10.6638 162.041 11.1198C162.041 11.5758 162.229 11.9915 162.604 12.3671C162.98 12.7426 163.389 13.0578 163.831 13.3126C164.274 13.554 164.683 13.8759 165.059 14.2782C165.434 14.6806 165.622 15.1098 165.622 15.5658C165.622 16.4241 165.287 17.088 164.616 17.5574C163.959 18.0134 163.161 18.2414 162.222 18.2414C161.283 18.2414 160.458 18.0201 159.747 17.5775C159.975 17.1215 160.19 16.3302 160.391 15.2036L160.733 15.264C160.639 15.8139 160.592 16.2498 160.592 16.5716C160.592 16.8801 160.74 17.1685 161.035 17.4367C161.343 17.6915 161.779 17.8189 162.343 17.8189C162.919 17.8189 163.402 17.6446 163.791 17.2959C164.193 16.9472 164.395 16.4912 164.395 15.9279C164.395 15.5658 164.214 15.2171 163.851 14.8818C163.503 14.5331 163.114 14.2447 162.685 14.0167C162.269 13.7887 161.88 13.4668 161.518 13.0511C161.169 12.6353 160.995 12.1793 160.995 11.6831C160.995 10.9454 161.283 10.3285 161.86 9.83223C162.45 9.32259 163.221 9.06776 164.173 9.06776C164.911 9.06776 165.642 9.24882 166.366 9.61094C166.299 9.75847 166.185 10.0938 166.024 10.6168C165.877 11.1399 165.763 11.6361 165.682 12.1055L165.34 12.0452C165.421 11.616 165.461 11.2069 165.461 10.818C165.461 10.4156 165.327 10.1072 165.059 9.89259C164.804 9.66459 164.415 9.55059 163.892 9.55059ZM181.996 12.87H174.11V11.8038H181.996V12.87ZM181.996 16.29H174.11V15.2238H181.996V16.29Z" fill="#6082FA"/>
<path opacity="0.86" d="M191.877 5.32588H197.932C198.952 5.32588 199.676 5.26553 200.105 5.14482C199.904 5.61423 199.662 6.47929 199.381 7.74L199.18 8.68553H198.737L198.998 6.13059C198.998 5.90259 198.851 5.78859 198.556 5.78859H194.311L193.124 11.3813H197.188C197.322 11.3679 197.416 11.274 197.47 11.0996L197.872 9.85235H198.214L197.429 13.4735H197.087L197.268 12.2262C197.268 12.0385 197.195 11.9446 197.047 11.9446H193.024L191.837 17.5373H196.283C196.604 17.5373 196.812 17.3898 196.906 17.0947L197.751 14.6404H198.194L197.993 15.5859C197.738 16.7795 197.61 17.6446 197.61 18.1811C197.221 18.0604 196.531 18 195.538 18H189.201L189.262 17.6379H190.187C190.361 17.6379 190.469 17.5373 190.509 17.3361C192.118 9.71824 192.923 5.87576 192.923 5.80871C192.923 5.72823 192.849 5.688 192.702 5.688H191.816L191.877 5.32588ZM209.319 10.8985C209.319 11.4752 208.99 12.5347 208.333 14.0771C207.689 15.6194 207.367 16.6052 207.367 17.0344C207.367 17.4635 207.535 17.6781 207.87 17.6781C208.125 17.6781 208.4 17.5105 208.695 17.1752C208.99 16.8265 209.245 16.3369 209.459 15.7066L209.781 15.7871C209.205 17.4233 208.454 18.2414 207.528 18.2414C206.697 18.2414 206.281 17.7854 206.281 16.8734C206.281 16.4845 206.583 15.5188 207.186 13.9765C207.803 12.4341 208.112 11.4416 208.112 10.9991C208.112 10.1541 207.803 9.73165 207.186 9.73165C206.516 9.73165 205.791 10.2748 205.013 11.3612C204.115 12.6621 203.317 14.8751 202.619 18L201.211 18.1207L203.183 9.99318L201.895 10.0938L201.875 9.75176C202.801 9.63106 203.666 9.46341 204.47 9.24882L204.752 9.45C204.108 10.9253 203.545 12.6219 203.062 14.5398H203.223L203.545 13.6546C204.269 11.6294 205.054 10.3151 205.899 9.71153C206.301 9.44329 206.63 9.26894 206.884 9.18847C207.153 9.108 207.481 9.06776 207.87 9.06776C208.273 9.06776 208.615 9.22871 208.896 9.55059C209.178 9.87247 209.319 10.3218 209.319 10.8985ZM216.379 9.55059C215.829 9.55059 215.319 9.75847 214.85 10.1742C214.394 10.59 214.031 11.1064 213.763 11.7233C213.227 13.0242 212.959 14.1508 212.959 15.1031C212.959 16.8734 213.495 17.7586 214.568 17.7586C215.896 17.7586 216.868 17.0344 217.485 15.5859L217.807 15.6664C217.485 16.4845 217.016 17.1215 216.399 17.5775C215.795 18.0201 215.111 18.2414 214.347 18.2414C213.582 18.2414 212.938 17.9598 212.415 17.3965C211.892 16.8332 211.631 16.0754 211.631 15.1232C211.631 14.1709 211.812 13.2522 212.174 12.3671C212.536 11.4685 213.099 10.6973 213.864 10.0535C214.628 9.39635 215.5 9.06776 216.479 9.06776C217.15 9.06776 217.653 9.24212 217.988 9.59082C218.337 9.92612 218.511 10.3352 218.511 10.818C218.511 11.2874 218.424 11.7099 218.249 12.0854C218.089 12.4609 217.827 12.6487 217.465 12.6487C217.116 12.6487 216.855 12.5414 216.68 12.3268C217.069 11.7367 217.264 11.16 217.264 10.5967C217.264 9.89929 216.969 9.55059 216.379 9.55059Z" fill="#6082FA"/>
<path opacity="0.86" d="M222.755 11.7384C223.274 11.5059 223.824 11.3896 224.405 11.3896C225.29 11.3896 225.988 11.6579 226.497 12.1944C227.016 12.7219 227.275 13.4685 227.275 14.4341C227.275 15.0868 227.168 15.7485 226.953 16.4191C226.739 17.0807 226.439 17.6932 226.055 18.2565C225.67 18.8198 225.169 19.2802 224.552 19.6379C223.936 19.9866 223.225 20.1609 222.42 20.1609C221.615 20.1609 220.954 19.8927 220.435 19.3562C219.925 18.8198 219.671 18.0419 219.671 17.0226C219.671 16.0033 219.948 14.9751 220.502 13.9379C221.065 12.9007 221.816 12.1675 222.755 11.7384ZM225.786 12.4224C225.429 11.9664 224.955 11.7384 224.365 11.7384C223.775 11.7384 223.229 11.9306 222.728 12.3151C222.228 12.6906 221.83 13.1689 221.535 13.7501C220.918 14.9482 220.609 16.1106 220.609 17.2372C220.609 18.0508 220.784 18.6856 221.132 19.1416C221.49 19.5887 221.964 19.8122 222.554 19.8122C223.153 19.8122 223.703 19.6245 224.204 19.2489C224.704 18.8645 225.107 18.3861 225.411 17.8139C226.028 16.6247 226.336 15.4624 226.336 14.3268C226.336 13.5132 226.153 12.8784 225.786 12.4224ZM228.374 14.6889L228.441 14.4341H231.821L231.754 14.6889H228.374ZM230.654 13.6831L229.393 19.5708C229.134 20.7511 228.817 21.6273 228.441 22.1995C228.066 22.7718 227.61 23.0579 227.073 23.0579C226.733 23.0579 226.47 22.9551 226.282 22.7494C226.094 22.5438 226 22.3113 226 22.052C226 21.8016 226.054 21.5736 226.161 21.368C226.26 21.1713 226.421 21.0729 226.644 21.0729C226.868 21.0729 227.029 21.1311 227.127 21.2473C227.011 21.3367 226.917 21.4708 226.845 21.6496C226.765 21.8285 226.725 22.0028 226.725 22.1727C226.725 22.5572 226.885 22.7494 227.207 22.7494C227.565 22.7494 227.838 22.4722 228.025 21.9179C228.213 21.3635 228.473 20.2504 228.803 18.5784L229.581 14.6085C229.769 13.6607 230.1 12.8471 230.574 12.1675C231.048 11.488 231.597 11.1482 232.223 11.1482C232.67 11.1482 233.006 11.2511 233.229 11.4567C233.462 11.6624 233.578 11.9038 233.578 12.1809C233.578 12.4581 233.52 12.7085 233.404 12.932C233.296 13.1555 233.122 13.2673 232.881 13.2673C232.639 13.2673 232.465 13.2047 232.357 13.0795C232.617 12.7487 232.746 12.4134 232.746 12.0736C232.746 11.6624 232.55 11.4567 232.156 11.4567C231.772 11.4567 231.463 11.6534 231.231 12.0468C230.998 12.4313 230.806 12.9767 230.654 13.6831ZM232.532 14.6889L232.599 14.4341H235.979L235.912 14.6889H232.532ZM234.812 13.6831L233.552 19.5708C233.292 20.7511 232.975 21.6273 232.599 22.1995C232.224 22.7718 231.768 23.0579 231.231 23.0579C230.892 23.0579 230.628 22.9551 230.44 22.7494C230.252 22.5438 230.158 22.3113 230.158 22.052C230.158 21.8016 230.212 21.5736 230.319 21.368C230.418 21.1713 230.579 21.0729 230.802 21.0729C231.026 21.0729 231.187 21.1311 231.285 21.2473C231.169 21.3367 231.075 21.4708 231.003 21.6496C230.923 21.8285 230.883 22.0028 230.883 22.1727C230.883 22.5572 231.044 22.7494 231.366 22.7494C231.723 22.7494 231.996 22.4722 232.184 21.9179C232.371 21.3635 232.631 20.2504 232.962 18.5784L233.739 14.6085C233.927 13.6607 234.258 12.8471 234.732 12.1675C235.206 11.488 235.756 11.1482 236.382 11.1482C236.829 11.1482 237.164 11.2511 237.387 11.4567C237.62 11.6624 237.736 11.9038 237.736 12.1809C237.736 12.4581 237.678 12.7085 237.562 12.932C237.454 13.1555 237.28 13.2673 237.039 13.2673C236.797 13.2673 236.623 13.2047 236.516 13.0795C236.775 12.7487 236.905 12.4134 236.905 12.0736C236.905 11.6624 236.708 11.4567 236.314 11.4567C235.93 11.4567 235.622 11.6534 235.389 12.0468C235.157 12.4313 234.964 12.9767 234.812 13.6831ZM239.762 14.0452C240.236 14.0452 240.589 14.1614 240.821 14.3939C241.063 14.6174 241.183 14.9438 241.183 15.3729C241.183 15.7932 241.018 16.1598 240.687 16.4727C240.124 17.0092 239.288 17.2774 238.179 17.2774C237.848 17.2774 237.562 17.2506 237.321 17.1969V16.9421C237.634 16.9868 237.893 17.0092 238.099 17.0092C238.841 17.0092 239.413 16.8214 239.815 16.4459C240.227 16.0704 240.432 15.6591 240.432 15.212C240.432 14.9706 240.365 14.7694 240.231 14.6085C240.106 14.4475 239.891 14.3671 239.587 14.3671C239.292 14.3671 238.988 14.5056 238.675 14.7828C238.371 15.06 238.13 15.4042 237.951 15.8155C237.594 16.6828 237.415 17.4339 237.415 18.0687C237.415 19.2489 237.772 19.8391 238.488 19.8391C239.373 19.8391 240.021 19.3562 240.432 18.3906L240.647 18.4442C240.432 18.9896 240.119 19.4144 239.708 19.7184C239.306 20.0134 238.85 20.1609 238.34 20.1609C237.831 20.1609 237.401 19.9732 237.053 19.5976C236.704 19.2221 236.53 18.7169 236.53 18.0821C236.53 17.4473 236.65 16.8348 236.892 16.2447C237.133 15.6456 237.509 15.1315 238.018 14.7024C238.528 14.2642 239.109 14.0452 239.762 14.0452ZM244.368 14.1659L244.556 14.3C244.127 15.2835 243.751 16.4146 243.429 17.6932H243.537L243.751 17.1031C244.172 15.9586 244.587 15.1628 244.999 14.7158C245.41 14.2687 245.768 14.0452 246.072 14.0452C246.376 14.0452 246.599 14.1435 246.742 14.3402C246.894 14.5369 246.97 14.7918 246.97 15.1047C246.97 15.4176 246.912 15.6904 246.796 15.9228C246.68 16.1553 246.51 16.2715 246.286 16.2715C246.072 16.2715 245.893 16.2 245.75 16.0569C245.839 15.9407 245.924 15.7708 246.004 15.5473C246.085 15.3238 246.125 15.1271 246.125 14.9572C246.125 14.6979 246.018 14.5682 245.803 14.5682C245.58 14.5682 245.303 14.7873 244.972 15.2254C244.248 16.1732 243.635 17.7647 243.134 20L242.196 20.0805L243.51 14.6621L242.652 14.7292L242.638 14.5012C243.255 14.4207 243.832 14.3089 244.368 14.1659ZM247.615 19.9598C247.481 19.8167 247.414 19.6468 247.414 19.4501C247.414 19.2534 247.481 19.088 247.615 18.9539C247.758 18.8108 247.928 18.7393 248.125 18.7393C248.322 18.7393 248.487 18.8108 248.621 18.9539C248.764 19.088 248.836 19.2534 248.836 19.4501C248.836 19.6468 248.764 19.8167 248.621 19.9598C248.487 20.0939 248.322 20.1609 248.125 20.1609C247.928 20.1609 247.758 20.0939 247.615 19.9598ZM255.654 14.3C255.341 15.2299 255.046 16.2268 254.769 17.2908C254.492 18.3548 254.353 19.0388 254.353 19.3428C254.353 19.6379 254.465 19.7854 254.688 19.7854C254.858 19.7854 255.041 19.6736 255.238 19.4501C255.435 19.2176 255.605 18.8913 255.748 18.4711L255.962 18.5247C255.578 19.6155 255.077 20.1609 254.46 20.1609C253.906 20.1609 253.629 19.8256 253.629 19.1551C253.629 19.0209 253.651 18.8064 253.696 18.5113H253.629C253.074 19.6111 252.431 20.1609 251.697 20.1609C251.277 20.1609 250.924 19.9776 250.638 19.6111C250.361 19.2355 250.222 18.7795 250.222 18.2431C250.222 17.6976 250.294 17.1925 250.437 16.7275C250.58 16.2626 250.781 15.8289 251.04 15.4266C251.3 15.0153 251.644 14.6845 252.073 14.4341C252.502 14.1748 252.972 14.0452 253.481 14.0452C254.143 14.0452 254.666 14.3268 255.05 14.8901L255.466 14.1659L255.654 14.3ZM252.019 19.7586C252.395 19.7586 252.775 19.468 253.159 18.8868C253.597 18.2162 254.004 17.1209 254.38 15.6009C254.46 15.2433 254.523 14.984 254.568 14.8231C254.255 14.5191 253.893 14.3671 253.481 14.3671C253.079 14.3671 252.717 14.5056 252.395 14.7828C252.082 15.06 251.836 15.4087 251.657 15.8289C251.291 16.6873 251.107 17.4965 251.107 18.2565C251.107 18.7572 251.188 19.1327 251.349 19.3831C251.519 19.6334 251.742 19.7586 252.019 19.7586ZM259.436 14.1659L259.624 14.3C259.195 15.2835 258.819 16.4146 258.497 17.6932H258.605L258.819 17.1031C259.239 15.9586 259.655 15.1628 260.066 14.7158C260.478 14.2687 260.835 14.0452 261.139 14.0452C261.443 14.0452 261.667 14.1435 261.81 14.3402C261.962 14.5369 262.038 14.7918 262.038 15.1047C262.038 15.4176 261.98 15.6904 261.864 15.9228C261.747 16.1553 261.577 16.2715 261.354 16.2715C261.139 16.2715 260.961 16.2 260.817 16.0569C260.907 15.9407 260.992 15.7708 261.072 15.5473C261.153 15.3238 261.193 15.1271 261.193 14.9572C261.193 14.6979 261.086 14.5682 260.871 14.5682C260.648 14.5682 260.37 14.7873 260.04 15.2254C259.315 16.1732 258.703 17.7647 258.202 20L257.263 20.0805L258.578 14.6621L257.719 14.7292L257.706 14.5012C258.323 14.4207 258.9 14.3089 259.436 14.1659ZM263.394 19.2221L265.526 19.7049C265.991 19.8122 266.322 19.9553 266.519 20.1341C266.715 20.3219 266.814 20.5767 266.814 20.8986C266.814 21.4172 266.528 21.9045 265.955 22.3605C265.392 22.8254 264.748 23.0579 264.024 23.0579C263.3 23.0579 262.71 22.8925 262.254 22.5616C261.807 22.2308 261.583 21.8374 261.583 21.3814C261.583 21.0685 261.69 20.7689 261.905 20.4828C262.111 20.1967 262.419 19.9553 262.83 19.7586L263.099 19.8391C262.83 19.9732 262.625 20.1744 262.482 20.4426C262.339 20.7198 262.267 21.0104 262.267 21.3144C262.267 21.8151 262.433 22.1861 262.763 22.4275C263.094 22.6779 263.519 22.8031 264.038 22.8031C264.565 22.8031 265.048 22.6511 265.486 22.3471C265.933 22.052 266.157 21.6944 266.157 21.2741C266.157 20.8539 265.884 20.5812 265.338 20.456L263.032 19.9464C262.772 19.8927 262.571 19.772 262.428 19.5842C262.285 19.3965 262.214 19.1685 262.214 18.9002C262.214 18.632 262.325 18.3861 262.549 18.1626C262.772 17.9391 263.081 17.8273 263.474 17.8273H264.829L264.789 18.0151H263.474C263.286 18.0151 263.134 18.0732 263.018 18.1894C262.911 18.3056 262.857 18.4442 262.857 18.6052C262.857 18.936 263.036 19.1416 263.394 19.2221ZM265.647 14.2329L265.634 14.0452C265.884 14.0452 266.094 13.9871 266.264 13.8708C266.434 13.7456 266.519 13.5847 266.519 13.388C266.519 13.1913 266.376 13.0035 266.09 12.8247C266.233 12.5207 266.402 12.3687 266.599 12.3687C266.805 12.3687 266.957 12.4268 267.055 12.5431C267.162 12.6593 267.216 12.8068 267.216 12.9856C267.216 13.2986 267.073 13.5847 266.787 13.844C266.51 14.1033 266.13 14.2329 265.647 14.2329ZM263.193 16.5532C263.193 15.8915 263.425 15.3104 263.89 14.8096C264.364 14.3 264.945 14.0452 265.634 14.0452C266.116 14.0452 266.496 14.1748 266.774 14.4341C267.06 14.6845 267.203 15.0421 267.203 15.5071C267.203 16.2581 266.961 16.8661 266.478 17.3311C265.996 17.7871 265.432 18.0151 264.789 18.0151C264.297 18.0151 263.908 17.8899 263.622 17.6395C263.336 17.3802 263.193 17.0181 263.193 16.5532ZM265.62 14.3C265.128 14.3 264.726 14.5727 264.413 15.1181C264.1 15.6546 263.944 16.1329 263.944 16.5532C263.944 16.9734 264.02 17.2819 264.172 17.4786C264.333 17.6664 264.543 17.7602 264.802 17.7602C265.195 17.7602 265.571 17.5367 265.929 17.0896C266.286 16.6426 266.465 16.0793 266.465 15.3998C266.465 15.06 266.385 14.7918 266.224 14.5951C266.072 14.3984 265.87 14.3 265.62 14.3ZM270.982 14.3671C270.642 14.3671 270.352 14.4654 270.11 14.6621C269.869 14.8588 269.748 15.1092 269.748 15.4132C269.748 15.7172 269.873 15.9944 270.124 16.2447C270.374 16.4951 270.647 16.7052 270.942 16.8751C271.237 17.036 271.509 17.2506 271.76 17.5188C272.01 17.7871 272.135 18.0732 272.135 18.3772C272.135 18.9494 271.912 19.392 271.465 19.7049C271.027 20.0089 270.495 20.1609 269.869 20.1609C269.243 20.1609 268.693 20.0134 268.219 19.7184C268.371 19.4144 268.514 18.8868 268.648 18.1358L268.876 18.176C268.814 18.5426 268.782 18.8332 268.782 19.0478C268.782 19.2534 268.881 19.4456 269.077 19.6245C269.283 19.7944 269.574 19.8793 269.949 19.8793C270.334 19.8793 270.656 19.7631 270.915 19.5306C271.183 19.2981 271.317 18.9941 271.317 18.6186C271.317 18.3772 271.196 18.1447 270.955 17.9212C270.723 17.6887 270.463 17.4965 270.177 17.3445C269.9 17.1925 269.641 16.9779 269.399 16.7007C269.167 16.4235 269.051 16.1195 269.051 15.7887C269.051 15.2969 269.243 14.8856 269.627 14.5548C270.021 14.2151 270.535 14.0452 271.17 14.0452C271.661 14.0452 272.149 14.1659 272.632 14.4073C272.587 14.5056 272.511 14.7292 272.404 15.0779C272.305 15.4266 272.229 15.7574 272.176 16.0704L271.948 16.0301C272.001 15.744 272.028 15.4713 272.028 15.212C272.028 14.9438 271.939 14.7381 271.76 14.5951C271.59 14.4431 271.331 14.3671 270.982 14.3671ZM277.07 16.6336H275.755C275.344 18.5292 275.138 19.5261 275.138 19.6245C275.138 19.7139 275.187 19.7586 275.286 19.7586H276.265L276.225 20H273.368L273.408 19.7586H274.025C274.141 19.7586 274.213 19.6915 274.24 19.5574C275.313 14.4788 275.849 11.9172 275.849 11.8725C275.849 11.8188 275.8 11.792 275.702 11.792H275.111L275.152 11.5506H278.143C278.751 11.5506 279.251 11.7205 279.645 12.0602C280.038 12.4 280.235 12.8694 280.235 13.4685C280.235 14.4162 279.908 15.1807 279.256 15.7619C278.603 16.3431 277.874 16.6336 277.07 16.6336ZM277.995 11.8591H276.775L275.822 16.3252H277.083C277.727 16.3252 278.263 16.0122 278.692 15.3864C279.131 14.7605 279.35 14.1033 279.35 13.4148C279.35 12.9678 279.233 12.5967 279.001 12.3016C278.777 12.0066 278.442 11.8591 277.995 11.8591ZM284.274 19.1551C284.274 19.0209 284.297 18.8064 284.341 18.5113H284.274C283.702 19.6111 283.04 20.1609 282.289 20.1609C281.485 20.1609 281.082 19.7139 281.082 18.8198C281.082 18.2386 281.288 17.1612 281.699 15.5875L281.941 14.6621L281.082 14.7292L281.069 14.5012C281.686 14.4207 282.262 14.3089 282.799 14.1659L282.987 14.3C282.236 16.6336 281.86 18.1268 281.86 18.7795C281.86 19.4322 282.106 19.7586 282.598 19.7586C283.009 19.7586 283.411 19.4591 283.805 18.86C284.207 18.252 284.538 17.4384 284.797 16.4191L285.253 14.6621L284.395 14.7292L284.382 14.5012C284.998 14.4207 285.575 14.3089 286.112 14.1659L286.299 14.3C285.986 15.2299 285.691 16.2268 285.414 17.2908C285.137 18.3548 284.998 19.0388 284.998 19.3428C284.998 19.6379 285.11 19.7854 285.334 19.7854C285.504 19.7854 285.687 19.6736 285.884 19.4501C286.08 19.2176 286.25 18.8913 286.393 18.4711L286.608 18.5247C286.223 19.6155 285.723 20.1609 285.106 20.1609C284.551 20.1609 284.274 19.8256 284.274 19.1551ZM289.03 17.6932H289.137L289.352 17.1031C290.103 15.0645 290.926 14.0452 291.82 14.0452C292.24 14.0452 292.589 14.2329 292.866 14.6085C293.152 14.9751 293.295 15.4311 293.295 15.9765C293.295 16.5129 293.223 17.0136 293.08 17.4786C292.937 17.9435 292.736 18.3816 292.477 18.7929C292.218 19.1953 291.873 19.5261 291.444 19.7854C291.015 20.0358 290.577 20.1609 290.13 20.1609C289.683 20.1609 289.298 20.076 288.976 19.9061C288.655 19.7273 288.404 19.4948 288.225 19.2087L288.346 18.8466C288.775 19.5261 289.325 19.8659 289.996 19.8659C290.505 19.8659 290.948 19.6334 291.323 19.1685C291.699 18.6946 291.963 18.176 292.115 17.6127C292.276 17.0405 292.356 16.5174 292.356 16.0435C292.356 15.5607 292.276 15.1941 292.115 14.9438C291.963 14.6845 291.784 14.5548 291.578 14.5548C291.373 14.5548 291.167 14.6442 290.961 14.8231C290.756 14.9929 290.532 15.2612 290.291 15.6278C289.772 16.4325 289.285 17.7513 288.829 19.5842L288.427 19.1551L288.024 20.1609L287.796 20.0805L289.902 11.6847L289.043 11.7518L289.03 11.5238C289.647 11.4433 290.224 11.3315 290.76 11.1885L290.948 11.3226C290.224 13.4327 289.584 15.5562 289.03 17.6932ZM295.358 19.3428C295.358 19.6379 295.469 19.7854 295.693 19.7854C295.863 19.7854 296.046 19.6736 296.243 19.4501C296.44 19.2176 296.609 18.8913 296.753 18.4711L296.967 18.5247C296.583 19.6155 296.082 20.1609 295.465 20.1609C294.911 20.1609 294.633 19.8122 294.633 19.1148C294.633 18.4085 295.219 15.9318 296.39 11.6847L295.532 11.7518L295.519 11.5238C296.136 11.4433 296.712 11.3315 297.249 11.1885L297.437 11.3226C297.061 12.4224 296.618 13.9155 296.109 15.8021C295.608 17.6798 295.358 18.86 295.358 19.3428ZM300.114 12.704C299.998 12.5878 299.939 12.4447 299.939 12.2748C299.939 12.1049 299.998 11.9619 300.114 11.8456C300.23 11.7294 300.373 11.6713 300.543 11.6713C300.713 11.6713 300.856 11.7294 300.972 11.8456C301.088 11.9619 301.147 12.1049 301.147 12.2748C301.147 12.4447 301.088 12.5878 300.972 12.704C300.856 12.8202 300.713 12.8784 300.543 12.8784C300.373 12.8784 300.23 12.8202 300.114 12.704ZM298.598 19.1551C298.598 18.6812 298.925 17.1835 299.577 14.6621L298.719 14.7292L298.706 14.5012C299.323 14.4207 299.899 14.3089 300.436 14.1659L300.623 14.3C300.311 15.2299 300.015 16.2268 299.738 17.2908C299.461 18.3548 299.323 19.0388 299.323 19.3428C299.323 19.6379 299.434 19.7854 299.658 19.7854C299.828 19.7854 300.011 19.6736 300.208 19.4501C300.404 19.2176 300.574 18.8913 300.717 18.4711L300.932 18.5247C300.547 19.6155 300.047 20.1609 299.43 20.1609C298.875 20.1609 298.598 19.8256 298.598 19.1551ZM305.336 14.3671C304.969 14.3671 304.63 14.5056 304.317 14.7828C304.013 15.06 303.771 15.4042 303.592 15.8155C303.235 16.6828 303.056 17.4339 303.056 18.0687C303.056 19.2489 303.414 19.8391 304.129 19.8391C305.014 19.8391 305.662 19.3562 306.074 18.3906L306.288 18.4442C306.074 18.9896 305.761 19.4144 305.349 19.7184C304.947 20.0134 304.491 20.1609 303.981 20.1609C303.472 20.1609 303.043 19.9732 302.694 19.5976C302.345 19.2221 302.171 18.7169 302.171 18.0821C302.171 17.4473 302.291 16.8348 302.533 16.2447C302.774 15.6456 303.15 15.1315 303.659 14.7024C304.169 14.2642 304.75 14.0452 305.403 14.0452C305.85 14.0452 306.185 14.1614 306.409 14.3939C306.641 14.6174 306.758 14.8901 306.758 15.212C306.758 15.5249 306.699 15.8066 306.583 16.0569C306.476 16.3073 306.302 16.4325 306.06 16.4325C305.828 16.4325 305.653 16.3609 305.537 16.2179C305.796 15.8245 305.926 15.44 305.926 15.0645C305.926 14.5995 305.729 14.3671 305.336 14.3671ZM310.747 11.9798L309.138 19.6245C309.138 19.7139 309.187 19.7586 309.285 19.7586H309.875L309.835 20H307.367L307.408 19.7586H308.024C308.141 19.7586 308.212 19.6915 308.239 19.5574C309.312 14.4788 309.848 11.9172 309.848 11.8725C309.848 11.8188 309.799 11.792 309.701 11.792H309.111L309.151 11.5506H311.619L311.579 11.792H310.975C310.859 11.792 310.783 11.8546 310.747 11.9798ZM312.665 17.6529L312.692 18.8868C312.71 19.4412 312.857 19.7184 313.134 19.7184C313.313 19.7184 313.461 19.6245 313.577 19.4367C313.702 19.2489 313.765 19.0075 313.765 18.7125L314.02 18.6722C314.02 19.1282 313.899 19.4904 313.657 19.7586C313.425 20.0268 313.13 20.1609 312.772 20.1609C312.137 20.1609 311.802 19.6826 311.766 18.7259L311.713 17.4115C311.686 16.8304 311.565 16.428 311.351 16.2045C311.136 15.972 310.783 15.8558 310.291 15.8558L310.358 15.6412L314.18 11.792H313.55L313.59 11.5506H315.32L315.28 11.792H314.932C314.788 11.792 314.659 11.8546 314.543 11.9798L310.908 15.6144C311.552 15.6233 311.999 15.8111 312.249 16.1776C312.508 16.5442 312.647 17.036 312.665 17.6529ZM318.893 14.0452C319.367 14.0452 319.72 14.1614 319.952 14.3939C320.194 14.6174 320.314 14.9438 320.314 15.3729C320.314 15.7932 320.149 16.1598 319.818 16.4727C319.255 17.0092 318.419 17.2774 317.31 17.2774C316.979 17.2774 316.693 17.2506 316.452 17.1969V16.9421C316.765 16.9868 317.024 17.0092 317.23 17.0092C317.972 17.0092 318.544 16.8214 318.946 16.4459C319.358 16.0704 319.563 15.6591 319.563 15.212C319.563 14.9706 319.496 14.7694 319.362 14.6085C319.237 14.4475 319.022 14.3671 318.718 14.3671C318.423 14.3671 318.119 14.5056 317.806 14.7828C317.502 15.06 317.261 15.4042 317.082 15.8155C316.725 16.6828 316.546 17.4339 316.546 18.0687C316.546 19.2489 316.903 19.8391 317.619 19.8391C318.504 19.8391 319.152 19.3562 319.563 18.3906L319.778 18.4442C319.563 18.9896 319.25 19.4144 318.839 19.7184C318.437 20.0134 317.981 20.1609 317.471 20.1609C316.962 20.1609 316.532 19.9732 316.184 19.5976C315.835 19.2221 315.661 18.7169 315.661 18.0821C315.661 17.4473 315.781 16.8348 316.023 16.2447C316.264 15.6456 316.64 15.1315 317.149 14.7024C317.659 14.2642 318.24 14.0452 318.893 14.0452ZM323.405 19.7184C323.978 19.7184 324.545 19.3026 325.109 18.4711C325.681 17.6306 325.967 16.8482 325.967 16.124C325.967 15.3908 325.735 14.7918 325.27 14.3268C325.493 14.1391 325.699 14.0452 325.887 14.0452C326.235 14.0452 326.41 14.5369 326.41 15.5205C326.41 16.504 326.302 17.4071 326.088 18.2296C325.873 19.0433 325.591 19.7362 325.243 20.3085C324.903 20.8807 324.514 21.3769 324.076 21.7972C323.227 22.6376 322.364 23.0579 321.487 23.0579C321.04 23.0579 320.705 22.9551 320.482 22.7494C320.249 22.5438 320.133 22.3024 320.133 22.0252C320.133 21.748 320.191 21.4976 320.307 21.2741C320.415 21.0506 320.58 20.9388 320.803 20.9388C321.027 20.9388 321.21 21.0014 321.353 21.1266C321.094 21.4574 320.964 21.7614 320.964 22.0386C320.964 22.4856 321.201 22.7092 321.675 22.7092C321.988 22.7092 322.35 22.5929 322.762 22.3605C323.173 22.1369 323.589 21.8151 324.009 21.3948C324.429 20.9835 324.814 20.4292 325.162 19.7318C325.52 19.0344 325.77 18.2788 325.913 17.4652C325.618 18.2431 325.22 18.8868 324.72 19.3965C324.228 19.9061 323.66 20.1609 323.016 20.1609C322.686 20.1609 322.417 20.0492 322.212 19.8256C322.015 19.5932 321.917 19.2802 321.917 18.8868C321.917 18.4934 322.064 17.8049 322.359 16.8214C322.663 15.8379 322.815 15.1941 322.815 14.8901C322.815 14.5772 322.699 14.4207 322.467 14.4207C322.297 14.4207 322.118 14.5369 321.93 14.7694C321.742 14.9929 321.59 15.3148 321.474 15.7351L321.246 15.6814C321.577 14.5906 322.055 14.0452 322.681 14.0452C323.262 14.0452 323.553 14.3581 323.553 14.984C323.553 15.2344 323.414 15.8558 323.137 16.8482C322.86 17.8407 322.721 18.4934 322.721 18.8064C322.721 19.4144 322.949 19.7184 323.405 19.7184ZM332.159 19.7586L331.797 17.1701H328.833L327.384 19.7586H328.216L328.176 20H326.244L326.298 19.7586H326.767C326.893 19.7586 326.986 19.696 327.049 19.5708L331.555 11.5506H331.985L333.084 19.5708C333.102 19.696 333.169 19.7586 333.286 19.7586H333.755L333.715 20H331.287L331.327 19.7586H332.159ZM331.22 12.9186L329.034 16.7946H331.743L331.22 12.9186ZM335.951 19.3428C335.951 19.6379 336.063 19.7854 336.287 19.7854C336.456 19.7854 336.64 19.6736 336.836 19.4501C337.033 19.2176 337.203 18.8913 337.346 18.4711L337.561 18.5247C337.176 19.6155 336.676 20.1609 336.059 20.1609C335.504 20.1609 335.227 19.8122 335.227 19.1148C335.227 18.4085 335.813 15.9318 336.984 11.6847L336.126 11.7518L336.112 11.5238C336.729 11.4433 337.306 11.3315 337.842 11.1885L338.03 11.3226C337.655 12.4224 337.212 13.9155 336.702 15.8021C336.202 17.6798 335.951 18.86 335.951 19.3428ZM339.742 19.2221L341.874 19.7049C342.339 19.8122 342.67 19.9553 342.867 20.1341C343.063 20.3219 343.162 20.5767 343.162 20.8986C343.162 21.4172 342.876 21.9045 342.303 22.3605C341.74 22.8254 341.096 23.0579 340.372 23.0579C339.648 23.0579 339.058 22.8925 338.602 22.5616C338.155 22.2308 337.931 21.8374 337.931 21.3814C337.931 21.0685 338.039 20.7689 338.253 20.4828C338.459 20.1967 338.767 19.9553 339.179 19.7586L339.447 19.8391C339.179 19.9732 338.973 20.1744 338.83 20.4426C338.687 20.7198 338.615 21.0104 338.615 21.3144C338.615 21.8151 338.781 22.1861 339.111 22.4275C339.442 22.6779 339.867 22.8031 340.386 22.8031C340.913 22.8031 341.396 22.6511 341.834 22.3471C342.281 22.052 342.505 21.6944 342.505 21.2741C342.505 20.8539 342.232 20.5812 341.687 20.456L339.38 19.9464C339.12 19.8927 338.919 19.772 338.776 19.5842C338.633 19.3965 338.562 19.1685 338.562 18.9002C338.562 18.632 338.673 18.3861 338.897 18.1626C339.12 17.9391 339.429 17.8273 339.822 17.8273H341.177L341.137 18.0151H339.822C339.635 18.0151 339.483 18.0732 339.366 18.1894C339.259 18.3056 339.205 18.4442 339.205 18.6052C339.205 18.936 339.384 19.1416 339.742 19.2221ZM341.995 14.2329L341.982 14.0452C342.232 14.0452 342.442 13.9871 342.612 13.8708C342.782 13.7456 342.867 13.5847 342.867 13.388C342.867 13.1913 342.724 13.0035 342.438 12.8247C342.581 12.5207 342.751 12.3687 342.947 12.3687C343.153 12.3687 343.305 12.4268 343.403 12.5431C343.511 12.6593 343.564 12.8068 343.564 12.9856C343.564 13.2986 343.421 13.5847 343.135 13.844C342.858 14.1033 342.478 14.2329 341.995 14.2329ZM339.541 16.5532C339.541 15.8915 339.773 15.3104 340.238 14.8096C340.712 14.3 341.293 14.0452 341.982 14.0452C342.464 14.0452 342.844 14.1748 343.122 14.4341C343.408 14.6845 343.551 15.0421 343.551 15.5071C343.551 16.2581 343.309 16.8661 342.827 17.3311C342.344 17.7871 341.78 18.0151 341.137 18.0151C340.645 18.0151 340.256 17.8899 339.97 17.6395C339.684 17.3802 339.541 17.0181 339.541 16.5532ZM341.968 14.3C341.476 14.3 341.074 14.5727 340.761 15.1181C340.448 15.6546 340.292 16.1329 340.292 16.5532C340.292 16.9734 340.368 17.2819 340.52 17.4786C340.681 17.6664 340.891 17.7602 341.15 17.7602C341.543 17.7602 341.919 17.5367 342.277 17.0896C342.634 16.6426 342.813 16.0793 342.813 15.3998C342.813 15.06 342.733 14.7918 342.572 14.5951C342.42 14.3984 342.219 14.3 341.968 14.3ZM344.768 18.0553C344.768 17.1344 345.037 16.2536 345.573 15.4132C345.832 15.0108 346.172 14.6845 346.592 14.4341C347.013 14.1748 347.491 14.0452 348.027 14.0452C348.573 14.0452 349.015 14.2285 349.355 14.5951C349.695 14.9616 349.865 15.4624 349.865 16.0972C349.865 16.732 349.749 17.3489 349.516 17.948C349.284 18.5471 348.917 19.0656 348.416 19.5038C347.916 19.9419 347.352 20.1609 346.726 20.1609C346.101 20.1609 345.618 19.9776 345.278 19.6111C344.938 19.2445 344.768 18.7259 344.768 18.0553ZM347.92 14.3402C347.437 14.3402 347.008 14.5816 346.633 15.0645C346.266 15.5473 346.002 16.0748 345.841 16.6471C345.689 17.2193 345.613 17.7558 345.613 18.2565C345.613 18.7482 345.712 19.1416 345.908 19.4367C346.114 19.7228 346.391 19.8659 346.74 19.8659C347.097 19.8659 347.428 19.7228 347.732 19.4367C348.045 19.1506 348.291 18.7974 348.47 18.3772C348.837 17.5188 349.02 16.7767 349.02 16.1508C349.02 15.516 348.921 15.0555 348.725 14.7694C348.528 14.4833 348.26 14.3402 347.92 14.3402Z" fill="#6082FA"/>
<path opacity="0.86" d="M357.739 5.52706C356.345 6.55976 355.258 8.00823 354.48 9.87247C353.702 11.7233 353.314 13.6412 353.314 15.6261C353.314 17.5976 353.77 19.0461 354.682 19.9715L354.4 20.2733C353.555 19.7502 352.911 19.0126 352.469 18.0604C352.039 17.1081 351.825 16.0486 351.825 14.8818C351.825 12.9639 352.348 11.0929 353.394 9.26894C354.454 7.43153 355.855 6.08365 357.599 5.22529L357.739 5.52706ZM365.856 9.45C365.386 10.8448 364.944 12.3402 364.528 13.9362C364.112 15.5322 363.904 16.5582 363.904 17.0142C363.904 17.4568 364.072 17.6781 364.407 17.6781C364.662 17.6781 364.937 17.5105 365.232 17.1752C365.527 16.8265 365.782 16.3369 365.996 15.7066L366.318 15.7871C365.742 17.4233 364.991 18.2414 364.065 18.2414C363.234 18.2414 362.818 17.7385 362.818 16.7326C362.818 16.5314 362.851 16.2095 362.918 15.7669H362.818C361.986 17.4166 361.021 18.2414 359.921 18.2414C359.291 18.2414 358.761 17.9665 358.332 17.4166C357.916 16.8533 357.708 16.1693 357.708 15.3646C357.708 14.5465 357.815 13.7887 358.03 13.0913C358.244 12.3939 358.546 11.7434 358.935 11.1399C359.324 10.5229 359.84 10.0267 360.484 9.65118C361.128 9.26223 361.832 9.06776 362.597 9.06776C363.589 9.06776 364.374 9.49023 364.95 10.3352L365.574 9.24882L365.856 9.45ZM360.404 17.6379C360.967 17.6379 361.537 17.202 362.114 16.3302C362.771 15.3244 363.381 13.6814 363.944 11.4014C364.065 10.8649 364.159 10.476 364.226 10.2346C363.757 9.77859 363.214 9.55059 362.597 9.55059C361.993 9.55059 361.45 9.75847 360.967 10.1742C360.498 10.59 360.129 11.1131 359.861 11.7434C359.311 13.0309 359.036 14.2447 359.036 15.3847C359.036 16.1358 359.156 16.6991 359.398 17.0746C359.653 17.4501 359.988 17.6379 360.404 17.6379ZM371.529 9.24882L371.81 9.45C371.167 10.9253 370.603 12.6219 370.121 14.5398H370.282L370.603 13.6546C371.234 11.9379 371.857 10.7442 372.474 10.0736C373.091 9.40306 373.628 9.06776 374.084 9.06776C374.54 9.06776 374.875 9.21529 375.09 9.51035C375.318 9.80541 375.432 10.1876 375.432 10.6571C375.432 11.1265 375.344 11.5355 375.17 11.8842C374.996 12.2329 374.741 12.4073 374.406 12.4073C374.084 12.4073 373.816 12.3 373.601 12.0854C373.735 11.9111 373.862 11.6562 373.983 11.3209C374.104 10.9856 374.164 10.6906 374.164 10.4358C374.164 10.0468 374.003 9.85235 373.681 9.85235C373.346 9.85235 372.93 10.1809 372.434 10.8381C371.348 12.2598 370.429 14.6471 369.678 18L368.27 18.1207L370.241 9.99318L368.954 10.0938L368.934 9.75176C369.859 9.63106 370.724 9.46341 371.529 9.24882ZM377.465 16.8332L380.664 17.5574C381.362 17.7184 381.858 17.9329 382.153 18.2012C382.448 18.4828 382.595 18.8651 382.595 19.3479C382.595 20.1258 382.166 20.8567 381.308 21.5407C380.463 22.2381 379.497 22.5868 378.411 22.5868C377.325 22.5868 376.439 22.3387 375.755 21.8425C375.085 21.3462 374.75 20.7561 374.75 20.0721C374.75 19.6027 374.91 19.1534 375.232 18.7242C375.541 18.2951 376.004 17.9329 376.62 17.6379L377.023 17.7586C376.62 17.9598 376.312 18.2615 376.097 18.6639C375.883 19.0796 375.776 19.5155 375.776 19.9715C375.776 20.7226 376.024 21.2792 376.52 21.6413C377.016 22.0168 377.653 22.2046 378.431 22.2046C379.222 22.2046 379.947 21.9766 380.604 21.5206C381.274 21.078 381.61 20.5415 381.61 19.9112C381.61 19.2808 381.201 18.8718 380.382 18.684L376.922 17.9195C376.533 17.8391 376.232 17.658 376.017 17.3764C375.802 17.0947 375.695 16.7527 375.695 16.3504C375.695 15.948 375.863 15.5792 376.198 15.2439C376.533 14.9086 376.996 14.7409 377.586 14.7409H379.618L379.558 15.0226H377.586C377.304 15.0226 377.076 15.1098 376.902 15.2841C376.741 15.4585 376.661 15.6664 376.661 15.9078C376.661 16.404 376.929 16.7125 377.465 16.8332ZM380.845 9.34941L380.825 9.06776C381.201 9.06776 381.516 8.98059 381.771 8.80623C382.025 8.61847 382.153 8.37706 382.153 8.082C382.153 7.78694 381.938 7.50529 381.509 7.23706C381.724 6.78106 381.978 6.55306 382.274 6.55306C382.582 6.55306 382.81 6.64023 382.958 6.81459C383.118 6.98894 383.199 7.21023 383.199 7.47847C383.199 7.94788 382.984 8.37706 382.555 8.766C382.139 9.15494 381.569 9.34941 380.845 9.34941ZM377.164 12.8298C377.164 11.8373 377.512 10.9655 378.21 10.2145C378.921 9.45 379.792 9.06776 380.825 9.06776C381.549 9.06776 382.119 9.26223 382.535 9.65118C382.964 10.0267 383.179 10.5632 383.179 11.2606C383.179 12.3872 382.817 13.2992 382.092 13.9966C381.368 14.6806 380.523 15.0226 379.558 15.0226C378.82 15.0226 378.237 14.8348 377.807 14.4593C377.378 14.0704 377.164 13.5272 377.164 12.8298ZM380.805 9.45C380.067 9.45 379.464 9.85906 378.994 10.6772C378.525 11.4819 378.29 12.1994 378.29 12.8298C378.29 13.4601 378.404 13.9228 378.632 14.2179C378.874 14.4995 379.189 14.6404 379.578 14.6404C380.168 14.6404 380.731 14.3051 381.268 13.6345C381.804 12.9639 382.072 12.1189 382.072 11.0996C382.072 10.59 381.952 10.1876 381.71 9.89259C381.482 9.59753 381.18 9.45 380.805 9.45ZM388.848 9.55059C388.338 9.55059 387.902 9.69812 387.54 9.99318C387.178 10.2882 386.997 10.6638 386.997 11.1198C386.997 11.5758 387.185 11.9915 387.56 12.3671C387.936 12.7426 388.345 13.0578 388.787 13.3126C389.23 13.554 389.639 13.8759 390.014 14.2782C390.39 14.6806 390.578 15.1098 390.578 15.5658C390.578 16.4241 390.242 17.088 389.572 17.5574C388.915 18.0134 388.117 18.2414 387.178 18.2414C386.239 18.2414 385.414 18.0201 384.703 17.5775C384.931 17.1215 385.146 16.3302 385.347 15.2036L385.689 15.264C385.595 15.8139 385.548 16.2498 385.548 16.5716C385.548 16.8801 385.696 17.1685 385.991 17.4367C386.299 17.6915 386.735 17.8189 387.299 17.8189C387.875 17.8189 388.358 17.6446 388.747 17.2959C389.149 16.9472 389.351 16.4912 389.351 15.9279C389.351 15.5658 389.169 15.2171 388.807 14.8818C388.459 14.5331 388.07 14.2447 387.641 14.0167C387.225 13.7887 386.836 13.4668 386.474 13.0511C386.125 12.6353 385.951 12.1793 385.951 11.6831C385.951 10.9454 386.239 10.3285 386.816 9.83223C387.406 9.32259 388.177 9.06776 389.129 9.06776C389.867 9.06776 390.598 9.24882 391.322 9.61094C391.255 9.75847 391.141 10.0938 390.98 10.6168C390.833 11.1399 390.719 11.6361 390.638 12.1055L390.296 12.0452C390.377 11.616 390.417 11.2069 390.417 10.818C390.417 10.4156 390.283 10.1072 390.014 9.89259C389.76 9.66459 389.371 9.55059 388.848 9.55059ZM392.326 20.2331C393.198 19.5625 393.634 18.8584 393.634 18.1207C393.634 17.7184 393.493 17.3898 393.211 17.1349C393.278 16.8265 393.433 16.5582 393.674 16.3302C393.929 16.1022 394.197 15.9882 394.479 15.9882C395.029 15.9882 395.303 16.2632 395.303 16.8131C395.303 17.3629 395.029 18.0134 394.479 18.7645C393.942 19.5289 393.278 20.1124 392.487 20.5147L392.326 20.2331ZM407.347 5.60753C408.125 5.25882 408.949 5.08447 409.821 5.08447C411.149 5.08447 412.195 5.48682 412.96 6.29153C413.737 7.08282 414.126 8.20271 414.126 9.65118C414.126 10.6302 413.965 11.6227 413.644 12.6286C413.322 13.6211 412.872 14.5398 412.296 15.3847C411.719 16.2296 410.968 16.9204 410.042 17.4568C409.117 17.9799 408.051 18.2414 406.844 18.2414C405.637 18.2414 404.644 17.8391 403.866 17.0344C403.102 16.2296 402.72 15.0628 402.72 13.5339C402.72 12.0049 403.135 10.4626 403.967 8.90682C404.812 7.35106 405.938 6.25129 407.347 5.60753ZM411.893 6.63353C411.357 5.94953 410.646 5.60753 409.761 5.60753C408.876 5.60753 408.058 5.89588 407.306 6.47259C406.555 7.03588 405.959 7.75341 405.516 8.62518C404.591 10.4224 404.128 12.1659 404.128 13.8558C404.128 15.0762 404.389 16.0285 404.912 16.7125C405.449 17.3831 406.16 17.7184 407.045 17.7184C407.944 17.7184 408.768 17.4367 409.519 16.8734C410.27 16.2967 410.874 15.5792 411.33 14.7208C412.255 12.9371 412.718 11.1935 412.718 9.49024C412.718 8.26976 412.443 7.31753 411.893 6.63353ZM415.775 10.0334L415.876 9.65118H420.945L420.845 10.0334H415.775ZM419.195 8.52459L417.304 17.3562C416.915 19.1266 416.439 20.4409 415.876 21.2993C415.312 22.1576 414.628 22.5868 413.824 22.5868C413.314 22.5868 412.918 22.4326 412.637 22.1241C412.355 21.8156 412.214 21.4669 412.214 21.078C412.214 20.7025 412.295 20.3605 412.456 20.052C412.603 19.7569 412.845 19.6094 413.18 19.6094C413.515 19.6094 413.757 19.6966 413.904 19.8709C413.73 20.0051 413.589 20.2062 413.482 20.4745C413.361 20.7427 413.301 21.0042 413.301 21.2591C413.301 21.8358 413.542 22.1241 414.025 22.1241C414.561 22.1241 414.97 21.7084 415.252 20.8768C415.534 20.0453 415.923 18.3755 416.419 15.8675L417.586 9.91271C417.867 8.49106 418.364 7.27059 419.074 6.25129C419.785 5.232 420.61 4.72235 421.549 4.72235C422.219 4.72235 422.722 4.87659 423.058 5.18506C423.406 5.49353 423.581 5.85565 423.581 6.27141C423.581 6.68718 423.494 7.06271 423.319 7.398C423.158 7.73329 422.897 7.90094 422.535 7.90094C422.172 7.90094 421.911 7.80706 421.75 7.61929C422.139 7.12306 422.333 6.62012 422.333 6.11047C422.333 5.49353 422.038 5.18506 421.448 5.18506C420.872 5.18506 420.409 5.48012 420.06 6.07023C419.711 6.64694 419.423 7.46506 419.195 8.52459ZM422.012 10.0334L422.113 9.65118H427.183L427.082 10.0334H422.012ZM425.432 8.52459L423.541 17.3562C423.152 19.1266 422.676 20.4409 422.113 21.2993C421.55 22.1576 420.866 22.5868 420.061 22.5868C419.551 22.5868 419.156 22.4326 418.874 22.1241C418.592 21.8156 418.451 21.4669 418.451 21.078C418.451 20.7025 418.532 20.3605 418.693 20.052C418.84 19.7569 419.082 19.6094 419.417 19.6094C419.752 19.6094 419.994 19.6966 420.141 19.8709C419.967 20.0051 419.826 20.2062 419.719 20.4745C419.598 20.7427 419.538 21.0042 419.538 21.2591C419.538 21.8358 419.779 22.1241 420.262 22.1241C420.799 22.1241 421.208 21.7084 421.489 20.8768C421.771 20.0453 422.16 18.3755 422.656 15.8675L423.823 9.91271C424.105 8.49106 424.601 7.27059 425.312 6.25129C426.022 5.232 426.847 4.72235 427.786 4.72235C428.457 4.72235 428.96 4.87659 429.295 5.18506C429.644 5.49353 429.818 5.85565 429.818 6.27141C429.818 6.68718 429.731 7.06271 429.556 7.398C429.395 7.73329 429.134 7.90094 428.772 7.90094C428.41 7.90094 428.148 7.80706 427.987 7.61929C428.376 7.12306 428.571 6.62012 428.571 6.11047C428.571 5.49353 428.276 5.18506 427.685 5.18506C427.109 5.18506 426.646 5.48012 426.297 6.07023C425.949 6.64694 425.66 7.46506 425.432 8.52459ZM432.857 9.06776C433.567 9.06776 434.097 9.24212 434.446 9.59082C434.808 9.92612 434.989 10.4156 434.989 11.0594C434.989 11.6898 434.741 12.2396 434.245 12.7091C433.4 13.5138 432.146 13.9161 430.483 13.9161C429.986 13.9161 429.557 13.8759 429.195 13.7954V13.4132C429.665 13.4802 430.053 13.5138 430.362 13.5138C431.475 13.5138 432.333 13.2321 432.937 12.6688C433.554 12.1055 433.862 11.4886 433.862 10.818C433.862 10.4559 433.762 10.1541 433.561 9.91271C433.373 9.67129 433.051 9.55059 432.595 9.55059C432.152 9.55059 431.696 9.75847 431.227 10.1742C430.771 10.59 430.409 11.1064 430.141 11.7233C429.604 13.0242 429.336 14.1508 429.336 15.1031C429.336 16.8734 429.872 17.7586 430.945 17.7586C432.273 17.7586 433.245 17.0344 433.862 15.5859L434.184 15.6664C433.862 16.4845 433.393 17.1215 432.776 17.5775C432.173 18.0201 431.489 18.2414 430.724 18.2414C429.96 18.2414 429.316 17.9598 428.793 17.3965C428.27 16.8332 428.008 16.0754 428.008 15.1232C428.008 14.1709 428.189 13.2522 428.551 12.3671C428.913 11.4685 429.477 10.6973 430.241 10.0535C431.006 9.39635 431.877 9.06776 432.857 9.06776ZM439.766 9.24882L440.048 9.45C439.404 10.9253 438.841 12.6219 438.358 14.5398H438.519L438.841 13.6546C439.471 11.9379 440.095 10.7442 440.712 10.0736C441.329 9.40306 441.865 9.06776 442.321 9.06776C442.777 9.06776 443.112 9.21529 443.327 9.51035C443.555 9.80541 443.669 10.1876 443.669 10.6571C443.669 11.1265 443.582 11.5355 443.407 11.8842C443.233 12.2329 442.978 12.4073 442.643 12.4073C442.321 12.4073 442.053 12.3 441.838 12.0854C441.972 11.9111 442.1 11.6562 442.22 11.3209C442.341 10.9856 442.402 10.6906 442.402 10.4358C442.402 10.0468 442.241 9.85235 441.919 9.85235C441.583 9.85235 441.168 10.1809 440.671 10.8381C439.585 12.2598 438.666 14.6471 437.915 18L436.507 18.1207L438.479 9.99318L437.191 10.0938L437.171 9.75176C438.096 9.63106 438.961 9.46341 439.766 9.24882ZM444.636 17.9396C444.435 17.7251 444.335 17.4702 444.335 17.1752C444.335 16.8801 444.435 16.632 444.636 16.4308C444.851 16.2162 445.106 16.1089 445.401 16.1089C445.696 16.1089 445.944 16.2162 446.145 16.4308C446.36 16.632 446.467 16.8801 446.467 17.1752C446.467 17.4702 446.36 17.7251 446.145 17.9396C445.944 18.1408 445.696 18.2414 445.401 18.2414C445.106 18.2414 444.851 18.1408 444.636 17.9396ZM456.695 9.45C456.225 10.8448 455.783 12.3402 455.367 13.9362C454.951 15.5322 454.743 16.5582 454.743 17.0142C454.743 17.4568 454.911 17.6781 455.246 17.6781C455.501 17.6781 455.776 17.5105 456.071 17.1752C456.366 16.8265 456.621 16.3369 456.835 15.7066L457.157 15.7871C456.581 17.4233 455.83 18.2414 454.904 18.2414C454.073 18.2414 453.657 17.7385 453.657 16.7326C453.657 16.5314 453.69 16.2095 453.757 15.7669H453.657C452.825 17.4166 451.86 18.2414 450.76 18.2414C450.13 18.2414 449.6 17.9665 449.171 17.4166C448.755 16.8533 448.547 16.1693 448.547 15.3646C448.547 14.5465 448.654 13.7887 448.869 13.0913C449.083 12.3939 449.385 11.7434 449.774 11.1399C450.163 10.5229 450.679 10.0267 451.323 9.65118C451.967 9.26223 452.671 9.06776 453.436 9.06776C454.428 9.06776 455.213 9.49023 455.789 10.3352L456.413 9.24882L456.695 9.45ZM451.243 17.6379C451.806 17.6379 452.376 17.202 452.953 16.3302C453.61 15.3244 454.22 13.6814 454.783 11.4014C454.904 10.8649 454.998 10.476 455.065 10.2346C454.596 9.77859 454.053 9.55059 453.436 9.55059C452.832 9.55059 452.289 9.75847 451.806 10.1742C451.337 10.59 450.968 11.1131 450.7 11.7434C450.15 13.0309 449.875 14.2447 449.875 15.3847C449.875 16.1358 449.995 16.6991 450.237 17.0746C450.492 17.4501 450.827 17.6379 451.243 17.6379ZM462.368 9.24882L462.649 9.45C462.006 10.9253 461.442 12.6219 460.96 14.5398H461.121L461.442 13.6546C462.073 11.9379 462.696 10.7442 463.313 10.0736C463.93 9.40306 464.467 9.06776 464.923 9.06776C465.379 9.06776 465.714 9.21529 465.929 9.51035C466.157 9.80541 466.271 10.1876 466.271 10.6571C466.271 11.1265 466.183 11.5355 466.009 11.8842C465.835 12.2329 465.58 12.4073 465.245 12.4073C464.923 12.4073 464.655 12.3 464.44 12.0854C464.574 11.9111 464.701 11.6562 464.822 11.3209C464.943 10.9856 465.003 10.6906 465.003 10.4358C465.003 10.0468 464.842 9.85235 464.52 9.85235C464.185 9.85235 463.769 10.1809 463.273 10.8381C462.187 12.2598 461.268 14.6471 460.517 18L459.109 18.1207L461.08 9.99318L459.793 10.0938L459.773 9.75176C460.698 9.63106 461.563 9.46341 462.368 9.24882ZM468.304 16.8332L471.503 17.5574C472.201 17.7184 472.697 17.9329 472.992 18.2012C473.287 18.4828 473.434 18.8651 473.434 19.3479C473.434 20.1258 473.005 20.8567 472.147 21.5407C471.302 22.2381 470.336 22.5868 469.25 22.5868C468.164 22.5868 467.278 22.3387 466.594 21.8425C465.924 21.3462 465.589 20.7561 465.589 20.0721C465.589 19.6027 465.749 19.1534 466.071 18.7242C466.38 18.2951 466.843 17.9329 467.459 17.6379L467.862 17.7586C467.459 17.9598 467.151 18.2615 466.936 18.6639C466.722 19.0796 466.615 19.5155 466.615 19.9715C466.615 20.7226 466.863 21.2792 467.359 21.6413C467.855 22.0168 468.492 22.2046 469.27 22.2046C470.061 22.2046 470.786 21.9766 471.443 21.5206C472.113 21.078 472.449 20.5415 472.449 19.9112C472.449 19.2808 472.04 18.8718 471.221 18.684L467.761 17.9195C467.372 17.8391 467.071 17.658 466.856 17.3764C466.641 17.0947 466.534 16.7527 466.534 16.3504C466.534 15.948 466.702 15.5792 467.037 15.2439C467.372 14.9086 467.835 14.7409 468.425 14.7409H470.457L470.397 15.0226H468.425C468.143 15.0226 467.915 15.1098 467.741 15.2841C467.58 15.4585 467.5 15.6664 467.5 15.9078C467.5 16.404 467.768 16.7125 468.304 16.8332ZM471.684 9.34941L471.664 9.06776C472.04 9.06776 472.355 8.98059 472.61 8.80623C472.864 8.61847 472.992 8.37706 472.992 8.082C472.992 7.78694 472.777 7.50529 472.348 7.23706C472.563 6.78106 472.817 6.55306 473.113 6.55306C473.421 6.55306 473.649 6.64023 473.797 6.81459C473.957 6.98894 474.038 7.21023 474.038 7.47847C474.038 7.94788 473.823 8.37706 473.394 8.766C472.978 9.15494 472.408 9.34941 471.684 9.34941ZM468.003 12.8298C468.003 11.8373 468.351 10.9655 469.049 10.2145C469.76 9.45 470.631 9.06776 471.664 9.06776C472.388 9.06776 472.958 9.26223 473.374 9.65118C473.803 10.0267 474.018 10.5632 474.018 11.2606C474.018 12.3872 473.656 13.2992 472.931 13.9966C472.207 14.6806 471.362 15.0226 470.397 15.0226C469.659 15.0226 469.076 14.8348 468.646 14.4593C468.217 14.0704 468.003 13.5272 468.003 12.8298ZM471.644 9.45C470.906 9.45 470.303 9.85906 469.833 10.6772C469.364 11.4819 469.129 12.1994 469.129 12.8298C469.129 13.4601 469.243 13.9228 469.471 14.2179C469.713 14.4995 470.028 14.6404 470.417 14.6404C471.007 14.6404 471.57 14.3051 472.107 13.6345C472.643 12.9639 472.911 12.1189 472.911 11.0996C472.911 10.59 472.791 10.1876 472.549 9.89259C472.321 9.59753 472.019 9.45 471.644 9.45ZM479.687 9.55059C479.177 9.55059 478.741 9.69812 478.379 9.99318C478.017 10.2882 477.836 10.6638 477.836 11.1198C477.836 11.5758 478.024 11.9915 478.399 12.3671C478.775 12.7426 479.184 13.0578 479.626 13.3126C480.069 13.554 480.478 13.8759 480.853 14.2782C481.229 14.6806 481.417 15.1098 481.417 15.5658C481.417 16.4241 481.081 17.088 480.411 17.5574C479.754 18.0134 478.956 18.2414 478.017 18.2414C477.078 18.2414 476.253 18.0201 475.542 17.5775C475.77 17.1215 475.985 16.3302 476.186 15.2036L476.528 15.264C476.434 15.8139 476.387 16.2498 476.387 16.5716C476.387 16.8801 476.535 17.1685 476.83 17.4367C477.138 17.6915 477.574 17.8189 478.138 17.8189C478.714 17.8189 479.197 17.6446 479.586 17.2959C479.988 16.9472 480.19 16.4912 480.19 15.9279C480.19 15.5658 480.008 15.2171 479.646 14.8818C479.298 14.5331 478.909 14.2447 478.48 14.0167C478.064 13.7887 477.675 13.4668 477.313 13.0511C476.964 12.6353 476.79 12.1793 476.79 11.6831C476.79 10.9454 477.078 10.3285 477.655 9.83223C478.245 9.32259 479.016 9.06776 479.968 9.06776C480.706 9.06776 481.437 9.24882 482.161 9.61094C482.094 9.75847 481.98 10.0938 481.819 10.6168C481.672 11.1399 481.558 11.6361 481.477 12.1055L481.135 12.0452C481.216 11.616 481.256 11.2069 481.256 10.818C481.256 10.4156 481.122 10.1072 480.853 9.89259C480.599 9.66459 480.21 9.55059 479.687 9.55059ZM488.818 12.9505H486.847C486.23 15.7938 485.921 17.2892 485.921 17.4367C485.921 17.5708 485.995 17.6379 486.142 17.6379H487.611L487.551 18H483.266L483.326 17.6379H484.251C484.426 17.6379 484.533 17.5373 484.573 17.3361C486.183 9.71824 486.987 5.87576 486.987 5.80871C486.987 5.72823 486.914 5.688 486.766 5.688H485.881L485.941 5.32588H490.428C491.34 5.32588 492.091 5.58071 492.681 6.09035C493.271 6.6 493.566 7.30412 493.566 8.20271C493.566 9.62435 493.076 10.7711 492.097 11.6428C491.118 12.5146 490.025 12.9505 488.818 12.9505ZM490.206 5.78859H488.376L486.947 12.4878H488.838C489.804 12.4878 490.609 12.0184 491.252 11.0795C491.91 10.1407 492.238 9.15494 492.238 8.12223C492.238 7.45165 492.064 6.89506 491.715 6.45247C491.38 6.00988 490.877 5.78859 490.206 5.78859ZM499.625 16.7326C499.625 16.5314 499.659 16.2095 499.726 15.7669H499.625C498.767 17.4166 497.774 18.2414 496.648 18.2414C495.441 18.2414 494.837 17.5708 494.837 16.2296C494.837 15.3579 495.146 13.7418 495.762 11.3813L496.125 9.99318L494.837 10.0938L494.817 9.75176C495.742 9.63106 496.607 9.46341 497.412 9.24882L497.694 9.45C496.567 12.9505 496.004 15.1902 496.004 16.1693C496.004 17.1484 496.373 17.6379 497.11 17.6379C497.727 17.6379 498.331 17.1886 498.921 16.29C499.525 15.378 500.021 14.1575 500.41 12.6286L501.094 9.99318L499.806 10.0938L499.786 9.75176C500.711 9.63106 501.577 9.46341 502.381 9.24882L502.663 9.45C502.193 10.8448 501.751 12.3402 501.335 13.9362C500.919 15.5322 500.711 16.5582 500.711 17.0142C500.711 17.4568 500.879 17.6781 501.214 17.6781C501.469 17.6781 501.744 17.5105 502.039 17.1752C502.334 16.8265 502.589 16.3369 502.804 15.7066L503.126 15.7871C502.549 17.4233 501.798 18.2414 500.872 18.2414C500.041 18.2414 499.625 17.7385 499.625 16.7326ZM506.759 14.5398H506.92L507.242 13.6546C508.368 10.5967 509.602 9.06776 510.943 9.06776C511.574 9.06776 512.097 9.34941 512.512 9.91271C512.942 10.4626 513.156 11.1466 513.156 11.9647C513.156 12.7694 513.049 13.5205 512.834 14.2179C512.62 14.9153 512.318 15.5725 511.929 16.1894C511.54 16.7929 511.024 17.2892 510.38 17.6781C509.736 18.0536 509.079 18.2414 508.408 18.2414C507.738 18.2414 507.161 18.114 506.678 17.8592C506.196 17.5909 505.82 17.2422 505.552 16.8131L505.733 16.2699C506.377 17.2892 507.201 17.7988 508.207 17.7988C508.972 17.7988 509.636 17.4501 510.199 16.7527C510.762 16.0419 511.158 15.264 511.386 14.4191C511.627 13.5607 511.748 12.7761 511.748 12.0653C511.748 11.3411 511.627 10.7912 511.386 10.4156C511.158 10.0267 510.89 9.83223 510.581 9.83223C510.273 9.83223 509.964 9.96635 509.656 10.2346C509.347 10.4894 509.012 10.8918 508.65 11.4416C507.872 12.6487 507.141 14.6269 506.457 17.3764L505.854 16.7326L505.25 18.2414L504.908 18.1207L508.066 5.52706L506.779 5.62765L506.759 5.28565C507.684 5.16494 508.549 4.99729 509.354 4.78271L509.636 4.98388C508.549 8.14906 507.59 11.3344 506.759 14.5398ZM516.25 17.0142C516.25 17.4568 516.418 17.6781 516.753 17.6781C517.008 17.6781 517.283 17.5105 517.578 17.1752C517.873 16.8265 518.128 16.3369 518.343 15.7066L518.664 15.7871C518.088 17.4233 517.337 18.2414 516.411 18.2414C515.58 18.2414 515.164 17.7184 515.164 16.6722C515.164 15.6127 516.042 11.8976 517.799 5.52706L516.512 5.62765L516.492 5.28565C517.417 5.16494 518.282 4.99729 519.087 4.78271L519.369 4.98388C518.805 6.63353 518.141 8.87329 517.377 11.7032C516.626 14.5196 516.25 16.29 516.25 17.0142ZM523.385 7.056C523.21 6.88165 523.123 6.66706 523.123 6.41223C523.123 6.15741 523.21 5.94282 523.385 5.76847C523.559 5.59412 523.773 5.50694 524.028 5.50694C524.283 5.50694 524.498 5.59412 524.672 5.76847C524.846 5.94282 524.934 6.15741 524.934 6.41223C524.934 6.66706 524.846 6.88165 524.672 7.056C524.498 7.23035 524.283 7.31753 524.028 7.31753C523.773 7.31753 523.559 7.23035 523.385 7.056ZM521.111 16.7326C521.111 16.0218 521.601 13.7753 522.58 9.99318L521.292 10.0938L521.272 9.75176C522.198 9.63106 523.063 9.46341 523.867 9.24882L524.149 9.45C523.68 10.8448 523.237 12.3402 522.821 13.9362C522.405 15.5322 522.198 16.5582 522.198 17.0142C522.198 17.4568 522.365 17.6781 522.701 17.6781C522.955 17.6781 523.23 17.5105 523.525 17.1752C523.82 16.8265 524.075 16.3369 524.29 15.7066L524.612 15.7871C524.035 17.4233 523.284 18.2414 522.359 18.2414C521.527 18.2414 521.111 17.7385 521.111 16.7326ZM531.218 9.55059C530.668 9.55059 530.158 9.75847 529.689 10.1742C529.233 10.59 528.871 11.1064 528.602 11.7233C528.066 13.0242 527.798 14.1508 527.798 15.1031C527.798 16.8734 528.334 17.7586 529.407 17.7586C530.735 17.7586 531.707 17.0344 532.324 15.5859L532.646 15.6664C532.324 16.4845 531.855 17.1215 531.238 17.5775C530.634 18.0201 529.95 18.2414 529.186 18.2414C528.421 18.2414 527.778 17.9598 527.254 17.3965C526.731 16.8332 526.47 16.0754 526.47 15.1232C526.47 14.1709 526.651 13.2522 527.013 12.3671C527.375 11.4685 527.938 10.6973 528.703 10.0535C529.467 9.39635 530.339 9.06776 531.318 9.06776C531.989 9.06776 532.492 9.24212 532.827 9.59082C533.176 9.92612 533.35 10.3352 533.35 10.818C533.35 11.2874 533.263 11.7099 533.089 12.0854C532.928 12.4609 532.666 12.6487 532.304 12.6487C531.955 12.6487 531.694 12.5414 531.519 12.3268C531.908 11.7367 532.103 11.16 532.103 10.5967C532.103 9.89929 531.808 9.55059 531.218 9.55059ZM539.334 5.96965L536.92 17.4367C536.92 17.5708 536.994 17.6379 537.142 17.6379H538.027L537.966 18H534.265L534.325 17.6379H535.25C535.425 17.6379 535.532 17.5373 535.572 17.3361C537.182 9.71824 537.986 5.87576 537.986 5.80871C537.986 5.72823 537.913 5.688 537.765 5.688H536.88L536.94 5.32588H540.642L540.582 5.688H539.676C539.502 5.688 539.388 5.78188 539.334 5.96965ZM542.211 14.4794L542.251 16.3302C542.278 17.1618 542.5 17.5775 542.915 17.5775C543.184 17.5775 543.405 17.4367 543.579 17.1551C543.767 16.8734 543.861 16.5113 543.861 16.0687L544.243 16.0084C544.243 16.6924 544.062 17.2355 543.7 17.6379C543.351 18.0402 542.909 18.2414 542.372 18.2414C541.42 18.2414 540.917 17.5239 540.863 16.0888L540.783 14.1173C540.743 13.2455 540.562 12.642 540.24 12.3067C539.918 11.958 539.388 11.7836 538.65 11.7836L538.751 11.4618L544.484 5.688H543.539L543.599 5.32588H546.194L546.134 5.688H545.611C545.396 5.688 545.202 5.78188 545.028 5.96965L539.576 11.4215C540.541 11.4349 541.212 11.7166 541.588 12.2665C541.976 12.8164 542.184 13.554 542.211 14.4794ZM551.553 9.06776C552.264 9.06776 552.794 9.24212 553.142 9.59082C553.504 9.92612 553.685 10.4156 553.685 11.0594C553.685 11.6898 553.437 12.2396 552.941 12.7091C552.096 13.5138 550.842 13.9161 549.179 13.9161C548.683 13.9161 548.254 13.8759 547.892 13.7954V13.4132C548.361 13.4802 548.75 13.5138 549.058 13.5138C550.172 13.5138 551.03 13.2321 551.633 12.6688C552.25 12.1055 552.559 11.4886 552.559 10.818C552.559 10.4559 552.458 10.1541 552.257 9.91271C552.069 9.67129 551.747 9.55059 551.291 9.55059C550.849 9.55059 550.393 9.75847 549.923 10.1742C549.467 10.59 549.105 11.1064 548.837 11.7233C548.301 13.0242 548.032 14.1508 548.032 15.1031C548.032 16.8734 548.569 17.7586 549.642 17.7586C550.97 17.7586 551.942 17.0344 552.559 15.5859L552.881 15.6664C552.559 16.4845 552.089 17.1215 551.473 17.5775C550.869 18.0201 550.185 18.2414 549.421 18.2414C548.656 18.2414 548.012 17.9598 547.489 17.3965C546.966 16.8332 546.705 16.0754 546.705 15.1232C546.705 14.1709 546.886 13.2522 547.248 12.3671C547.61 11.4685 548.173 10.6973 548.938 10.0535C549.702 9.39635 550.574 9.06776 551.553 9.06776ZM558.322 17.5775C559.18 17.5775 560.032 16.9539 560.877 15.7066C561.735 14.4459 562.164 13.2724 562.164 12.186C562.164 11.0862 561.816 10.1876 561.118 9.49024C561.453 9.20859 561.762 9.06776 562.044 9.06776C562.567 9.06776 562.828 9.80541 562.828 11.2807C562.828 12.756 562.667 14.1106 562.345 15.3445C562.023 16.5649 561.601 17.6044 561.078 18.4627C560.568 19.3211 559.985 20.0654 559.328 20.6958C558.054 21.9565 556.759 22.5868 555.445 22.5868C554.774 22.5868 554.271 22.4326 553.936 22.1241C553.587 21.8156 553.413 21.4535 553.413 21.0378C553.413 20.622 553.5 20.2465 553.675 19.9112C553.836 19.5759 554.084 19.4082 554.419 19.4082C554.754 19.4082 555.029 19.5021 555.244 19.6899C554.855 20.1861 554.66 20.6421 554.66 21.0579C554.66 21.7285 555.016 22.0638 555.727 22.0638C556.196 22.0638 556.739 21.8894 557.356 21.5407C557.973 21.2054 558.597 20.7226 559.227 20.0922C559.857 19.4753 560.434 18.6438 560.957 17.5976C561.494 16.5515 561.869 15.4182 562.084 14.1978C561.641 15.3646 561.044 16.3302 560.293 17.0947C559.556 17.8592 558.704 18.2414 557.738 18.2414C557.242 18.2414 556.84 18.0738 556.531 17.7385C556.236 17.3898 556.089 16.9204 556.089 16.3302C556.089 15.7401 556.31 14.7074 556.753 13.2321C557.209 11.7568 557.437 10.7912 557.437 10.3352C557.437 9.86576 557.262 9.63106 556.914 9.63106C556.659 9.63106 556.39 9.80541 556.109 10.1541C555.827 10.4894 555.599 10.9722 555.425 11.6026L555.083 11.5221C555.579 9.88588 556.297 9.06776 557.235 9.06776C558.107 9.06776 558.543 9.53718 558.543 10.476C558.543 10.8515 558.335 11.7836 557.919 13.2724C557.504 14.7611 557.296 15.7401 557.296 16.2095C557.296 17.1215 557.638 17.5775 558.322 17.5775ZM563.264 19.9715C564.605 18.9522 565.672 17.4971 566.463 15.606C567.254 13.7149 567.65 11.8038 567.65 9.87247C567.65 7.92776 567.201 6.47929 566.302 5.52706L566.543 5.22529C567.415 5.74835 568.066 6.486 568.495 7.43823C568.924 8.37706 569.139 9.43659 569.139 10.6168C569.139 12.5347 568.609 14.4124 567.549 16.2498C566.503 18.0872 565.102 19.4284 563.345 20.2733L563.264 19.9715Z" fill="#6082FA"/>
</svg>
