<svg width="161" height="23" viewBox="0 0 161 23" fill="none" xmlns="http://www.w3.org/2000/svg">
<path opacity="0.86" d="M5.63294 5.60753C6.41082 5.25882 7.23565 5.08447 8.10741 5.08447C9.43518 5.08447 10.4813 5.48682 11.2458 6.29153C12.0236 7.08282 12.4126 8.20271 12.4126 9.65118C12.4126 10.6302 12.2516 11.6227 11.9298 12.6286C11.6079 13.6211 11.1586 14.5398 10.5819 15.3847C10.0052 16.2296 9.25412 16.9204 8.32871 17.4568C7.40329 17.9799 6.33706 18.2414 5.13 18.2414C3.92294 18.2414 2.93047 17.8391 2.15259 17.0344C1.38812 16.2296 1.00588 15.0628 1.00588 13.5339C1.00588 12.0049 1.42165 10.4626 2.25318 8.90682C3.09812 7.35106 4.22471 6.25129 5.63294 5.60753ZM10.1795 6.63353C9.64306 5.94953 8.93224 5.60753 8.04706 5.60753C7.16188 5.60753 6.34377 5.89588 5.59271 6.47259C4.84165 7.03588 4.24482 7.75341 3.80224 8.62518C2.87682 10.4224 2.41412 12.1659 2.41412 13.8558C2.41412 15.0762 2.67565 16.0285 3.19871 16.7125C3.73518 17.3831 4.446 17.7184 5.33118 17.7184C6.22977 17.7184 7.05459 17.4367 7.80565 16.8734C8.55671 16.2967 9.16024 15.5792 9.61624 14.7208C10.5416 12.9371 11.0044 11.1935 11.0044 9.49024C11.0044 8.26976 10.7294 7.31753 10.1795 6.63353ZM14.0613 10.0334L14.1619 9.65118H19.2315L19.1309 10.0334H14.0613ZM17.4813 8.52459L15.5902 17.3562C15.2013 19.1266 14.7252 20.4409 14.1619 21.2993C13.5986 22.1576 12.9146 22.5868 12.1099 22.5868C11.6002 22.5868 11.2046 22.4326 10.9229 22.1241C10.6413 21.8156 10.5005 21.4669 10.5005 21.078C10.5005 20.7025 10.5809 20.3605 10.7419 20.052C10.8894 19.7569 11.1308 19.6094 11.4661 19.6094C11.8014 19.6094 12.0428 19.6966 12.1904 19.8709C12.016 20.0051 11.8752 20.2062 11.7679 20.4745C11.6472 20.7427 11.5868 21.0042 11.5868 21.2591C11.5868 21.8358 11.8282 22.1241 12.3111 22.1241C12.8475 22.1241 13.2566 21.7084 13.5382 20.8768C13.8199 20.0453 14.2088 18.3755 14.7051 15.8675L15.8719 9.91271C16.1535 8.49106 16.6498 7.27059 17.3606 6.25129C18.0714 5.232 18.8962 4.72235 19.8351 4.72235C20.5056 4.72235 21.0086 4.87659 21.3439 5.18506C21.6926 5.49353 21.8669 5.85565 21.8669 6.27141C21.8669 6.68718 21.7798 7.06271 21.6054 7.398C21.4445 7.73329 21.1829 7.90094 20.8208 7.90094C20.4587 7.90094 20.1972 7.80706 20.0362 7.61929C20.4252 7.12306 20.6196 6.62012 20.6196 6.11047C20.6196 5.49353 20.3246 5.18506 19.7345 5.18506C19.1578 5.18506 18.6951 5.48012 18.3464 6.07023C17.9976 6.64694 17.7093 7.46506 17.4813 8.52459ZM20.2985 10.0334L20.3991 9.65118H25.4688L25.3682 10.0334H20.2985ZM23.7185 8.52459L21.8275 17.3562C21.4385 19.1266 20.9624 20.4409 20.3991 21.2993C19.8358 22.1576 19.1518 22.5868 18.3471 22.5868C17.8375 22.5868 17.4418 22.4326 17.1602 22.1241C16.8785 21.8156 16.7377 21.4669 16.7377 21.078C16.7377 20.7025 16.8182 20.3605 16.9791 20.052C17.1267 19.7569 17.3681 19.6094 17.7034 19.6094C18.0387 19.6094 18.2801 19.6966 18.4276 19.8709C18.2533 20.0051 18.1124 20.2062 18.0051 20.4745C17.8844 20.7427 17.8241 21.0042 17.8241 21.2591C17.8241 21.8358 18.0655 22.1241 18.5483 22.1241C19.0848 22.1241 19.4938 21.7084 19.7755 20.8768C20.0571 20.0453 20.4461 18.3755 20.9423 15.8675L22.1091 9.91271C22.3908 8.49106 22.887 7.27059 23.5978 6.25129C24.3087 5.232 25.1335 4.72235 26.0723 4.72235C26.7429 4.72235 27.2458 4.87659 27.5811 5.18506C27.9298 5.49353 28.1042 5.85565 28.1042 6.27141C28.1042 6.68718 28.017 7.06271 27.8427 7.398C27.6817 7.73329 27.4202 7.90094 27.0581 7.90094C26.696 7.90094 26.4344 7.80706 26.2735 7.61929C26.6624 7.12306 26.8569 6.62012 26.8569 6.11047C26.8569 5.49353 26.5618 5.18506 25.9717 5.18506C25.395 5.18506 24.9323 5.48012 24.5836 6.07023C24.2349 6.64694 23.9465 7.46506 23.7185 8.52459ZM31.1427 9.06776C31.8536 9.06776 32.3833 9.24212 32.732 9.59082C33.0942 9.92612 33.2752 10.4156 33.2752 11.0594C33.2752 11.6898 33.0271 12.2396 32.5309 12.7091C31.6859 13.5138 30.4319 13.9161 28.7689 13.9161C28.2726 13.9161 27.8435 13.8759 27.4813 13.7954V13.4132C27.9507 13.4802 28.3397 13.5138 28.6482 13.5138C29.7613 13.5138 30.6197 13.2321 31.2232 12.6688C31.8402 12.1055 32.1486 11.4886 32.1486 10.818C32.1486 10.4559 32.048 10.1541 31.8469 9.91271C31.6591 9.67129 31.3372 9.55059 30.8812 9.55059C30.4386 9.55059 29.9826 9.75847 29.5132 10.1742C29.0572 10.59 28.6951 11.1064 28.4269 11.7233C27.8904 13.0242 27.6222 14.1508 27.6222 15.1031C27.6222 16.8734 28.1586 17.7586 29.2316 17.7586C30.5593 17.7586 31.5317 17.0344 32.1486 15.5859L32.4705 15.6664C32.1486 16.4845 31.6792 17.1215 31.0623 17.5775C30.4587 18.0201 29.7747 18.2414 29.0103 18.2414C28.2458 18.2414 27.602 17.9598 27.079 17.3965C26.5559 16.8332 26.2944 16.0754 26.2944 15.1232C26.2944 14.1709 26.4755 13.2522 26.8376 12.3671C27.1997 11.4685 27.763 10.6973 28.5275 10.0535C29.2919 9.39635 30.1637 9.06776 31.1427 9.06776ZM38.0524 9.24882L38.334 9.45C37.6903 10.9253 37.127 12.6219 36.6441 14.5398H36.8051L37.127 13.6546C37.7573 11.9379 38.381 10.7442 38.9979 10.0736C39.6148 9.40306 40.1513 9.06776 40.6073 9.06776C41.0633 9.06776 41.3986 9.21529 41.6132 9.51035C41.8412 9.80541 41.9552 10.1876 41.9552 10.6571C41.9552 11.1265 41.868 11.5355 41.6937 11.8842C41.5193 12.2329 41.2645 12.4073 40.9292 12.4073C40.6073 12.4073 40.3391 12.3 40.1245 12.0854C40.2586 11.9111 40.386 11.6562 40.5067 11.3209C40.6274 10.9856 40.6878 10.6906 40.6878 10.4358C40.6878 10.0468 40.5268 9.85235 40.205 9.85235C39.8697 9.85235 39.4539 10.1809 38.9577 10.8381C37.8713 12.2598 36.9526 14.6471 36.2015 18L34.7933 18.1207L36.7648 9.99318L35.4773 10.0938L35.4572 9.75176C36.3826 9.63106 37.2477 9.46341 38.0524 9.24882ZM42.9227 17.9396C42.7216 17.7251 42.621 17.4702 42.621 17.1752C42.621 16.8801 42.7216 16.632 42.9227 16.4308C43.1373 16.2162 43.3921 16.1089 43.6872 16.1089C43.9823 16.1089 44.2304 16.2162 44.4316 16.4308C44.6461 16.632 44.7534 16.8801 44.7534 17.1752C44.7534 17.4702 44.6461 17.7251 44.4316 17.9396C44.2304 18.1408 43.9823 18.2414 43.6872 18.2414C43.3921 18.2414 43.1373 18.1408 42.9227 17.9396ZM54.9809 9.45C54.5115 10.8448 54.0689 12.3402 53.6531 13.9362C53.2374 15.5322 53.0295 16.5582 53.0295 17.0142C53.0295 17.4568 53.1971 17.6781 53.5324 17.6781C53.7873 17.6781 54.0622 17.5105 54.3573 17.1752C54.6523 16.8265 54.9071 16.3369 55.1217 15.7066L55.4436 15.7871C54.8669 17.4233 54.1158 18.2414 53.1904 18.2414C52.3589 18.2414 51.9431 17.7385 51.9431 16.7326C51.9431 16.5314 51.9767 16.2095 52.0437 15.7669H51.9431C51.1116 17.4166 50.146 18.2414 49.0462 18.2414C48.4158 18.2414 47.8861 17.9665 47.4569 17.4166C47.0411 16.8533 46.8333 16.1693 46.8333 15.3646C46.8333 14.5465 46.9405 13.7887 47.1551 13.0913C47.3697 12.3939 47.6715 11.7434 48.0604 11.1399C48.4494 10.5229 48.9657 10.0267 49.6095 9.65118C50.2533 9.26223 50.9574 9.06776 51.7218 9.06776C52.7143 9.06776 53.4989 9.49023 54.0756 10.3352L54.6993 9.24882L54.9809 9.45ZM49.529 17.6379C50.0923 17.6379 50.6623 17.202 51.239 16.3302C51.8962 15.3244 52.5064 13.6814 53.0697 11.4014C53.1904 10.8649 53.2843 10.476 53.3514 10.2346C52.882 9.77859 52.3388 9.55059 51.7218 9.55059C51.1183 9.55059 50.5751 9.75847 50.0923 10.1742C49.6229 10.59 49.2541 11.1131 48.9858 11.7434C48.436 13.0309 48.161 14.2447 48.161 15.3847C48.161 16.1358 48.2817 16.6991 48.5231 17.0746C48.778 17.4501 49.1133 17.6379 49.529 17.6379ZM60.6541 9.24882L60.9357 9.45C60.292 10.9253 59.7287 12.6219 59.2458 14.5398H59.4068L59.7287 13.6546C60.359 11.9379 60.9827 10.7442 61.5996 10.0736C62.2165 9.40306 62.753 9.06776 63.209 9.06776C63.665 9.06776 64.0003 9.21529 64.2149 9.51035C64.4429 9.80541 64.5569 10.1876 64.5569 10.6571C64.5569 11.1265 64.4697 11.5355 64.2954 11.8842C64.121 12.2329 63.8662 12.4073 63.5309 12.4073C63.209 12.4073 62.9408 12.3 62.7262 12.0854C62.8603 11.9111 62.9877 11.6562 63.1084 11.3209C63.2291 10.9856 63.2895 10.6906 63.2895 10.4358C63.2895 10.0468 63.1285 9.85235 62.8067 9.85235C62.4714 9.85235 62.0556 10.1809 61.5594 10.8381C60.473 12.2598 59.5543 14.6471 58.8033 18L57.395 18.1207L59.3665 9.99318L58.079 10.0938L58.0589 9.75176C58.9843 9.63106 59.8494 9.46341 60.6541 9.24882ZM66.5907 16.8332L69.7894 17.5574C70.4868 17.7184 70.983 17.9329 71.2781 18.2012C71.5731 18.4828 71.7207 18.8651 71.7207 19.3479C71.7207 20.1258 71.2915 20.8567 70.4331 21.5407C69.5882 22.2381 68.6226 22.5868 67.5362 22.5868C66.4498 22.5868 65.5647 22.3387 64.8807 21.8425C64.2101 21.3462 63.8748 20.7561 63.8748 20.0721C63.8748 19.6027 64.0357 19.1534 64.3576 18.7242C64.6661 18.2951 65.1288 17.9329 65.7457 17.6379L66.1481 17.7586C65.7457 17.9598 65.4373 18.2615 65.2227 18.6639C65.0081 19.0796 64.9008 19.5155 64.9008 19.9715C64.9008 20.7226 65.1489 21.2792 65.6451 21.6413C66.1414 22.0168 66.7784 22.2046 67.5563 22.2046C68.3476 22.2046 69.0718 21.9766 69.729 21.5206C70.3996 21.078 70.7349 20.5415 70.7349 19.9112C70.7349 19.2808 70.3258 18.8718 69.5077 18.684L66.0475 17.9195C65.6586 17.8391 65.3568 17.658 65.1422 17.3764C64.9276 17.0947 64.8203 16.7527 64.8203 16.3504C64.8203 15.948 64.988 15.5792 65.3233 15.2439C65.6586 14.9086 66.1213 14.7409 66.7114 14.7409H68.7433L68.6829 15.0226H66.7114C66.4297 15.0226 66.2017 15.1098 66.0274 15.2841C65.8664 15.4585 65.786 15.6664 65.786 15.9078C65.786 16.404 66.0542 16.7125 66.5907 16.8332ZM69.9704 9.34941L69.9503 9.06776C70.3258 9.06776 70.641 8.98059 70.8958 8.80623C71.1507 8.61847 71.2781 8.37706 71.2781 8.082C71.2781 7.78694 71.0635 7.50529 70.6343 7.23706C70.8489 6.78106 71.1037 6.55306 71.3988 6.55306C71.7073 6.55306 71.9353 6.64023 72.0828 6.81459C72.2437 6.98894 72.3242 7.21023 72.3242 7.47847C72.3242 7.94788 72.1096 8.37706 71.6804 8.766C71.2647 9.15494 70.6947 9.34941 69.9704 9.34941ZM66.2889 12.8298C66.2889 11.8373 66.6376 10.9655 67.335 10.2145C68.0458 9.45 68.9176 9.06776 69.9503 9.06776C70.6746 9.06776 71.2446 9.26223 71.6603 9.65118C72.0895 10.0267 72.3041 10.5632 72.3041 11.2606C72.3041 12.3872 71.942 13.2992 71.2177 13.9966C70.4935 14.6806 69.6486 15.0226 68.6829 15.0226C67.9453 15.0226 67.3618 14.8348 66.9327 14.4593C66.5035 14.0704 66.2889 13.5272 66.2889 12.8298ZM69.9302 9.45C69.1926 9.45 68.589 9.85906 68.1196 10.6772C67.6502 11.4819 67.4155 12.1994 67.4155 12.8298C67.4155 13.4601 67.5295 13.9228 67.7575 14.2179C67.9989 14.4995 68.3141 14.6404 68.703 14.6404C69.2931 14.6404 69.8564 14.3051 70.3929 13.6345C70.9294 12.9639 71.1976 12.1189 71.1976 11.0996C71.1976 10.59 71.0769 10.1876 70.8355 9.89259C70.6075 9.59753 70.3057 9.45 69.9302 9.45ZM77.9729 9.55059C77.4632 9.55059 77.0273 9.69812 76.6652 9.99318C76.3031 10.2882 76.122 10.6638 76.122 11.1198C76.122 11.5758 76.3098 11.9915 76.6853 12.3671C77.0609 12.7426 77.4699 13.0578 77.9125 13.3126C78.3551 13.554 78.7642 13.8759 79.1397 14.2782C79.5152 14.6806 79.703 15.1098 79.703 15.5658C79.703 16.4241 79.3677 17.088 78.6971 17.5574C78.0399 18.0134 77.2419 18.2414 76.3031 18.2414C75.3643 18.2414 74.5394 18.0201 73.8286 17.5775C74.0566 17.1215 74.2712 16.3302 74.4724 15.2036L74.8144 15.264C74.7205 15.8139 74.6736 16.2498 74.6736 16.5716C74.6736 16.8801 74.8211 17.1685 75.1162 17.4367C75.4246 17.6915 75.8605 17.8189 76.4238 17.8189C77.0005 17.8189 77.4833 17.6446 77.8723 17.2959C78.2746 16.9472 78.4758 16.4912 78.4758 15.9279C78.4758 15.5658 78.2947 15.2171 77.9326 14.8818C77.5839 14.5331 77.195 14.2447 76.7658 14.0167C76.35 13.7887 75.9611 13.4668 75.599 13.0511C75.2503 12.6353 75.0759 12.1793 75.0759 11.6831C75.0759 10.9454 75.3643 10.3285 75.941 9.83223C76.5311 9.32259 77.3023 9.06776 78.2545 9.06776C78.9922 9.06776 79.7231 9.24882 80.4473 9.61094C80.3803 9.75847 80.2663 10.0938 80.1053 10.6168C79.9578 11.1399 79.8438 11.6361 79.7633 12.1055L79.4213 12.0452C79.5018 11.616 79.542 11.2069 79.542 10.818C79.542 10.4156 79.4079 10.1072 79.1397 9.89259C78.8849 9.66459 78.4959 9.55059 77.9729 9.55059Z" fill="#6082FA"/>
<path opacity="0.86" d="M86.7536 12.9505H84.7821C84.1652 15.7938 83.8567 17.2892 83.8567 17.4367C83.8567 17.5708 83.9305 17.6379 84.078 17.6379H85.5466L85.4862 18H81.2012L81.2615 17.6379H82.1869C82.3613 17.6379 82.4686 17.5373 82.5088 17.3361C84.1182 9.71824 84.9229 5.87576 84.9229 5.80871C84.9229 5.72823 84.8492 5.688 84.7016 5.688H83.8165L83.8768 5.32588H88.3631C89.2751 5.32588 90.0261 5.58071 90.6162 6.09035C91.2064 6.6 91.5014 7.30412 91.5014 8.20271C91.5014 9.62435 91.0119 10.7711 90.0328 11.6428C89.0538 12.5146 87.9607 12.9505 86.7536 12.9505ZM88.1418 5.78859H86.3111L84.8827 12.4878H86.7738C87.7394 12.4878 88.5441 12.0184 89.1879 11.0795C89.8451 10.1407 90.1736 9.15494 90.1736 8.12223C90.1736 7.45165 89.9993 6.89506 89.6506 6.45247C89.3153 6.00988 88.8124 5.78859 88.1418 5.78859ZM97.5606 16.7326C97.5606 16.5314 97.5941 16.2095 97.6612 15.7669H97.5606C96.7022 17.4166 95.7098 18.2414 94.5832 18.2414C93.3761 18.2414 92.7726 17.5708 92.7726 16.2296C92.7726 15.3579 93.0811 13.7418 93.698 11.3813L94.0601 9.99318L92.7726 10.0938L92.7525 9.75176C93.6779 9.63106 94.5429 9.46341 95.3477 9.24882L95.6293 9.45C94.5027 12.9505 93.9394 15.1902 93.9394 16.1693C93.9394 17.1484 94.3082 17.6379 95.0459 17.6379C95.6628 17.6379 96.2664 17.1886 96.8565 16.29C97.46 15.378 97.9562 14.1575 98.3452 12.6286L99.0292 9.99318L97.7417 10.0938L97.7215 9.75176C98.6469 9.63106 99.512 9.46341 100.317 9.24882L100.598 9.45C100.129 10.8448 99.6864 12.3402 99.2706 13.9362C98.8548 15.5322 98.6469 16.5582 98.6469 17.0142C98.6469 17.4568 98.8146 17.6781 99.1499 17.6781C99.4047 17.6781 99.6797 17.5105 99.9747 17.1752C100.27 16.8265 100.525 16.3369 100.739 15.7066L101.061 15.7871C100.484 17.4233 99.7333 18.2414 98.8079 18.2414C97.9764 18.2414 97.5606 17.7385 97.5606 16.7326ZM104.694 14.5398H104.855L105.177 13.6546C106.304 10.5967 107.538 9.06776 108.879 9.06776C109.509 9.06776 110.032 9.34941 110.448 9.91271C110.877 10.4626 111.092 11.1466 111.092 11.9647C111.092 12.7694 110.984 13.5205 110.77 14.2179C110.555 14.9153 110.254 15.5725 109.865 16.1894C109.476 16.7929 108.959 17.2892 108.316 17.6781C107.672 18.0536 107.015 18.2414 106.344 18.2414C105.673 18.2414 105.097 18.114 104.614 17.8592C104.131 17.5909 103.756 17.2422 103.487 16.8131L103.668 16.2699C104.312 17.2892 105.137 17.7988 106.143 17.7988C106.907 17.7988 107.571 17.4501 108.134 16.7527C108.698 16.0419 109.093 15.264 109.321 14.4191C109.563 13.5607 109.684 12.7761 109.684 12.0653C109.684 11.3411 109.563 10.7912 109.321 10.4156C109.093 10.0267 108.825 9.83223 108.517 9.83223C108.208 9.83223 107.9 9.96635 107.591 10.2346C107.283 10.4894 106.948 10.8918 106.585 11.4416C105.808 12.6487 105.077 14.6269 104.393 17.3764L103.789 16.7326L103.186 18.2414L102.844 18.1207L106.002 5.52706L104.714 5.62765L104.694 5.28565C105.62 5.16494 106.485 4.99729 107.29 4.78271L107.571 4.98388C106.485 8.14906 105.526 11.3344 104.694 14.5398ZM114.186 17.0142C114.186 17.4568 114.353 17.6781 114.689 17.6781C114.944 17.6781 115.218 17.5105 115.514 17.1752C115.809 16.8265 116.063 16.3369 116.278 15.7066L116.6 15.7871C116.023 17.4233 115.272 18.2414 114.347 18.2414C113.515 18.2414 113.099 17.7184 113.099 16.6722C113.099 15.6127 113.978 11.8976 115.735 5.52706L114.447 5.62765L114.427 5.28565C115.353 5.16494 116.218 4.99729 117.022 4.78271L117.304 4.98388C116.741 6.63353 116.077 8.87329 115.312 11.7032C114.561 14.5196 114.186 16.29 114.186 17.0142ZM121.32 7.056C121.146 6.88165 121.058 6.66706 121.058 6.41223C121.058 6.15741 121.146 5.94282 121.32 5.76847C121.494 5.59412 121.709 5.50694 121.964 5.50694C122.219 5.50694 122.433 5.59412 122.608 5.76847C122.782 5.94282 122.869 6.15741 122.869 6.41223C122.869 6.66706 122.782 6.88165 122.608 7.056C122.433 7.23035 122.219 7.31753 121.964 7.31753C121.709 7.31753 121.494 7.23035 121.32 7.056ZM119.047 16.7326C119.047 16.0218 119.536 13.7753 120.515 9.99318L119.228 10.0938L119.208 9.75176C120.133 9.63106 120.998 9.46341 121.803 9.24882L122.084 9.45C121.615 10.8448 121.172 12.3402 120.757 13.9362C120.341 15.5322 120.133 16.5582 120.133 17.0142C120.133 17.4568 120.301 17.6781 120.636 17.6781C120.891 17.6781 121.166 17.5105 121.461 17.1752C121.756 16.8265 122.011 16.3369 122.225 15.7066L122.547 15.7871C121.97 17.4233 121.219 18.2414 120.294 18.2414C119.462 18.2414 119.047 17.7385 119.047 16.7326ZM129.153 9.55059C128.603 9.55059 128.094 9.75847 127.624 10.1742C127.168 10.59 126.806 11.1064 126.538 11.7233C126.001 13.0242 125.733 14.1508 125.733 15.1031C125.733 16.8734 126.27 17.7586 127.343 17.7586C128.67 17.7586 129.643 17.0344 130.26 15.5859L130.582 15.6664C130.26 16.4845 129.79 17.1215 129.173 17.5775C128.57 18.0201 127.886 18.2414 127.121 18.2414C126.357 18.2414 125.713 17.9598 125.19 17.3965C124.667 16.8332 124.405 16.0754 124.405 15.1232C124.405 14.1709 124.586 13.2522 124.949 12.3671C125.311 11.4685 125.874 10.6973 126.638 10.0535C127.403 9.39635 128.275 9.06776 129.254 9.06776C129.924 9.06776 130.427 9.24212 130.763 9.59082C131.111 9.92612 131.286 10.3352 131.286 10.818C131.286 11.2874 131.198 11.7099 131.024 12.0854C130.863 12.4609 130.602 12.6487 130.24 12.6487C129.891 12.6487 129.629 12.5414 129.455 12.3268C129.844 11.7367 130.038 11.16 130.038 10.5967C130.038 9.89929 129.743 9.55059 129.153 9.55059ZM137.27 5.96965L134.856 17.4367C134.856 17.5708 134.929 17.6379 135.077 17.6379H135.962L135.902 18H132.2L132.261 17.6379H133.186C133.36 17.6379 133.468 17.5373 133.508 17.3361C135.117 9.71824 135.922 5.87576 135.922 5.80871C135.922 5.72823 135.848 5.688 135.701 5.688H134.815L134.876 5.32588H138.577L138.517 5.688H137.612C137.437 5.688 137.323 5.78188 137.27 5.96965ZM140.147 14.4794L140.187 16.3302C140.214 17.1618 140.435 17.5775 140.851 17.5775C141.119 17.5775 141.34 17.4367 141.515 17.1551C141.702 16.8734 141.796 16.5113 141.796 16.0687L142.179 16.0084C142.179 16.6924 141.997 17.2355 141.635 17.6379C141.287 18.0402 140.844 18.2414 140.308 18.2414C139.355 18.2414 138.852 17.5239 138.799 16.0888L138.718 14.1173C138.678 13.2455 138.497 12.642 138.175 12.3067C137.853 11.958 137.323 11.7836 136.586 11.7836L136.686 11.4618L142.42 5.688H141.474L141.535 5.32588H144.13L144.07 5.688H143.547C143.332 5.688 143.137 5.78188 142.963 5.96965L137.511 11.4215C138.477 11.4349 139.147 11.7166 139.523 12.2665C139.912 12.8164 140.12 13.554 140.147 14.4794ZM149.488 9.06776C150.199 9.06776 150.729 9.24212 151.078 9.59082C151.44 9.92612 151.621 10.4156 151.621 11.0594C151.621 11.6898 151.373 12.2396 150.877 12.7091C150.032 13.5138 148.778 13.9161 147.115 13.9161C146.618 13.9161 146.189 13.8759 145.827 13.7954V13.4132C146.296 13.4802 146.685 13.5138 146.994 13.5138C148.107 13.5138 148.965 13.2321 149.569 12.6688C150.186 12.1055 150.494 11.4886 150.494 10.818C150.494 10.4559 150.394 10.1541 150.193 9.91271C150.005 9.67129 149.683 9.55059 149.227 9.55059C148.784 9.55059 148.328 9.75847 147.859 10.1742C147.403 10.59 147.041 11.1064 146.773 11.7233C146.236 13.0242 145.968 14.1508 145.968 15.1031C145.968 16.8734 146.504 17.7586 147.577 17.7586C148.905 17.7586 149.877 17.0344 150.494 15.5859L150.816 15.6664C150.494 16.4845 150.025 17.1215 149.408 17.5775C148.804 18.0201 148.12 18.2414 147.356 18.2414C146.592 18.2414 145.948 17.9598 145.425 17.3965C144.902 16.8332 144.64 16.0754 144.64 15.1232C144.64 14.1709 144.821 13.2522 145.183 12.3671C145.545 11.4685 146.109 10.6973 146.873 10.0535C147.638 9.39635 148.509 9.06776 149.488 9.06776ZM156.257 17.5775C157.116 17.5775 157.967 16.9539 158.812 15.7066C159.671 14.4459 160.1 13.2724 160.1 12.186C160.1 11.0862 159.751 10.1876 159.054 9.49024C159.389 9.20859 159.697 9.06776 159.979 9.06776C160.502 9.06776 160.764 9.80541 160.764 11.2807C160.764 12.756 160.603 14.1106 160.281 15.3445C159.959 16.5649 159.536 17.6044 159.013 18.4627C158.504 19.3211 157.92 20.0654 157.263 20.6958C155.989 21.9565 154.695 22.5868 153.38 22.5868C152.71 22.5868 152.207 22.4326 151.872 22.1241C151.523 21.8156 151.349 21.4535 151.349 21.0378C151.349 20.622 151.436 20.2465 151.61 19.9112C151.771 19.5759 152.019 19.4082 152.354 19.4082C152.69 19.4082 152.965 19.5021 153.179 19.6899C152.79 20.1861 152.596 20.6421 152.596 21.0579C152.596 21.7285 152.951 22.0638 153.662 22.0638C154.132 22.0638 154.675 21.8894 155.292 21.5407C155.909 21.2054 156.532 20.7226 157.163 20.0922C157.793 19.4753 158.37 18.6438 158.893 17.5976C159.429 16.5515 159.805 15.4182 160.019 14.1978C159.577 15.3646 158.98 16.3302 158.229 17.0947C157.491 17.8592 156.64 18.2414 155.674 18.2414C155.178 18.2414 154.775 18.0738 154.467 17.7385C154.172 17.3898 154.024 16.9204 154.024 16.3302C154.024 15.7401 154.246 14.7074 154.688 13.2321C155.144 11.7568 155.372 10.7912 155.372 10.3352C155.372 9.86576 155.198 9.63106 154.849 9.63106C154.594 9.63106 154.326 9.80541 154.044 10.1541C153.763 10.4894 153.535 10.9722 153.36 11.6026L153.018 11.5221C153.515 9.88588 154.232 9.06776 155.171 9.06776C156.043 9.06776 156.479 9.53718 156.479 10.476C156.479 10.8515 156.271 11.7836 155.855 13.2724C155.439 14.7611 155.231 15.7401 155.231 16.2095C155.231 17.1215 155.573 17.5775 156.257 17.5775Z" fill="#6082FA"/>
</svg>
