<svg width="193" height="45" viewBox="0 0 193 45" fill="none" xmlns="http://www.w3.org/2000/svg">
<path opacity="0.86" d="M15.7924 16.3259H18.3875L18.3272 16.688H17.6231C17.4353 16.688 17.2945 16.7819 17.2006 16.9696L11.1049 29H10.4612L9.45529 18.9814L4.24482 29H3.60106L2.61529 16.9696C2.58847 16.7819 2.48788 16.688 2.31353 16.688H1.60941L1.66976 16.3259H5.00929L4.94894 16.688H4.00341L4.82824 26.6462L9.37482 17.9152L9.27424 16.9696C9.24741 16.7819 9.14682 16.688 8.97247 16.688H8.26835L8.32871 16.3259H11.6884L11.628 16.688H10.6624L11.6682 26.5859L16.6775 16.688H15.732L15.7924 16.3259Z" fill="#6082FA"/>
<path opacity="0.86" d="M17.8986 25.6889L17.9656 25.4341H20.9431L20.876 25.6889H17.8986ZM20.0311 23.7845L20.2188 23.9186C20.0132 24.5445 19.736 25.528 19.3873 26.8692C19.0475 28.2104 18.8419 29.0776 18.7704 29.4711C18.6988 29.8555 18.6631 30.1461 18.6631 30.3428C18.6631 30.6379 18.7748 30.7854 18.9984 30.7854C19.1682 30.7854 19.3515 30.6736 19.5482 30.4501C19.7449 30.2176 19.9148 29.8913 20.0579 29.4711L20.2725 29.5247C19.888 30.6155 19.3873 31.1609 18.7704 31.1609C18.216 31.1609 17.9388 30.8256 17.9388 30.1551C17.9388 29.6007 18.2696 28.0539 18.9313 25.5146L17.9656 25.4341C18.4574 25.4341 18.8553 25.3179 19.1593 25.0854C19.4633 24.844 19.7539 24.4104 20.0311 23.7845ZM21.5113 29.0553C21.5113 28.1344 21.7795 27.2536 22.316 26.4132C22.5753 26.0108 22.915 25.6845 23.3353 25.4341C23.7555 25.1748 24.2339 25.0452 24.7703 25.0452C25.3157 25.0452 25.7583 25.2285 26.0981 25.5951C26.4379 25.9616 26.6077 26.4624 26.6077 27.0972C26.6077 27.732 26.4915 28.3489 26.259 28.948C26.0266 29.5471 25.66 30.0656 25.1593 30.5038C24.6586 30.9419 24.0953 31.1609 23.4694 31.1609C22.8435 31.1609 22.3607 30.9776 22.0209 30.6111C21.6812 30.2445 21.5113 29.7259 21.5113 29.0553ZM24.663 25.3402C24.1802 25.3402 23.751 25.5816 23.3755 26.0645C23.0089 26.5473 22.7452 27.0748 22.5842 27.6471C22.4322 28.2193 22.3562 28.7558 22.3562 29.2565C22.3562 29.7482 22.4546 30.1416 22.6513 30.4367C22.8569 30.7228 23.1341 30.8659 23.4828 30.8659C23.8405 30.8659 24.1713 30.7228 24.4753 30.4367C24.7882 30.1506 25.0341 29.7974 25.2129 29.3772C25.5795 28.5188 25.7628 27.7767 25.7628 27.1508C25.7628 26.516 25.6645 26.0555 25.4677 25.7694C25.271 25.4833 25.0028 25.3402 24.663 25.3402ZM28.3105 25.6889L28.3776 25.4341H31.355L31.2879 25.6889H28.3105ZM30.443 23.7845L30.6308 23.9186C30.4251 24.5445 30.1479 25.528 29.7992 26.8692C29.4595 28.2104 29.2538 29.0776 29.1823 29.4711C29.1108 29.8555 29.075 30.1461 29.075 30.3428C29.075 30.6379 29.1868 30.7854 29.4103 30.7854C29.5802 30.7854 29.7635 30.6736 29.9602 30.4501C30.1569 30.2176 30.3268 29.8913 30.4698 29.4711L30.6844 29.5247C30.2999 30.6155 29.7992 31.1609 29.1823 31.1609C28.6279 31.1609 28.3508 30.8256 28.3508 30.1551C28.3508 29.6007 28.6816 28.0539 29.3432 25.5146L28.3776 25.4341C28.8693 25.4341 29.2672 25.3179 29.5712 25.0854C29.8752 24.844 30.1658 24.4104 30.443 23.7845ZM37.355 25.3C37.042 26.2299 36.747 27.2268 36.4698 28.2908C36.1926 29.3548 36.054 30.0388 36.054 30.3428C36.054 30.6379 36.1658 30.7854 36.3893 30.7854C36.5592 30.7854 36.7425 30.6736 36.9392 30.4501C37.1359 30.2176 37.3058 29.8913 37.4489 29.4711L37.6634 29.5247C37.279 30.6155 36.7783 31.1609 36.1613 31.1609C35.607 31.1609 35.3298 30.8256 35.3298 30.1551C35.3298 30.0209 35.3521 29.8064 35.3969 29.5113H35.3298C34.7754 30.6111 34.1317 31.1609 33.3985 31.1609C32.9783 31.1609 32.6251 30.9776 32.339 30.6111C32.0618 30.2355 31.9232 29.7795 31.9232 29.2431C31.9232 28.6976 31.9947 28.1925 32.1378 27.7275C32.2809 27.2626 32.482 26.8289 32.7413 26.4266C33.0006 26.0153 33.3449 25.6845 33.774 25.4341C34.2032 25.1748 34.6726 25.0452 35.1823 25.0452C35.8439 25.0452 36.367 25.3268 36.7514 25.8901L37.1672 25.1659L37.355 25.3ZM33.7204 30.7586C34.0959 30.7586 34.4759 30.468 34.8604 29.8868C35.2985 29.2162 35.7053 28.1209 36.0809 26.6009C36.1613 26.2433 36.2239 25.984 36.2686 25.8231C35.9557 25.5191 35.5936 25.3671 35.1823 25.3671C34.7799 25.3671 34.4178 25.5056 34.0959 25.7828C33.783 26.06 33.5371 26.4087 33.3583 26.8289C32.9917 27.6873 32.8084 28.4965 32.8084 29.2565C32.8084 29.7572 32.8889 30.1327 33.0498 30.3831C33.2197 30.6334 33.4432 30.7586 33.7204 30.7586ZM39.8898 30.3428C39.8898 30.6379 40.0016 30.7854 40.2251 30.7854C40.395 30.7854 40.5783 30.6736 40.775 30.4501C40.9717 30.2176 41.1416 29.8913 41.2846 29.4711L41.4992 29.5247C41.1147 30.6155 40.614 31.1609 39.9971 31.1609C39.4427 31.1609 39.1656 30.8122 39.1656 30.1148C39.1656 29.4085 39.7512 26.9318 40.9225 22.6847L40.0641 22.7518L40.0507 22.5238C40.6677 22.4433 41.2444 22.3315 41.7809 22.1885L41.9686 22.3226C41.5931 23.4224 41.1505 24.9155 40.6409 26.8021C40.1401 28.6798 39.8898 29.86 39.8898 30.3428Z" fill="#6082FA"/>
<path opacity="0.86" d="M56.2232 23.87H48.7193L48.9406 22.8038H56.4445L56.2232 23.87ZM55.4989 27.29H47.9951L48.2164 26.2238H55.7202L55.4989 27.29Z" fill="#6082FA"/>
<path opacity="0.86" d="M187.454 23.704C187.338 23.5878 187.28 23.4447 187.28 23.2748C187.28 23.1049 187.338 22.9619 187.454 22.8456C187.571 22.7294 187.714 22.6713 187.884 22.6713C188.053 22.6713 188.196 22.7294 188.313 22.8456C188.429 22.9619 188.487 23.1049 188.487 23.2748C188.487 23.4447 188.429 23.5878 188.313 23.704C188.196 23.8202 188.053 23.8784 187.884 23.8784C187.714 23.8784 187.571 23.8202 187.454 23.704ZM185.939 30.1551C185.939 29.6812 186.265 28.1835 186.918 25.6621L186.06 25.7292L186.046 25.5012C186.663 25.4207 187.24 25.3089 187.776 25.1659L187.964 25.3C187.651 26.2299 187.356 27.2268 187.079 28.2908C186.802 29.3548 186.663 30.0388 186.663 30.3428C186.663 30.6379 186.775 30.7854 186.998 30.7854C187.168 30.7854 187.352 30.6736 187.548 30.4501C187.745 30.2176 187.915 29.8913 188.058 29.4711L188.272 29.5247C187.888 30.6155 187.387 31.1609 186.77 31.1609C186.216 31.1609 185.939 30.8256 185.939 30.1551Z" fill="#6082FA"/>
<path opacity="0.86" d="M88.1845 20.2488L88.4661 20.45C87.8224 21.9253 87.2591 23.6219 86.7762 25.5398H86.9372L87.2591 24.6546C88.3722 21.5967 89.6464 20.0678 91.0814 20.0678C91.6581 20.0678 92.1476 20.3494 92.55 20.9127C92.9658 21.476 93.1736 22.16 93.1736 22.9647C93.1736 23.7694 93.0664 24.5205 92.8518 25.2179C92.6506 25.9019 92.3555 26.5456 91.9666 27.1492C91.5776 27.7393 91.068 28.2221 90.4376 28.5976C89.8073 28.9732 89.1099 29.1609 88.3454 29.1609C87.1786 29.1609 86.2666 28.6446 85.6094 27.6119L85.7502 27.2699C86.394 28.2489 87.2389 28.7385 88.2851 28.7385C88.8886 28.7385 89.4251 28.5373 89.8945 28.1349C90.3773 27.7326 90.7461 27.2296 91.0009 26.6261C91.5106 25.3922 91.7654 24.1852 91.7654 23.0049C91.7654 22.3209 91.6648 21.7912 91.4636 21.4156C91.2759 21.0267 91.0278 20.8322 90.7193 20.8322C90.0889 20.8322 89.3781 21.4425 88.5868 22.6629C87.8089 23.8834 87.1048 25.7879 86.4745 28.3764L85.2674 33.3454L83.8592 33.4661L86.8969 20.9932L85.6094 21.0938L85.5893 20.7518C86.5147 20.6311 87.3798 20.4634 88.1845 20.2488ZM102.922 20.45C102.453 21.8448 102.01 23.3402 101.595 24.9362C101.179 26.5322 100.971 27.5582 100.971 28.0142C100.971 28.4568 101.139 28.6781 101.474 28.6781C101.729 28.6781 102.004 28.5105 102.299 28.1752C102.594 27.8265 102.849 27.3369 103.063 26.7066L103.385 26.7871C102.808 28.4233 102.057 29.2414 101.132 29.2414C100.3 29.2414 99.8846 28.7385 99.8846 27.7326C99.8846 27.5314 99.9181 27.2095 99.9852 26.7669H99.8846C99.0531 28.4166 98.0874 29.2414 96.9877 29.2414C96.3573 29.2414 95.8276 28.9665 95.3984 28.4166C94.9826 27.8533 94.7747 27.1693 94.7747 26.3646C94.7747 25.5465 94.882 24.7887 95.0966 24.0913C95.3112 23.3939 95.613 22.7434 96.0019 22.1399C96.3908 21.5229 96.9072 21.0267 97.551 20.6512C98.1947 20.2622 98.8988 20.0678 99.6633 20.0678C100.656 20.0678 101.44 20.4902 102.017 21.3352L102.641 20.2488L102.922 20.45ZM97.4705 28.6379C98.0338 28.6379 98.6038 28.202 99.1805 27.3302C99.8377 26.3244 100.448 24.6814 101.011 22.4014C101.132 21.8649 101.226 21.476 101.293 21.2346C100.823 20.7786 100.28 20.5506 99.6633 20.5506C99.0598 20.5506 98.5166 20.7585 98.0338 21.1742C97.5644 21.59 97.1956 22.1131 96.9273 22.7434C96.3774 24.0309 96.1025 25.2447 96.1025 26.3847C96.1025 27.1358 96.2232 27.6991 96.4646 28.0746C96.7194 28.4501 97.0547 28.6379 97.4705 28.6379ZM108.113 18.056C107.938 17.8816 107.851 17.6671 107.851 17.4122C107.851 17.1574 107.938 16.9428 108.113 16.7685C108.287 16.5941 108.502 16.5069 108.756 16.5069C109.011 16.5069 109.226 16.5941 109.4 16.7685C109.575 16.9428 109.662 17.1574 109.662 17.4122C109.662 17.6671 109.575 17.8816 109.4 18.056C109.226 18.2304 109.011 18.3175 108.756 18.3175C108.502 18.3175 108.287 18.2304 108.113 18.056ZM105.839 27.7326C105.839 27.0218 106.329 24.7753 107.308 20.9932L106.02 21.0938L106 20.7518C106.926 20.6311 107.791 20.4634 108.596 20.2488L108.877 20.45C108.408 21.8448 107.965 23.3402 107.549 24.9362C107.134 26.5322 106.926 27.5582 106.926 28.0142C106.926 28.4568 107.093 28.6781 107.429 28.6781C107.684 28.6781 107.958 28.5105 108.254 28.1752C108.549 27.8265 108.803 27.3369 109.018 26.7066L109.34 26.7871C108.763 28.4233 108.012 29.2414 107.087 29.2414C106.255 29.2414 105.839 28.7385 105.839 27.7326ZM117.394 28.0142C117.394 28.4568 117.562 28.6781 117.897 28.6781C118.152 28.6781 118.427 28.5105 118.722 28.1752C119.017 27.8265 119.272 27.3369 119.487 26.7066L119.808 26.7871C119.232 28.4233 118.481 29.2414 117.555 29.2414C116.724 29.2414 116.308 28.7184 116.308 27.6722C116.308 26.6127 117.186 22.8976 118.943 16.5271L117.656 16.6276L117.636 16.2856C118.561 16.1649 119.426 15.9973 120.231 15.7827L120.513 15.9839C119.949 17.6335 119.285 19.8733 118.521 22.7032C117.77 25.5196 117.394 27.29 117.394 28.0142ZM116.509 26.7669H116.308C115.476 28.4166 114.511 29.2414 113.411 29.2414C112.781 29.2414 112.251 28.9665 111.822 28.4166C111.406 27.8533 111.198 27.1693 111.198 26.3646C111.198 25.5465 111.305 24.7887 111.52 24.0913C111.735 23.3939 112.036 22.7434 112.425 22.1399C112.814 21.5229 113.331 21.0267 113.974 20.6512C114.618 20.2622 115.275 20.0678 115.946 20.0678C117.233 20.0678 118.145 20.6311 118.682 21.7576L118.4 22.1198C117.77 21.0736 116.985 20.5506 116.046 20.5506C115.47 20.5506 114.94 20.7585 114.457 21.1742C113.988 21.59 113.619 22.1131 113.351 22.7434C112.801 24.0309 112.526 25.2447 112.526 26.3847C112.526 27.1358 112.647 27.6991 112.888 28.0746C113.143 28.4501 113.478 28.6379 113.894 28.6379C114.471 28.6379 115.061 28.1551 115.664 27.1894C116.268 26.2104 116.804 24.8155 117.274 23.0049L116.509 26.7669ZM128.479 16.7886H126.166L123.691 28.5373H126.025C126.883 28.5373 127.674 28.2691 128.399 27.7326C129.123 27.1961 129.706 26.5188 130.149 25.7007C131.061 23.9974 131.517 22.3008 131.517 20.6109C131.517 19.4039 131.235 18.4651 130.672 17.7945C130.122 17.1239 129.391 16.7886 128.479 16.7886ZM123.731 16.3259H128.6C129.941 16.3259 131.001 16.7215 131.778 17.5128C132.556 18.2907 132.945 19.3838 132.945 20.792C132.945 21.7442 132.778 22.7032 132.442 23.6688C132.12 24.6211 131.671 25.4995 131.094 26.3042C130.518 27.0955 129.773 27.746 128.861 28.2556C127.963 28.7519 126.984 29 125.924 29H121.056L121.116 28.6379H122.042C122.216 28.6379 122.323 28.5373 122.363 28.3361C123.973 20.7182 124.778 16.8758 124.778 16.8087C124.778 16.7282 124.704 16.688 124.556 16.688H123.671L123.731 16.3259ZM139.208 20.0678C139.919 20.0678 140.449 20.2421 140.798 20.5908C141.16 20.9261 141.341 21.4156 141.341 22.0594C141.341 22.6898 141.093 23.2396 140.597 23.7091C139.752 24.5138 138.498 24.9161 136.835 24.9161C136.338 24.9161 135.909 24.8759 135.547 24.7954V24.4132C136.016 24.4802 136.405 24.5138 136.714 24.5138C137.827 24.5138 138.685 24.2321 139.289 23.6688C139.906 23.1055 140.214 22.4886 140.214 21.818C140.214 21.4559 140.114 21.1541 139.913 20.9127C139.725 20.6713 139.403 20.5506 138.947 20.5506C138.504 20.5506 138.048 20.7585 137.579 21.1742C137.123 21.59 136.761 22.1064 136.493 22.7233C135.956 24.0242 135.688 25.1508 135.688 26.1031C135.688 27.8734 136.224 28.7586 137.297 28.7586C138.625 28.7586 139.597 28.0344 140.214 26.5859L140.536 26.6664C140.214 27.4845 139.745 28.1215 139.128 28.5775C138.524 29.0201 137.84 29.2414 137.076 29.2414C136.312 29.2414 135.668 28.9598 135.145 28.3965C134.622 27.8332 134.36 27.0754 134.36 26.1232C134.36 25.1709 134.541 24.2522 134.903 23.3671C135.265 22.4685 135.829 21.6973 136.593 21.0535C137.358 20.3964 138.229 20.0678 139.208 20.0678ZM146.138 20.2488L146.42 20.45C145.776 21.9253 145.213 23.6219 144.73 25.5398H144.891L145.213 24.6546C146.326 21.5967 147.6 20.0678 149.035 20.0678C149.612 20.0678 150.101 20.3494 150.504 20.9127C150.92 21.476 151.127 22.16 151.127 22.9647C151.127 23.7694 151.02 24.5205 150.806 25.2179C150.604 25.9019 150.309 26.5456 149.92 27.1492C149.531 27.7393 149.022 28.2221 148.391 28.5976C147.761 28.9732 147.064 29.1609 146.299 29.1609C145.132 29.1609 144.22 28.6446 143.563 27.6119L143.704 27.2699C144.348 28.2489 145.193 28.7385 146.239 28.7385C146.842 28.7385 147.379 28.5373 147.848 28.1349C148.331 27.7326 148.7 27.2296 148.955 26.6261C149.464 25.3922 149.719 24.1852 149.719 23.0049C149.719 22.3209 149.619 21.7912 149.417 21.4156C149.23 21.0267 148.982 20.8322 148.673 20.8322C148.043 20.8322 147.332 21.4425 146.541 22.6629C145.763 23.8834 145.059 25.7879 144.428 28.3764L143.221 33.3454L141.813 33.4661L144.851 20.9932L143.563 21.0938L143.543 20.7518C144.468 20.6311 145.334 20.4634 146.138 20.2488ZM152.728 26.0829C152.728 24.7015 153.131 23.3805 153.936 22.1198C154.324 21.5162 154.834 21.0267 155.464 20.6512C156.095 20.2622 156.812 20.0678 157.617 20.0678C158.435 20.0678 159.099 20.3427 159.609 20.8926C160.118 21.4425 160.373 22.1935 160.373 23.1458C160.373 24.098 160.199 25.0234 159.85 25.922C159.501 26.8206 158.952 27.5985 158.2 28.2556C157.449 28.9128 156.604 29.2414 155.666 29.2414C154.727 29.2414 154.003 28.9665 153.493 28.4166C152.983 27.8667 152.728 27.0888 152.728 26.0829ZM157.456 20.5104C156.732 20.5104 156.088 20.8725 155.525 21.5967C154.975 22.3209 154.579 23.1122 154.338 23.9706C154.11 24.8289 153.996 25.6336 153.996 26.3847C153.996 27.1224 154.143 27.7125 154.438 28.1551C154.747 28.5842 155.163 28.7988 155.686 28.7988C156.222 28.7988 156.718 28.5842 157.174 28.1551C157.644 27.7259 158.013 27.1961 158.281 26.5658C158.831 25.2782 159.106 24.1651 159.106 23.2262C159.106 22.274 158.958 21.5833 158.663 21.1541C158.368 20.7249 157.966 20.5104 157.456 20.5104ZM166.227 20.5506C165.717 20.5506 165.281 20.6981 164.919 20.9932C164.557 21.2882 164.376 21.6638 164.376 22.1198C164.376 22.5758 164.564 22.9915 164.939 23.3671C165.315 23.7426 165.724 24.0578 166.166 24.3126C166.609 24.554 167.018 24.8759 167.393 25.2782C167.769 25.6806 167.957 26.1098 167.957 26.5658C167.957 27.4241 167.621 28.088 166.951 28.5574C166.294 29.0134 165.496 29.2414 164.557 29.2414C163.618 29.2414 162.793 29.0201 162.082 28.5775C162.31 28.1215 162.525 27.3302 162.726 26.2036L163.068 26.264C162.974 26.8139 162.927 27.2498 162.927 27.5716C162.927 27.8801 163.075 28.1685 163.37 28.4367C163.678 28.6915 164.114 28.8189 164.678 28.8189C165.254 28.8189 165.737 28.6446 166.126 28.2959C166.528 27.9472 166.73 27.4912 166.73 26.9279C166.73 26.5658 166.549 26.2171 166.186 25.8818C165.838 25.5331 165.449 25.2447 165.02 25.0167C164.604 24.7887 164.215 24.4668 163.853 24.0511C163.504 23.6353 163.33 23.1793 163.33 22.6831C163.33 21.9454 163.618 21.3285 164.195 20.8322C164.785 20.3226 165.556 20.0678 166.508 20.0678C167.246 20.0678 167.977 20.2488 168.701 20.6109C168.634 20.7585 168.52 21.0938 168.359 21.6168C168.212 22.1399 168.098 22.6361 168.017 23.1055L167.675 23.0452C167.756 22.616 167.796 22.2069 167.796 21.818C167.796 21.4156 167.662 21.1072 167.393 20.8926C167.139 20.6646 166.75 20.5506 166.227 20.5506ZM173.286 18.056C173.112 17.8816 173.025 17.6671 173.025 17.4122C173.025 17.1574 173.112 16.9428 173.286 16.7685C173.46 16.5941 173.675 16.5069 173.93 16.5069C174.185 16.5069 174.399 16.5941 174.574 16.7685C174.748 16.9428 174.835 17.1574 174.835 17.4122C174.835 17.6671 174.748 17.8816 174.574 18.056C174.399 18.2304 174.185 18.3175 173.93 18.3175C173.675 18.3175 173.46 18.2304 173.286 18.056ZM171.013 27.7326C171.013 27.0218 171.502 24.7753 172.481 20.9932L171.194 21.0938L171.174 20.7518C172.099 20.6311 172.964 20.4634 173.769 20.2488L174.051 20.45C173.581 21.8448 173.139 23.3402 172.723 24.9362C172.307 26.5322 172.099 27.5582 172.099 28.0142C172.099 28.4568 172.267 28.6781 172.602 28.6781C172.857 28.6781 173.132 28.5105 173.427 28.1752C173.722 27.8265 173.977 27.3369 174.191 26.7066L174.513 26.7871C173.937 28.4233 173.185 29.2414 172.26 29.2414C171.429 29.2414 171.013 28.7385 171.013 27.7326ZM176.915 21.0334L177.015 20.6512H181.481L181.381 21.0334H176.915ZM180.113 18.1767L180.395 18.3779C180.086 19.3167 179.671 20.792 179.148 22.8038C178.638 24.8155 178.33 26.1165 178.222 26.7066C178.115 27.2833 178.061 27.7192 178.061 28.0142C178.061 28.4568 178.229 28.6781 178.564 28.6781C178.819 28.6781 179.094 28.5105 179.389 28.1752C179.684 27.8265 179.939 27.3369 180.154 26.7066L180.475 26.7871C179.899 28.4233 179.148 29.2414 178.222 29.2414C177.391 29.2414 176.975 28.7385 176.975 27.7326C176.975 26.9011 177.471 24.5808 178.464 20.7719L177.015 20.6512C177.753 20.6512 178.35 20.4768 178.806 20.1281C179.262 19.766 179.698 19.1155 180.113 18.1767Z" fill="#6082FA"/>
<path opacity="0.86" d="M63.2601 43.7801V37.9943C63.2601 37.8476 63.1867 37.7742 63.0399 37.7742H62.301V37.4912H63.0714C63.7003 37.4912 64.1405 37.4598 64.392 37.3969V43.8115C64.392 43.9373 64.4654 44.0002 64.6122 44.0002H65.3511V44.2832H62.301V44.0002H63.0399C63.1867 44.0002 63.2601 43.9268 63.2601 43.7801ZM63.2915 35.7618C63.1552 35.6151 63.0871 35.4369 63.0871 35.2273C63.0871 35.0176 63.1552 34.8447 63.2915 34.7084C63.4382 34.5617 63.6164 34.4883 63.826 34.4883C64.0357 34.4883 64.2086 34.5617 64.3449 34.7084C64.4916 34.8447 64.565 35.0176 64.565 35.2273C64.565 35.4369 64.4916 35.6151 64.3449 35.7618C64.2086 35.8981 64.0357 35.9662 63.826 35.9662C63.6164 35.9662 63.4382 35.8981 63.2915 35.7618ZM73.3938 40.2741H67.2308V39.4408H73.3938V40.2741ZM73.3938 42.9468H67.2308V42.1135H73.3938V42.9468ZM75.9601 44.2832V43.9845H77.7996C77.9254 43.9845 77.9987 43.9216 78.0197 43.7958V36.5636C78.0197 36.3016 77.8625 36.1706 77.548 36.1706L75.8029 36.2649L75.7714 35.8876L77.2021 35.6832C78.1036 35.5469 78.8163 35.3792 79.3404 35.1801C79.2355 35.5784 79.1831 36.1758 79.1831 36.9724V43.7644C79.1831 43.9111 79.2617 43.9845 79.419 43.9845H80.8969V44.2832H75.9601Z" fill="#6082FA"/>
<path opacity="0.86" d="M75.0323 4.47069C75.0323 5.00093 74.7302 5.97508 74.126 7.39316C73.5341 8.81123 73.2382 9.71757 73.2382 10.1122C73.2382 10.5068 73.3923 10.7041 73.7006 10.7041C73.9349 10.7041 74.1877 10.5499 74.4589 10.2416C74.7302 9.92103 74.9645 9.47095 75.1618 8.89138L75.4578 8.96537C74.9275 10.4698 74.237 11.222 73.3861 11.222C72.6216 11.222 72.2393 10.8027 72.2393 9.96419C72.2393 9.60659 72.5168 8.71875 73.0717 7.30067C73.6389 5.8826 73.9225 4.9701 73.9225 4.56317C73.9225 3.78631 73.6389 3.39788 73.0717 3.39788C72.4551 3.39788 71.7893 3.89729 71.0741 4.89611C70.2479 6.09223 69.5142 8.12686 68.873 11L67.5782 11.111L69.3909 3.63834L68.2071 3.73082L68.1886 3.41638C69.0394 3.3054 69.8348 3.15126 70.5747 2.95396L70.8336 3.13893C70.2417 4.49535 69.7238 6.05523 69.2799 7.81858H69.4279L69.7238 7.00473C70.3897 5.14273 71.1111 3.93429 71.8879 3.37939C72.2578 3.13277 72.56 2.97246 72.7942 2.89847C73.0409 2.82449 73.343 2.78749 73.7006 2.78749C74.0705 2.78749 74.385 2.93547 74.6439 3.23141C74.9029 3.52736 75.0323 3.94045 75.0323 4.47069Z" fill="#6082FA"/>
<path opacity="0.86" d="M79.4994 26.7687L78.7216 32.063H63.5917L71.4201 23.3815L63.7422 14.2734H77.9438L78.4205 18.2378H77.9187C77.5507 17 77.0656 16.2054 76.4634 15.8541C75.8779 15.4861 75.1754 15.3021 74.3557 15.3021H67.0793L73.4776 22.7793L66.703 30.131H75.6354C76.4885 30.131 77.1659 29.9051 77.6678 29.4535C78.1696 29.0019 78.5961 28.1069 78.9474 26.7687H79.4994Z" fill="#6082FA"/>
</svg>
