<svg width="315" height="25" viewBox="0 0 315 25" fill="none" xmlns="http://www.w3.org/2000/svg">
<path opacity="0.86" d="M4.0314 19.8879C3.07917 19.8879 2.24093 19.6465 1.5167 19.1637C1.27529 19.0161 1.10764 18.9424 1.01376 18.9424C0.772346 18.9424 0.61811 19.1771 0.551052 19.6465H0.168816L0.872934 16.2868H1.23505C1.22164 16.3941 1.21493 16.5551 1.21493 16.7697C1.21493 17.6414 1.46305 18.2852 1.95929 18.701C2.46893 19.1033 3.15964 19.3045 4.0314 19.3045C4.91658 19.3045 5.65423 18.996 6.24435 18.3791C6.84788 17.7487 7.14964 17.0312 7.14964 16.2265C7.14964 15.4084 6.73388 14.7981 5.90235 14.3958L4.29293 13.571C3.03223 12.954 2.40188 11.9951 2.40188 10.6941C2.40188 9.67484 2.79752 8.76284 3.58882 7.95813C4.38011 7.14001 5.37258 6.73095 6.56623 6.73095C7.35752 6.73095 8.07505 6.95225 8.71882 7.39484C8.93341 7.54237 9.08093 7.61613 9.1614 7.61613C9.29552 7.61613 9.40952 7.47531 9.50341 7.19366L9.60399 6.85166H9.96611L9.22176 10.332H8.87976C8.90658 10.0638 8.91999 9.86931 8.91999 9.7486C8.91999 8.91707 8.7054 8.30684 8.27623 7.9179C7.86046 7.51554 7.25693 7.31437 6.46564 7.31437C5.67435 7.31437 4.99705 7.60942 4.43376 8.19954C3.88388 8.78966 3.60893 9.45354 3.60893 10.1912C3.60893 11.1032 4.01799 11.7738 4.83611 12.203L6.90823 13.2692C8.02141 13.8459 8.57799 14.664 8.57799 15.7235C8.57799 16.7697 8.12199 17.7286 7.20999 18.6004C6.29799 19.4587 5.23846 19.8879 4.0314 19.8879ZM11.4152 11.6799L11.5158 11.2977H15.9819L15.8813 11.6799H11.4152ZM14.6139 8.82319L14.8956 9.02437C14.5871 9.96319 14.1713 11.4385 13.6483 13.4502C13.1386 15.462 12.8302 16.763 12.7229 17.3531C12.6156 17.9298 12.5619 18.3657 12.5619 18.6607C12.5619 19.1033 12.7296 19.3246 13.0649 19.3246C13.3197 19.3246 13.5946 19.157 13.8897 18.8217C14.1847 18.473 14.4396 17.9834 14.6542 17.3531L14.976 17.4335C14.3993 19.0698 13.6483 19.8879 12.7229 19.8879C11.8913 19.8879 11.4756 19.385 11.4756 18.3791C11.4756 17.5475 11.9718 15.2273 12.9643 11.4184L11.5158 11.2977C12.2534 11.2977 12.8503 11.1233 13.3063 10.7746C13.7623 10.4125 14.1982 9.76201 14.6139 8.82319ZM16.8342 16.7294C16.8342 15.348 17.2366 14.027 18.0413 12.7662C18.4302 12.1627 18.9399 11.6732 19.5702 11.2977C20.2006 10.9087 20.9181 10.7142 21.7228 10.7142C22.5409 10.7142 23.2048 10.9892 23.7145 11.5391C24.2241 12.089 24.4789 12.84 24.4789 13.7922C24.4789 14.7445 24.3046 15.6699 23.9559 16.5685C23.6072 17.4671 23.0573 18.245 22.3062 18.9021C21.5552 19.5593 20.7102 19.8879 19.7714 19.8879C18.8326 19.8879 18.1084 19.613 17.5987 19.0631C17.0891 18.5132 16.8342 17.7353 16.8342 16.7294ZM21.5619 11.1568C20.8377 11.1568 20.1939 11.519 19.6306 12.2432C19.0807 12.9674 18.6851 13.7587 18.4437 14.6171C18.2157 15.4754 18.1017 16.2801 18.1017 17.0312C18.1017 17.7688 18.2492 18.359 18.5442 18.8015C18.8527 19.2307 19.2685 19.4453 19.7915 19.4453C20.328 19.4453 20.8242 19.2307 21.2802 18.8015C21.7497 18.3724 22.1185 17.8426 22.3867 17.2122C22.9366 15.9247 23.2115 14.8115 23.2115 13.8727C23.2115 12.9205 23.064 12.2298 22.7689 11.8006C22.4739 11.3714 22.0715 11.1568 21.5619 11.1568ZM29.8496 10.8953L30.1312 11.0965C29.4875 12.5718 28.9242 14.2684 28.4413 16.1862H28.6023L28.9242 15.3011C29.5545 13.5844 30.1782 12.3907 30.7951 11.7201C31.412 11.0495 31.9485 10.7142 32.4045 10.7142C32.8605 10.7142 33.1958 10.8618 33.4104 11.1568C33.6384 11.4519 33.7524 11.8341 33.7524 12.3035C33.7524 12.773 33.6652 13.182 33.4909 13.5307C33.3165 13.8794 33.0617 14.0538 32.7264 14.0538C32.4045 14.0538 32.1363 13.9465 31.9217 13.7319C32.0558 13.5575 32.1832 13.3027 32.3039 12.9674C32.4246 12.6321 32.485 12.3371 32.485 12.0822C32.485 11.6933 32.324 11.4988 32.0022 11.4988C31.6669 11.4988 31.2511 11.8274 30.7549 12.4846C29.6685 13.9062 28.7498 16.2935 27.9988 19.6465L26.5905 19.7672L28.562 11.6397L27.2745 11.7402L27.2544 11.3982C28.1798 11.2775 29.0449 11.1099 29.8496 10.8953ZM42.5055 11.0965C42.036 12.4913 41.5935 13.9867 41.1777 15.5827C40.7619 17.1787 40.554 18.2047 40.554 18.6607C40.554 19.1033 40.7217 19.3246 41.057 19.3246C41.3118 19.3246 41.5868 19.157 41.8818 18.8217C42.1769 18.473 42.4317 17.9834 42.6463 17.3531L42.9682 17.4335C42.3915 19.0698 41.6404 19.8879 40.715 19.8879C39.8835 19.8879 39.4677 19.385 39.4677 18.3791C39.4677 18.1779 39.5012 17.856 39.5683 17.4134H39.4677C38.6362 19.0631 37.6705 19.8879 36.5708 19.8879C35.9404 19.8879 35.4106 19.613 34.9815 19.0631C34.5657 18.4998 34.3578 17.8158 34.3578 17.0111C34.3578 16.193 34.4651 15.4352 34.6797 14.7378C34.8943 14.0404 35.196 13.3899 35.585 12.7864C35.9739 12.1694 36.4903 11.6732 37.134 11.2977C37.7778 10.9087 38.4819 10.7142 39.2464 10.7142C40.2389 10.7142 41.0235 11.1367 41.6002 11.9817L42.2238 10.8953L42.5055 11.0965ZM37.0536 19.2844C37.6169 19.2844 38.1869 18.8485 38.7636 17.9767C39.4208 16.9708 40.031 15.3279 40.5943 13.0479C40.715 12.5114 40.8089 12.1225 40.8759 11.8811C40.4065 11.4251 39.8633 11.1971 39.2464 11.1971C38.6429 11.1971 38.0997 11.405 37.6169 11.8207C37.1475 12.2365 36.7786 12.7595 36.5104 13.3899C35.9605 14.6774 35.6856 15.8912 35.6856 17.0312C35.6856 17.7822 35.8063 18.3455 36.0477 18.7211C36.3025 19.0966 36.6378 19.2844 37.0536 19.2844ZM46.2473 18.4797L49.4461 19.2039C50.1435 19.3648 50.6397 19.5794 50.9348 19.8477C51.2298 20.1293 51.3773 20.5115 51.3773 20.9944C51.3773 21.7722 50.9482 22.5032 50.0898 23.1872C49.2449 23.8846 48.2792 24.2333 47.1929 24.2333C46.1065 24.2333 45.2213 23.9852 44.5373 23.489C43.8668 22.9927 43.5315 22.4026 43.5315 21.7186C43.5315 21.2492 43.6924 20.7999 44.0143 20.3707C44.3228 19.9415 44.7855 19.5794 45.4024 19.2844L45.8048 19.4051C45.4024 19.6062 45.0939 19.908 44.8793 20.3104C44.6648 20.7261 44.5575 21.162 44.5575 21.618C44.5575 22.3691 44.8056 22.9257 45.3018 23.2878C45.7981 23.6633 46.4351 23.8511 47.213 23.8511C48.0043 23.8511 48.7285 23.6231 49.3857 23.1671C50.0563 22.7245 50.3916 22.188 50.3916 21.5577C50.3916 20.9273 49.9825 20.5182 49.1644 20.3305L45.7042 19.566C45.3152 19.4855 45.0135 19.3045 44.7989 19.0228C44.5843 18.7412 44.477 18.3992 44.477 17.9968C44.477 17.5945 44.6446 17.2257 44.9799 16.8904C45.3152 16.5551 45.7779 16.3874 46.3681 16.3874H48.3999L48.3396 16.6691H46.3681C46.0864 16.6691 45.8584 16.7562 45.6841 16.9306C45.5231 17.105 45.4426 17.3128 45.4426 17.5542C45.4426 18.0505 45.7109 18.359 46.2473 18.4797ZM49.6271 10.9959L49.607 10.7142C49.9825 10.7142 50.2977 10.6271 50.5525 10.4527C50.8073 10.265 50.9348 10.0235 50.9348 9.72848C50.9348 9.43342 50.7202 9.15178 50.291 8.88354C50.5056 8.42754 50.7604 8.19954 51.0555 8.19954C51.3639 8.19954 51.5919 8.28672 51.7395 8.46107C51.9004 8.63542 51.9809 8.85672 51.9809 9.12495C51.9809 9.59437 51.7663 10.0235 51.3371 10.4125C50.9213 10.8014 50.3513 10.9959 49.6271 10.9959ZM45.9456 14.4762C45.9456 13.4838 46.2943 12.612 46.9917 11.861C47.7025 11.0965 48.5743 10.7142 49.607 10.7142C50.3312 10.7142 50.9012 10.9087 51.317 11.2977C51.7462 11.6732 51.9608 12.2097 51.9608 12.9071C51.9608 14.0337 51.5986 14.9457 50.8744 15.6431C50.1502 16.3271 49.3052 16.6691 48.3396 16.6691C47.6019 16.6691 47.0185 16.4813 46.5893 16.1058C46.1602 15.7168 45.9456 15.1737 45.9456 14.4762ZM49.5869 11.0965C48.8492 11.0965 48.2457 11.5055 47.7763 12.3237C47.3069 13.1284 47.0722 13.8459 47.0722 14.4762C47.0722 15.1066 47.1862 15.5693 47.4142 15.8644C47.6556 16.146 47.9708 16.2868 48.3597 16.2868C48.9498 16.2868 49.5131 15.9515 50.0496 15.281C50.5861 14.6104 50.8543 13.7654 50.8543 12.7461C50.8543 12.2365 50.7336 11.8341 50.4922 11.5391C50.2642 11.244 49.9624 11.0965 49.5869 11.0965ZM58.6354 10.7142C59.3462 10.7142 59.876 10.8886 60.2247 11.2373C60.5868 11.5726 60.7679 12.0621 60.7679 12.7059C60.7679 13.3362 60.5198 13.8861 60.0235 14.3555C59.1786 15.1602 57.9246 15.5626 56.2615 15.5626C55.7653 15.5626 55.3361 15.5224 54.974 15.4419V15.0597C55.4434 15.1267 55.8324 15.1602 56.1408 15.1602C57.254 15.1602 58.1124 14.8786 58.7159 14.3153C59.3328 13.752 59.6413 13.1351 59.6413 12.4645C59.6413 12.1024 59.5407 11.8006 59.3395 11.5592C59.1518 11.3178 58.8299 11.1971 58.3739 11.1971C57.9313 11.1971 57.4753 11.405 57.0059 11.8207C56.5499 12.2365 56.1878 12.7528 55.9195 13.3698C55.3831 14.6707 55.1148 15.7973 55.1148 16.7495C55.1148 18.5199 55.6513 19.4051 56.7242 19.4051C58.052 19.4051 59.0244 18.6808 59.6413 17.2324L59.9632 17.3128C59.6413 18.131 59.1719 18.768 58.5549 19.224C57.9514 19.6666 57.2674 19.8879 56.5029 19.8879C55.7385 19.8879 55.0947 19.6062 54.5716 19.043C54.0486 18.4797 53.7871 17.7219 53.7871 16.7697C53.7871 15.8174 53.9681 14.8987 54.3302 14.0135C54.6924 13.115 55.2556 12.3438 56.0201 11.7C56.7846 11.0428 57.6564 10.7142 58.6354 10.7142ZM76.1068 14.5165H68.2207V13.4502H76.1068V14.5165ZM76.1068 17.9365H68.2207V16.8702H76.1068V17.9365Z" fill="#6082FA"/>
<path opacity="0.86" d="M174.857 7.17354C173.462 8.20625 172.376 9.65472 171.598 11.519C170.82 13.3698 170.431 15.2877 170.431 17.2726C170.431 19.2441 170.887 20.6926 171.799 21.618L171.518 21.9198C170.673 21.3967 170.029 20.6591 169.586 19.7068C169.157 18.7546 168.942 17.6951 168.942 16.5282C168.942 14.6104 169.466 12.7394 170.512 10.9154C171.571 9.07801 172.973 7.73013 174.716 6.87178L174.857 7.17354ZM179.775 14.597H177.803C177.186 17.4402 176.878 18.9357 176.878 19.0832C176.878 19.2173 176.951 19.2844 177.099 19.2844H178.568L178.507 19.6465H174.222L174.282 19.2844H175.208C175.382 19.2844 175.49 19.1838 175.53 18.9826C177.139 11.3647 177.944 7.52225 177.944 7.45519C177.944 7.37472 177.87 7.33448 177.723 7.33448H176.837L176.898 6.97237H181.384C182.296 6.97237 183.047 7.22719 183.637 7.73684C184.227 8.24648 184.522 8.9506 184.522 9.84919C184.522 11.2708 184.033 12.4175 183.054 13.2893C182.075 14.1611 180.982 14.597 179.775 14.597ZM181.163 7.43507H179.332L177.904 14.1342H179.795C180.76 14.1342 181.565 13.6648 182.209 12.726C182.866 11.7872 183.195 10.8014 183.195 9.76872C183.195 9.09813 183.02 8.54154 182.672 8.09895C182.336 7.65637 181.833 7.43507 181.163 7.43507ZM190.582 18.3791C190.582 18.1779 190.615 17.856 190.682 17.4134H190.582C189.723 19.0631 188.731 19.8879 187.604 19.8879C186.397 19.8879 185.794 19.2173 185.794 17.8761C185.794 17.0044 186.102 15.3882 186.719 13.0278L187.081 11.6397L185.794 11.7402L185.773 11.3982C186.699 11.2775 187.564 11.1099 188.369 10.8953L188.65 11.0965C187.524 14.597 186.96 16.8367 186.96 17.8158C186.96 18.7948 187.329 19.2844 188.067 19.2844C188.684 19.2844 189.287 18.8351 189.877 17.9365C190.481 17.0245 190.977 15.804 191.366 14.2751L192.05 11.6397L190.763 11.7402L190.742 11.3982C191.668 11.2775 192.533 11.1099 193.338 10.8953L193.619 11.0965C193.15 12.4913 192.707 13.9867 192.292 15.5827C191.876 17.1787 191.668 18.2047 191.668 18.6607C191.668 19.1033 191.836 19.3246 192.171 19.3246C192.426 19.3246 192.701 19.157 192.996 18.8217C193.291 18.473 193.546 17.9834 193.76 17.3531L194.082 17.4335C193.505 19.0698 192.754 19.8879 191.829 19.8879C190.997 19.8879 190.582 19.385 190.582 18.3791ZM197.715 16.1862H197.876L198.198 15.3011C199.325 12.2432 200.559 10.7142 201.9 10.7142C202.53 10.7142 203.053 10.9959 203.469 11.5592C203.898 12.1091 204.113 12.7931 204.113 13.6112C204.113 14.4159 204.005 15.167 203.791 15.8644C203.576 16.5618 203.274 17.219 202.886 17.8359C202.497 18.4394 201.98 18.9357 201.336 19.3246C200.693 19.7001 200.036 19.8879 199.365 19.8879C198.694 19.8879 198.118 19.7605 197.635 19.5057C197.152 19.2374 196.776 18.8887 196.508 18.4595L196.689 17.9164C197.333 18.9357 198.158 19.4453 199.164 19.4453C199.928 19.4453 200.592 19.0966 201.155 18.3992C201.719 17.6884 202.114 16.9105 202.342 16.0655C202.584 15.2072 202.704 14.4226 202.704 13.7118C202.704 12.9875 202.584 12.4377 202.342 12.0621C202.114 11.6732 201.846 11.4787 201.538 11.4787C201.229 11.4787 200.921 11.6128 200.612 11.8811C200.304 12.1359 199.968 12.5382 199.606 13.0881C198.828 14.2952 198.098 16.2734 197.414 19.0228L196.81 18.3791L196.206 19.8879L195.864 19.7672L199.023 7.17354L197.735 7.27413L197.715 6.93213C198.641 6.81142 199.506 6.64378 200.31 6.42919L200.592 6.63037C199.506 9.79554 198.547 12.9808 197.715 16.1862ZM210.184 7.61613L207.77 19.0832C207.77 19.2173 207.844 19.2844 207.991 19.2844H208.876L208.816 19.6465H205.114L205.175 19.2844H206.1C206.275 19.2844 206.382 19.1838 206.422 18.9826C208.032 11.3647 208.836 7.52225 208.836 7.45519C208.836 7.37472 208.762 7.33448 208.615 7.33448H207.73L207.79 6.97237H211.492L211.431 7.33448H210.526C210.352 7.33448 210.238 7.42837 210.184 7.61613ZM213.061 16.1259L213.101 17.9767C213.128 18.8082 213.349 19.224 213.765 19.224C214.033 19.224 214.255 19.0832 214.429 18.8015C214.617 18.5199 214.711 18.1578 214.711 17.7152L215.093 17.6548C215.093 18.3388 214.912 18.882 214.55 19.2844C214.201 19.6867 213.758 19.8879 213.222 19.8879C212.27 19.8879 211.767 19.1704 211.713 17.7353L211.633 15.7638C211.592 14.892 211.411 14.2885 211.089 13.9532C210.768 13.6045 210.238 13.4301 209.5 13.4301L209.601 13.1082L215.334 7.33448H214.389L214.449 6.97237H217.044L216.984 7.33448H216.461C216.246 7.33448 216.052 7.42837 215.877 7.61613L210.426 13.068C211.391 13.0814 212.062 13.3631 212.437 13.913C212.826 14.4628 213.034 15.2005 213.061 16.1259ZM222.403 10.7142C223.114 10.7142 223.643 10.8886 223.992 11.2373C224.354 11.5726 224.535 12.0621 224.535 12.7059C224.535 13.3362 224.287 13.8861 223.791 14.3555C222.946 15.1602 221.692 15.5626 220.029 15.5626C219.533 15.5626 219.103 15.5224 218.741 15.4419V15.0597C219.211 15.1267 219.6 15.1602 219.908 15.1602C221.021 15.1602 221.88 14.8786 222.483 14.3153C223.1 13.752 223.409 13.1351 223.409 12.4645C223.409 12.1024 223.308 11.8006 223.107 11.5592C222.919 11.3178 222.597 11.1971 222.141 11.1971C221.699 11.1971 221.243 11.405 220.773 11.8207C220.317 12.2365 219.955 12.7528 219.687 13.3698C219.15 14.6707 218.882 15.7973 218.882 16.7495C218.882 18.5199 219.419 19.4051 220.492 19.4051C221.819 19.4051 222.792 18.6808 223.409 17.2324L223.731 17.3128C223.409 18.131 222.939 18.768 222.322 19.224C221.719 19.6666 221.035 19.8879 220.27 19.8879C219.506 19.8879 218.862 19.6062 218.339 19.043C217.816 18.4797 217.554 17.7219 217.554 16.7697C217.554 15.8174 217.735 14.8987 218.098 14.0135C218.46 13.115 219.023 12.3438 219.787 11.7C220.552 11.0428 221.424 10.7142 222.403 10.7142ZM229.172 19.224C230.03 19.224 230.882 18.6004 231.727 17.3531C232.585 16.0924 233.014 14.9188 233.014 13.8325C233.014 12.7327 232.665 11.8341 231.968 11.1367C232.303 10.8551 232.612 10.7142 232.893 10.7142C233.416 10.7142 233.678 11.4519 233.678 12.9272C233.678 14.4025 233.517 15.7571 233.195 16.991C232.873 18.2114 232.451 19.2508 231.928 20.1092C231.418 20.9675 230.835 21.7119 230.177 22.3422C228.903 23.603 227.609 24.2333 226.295 24.2333C225.624 24.2333 225.121 24.0791 224.786 23.7706C224.437 23.4621 224.263 23.1 224.263 22.6842C224.263 22.2685 224.35 21.893 224.524 21.5577C224.685 21.2224 224.933 21.0547 225.269 21.0547C225.604 21.0547 225.879 21.1486 226.094 21.3364C225.705 21.8326 225.51 22.2886 225.51 22.7044C225.51 23.375 225.866 23.7102 226.576 23.7102C227.046 23.7102 227.589 23.5359 228.206 23.1872C228.823 22.8519 229.447 22.3691 230.077 21.7387C230.707 21.1218 231.284 20.2902 231.807 19.2441C232.343 18.198 232.719 17.0647 232.934 15.8442C232.491 17.0111 231.894 17.9767 231.143 18.7412C230.405 19.5057 229.554 19.8879 228.588 19.8879C228.092 19.8879 227.69 19.7202 227.381 19.385C227.086 19.0362 226.939 18.5668 226.939 17.9767C226.939 17.3866 227.16 16.3539 227.602 14.8786C228.058 13.4033 228.286 12.4377 228.286 11.9817C228.286 11.5122 228.112 11.2775 227.763 11.2775C227.509 11.2775 227.24 11.4519 226.959 11.8006C226.677 12.1359 226.449 12.6187 226.275 13.2491L225.933 13.1686C226.429 11.5324 227.146 10.7142 228.085 10.7142C228.957 10.7142 229.393 11.1837 229.393 12.1225C229.393 12.498 229.185 13.4301 228.769 14.9188C228.353 16.4075 228.146 17.3866 228.146 17.856C228.146 18.768 228.488 19.224 229.172 19.224ZM235.14 21.8795C236.012 21.209 236.448 20.5048 236.448 19.7672C236.448 19.3648 236.307 19.0362 236.025 18.7814C236.092 18.473 236.247 18.2047 236.488 17.9767C236.743 17.7487 237.011 17.6347 237.293 17.6347C237.843 17.6347 238.117 17.9097 238.117 18.4595C238.117 19.0094 237.843 19.6599 237.293 20.411C236.756 21.1754 236.092 21.7588 235.301 22.1612L235.14 21.8795ZM250.281 14.597H248.31C247.693 17.4402 247.385 18.9357 247.385 19.0832C247.385 19.2173 247.458 19.2844 247.606 19.2844H249.074L249.014 19.6465H244.729L244.789 19.2844H245.715C245.889 19.2844 245.996 19.1838 246.037 18.9826C247.646 11.3647 248.451 7.52225 248.451 7.45519C248.451 7.37472 248.377 7.33448 248.229 7.33448H247.344L247.405 6.97237H251.891C252.803 6.97237 253.554 7.22719 254.144 7.73684C254.734 8.24648 255.029 8.9506 255.029 9.84919C255.029 11.2708 254.54 12.4175 253.561 13.2893C252.582 14.1611 251.489 14.597 250.281 14.597ZM251.67 7.43507H249.839L248.411 14.1342H250.302C251.267 14.1342 252.072 13.6648 252.716 12.726C253.373 11.7872 253.701 10.8014 253.701 9.76872C253.701 9.09813 253.527 8.54154 253.178 8.09895C252.843 7.65637 252.34 7.43507 251.67 7.43507ZM258.996 10.8953L259.278 11.0965C258.634 12.5718 258.071 14.2684 257.588 16.1862H257.749L258.071 15.3011C258.701 13.5844 259.325 12.3907 259.942 11.7201C260.559 11.0495 261.095 10.7142 261.551 10.7142C262.007 10.7142 262.342 10.8618 262.557 11.1568C262.785 11.4519 262.899 11.8341 262.899 12.3035C262.899 12.773 262.812 13.182 262.637 13.5307C262.463 13.8794 262.208 14.0538 261.873 14.0538C261.551 14.0538 261.283 13.9465 261.068 13.7319C261.202 13.5575 261.33 13.3027 261.451 12.9674C261.571 12.6321 261.632 12.3371 261.632 12.0822C261.632 11.6933 261.471 11.4988 261.149 11.4988C260.813 11.4988 260.398 11.8274 259.901 12.4846C258.815 13.9062 257.896 16.2935 257.145 19.6465L255.737 19.7672L257.709 11.6397L256.421 11.7402L256.401 11.3982C257.326 11.2775 258.191 11.1099 258.996 10.8953ZM266.381 8.70248C266.207 8.52813 266.12 8.31354 266.12 8.05872C266.12 7.8039 266.207 7.58931 266.381 7.41495C266.556 7.2406 266.77 7.15342 267.025 7.15342C267.28 7.15342 267.494 7.2406 267.669 7.41495C267.843 7.58931 267.93 7.8039 267.93 8.05872C267.93 8.31354 267.843 8.52813 267.669 8.70248C267.494 8.87684 267.28 8.96401 267.025 8.96401C266.77 8.96401 266.556 8.87684 266.381 8.70248ZM264.108 18.3791C264.108 17.6682 264.597 15.4218 265.577 11.6397L264.289 11.7402L264.269 11.3982C265.194 11.2775 266.059 11.1099 266.864 10.8953L267.146 11.0965C266.676 12.4913 266.234 13.9867 265.818 15.5827C265.402 17.1787 265.194 18.2047 265.194 18.6607C265.194 19.1033 265.362 19.3246 265.697 19.3246C265.952 19.3246 266.227 19.157 266.522 18.8217C266.817 18.473 267.072 17.9834 267.287 17.3531L267.608 17.4335C267.032 19.0698 266.281 19.8879 265.355 19.8879C264.524 19.8879 264.108 19.385 264.108 18.3791ZM272.685 19.224C273.544 19.224 274.382 18.6004 275.2 17.3531C276.018 16.1058 276.427 14.9591 276.427 13.913C276.427 12.8668 276.112 11.9414 275.482 11.1367C275.817 10.8551 276.119 10.7142 276.387 10.7142C276.655 10.7142 276.85 10.8819 276.97 11.2172C277.091 11.5525 277.152 12.0085 277.152 12.5852C277.152 13.1485 277.038 13.8526 276.81 14.6975C276.582 15.5425 276.266 16.3606 275.864 17.1519C275.462 17.9298 274.925 18.5802 274.255 19.1033C273.584 19.6264 272.866 19.8879 272.102 19.8879C271.606 19.8879 271.203 19.7202 270.895 19.385C270.6 19.0362 270.452 18.5668 270.452 17.9767C270.452 17.3866 270.674 16.3539 271.116 14.8786C271.572 13.4033 271.8 12.4377 271.8 11.9817C271.8 11.5122 271.626 11.2775 271.277 11.2775C271.022 11.2775 270.754 11.4519 270.472 11.8006C270.191 12.1359 269.963 12.6187 269.788 13.2491L269.446 13.1686C269.943 11.5324 270.66 10.7142 271.599 10.7142C272.471 10.7142 272.907 11.1837 272.907 12.1225C272.907 12.498 272.699 13.4301 272.283 14.9188C271.867 16.4075 271.659 17.3866 271.659 17.856C271.659 18.768 272.001 19.224 272.685 19.224ZM283.333 7.61613L280.919 19.0832C280.919 19.2173 280.993 19.2844 281.14 19.2844H282.025L281.965 19.6465H278.263L278.324 19.2844H279.249C279.423 19.2844 279.531 19.1838 279.571 18.9826C281.18 11.3647 281.985 7.52225 281.985 7.45519C281.985 7.37472 281.911 7.33448 281.764 7.33448H280.879L280.939 6.97237H284.641L284.58 7.33448H283.675C283.501 7.33448 283.387 7.42837 283.333 7.61613ZM286.21 16.1259L286.25 17.9767C286.277 18.8082 286.498 19.224 286.914 19.224C287.182 19.224 287.403 19.0832 287.578 18.8015C287.766 18.5199 287.859 18.1578 287.859 17.7152L288.242 17.6548C288.242 18.3388 288.061 18.882 287.699 19.2844C287.35 19.6867 286.907 19.8879 286.371 19.8879C285.419 19.8879 284.916 19.1704 284.862 17.7353L284.781 15.7638C284.741 14.892 284.56 14.2885 284.238 13.9532C283.916 13.6045 283.387 13.4301 282.649 13.4301L282.75 13.1082L288.483 7.33448H287.538L287.598 6.97237H290.193L290.133 7.33448H289.61C289.395 7.33448 289.201 7.42837 289.026 7.61613L283.574 13.068C284.54 13.0814 285.211 13.3631 285.586 13.913C285.975 14.4628 286.183 15.2005 286.21 16.1259ZM295.552 10.7142C296.262 10.7142 296.792 10.8886 297.141 11.2373C297.503 11.5726 297.684 12.0621 297.684 12.7059C297.684 13.3362 297.436 13.8861 296.94 14.3555C296.095 15.1602 294.841 15.5626 293.178 15.5626C292.682 15.5626 292.252 15.5224 291.89 15.4419V15.0597C292.36 15.1267 292.749 15.1602 293.057 15.1602C294.17 15.1602 295.029 14.8786 295.632 14.3153C296.249 13.752 296.558 13.1351 296.558 12.4645C296.558 12.1024 296.457 11.8006 296.256 11.5592C296.068 11.3178 295.746 11.1971 295.29 11.1971C294.848 11.1971 294.392 11.405 293.922 11.8207C293.466 12.2365 293.104 12.7528 292.836 13.3698C292.299 14.6707 292.031 15.7973 292.031 16.7495C292.031 18.5199 292.568 19.4051 293.64 19.4051C294.968 19.4051 295.941 18.6808 296.558 17.2324L296.879 17.3128C296.558 18.131 296.088 18.768 295.471 19.224C294.868 19.6666 294.184 19.8879 293.419 19.8879C292.655 19.8879 292.011 19.6062 291.488 19.043C290.965 18.4797 290.703 17.7219 290.703 16.7697C290.703 15.8174 290.884 14.8987 291.246 14.0135C291.609 13.115 292.172 12.3438 292.936 11.7C293.701 11.0428 294.573 10.7142 295.552 10.7142ZM302.32 19.224C303.179 19.224 304.03 18.6004 304.875 17.3531C305.734 16.0924 306.163 14.9188 306.163 13.8325C306.163 12.7327 305.814 11.8341 305.117 11.1367C305.452 10.8551 305.761 10.7142 306.042 10.7142C306.565 10.7142 306.827 11.4519 306.827 12.9272C306.827 14.4025 306.666 15.7571 306.344 16.991C306.022 18.2114 305.6 19.2508 305.077 20.1092C304.567 20.9675 303.984 21.7119 303.326 22.3422C302.052 23.603 300.758 24.2333 299.444 24.2333C298.773 24.2333 298.27 24.0791 297.935 23.7706C297.586 23.4621 297.412 23.1 297.412 22.6842C297.412 22.2685 297.499 21.893 297.673 21.5577C297.834 21.2224 298.082 21.0547 298.418 21.0547C298.753 21.0547 299.028 21.1486 299.242 21.3364C298.854 21.8326 298.659 22.2886 298.659 22.7044C298.659 23.375 299.014 23.7102 299.725 23.7102C300.195 23.7102 300.738 23.5359 301.355 23.1872C301.972 22.8519 302.595 22.3691 303.226 21.7387C303.856 21.1218 304.433 20.2902 304.956 19.2441C305.492 18.198 305.868 17.0647 306.082 15.8442C305.64 17.0111 305.043 17.9767 304.292 18.7412C303.554 19.5057 302.703 19.8879 301.737 19.8879C301.241 19.8879 300.838 19.7202 300.53 19.385C300.235 19.0362 300.087 18.5668 300.087 17.9767C300.087 17.3866 300.309 16.3539 300.751 14.8786C301.207 13.4033 301.435 12.4377 301.435 11.9817C301.435 11.5122 301.261 11.2775 300.912 11.2775C300.657 11.2775 300.389 11.4519 300.108 11.8006C299.826 12.1359 299.598 12.6187 299.424 13.2491L299.082 13.1686C299.578 11.5324 300.295 10.7142 301.234 10.7142C302.106 10.7142 302.542 11.1837 302.542 12.1225C302.542 12.498 302.334 13.4301 301.918 14.9188C301.502 16.4075 301.294 17.3866 301.294 17.856C301.294 18.768 301.636 19.224 302.32 19.224ZM307.263 21.618C308.604 20.5987 309.67 19.1435 310.462 17.2525C311.253 15.3614 311.649 13.4502 311.649 11.519C311.649 9.57425 311.199 8.12578 310.301 7.17354L310.542 6.87178C311.414 7.39484 312.064 8.13248 312.494 9.08472C312.923 10.0235 313.137 11.0831 313.137 12.2633C313.137 14.1812 312.608 16.0588 311.548 17.8962C310.502 19.7337 309.1 21.0748 307.343 21.9198L307.263 21.618Z" fill="#6082FA"/>
<path opacity="0.86" d="M83.818 5.85518H89.8734C90.8927 5.85518 91.6169 5.79483 92.0461 5.67412C91.8449 6.14353 91.6035 7.00859 91.3219 8.2693L91.1207 9.21483H90.6781L90.9396 6.65988C90.9396 6.43188 90.7921 6.31788 90.497 6.31788H86.2522L85.0653 11.9106H89.129C89.2632 11.8972 89.357 11.8033 89.4107 11.6289L89.813 10.3816H90.155L89.3705 14.0028H89.0285L89.2095 12.7555C89.2095 12.5678 89.1358 12.4739 88.9882 12.4739H84.9647L83.7778 18.0666H88.2238C88.5456 18.0666 88.7535 17.9191 88.8474 17.624L89.6923 15.1696H90.1349L89.9338 16.1152C89.6789 17.3088 89.5515 18.1739 89.5515 18.7104C89.1626 18.5896 88.4719 18.5293 87.4794 18.5293H81.1423L81.2027 18.1672H82.1281C82.3025 18.1672 82.4098 18.0666 82.45 17.8654C84.0594 10.2475 84.8641 6.40506 84.8641 6.338C84.8641 6.25753 84.7903 6.2173 84.6428 6.2173H83.7576L83.818 5.85518ZM101.26 11.4278C101.26 12.0045 100.931 13.064 100.274 14.6064C99.6303 16.1487 99.3084 17.1345 99.3084 17.5636C99.3084 17.9928 99.4761 18.2074 99.8114 18.2074C100.066 18.2074 100.341 18.0398 100.636 17.7045C100.931 17.3558 101.186 16.8662 101.401 16.2359L101.723 16.3164C101.146 17.9526 100.395 18.7707 99.4694 18.7707C98.6378 18.7707 98.2221 18.3147 98.2221 17.4027C98.2221 17.0138 98.5238 16.0481 99.1274 14.5058C99.7443 12.9634 100.053 11.9709 100.053 11.5284C100.053 10.6834 99.7443 10.2609 99.1274 10.2609C98.4568 10.2609 97.7325 10.8041 96.9547 11.8905C96.0561 13.1914 95.2581 15.4044 94.5607 18.5293L93.1524 18.65L95.1239 10.5225L93.8364 10.6231L93.8163 10.2811C94.7417 10.1604 95.6068 9.99271 96.4115 9.77812L96.6931 9.9793C96.0494 11.4546 95.4861 13.1512 95.0032 15.0691H95.1642L95.4861 14.1839C96.2103 12.1587 96.9949 10.8444 97.8398 10.2408C98.2422 9.97259 98.5708 9.79824 98.8256 9.71777C99.0938 9.6373 99.4224 9.59706 99.8114 9.59706C100.214 9.59706 100.556 9.758 100.837 10.0799C101.119 10.4018 101.26 10.8511 101.26 11.4278ZM108.32 10.0799C107.77 10.0799 107.26 10.2878 106.791 10.7035C106.335 11.1193 105.973 11.6356 105.704 12.2526C105.168 13.5535 104.9 14.6801 104.9 15.6324C104.9 17.4027 105.436 18.2879 106.509 18.2879C107.837 18.2879 108.809 17.5636 109.426 16.1152L109.748 16.1956C109.426 17.0138 108.957 17.6508 108.34 18.1068C107.736 18.5494 107.052 18.7707 106.288 18.7707C105.523 18.7707 104.88 18.4891 104.357 17.9258C103.833 17.3625 103.572 16.6047 103.572 15.6525C103.572 14.7002 103.753 13.7815 104.115 12.8964C104.477 11.9978 105.041 11.2266 105.805 10.5828C106.569 9.92565 107.441 9.59706 108.42 9.59706C109.091 9.59706 109.594 9.77141 109.929 10.1201C110.278 10.4554 110.452 10.8645 110.452 11.3473C110.452 11.8167 110.365 12.2392 110.191 12.6147C110.03 12.9902 109.768 13.178 109.406 13.178C109.057 13.178 108.796 13.0707 108.621 12.8561C109.01 12.266 109.205 11.6893 109.205 11.126C109.205 10.4286 108.91 10.0799 108.32 10.0799Z" fill="#6082FA"/>
<path opacity="0.86" d="M112.859 12.0799H116.896C117.576 12.0799 118.058 12.0396 118.344 11.9592C118.21 12.2721 118.049 12.8488 117.862 13.6893L117.728 14.3196H117.432L117.607 12.6164C117.607 12.4644 117.508 12.3884 117.312 12.3884H114.482L113.691 16.1168H116.4C116.489 16.1079 116.552 16.0453 116.588 15.9291L116.856 15.0975H117.084L116.561 17.5116H116.333L116.453 16.6801C116.453 16.5549 116.404 16.4924 116.306 16.4924H113.624L112.832 20.2208H115.796C116.011 20.2208 116.149 20.1225 116.212 19.9258L116.775 18.2895H117.07L116.936 18.9199C116.766 19.7156 116.681 20.2924 116.681 20.65C116.422 20.5695 115.962 20.5293 115.3 20.5293H111.075L111.116 20.2879H111.732C111.849 20.2879 111.92 20.2208 111.947 20.0867C113.02 15.0081 113.556 12.4465 113.556 12.4018C113.556 12.3481 113.507 12.3213 113.409 12.3213H112.819L112.859 12.0799ZM125.6 17.4982L125.506 17.9542C125.336 18.75 124.925 19.4072 124.272 19.9258C123.629 20.4354 122.873 20.6902 122.006 20.6902C121.138 20.6902 120.446 20.422 119.927 19.8855C119.408 19.3491 119.149 18.598 119.149 17.6324C119.149 16.9796 119.256 16.3225 119.471 15.6608C119.686 14.9992 119.985 14.3867 120.37 13.8234C120.763 13.2601 121.268 12.8041 121.885 12.4554C122.502 12.0978 123.173 11.9189 123.897 11.9189C124.451 11.9189 124.97 12.0799 125.453 12.4018C125.614 12.5001 125.73 12.5493 125.801 12.5493C125.909 12.5493 125.994 12.4554 126.056 12.2676L126.137 11.9994H126.378L125.882 14.3196H125.654C125.663 14.2481 125.667 14.1453 125.667 14.0112C125.667 13.43 125.493 13.0008 125.144 12.7236C124.804 12.4465 124.344 12.3079 123.763 12.3079C123.182 12.3079 122.645 12.4956 122.153 12.8712C121.662 13.2467 121.268 13.7161 120.973 14.2794C120.374 15.4596 120.074 16.6309 120.074 17.7933C120.074 18.598 120.253 19.2194 120.611 19.6575C120.969 20.0867 121.492 20.3013 122.18 20.3013C122.878 20.3013 123.432 20.0733 123.843 19.6173C124.254 19.1613 124.541 18.4415 124.702 17.458C124.702 17.3596 124.657 17.3105 124.567 17.3105H123.722L123.763 17.0691H126.217L126.177 17.3105H125.842C125.707 17.3105 125.627 17.3731 125.6 17.4982ZM128.431 12.0799H132.468C133.148 12.0799 133.631 12.0396 133.917 11.9592C133.783 12.2721 133.622 12.8488 133.434 13.6893L133.3 14.3196H133.005L133.179 12.6164C133.179 12.4644 133.081 12.3884 132.884 12.3884H130.054L129.263 16.1168H131.972C132.061 16.1079 132.124 16.0453 132.16 15.9291L132.428 15.0975H132.656L132.133 17.5116H131.905L132.026 16.6801C132.026 16.5549 131.977 16.4924 131.878 16.4924H129.196L128.405 20.2208H131.369C131.583 20.2208 131.722 20.1225 131.784 19.9258L132.348 18.2895H132.643L132.509 18.9199C132.339 19.7156 132.254 20.2924 132.254 20.65C131.994 20.5695 131.534 20.5293 130.872 20.5293H126.648L126.688 20.2879H127.305C127.421 20.2879 127.493 20.2208 127.519 20.0867C128.592 15.0081 129.129 12.4465 129.129 12.4018C129.129 12.3481 129.08 12.3213 128.981 12.3213H128.391L128.431 12.0799ZM136.599 12.0799H140.019C140.69 12.0799 141.168 12.0396 141.454 11.9592C141.338 12.2274 141.181 12.8041 140.985 13.6893L140.851 14.3196H140.555L140.703 12.6968C140.703 12.5359 140.6 12.4554 140.395 12.4554H138.678C137.596 17.5608 137.055 20.1448 137.055 20.2074C137.055 20.2611 137.104 20.2879 137.203 20.2879H138.356L138.316 20.5293H134.721L134.762 20.2879H135.942C136.058 20.2879 136.13 20.2208 136.156 20.0867L137.766 12.4554H136.063C135.848 12.4554 135.709 12.5538 135.647 12.7505L135.124 14.3196H134.829L134.963 13.6893C135.133 12.9114 135.218 12.3347 135.218 11.9592C135.477 12.0396 135.937 12.0799 136.599 12.0799ZM144.159 12.5091L142.55 20.1538C142.55 20.2432 142.599 20.2879 142.697 20.2879H143.287L143.247 20.5293H140.779L140.819 20.2879H141.436C141.553 20.2879 141.624 20.2208 141.651 20.0867C142.724 15.0081 143.26 12.4465 143.26 12.4018C143.26 12.3481 143.211 12.3213 143.113 12.3213H142.523L142.563 12.0799H145.031L144.99 12.3213H144.387C144.271 12.3213 144.195 12.3839 144.159 12.5091ZM146.077 18.1822L146.104 19.4161C146.122 19.9705 146.269 20.2476 146.546 20.2476C146.725 20.2476 146.873 20.1538 146.989 19.966C147.114 19.7782 147.177 19.5368 147.177 19.2418L147.431 19.2015C147.431 19.6575 147.311 20.0196 147.069 20.2879C146.837 20.5561 146.542 20.6902 146.184 20.6902C145.549 20.6902 145.214 20.2119 145.178 19.2552L145.125 17.9408C145.098 17.3596 144.977 16.9573 144.762 16.7338C144.548 16.5013 144.195 16.3851 143.703 16.3851L143.77 16.1705L147.592 12.3213H146.962L147.002 12.0799H148.732L148.692 12.3213H148.343C148.2 12.3213 148.071 12.3839 147.954 12.5091L144.32 16.1436C144.964 16.1526 145.411 16.3404 145.661 16.7069C145.92 17.0735 146.059 17.5653 146.077 18.1822ZM150.454 12.0799H154.491C155.17 12.0799 155.653 12.0396 155.939 11.9592C155.805 12.2721 155.644 12.8488 155.456 13.6893L155.322 14.3196H155.027L155.202 12.6164C155.202 12.4644 155.103 12.3884 154.907 12.3884H152.077L151.285 16.1168H153.995C154.084 16.1079 154.147 16.0453 154.182 15.9291L154.451 15.0975H154.679L154.156 17.5116H153.928L154.048 16.6801C154.048 16.5549 153.999 16.4924 153.901 16.4924H151.218L150.427 20.2208H153.391C153.606 20.2208 153.744 20.1225 153.807 19.9258L154.37 18.2895H154.665L154.531 18.9199C154.361 19.7156 154.276 20.2924 154.276 20.65C154.017 20.5695 153.556 20.5293 152.895 20.5293H148.67L148.71 20.2879H149.327C149.444 20.2879 149.515 20.2208 149.542 20.0867C150.615 15.0081 151.151 12.4465 151.151 12.4018C151.151 12.3481 151.102 12.3213 151.004 12.3213H150.414L150.454 12.0799ZM159.386 17.9811L158.796 18.0481L157.562 12.5091C157.535 12.3839 157.468 12.3213 157.361 12.3213H156.891L156.932 12.0799H159.145L159.104 12.3213H158.474L159.547 17.0825L162.377 12.3213H161.746L161.787 12.0799H163.517L163.477 12.3213H163.007C162.9 12.3213 162.806 12.3839 162.726 12.5091L159.386 17.9811ZM158.769 17.2836L159.627 17.5116C159.261 19.2462 159.078 20.1448 159.078 20.2074C159.078 20.2611 159.127 20.2879 159.225 20.2879H160.11L160.07 20.5293H157.012L157.052 20.2879H157.964C158.081 20.2879 158.152 20.2208 158.179 20.0867L158.769 17.2836Z" fill="#6082FA"/>
</svg>
