<svg width="18" height="19" viewBox="0 0 18 19" fill="none" xmlns="http://www.w3.org/2000/svg">
<path opacity="0.86" d="M6.578 9.227H4.324C3.61867 12.4777 3.266 14.1873 3.266 14.356C3.266 14.5093 3.35033 14.586 3.519 14.586H5.198L5.129 15H0.23L0.299 14.586H1.357C1.55633 14.586 1.679 14.471 1.725 14.241C3.565 5.53167 4.485 1.13867 4.485 1.062C4.485 0.969999 4.40067 0.923999 4.232 0.923999H3.22L3.289 0.509999H8.418C9.46067 0.509999 10.3193 0.801332 10.994 1.384C11.6687 1.96667 12.006 2.77167 12.006 3.799C12.006 5.42433 11.4463 6.73533 10.327 7.732C9.20767 8.72867 7.958 9.227 6.578 9.227ZM8.165 1.039H6.072L4.439 8.698H6.601C7.705 8.698 8.625 8.16133 9.361 7.088C10.1123 6.01467 10.488 4.88767 10.488 3.707C10.488 2.94033 10.2887 2.304 9.89 1.798C9.50667 1.292 8.93167 1.039 8.165 1.039Z" fill="#22B1DF"/>
<path opacity="0.86" d="M17.1836 9.3252C17.0833 9.43001 16.9694 9.5166 16.8418 9.58496C16.7142 9.64876 16.5798 9.68978 16.4385 9.70801C16.2972 9.72168 16.1628 9.69889 16.0352 9.63965C15.9121 9.5804 15.805 9.49609 15.7139 9.38672C15.5179 9.15885 15.4199 8.92871 15.4199 8.69629C15.4199 8.46387 15.4564 8.29069 15.5293 8.17676C15.6068 8.05827 15.7025 7.96257 15.8164 7.88965C16.0352 7.74837 16.2402 7.67773 16.4316 7.67773C16.6276 7.67773 16.778 7.69141 16.8828 7.71875C16.9922 7.74609 17.0924 7.79167 17.1836 7.85547C17.4069 8.00586 17.5186 8.19043 17.5186 8.40918C17.5186 8.62337 17.4867 8.80339 17.4229 8.94922C17.3636 9.09049 17.2839 9.21582 17.1836 9.3252ZM15.7822 16.7217C15.9007 16.7217 15.96 16.7992 15.96 16.9541C15.96 17.1592 15.8665 17.3711 15.6797 17.5898C15.4062 17.9089 15.0394 18.0684 14.5791 18.0684C14.0505 18.0684 13.6882 17.8542 13.4922 17.4258C13.4193 17.2754 13.3828 17.0931 13.3828 16.8789C13.3828 16.6647 13.4193 16.4277 13.4922 16.168C13.5697 15.9036 13.6631 15.6279 13.7725 15.3408C13.8864 15.0492 14.0094 14.7552 14.1416 14.459L14.5039 13.5977C14.7682 12.9551 14.9004 12.5312 14.9004 12.3262C14.9004 12.1211 14.8776 11.9867 14.832 11.9229C14.791 11.8545 14.7454 11.8021 14.6953 11.7656L14.5586 11.6699C14.513 11.638 14.4902 11.5833 14.4902 11.5059C14.4902 11.4238 14.5199 11.3464 14.5791 11.2734C14.6429 11.2005 14.7249 11.1367 14.8252 11.082C15.0303 10.9772 15.2695 10.9248 15.543 10.9248C16.2129 10.9248 16.5479 11.1003 16.5479 11.4512C16.5479 11.8613 16.4408 12.3307 16.2266 12.8594C16.0124 13.3835 15.8301 13.8073 15.6797 14.1309L15.2695 15.0742C14.9688 15.7669 14.8184 16.266 14.8184 16.5713C14.8184 16.7718 14.9186 16.8721 15.1191 16.8721C15.3151 16.8721 15.4632 16.847 15.5635 16.7969C15.6637 16.7467 15.7367 16.7217 15.7822 16.7217Z" fill="#22B1DF"/>
</svg>
