<svg width="85" height="18" viewBox="0 0 85 18" fill="none" xmlns="http://www.w3.org/2000/svg">
<path opacity="0.86" d="M41.026 1.246L38.243 14.471H42.774C43.1573 14.471 43.4027 14.3023 43.51 13.965L44.453 11.159H44.959L44.729 12.24C44.4377 13.574 44.292 14.563 44.292 15.207C43.8473 15.069 43.0577 15 41.923 15H35.23L35.299 14.586H36.357C36.5563 14.586 36.679 14.471 36.725 14.241C38.565 5.53167 39.485 1.13867 39.485 1.062C39.485 0.969999 39.4007 0.923999 39.232 0.923999H38.22L38.289 0.509999H42.521L42.452 0.923999H41.417C41.2177 0.923999 41.0873 1.03133 41.026 1.246Z" fill="#22B1DF"/>
<path opacity="0.86" d="M6.026 1.246L3.243 14.471H7.774C8.15733 14.471 8.40267 14.3023 8.51 13.965L9.453 11.159H9.959L9.729 12.24C9.43767 13.574 9.292 14.563 9.292 15.207C8.84733 15.069 8.05767 15 6.923 15H0.23L0.299 14.586H1.357C1.55633 14.586 1.679 14.471 1.725 14.241C3.565 5.53167 4.485 1.13867 4.485 1.062C4.485 0.969999 4.40067 0.923999 4.232 0.923999H3.22L3.289 0.509999H7.521L7.452 0.923999H6.417C6.21767 0.923999 6.08733 1.03133 6.026 1.246ZM27.7179 9.135H18.7019V7.916H27.7179V9.135ZM27.7179 13.045H18.7019V11.826H27.7179V13.045Z" fill="#22B1DF"/>
<path opacity="0.86" d="M61.716 5.984V9.871H65.626V11.09H61.716V15H60.497V11.09H56.61V9.871H60.497V5.984H61.716Z" fill="#22B1DF"/>
<path opacity="0.86" d="M73.026 1.246L70.243 14.471H74.774C75.1573 14.471 75.4027 14.3023 75.51 13.965L76.453 11.159H76.959L76.729 12.24C76.4377 13.574 76.292 14.563 76.292 15.207C75.8473 15.069 75.0577 15 73.923 15H67.23L67.299 14.586H68.357C68.5563 14.586 68.679 14.471 68.725 14.241C70.565 5.53167 71.485 1.13867 71.485 1.062C71.485 0.969999 71.4007 0.923999 71.232 0.923999H70.22L70.289 0.509999H74.521L74.452 0.923999H73.417C73.2177 0.923999 73.0873 1.03133 73.026 1.246Z" fill="#22B1DF"/>
<path opacity="0.86" d="M47.022 17V16.734H48.66C48.772 16.734 48.8373 16.678 48.856 16.566V10.126C48.856 9.89267 48.716 9.776 48.436 9.776L46.882 9.86L46.854 9.524L48.128 9.342C48.9307 9.22067 49.5653 9.07133 50.032 8.894C49.9387 9.24867 49.892 9.78067 49.892 10.49V16.538C49.892 16.6687 49.962 16.734 50.102 16.734H51.418V17H47.022Z" fill="#22B1DF"/>
<path opacity="0.86" d="M82.466 10.924C82.466 10.392 82.3447 9.972 82.102 9.664C81.8687 9.356 81.5373 9.202 81.108 9.202C80.688 9.202 80.366 9.30933 80.142 9.524C79.918 9.73867 79.806 10.0093 79.806 10.336C79.806 10.6627 79.8667 10.952 79.988 11.204C79.8293 11.344 79.6147 11.414 79.344 11.414C79.008 11.414 78.84 11.162 78.84 10.658C78.84 10.1447 79.022 9.72467 79.386 9.398C79.7593 9.062 80.3287 8.894 81.094 8.894C81.8687 8.894 82.4707 9.076 82.9 9.44C83.3387 9.804 83.558 10.238 83.558 10.742C83.558 11.442 83.2313 12.1653 82.578 12.912C82.5127 12.9867 82.3587 13.1547 82.116 13.416C81.8827 13.668 81.7473 13.8173 81.71 13.864L79.624 16.118H82.844C83.068 16.118 83.1987 16.0153 83.236 15.81L83.418 14.592H83.74V15.264C83.74 16.0853 83.7867 16.706 83.88 17.126C83.5627 17.042 83.026 17 82.27 17H78.28L81.458 13.5C82.13 12.7533 82.466 11.8947 82.466 10.924Z" fill="#22B1DF"/>
</svg>
