<svg width="29" height="17" viewBox="0 0 29 17" fill="none" xmlns="http://www.w3.org/2000/svg">
<g clip-path="url(#clip0_675_2156)">
<path opacity="0.86" d="M6.279 0.509999L10.856 12.125C12.4047 4.79567 13.179 1.10033 13.179 1.039C13.179 0.962332 13.0947 0.923999 12.926 0.923999H11.914L11.983 0.509999H15.387L15.318 0.923999H14.283C14.0837 0.923999 13.9533 1.03133 13.892 1.246L10.994 15H10.304L4.922 1.499C3.128 10.0243 2.231 14.3407 2.231 14.448C2.231 14.54 2.31533 14.586 2.484 14.586H3.496L3.427 15H0L0.069 14.586H1.127C1.32633 14.586 1.449 14.471 1.495 14.241C3.335 5.53167 4.255 1.13867 4.255 1.062C4.255 0.969999 4.17067 0.923999 4.002 0.923999H2.99L3.059 0.509999H6.279Z" fill="#22B1DF"/>
<path opacity="0.86" d="M19.466 10.924C19.466 10.392 19.3447 9.972 19.102 9.664C18.8687 9.356 18.5373 9.202 18.108 9.202C17.688 9.202 17.366 9.30933 17.142 9.524C16.918 9.73867 16.806 10.0093 16.806 10.336C16.806 10.6627 16.8667 10.952 16.988 11.204C16.8293 11.344 16.6147 11.414 16.344 11.414C16.008 11.414 15.84 11.162 15.84 10.658C15.84 10.1447 16.022 9.72467 16.386 9.398C16.7593 9.062 17.3287 8.894 18.094 8.894C18.8687 8.894 19.4707 9.076 19.9 9.44C20.3387 9.804 20.558 10.238 20.558 10.742C20.558 11.442 20.2313 12.1653 19.578 12.912C19.5127 12.9867 19.3587 13.1547 19.116 13.416C18.8827 13.668 18.7473 13.8173 18.71 13.864L16.624 16.118H19.844C20.068 16.118 20.1987 16.0153 20.236 15.81L20.418 14.592H20.74V15.264C20.74 16.0853 20.7867 16.706 20.88 17.126C20.5627 17.042 20.026 17 19.27 17H15.28L18.458 13.5C19.13 12.7533 19.466 11.8947 19.466 10.924ZM26.1985 8.894H26.6605V14.69H27.8365V15.124H26.6605V16.566C26.6605 16.678 26.7305 16.734 26.8705 16.734H27.8365V17H24.4625V16.734H25.4285C25.5591 16.734 25.6245 16.6687 25.6245 16.538V15.124H21.7605L26.1985 8.894ZM22.5585 14.69H25.6245V10.392L22.5585 14.69Z" fill="#22B1DF"/>
</g>
<defs>
<clipPath id="clip0_675_2156">
<rect width="29" height="17" fill="white"/>
</clipPath>
</defs>
</svg>
