<svg width="14" height="16" viewBox="0 0 14 16" fill="none" xmlns="http://www.w3.org/2000/svg">
<path opacity="0.86" d="M5.957 8.307H4.508C3.68 12.2477 3.266 14.2793 3.266 14.402C3.266 14.5247 3.35033 14.586 3.519 14.586H4.991L4.922 15H0.23L0.299 14.586H1.357C1.55633 14.586 1.679 14.471 1.725 14.241C3.565 5.53167 4.485 1.13867 4.485 1.062C4.485 0.969999 4.40067 0.923999 4.232 0.923999H3.22L3.289 0.509999H8.51C9.568 0.509999 10.442 0.785999 11.132 1.338C11.8373 1.87467 12.19 2.672 12.19 3.73C12.19 4.77267 11.8067 5.70033 11.04 6.513C10.2887 7.32567 9.35333 7.87 8.234 8.146C9.30733 8.56 9.844 9.39567 9.844 10.653C9.844 11.0977 9.76733 11.688 9.614 12.424C9.476 13.16 9.407 13.6353 9.407 13.85C9.407 14.2793 9.57567 14.494 9.913 14.494C10.2503 14.494 10.603 14.2563 10.971 13.781C11.339 13.2903 11.6687 12.6003 11.96 11.711L12.351 11.803C11.937 13.0297 11.477 13.919 10.971 14.471C10.465 15.0077 9.867 15.276 9.177 15.276C8.83967 15.276 8.556 15.1533 8.326 14.908C8.096 14.6473 7.981 14.287 7.981 13.827C7.981 13.367 8.05 12.7767 8.188 12.056C8.34133 11.3353 8.418 10.6913 8.418 10.124C8.418 8.91267 7.59767 8.307 5.957 8.307ZM8.28 1.039H6.072L4.623 7.755H6.923C7.99633 7.755 8.88567 7.30267 9.591 6.398C10.3117 5.49333 10.672 4.535 10.672 3.523C10.672 2.80233 10.465 2.212 10.051 1.752C9.65233 1.27667 9.062 1.039 8.28 1.039Z" fill="#22B1DF"/>
</svg>
