<svg width="18" height="18" viewBox="0 0 18 18" fill="none" xmlns="http://www.w3.org/2000/svg">
<path opacity="0.86" d="M6.026 1.246L3.243 14.471H7.774C8.15733 14.471 8.40267 14.3023 8.51 13.965L9.453 11.159H9.959L9.729 12.24C9.43767 13.574 9.292 14.563 9.292 15.207C8.84733 15.069 8.05767 15 6.923 15H0.23L0.299 14.586H1.357C1.55633 14.586 1.679 14.471 1.725 14.241C3.565 5.53167 4.485 1.13867 4.485 1.062C4.485 0.969999 4.40067 0.923999 4.232 0.923999H3.22L3.289 0.509999H7.521L7.452 0.923999H6.417C6.21767 0.923999 6.08733 1.03133 6.026 1.246Z" fill="#22B1DF"/>
<path opacity="0.86" d="M15.466 10.924C15.466 10.392 15.3447 9.972 15.102 9.664C14.8687 9.356 14.5373 9.202 14.108 9.202C13.688 9.202 13.366 9.30933 13.142 9.524C12.918 9.73867 12.806 10.0093 12.806 10.336C12.806 10.6627 12.8667 10.952 12.988 11.204C12.8293 11.344 12.6147 11.414 12.344 11.414C12.008 11.414 11.84 11.162 11.84 10.658C11.84 10.1447 12.022 9.72467 12.386 9.398C12.7593 9.062 13.3287 8.894 14.094 8.894C14.8687 8.894 15.4707 9.076 15.9 9.44C16.3387 9.804 16.558 10.238 16.558 10.742C16.558 11.442 16.2313 12.1653 15.578 12.912C15.5127 12.9867 15.3587 13.1547 15.116 13.416C14.8827 13.668 14.7473 13.8173 14.71 13.864L12.624 16.118H15.844C16.068 16.118 16.1987 16.0153 16.236 15.81L16.418 14.592H16.74V15.264C16.74 16.0853 16.7867 16.706 16.88 17.126C16.5627 17.042 16.026 17 15.27 17H11.28L14.458 13.5C15.13 12.7533 15.466 11.8947 15.466 10.924Z" fill="#22B1DF"/>
</svg>
