<svg width="14" height="16" viewBox="0 0 14 16" fill="none" xmlns="http://www.w3.org/2000/svg">
<path opacity="0.86" d="M6.026 1.246L3.266 14.356C3.266 14.5093 3.35033 14.586 3.519 14.586H4.531L4.462 15H0.23L0.299 14.586H1.357C1.55633 14.586 1.679 14.471 1.725 14.241C3.565 5.53167 4.485 1.13867 4.485 1.062C4.485 0.969999 4.40067 0.923999 4.232 0.923999H3.22L3.289 0.509999H7.521L7.452 0.923999H6.417C6.21767 0.923999 6.08733 1.03133 6.026 1.246ZM9.315 10.975L9.361 13.091C9.39167 14.0417 9.64467 14.517 10.12 14.517C10.4267 14.517 10.6797 14.356 10.879 14.034C11.0937 13.712 11.201 13.298 11.201 12.792L11.638 12.723C11.638 13.505 11.431 14.126 11.017 14.586C10.6183 15.046 10.1123 15.276 9.499 15.276C8.41033 15.276 7.83533 14.4557 7.774 12.815L7.682 10.561C7.636 9.56433 7.429 8.87433 7.061 8.491C6.693 8.09233 6.08733 7.893 5.244 7.893L5.359 7.525L11.914 0.923999H10.833L10.902 0.509999H13.869L13.8 0.923999H13.202C12.9567 0.923999 12.7343 1.03133 12.535 1.246L6.302 7.479C7.406 7.49433 8.17267 7.81633 8.602 8.445C9.04667 9.07367 9.28433 9.917 9.315 10.975Z" fill="#FF8A32"/>
</svg>
