<svg width="18" height="17" viewBox="0 0 18 17" fill="none" xmlns="http://www.w3.org/2000/svg">
<path opacity="0.86" d="M6.026 1.246L3.243 14.471H7.774C8.15733 14.471 8.40267 14.3023 8.51 13.965L9.453 11.159H9.959L9.729 12.24C9.43767 13.574 9.292 14.563 9.292 15.207C8.84733 15.069 8.05767 15 6.923 15H0.23L0.299 14.586H1.357C1.55633 14.586 1.679 14.471 1.725 14.241C3.565 5.53167 4.485 1.13867 4.485 1.062C4.485 0.969999 4.40067 0.923999 4.232 0.923999H3.22L3.289 0.509999H7.521L7.452 0.923999H6.417C6.21767 0.923999 6.08733 1.03133 6.026 1.246Z" fill="#22B1DF"/>
<path opacity="0.86" d="M12.022 17V16.734H13.66C13.772 16.734 13.8373 16.678 13.856 16.566V10.126C13.856 9.89267 13.716 9.776 13.436 9.776L11.882 9.86L11.854 9.524L13.128 9.342C13.9307 9.22067 14.5653 9.07133 15.032 8.894C14.9387 9.24867 14.892 9.78067 14.892 10.49V16.538C14.892 16.6687 14.962 16.734 15.102 16.734H16.418V17H12.022Z" fill="#22B1DF"/>
</svg>
