<?xml version="1.0" encoding="UTF-8" standalone="no"?>
<!-- Created with Inkscape (http://www.inkscape.org/) -->

<svg
   width="55.033951mm"
   height="55.033623mm"
   viewBox="0 0 55.033951 55.033623"
   version="1.1"
   id="svg1"
   inkscape:version="1.4 (e7c3feb100, 2024-10-09)"
   sodipodi:docname="logo-docs-white.svg"
   xmlns:inkscape="http://www.inkscape.org/namespaces/inkscape"
   xmlns:sodipodi="http://sodipodi.sourceforge.net/DTD/sodipodi-0.dtd"
   xmlns="http://www.w3.org/2000/svg"
   xmlns:svg="http://www.w3.org/2000/svg">
  <sodipodi:namedview
     id="namedview1"
     pagecolor="#ffffff"
     bordercolor="#000000"
     borderopacity="0.25"
     inkscape:showpageshadow="2"
     inkscape:pageopacity="0.0"
     inkscape:pagecheckerboard="0"
     inkscape:deskcolor="#d1d1d1"
     inkscape:document-units="mm"
     inkscape:zoom="0.74920735"
     inkscape:cx="76.747779"
     inkscape:cy="264.94668"
     inkscape:window-width="1920"
     inkscape:window-height="1044"
     inkscape:window-x="0"
     inkscape:window-y="0"
     inkscape:window-maximized="1"
     inkscape:current-layer="layer1" />
  <defs
     id="defs1" />
  <g
     inkscape:label="Layer 1"
     inkscape:groupmode="layer"
     id="layer1"
     transform="translate(-84.908539,-78.434348)">
    <path
       fill-rule="evenodd"
       clip-rule="evenodd"
       d="m 139.94219,95.574053 c 0,-0.653521 2.6e-4,-1.306777 -0.004,-1.960298 -0.003,-0.550333 -0.01,-1.100666 -0.0246,-1.650735 -0.0323,-1.199092 -0.10319,-2.408238 -0.31644,-3.5941 -0.21617,-1.202796 -0.56939,-2.321983 -1.12581,-3.414977 -0.54715,-1.074208 -1.26179,-2.057136 -2.11455,-2.909094 -0.85248,-0.852223 -1.83568,-1.566333 -2.91041,-2.113227 -1.09379,-0.556683 -2.21457,-0.909637 -3.41868,-1.126067 -1.18587,-0.212725 -2.39554,-0.283368 -3.59437,-0.315647 -0.5506,-0.01508 -1.10119,-0.02143 -1.65179,-0.02461 -0.65379,-0.0042 -1.30757,-0.0037 -1.96109,-0.0037 l -7.59037,-0.02725 h -5.6769 l -7.45596,0.02725 c -0.65511,0 -1.30995,-5.29e-4 -1.96506,0.0037 -0.551661,0.0032 -1.103311,0.0095 -1.654971,0.02461 -1.20174,0.03228 -2.41406,0.102922 -3.60283,0.316177 -1.20571,0.216164 -2.3278,0.568854 -3.42344,1.125273 -1.07686,0.546893 -2.06217,1.261004 -2.9165,2.113491 -0.85408,0.851958 -1.57004,1.834621 -2.11826,2.908565 -0.55801,1.093523 -0.91202,2.213504 -1.12871,3.417093 -0.21352,1.185069 -0.28416,2.39395 -0.31671,3.592513 -0.0148,0.550333 -0.0212,1.100402 -0.0246,1.650735 -0.004,0.653521 -0.0376,1.465263 -0.0376,2.118519 l 2.6e-4,7.352776 -2.6e-4,5.73775 0.0339,7.50888 c 0,0.65431 -2.6e-4,1.30863 0.004,1.96268 0.003,0.55112 0.01,1.10225 0.0246,1.65311 0.0326,1.20068 0.10345,2.41168 0.31697,3.59886 0.2167,1.20439 0.57044,2.32543 1.12819,3.41974 0.54821,1.0758 1.26444,2.05978 2.11852,2.91333 0.85433,0.85328 1.83938,1.56845 2.91597,2.11614 1.09617,0.55721 2.21906,0.91069 3.42556,1.12712 1.18798,0.21326 2.40003,0.28416 3.60124,0.31644 0.55166,0.0151 1.10331,0.0212 1.655241,0.0246 0.65484,0.004 1.30968,0.004 1.96479,0.004 l 7.52343,2.7e-4 h 5.69092 l 7.50888,-2.7e-4 c 0.65352,0 1.3073,2.7e-4 1.96109,-0.004 0.5506,-0.003 1.10119,-0.01 1.65179,-0.0246 1.19936,-0.0323 2.40956,-0.10318 3.59595,-0.3167 1.20333,-0.21643 2.32331,-0.56965 3.41683,-1.12686 1.07474,-0.54743 2.05793,-1.26286 2.91068,-2.11614 0.85249,-0.85328 1.56713,-1.83727 2.11429,-2.9128 0.55695,-1.09484 0.91017,-2.21641 1.12633,-3.42159 0.21325,-1.18692 0.2839,-2.39739 0.31618,-3.59754 0.0148,-0.55086 0.0212,-1.10199 0.0246,-1.65311 0.004,-0.65405 0.004,-1.30837 0.004,-1.96268 0,0 -5.3e-4,-7.37632 -5.3e-4,-7.50888 v -5.74384 c 0,-0.0979 5.3e-4,-7.504907 5.3e-4,-7.504907"
       fill="#f2f2f2"
       id="path2"
       style="stroke-width:0.264583" />
    <path
       d="m 111.20288,93.695247 c 0.82497,-2.467769 2.27833,-4.457965 4.36034,-5.970588 2.08174,-1.55231 4.39949,-2.328597 6.95272,-2.328597 h 5.08053 c 0.87656,0 1.5875,0.710935 1.5875,1.5875 v 7.333191 c 0,0.876829 -0.71094,1.5875 -1.5875,1.5875 h -5.08053 c -0.35349,0 -0.68739,0.119327 -1.00172,0.358246 -0.2749,0.198967 -0.47122,0.457729 -0.58922,0.776023 l -7.12947,21.852208 c -0.82497,2.46776 -2.27832,4.4778 -4.36006,6.03011 -2.08201,1.51263 -4.41908,2.26881 -7.01173,2.26881 h -5.087141 c -0.87683,0 -1.5875,-0.71067 -1.5875,-1.5875 v -7.33319 c 0,-0.87657 0.71067,-1.5875 1.5875,-1.5875 h 5.087141 c 0.35349,0 0.66781,-0.0995 0.94271,-0.29845 0.31433,-0.23892 0.53023,-0.51753 0.64823,-0.83582 z"
       fill="#111111"
       id="path3"
       style="display:inline;stroke-width:0.264583" />
  </g>
</svg>
