<?xml version="1.0" encoding="UTF-8"?> <svg xmlns="http://www.w3.org/2000/svg" width="84" height="64" viewBox="0 0 84 64" fill="none"> <path fill-rule="evenodd" clip-rule="evenodd" d="M22.6737 34.507C11.3838 28.1544 11.3838 17.8549 22.6737 11.5023C33.9636 5.14972 52.268 5.14972 63.5579 11.5023L80.9513 21.2892C82.6351 22.2366 82.6351 23.7727 80.9513 24.7201C79.2676 25.6675 76.5377 25.6675 74.8539 24.7201L57.4605 14.9332C49.5381 10.4754 36.6935 10.4754 28.7711 14.9332C20.8487 19.3909 20.8487 26.6184 28.7711 31.0761L46.1645 40.863C47.8482 41.8104 47.8482 43.3465 46.1645 44.2939C44.4807 45.2413 41.7509 45.2413 40.0671 44.2939L22.6737 34.507Z" fill="#00C2FF"></path> <path fill-rule="evenodd" clip-rule="evenodd" d="M61.3263 29.493C72.6162 35.8456 72.6162 46.1451 61.3263 52.4977C50.0364 58.8503 31.732 58.8503 20.4421 52.4977L3.04869 42.7108C1.36495 41.7634 1.36495 40.2273 3.04869 39.2799C4.73244 38.3325 7.46233 38.3325 9.14608 39.2799L26.5395 49.0668C34.4619 53.5246 47.3065 53.5246 55.2289 49.0668C63.1513 44.6091 63.1513 37.3816 55.2289 32.9239L37.8355 23.137C36.1518 22.1896 36.1518 20.6535 37.8355 19.7061C39.5193 18.7587 42.2491 18.7587 43.9329 19.7061L61.3263 29.493Z" fill="#FF6C00"></path> </svg> 