<svg width="1000" height="1000" viewBox="0 0 1000 1000" fill="none" xmlns="http://www.w3.org/2000/svg">
<rect width="1000" height="1000" rx="225" fill="url(#paint0_linear_257_1113)"/>
<path d="M481.37 310.286C494.109 272.176 516.554 241.442 548.704 218.084C580.855 194.111 616.645 182.125 656.075 182.125H734.92C748.245 182.125 759.048 192.928 759.048 206.253V320.272C759.048 333.598 748.245 344.4 734.92 344.4H656.075C650.615 344.4 645.459 346.244 640.606 349.932C636.36 353.006 633.327 357.001 631.507 361.919L521.407 699.377C508.668 737.488 486.223 768.529 454.073 792.501C421.922 815.859 385.829 827.538 345.792 827.538H266.845C253.52 827.538 242.717 816.736 242.717 803.41V689.391C242.717 676.065 253.52 665.263 266.845 665.263H345.792C351.252 665.263 356.105 663.726 360.351 660.653C365.204 656.965 368.54 652.662 370.36 647.744L481.37 310.286Z" fill="white"/>
<defs>
<linearGradient id="paint0_linear_257_1113" x1="144" y1="-67" x2="979" y2="1021.5" gradientUnits="userSpaceOnUse">
<stop stop-color="#090909"/>
<stop offset="1" stop-color="#0F0F0F"/>
</linearGradient>
</defs>
</svg>
