<svg width="363" height="23" viewBox="0 0 363 23" fill="none" xmlns="http://www.w3.org/2000/svg">
<path opacity="0.86" d="M32.5872 11.87H24.7011V10.8038H32.5872V11.87ZM32.5872 15.29H24.7011V14.2238H32.5872V15.29Z" fill="#6082FA"/>
<path opacity="0.86" d="M47.6246 4.78859H45.3111L42.8366 16.5373H45.1702C46.0286 16.5373 46.8199 16.2691 47.5441 15.7326C48.2684 15.1961 48.8518 14.5188 49.2944 13.7007C50.2064 11.9974 50.6624 10.3008 50.6624 8.61094C50.6624 7.40388 50.3807 6.46506 49.8174 5.79447C49.2675 5.12388 48.5366 4.78859 47.6246 4.78859ZM42.8768 4.32588H47.7453C49.0865 4.32588 50.146 4.72153 50.9239 5.51282C51.7018 6.29071 52.0907 7.38376 52.0907 8.792C52.0907 9.74423 51.9231 10.7032 51.5878 11.6688C51.2659 12.6211 50.8166 13.4995 50.2399 14.3042C49.6632 15.0955 48.9188 15.746 48.0068 16.2556C47.1082 16.7519 46.1292 17 45.0696 17H40.2012L40.2615 16.6379H41.1869C41.3613 16.6379 41.4686 16.5373 41.5088 16.3361C43.1182 8.71824 43.9229 4.87576 43.9229 4.80871C43.9229 4.72823 43.8492 4.688 43.7016 4.688H42.8165L42.8768 4.32588ZM58.3539 8.06776C59.0647 8.06776 59.5945 8.24212 59.9432 8.59082C60.3053 8.92612 60.4864 9.41565 60.4864 10.0594C60.4864 10.6898 60.2382 11.2396 59.742 11.7091C58.8971 12.5138 57.6431 12.9161 55.98 12.9161C55.4838 12.9161 55.0546 12.8759 54.6925 12.7954V12.4132C55.1619 12.4802 55.5508 12.5138 55.8593 12.5138C56.9725 12.5138 57.8308 12.2321 58.4344 11.6688C59.0513 11.1055 59.3598 10.4886 59.3598 9.818C59.3598 9.45588 59.2592 9.15412 59.058 8.91271C58.8702 8.67129 58.5484 8.55059 58.0924 8.55059C57.6498 8.55059 57.1938 8.75847 56.7244 9.17423C56.2684 9.59 55.9062 10.1064 55.638 10.7233C55.1015 12.0242 54.8333 13.1508 54.8333 14.1031C54.8333 15.8734 55.3698 16.7586 56.4427 16.7586C57.7705 16.7586 58.7428 16.0344 59.3598 14.5859L59.6817 14.6664C59.3598 15.4845 58.8904 16.1215 58.2734 16.5775C57.6699 17.0201 56.9859 17.2414 56.2214 17.2414C55.457 17.2414 54.8132 16.9598 54.2901 16.3965C53.7671 15.8332 53.5055 15.0754 53.5055 14.1232C53.5055 13.1709 53.6866 12.2522 54.0487 11.3671C54.4108 10.4685 54.9741 9.69729 55.7386 9.05353C56.5031 8.39635 57.3748 8.06776 58.3539 8.06776ZM66.6516 8.55059C66.1018 8.55059 65.5921 8.75847 65.1227 9.17423C64.6667 9.59 64.3046 10.1064 64.0363 10.7233C63.4999 12.0242 63.2316 13.1508 63.2316 14.1031C63.2316 15.8734 63.7681 16.7586 64.8411 16.7586C66.1688 16.7586 67.1412 16.0344 67.7581 14.5859L68.08 14.6664C67.7581 15.4845 67.2887 16.1215 66.6718 16.5775C66.0682 17.0201 65.3842 17.2414 64.6198 17.2414C63.8553 17.2414 63.2115 16.9598 62.6885 16.3965C62.1654 15.8332 61.9039 15.0754 61.9039 14.1232C61.9039 13.1709 62.0849 12.2522 62.4471 11.3671C62.8092 10.4685 63.3725 9.69729 64.1369 9.05353C64.9014 8.39635 65.7732 8.06776 66.7522 8.06776C67.4228 8.06776 67.9258 8.24212 68.2611 8.59082C68.6098 8.92612 68.7841 9.33518 68.7841 9.818C68.7841 10.2874 68.6969 10.7099 68.5226 11.0854C68.3616 11.4609 68.1001 11.6487 67.738 11.6487C67.3893 11.6487 67.1278 11.5414 66.9534 11.3268C67.3423 10.7367 67.5368 10.16 67.5368 9.59671C67.5368 8.89929 67.2418 8.55059 66.6516 8.55059Z" fill="#6082FA"/>
<path opacity="0.86" d="M73.7553 10.7384C74.2739 10.5059 74.8238 10.3896 75.4049 10.3896C76.2901 10.3896 76.9875 10.6579 77.4972 11.1944C78.0158 11.7219 78.2751 12.4685 78.2751 13.4341C78.2751 14.0868 78.1678 14.7485 77.9532 15.4191C77.7386 16.0807 77.4391 16.6932 77.0546 17.2565C76.6701 17.8198 76.1694 18.2802 75.5525 18.6379C74.9355 18.9866 74.2247 19.1609 73.42 19.1609C72.6153 19.1609 71.9536 18.8927 71.4351 18.3562C70.9254 17.8198 70.6706 17.0419 70.6706 16.0226C70.6706 15.0033 70.9478 13.9751 71.5021 12.9379C72.0654 11.9007 72.8165 11.1675 73.7553 10.7384ZM76.7864 11.4224C76.4287 10.9664 75.9548 10.7384 75.3647 10.7384C74.7746 10.7384 74.2292 10.9306 73.7285 11.3151C73.2278 11.6906 72.8299 12.1689 72.5348 12.7501C71.9179 13.9482 71.6094 15.1106 71.6094 16.2372C71.6094 17.0508 71.7838 17.6856 72.1325 18.1416C72.4901 18.5887 72.964 18.8122 73.5541 18.8122C74.1532 18.8122 74.7031 18.6245 75.2038 18.2489C75.7045 17.8645 76.1068 17.3861 76.4108 16.8139C77.0278 15.6247 77.3362 14.4624 77.3362 13.3268C77.3362 12.5132 77.1529 11.8784 76.7864 11.4224ZM81.453 13.1659L81.6408 13.3C81.2116 14.2835 80.8361 15.4146 80.5142 16.6932H80.6215L80.8361 16.1031C81.2563 14.9586 81.6721 14.1628 82.0834 13.7158C82.4947 13.2687 82.8523 13.0452 83.1563 13.0452C83.4603 13.0452 83.6838 13.1435 83.8269 13.3402C83.9789 13.5369 84.0549 13.7918 84.0549 14.1047C84.0549 14.4176 83.9968 14.6904 83.8805 14.9228C83.7643 15.1553 83.5944 15.2715 83.3709 15.2715C83.1563 15.2715 82.9775 15.2 82.8344 15.0569C82.9238 14.9407 83.0088 14.7708 83.0893 14.5473C83.1697 14.3238 83.21 14.1271 83.21 13.9572C83.21 13.6979 83.1027 13.5682 82.8881 13.5682C82.6645 13.5682 82.3874 13.7873 82.0565 14.2254C81.3323 15.1732 80.7198 16.7647 80.2191 19L79.2803 19.0805L80.5947 13.6621L79.7363 13.7292L79.7229 13.5012C80.3398 13.4207 80.9165 13.3089 81.453 13.1659ZM88.5893 18.3428C88.5893 18.6379 88.7011 18.7854 88.9246 18.7854C89.0945 18.7854 89.2778 18.6736 89.4745 18.4501C89.6712 18.2176 89.8411 17.8913 89.9842 17.4711L90.1987 17.5247C89.8143 18.6155 89.3136 19.1609 88.6966 19.1609C88.1423 19.1609 87.8651 18.8122 87.8651 18.1148C87.8651 17.4085 88.4507 14.9318 89.622 10.6847L88.7637 10.7518L88.7503 10.5238C89.3672 10.4433 89.9439 10.3315 90.4804 10.1885L90.6682 10.3226C90.2926 11.4224 89.85 12.9155 89.3404 14.8021C88.8397 16.6798 88.5893 17.86 88.5893 18.3428ZM87.9992 17.5113H87.8651C87.3107 18.6111 86.667 19.1609 85.9338 19.1609C85.5136 19.1609 85.1604 18.9776 84.8743 18.6111C84.5971 18.2355 84.4585 17.7795 84.4585 17.2431C84.4585 16.6976 84.53 16.1925 84.6731 15.7275C84.8162 15.2626 85.0173 14.8289 85.2766 14.4266C85.5359 14.0153 85.8802 13.6845 86.3093 13.4341C86.7385 13.1748 87.1766 13.0452 87.6237 13.0452C88.482 13.0452 89.09 13.4207 89.4477 14.1718L89.2599 14.4132C88.8397 13.7158 88.3166 13.3671 87.6907 13.3671C87.3063 13.3671 86.9531 13.5056 86.6312 13.7828C86.3183 14.06 86.0724 14.4087 85.8936 14.8289C85.527 15.6873 85.3437 16.4965 85.3437 17.2565C85.3437 17.7572 85.4242 18.1327 85.5851 18.3831C85.755 18.6334 85.9785 18.7586 86.2557 18.7586C86.6402 18.7586 87.0336 18.4367 87.4359 17.7929C87.8383 17.1402 88.1959 16.2104 88.5089 15.0033L87.9992 17.5113ZM94.6649 13.0452C95.1387 13.0452 95.4919 13.1614 95.7244 13.3939C95.9658 13.6174 96.0865 13.9438 96.0865 14.3729C96.0865 14.7932 95.9211 15.1598 95.5903 15.4727C95.027 16.0092 94.191 16.2774 93.0823 16.2774C92.7515 16.2774 92.4653 16.2506 92.2239 16.1969V15.9421C92.5369 15.9868 92.7962 16.0092 93.0018 16.0092C93.7439 16.0092 94.3162 15.8214 94.7185 15.4459C95.1298 15.0704 95.3355 14.6591 95.3355 14.212C95.3355 13.9706 95.2684 13.7694 95.1343 13.6085C95.0091 13.4475 94.7945 13.3671 94.4905 13.3671C94.1955 13.3671 93.8915 13.5056 93.5785 13.7828C93.2745 14.06 93.0331 14.4042 92.8543 14.8155C92.4966 15.6828 92.3178 16.4339 92.3178 17.0687C92.3178 18.2489 92.6755 18.8391 93.3907 18.8391C94.2759 18.8391 94.9242 18.3562 95.3355 17.3906L95.55 17.4442C95.3355 17.9896 95.0225 18.4144 94.6112 18.7184C94.2089 19.0134 93.7529 19.1609 93.2432 19.1609C92.7336 19.1609 92.3044 18.9732 91.9557 18.5976C91.607 18.2221 91.4326 17.7169 91.4326 17.0821C91.4326 16.4473 91.5533 15.8348 91.7947 15.2447C92.0362 14.6456 92.4117 14.1315 92.9213 13.7024C93.431 13.2642 94.0122 13.0452 94.6649 13.0452ZM99.2713 13.1659L99.459 13.3C99.0299 14.2835 98.6543 15.4146 98.3325 16.6932H98.4398L98.6543 16.1031C99.0746 14.9586 99.4903 14.1628 99.9016 13.7158C100.313 13.2687 100.671 13.0452 100.975 13.0452C101.279 13.0452 101.502 13.1435 101.645 13.3402C101.797 13.5369 101.873 13.7918 101.873 14.1047C101.873 14.4176 101.815 14.6904 101.699 14.9228C101.583 15.1553 101.413 15.2715 101.189 15.2715C100.975 15.2715 100.796 15.2 100.653 15.0569C100.742 14.9407 100.827 14.7708 100.908 14.5473C100.988 14.3238 101.028 14.1271 101.028 13.9572C101.028 13.6979 100.921 13.5682 100.706 13.5682C100.483 13.5682 100.206 13.7873 99.8748 14.2254C99.1506 15.1732 98.5381 16.7647 98.0374 19L97.0986 19.0805L98.4129 13.6621L97.5546 13.7292L97.5412 13.5012C98.1581 13.4207 98.7348 13.3089 99.2713 13.1659ZM102.518 18.9598C102.384 18.8167 102.317 18.6468 102.317 18.4501C102.317 18.2534 102.384 18.088 102.518 17.9539C102.661 17.8108 102.831 17.7393 103.028 17.7393C103.225 17.7393 103.39 17.8108 103.524 17.9539C103.667 18.088 103.739 18.2534 103.739 18.4501C103.739 18.6468 103.667 18.8167 103.524 18.9598C103.39 19.0939 103.225 19.1609 103.028 19.1609C102.831 19.1609 102.661 19.0939 102.518 18.9598ZM107.365 13.1659L107.553 13.3C107.124 14.2835 106.748 15.4146 106.426 16.6932H106.533L106.748 16.1031C107.168 14.9586 107.584 14.1628 107.995 13.7158C108.407 13.2687 108.764 13.0452 109.068 13.0452C109.372 13.0452 109.596 13.1435 109.739 13.3402C109.891 13.5369 109.967 13.7918 109.967 14.1047C109.967 14.4176 109.909 14.6904 109.792 14.9228C109.676 15.1553 109.506 15.2715 109.283 15.2715C109.068 15.2715 108.889 15.2 108.746 15.0569C108.836 14.9407 108.921 14.7708 109.001 14.5473C109.082 14.3238 109.122 14.1271 109.122 13.9572C109.122 13.6979 109.015 13.5682 108.8 13.5682C108.576 13.5682 108.299 13.7873 107.968 14.2254C107.244 15.1732 106.632 16.7647 106.131 19L105.192 19.0805L106.507 13.6621L105.648 13.7292L105.635 13.5012C106.252 13.4207 106.828 13.3089 107.365 13.1659ZM113.603 13.0452C114.077 13.0452 114.43 13.1614 114.662 13.3939C114.904 13.6174 115.024 13.9438 115.024 14.3729C115.024 14.7932 114.859 15.1598 114.528 15.4727C113.965 16.0092 113.129 16.2774 112.02 16.2774C111.689 16.2774 111.403 16.2506 111.162 16.1969V15.9421C111.475 15.9868 111.734 16.0092 111.94 16.0092C112.682 16.0092 113.254 15.8214 113.656 15.4459C114.068 15.0704 114.273 14.6591 114.273 14.212C114.273 13.9706 114.206 13.7694 114.072 13.6085C113.947 13.4475 113.732 13.3671 113.428 13.3671C113.133 13.3671 112.829 13.5056 112.516 13.7828C112.212 14.06 111.971 14.4042 111.792 14.8155C111.434 15.6828 111.256 16.4339 111.256 17.0687C111.256 18.2489 111.613 18.8391 112.329 18.8391C113.214 18.8391 113.862 18.3562 114.273 17.3906L114.488 17.4442C114.273 17.9896 113.96 18.4144 113.549 18.7184C113.147 19.0134 112.691 19.1609 112.181 19.1609C111.671 19.1609 111.242 18.9732 110.894 18.5976C110.545 18.2221 110.37 17.7169 110.37 17.0821C110.37 16.4473 110.491 15.8348 110.733 15.2447C110.974 14.6456 111.35 14.1315 111.859 13.7024C112.369 13.2642 112.95 13.0452 113.603 13.0452ZM118.531 13.3671C118.191 13.3671 117.901 13.4654 117.659 13.6621C117.418 13.8588 117.297 14.1092 117.297 14.4132C117.297 14.7172 117.422 14.9944 117.673 15.2447C117.923 15.4951 118.196 15.7052 118.491 15.8751C118.786 16.036 119.059 16.2506 119.309 16.5188C119.559 16.7871 119.684 17.0732 119.684 17.3772C119.684 17.9494 119.461 18.392 119.014 18.7049C118.576 19.0089 118.044 19.1609 117.418 19.1609C116.792 19.1609 116.242 19.0134 115.768 18.7184C115.92 18.4144 116.063 17.8868 116.197 17.1358L116.425 17.176C116.363 17.5426 116.331 17.8332 116.331 18.0478C116.331 18.2534 116.43 18.4456 116.627 18.6245C116.832 18.7944 117.123 18.8793 117.498 18.8793C117.883 18.8793 118.205 18.7631 118.464 18.5306C118.732 18.2981 118.866 17.9941 118.866 17.6186C118.866 17.3772 118.746 17.1447 118.504 16.9212C118.272 16.6887 118.012 16.4965 117.726 16.3445C117.449 16.1925 117.19 15.9779 116.948 15.7007C116.716 15.4235 116.6 15.1195 116.6 14.7887C116.6 14.2969 116.792 13.8856 117.176 13.5548C117.57 13.2151 118.084 13.0452 118.719 13.0452C119.211 13.0452 119.698 13.1659 120.181 13.4073C120.136 13.5056 120.06 13.7292 119.953 14.0779C119.854 14.4266 119.778 14.7574 119.725 15.0704L119.497 15.0301C119.55 14.744 119.577 14.4713 119.577 14.212C119.577 13.9438 119.488 13.7381 119.309 13.5951C119.139 13.4431 118.88 13.3671 118.531 13.3671ZM124.954 18.1551C124.954 18.0209 124.976 17.8064 125.021 17.5113H124.954C124.382 18.6111 123.72 19.1609 122.969 19.1609C122.164 19.1609 121.762 18.7139 121.762 17.8198C121.762 17.2386 121.968 16.1612 122.379 14.5875L122.62 13.6621L121.762 13.7292L121.749 13.5012C122.365 13.4207 122.942 13.3089 123.479 13.1659L123.666 13.3C122.915 15.6336 122.54 17.1268 122.54 17.7795C122.54 18.4322 122.786 18.7586 123.277 18.7586C123.689 18.7586 124.091 18.4591 124.485 17.86C124.887 17.252 125.218 16.4384 125.477 15.4191L125.933 13.6621L125.075 13.7292L125.061 13.5012C125.678 13.4207 126.255 13.3089 126.791 13.1659L126.979 13.3C126.666 14.2299 126.371 15.2268 126.094 16.2908C125.817 17.3548 125.678 18.0388 125.678 18.3428C125.678 18.6379 125.79 18.7854 126.013 18.7854C126.183 18.7854 126.367 18.6736 126.563 18.4501C126.76 18.2176 126.93 17.8913 127.073 17.4711L127.288 17.5247C126.903 18.6155 126.402 19.1609 125.785 19.1609C125.231 19.1609 124.954 18.8256 124.954 18.1551ZM129.509 18.3428C129.509 18.6379 129.62 18.7854 129.844 18.7854C130.014 18.7854 130.197 18.6736 130.394 18.4501C130.591 18.2176 130.76 17.8913 130.903 17.4711L131.118 17.5247C130.734 18.6155 130.233 19.1609 129.616 19.1609C129.062 19.1609 128.784 18.8122 128.784 18.1148C128.784 17.4085 129.37 14.9318 130.541 10.6847L129.683 10.7518L129.67 10.5238C130.287 10.4433 130.863 10.3315 131.4 10.1885L131.587 10.3226C131.212 11.4224 130.769 12.9155 130.26 14.8021C129.759 16.6798 129.509 17.86 129.509 18.3428ZM132.709 13.6889L132.776 13.4341H135.753L135.686 13.6889H132.709ZM134.841 11.7845L135.029 11.9186C134.824 12.5445 134.546 13.528 134.198 14.8692C133.858 16.2104 133.652 17.0776 133.581 17.4711C133.509 17.8555 133.473 18.1461 133.473 18.3428C133.473 18.6379 133.585 18.7854 133.809 18.7854C133.979 18.7854 134.162 18.6736 134.359 18.4501C134.555 18.2176 134.725 17.8913 134.868 17.4711L135.083 17.5247C134.698 18.6155 134.198 19.1609 133.581 19.1609C133.026 19.1609 132.749 18.8256 132.749 18.1551C132.749 17.6007 133.08 16.0539 133.742 13.5146L132.776 13.4341C133.268 13.4341 133.666 13.3179 133.97 13.0854C134.274 12.844 134.564 12.4104 134.841 11.7845ZM139.621 15.6336H138.307C137.895 17.5292 137.69 18.5261 137.69 18.6245C137.69 18.7139 137.739 18.7586 137.837 18.7586H138.816L138.776 19H135.919L135.96 18.7586H136.577C136.693 18.7586 136.764 18.6915 136.791 18.5574C137.864 13.4788 138.401 10.9172 138.401 10.8725C138.401 10.8188 138.351 10.792 138.253 10.792H137.663L137.703 10.5506H140.694C141.302 10.5506 141.803 10.7205 142.196 11.0602C142.589 11.4 142.786 11.8694 142.786 12.4685C142.786 13.4162 142.46 14.1807 141.807 14.7619C141.154 15.3431 140.426 15.6336 139.621 15.6336ZM140.546 10.8591H139.326L138.374 15.3252H139.634C140.278 15.3252 140.815 15.0122 141.244 14.3864C141.682 13.7605 141.901 13.1033 141.901 12.4148C141.901 11.9678 141.785 11.5967 141.552 11.3016C141.329 11.0066 140.993 10.8591 140.546 10.8591ZM146.826 18.1551C146.826 18.0209 146.848 17.8064 146.893 17.5113H146.826C146.253 18.6111 145.592 19.1609 144.841 19.1609C144.036 19.1609 143.634 18.7139 143.634 17.8198C143.634 17.2386 143.839 16.1612 144.251 14.5875L144.492 13.6621L143.634 13.7292L143.62 13.5012C144.237 13.4207 144.814 13.3089 145.35 13.1659L145.538 13.3C144.787 15.6336 144.412 17.1268 144.412 17.7795C144.412 18.4322 144.657 18.7586 145.149 18.7586C145.56 18.7586 145.963 18.4591 146.356 17.86C146.759 17.252 147.089 16.4384 147.349 15.4191L147.805 13.6621L146.946 13.7292L146.933 13.5012C147.55 13.4207 148.127 13.3089 148.663 13.1659L148.851 13.3C148.538 14.2299 148.243 15.2268 147.966 16.2908C147.688 17.3548 147.55 18.0388 147.55 18.3428C147.55 18.6379 147.662 18.7854 147.885 18.7854C148.055 18.7854 148.238 18.6736 148.435 18.4501C148.632 18.2176 148.802 17.8913 148.945 17.4711L149.159 17.5247C148.775 18.6155 148.274 19.1609 147.657 19.1609C147.103 19.1609 146.826 18.8256 146.826 18.1551ZM151.581 16.6932H151.689L151.903 16.1031C152.654 14.0645 153.477 13.0452 154.371 13.0452C154.791 13.0452 155.14 13.2329 155.417 13.6085C155.703 13.9751 155.846 14.4311 155.846 14.9765C155.846 15.5129 155.775 16.0136 155.632 16.4786C155.489 16.9435 155.288 17.3816 155.028 17.7929C154.769 18.1953 154.425 18.5261 153.996 18.7854C153.566 19.0358 153.128 19.1609 152.681 19.1609C152.234 19.1609 151.85 19.076 151.528 18.9061C151.206 18.7273 150.956 18.4948 150.777 18.2087L150.897 17.8466C151.327 18.5261 151.877 18.8659 152.547 18.8659C153.057 18.8659 153.499 18.6334 153.875 18.1685C154.25 17.6946 154.514 17.176 154.666 16.6127C154.827 16.0405 154.908 15.5174 154.908 15.0435C154.908 14.5607 154.827 14.1941 154.666 13.9438C154.514 13.6845 154.335 13.5548 154.13 13.5548C153.924 13.5548 153.718 13.6442 153.513 13.8231C153.307 13.9929 153.084 14.2612 152.842 14.6278C152.324 15.4325 151.836 16.7513 151.38 18.5842L150.978 18.1551L150.576 19.1609L150.348 19.0805L152.453 10.6847L151.595 10.7518L151.581 10.5238C152.198 10.4433 152.775 10.3315 153.312 10.1885L153.499 10.3226C152.775 12.4327 152.136 14.5562 151.581 16.6932ZM157.909 18.3428C157.909 18.6379 158.021 18.7854 158.244 18.7854C158.414 18.7854 158.598 18.6736 158.794 18.4501C158.991 18.2176 159.161 17.8913 159.304 17.4711L159.518 17.5247C159.134 18.6155 158.633 19.1609 158.016 19.1609C157.462 19.1609 157.185 18.8122 157.185 18.1148C157.185 17.4085 157.77 14.9318 158.942 10.6847L158.083 10.7518L158.07 10.5238C158.687 10.4433 159.264 10.3315 159.8 10.1885L159.988 10.3226C159.612 11.4224 159.17 12.9155 158.66 14.8021C158.159 16.6798 157.909 17.86 157.909 18.3428ZM162.665 11.704C162.549 11.5878 162.491 11.4447 162.491 11.2748C162.491 11.1049 162.549 10.9619 162.665 10.8456C162.781 10.7294 162.925 10.6713 163.094 10.6713C163.264 10.6713 163.407 10.7294 163.524 10.8456C163.64 10.9619 163.698 11.1049 163.698 11.2748C163.698 11.4447 163.64 11.5878 163.524 11.704C163.407 11.8202 163.264 11.8784 163.094 11.8784C162.925 11.8784 162.781 11.8202 162.665 11.704ZM161.15 18.1551C161.15 17.6812 161.476 16.1835 162.129 13.6621L161.27 13.7292L161.257 13.5012C161.874 13.4207 162.451 13.3089 162.987 13.1659L163.175 13.3C162.862 14.2299 162.567 15.2268 162.29 16.2908C162.013 17.3548 161.874 18.0388 161.874 18.3428C161.874 18.6379 161.986 18.7854 162.209 18.7854C162.379 18.7854 162.562 18.6736 162.759 18.4501C162.956 18.2176 163.126 17.8913 163.269 17.4711L163.483 17.5247C163.099 18.6155 162.598 19.1609 161.981 19.1609C161.427 19.1609 161.15 18.8256 161.15 18.1551ZM167.887 13.3671C167.521 13.3671 167.181 13.5056 166.868 13.7828C166.564 14.06 166.323 14.4042 166.144 14.8155C165.786 15.6828 165.607 16.4339 165.607 17.0687C165.607 18.2489 165.965 18.8391 166.68 18.8391C167.565 18.8391 168.214 18.3562 168.625 17.3906L168.84 17.4442C168.625 17.9896 168.312 18.4144 167.901 18.7184C167.498 19.0134 167.042 19.1609 166.533 19.1609C166.023 19.1609 165.594 18.9732 165.245 18.5976C164.897 18.2221 164.722 17.7169 164.722 17.0821C164.722 16.4473 164.843 15.8348 165.084 15.2447C165.326 14.6456 165.701 14.1315 166.211 13.7024C166.721 13.2642 167.302 13.0452 167.954 13.0452C168.401 13.0452 168.737 13.1614 168.96 13.3939C169.193 13.6174 169.309 13.8901 169.309 14.212C169.309 14.5249 169.251 14.8066 169.135 15.0569C169.027 15.3073 168.853 15.4325 168.612 15.4325C168.379 15.4325 168.205 15.3609 168.089 15.2179C168.348 14.8245 168.477 14.44 168.477 14.0645C168.477 13.5995 168.281 13.3671 167.887 13.3671ZM173.298 10.9798L171.689 18.6245C171.689 18.7139 171.738 18.7586 171.837 18.7586H172.427L172.386 19H169.919L169.959 18.7586H170.576C170.692 18.7586 170.764 18.6915 170.79 18.5574C171.863 13.4788 172.4 10.9172 172.4 10.8725C172.4 10.8188 172.351 10.792 172.252 10.792H171.662L171.702 10.5506H174.17L174.13 10.792H173.526C173.41 10.792 173.334 10.8546 173.298 10.9798ZM175.216 16.6529L175.243 17.8868C175.261 18.4412 175.409 18.7184 175.686 18.7184C175.865 18.7184 176.012 18.6245 176.128 18.4367C176.254 18.2489 176.316 18.0075 176.316 17.7125L176.571 17.6722C176.571 18.1282 176.45 18.4904 176.209 18.7586C175.976 19.0268 175.681 19.1609 175.324 19.1609C174.689 19.1609 174.354 18.6826 174.318 17.7259L174.264 16.4115C174.237 15.8304 174.117 15.428 173.902 15.2045C173.687 14.972 173.334 14.8558 172.842 14.8558L172.91 14.6412L176.732 10.792H176.102L176.142 10.5506H177.872L177.832 10.792H177.483C177.34 10.792 177.21 10.8546 177.094 10.9798L173.459 14.6144C174.103 14.6233 174.55 14.8111 174.801 15.1776C175.06 15.5442 175.198 16.036 175.216 16.6529ZM181.444 13.0452C181.918 13.0452 182.271 13.1614 182.504 13.3939C182.745 13.6174 182.866 13.9438 182.866 14.3729C182.866 14.7932 182.7 15.1598 182.37 15.4727C181.806 16.0092 180.97 16.2774 179.862 16.2774C179.531 16.2774 179.245 16.2506 179.003 16.1969V15.9421C179.316 15.9868 179.576 16.0092 179.781 16.0092C180.523 16.0092 181.096 15.8214 181.498 15.4459C181.909 15.0704 182.115 14.6591 182.115 14.212C182.115 13.9706 182.048 13.7694 181.914 13.6085C181.788 13.4475 181.574 13.3671 181.27 13.3671C180.975 13.3671 180.671 13.5056 180.358 13.7828C180.054 14.06 179.812 14.4042 179.634 14.8155C179.276 15.6828 179.097 16.4339 179.097 17.0687C179.097 18.2489 179.455 18.8391 180.17 18.8391C181.055 18.8391 181.704 18.3562 182.115 17.3906L182.329 17.4442C182.115 17.9896 181.802 18.4144 181.391 18.7184C180.988 19.0134 180.532 19.1609 180.023 19.1609C179.513 19.1609 179.084 18.9732 178.735 18.5976C178.386 18.2221 178.212 17.7169 178.212 17.0821C178.212 16.4473 178.333 15.8348 178.574 15.2447C178.816 14.6456 179.191 14.1315 179.701 13.7024C180.21 13.2642 180.792 13.0452 181.444 13.0452ZM185.957 18.7184C186.529 18.7184 187.097 18.3026 187.66 17.4711C188.232 16.6306 188.518 15.8482 188.518 15.124C188.518 14.3908 188.286 13.7918 187.821 13.3268C188.045 13.1391 188.25 13.0452 188.438 13.0452C188.787 13.0452 188.961 13.5369 188.961 14.5205C188.961 15.504 188.854 16.4071 188.639 17.2296C188.425 18.0433 188.143 18.7362 187.794 19.3085C187.454 19.8807 187.065 20.3769 186.627 20.7972C185.778 21.6376 184.915 22.0579 184.039 22.0579C183.592 22.0579 183.257 21.9551 183.033 21.7494C182.801 21.5438 182.684 21.3024 182.684 21.0252C182.684 20.748 182.742 20.4976 182.859 20.2741C182.966 20.0506 183.131 19.9388 183.355 19.9388C183.578 19.9388 183.762 20.0014 183.905 20.1266C183.645 20.4574 183.516 20.7614 183.516 21.0386C183.516 21.4856 183.753 21.7092 184.227 21.7092C184.54 21.7092 184.902 21.5929 185.313 21.3605C185.724 21.1369 186.14 20.8151 186.56 20.3948C186.981 19.9835 187.365 19.4292 187.714 18.7318C188.071 18.0344 188.322 17.2788 188.465 16.4652C188.17 17.2431 187.772 17.8868 187.271 18.3965C186.779 18.9061 186.212 19.1609 185.568 19.1609C185.237 19.1609 184.969 19.0492 184.763 18.8256C184.566 18.5932 184.468 18.2802 184.468 17.8868C184.468 17.4934 184.616 16.8049 184.911 15.8214C185.215 14.8379 185.367 14.1941 185.367 13.8901C185.367 13.5772 185.25 13.4207 185.018 13.4207C184.848 13.4207 184.669 13.5369 184.481 13.7694C184.294 13.9929 184.142 14.3148 184.025 14.7351L183.797 14.6814C184.128 13.5906 184.607 13.0452 185.233 13.0452C185.814 13.0452 186.104 13.3581 186.104 13.984C186.104 14.2344 185.966 14.8558 185.689 15.8482C185.411 16.8407 185.273 17.4934 185.273 17.8064C185.273 18.4144 185.501 18.7184 185.957 18.7184ZM194.71 18.7586L194.348 16.1701H191.384L189.936 18.7586H190.767L190.727 19H188.796L188.849 18.7586H189.319C189.444 18.7586 189.538 18.696 189.6 18.5708L194.107 10.5506H194.536L195.636 18.5708C195.654 18.696 195.721 18.7586 195.837 18.7586H196.306L196.266 19H193.839L193.879 18.7586H194.71ZM193.772 11.9186L191.585 15.7946H194.295L193.772 11.9186ZM198.503 18.3428C198.503 18.6379 198.614 18.7854 198.838 18.7854C199.008 18.7854 199.191 18.6736 199.388 18.4501C199.585 18.2176 199.754 17.8913 199.898 17.4711L200.112 17.5247C199.728 18.6155 199.227 19.1609 198.61 19.1609C198.056 19.1609 197.778 18.8122 197.778 18.1148C197.778 17.4085 198.364 14.9318 199.535 10.6847L198.677 10.7518L198.664 10.5238C199.281 10.4433 199.857 10.3315 200.394 10.1885L200.582 10.3226C200.206 11.4224 199.763 12.9155 199.254 14.8021C198.753 16.6798 198.503 17.86 198.503 18.3428ZM202.293 18.2221L204.426 18.7049C204.891 18.8122 205.221 18.9553 205.418 19.1341C205.615 19.3219 205.713 19.5767 205.713 19.8986C205.713 20.4172 205.427 20.9045 204.855 21.3605C204.292 21.8254 203.648 22.0579 202.924 22.0579C202.199 22.0579 201.609 21.8925 201.153 21.5616C200.706 21.2308 200.483 20.8374 200.483 20.3814C200.483 20.0685 200.59 19.7689 200.805 19.4828C201.01 19.1967 201.319 18.9553 201.73 18.7586L201.998 18.8391C201.73 18.9732 201.524 19.1744 201.381 19.4426C201.238 19.7198 201.167 20.0104 201.167 20.3144C201.167 20.8151 201.332 21.1861 201.663 21.4275C201.994 21.6779 202.418 21.8031 202.937 21.8031C203.465 21.8031 203.947 21.6511 204.385 21.3471C204.833 21.052 205.056 20.6944 205.056 20.2741C205.056 19.8539 204.783 19.5812 204.238 19.456L201.931 18.9464C201.672 18.8927 201.471 18.772 201.328 18.5842C201.185 18.3965 201.113 18.1685 201.113 17.9002C201.113 17.632 201.225 17.3861 201.448 17.1626C201.672 16.9391 201.98 16.8273 202.374 16.8273H203.728L203.688 17.0151H202.374C202.186 17.0151 202.034 17.0732 201.918 17.1894C201.81 17.3056 201.757 17.4442 201.757 17.6052C201.757 17.936 201.936 18.1416 202.293 18.2221ZM204.546 13.2329L204.533 13.0452C204.783 13.0452 204.993 12.9871 205.163 12.8708C205.333 12.7456 205.418 12.5847 205.418 12.388C205.418 12.1913 205.275 12.0035 204.989 11.8247C205.132 11.5207 205.302 11.3687 205.499 11.3687C205.704 11.3687 205.856 11.4268 205.955 11.5431C206.062 11.6593 206.116 11.8068 206.116 11.9856C206.116 12.2986 205.973 12.5847 205.686 12.844C205.409 13.1033 205.029 13.2329 204.546 13.2329ZM202.092 15.5532C202.092 14.8915 202.325 14.3104 202.789 13.8096C203.263 13.3 203.845 13.0452 204.533 13.0452C205.016 13.0452 205.396 13.1748 205.673 13.4341C205.959 13.6845 206.102 14.0421 206.102 14.5071C206.102 15.2581 205.861 15.8661 205.378 16.3311C204.895 16.7871 204.332 17.0151 203.688 17.0151C203.196 17.0151 202.807 16.8899 202.521 16.6395C202.235 16.3802 202.092 16.0181 202.092 15.5532ZM204.52 13.3C204.028 13.3 203.625 13.5727 203.313 14.1181C203 14.6546 202.843 15.1329 202.843 15.5532C202.843 15.9734 202.919 16.2819 203.071 16.4786C203.232 16.6664 203.442 16.7602 203.701 16.7602C204.095 16.7602 204.47 16.5367 204.828 16.0896C205.186 15.6426 205.365 15.0793 205.365 14.3998C205.365 14.06 205.284 13.7918 205.123 13.5951C204.971 13.3984 204.77 13.3 204.52 13.3ZM207.32 17.0553C207.32 16.1344 207.588 15.2536 208.124 14.4132C208.384 14.0108 208.723 13.6845 209.144 13.4341C209.564 13.1748 210.042 13.0452 210.579 13.0452C211.124 13.0452 211.567 13.2285 211.907 13.5951C212.246 13.9616 212.416 14.4624 212.416 15.0972C212.416 15.732 212.3 16.3489 212.067 16.948C211.835 17.5471 211.468 18.0656 210.968 18.5038C210.467 18.9419 209.904 19.1609 209.278 19.1609C208.652 19.1609 208.169 18.9776 207.829 18.6111C207.49 18.2445 207.32 17.7259 207.32 17.0553ZM210.471 13.3402C209.989 13.3402 209.559 13.5816 209.184 14.0645C208.817 14.5473 208.554 15.0748 208.393 15.6471C208.241 16.2193 208.165 16.7558 208.165 17.2565C208.165 17.7482 208.263 18.1416 208.46 18.4367C208.665 18.7228 208.943 18.8659 209.291 18.8659C209.649 18.8659 209.98 18.7228 210.284 18.4367C210.597 18.1506 210.843 17.7974 211.021 17.3772C211.388 16.5188 211.571 15.7767 211.571 15.1508C211.571 14.516 211.473 14.0555 211.276 13.7694C211.079 13.4833 210.811 13.3402 210.471 13.3402Z" fill="#6082FA"/>
<path opacity="0.86" d="M231.067 15.4887C231.648 15.0416 231.939 14.5722 231.939 14.0805C231.939 13.8122 231.845 13.5932 231.657 13.4233C231.702 13.2176 231.805 13.0388 231.966 12.8868C232.136 12.7348 232.314 12.6588 232.502 12.6588C232.869 12.6588 233.052 12.8421 233.052 13.2087C233.052 13.5753 232.869 14.0089 232.502 14.5096C232.144 15.0193 231.702 15.4082 231.174 15.6765L231.067 15.4887ZM237.46 5.73835C237.978 5.50588 238.528 5.38965 239.109 5.38965C239.994 5.38965 240.692 5.65788 241.202 6.19435C241.72 6.72188 241.979 7.46847 241.979 8.43412C241.979 9.08682 241.872 9.74847 241.658 10.4191C241.443 11.0807 241.143 11.6932 240.759 12.2565C240.374 12.8198 239.874 13.2802 239.257 13.6379C238.64 13.9866 237.929 14.1609 237.124 14.1609C236.32 14.1609 235.658 13.8927 235.139 13.3562C234.63 12.8198 234.375 12.0419 234.375 11.0226C234.375 10.0033 234.652 8.97506 235.206 7.93788C235.77 6.90071 236.521 6.16753 237.46 5.73835ZM240.491 6.42235C240.133 5.96635 239.659 5.73835 239.069 5.73835C238.479 5.73835 237.934 5.93059 237.433 6.31506C236.932 6.69059 236.534 7.16894 236.239 7.75012C235.622 8.94824 235.314 10.1106 235.314 11.2372C235.314 12.0508 235.488 12.6856 235.837 13.1416C236.194 13.5887 236.668 13.8122 237.258 13.8122C237.858 13.8122 238.407 13.6245 238.908 13.2489C239.409 12.8645 239.811 12.3861 240.115 11.8139C240.732 10.6247 241.041 9.46235 241.041 8.32682C241.041 7.51318 240.857 6.87835 240.491 6.42235ZM245.157 8.16588L245.345 8.3C244.916 9.28353 244.54 10.4146 244.219 11.6932H244.326L244.54 11.1031C244.961 9.95859 245.376 9.16282 245.788 8.71576C246.199 8.26871 246.557 8.04518 246.861 8.04518C247.165 8.04518 247.388 8.14353 247.531 8.34024C247.683 8.53694 247.759 8.79176 247.759 9.10471C247.759 9.41765 247.701 9.69035 247.585 9.92282C247.469 10.1553 247.299 10.2715 247.075 10.2715C246.861 10.2715 246.682 10.2 246.539 10.0569C246.628 9.94071 246.713 9.77082 246.794 9.54729C246.874 9.32376 246.914 9.12706 246.914 8.95718C246.914 8.69788 246.807 8.56824 246.592 8.56824C246.369 8.56824 246.092 8.78729 245.761 9.22541C245.037 10.1732 244.424 11.7647 243.923 14L242.985 14.0805L244.299 8.66212L243.441 8.72918L243.427 8.50118C244.044 8.42071 244.621 8.30894 245.157 8.16588ZM252.294 13.3428C252.294 13.6379 252.405 13.7854 252.629 13.7854C252.799 13.7854 252.982 13.6736 253.179 13.4501C253.376 13.2176 253.545 12.8913 253.689 12.4711L253.903 12.5247C253.519 13.6155 253.018 14.1609 252.401 14.1609C251.847 14.1609 251.569 13.8122 251.569 13.1148C251.569 12.4085 252.155 9.93176 253.326 5.68471L252.468 5.75176L252.455 5.52376C253.072 5.44329 253.648 5.33153 254.185 5.18847L254.373 5.32259C253.997 6.42235 253.554 7.91553 253.045 9.80212C252.544 11.6798 252.294 12.86 252.294 13.3428ZM251.704 12.5113H251.569C251.015 13.6111 250.371 14.1609 249.638 14.1609C249.218 14.1609 248.865 13.9776 248.579 13.6111C248.301 13.2355 248.163 12.7795 248.163 12.2431C248.163 11.6976 248.234 11.1925 248.377 10.7275C248.521 10.2626 248.722 9.82894 248.981 9.42659C249.24 9.01529 249.585 8.68447 250.014 8.43412C250.443 8.17482 250.881 8.04518 251.328 8.04518C252.186 8.04518 252.794 8.42071 253.152 9.17176L252.964 9.41318C252.544 8.71576 252.021 8.36706 251.395 8.36706C251.011 8.36706 250.657 8.50565 250.336 8.78282C250.023 9.06 249.777 9.40871 249.598 9.82894C249.231 10.6873 249.048 11.4965 249.048 12.2565C249.048 12.7572 249.129 13.1327 249.289 13.3831C249.459 13.6334 249.683 13.7586 249.96 13.7586C250.345 13.7586 250.738 13.4367 251.14 12.7929C251.543 12.1402 251.9 11.2104 252.213 10.0033L251.704 12.5113ZM258.369 8.04518C258.843 8.04518 259.196 8.16141 259.429 8.39388C259.67 8.61741 259.791 8.94376 259.791 9.37294C259.791 9.79318 259.625 10.1598 259.295 10.4727C258.731 11.0092 257.895 11.2774 256.787 11.2774C256.456 11.2774 256.17 11.2506 255.928 11.1969V10.9421C256.241 10.9868 256.501 11.0092 256.706 11.0092C257.448 11.0092 258.021 10.8214 258.423 10.4459C258.834 10.0704 259.04 9.65906 259.04 9.212C259.04 8.97059 258.973 8.76941 258.839 8.60847C258.713 8.44753 258.499 8.36706 258.195 8.36706C257.9 8.36706 257.596 8.50565 257.283 8.78282C256.979 9.06 256.737 9.40424 256.559 9.81553C256.201 10.6828 256.022 11.4339 256.022 12.0687C256.022 13.2489 256.38 13.8391 257.095 13.8391C257.98 13.8391 258.629 13.3562 259.04 12.3906L259.254 12.4442C259.04 12.9896 258.727 13.4144 258.316 13.7184C257.913 14.0134 257.457 14.1609 256.948 14.1609C256.438 14.1609 256.009 13.9732 255.66 13.5976C255.311 13.2221 255.137 12.7169 255.137 12.0821C255.137 11.4473 255.258 10.8348 255.499 10.2447C255.741 9.64565 256.116 9.13153 256.626 8.70235C257.135 8.26424 257.717 8.04518 258.369 8.04518ZM262.976 8.16588L263.163 8.3C262.734 9.28353 262.359 10.4146 262.037 11.6932H262.144L262.359 11.1031C262.779 9.95859 263.195 9.16282 263.606 8.71576C264.017 8.26871 264.375 8.04518 264.679 8.04518C264.983 8.04518 265.206 8.14353 265.35 8.34024C265.502 8.53694 265.578 8.79176 265.578 9.10471C265.578 9.41765 265.519 9.69035 265.403 9.92282C265.287 10.1553 265.117 10.2715 264.894 10.2715C264.679 10.2715 264.5 10.2 264.357 10.0569C264.446 9.94071 264.531 9.77082 264.612 9.54729C264.692 9.32376 264.733 9.12706 264.733 8.95718C264.733 8.69788 264.625 8.56824 264.411 8.56824C264.187 8.56824 263.91 8.78729 263.579 9.22541C262.855 10.1732 262.242 11.7647 261.742 14L260.803 14.0805L262.117 8.66212L261.259 8.72918L261.246 8.50118C261.862 8.42071 262.439 8.30894 262.976 8.16588ZM266.223 13.9598C266.088 13.8167 266.021 13.6468 266.021 13.4501C266.021 13.2534 266.088 13.088 266.223 12.9539C266.366 12.8108 266.535 12.7393 266.732 12.7393C266.929 12.7393 267.094 12.8108 267.228 12.9539C267.371 13.088 267.443 13.2534 267.443 13.4501C267.443 13.6468 267.371 13.8167 267.228 13.9598C267.094 14.0939 266.929 14.1609 266.732 14.1609C266.535 14.1609 266.366 14.0939 266.223 13.9598ZM271.069 8.16588L271.257 8.3C270.828 9.28353 270.452 10.4146 270.13 11.6932H270.238L270.452 11.1031C270.873 9.95859 271.288 9.16282 271.7 8.71576C272.111 8.26871 272.469 8.04518 272.773 8.04518C273.077 8.04518 273.3 8.14353 273.443 8.34024C273.595 8.53694 273.671 8.79176 273.671 9.10471C273.671 9.41765 273.613 9.69035 273.497 9.92282C273.381 10.1553 273.211 10.2715 272.987 10.2715C272.773 10.2715 272.594 10.2 272.451 10.0569C272.54 9.94071 272.625 9.77082 272.706 9.54729C272.786 9.32376 272.826 9.12706 272.826 8.95718C272.826 8.69788 272.719 8.56824 272.504 8.56824C272.281 8.56824 272.004 8.78729 271.673 9.22541C270.949 10.1732 270.336 11.7647 269.835 14L268.897 14.0805L270.211 8.66212L269.353 8.72918L269.339 8.50118C269.956 8.42071 270.533 8.30894 271.069 8.16588ZM277.307 8.04518C277.781 8.04518 278.134 8.16141 278.367 8.39388C278.608 8.61741 278.729 8.94376 278.729 9.37294C278.729 9.79318 278.563 10.1598 278.232 10.4727C277.669 11.0092 276.833 11.2774 275.724 11.2774C275.394 11.2774 275.108 11.2506 274.866 11.1969V10.9421C275.179 10.9868 275.438 11.0092 275.644 11.0092C276.386 11.0092 276.958 10.8214 277.361 10.4459C277.772 10.0704 277.978 9.65906 277.978 9.212C277.978 8.97059 277.911 8.76941 277.776 8.60847C277.651 8.44753 277.437 8.36706 277.133 8.36706C276.838 8.36706 276.534 8.50565 276.221 8.78282C275.917 9.06 275.675 9.40424 275.496 9.81553C275.139 10.6828 274.96 11.4339 274.96 12.0687C274.96 13.2489 275.318 13.8391 276.033 13.8391C276.918 13.8391 277.566 13.3562 277.978 12.3906L278.192 12.4442C277.978 12.9896 277.665 13.4144 277.253 13.7184C276.851 14.0134 276.395 14.1609 275.885 14.1609C275.376 14.1609 274.947 13.9732 274.598 13.5976C274.249 13.2221 274.075 12.7169 274.075 12.0821C274.075 11.4473 274.196 10.8348 274.437 10.2447C274.678 9.64565 275.054 9.13153 275.564 8.70235C276.073 8.26424 276.654 8.04518 277.307 8.04518ZM282.235 8.36706C281.896 8.36706 281.605 8.46541 281.364 8.66212C281.122 8.85882 281.001 9.10918 281.001 9.41318C281.001 9.71718 281.127 9.99435 281.377 10.2447C281.627 10.4951 281.9 10.7052 282.195 10.8751C282.49 11.036 282.763 11.2506 283.013 11.5188C283.264 11.7871 283.389 12.0732 283.389 12.3772C283.389 12.9494 283.165 13.392 282.718 13.7049C282.28 14.0089 281.748 14.1609 281.122 14.1609C280.496 14.1609 279.946 14.0134 279.473 13.7184C279.625 13.4144 279.768 12.8868 279.902 12.1358L280.13 12.176C280.067 12.5426 280.036 12.8332 280.036 13.0478C280.036 13.2534 280.134 13.4456 280.331 13.6245C280.537 13.7944 280.827 13.8793 281.203 13.8793C281.587 13.8793 281.909 13.7631 282.168 13.5306C282.437 13.2981 282.571 12.9941 282.571 12.6186C282.571 12.3772 282.45 12.1447 282.209 11.9212C281.976 11.6887 281.717 11.4965 281.431 11.3445C281.153 11.1925 280.894 10.9779 280.653 10.7007C280.42 10.4235 280.304 10.1195 280.304 9.78871C280.304 9.29694 280.496 8.88565 280.881 8.55482C281.274 8.21506 281.788 8.04518 282.423 8.04518C282.915 8.04518 283.402 8.16588 283.885 8.40729C283.84 8.50565 283.764 8.72918 283.657 9.07788C283.559 9.42659 283.483 9.75741 283.429 10.0704L283.201 10.0301C283.255 9.744 283.281 9.47129 283.281 9.212C283.281 8.94376 283.192 8.73812 283.013 8.59506C282.843 8.44306 282.584 8.36706 282.235 8.36706ZM288.658 13.1551C288.658 13.0209 288.681 12.8064 288.725 12.5113H288.658C288.086 13.6111 287.424 14.1609 286.673 14.1609C285.869 14.1609 285.466 13.7139 285.466 12.8198C285.466 12.2386 285.672 11.1612 286.083 9.58753L286.325 8.66212L285.466 8.72918L285.453 8.50118C286.07 8.42071 286.647 8.30894 287.183 8.16588L287.371 8.3C286.62 10.6336 286.244 12.1268 286.244 12.7795C286.244 13.4322 286.49 13.7586 286.982 13.7586C287.393 13.7586 287.796 13.4591 288.189 12.86C288.591 12.252 288.922 11.4384 289.181 10.4191L289.637 8.66212L288.779 8.72918L288.766 8.50118C289.383 8.42071 289.959 8.30894 290.496 8.16588L290.684 8.3C290.371 9.22988 290.076 10.2268 289.798 11.2908C289.521 12.3548 289.383 13.0388 289.383 13.3428C289.383 13.6379 289.494 13.7854 289.718 13.7854C289.888 13.7854 290.071 13.6736 290.268 13.4501C290.464 13.2176 290.634 12.8913 290.777 12.4711L290.992 12.5247C290.608 13.6155 290.107 14.1609 289.49 14.1609C288.936 14.1609 288.658 13.8256 288.658 13.1551ZM293.213 13.3428C293.213 13.6379 293.325 13.7854 293.548 13.7854C293.718 13.7854 293.901 13.6736 294.098 13.4501C294.295 13.2176 294.465 12.8913 294.608 12.4711L294.822 12.5247C294.438 13.6155 293.937 14.1609 293.32 14.1609C292.766 14.1609 292.489 13.8122 292.489 13.1148C292.489 12.4085 293.074 9.93176 294.246 5.68471L293.387 5.75176L293.374 5.52376C293.991 5.44329 294.568 5.33153 295.104 5.18847L295.292 5.32259C294.916 6.42235 294.474 7.91553 293.964 9.80212C293.463 11.6798 293.213 12.86 293.213 13.3428ZM296.413 8.68894L296.48 8.43412H299.458L299.391 8.68894H296.413ZM298.546 6.78447L298.734 6.91859C298.528 7.54447 298.251 8.528 297.902 9.86918C297.562 11.2104 297.357 12.0776 297.285 12.4711C297.214 12.8555 297.178 13.1461 297.178 13.3428C297.178 13.6379 297.29 13.7854 297.513 13.7854C297.683 13.7854 297.866 13.6736 298.063 13.4501C298.26 13.2176 298.43 12.8913 298.573 12.4711L298.787 12.5247C298.403 13.6155 297.902 14.1609 297.285 14.1609C296.731 14.1609 296.454 13.8256 296.454 13.1551C296.454 12.6007 296.784 11.0539 297.446 8.51459L296.48 8.43412C296.972 8.43412 297.37 8.31788 297.674 8.08541C297.978 7.844 298.269 7.41035 298.546 6.78447ZM303.325 10.6336H302.011C301.6 12.5292 301.394 13.5261 301.394 13.6245C301.394 13.7139 301.443 13.7586 301.542 13.7586H302.521L302.48 14H299.624L299.664 13.7586H300.281C300.397 13.7586 300.469 13.6915 300.495 13.5574C301.568 8.47882 302.105 5.91718 302.105 5.87247C302.105 5.81882 302.056 5.792 301.957 5.792H301.367L301.407 5.55059H304.398C305.006 5.55059 305.507 5.72047 305.9 6.06024C306.294 6.4 306.491 6.86941 306.491 7.46847C306.491 8.41624 306.164 9.18071 305.511 9.76188C304.859 10.3431 304.13 10.6336 303.325 10.6336ZM304.251 5.85906H303.03L302.078 10.3252H303.339C303.983 10.3252 304.519 10.0122 304.948 9.38635C305.386 8.76047 305.605 8.10329 305.605 7.41482C305.605 6.96776 305.489 6.59671 305.257 6.30165C305.033 6.00659 304.698 5.85906 304.251 5.85906ZM309.135 8.16588L309.323 8.3C308.894 9.28353 308.518 10.4146 308.196 11.6932H308.304L308.518 11.1031C308.938 9.95859 309.354 9.16282 309.766 8.71576C310.177 8.26871 310.534 8.04518 310.838 8.04518C311.142 8.04518 311.366 8.14353 311.509 8.34024C311.661 8.53694 311.737 8.79176 311.737 9.10471C311.737 9.41765 311.679 9.69035 311.563 9.92282C311.446 10.1553 311.277 10.2715 311.053 10.2715C310.838 10.2715 310.66 10.2 310.517 10.0569C310.606 9.94071 310.691 9.77082 310.771 9.54729C310.852 9.32376 310.892 9.12706 310.892 8.95718C310.892 8.69788 310.785 8.56824 310.57 8.56824C310.347 8.56824 310.07 8.78729 309.739 9.22541C309.014 10.1732 308.402 11.7647 307.901 14L306.962 14.0805L308.277 8.66212L307.418 8.72918L307.405 8.50118C308.022 8.42071 308.599 8.30894 309.135 8.16588ZM314.059 6.704C313.942 6.58776 313.884 6.44471 313.884 6.27482C313.884 6.10494 313.942 5.96188 314.059 5.84565C314.175 5.72941 314.318 5.67129 314.488 5.67129C314.658 5.67129 314.801 5.72941 314.917 5.84565C315.033 5.96188 315.091 6.10494 315.091 6.27482C315.091 6.44471 315.033 6.58776 314.917 6.704C314.801 6.82024 314.658 6.87835 314.488 6.87835C314.318 6.87835 314.175 6.82024 314.059 6.704ZM312.543 13.1551C312.543 12.6812 312.869 11.1835 313.522 8.66212L312.664 8.72918L312.65 8.50118C313.267 8.42071 313.844 8.30894 314.38 8.16588L314.568 8.3C314.255 9.22988 313.96 10.2268 313.683 11.2908C313.406 12.3548 313.267 13.0388 313.267 13.3428C313.267 13.6379 313.379 13.7854 313.603 13.7854C313.772 13.7854 313.956 13.6736 314.152 13.4501C314.349 13.2176 314.519 12.8913 314.662 12.4711L314.877 12.5247C314.492 13.6155 313.991 14.1609 313.375 14.1609C312.82 14.1609 312.543 13.8256 312.543 13.1551ZM318.261 13.7184C318.834 13.7184 319.392 13.3026 319.938 12.4711C320.483 11.6395 320.756 10.8751 320.756 10.1776C320.756 9.48024 320.546 8.86329 320.126 8.32682C320.349 8.13906 320.55 8.04518 320.729 8.04518C320.908 8.04518 321.038 8.15694 321.118 8.38047C321.199 8.604 321.239 8.908 321.239 9.29247C321.239 9.668 321.163 10.1374 321.011 10.7007C320.859 11.264 320.649 11.8094 320.38 12.3369C320.112 12.8555 319.755 13.2892 319.307 13.6379C318.86 13.9866 318.382 14.1609 317.872 14.1609C317.542 14.1609 317.273 14.0492 317.068 13.8256C316.871 13.5932 316.773 13.2802 316.773 12.8868C316.773 12.4934 316.92 11.8049 317.215 10.8214C317.519 9.83788 317.671 9.19412 317.671 8.89012C317.671 8.57718 317.555 8.42071 317.323 8.42071C317.153 8.42071 316.974 8.53694 316.786 8.76941C316.598 8.99294 316.446 9.31482 316.33 9.73506L316.102 9.68141C316.433 8.59059 316.911 8.04518 317.537 8.04518C318.118 8.04518 318.409 8.35812 318.409 8.984C318.409 9.23435 318.27 9.85576 317.993 10.8482C317.716 11.8407 317.577 12.4934 317.577 12.8064C317.577 13.4144 317.805 13.7184 318.261 13.7184ZM327.814 8.3C327.501 9.22988 327.206 10.2268 326.929 11.2908C326.652 12.3548 326.513 13.0388 326.513 13.3428C326.513 13.6379 326.625 13.7854 326.848 13.7854C327.018 13.7854 327.202 13.6736 327.398 13.4501C327.595 13.2176 327.765 12.8913 327.908 12.4711L328.123 12.5247C327.738 13.6155 327.237 14.1609 326.62 14.1609C326.066 14.1609 325.789 13.8256 325.789 13.1551C325.789 13.0209 325.811 12.8064 325.856 12.5113H325.789C325.235 13.6111 324.591 14.1609 323.858 14.1609C323.437 14.1609 323.084 13.9776 322.798 13.6111C322.521 13.2355 322.382 12.7795 322.382 12.2431C322.382 11.6976 322.454 11.1925 322.597 10.7275C322.74 10.2626 322.941 9.82894 323.2 9.42659C323.46 9.01529 323.804 8.68447 324.233 8.43412C324.662 8.17482 325.132 8.04518 325.641 8.04518C326.303 8.04518 326.826 8.32682 327.211 8.89012L327.626 8.16588L327.814 8.3ZM324.179 13.7586C324.555 13.7586 324.935 13.468 325.319 12.8868C325.758 12.2162 326.164 11.1209 326.54 9.60094C326.62 9.24329 326.683 8.984 326.728 8.82306C326.415 8.51906 326.053 8.36706 325.641 8.36706C325.239 8.36706 324.877 8.50565 324.555 8.78282C324.242 9.06 323.996 9.40871 323.817 9.82894C323.451 10.6873 323.267 11.4965 323.267 12.2565C323.267 12.7572 323.348 13.1327 323.509 13.3831C323.679 13.6334 323.902 13.7586 324.179 13.7586ZM329.719 8.68894L329.786 8.43412H332.763L332.696 8.68894H329.719ZM331.851 6.78447L332.039 6.91859C331.833 7.54447 331.556 8.528 331.207 9.86918C330.867 11.2104 330.662 12.0776 330.59 12.4711C330.519 12.8555 330.483 13.1461 330.483 13.3428C330.483 13.6379 330.595 13.7854 330.818 13.7854C330.988 13.7854 331.171 13.6736 331.368 13.4501C331.565 13.2176 331.735 12.8913 331.878 12.4711L332.092 12.5247C331.708 13.6155 331.207 14.1609 330.59 14.1609C330.036 14.1609 329.759 13.8256 329.759 13.1551C329.759 12.6007 330.09 11.0539 330.751 8.51459L329.786 8.43412C330.277 8.43412 330.675 8.31788 330.979 8.08541C331.283 7.844 331.574 7.41035 331.851 6.78447ZM336.563 8.04518C337.037 8.04518 337.391 8.16141 337.623 8.39388C337.864 8.61741 337.985 8.94376 337.985 9.37294C337.985 9.79318 337.82 10.1598 337.489 10.4727C336.926 11.0092 336.09 11.2774 334.981 11.2774C334.65 11.2774 334.364 11.2506 334.123 11.1969V10.9421C334.435 10.9868 334.695 11.0092 334.9 11.0092C335.643 11.0092 336.215 10.8214 336.617 10.4459C337.028 10.0704 337.234 9.65906 337.234 9.212C337.234 8.97059 337.167 8.76941 337.033 8.60847C336.908 8.44753 336.693 8.36706 336.389 8.36706C336.094 8.36706 335.79 8.50565 335.477 8.78282C335.173 9.06 334.932 9.40424 334.753 9.81553C334.395 10.6828 334.216 11.4339 334.216 12.0687C334.216 13.2489 334.574 13.8391 335.289 13.8391C336.175 13.8391 336.823 13.3562 337.234 12.3906L337.449 12.4442C337.234 12.9896 336.921 13.4144 336.51 13.7184C336.107 14.0134 335.651 14.1609 335.142 14.1609C334.632 14.1609 334.203 13.9732 333.854 13.5976C333.506 13.2221 333.331 12.7169 333.331 12.0821C333.331 11.4473 333.452 10.8348 333.693 10.2447C333.935 9.64565 334.31 9.13153 334.82 8.70235C335.33 8.26424 335.911 8.04518 336.563 8.04518ZM341.908 5.97976L340.298 13.6245C340.298 13.7139 340.347 13.7586 340.446 13.7586H341.036L340.996 14H338.528L338.568 13.7586H339.185C339.301 13.7586 339.373 13.6915 339.4 13.5574C340.472 8.47882 341.009 5.91718 341.009 5.87247C341.009 5.81882 340.96 5.792 340.861 5.792H340.271L340.312 5.55059H342.779L342.739 5.792H342.136C342.019 5.792 341.943 5.85459 341.908 5.97976ZM343.825 11.6529L343.852 12.8868C343.87 13.4412 344.018 13.7184 344.295 13.7184C344.474 13.7184 344.621 13.6245 344.737 13.4367C344.863 13.2489 344.925 13.0075 344.925 12.7125L345.18 12.6722C345.18 13.1282 345.059 13.4904 344.818 13.7586C344.585 14.0268 344.29 14.1609 343.933 14.1609C343.298 14.1609 342.963 13.6826 342.927 12.7259L342.873 11.4115C342.846 10.8304 342.726 10.428 342.511 10.2045C342.296 9.972 341.943 9.85576 341.452 9.85576L341.519 9.64118L345.341 5.792H344.711L344.751 5.55059H346.481L346.441 5.792H346.092C345.949 5.792 345.819 5.85459 345.703 5.97976L342.068 9.61435C342.712 9.62329 343.159 9.81106 343.41 10.1776C343.669 10.5442 343.808 11.036 343.825 11.6529ZM350.053 8.04518C350.527 8.04518 350.88 8.16141 351.113 8.39388C351.354 8.61741 351.475 8.94376 351.475 9.37294C351.475 9.79318 351.31 10.1598 350.979 10.4727C350.415 11.0092 349.579 11.2774 348.471 11.2774C348.14 11.2774 347.854 11.2506 347.612 11.1969V10.9421C347.925 10.9868 348.185 11.0092 348.39 11.0092C349.132 11.0092 349.705 10.8214 350.107 10.4459C350.518 10.0704 350.724 9.65906 350.724 9.212C350.724 8.97059 350.657 8.76941 350.523 8.60847C350.398 8.44753 350.183 8.36706 349.879 8.36706C349.584 8.36706 349.28 8.50565 348.967 8.78282C348.663 9.06 348.422 9.40424 348.243 9.81553C347.885 10.6828 347.706 11.4339 347.706 12.0687C347.706 13.2489 348.064 13.8391 348.779 13.8391C349.664 13.8391 350.313 13.3562 350.724 12.3906L350.938 12.4442C350.724 12.9896 350.411 13.4144 350 13.7184C349.597 14.0134 349.141 14.1609 348.632 14.1609C348.122 14.1609 347.693 13.9732 347.344 13.5976C346.995 13.2221 346.821 12.7169 346.821 12.0821C346.821 11.4473 346.942 10.8348 347.183 10.2447C347.425 9.64565 347.8 9.13153 348.31 8.70235C348.819 8.26424 349.401 8.04518 350.053 8.04518ZM354.566 13.7184C355.138 13.7184 355.706 13.3026 356.269 12.4711C356.841 11.6306 357.127 10.8482 357.127 10.124C357.127 9.39082 356.895 8.79176 356.43 8.32682C356.654 8.13906 356.859 8.04518 357.047 8.04518C357.396 8.04518 357.57 8.53694 357.57 9.52047C357.57 10.504 357.463 11.4071 357.248 12.2296C357.034 13.0433 356.752 13.7362 356.403 14.3085C356.063 14.8807 355.675 15.3769 355.236 15.7972C354.387 16.6376 353.524 17.0579 352.648 17.0579C352.201 17.0579 351.866 16.9551 351.642 16.7494C351.41 16.5438 351.293 16.3024 351.293 16.0252C351.293 15.748 351.351 15.4976 351.468 15.2741C351.575 15.0506 351.74 14.9388 351.964 14.9388C352.187 14.9388 352.371 15.0014 352.514 15.1266C352.255 15.4574 352.125 15.7614 352.125 16.0386C352.125 16.4856 352.362 16.7092 352.836 16.7092C353.149 16.7092 353.511 16.5929 353.922 16.3605C354.333 16.1369 354.749 15.8151 355.169 15.3948C355.59 14.9835 355.974 14.4292 356.323 13.7318C356.68 13.0344 356.931 12.2788 357.074 11.4652C356.779 12.2431 356.381 12.8868 355.88 13.3965C355.388 13.9061 354.821 14.1609 354.177 14.1609C353.846 14.1609 353.578 14.0492 353.372 13.8256C353.175 13.5932 353.077 13.2802 353.077 12.8868C353.077 12.4934 353.225 11.8049 353.52 10.8214C353.824 9.83788 353.976 9.19412 353.976 8.89012C353.976 8.57718 353.859 8.42071 353.627 8.42071C353.457 8.42071 353.278 8.53694 353.091 8.76941C352.903 8.99294 352.751 9.31482 352.635 9.73506L352.407 9.68141C352.737 8.59059 353.216 8.04518 353.842 8.04518C354.423 8.04518 354.713 8.35812 354.713 8.984C354.713 9.23435 354.575 9.85576 354.298 10.8482C354.02 11.8407 353.882 12.4934 353.882 12.8064C353.882 13.4144 354.11 13.7184 354.566 13.7184ZM357.861 15.3144C358.755 14.6348 359.466 13.6647 359.993 12.404C360.521 11.1433 360.785 9.86918 360.785 8.58165C360.785 7.28518 360.485 6.31953 359.886 5.68471L360.047 5.48353C360.628 5.83224 361.062 6.324 361.348 6.95882C361.634 7.58471 361.777 8.29106 361.777 9.07788C361.777 10.3565 361.424 11.6082 360.718 12.8332C360.02 14.0581 359.086 14.9522 357.914 15.5155L357.861 15.3144Z" fill="#6082FA"/>
<path opacity="0.86" d="M217.493 5.68471C216.563 6.37318 215.839 7.33882 215.32 8.58165C214.802 9.81553 214.542 11.0941 214.542 12.4174C214.542 13.7318 214.846 14.6974 215.454 15.3144L215.267 15.5155C214.703 15.1668 214.274 14.6751 213.979 14.0402C213.693 13.4054 213.55 12.6991 213.55 11.9212C213.55 10.6426 213.899 9.39529 214.596 8.17929C215.302 6.95435 216.237 6.05576 217.399 5.48353L217.493 5.68471ZM222.019 5.85906H220.476L218.827 13.6915H220.382C220.955 13.6915 221.482 13.5127 221.965 13.1551C222.448 12.7974 222.837 12.3459 223.132 11.8005C223.74 10.6649 224.044 9.53388 224.044 8.40729C224.044 7.60259 223.856 6.97671 223.48 6.52965C223.114 6.08259 222.627 5.85906 222.019 5.85906ZM218.853 5.55059H222.099C222.993 5.55059 223.7 5.81435 224.218 6.34188C224.737 6.86047 224.996 7.58918 224.996 8.528C224.996 9.16282 224.884 9.80212 224.661 10.4459C224.446 11.0807 224.147 11.6664 223.762 12.2028C223.378 12.7304 222.881 13.164 222.273 13.5038C221.674 13.8346 221.022 14 220.315 14H217.07L217.11 13.7586H217.727C217.843 13.7586 217.915 13.6915 217.941 13.5574C219.014 8.47882 219.551 5.91718 219.551 5.87247C219.551 5.81882 219.502 5.792 219.403 5.792H218.813L218.853 5.55059Z" fill="#6082FA"/>
<path opacity="0.86" d="M226.251 9.48951H228.884C229.327 9.48951 229.642 9.46327 229.828 9.41079C229.741 9.61488 229.636 9.991 229.513 10.5391L229.426 10.9502H229.233L229.347 9.83939C229.347 9.74026 229.283 9.69069 229.155 9.69069H227.309L226.793 12.1223H228.56C228.618 12.1165 228.659 12.0757 228.682 11.9998L228.857 11.4575H229.006L228.665 13.032H228.516L228.595 12.4897C228.595 12.408 228.563 12.3672 228.499 12.3672H226.749L226.233 14.7988H228.166C228.306 14.7988 228.397 14.7347 228.437 14.6064L228.805 13.5393H228.997L228.91 13.9504C228.799 14.4694 228.744 14.8455 228.744 15.0787C228.575 15.0262 228.274 15 227.843 15H225.087L225.114 14.8426H225.516C225.592 14.8426 225.639 14.7988 225.656 14.7114C226.356 11.3992 226.706 9.72859 226.706 9.69944C226.706 9.66445 226.674 9.64696 226.609 9.64696H226.225L226.251 9.48951Z" fill="#6082FA"/>
<path opacity="0.86" d="M7.62459 4.78859H5.31106L2.83659 16.5373H5.17024C6.02859 16.5373 6.81988 16.2691 7.54412 15.7326C8.26835 15.1961 8.85177 14.5188 9.29435 13.7007C10.2064 11.9974 10.6624 10.3008 10.6624 8.61094C10.6624 7.40388 10.3807 6.46506 9.81741 5.79447C9.26753 5.12388 8.53659 4.78859 7.62459 4.78859ZM2.87682 4.32588H7.74529C9.08647 4.32588 10.146 4.72153 10.9239 5.51282C11.7018 6.29071 12.0907 7.38376 12.0907 8.792C12.0907 9.74423 11.9231 10.7032 11.5878 11.6688C11.2659 12.6211 10.8166 13.4995 10.2399 14.3042C9.66318 15.0955 8.91882 15.746 8.00682 16.2556C7.10824 16.7519 6.12918 17 5.06965 17H0.201176L0.261529 16.6379H1.18694C1.36129 16.6379 1.46859 16.5373 1.50882 16.3361C3.11824 8.71824 3.92294 4.87576 3.92294 4.80871C3.92294 4.72823 3.84918 4.688 3.70165 4.688H2.81647L2.87682 4.32588Z" fill="#6082FA"/>
<path opacity="0.86" d="M15.5482 18.105C15.1342 18.105 14.7697 18 14.4548 17.7901C14.3499 17.7259 14.277 17.6939 14.2362 17.6939C14.1312 17.6939 14.0641 17.7959 14.035 18H13.8688L14.1749 16.5393H14.3324C14.3265 16.5859 14.3236 16.6559 14.3236 16.7492C14.3236 17.1282 14.4315 17.4081 14.6473 17.5889C14.8688 17.7638 15.1692 17.8513 15.5482 17.8513C15.933 17.8513 16.2538 17.7172 16.5103 17.449C16.7727 17.1749 16.9039 16.8629 16.9039 16.513C16.9039 16.1573 16.7232 15.892 16.3616 15.7171L15.6619 15.3585C15.1138 15.0902 14.8397 14.6733 14.8397 14.1077C14.8397 13.6645 15.0117 13.268 15.3558 12.9181C15.6998 12.5624 16.1313 12.3846 16.6503 12.3846C16.9943 12.3846 17.3063 12.4808 17.5862 12.6732C17.6795 12.7373 17.7436 12.7694 17.7786 12.7694C17.8369 12.7694 17.8865 12.7082 17.9273 12.5857L17.971 12.437H18.1285L17.8049 13.9502H17.6562C17.6678 13.8336 17.6737 13.7491 17.6737 13.6966C17.6737 13.335 17.5804 13.0697 17.3938 12.9006C17.213 12.7257 16.9506 12.6382 16.6065 12.6382C16.2625 12.6382 15.968 12.7665 15.7231 13.0231C15.484 13.2796 15.3645 13.5683 15.3645 13.889C15.3645 14.2855 15.5424 14.5771 15.8981 14.7637L16.799 15.2273C17.283 15.478 17.525 15.8337 17.525 16.2944C17.525 16.7492 17.3267 17.1661 16.9302 17.5452C16.5337 17.9184 16.073 18.105 15.5482 18.105Z" fill="#6082FA"/>
</svg>
