<svg width="31" height="23" viewBox="0 0 31 23" fill="none" xmlns="http://www.w3.org/2000/svg">
<path opacity="0.86" d="M12.9861 17.5056L13.95 12.9741C13.95 12.915 13.9093 12.8855 13.8281 12.8855H13.3295L13.3628 12.6861H15.4013L15.3681 12.8855H14.8695C14.7735 12.8855 14.7107 12.9372 14.6812 13.0406L13.7173 17.5831C13.673 17.7899 13.6508 17.9783 13.6508 18.1482C13.6508 18.5839 13.7801 18.9089 14.0386 19.1231C14.2971 19.3299 14.6406 19.4334 15.069 19.4334C15.4752 19.4334 15.8999 19.293 16.3431 19.0123C16.8158 18.7095 17.126 18.2109 17.2737 17.5166L18.2266 13.0074C18.2266 12.9261 18.1896 12.8855 18.1158 12.8855H17.6172L17.6504 12.6861H19.3012L19.268 12.8855H18.7694C18.6734 12.8855 18.6106 12.9372 18.5811 13.0406L17.6394 17.5056C17.4769 18.2737 17.1445 18.8498 16.6422 19.2339C16.1473 19.6106 15.5712 19.799 14.9139 19.799C13.577 19.799 12.9085 19.2561 12.9085 18.1703C12.9085 17.9561 12.9344 17.7345 12.9861 17.5056ZM21.8426 16.4419H21.1446C20.7457 18.3402 20.5463 19.3189 20.5463 19.378C20.5463 19.437 20.5869 19.4666 20.6682 19.4666H21.3772L21.344 19.666H19.0838L19.1171 19.4666H19.6267C19.7227 19.4666 19.7818 19.4112 19.804 19.3004C20.6903 15.105 21.1335 12.9889 21.1335 12.952C21.1335 12.9077 21.0929 12.8855 21.0116 12.8855H20.5241L20.5574 12.6861H23.0724C23.582 12.6861 24.003 12.819 24.3354 13.0849C24.6752 13.3434 24.845 13.7275 24.845 14.2372C24.845 14.7394 24.6604 15.1863 24.2911 15.5778C23.9292 15.9692 23.4786 16.2314 22.9394 16.3644C23.4564 16.5638 23.715 16.9664 23.715 17.572C23.715 17.7862 23.678 18.0706 23.6042 18.4251C23.5377 18.7797 23.5045 19.0086 23.5045 19.1121C23.5045 19.3189 23.5857 19.4223 23.7482 19.4223C23.9107 19.4223 24.0806 19.3078 24.2578 19.0788C24.4351 18.8425 24.5939 18.5101 24.7343 18.0817L24.9226 18.126C24.7232 18.7169 24.5016 19.1453 24.2578 19.4112C24.0141 19.6697 23.726 19.799 23.3937 19.799C23.2312 19.799 23.0945 19.7399 22.9837 19.6217C22.8729 19.4961 22.8175 19.3226 22.8175 19.101C22.8175 18.8794 22.8508 18.595 22.9172 18.2479C22.9911 17.9007 23.028 17.5905 23.028 17.3172C23.028 16.7337 22.6329 16.4419 21.8426 16.4419ZM22.9616 12.9409H21.898L21.2 16.176H22.3079C22.8249 16.176 23.2533 15.9581 23.5931 15.5224C23.9402 15.0866 24.1138 14.6249 24.1138 14.1375C24.1138 13.7903 24.0141 13.5059 23.8147 13.2843C23.6226 13.0554 23.3383 12.9409 22.9616 12.9409ZM28.3836 13.0406L27.043 19.4112H29.2256C29.4103 19.4112 29.5284 19.3299 29.5801 19.1674L30.0344 17.8158H30.2781L30.1673 18.3365C30.027 18.9791 29.9568 19.4555 29.9568 19.7657C29.7426 19.6993 29.3622 19.666 28.8157 19.666H25.5916L25.6248 19.4666H26.1345C26.2305 19.4666 26.2896 19.4112 26.3118 19.3004C27.1981 15.105 27.6413 12.9889 27.6413 12.952C27.6413 12.9077 27.6006 12.8855 27.5194 12.8855H27.0319L27.0651 12.6861H29.1037L29.0705 12.8855H28.5719C28.4759 12.8855 28.4131 12.9372 28.3836 13.0406Z" fill="#6082FA"/>
<path opacity="0.86" d="M5.21047 12.1458H3.94306C3.21882 15.5926 2.85671 17.3696 2.85671 17.4769C2.85671 17.5842 2.93047 17.6379 3.078 17.6379H4.36553L4.30518 18H0.201176L0.261529 17.6379H1.18694C1.36129 17.6379 1.46859 17.5373 1.50882 17.3361C3.11824 9.71824 3.92294 5.87576 3.92294 5.80871C3.92294 5.72823 3.84918 5.688 3.70165 5.688H2.81647L2.87682 5.32588H7.44353C8.36894 5.32588 9.13341 5.56729 9.73694 6.05012C10.3539 6.51953 10.6624 7.21694 10.6624 8.14235C10.6624 9.05435 10.3271 9.86576 9.65647 10.5766C8.99929 11.2874 8.18118 11.7635 7.20212 12.0049C8.14094 12.3671 8.61035 13.098 8.61035 14.1978C8.61035 14.5867 8.54329 15.1031 8.40918 15.7468C8.28847 16.3906 8.22812 16.8064 8.22812 16.9941C8.22812 17.3696 8.37565 17.5574 8.67071 17.5574C8.96577 17.5574 9.27424 17.3495 9.59612 16.9338C9.918 16.5046 10.2064 15.9011 10.4612 15.1232L10.8032 15.2036C10.4411 16.2766 10.0387 17.0545 9.59612 17.5373C9.15353 18.0067 8.63047 18.2414 8.02694 18.2414C7.73188 18.2414 7.48376 18.1341 7.28259 17.9195C7.08141 17.6915 6.98082 17.3764 6.98082 16.974C6.98082 16.5716 7.04118 16.0553 7.16188 15.4249C7.296 14.7946 7.36306 14.2313 7.36306 13.7351C7.36306 12.6755 6.64553 12.1458 5.21047 12.1458ZM7.24235 5.78859H5.31106L4.04365 11.6629H6.05541C6.99424 11.6629 7.77212 11.2673 8.38906 10.476C9.01941 9.68471 9.33459 8.84647 9.33459 7.96129C9.33459 7.33094 9.15353 6.81459 8.79141 6.41223C8.44271 5.99647 7.92635 5.78859 7.24235 5.78859Z" fill="#6082FA"/>
</svg>
