<svg width="326" height="23" viewBox="0 0 326 23" fill="none" xmlns="http://www.w3.org/2000/svg">
<path opacity="0.86" d="M4.05307 18.2414C3.10084 18.2414 2.2626 18 1.53837 17.5172C1.29695 17.3696 1.12931 17.2959 1.03543 17.2959C0.794013 17.2959 0.639778 17.5306 0.572719 18H0.190484L0.894602 14.6404H1.25672C1.24331 14.7476 1.2366 14.9086 1.2366 15.1232C1.2366 15.9949 1.48472 16.6387 1.98095 17.0545C2.4906 17.4568 3.18131 17.658 4.05307 17.658C4.93825 17.658 5.6759 17.3495 6.26601 16.7326C6.86954 16.1022 7.17131 15.3847 7.17131 14.58C7.17131 13.7619 6.75554 13.1516 5.92401 12.7493L4.3146 11.9245C3.0539 11.3075 2.42354 10.3486 2.42354 9.04765C2.42354 8.02835 2.81919 7.11635 3.61048 6.31165C4.40178 5.49353 5.39425 5.08447 6.5879 5.08447C7.37919 5.08447 8.09672 5.30576 8.74048 5.74835C8.95507 5.89588 9.1026 5.96965 9.18307 5.96965C9.31719 5.96965 9.43119 5.82882 9.52507 5.54718L9.62566 5.20518H9.98778L9.24343 8.68553H8.90143C8.92825 8.41729 8.94166 8.22282 8.94166 8.10212C8.94166 7.27059 8.72707 6.66035 8.2979 6.27141C7.88213 5.86906 7.2786 5.66788 6.48731 5.66788C5.69601 5.66788 5.01872 5.96294 4.45543 6.55306C3.90554 7.14318 3.6306 7.80706 3.6306 8.54471C3.6306 9.45671 4.03966 10.1273 4.85778 10.5565L6.9299 11.6227C8.04307 12.1994 8.59966 13.0175 8.59966 14.0771C8.59966 15.1232 8.14366 16.0821 7.23166 16.9539C6.31966 17.8122 5.26013 18.2414 4.05307 18.2414ZM11.4369 10.0334L11.5375 9.65118H16.0036L15.903 10.0334H11.4369ZM14.6356 7.1767L14.9172 7.37788C14.6088 8.31671 14.193 9.792 13.6699 11.8038C13.1603 13.8155 12.8518 15.1165 12.7445 15.7066C12.6372 16.2833 12.5836 16.7192 12.5836 17.0142C12.5836 17.4568 12.7512 17.6781 13.0865 17.6781C13.3413 17.6781 13.6163 17.5105 13.9113 17.1752C14.2064 16.8265 14.4612 16.3369 14.6758 15.7066L14.9977 15.7871C14.421 17.4233 13.6699 18.2414 12.7445 18.2414C11.913 18.2414 11.4972 17.7385 11.4972 16.7326C11.4972 15.9011 11.9935 13.5808 12.9859 9.77188L11.5375 9.65118C12.2751 9.65118 12.8719 9.47682 13.3279 9.12812C13.7839 8.766 14.2198 8.11553 14.6356 7.1767ZM16.8559 15.0829C16.8559 13.7015 17.2583 12.3805 18.063 11.1198C18.4519 10.5162 18.9616 10.0267 19.5919 9.65118C20.2223 9.26223 20.9398 9.06776 21.7445 9.06776C22.5626 9.06776 23.2265 9.34271 23.7361 9.89259C24.2458 10.4425 24.5006 11.1935 24.5006 12.1458C24.5006 13.098 24.3263 14.0234 23.9776 14.922C23.6289 15.8206 23.079 16.5985 22.3279 17.2556C21.5769 17.9128 20.7319 18.2414 19.7931 18.2414C18.8543 18.2414 18.13 17.9665 17.6204 17.4166C17.1107 16.8667 16.8559 16.0888 16.8559 15.0829ZM21.5836 9.51035C20.8593 9.51035 20.2156 9.87247 19.6523 10.5967C19.1024 11.3209 18.7067 12.1122 18.4653 12.9706C18.2373 13.8289 18.1233 14.6336 18.1233 15.3847C18.1233 16.1224 18.2709 16.7125 18.5659 17.1551C18.8744 17.5842 19.2901 17.7988 19.8132 17.7988C20.3497 17.7988 20.8459 17.5842 21.3019 17.1551C21.7713 16.7259 22.1401 16.1961 22.4084 15.5658C22.9583 14.2782 23.2332 13.1651 23.2332 12.2262C23.2332 11.274 23.0857 10.5833 22.7906 10.1541C22.4956 9.72494 22.0932 9.51035 21.5836 9.51035ZM29.8712 9.24882L30.1529 9.45C29.5091 10.9253 28.9458 12.6219 28.463 14.5398H28.6239L28.9458 13.6546C29.5762 11.9379 30.1998 10.7442 30.8168 10.0736C31.4337 9.40306 31.9702 9.06776 32.4262 9.06776C32.8822 9.06776 33.2175 9.21529 33.4321 9.51035C33.6601 9.80541 33.7741 10.1876 33.7741 10.6571C33.7741 11.1265 33.6869 11.5355 33.5125 11.8842C33.3382 12.2329 33.0834 12.4073 32.7481 12.4073C32.4262 12.4073 32.1579 12.3 31.9434 12.0854C32.0775 11.9111 32.2049 11.6562 32.3256 11.3209C32.4463 10.9856 32.5067 10.6906 32.5067 10.4358C32.5067 10.0468 32.3457 9.85235 32.0238 9.85235C31.6885 9.85235 31.2728 10.1809 30.7765 10.8381C29.6902 12.2598 28.7715 14.6471 28.0204 18L26.6122 18.1207L28.5837 9.99318L27.2962 10.0938L27.2761 9.75176C28.2015 9.63106 29.0665 9.46341 29.8712 9.24882ZM42.5271 9.45C42.0577 10.8448 41.6151 12.3402 41.1994 13.9362C40.7836 15.5322 40.5757 16.5582 40.5757 17.0142C40.5757 17.4568 40.7434 17.6781 41.0787 17.6781C41.3335 17.6781 41.6084 17.5105 41.9035 17.1752C42.1985 16.8265 42.4534 16.3369 42.668 15.7066L42.9898 15.7871C42.4131 17.4233 41.6621 18.2414 40.7367 18.2414C39.9051 18.2414 39.4894 17.7385 39.4894 16.7326C39.4894 16.5314 39.5229 16.2095 39.59 15.7669H39.4894C38.6578 17.4166 37.6922 18.2414 36.5924 18.2414C35.9621 18.2414 35.4323 17.9665 35.0031 17.4166C34.5874 16.8533 34.3795 16.1693 34.3795 15.3646C34.3795 14.5465 34.4868 13.7887 34.7014 13.0913C34.916 12.3939 35.2177 11.7434 35.6067 11.1399C35.9956 10.5229 36.512 10.0267 37.1557 9.65118C37.7995 9.26223 38.5036 9.06776 39.2681 9.06776C40.2605 9.06776 41.0451 9.49023 41.6218 10.3352L42.2455 9.24882L42.5271 9.45ZM37.0752 17.6379C37.6385 17.6379 38.2085 17.202 38.7852 16.3302C39.4424 15.3244 40.0527 13.6814 40.616 11.4014C40.7367 10.8649 40.8305 10.476 40.8976 10.2346C40.4282 9.77859 39.885 9.55059 39.2681 9.55059C38.6645 9.55059 38.1214 9.75847 37.6385 10.1742C37.1691 10.59 36.8003 11.1131 36.5321 11.7434C35.9822 13.0309 35.7072 14.2447 35.7072 15.3847C35.7072 16.1358 35.828 16.6991 36.0694 17.0746C36.3242 17.4501 36.6595 17.6379 37.0752 17.6379ZM46.269 16.8332L49.4677 17.5574C50.1651 17.7184 50.6614 17.9329 50.9564 18.2012C51.2515 18.4828 51.399 18.8651 51.399 19.3479C51.399 20.1258 50.9698 20.8567 50.1115 21.5407C49.2665 22.2381 48.3009 22.5868 47.2145 22.5868C46.1282 22.5868 45.243 22.3387 44.559 21.8425C43.8884 21.3462 43.5531 20.7561 43.5531 20.0721C43.5531 19.6027 43.7141 19.1534 44.036 18.7242C44.3444 18.2951 44.8071 17.9329 45.4241 17.6379L45.8264 17.7586C45.4241 17.9598 45.1156 18.2615 44.901 18.6639C44.6864 19.0796 44.5791 19.5155 44.5791 19.9715C44.5791 20.7226 44.8272 21.2792 45.3235 21.6413C45.8197 22.0168 46.4568 22.2046 47.2347 22.2046C48.026 22.2046 48.7502 21.9766 49.4074 21.5206C50.078 21.078 50.4132 20.5415 50.4132 19.9112C50.4132 19.2808 50.0042 18.8718 49.1861 18.684L45.7258 17.9195C45.3369 17.8391 45.0351 17.658 44.8205 17.3764C44.606 17.0947 44.4987 16.7527 44.4987 16.3504C44.4987 15.948 44.6663 15.5792 45.0016 15.2439C45.3369 14.9086 45.7996 14.7409 46.3897 14.7409H48.4216L48.3612 15.0226H46.3897C46.1081 15.0226 45.8801 15.1098 45.7057 15.2841C45.5448 15.4585 45.4643 15.6664 45.4643 15.9078C45.4643 16.404 45.7325 16.7125 46.269 16.8332ZM49.6488 9.34941L49.6287 9.06776C50.0042 9.06776 50.3194 8.98059 50.5742 8.80623C50.829 8.61847 50.9564 8.37706 50.9564 8.082C50.9564 7.78694 50.7418 7.50529 50.3127 7.23706C50.5272 6.78106 50.7821 6.55306 51.0771 6.55306C51.3856 6.55306 51.6136 6.64023 51.7611 6.81459C51.9221 6.98894 52.0025 7.21023 52.0025 7.47847C52.0025 7.94788 51.788 8.37706 51.3588 8.766C50.943 9.15494 50.373 9.34941 49.6488 9.34941ZM45.9672 12.8298C45.9672 11.8373 46.316 10.9655 47.0134 10.2145C47.7242 9.45 48.596 9.06776 49.6287 9.06776C50.3529 9.06776 50.9229 9.26223 51.3387 9.65118C51.7678 10.0267 51.9824 10.5632 51.9824 11.2606C51.9824 12.3872 51.6203 13.2992 50.8961 13.9966C50.1718 14.6806 49.3269 15.0226 48.3612 15.0226C47.6236 15.0226 47.0402 14.8348 46.611 14.4593C46.1818 14.0704 45.9672 13.5272 45.9672 12.8298ZM49.6085 9.45C48.8709 9.45 48.2674 9.85906 47.798 10.6772C47.3285 11.4819 47.0938 12.1994 47.0938 12.8298C47.0938 13.4601 47.2078 13.9228 47.4358 14.2179C47.6772 14.4995 47.9924 14.6404 48.3814 14.6404C48.9715 14.6404 49.5348 14.3051 50.0712 13.6345C50.6077 12.9639 50.876 12.1189 50.876 11.0996C50.876 10.59 50.7552 10.1876 50.5138 9.89259C50.2858 9.59753 49.9841 9.45 49.6085 9.45ZM58.6571 9.06776C59.3679 9.06776 59.8977 9.24212 60.2464 9.59082C60.6085 9.92612 60.7896 10.4156 60.7896 11.0594C60.7896 11.6898 60.5414 12.2396 60.0452 12.7091C59.2003 13.5138 57.9463 13.9161 56.2832 13.9161C55.787 13.9161 55.3578 13.8759 54.9957 13.7954V13.4132C55.4651 13.4802 55.854 13.5138 56.1625 13.5138C57.2757 13.5138 58.134 13.2321 58.7376 12.6688C59.3545 12.1055 59.663 11.4886 59.663 10.818C59.663 10.4559 59.5624 10.1541 59.3612 9.91271C59.1734 9.67129 58.8516 9.55059 58.3956 9.55059C57.953 9.55059 57.497 9.75847 57.0276 10.1742C56.5716 10.59 56.2094 11.1064 55.9412 11.7233C55.4047 13.0242 55.1365 14.1508 55.1365 15.1031C55.1365 16.8734 55.673 17.7586 56.7459 17.7586C58.0737 17.7586 59.046 17.0344 59.663 15.5859L59.9848 15.6664C59.663 16.4845 59.1936 17.1215 58.5766 17.5775C57.9731 18.0201 57.2891 18.2414 56.5246 18.2414C55.7601 18.2414 55.1164 17.9598 54.5933 17.3965C54.0703 16.8332 53.8087 16.0754 53.8087 15.1232C53.8087 14.1709 53.9898 13.2522 54.3519 12.3671C54.714 11.4685 55.2773 10.6973 56.0418 10.0535C56.8063 9.39635 57.678 9.06776 58.6571 9.06776Z" fill="#6082FA"/>
<path opacity="0.86" d="M84.7261 12.87H76.84V11.8038H84.7261V12.87ZM84.7261 16.29H76.84V15.2238H84.7261V16.29Z" fill="#6082FA"/>
<path opacity="0.86" d="M185.739 5.52706C184.345 6.55976 183.258 8.00823 182.48 9.87247C181.702 11.7233 181.314 13.6412 181.314 15.6261C181.314 17.5976 181.77 19.0461 182.682 19.9715L182.4 20.2733C181.555 19.7502 180.911 19.0126 180.469 18.0604C180.039 17.1081 179.825 16.0486 179.825 14.8818C179.825 12.9639 180.348 11.0929 181.394 9.26894C182.454 7.43153 183.855 6.08365 185.599 5.22529L185.739 5.52706ZM188.464 18.2414C187.512 18.2414 186.674 18 185.949 17.5172C185.708 17.3696 185.54 17.2959 185.446 17.2959C185.205 17.2959 185.051 17.5306 184.984 18H184.602L185.306 14.6404H185.668C185.654 14.7476 185.648 14.9086 185.648 15.1232C185.648 15.9949 185.896 16.6387 186.392 17.0545C186.902 17.4568 187.592 17.658 188.464 17.658C189.349 17.658 190.087 17.3495 190.677 16.7326C191.281 16.1022 191.582 15.3847 191.582 14.58C191.582 13.7619 191.167 13.1516 190.335 12.7493L188.726 11.9245C187.465 11.3075 186.835 10.3486 186.835 9.04765C186.835 8.02835 187.23 7.11635 188.022 6.31165C188.813 5.49353 189.805 5.08447 190.999 5.08447C191.79 5.08447 192.508 5.30576 193.152 5.74835C193.366 5.89588 193.514 5.96965 193.594 5.96965C193.728 5.96965 193.842 5.82882 193.936 5.54718L194.037 5.20518H194.399L193.654 8.68553H193.312C193.339 8.41729 193.353 8.22282 193.353 8.10212C193.353 7.27059 193.138 6.66035 192.709 6.27141C192.293 5.86906 191.69 5.66788 190.898 5.66788C190.107 5.66788 189.43 5.96294 188.866 6.55306C188.317 7.14318 188.042 7.80706 188.042 8.54471C188.042 9.45671 188.451 10.1273 189.269 10.5565L191.341 11.6227C192.454 12.1994 193.011 13.0175 193.011 14.0771C193.011 15.1232 192.555 16.0821 191.643 16.9539C190.731 17.8122 189.671 18.2414 188.464 18.2414ZM195.848 10.0334L195.948 9.65118H200.415L200.314 10.0334H195.848ZM199.047 7.1767L199.328 7.37788C199.02 8.31671 198.604 9.792 198.081 11.8038C197.571 13.8155 197.263 15.1165 197.156 15.7066C197.048 16.2833 196.995 16.7192 196.995 17.0142C196.995 17.4568 197.162 17.6781 197.498 17.6781C197.752 17.6781 198.027 17.5105 198.322 17.1752C198.617 16.8265 198.872 16.3369 199.087 15.7066L199.409 15.7871C198.832 17.4233 198.081 18.2414 197.156 18.2414C196.324 18.2414 195.908 17.7385 195.908 16.7326C195.908 15.9011 196.404 13.5808 197.397 9.77188L195.948 9.65118C196.686 9.65118 197.283 9.47682 197.739 9.12812C198.195 8.766 198.631 8.11553 199.047 7.1767ZM201.267 15.0829C201.267 13.7015 201.669 12.3805 202.474 11.1198C202.863 10.5162 203.373 10.0267 204.003 9.65118C204.633 9.26223 205.351 9.06776 206.156 9.06776C206.974 9.06776 207.638 9.34271 208.147 9.89259C208.657 10.4425 208.912 11.1935 208.912 12.1458C208.912 13.098 208.737 14.0234 208.389 14.922C208.04 15.8206 207.49 16.5985 206.739 17.2556C205.988 17.9128 205.143 18.2414 204.204 18.2414C203.265 18.2414 202.541 17.9665 202.031 17.4166C201.522 16.8667 201.267 16.0888 201.267 15.0829ZM205.995 9.51035C205.27 9.51035 204.627 9.87247 204.063 10.5967C203.513 11.3209 203.118 12.1122 202.876 12.9706C202.648 13.8289 202.534 14.6336 202.534 15.3847C202.534 16.1224 202.682 16.7125 202.977 17.1551C203.285 17.5842 203.701 17.7988 204.224 17.7988C204.761 17.7988 205.257 17.5842 205.713 17.1551C206.182 16.7259 206.551 16.1961 206.819 15.5658C207.369 14.2782 207.644 13.1651 207.644 12.2262C207.644 11.274 207.497 10.5833 207.202 10.1541C206.907 9.72494 206.504 9.51035 205.995 9.51035ZM214.282 9.24882L214.564 9.45C213.92 10.9253 213.357 12.6219 212.874 14.5398H213.035L213.357 13.6546C213.987 11.9379 214.611 10.7442 215.228 10.0736C215.845 9.40306 216.381 9.06776 216.837 9.06776C217.293 9.06776 217.629 9.21529 217.843 9.51035C218.071 9.80541 218.185 10.1876 218.185 10.6571C218.185 11.1265 218.098 11.5355 217.924 11.8842C217.749 12.2329 217.494 12.4073 217.159 12.4073C216.837 12.4073 216.569 12.3 216.354 12.0854C216.489 11.9111 216.616 11.6562 216.737 11.3209C216.857 10.9856 216.918 10.6906 216.918 10.4358C216.918 10.0468 216.757 9.85235 216.435 9.85235C216.1 9.85235 215.684 10.1809 215.188 10.8381C214.101 12.2598 213.183 14.6471 212.431 18L211.023 18.1207L212.995 9.99318L211.707 10.0938L211.687 9.75176C212.613 9.63106 213.478 9.46341 214.282 9.24882ZM226.938 9.45C226.469 10.8448 226.026 12.3402 225.61 13.9362C225.195 15.5322 224.987 16.5582 224.987 17.0142C224.987 17.4568 225.154 17.6781 225.49 17.6781C225.745 17.6781 226.019 17.5105 226.315 17.1752C226.61 16.8265 226.864 16.3369 227.079 15.7066L227.401 15.7871C226.824 17.4233 226.073 18.2414 225.148 18.2414C224.316 18.2414 223.9 17.7385 223.9 16.7326C223.9 16.5314 223.934 16.2095 224.001 15.7669H223.9C223.069 17.4166 222.103 18.2414 221.003 18.2414C220.373 18.2414 219.843 17.9665 219.414 17.4166C218.998 16.8533 218.791 16.1693 218.791 15.3646C218.791 14.5465 218.898 13.7887 219.112 13.0913C219.327 12.3939 219.629 11.7434 220.018 11.1399C220.407 10.5229 220.923 10.0267 221.567 9.65118C222.211 9.26223 222.915 9.06776 223.679 9.06776C224.672 9.06776 225.456 9.49023 226.033 10.3352L226.657 9.24882L226.938 9.45ZM221.486 17.6379C222.05 17.6379 222.62 17.202 223.196 16.3302C223.853 15.3244 224.464 13.6814 225.027 11.4014C225.148 10.8649 225.242 10.476 225.309 10.2346C224.839 9.77859 224.296 9.55059 223.679 9.55059C223.076 9.55059 222.532 9.75847 222.05 10.1742C221.58 10.59 221.211 11.1131 220.943 11.7434C220.393 13.0309 220.118 14.2447 220.118 15.3847C220.118 16.1358 220.239 16.6991 220.48 17.0746C220.735 17.4501 221.071 17.6379 221.486 17.6379ZM230.68 16.8332L233.879 17.5574C234.576 17.7184 235.072 17.9329 235.367 18.2012C235.663 18.4828 235.81 18.8651 235.81 19.3479C235.81 20.1258 235.381 20.8567 234.523 21.5407C233.678 22.2381 232.712 22.5868 231.626 22.5868C230.539 22.5868 229.654 22.3387 228.97 21.8425C228.299 21.3462 227.964 20.7561 227.964 20.0721C227.964 19.6027 228.125 19.1534 228.447 18.7242C228.755 18.2951 229.218 17.9329 229.835 17.6379L230.237 17.7586C229.835 17.9598 229.527 18.2615 229.312 18.6639C229.097 19.0796 228.99 19.5155 228.99 19.9715C228.99 20.7226 229.238 21.2792 229.735 21.6413C230.231 22.0168 230.868 22.2046 231.646 22.2046C232.437 22.2046 233.161 21.9766 233.818 21.5206C234.489 21.078 234.824 20.5415 234.824 19.9112C234.824 19.2808 234.415 18.8718 233.597 18.684L230.137 17.9195C229.748 17.8391 229.446 17.658 229.232 17.3764C229.017 17.0947 228.91 16.7527 228.91 16.3504C228.91 15.948 229.077 15.5792 229.413 15.2439C229.748 14.9086 230.211 14.7409 230.801 14.7409H232.833L232.772 15.0226H230.801C230.519 15.0226 230.291 15.1098 230.117 15.2841C229.956 15.4585 229.875 15.6664 229.875 15.9078C229.875 16.404 230.144 16.7125 230.68 16.8332ZM234.06 9.34941L234.04 9.06776C234.415 9.06776 234.73 8.98059 234.985 8.80623C235.24 8.61847 235.367 8.37706 235.367 8.082C235.367 7.78694 235.153 7.50529 234.724 7.23706C234.938 6.78106 235.193 6.55306 235.488 6.55306C235.797 6.55306 236.025 6.64023 236.172 6.81459C236.333 6.98894 236.414 7.21023 236.414 7.47847C236.414 7.94788 236.199 8.37706 235.77 8.766C235.354 9.15494 234.784 9.34941 234.06 9.34941ZM230.378 12.8298C230.378 11.8373 230.727 10.9655 231.424 10.2145C232.135 9.45 233.007 9.06776 234.04 9.06776C234.764 9.06776 235.334 9.26223 235.75 9.65118C236.179 10.0267 236.393 10.5632 236.393 11.2606C236.393 12.3872 236.031 13.2992 235.307 13.9966C234.583 14.6806 233.738 15.0226 232.772 15.0226C232.035 15.0226 231.451 14.8348 231.022 14.4593C230.593 14.0704 230.378 13.5272 230.378 12.8298ZM234.02 9.45C233.282 9.45 232.678 9.85906 232.209 10.6772C231.74 11.4819 231.505 12.1994 231.505 12.8298C231.505 13.4601 231.619 13.9228 231.847 14.2179C232.088 14.4995 232.403 14.6404 232.792 14.6404C233.383 14.6404 233.946 14.3051 234.482 13.6345C235.019 12.9639 235.287 12.1189 235.287 11.0996C235.287 10.59 235.166 10.1876 234.925 9.89259C234.697 9.59753 234.395 9.45 234.02 9.45ZM243.068 9.06776C243.779 9.06776 244.309 9.24212 244.657 9.59082C245.02 9.92612 245.201 10.4156 245.201 11.0594C245.201 11.6898 244.952 12.2396 244.456 12.7091C243.611 13.5138 242.357 13.9161 240.694 13.9161C240.198 13.9161 239.769 13.8759 239.407 13.7954V13.4132C239.876 13.4802 240.265 13.5138 240.574 13.5138C241.687 13.5138 242.545 13.2321 243.149 12.6688C243.766 12.1055 244.074 11.4886 244.074 10.818C244.074 10.4559 243.973 10.1541 243.772 9.91271C243.584 9.67129 243.263 9.55059 242.807 9.55059C242.364 9.55059 241.908 9.75847 241.439 10.1742C240.983 10.59 240.62 11.1064 240.352 11.7233C239.816 13.0242 239.548 14.1508 239.548 15.1031C239.548 16.8734 240.084 17.7586 241.157 17.7586C242.485 17.7586 243.457 17.0344 244.074 15.5859L244.396 15.6664C244.074 16.4845 243.605 17.1215 242.988 17.5775C242.384 18.0201 241.7 18.2414 240.936 18.2414C240.171 18.2414 239.527 17.9598 239.004 17.3965C238.481 16.8332 238.22 16.0754 238.22 15.1232C238.22 14.1709 238.401 13.2522 238.763 12.3671C239.125 11.4685 239.688 10.6973 240.453 10.0535C241.217 9.39635 242.089 9.06776 243.068 9.06776ZM245.914 20.2331C246.786 19.5625 247.222 18.8584 247.222 18.1207C247.222 17.7184 247.081 17.3898 246.799 17.1349C246.866 16.8265 247.02 16.5582 247.262 16.3302C247.517 16.1022 247.785 15.9882 248.067 15.9882C248.616 15.9882 248.891 16.2632 248.891 16.8131C248.891 17.3629 248.616 18.0134 248.067 18.7645C247.53 19.5289 246.866 20.1124 246.075 20.5147L245.914 20.2331ZM259.124 5.32588H264.254C265.26 5.32588 265.977 5.26553 266.407 5.14482C266.232 5.54718 265.998 6.41223 265.702 7.74L265.501 8.68553H265.059L265.28 6.25129C265.28 6.00988 265.126 5.88918 264.817 5.88918H262.242C260.619 13.5473 259.808 17.4233 259.808 17.5172C259.808 17.5976 259.882 17.6379 260.029 17.6379H261.759L261.699 18H256.308L256.368 17.6379H258.138C258.313 17.6379 258.42 17.5373 258.46 17.3361L260.874 5.88918H258.319C257.997 5.88918 257.79 6.0367 257.696 6.33176L256.911 8.68553H256.468L256.67 7.74C256.924 6.57318 257.052 5.70812 257.052 5.14482C257.441 5.26553 258.132 5.32588 259.124 5.32588ZM268.07 5.32588H274.125C275.145 5.32588 275.869 5.26553 276.298 5.14482C276.097 5.61423 275.855 6.47929 275.574 7.74L275.373 8.68553H274.93L275.192 6.13059C275.192 5.90259 275.044 5.78859 274.749 5.78859H270.504L269.317 11.3813H273.381C273.515 11.3679 273.609 11.274 273.663 11.0996L274.065 9.85235H274.407L273.622 13.4735H273.28L273.461 12.2262C273.461 12.0385 273.388 11.9446 273.24 11.9446H269.217L268.03 17.5373H272.476C272.798 17.5373 273.005 17.3898 273.099 17.0947L273.944 14.6404H274.387L274.186 15.5859C273.931 16.7795 273.803 17.6446 273.803 18.1811C273.415 18.0604 272.724 18 271.731 18H265.394L265.455 17.6379H266.38C266.554 17.6379 266.662 17.5373 266.702 17.3361C268.311 9.71824 269.116 5.87576 269.116 5.80871C269.116 5.72823 269.042 5.688 268.895 5.688H268.01L268.07 5.32588ZM279.376 5.32588H285.431C286.451 5.32588 287.175 5.26553 287.604 5.14482C287.403 5.61423 287.161 6.47929 286.88 7.74L286.679 8.68553H286.236L286.498 6.13059C286.498 5.90259 286.35 5.78859 286.055 5.78859H281.81L280.623 11.3813H284.687C284.821 11.3679 284.915 11.274 284.969 11.0996L285.371 9.85235H285.713L284.928 13.4735H284.586L284.767 12.2262C284.767 12.0385 284.694 11.9446 284.546 11.9446H280.523L279.336 17.5373H283.782C284.104 17.5373 284.311 17.3898 284.405 17.0947L285.25 14.6404H285.693L285.492 15.5859C285.237 16.7795 285.109 17.6446 285.109 18.1811C284.72 18.0604 284.03 18 283.037 18H276.7L276.761 17.6379H277.686C277.86 17.6379 277.968 17.5373 278.008 17.3361C279.617 9.71824 280.422 5.87576 280.422 5.80871C280.422 5.72823 280.348 5.688 280.201 5.688H279.316L279.376 5.32588ZM293.076 5.96965L290.662 17.4367C290.662 17.5708 290.736 17.6379 290.883 17.6379H291.768L291.708 18H288.006L288.067 17.6379H288.992C289.166 17.6379 289.274 17.5373 289.314 17.3361C290.923 9.71824 291.728 5.87576 291.728 5.80871C291.728 5.72823 291.654 5.688 291.507 5.688H290.622L290.682 5.32588H294.384L294.323 5.688H293.418C293.244 5.688 293.13 5.78188 293.076 5.96965ZM295.953 14.4794L295.993 16.3302C296.02 17.1618 296.241 17.5775 296.657 17.5775C296.925 17.5775 297.146 17.4367 297.321 17.1551C297.508 16.8734 297.602 16.5113 297.602 16.0687L297.985 16.0084C297.985 16.6924 297.804 17.2355 297.441 17.6379C297.093 18.0402 296.65 18.2414 296.114 18.2414C295.161 18.2414 294.658 17.5239 294.605 16.0888L294.524 14.1173C294.484 13.2455 294.303 12.642 293.981 12.3067C293.659 11.958 293.13 11.7836 292.392 11.7836L292.492 11.4618L298.226 5.688H297.28L297.341 5.32588H299.936L299.876 5.688H299.353C299.138 5.688 298.944 5.78188 298.769 5.96965L293.317 11.4215C294.283 11.4349 294.954 11.7166 295.329 12.2665C295.718 12.8164 295.926 13.554 295.953 14.4794ZM302.518 5.32588H308.574C309.593 5.32588 310.317 5.26553 310.746 5.14482C310.545 5.61423 310.304 6.47929 310.022 7.74L309.821 8.68553H309.378L309.64 6.13059C309.64 5.90259 309.492 5.78859 309.197 5.78859H304.953L303.766 11.3813H307.829C307.963 11.3679 308.057 11.274 308.111 11.0996L308.513 9.85235H308.855L308.071 13.4735H307.729L307.91 12.2262C307.91 12.0385 307.836 11.9446 307.689 11.9446H303.665L302.478 17.5373H306.924C307.246 17.5373 307.454 17.3898 307.548 17.0947L308.393 14.6404H308.835L308.634 15.5859C308.379 16.7795 308.252 17.6446 308.252 18.1811C307.863 18.0604 307.172 18 306.18 18H299.843L299.903 17.6379H300.828C301.003 17.6379 301.11 17.5373 301.15 17.3361C302.76 9.71824 303.564 5.87576 303.564 5.80871C303.564 5.72823 303.491 5.688 303.343 5.688H302.458L302.518 5.32588ZM315.916 14.1776L315.031 14.2782L313.18 5.96965C313.14 5.78188 313.04 5.688 312.879 5.688H312.175L312.235 5.32588H315.554L315.494 5.688H314.548L316.158 12.8298L320.403 5.688H319.457L319.518 5.32588H322.113L322.052 5.688H321.348C321.187 5.688 321.046 5.78188 320.926 5.96965L315.916 14.1776ZM314.991 13.1315L316.279 13.4735C315.729 16.0754 315.454 17.4233 315.454 17.5172C315.454 17.5976 315.528 17.6379 315.675 17.6379H317.003L316.942 18H312.356L312.416 17.6379H313.784C313.958 17.6379 314.066 17.5373 314.106 17.3361L314.991 13.1315ZM319.579 19.9715C320.921 18.9522 321.987 17.4971 322.778 15.606C323.569 13.7149 323.965 11.8038 323.965 9.87247C323.965 7.92776 323.516 6.47929 322.617 5.52706L322.859 5.22529C323.73 5.74835 324.381 6.486 324.81 7.43823C325.239 8.37706 325.454 9.43659 325.454 10.6168C325.454 12.5347 324.924 14.4124 323.864 16.2498C322.818 18.0872 321.417 19.4284 319.66 20.2733L319.579 19.9715Z" fill="#6082FA"/>
<path opacity="0.86" d="M64.002 13.18H68.216C68.9253 13.18 69.4293 13.138 69.728 13.054C69.588 13.3807 69.42 13.9827 69.224 14.86L69.084 15.518H68.776L68.958 13.74C68.958 13.5813 68.8553 13.502 68.65 13.502H65.696L64.87 17.394H67.698C67.7913 17.3847 67.8567 17.3193 67.894 17.198L68.174 16.33H68.412L67.866 18.85H67.628L67.754 17.982C67.754 17.8513 67.7027 17.786 67.6 17.786H64.8L63.974 21.678H67.068C67.292 21.678 67.4367 21.5753 67.502 21.37L68.09 19.662H68.398L68.258 20.32C68.0807 21.1507 67.992 21.7527 67.992 22.126C67.7213 22.042 67.2407 22 66.55 22H62.14L62.182 21.748H62.826C62.9473 21.748 63.022 21.678 63.05 21.538C64.17 16.2367 64.73 13.5627 64.73 13.516C64.73 13.46 64.6787 13.432 64.576 13.432H63.96L64.002 13.18Z" fill="#6082FA"/>
<path opacity="0.86" d="M95.8768 5.32588H101.932C102.952 5.32588 103.676 5.26553 104.105 5.14482C103.904 5.61423 103.662 6.47929 103.381 7.74L103.18 8.68553H102.737L102.998 6.13059C102.998 5.90259 102.851 5.78859 102.556 5.78859H98.3111L97.1241 11.3813H101.188C101.322 11.3679 101.416 11.274 101.47 11.0996L101.872 9.85235H102.214L101.429 13.4735H101.087L101.268 12.2262C101.268 12.0385 101.195 11.9446 101.047 11.9446H97.0235L95.8366 17.5373H100.283C100.604 17.5373 100.812 17.3898 100.906 17.0947L101.751 14.6404H102.194L101.993 15.5859C101.738 16.7795 101.61 17.6446 101.61 18.1811C101.221 18.0604 100.531 18 99.5382 18H93.2012L93.2615 17.6379H94.1869C94.3613 17.6379 94.4686 17.5373 94.5088 17.3361C96.1182 9.71824 96.9229 5.87576 96.9229 5.80871C96.9229 5.72823 96.8492 5.688 96.7016 5.688H95.8165L95.8768 5.32588ZM113.319 10.8985C113.319 11.4752 112.99 12.5347 112.333 14.0771C111.689 15.6194 111.367 16.6052 111.367 17.0344C111.367 17.4635 111.535 17.6781 111.87 17.6781C112.125 17.6781 112.4 17.5105 112.695 17.1752C112.99 16.8265 113.245 16.3369 113.459 15.7066L113.781 15.7871C113.205 17.4233 112.454 18.2414 111.528 18.2414C110.697 18.2414 110.281 17.7854 110.281 16.8734C110.281 16.4845 110.583 15.5188 111.186 13.9765C111.803 12.4341 112.112 11.4416 112.112 10.9991C112.112 10.1541 111.803 9.73165 111.186 9.73165C110.516 9.73165 109.791 10.2748 109.013 11.3612C108.115 12.6621 107.317 14.8751 106.619 18L105.211 18.1207L107.183 9.99318L105.895 10.0938L105.875 9.75176C106.801 9.63106 107.666 9.46341 108.47 9.24882L108.752 9.45C108.108 10.9253 107.545 12.6219 107.062 14.5398H107.223L107.545 13.6546C108.269 11.6294 109.054 10.3151 109.899 9.71153C110.301 9.44329 110.63 9.26894 110.884 9.18847C111.153 9.108 111.481 9.06776 111.87 9.06776C112.273 9.06776 112.615 9.22871 112.896 9.55059C113.178 9.87247 113.319 10.3218 113.319 10.8985ZM120.379 9.55059C119.829 9.55059 119.319 9.75847 118.85 10.1742C118.394 10.59 118.031 11.1064 117.763 11.7233C117.227 13.0242 116.959 14.1508 116.959 15.1031C116.959 16.8734 117.495 17.7586 118.568 17.7586C119.896 17.7586 120.868 17.0344 121.485 15.5859L121.807 15.6664C121.485 16.4845 121.016 17.1215 120.399 17.5775C119.795 18.0201 119.111 18.2414 118.347 18.2414C117.582 18.2414 116.938 17.9598 116.415 17.3965C115.892 16.8332 115.631 16.0754 115.631 15.1232C115.631 14.1709 115.812 13.2522 116.174 12.3671C116.536 11.4685 117.099 10.6973 117.864 10.0535C118.628 9.39635 119.5 9.06776 120.479 9.06776C121.15 9.06776 121.653 9.24212 121.988 9.59082C122.337 9.92612 122.511 10.3352 122.511 10.818C122.511 11.2874 122.424 11.7099 122.249 12.0854C122.089 12.4609 121.827 12.6487 121.465 12.6487C121.116 12.6487 120.855 12.5414 120.68 12.3268C121.069 11.7367 121.264 11.16 121.264 10.5967C121.264 9.89929 120.969 9.55059 120.379 9.55059Z" fill="#6082FA"/>
<path opacity="0.86" d="M126.66 13.18H130.23C130.93 13.18 131.429 13.138 131.728 13.054C131.607 13.334 131.443 13.936 131.238 14.86L131.098 15.518H130.79L130.944 13.824C130.944 13.656 130.837 13.572 130.622 13.572H128.83C127.701 18.9013 127.136 21.5987 127.136 21.664C127.136 21.72 127.187 21.748 127.29 21.748H128.494L128.452 22H124.7L124.742 21.748H125.974C126.095 21.748 126.17 21.678 126.198 21.538L127.878 13.572H126.1C125.876 13.572 125.731 13.6747 125.666 13.88L125.12 15.518H124.812L124.952 14.86C125.129 14.048 125.218 13.446 125.218 13.054C125.489 13.138 125.969 13.18 126.66 13.18ZM132.886 13.18H137.1C137.809 13.18 138.313 13.138 138.612 13.054C138.472 13.3807 138.304 13.9827 138.108 14.86L137.968 15.518H137.66L137.842 13.74C137.842 13.5813 137.739 13.502 137.534 13.502H134.58L133.754 17.394H136.582C136.675 17.3847 136.74 17.3193 136.778 17.198L137.058 16.33H137.296L136.75 18.85H136.512L136.638 17.982C136.638 17.8513 136.586 17.786 136.484 17.786H133.684L132.858 21.678H135.952C136.176 21.678 136.32 21.5753 136.386 21.37L136.974 19.662H137.282L137.142 20.32C136.964 21.1507 136.876 21.7527 136.876 22.126C136.605 22.042 136.124 22 135.434 22H131.024L131.066 21.748H131.71C131.831 21.748 131.906 21.678 131.934 21.538C133.054 16.2367 133.614 13.5627 133.614 13.516C133.614 13.46 133.562 13.432 133.46 13.432H132.844L132.886 13.18ZM140.753 13.18H144.967C145.677 13.18 146.181 13.138 146.479 13.054C146.339 13.3807 146.171 13.9827 145.975 14.86L145.835 15.518H145.527L145.709 13.74C145.709 13.5813 145.607 13.502 145.401 13.502H142.447L141.621 17.394H144.449C144.543 17.3847 144.608 17.3193 144.645 17.198L144.925 16.33H145.163L144.617 18.85H144.379L144.505 17.982C144.505 17.8513 144.454 17.786 144.351 17.786H141.551L140.725 21.678H143.819C144.043 21.678 144.188 21.5753 144.253 21.37L144.841 19.662H145.149L145.009 20.32C144.832 21.1507 144.743 21.7527 144.743 22.126C144.473 22.042 143.992 22 143.301 22H138.891L138.933 21.748H139.577C139.699 21.748 139.773 21.678 139.801 21.538C140.921 16.2367 141.481 13.5627 141.481 13.516C141.481 13.46 141.43 13.432 141.327 13.432H140.711L140.753 13.18ZM151.673 21.748L151.295 19.046H148.201L146.689 21.748H147.557L147.515 22H145.499L145.555 21.748H146.045C146.176 21.748 146.274 21.6827 146.339 21.552L151.043 13.18H151.491L152.639 21.552C152.658 21.6827 152.728 21.748 152.849 21.748H153.339L153.297 22H150.763L150.805 21.748H151.673ZM150.693 14.608L148.411 18.654H151.239L150.693 14.608ZM157.704 13.628L156.01 21.678H158.768C159.001 21.678 159.151 21.5753 159.216 21.37L159.79 19.662H160.098L159.958 20.32C159.781 21.132 159.692 21.734 159.692 22.126C159.421 22.042 158.941 22 158.25 22H154.176L154.218 21.748H154.862C154.983 21.748 155.058 21.678 155.086 21.538C156.206 16.2367 156.766 13.5627 156.766 13.516C156.766 13.46 156.715 13.432 156.612 13.432H155.996L156.038 13.18H158.614L158.572 13.432H157.942C157.821 13.432 157.741 13.4973 157.704 13.628ZM168.094 18.836L167.996 19.312C167.818 20.1427 167.389 20.8287 166.708 21.37C166.036 21.902 165.247 22.168 164.342 22.168C163.436 22.168 162.713 21.888 162.172 21.328C161.63 20.768 161.36 19.984 161.36 18.976C161.36 18.2947 161.472 17.6087 161.696 16.918C161.92 16.2273 162.232 15.588 162.634 15C163.044 14.412 163.572 13.936 164.216 13.572C164.86 13.1987 165.56 13.012 166.316 13.012C166.894 13.012 167.436 13.18 167.94 13.516C168.108 13.6187 168.229 13.67 168.304 13.67C168.416 13.67 168.504 13.572 168.57 13.376L168.654 13.096H168.906L168.388 15.518H168.15C168.159 15.4433 168.164 15.336 168.164 15.196C168.164 14.5893 167.982 14.1413 167.618 13.852C167.263 13.5627 166.782 13.418 166.176 13.418C165.569 13.418 165.009 13.614 164.496 14.006C163.982 14.398 163.572 14.888 163.264 15.476C162.638 16.708 162.326 17.9307 162.326 19.144C162.326 19.984 162.512 20.6327 162.886 21.09C163.259 21.538 163.805 21.762 164.524 21.762C165.252 21.762 165.83 21.524 166.26 21.048C166.689 20.572 166.988 19.8207 167.156 18.794C167.156 18.6913 167.109 18.64 167.016 18.64H166.134L166.176 18.388H168.738L168.696 18.64H168.346C168.206 18.64 168.122 18.7053 168.094 18.836ZM172.967 13.376C173.509 13.1333 174.083 13.012 174.689 13.012C175.613 13.012 176.341 13.292 176.873 13.852C177.415 14.4027 177.685 15.182 177.685 16.19C177.685 16.8713 177.573 17.562 177.349 18.262C177.125 18.9527 176.813 19.592 176.411 20.18C176.01 20.768 175.487 21.2487 174.843 21.622C174.199 21.986 173.457 22.168 172.617 22.168C171.777 22.168 171.087 21.888 170.545 21.328C170.013 20.768 169.747 19.956 169.747 18.892C169.747 17.828 170.037 16.7547 170.615 15.672C171.203 14.5893 171.987 13.824 172.967 13.376ZM176.131 14.09C175.758 13.614 175.263 13.376 174.647 13.376C174.031 13.376 173.462 13.5767 172.939 13.978C172.417 14.37 172.001 14.8693 171.693 15.476C171.049 16.7267 170.727 17.94 170.727 19.116C170.727 19.9653 170.909 20.628 171.273 21.104C171.647 21.5707 172.141 21.804 172.757 21.804C173.383 21.804 173.957 21.608 174.479 21.216C175.002 20.8147 175.422 20.3153 175.739 19.718C176.383 18.4767 176.705 17.2633 176.705 16.078C176.705 15.2287 176.514 14.566 176.131 14.09Z" fill="#6082FA"/>
</svg>
