<svg width="23" height="23" viewBox="0 0 23 23" fill="none" xmlns="http://www.w3.org/2000/svg">
<path opacity="0.86" d="M14.4579 15.1164C14.7669 15.1164 14.9972 15.1922 15.1488 15.3438C15.3063 15.4896 15.385 15.7025 15.385 15.9824C15.385 16.2564 15.2771 16.4955 15.0614 16.6996C14.694 17.0495 14.1488 17.2244 13.4257 17.2244C13.21 17.2244 13.0234 17.2069 12.8659 17.1719V17.0057C13.07 17.0349 13.2391 17.0495 13.3732 17.0495C13.8572 17.0495 14.2304 16.927 14.4928 16.6821C14.7611 16.4372 14.8952 16.169 14.8952 15.8774C14.8952 15.7199 14.8515 15.5887 14.764 15.4838C14.6824 15.3788 14.5424 15.3263 14.3441 15.3263C14.1517 15.3263 13.9535 15.4167 13.7494 15.5975C13.5511 15.7783 13.3937 16.0028 13.277 16.271C13.0438 16.8366 12.9272 17.3264 12.9272 17.7405C12.9272 18.5102 13.1604 18.895 13.6269 18.895C14.2042 18.895 14.627 18.5802 14.8952 17.9504L15.0351 17.9854C14.8952 18.3411 14.6911 18.6181 14.4229 18.8163C14.1605 19.0087 13.8631 19.105 13.5307 19.105C13.1983 19.105 12.9184 18.9825 12.691 18.7376C12.4636 18.4927 12.3499 18.1632 12.3499 17.7492C12.3499 17.3352 12.4286 16.9358 12.586 16.5509C12.7435 16.1602 12.9884 15.8249 13.3208 15.545C13.6531 15.2593 14.0322 15.1164 14.4579 15.1164ZM17.0772 15.1164C17.3104 15.1164 17.4999 15.2447 17.6457 15.5013C17.7915 15.7579 17.8906 16.0698 17.9431 16.4372C18.0014 16.8046 18.051 17.1719 18.0918 17.5393C18.1909 18.4198 18.3542 18.8601 18.5816 18.8601C18.6924 18.8601 18.812 18.7872 18.9402 18.6414C19.0685 18.4898 19.1793 18.2769 19.2726 18.0029L19.4126 18.0379C19.1618 18.7493 18.8353 19.105 18.4329 19.105C18.1997 19.105 18.0102 18.9767 17.8644 18.7201C17.7186 18.4635 17.6166 18.1516 17.5583 17.7842C17.5058 17.4168 17.4591 17.0495 17.4183 16.6821C17.3192 15.8016 17.1559 15.3613 16.9285 15.3613C16.8177 15.3613 16.6981 15.4371 16.5699 15.5887C16.4416 15.7345 16.3308 15.9444 16.2375 16.2185L16.0975 16.1835C16.3483 15.4721 16.6748 15.1164 17.0772 15.1164ZM17.2434 17.6617L17.567 17.1019L17.7857 17.0844L17.3658 17.8192C16.8818 18.6764 16.4562 19.105 16.0888 19.105C15.9139 19.105 15.8264 18.9475 15.8264 18.6326C16.427 18.5802 16.8993 18.2565 17.2434 17.6617ZM18.1793 16.5596L17.8556 17.1194L17.637 17.1369L18.0568 16.4022C18.5408 15.545 18.9665 15.1164 19.3339 15.1164C19.5088 15.1164 19.5963 15.2739 19.5963 15.5887C18.9956 15.6412 18.5233 15.9649 18.1793 16.5596ZM20.4442 15.5363L20.4879 15.3701H22.4297L22.3859 15.5363H20.4442ZM21.8349 14.2942L21.9573 14.3817C21.8232 14.7899 21.6425 15.4313 21.415 16.306C21.1935 17.1807 21.0593 17.7463 21.0127 18.0029C20.966 18.2536 20.9427 18.4431 20.9427 18.5714C20.9427 18.7638 21.0156 18.8601 21.1614 18.8601C21.2722 18.8601 21.3917 18.7872 21.52 18.6414C21.6483 18.4898 21.7591 18.2769 21.8524 18.0029L21.9923 18.0379C21.7416 18.7493 21.415 19.105 21.0127 19.105C20.6512 19.105 20.4704 18.8863 20.4704 18.449C20.4704 18.0874 20.6861 17.0786 21.1177 15.4226L20.4879 15.3701C20.8086 15.3701 21.0681 15.2943 21.2664 15.1427C21.4646 14.9852 21.6541 14.7024 21.8349 14.2942Z" fill="#6082FA"/>
<path opacity="0.86" d="M7.62459 5.78859H5.31106L2.83659 17.5373H5.17024C6.02859 17.5373 6.81988 17.2691 7.54412 16.7326C8.26835 16.1961 8.85177 15.5188 9.29435 14.7007C10.2064 12.9974 10.6624 11.3008 10.6624 9.61094C10.6624 8.40388 10.3807 7.46506 9.81741 6.79447C9.26753 6.12388 8.53659 5.78859 7.62459 5.78859ZM2.87682 5.32588H7.74529C9.08647 5.32588 10.146 5.72153 10.9239 6.51282C11.7018 7.29071 12.0907 8.38376 12.0907 9.792C12.0907 10.7442 11.9231 11.7032 11.5878 12.6688C11.2659 13.6211 10.8166 14.4995 10.2399 15.3042C9.66318 16.0955 8.91882 16.746 8.00682 17.2556C7.10824 17.7519 6.12918 18 5.06965 18H0.201176L0.261529 17.6379H1.18694C1.36129 17.6379 1.46859 17.5373 1.50882 17.3361C3.11824 9.71824 3.92294 5.87576 3.92294 5.80871C3.92294 5.72823 3.84918 5.688 3.70165 5.688H2.81647L2.87682 5.32588Z" fill="#6082FA"/>
</svg>
