<svg width="498" height="24" viewBox="0 0 498 24" fill="none" xmlns="http://www.w3.org/2000/svg">
<path opacity="0.86" d="M5.63294 5.60753C6.41082 5.25882 7.23565 5.08447 8.10741 5.08447C9.43518 5.08447 10.4813 5.48682 11.2458 6.29153C12.0236 7.08282 12.4126 8.20271 12.4126 9.65118C12.4126 10.6302 12.2516 11.6227 11.9298 12.6286C11.6079 13.6211 11.1586 14.5398 10.5819 15.3847C10.0052 16.2296 9.25412 16.9204 8.32871 17.4568C7.40329 17.9799 6.33706 18.2414 5.13 18.2414C3.92294 18.2414 2.93047 17.8391 2.15259 17.0344C1.38812 16.2296 1.00588 15.0628 1.00588 13.5339C1.00588 12.0049 1.42165 10.4626 2.25318 8.90682C3.09812 7.35106 4.22471 6.25129 5.63294 5.60753ZM10.1795 6.63353C9.64306 5.94953 8.93224 5.60753 8.04706 5.60753C7.16188 5.60753 6.34377 5.89588 5.59271 6.47259C4.84165 7.03588 4.24482 7.75341 3.80224 8.62518C2.87682 10.4224 2.41412 12.1659 2.41412 13.8558C2.41412 15.0762 2.67565 16.0285 3.19871 16.7125C3.73518 17.3831 4.446 17.7184 5.33118 17.7184C6.22977 17.7184 7.05459 17.4367 7.80565 16.8734C8.55671 16.2967 9.16024 15.5792 9.61624 14.7208C10.5416 12.9371 11.0044 11.1935 11.0044 9.49024C11.0044 8.26976 10.7294 7.31753 10.1795 6.63353ZM17.1795 9.24882L17.4612 9.45C16.8174 10.9253 16.2541 12.6219 15.7713 14.5398H15.9322L16.2541 13.6546C16.8845 11.9379 17.5081 10.7442 18.1251 10.0736C18.742 9.40306 19.2785 9.06776 19.7345 9.06776C20.1905 9.06776 20.5258 9.21529 20.7404 9.51035C20.9684 9.80541 21.0824 10.1876 21.0824 10.6571C21.0824 11.1265 20.9952 11.5355 20.8208 11.8842C20.6465 12.2329 20.3916 12.4073 20.0564 12.4073C19.7345 12.4073 19.4662 12.3 19.2516 12.0854C19.3858 11.9111 19.5132 11.6562 19.6339 11.3209C19.7546 10.9856 19.8149 10.6906 19.8149 10.4358C19.8149 10.0468 19.654 9.85235 19.3321 9.85235C18.9968 9.85235 18.5811 10.1809 18.0848 10.8381C16.9985 12.2598 16.0798 14.6471 15.3287 18L13.9205 18.1207L15.892 9.99318L14.6045 10.0938L14.5844 9.75176C15.5098 9.63106 16.3748 9.46341 17.1795 9.24882ZM27.884 17.0142C27.884 17.4568 28.0516 17.6781 28.3869 17.6781C28.6418 17.6781 28.9167 17.5105 29.2118 17.1752C29.5068 16.8265 29.7616 16.3369 29.9762 15.7066L30.2981 15.7871C29.7214 17.4233 28.9704 18.2414 28.0449 18.2414C27.2134 18.2414 26.7976 17.7184 26.7976 16.6722C26.7976 15.6127 27.6761 11.8976 29.4331 5.52706L28.1455 5.62765L28.1254 5.28565C29.0508 5.16494 29.9159 4.99729 30.7206 4.78271L31.0022 4.98388C30.4389 6.63353 29.7751 8.87329 29.0106 11.7032C28.2595 14.5196 27.884 16.29 27.884 17.0142ZM26.9988 15.7669H26.7976C25.9661 17.4166 25.0005 18.2414 23.9007 18.2414C23.2704 18.2414 22.7406 17.9665 22.3114 17.4166C21.8956 16.8533 21.6878 16.1693 21.6878 15.3646C21.6878 14.5465 21.7951 13.7887 22.0096 13.0913C22.2242 12.3939 22.526 11.7434 22.9149 11.1399C23.3039 10.5229 23.8202 10.0267 24.464 9.65118C25.1078 9.26223 25.7649 9.06776 26.4355 9.06776C27.7231 9.06776 28.6351 9.63106 29.1715 10.7576L28.8899 11.1198C28.2595 10.0736 27.4749 9.55059 26.5361 9.55059C25.9594 9.55059 25.4296 9.75847 24.9468 10.1742C24.4774 10.59 24.1086 11.1131 23.8404 11.7434C23.2905 13.0309 23.0155 14.2447 23.0155 15.3847C23.0155 16.1358 23.1362 16.6991 23.3776 17.0746C23.6325 17.4501 23.9678 17.6379 24.3835 17.6379C24.9602 17.6379 25.5504 17.1551 26.1539 16.1894C26.7574 15.2104 27.2939 13.8155 27.7633 12.0049L26.9988 15.7669ZM36.9973 9.06776C37.7081 9.06776 38.2379 9.24212 38.5866 9.59082C38.9487 9.92612 39.1298 10.4156 39.1298 11.0594C39.1298 11.6898 38.8816 12.2396 38.3854 12.7091C37.5405 13.5138 36.2865 13.9161 34.6234 13.9161C34.1272 13.9161 33.698 13.8759 33.3359 13.7954V13.4132C33.8053 13.4802 34.1942 13.5138 34.5027 13.5138C35.6159 13.5138 36.4742 13.2321 37.0778 12.6688C37.6947 12.1055 38.0032 11.4886 38.0032 10.818C38.0032 10.4559 37.9026 10.1541 37.7014 9.91271C37.5136 9.67129 37.1918 9.55059 36.7358 9.55059C36.2932 9.55059 35.8372 9.75847 35.3678 10.1742C34.9118 10.59 34.5496 11.1064 34.2814 11.7233C33.7449 13.0242 33.4767 14.1508 33.4767 15.1031C33.4767 16.8734 34.0132 17.7586 35.0861 17.7586C36.4139 17.7586 37.3862 17.0344 38.0032 15.5859L38.3251 15.6664C38.0032 16.4845 37.5338 17.1215 36.9168 17.5775C36.3133 18.0201 35.6293 18.2414 34.8648 18.2414C34.1004 18.2414 33.4566 17.9598 32.9335 17.3965C32.4105 16.8332 32.1489 16.0754 32.1489 15.1232C32.1489 14.1709 32.33 13.2522 32.6921 12.3671C33.0542 11.4685 33.6175 10.6973 34.382 10.0535C35.1465 9.39635 36.0182 9.06776 36.9973 9.06776ZM43.9069 9.24882L44.1886 9.45C43.5448 10.9253 42.9815 12.6219 42.4987 14.5398H42.6596L42.9815 13.6546C43.6119 11.9379 44.2355 10.7442 44.8525 10.0736C45.4694 9.40306 46.0059 9.06776 46.4619 9.06776C46.9179 9.06776 47.2532 9.21529 47.4677 9.51035C47.6957 9.80541 47.8097 10.1876 47.8097 10.6571C47.8097 11.1265 47.7226 11.5355 47.5482 11.8842C47.3739 12.2329 47.119 12.4073 46.7837 12.4073C46.4619 12.4073 46.1936 12.3 45.979 12.0854C46.1132 11.9111 46.2406 11.6562 46.3613 11.3209C46.482 10.9856 46.5423 10.6906 46.5423 10.4358C46.5423 10.0468 46.3814 9.85235 46.0595 9.85235C45.7242 9.85235 45.3085 10.1809 44.8122 10.8381C43.7259 12.2598 42.8072 14.6471 42.0561 18L40.6479 18.1207L42.6194 9.99318L41.3319 10.0938L41.3117 9.75176C42.2372 9.63106 43.1022 9.46341 43.9069 9.24882ZM48.7773 17.9396C48.5761 17.7251 48.4755 17.4702 48.4755 17.1752C48.4755 16.8801 48.5761 16.632 48.7773 16.4308C48.9919 16.2162 49.2467 16.1089 49.5417 16.1089C49.8368 16.1089 50.0849 16.2162 50.2861 16.4308C50.5007 16.632 50.608 16.8801 50.608 17.1752C50.608 17.4702 50.5007 17.7251 50.2861 17.9396C50.0849 18.1408 49.8368 18.2414 49.5417 18.2414C49.2467 18.2414 48.9919 18.1408 48.7773 17.9396ZM57.5362 9.06776C58.247 9.06776 58.7767 9.24212 59.1255 9.59082C59.4876 9.92612 59.6686 10.4156 59.6686 11.0594C59.6686 11.6898 59.4205 12.2396 58.9243 12.7091C58.0793 13.5138 56.8253 13.9161 55.1623 13.9161C54.666 13.9161 54.2369 13.8759 53.8747 13.7954V13.4132C54.3442 13.4802 54.7331 13.5138 55.0416 13.5138C56.1547 13.5138 57.0131 13.2321 57.6166 12.6688C58.2336 12.1055 58.542 11.4886 58.542 10.818C58.542 10.4559 58.4415 10.1541 58.2403 9.91271C58.0525 9.67129 57.7306 9.55059 57.2746 9.55059C56.832 9.55059 56.376 9.75847 55.9066 10.1742C55.4506 10.59 55.0885 11.1064 54.8203 11.7233C54.2838 13.0242 54.0156 14.1508 54.0156 15.1031C54.0156 16.8734 54.552 17.7586 55.625 17.7586C56.9527 17.7586 57.9251 17.0344 58.542 15.5859L58.8639 15.6664C58.542 16.4845 58.0726 17.1215 57.4557 17.5775C56.8522 18.0201 56.1682 18.2414 55.4037 18.2414C54.6392 18.2414 53.9955 17.9598 53.4724 17.3965C52.9493 16.8332 52.6878 16.0754 52.6878 15.1232C52.6878 14.1709 52.8689 13.2522 53.231 12.3671C53.5931 11.4685 54.1564 10.6973 54.9209 10.0535C55.6853 9.39635 56.5571 9.06776 57.5362 9.06776ZM69.2941 10.8985C69.2941 11.4752 68.9655 12.5347 68.3084 14.0771C67.6646 15.6194 67.3427 16.6052 67.3427 17.0344C67.3427 17.4635 67.5104 17.6781 67.8457 17.6781C68.1005 17.6781 68.3754 17.5105 68.6705 17.1752C68.9655 16.8265 69.2204 16.3369 69.435 15.7066L69.7568 15.7871C69.1801 17.4233 68.4291 18.2414 67.5037 18.2414C66.6721 18.2414 66.2564 17.7854 66.2564 16.8734C66.2564 16.4845 66.5581 15.5188 67.1617 13.9765C67.7786 12.4341 68.0871 11.4416 68.0871 10.9991C68.0871 10.1541 67.7786 9.73165 67.1617 9.73165C66.4911 9.73165 65.7668 10.2748 64.989 11.3612C64.0904 12.6621 63.2924 14.8751 62.595 18L61.1867 18.1207L63.1583 9.99318L61.8707 10.0938L61.8506 9.75176C62.776 9.63106 63.6411 9.46341 64.4458 9.24882L64.7274 9.45C64.0837 10.9253 63.5204 12.6219 63.0375 14.5398H63.1985L63.5204 13.6546C64.2446 11.6294 65.0292 10.3151 65.8741 9.71153C66.2765 9.44329 66.6051 9.26894 66.8599 9.18847C67.1281 9.108 67.4567 9.06776 67.8457 9.06776C68.248 9.06776 68.59 9.22871 68.8717 9.55059C69.1533 9.87247 69.2941 10.3218 69.2941 10.8985ZM76.354 9.55059C75.8041 9.55059 75.2945 9.75847 74.8251 10.1742C74.3691 10.59 74.007 11.1064 73.7387 11.7233C73.2023 13.0242 72.934 14.1508 72.934 15.1031C72.934 16.8734 73.4705 17.7586 74.5434 17.7586C75.8712 17.7586 76.8435 17.0344 77.4605 15.5859L77.7824 15.6664C77.4605 16.4845 76.9911 17.1215 76.3741 17.5775C75.7706 18.0201 75.0866 18.2414 74.3221 18.2414C73.5577 18.2414 72.9139 17.9598 72.3908 17.3965C71.8678 16.8332 71.6063 16.0754 71.6063 15.1232C71.6063 14.1709 71.7873 13.2522 72.1494 12.3671C72.5115 11.4685 73.0748 10.6973 73.8393 10.0535C74.6038 9.39635 75.4755 9.06776 76.4546 9.06776C77.1252 9.06776 77.6281 9.24212 77.9634 9.59082C78.3121 9.92612 78.4865 10.3352 78.4865 10.818C78.4865 11.2874 78.3993 11.7099 78.225 12.0854C78.064 12.4609 77.8025 12.6487 77.4404 12.6487C77.0917 12.6487 76.8301 12.5414 76.6558 12.3268C77.0447 11.7367 77.2392 11.16 77.2392 10.5967C77.2392 9.89929 76.9441 9.55059 76.354 9.55059ZM83.3642 9.24882L83.6459 9.45C83.0021 10.9253 82.4388 12.6219 81.956 14.5398H82.1169L82.4388 13.6546C83.0692 11.9379 83.6928 10.7442 84.3098 10.0736C84.9267 9.40306 85.4632 9.06776 85.9192 9.06776C86.3752 9.06776 86.7105 9.21529 86.9251 9.51035C87.1531 9.80541 87.2671 10.1876 87.2671 10.6571C87.2671 11.1265 87.1799 11.5355 87.0055 11.8842C86.8312 12.2329 86.5763 12.4073 86.2411 12.4073C85.9192 12.4073 85.6509 12.3 85.4363 12.0854C85.5705 11.9111 85.6979 11.6562 85.8186 11.3209C85.9393 10.9856 85.9996 10.6906 85.9996 10.4358C85.9996 10.0468 85.8387 9.85235 85.5168 9.85235C85.1815 9.85235 84.7658 10.1809 84.2695 10.8381C83.1832 12.2598 82.2645 14.6471 81.5134 18L80.1052 18.1207L82.0767 9.99318L80.7892 10.0938L80.7691 9.75176C81.6945 9.63106 82.5595 9.46341 83.3642 9.24882ZM91.0913 17.5775C91.9496 17.5775 92.8013 16.9539 93.6462 15.7066C94.5046 14.4459 94.9338 13.2724 94.9338 12.186C94.9338 11.0862 94.5851 10.1876 93.8876 9.49024C94.2229 9.20859 94.5314 9.06776 94.8131 9.06776C95.3361 9.06776 95.5976 9.80541 95.5976 11.2807C95.5976 12.756 95.4367 14.1106 95.1148 15.3445C94.7929 16.5649 94.3705 17.6044 93.8474 18.4627C93.3378 19.3211 92.7544 20.0654 92.0972 20.6958C90.8231 21.9565 89.5288 22.5868 88.2145 22.5868C87.5439 22.5868 87.0409 22.4326 86.7056 22.1241C86.3569 21.8156 86.1826 21.4535 86.1826 21.0378C86.1826 20.622 86.2698 20.2465 86.4441 19.9112C86.6051 19.5759 86.8532 19.4082 87.1885 19.4082C87.5238 19.4082 87.7987 19.5021 88.0133 19.6899C87.6244 20.1861 87.4299 20.6421 87.4299 21.0579C87.4299 21.7285 87.7853 22.0638 88.4961 22.0638C88.9655 22.0638 89.5087 21.8894 90.1256 21.5407C90.7426 21.2054 91.3662 20.7226 91.9966 20.0922C92.6269 19.4753 93.2036 18.6438 93.7267 17.5976C94.2632 16.5515 94.6387 15.4182 94.8533 14.1978C94.4107 15.3646 93.8139 16.3302 93.0628 17.0947C92.3252 17.8592 91.4735 18.2414 90.5079 18.2414C90.0116 18.2414 89.6093 18.0738 89.3008 17.7385C89.0058 17.3898 88.8582 16.9204 88.8582 16.3302C88.8582 15.7401 89.0795 14.7074 89.5221 13.2321C89.9781 11.7568 90.2061 10.7912 90.2061 10.3352C90.2061 9.86576 90.0318 9.63106 89.6831 9.63106C89.4282 9.63106 89.16 9.80541 88.8784 10.1541C88.5967 10.4894 88.3687 10.9722 88.1944 11.6026L87.8524 11.5221C88.3486 9.88588 89.0661 9.06776 90.0049 9.06776C90.8767 9.06776 91.3126 9.53718 91.3126 10.476C91.3126 10.8515 91.1047 11.7836 90.6889 13.2724C90.2732 14.7611 90.0653 15.7401 90.0653 16.2095C90.0653 17.1215 90.4073 17.5775 91.0913 17.5775ZM101.144 9.24882L101.425 9.45C100.782 10.9253 100.218 12.6219 99.7354 14.5398H99.8964L100.218 13.6546C101.331 10.5967 102.606 9.06776 104.041 9.06776C104.617 9.06776 105.107 9.34941 105.509 9.91271C105.925 10.476 106.133 11.16 106.133 11.9647C106.133 12.7694 106.026 13.5205 105.811 14.2179C105.61 14.9019 105.315 15.5456 104.926 16.1492C104.537 16.7393 104.027 17.2221 103.397 17.5976C102.766 17.9732 102.069 18.1609 101.305 18.1609C100.138 18.1609 99.2258 17.6446 98.5686 16.6119L98.7094 16.2699C99.3532 17.2489 100.198 17.7385 101.244 17.7385C101.848 17.7385 102.384 17.5373 102.854 17.1349C103.336 16.7326 103.705 16.2296 103.96 15.6261C104.47 14.3922 104.725 13.1852 104.725 12.0049C104.725 11.3209 104.624 10.7912 104.423 10.4156C104.235 10.0267 103.987 9.83223 103.678 9.83223C103.048 9.83223 102.337 10.4425 101.546 11.6629C100.768 12.8834 100.064 14.7879 99.4337 17.3764L98.2266 22.3454L96.8184 22.4661L99.8561 9.99318L98.5686 10.0938L98.5485 9.75176C99.4739 9.63106 100.339 9.46341 101.144 9.24882ZM108.277 10.0334L108.378 9.65118H112.844L112.743 10.0334H108.277ZM111.476 7.1767L111.757 7.37788C111.449 8.31671 111.033 9.792 110.51 11.8038C110.001 13.8155 109.692 15.1165 109.585 15.7066C109.477 16.2833 109.424 16.7192 109.424 17.0142C109.424 17.4568 109.591 17.6781 109.927 17.6781C110.182 17.6781 110.457 17.5105 110.752 17.1752C111.047 16.8265 111.301 16.3369 111.516 15.7066L111.838 15.7871C111.261 17.4233 110.51 18.2414 109.585 18.2414C108.753 18.2414 108.337 17.7385 108.337 16.7326C108.337 15.9011 108.834 13.5808 109.826 9.77188L108.378 9.65118C109.115 9.65118 109.712 9.47682 110.168 9.12812C110.624 8.766 111.06 8.11553 111.476 7.1767ZM118.544 9.06776C119.255 9.06776 119.785 9.24212 120.134 9.59082C120.496 9.92612 120.677 10.4156 120.677 11.0594C120.677 11.6898 120.429 12.2396 119.933 12.7091C119.088 13.5138 117.834 13.9161 116.171 13.9161C115.674 13.9161 115.245 13.8759 114.883 13.7954V13.4132C115.352 13.4802 115.741 13.5138 116.05 13.5138C117.163 13.5138 118.021 13.2321 118.625 12.6688C119.242 12.1055 119.55 11.4886 119.55 10.818C119.55 10.4559 119.45 10.1541 119.249 9.91271C119.061 9.67129 118.739 9.55059 118.283 9.55059C117.84 9.55059 117.384 9.75847 116.915 10.1742C116.459 10.59 116.097 11.1064 115.829 11.7233C115.292 13.0242 115.024 14.1508 115.024 15.1031C115.024 16.8734 115.56 17.7586 116.633 17.7586C117.961 17.7586 118.933 17.0344 119.55 15.5859L119.872 15.6664C119.55 16.4845 119.081 17.1215 118.464 17.5775C117.86 18.0201 117.176 18.2414 116.412 18.2414C115.648 18.2414 115.004 17.9598 114.481 17.3965C113.958 16.8332 113.696 16.0754 113.696 15.1232C113.696 14.1709 113.877 13.2522 114.239 12.3671C114.601 11.4685 115.165 10.6973 115.929 10.0535C116.694 9.39635 117.565 9.06776 118.544 9.06776ZM128.291 17.0142C128.291 17.4568 128.458 17.6781 128.794 17.6781C129.048 17.6781 129.323 17.5105 129.618 17.1752C129.914 16.8265 130.168 16.3369 130.383 15.7066L130.705 15.7871C130.128 17.4233 129.377 18.2414 128.452 18.2414C127.62 18.2414 127.204 17.7184 127.204 16.6722C127.204 15.6127 128.083 11.8976 129.84 5.52706L128.552 5.62765L128.532 5.28565C129.458 5.16494 130.323 4.99729 131.127 4.78271L131.409 4.98388C130.846 6.63353 130.182 8.87329 129.417 11.7032C128.666 14.5196 128.291 16.29 128.291 17.0142ZM127.406 15.7669H127.204C126.373 17.4166 125.407 18.2414 124.307 18.2414C123.677 18.2414 123.147 17.9665 122.718 17.4166C122.302 16.8533 122.094 16.1693 122.094 15.3646C122.094 14.5465 122.202 13.7887 122.416 13.0913C122.631 12.3939 122.933 11.7434 123.322 11.1399C123.711 10.5229 124.227 10.0267 124.871 9.65118C125.514 9.26223 126.172 9.06776 126.842 9.06776C128.13 9.06776 129.042 9.63106 129.578 10.7576L129.297 11.1198C128.666 10.0736 127.882 9.55059 126.943 9.55059C126.366 9.55059 125.836 9.75847 125.354 10.1742C124.884 10.59 124.515 11.1131 124.247 11.7434C123.697 13.0309 123.422 14.2447 123.422 15.3847C123.422 16.1358 123.543 16.6991 123.784 17.0746C124.039 17.4501 124.374 17.6379 124.79 17.6379C125.367 17.6379 125.957 17.1551 126.561 16.1894C127.164 15.2104 127.701 13.8155 128.17 12.0049L127.406 15.7669ZM139.013 17.6379L138.47 13.7552H134.024L131.852 17.6379H133.099L133.038 18H130.142L130.222 17.6379H130.926C131.114 17.6379 131.255 17.544 131.349 17.3562L138.108 5.32588H138.752L140.402 17.3562C140.428 17.544 140.529 17.6379 140.703 17.6379H141.407L141.347 18H137.706L137.766 17.6379H139.013ZM137.605 7.37788L134.326 13.1919H138.39L137.605 7.37788ZM146.573 9.24882L146.855 9.45C146.211 10.9253 145.648 12.6219 145.165 14.5398H145.326L145.648 13.6546C146.278 11.9379 146.902 10.7442 147.518 10.0736C148.135 9.40306 148.672 9.06776 149.128 9.06776C149.584 9.06776 149.919 9.21529 150.134 9.51035C150.362 9.80541 150.476 10.1876 150.476 10.6571C150.476 11.1265 150.389 11.5355 150.214 11.8842C150.04 12.2329 149.785 12.4073 149.45 12.4073C149.128 12.4073 148.86 12.3 148.645 12.0854C148.779 11.9111 148.907 11.6562 149.027 11.3209C149.148 10.9856 149.208 10.6906 149.208 10.4358C149.208 10.0468 149.047 9.85235 148.726 9.85235C148.39 9.85235 147.974 10.1809 147.478 10.8381C146.392 12.2598 145.473 14.6471 144.722 18L143.314 18.1207L145.285 9.99318L143.998 10.0938L143.978 9.75176C144.903 9.63106 145.768 9.46341 146.573 9.24882ZM152.51 16.8332L155.708 17.5574C156.406 17.7184 156.902 17.9329 157.197 18.2012C157.492 18.4828 157.64 18.8651 157.64 19.3479C157.64 20.1258 157.21 20.8567 156.352 21.5407C155.507 22.2381 154.541 22.5868 153.455 22.5868C152.369 22.5868 151.484 22.3387 150.8 21.8425C150.129 21.3462 149.794 20.7561 149.794 20.0721C149.794 19.6027 149.955 19.1534 150.276 18.7242C150.585 18.2951 151.048 17.9329 151.665 17.6379L152.067 17.7586C151.665 17.9598 151.356 18.2615 151.142 18.6639C150.927 19.0796 150.82 19.5155 150.82 19.9715C150.82 20.7226 151.068 21.2792 151.564 21.6413C152.06 22.0168 152.697 22.2046 153.475 22.2046C154.266 22.2046 154.991 21.9766 155.648 21.5206C156.318 21.078 156.654 20.5415 156.654 19.9112C156.654 19.2808 156.245 18.8718 155.427 18.684L151.966 17.9195C151.577 17.8391 151.276 17.658 151.061 17.3764C150.846 17.0947 150.739 16.7527 150.739 16.3504C150.739 15.948 150.907 15.5792 151.242 15.2439C151.577 14.9086 152.04 14.7409 152.63 14.7409H154.662L154.602 15.0226H152.63C152.349 15.0226 152.121 15.1098 151.946 15.2841C151.785 15.4585 151.705 15.6664 151.705 15.9078C151.705 16.404 151.973 16.7125 152.51 16.8332ZM155.889 9.34941L155.869 9.06776C156.245 9.06776 156.56 8.98059 156.815 8.80623C157.07 8.61847 157.197 8.37706 157.197 8.082C157.197 7.78694 156.982 7.50529 156.553 7.23706C156.768 6.78106 157.023 6.55306 157.318 6.55306C157.626 6.55306 157.854 6.64023 158.002 6.81459C158.163 6.98894 158.243 7.21023 158.243 7.47847C158.243 7.94788 158.028 8.37706 157.599 8.766C157.184 9.15494 156.614 9.34941 155.889 9.34941ZM152.208 12.8298C152.208 11.8373 152.556 10.9655 153.254 10.2145C153.965 9.45 154.836 9.06776 155.869 9.06776C156.593 9.06776 157.163 9.26223 157.579 9.65118C158.008 10.0267 158.223 10.5632 158.223 11.2606C158.223 12.3872 157.861 13.2992 157.137 13.9966C156.412 14.6806 155.567 15.0226 154.602 15.0226C153.864 15.0226 153.281 14.8348 152.852 14.4593C152.422 14.0704 152.208 13.5272 152.208 12.8298ZM155.849 9.45C155.111 9.45 154.508 9.85906 154.038 10.6772C153.569 11.4819 153.334 12.1994 153.334 12.8298C153.334 13.4601 153.448 13.9228 153.676 14.2179C153.918 14.4995 154.233 14.6404 154.622 14.6404C155.212 14.6404 155.775 14.3051 156.312 13.6345C156.848 12.9639 157.116 12.1189 157.116 11.0996C157.116 10.59 156.996 10.1876 156.754 9.89259C156.526 9.59753 156.225 9.45 155.849 9.45ZM163.892 9.55059C163.382 9.55059 162.946 9.69812 162.584 9.99318C162.222 10.2882 162.041 10.6638 162.041 11.1198C162.041 11.5758 162.229 11.9915 162.604 12.3671C162.98 12.7426 163.389 13.0578 163.831 13.3126C164.274 13.554 164.683 13.8759 165.059 14.2782C165.434 14.6806 165.622 15.1098 165.622 15.5658C165.622 16.4241 165.287 17.088 164.616 17.5574C163.959 18.0134 163.161 18.2414 162.222 18.2414C161.283 18.2414 160.458 18.0201 159.747 17.5775C159.975 17.1215 160.19 16.3302 160.391 15.2036L160.733 15.264C160.639 15.8139 160.592 16.2498 160.592 16.5716C160.592 16.8801 160.74 17.1685 161.035 17.4367C161.343 17.6915 161.779 17.8189 162.343 17.8189C162.919 17.8189 163.402 17.6446 163.791 17.2959C164.193 16.9472 164.395 16.4912 164.395 15.9279C164.395 15.5658 164.214 15.2171 163.851 14.8818C163.503 14.5331 163.114 14.2447 162.685 14.0167C162.269 13.7887 161.88 13.4668 161.518 13.0511C161.169 12.6353 160.995 12.1793 160.995 11.6831C160.995 10.9454 161.283 10.3285 161.86 9.83223C162.45 9.32259 163.221 9.06776 164.173 9.06776C164.911 9.06776 165.642 9.24882 166.366 9.61094C166.299 9.75847 166.185 10.0938 166.024 10.6168C165.877 11.1399 165.763 11.6361 165.682 12.1055L165.34 12.0452C165.421 11.616 165.461 11.2069 165.461 10.818C165.461 10.4156 165.327 10.1072 165.059 9.89259C164.804 9.66459 164.415 9.55059 163.892 9.55059ZM181.996 12.87H174.11V11.8038H181.996V12.87ZM181.996 16.29H174.11V15.2238H181.996V16.29Z" fill="#6082FA"/>
<path opacity="0.86" d="M191.877 5.32588H197.932C198.952 5.32588 199.676 5.26553 200.105 5.14482C199.904 5.61423 199.662 6.47929 199.381 7.74L199.18 8.68553H198.737L198.998 6.13059C198.998 5.90259 198.851 5.78859 198.556 5.78859H194.311L193.124 11.3813H197.188C197.322 11.3679 197.416 11.274 197.47 11.0996L197.872 9.85235H198.214L197.429 13.4735H197.087L197.268 12.2262C197.268 12.0385 197.195 11.9446 197.047 11.9446H193.024L191.837 17.5373H196.283C196.604 17.5373 196.812 17.3898 196.906 17.0947L197.751 14.6404H198.194L197.993 15.5859C197.738 16.7795 197.61 17.6446 197.61 18.1811C197.221 18.0604 196.531 18 195.538 18H189.201L189.262 17.6379H190.187C190.361 17.6379 190.469 17.5373 190.509 17.3361C192.118 9.71824 192.923 5.87576 192.923 5.80871C192.923 5.72823 192.849 5.688 192.702 5.688H191.816L191.877 5.32588ZM209.319 10.8985C209.319 11.4752 208.99 12.5347 208.333 14.0771C207.689 15.6194 207.367 16.6052 207.367 17.0344C207.367 17.4635 207.535 17.6781 207.87 17.6781C208.125 17.6781 208.4 17.5105 208.695 17.1752C208.99 16.8265 209.245 16.3369 209.459 15.7066L209.781 15.7871C209.205 17.4233 208.454 18.2414 207.528 18.2414C206.697 18.2414 206.281 17.7854 206.281 16.8734C206.281 16.4845 206.583 15.5188 207.186 13.9765C207.803 12.4341 208.112 11.4416 208.112 10.9991C208.112 10.1541 207.803 9.73165 207.186 9.73165C206.516 9.73165 205.791 10.2748 205.013 11.3612C204.115 12.6621 203.317 14.8751 202.619 18L201.211 18.1207L203.183 9.99318L201.895 10.0938L201.875 9.75176C202.801 9.63106 203.666 9.46341 204.47 9.24882L204.752 9.45C204.108 10.9253 203.545 12.6219 203.062 14.5398H203.223L203.545 13.6546C204.269 11.6294 205.054 10.3151 205.899 9.71153C206.301 9.44329 206.63 9.26894 206.884 9.18847C207.153 9.108 207.481 9.06776 207.87 9.06776C208.273 9.06776 208.615 9.22871 208.896 9.55059C209.178 9.87247 209.319 10.3218 209.319 10.8985ZM216.379 9.55059C215.829 9.55059 215.319 9.75847 214.85 10.1742C214.394 10.59 214.031 11.1064 213.763 11.7233C213.227 13.0242 212.959 14.1508 212.959 15.1031C212.959 16.8734 213.495 17.7586 214.568 17.7586C215.896 17.7586 216.868 17.0344 217.485 15.5859L217.807 15.6664C217.485 16.4845 217.016 17.1215 216.399 17.5775C215.795 18.0201 215.111 18.2414 214.347 18.2414C213.582 18.2414 212.938 17.9598 212.415 17.3965C211.892 16.8332 211.631 16.0754 211.631 15.1232C211.631 14.1709 211.812 13.2522 212.174 12.3671C212.536 11.4685 213.099 10.6973 213.864 10.0535C214.628 9.39635 215.5 9.06776 216.479 9.06776C217.15 9.06776 217.653 9.24212 217.988 9.59082C218.337 9.92612 218.511 10.3352 218.511 10.818C218.511 11.2874 218.424 11.7099 218.249 12.0854C218.089 12.4609 217.827 12.6487 217.465 12.6487C217.116 12.6487 216.855 12.5414 216.68 12.3268C217.069 11.7367 217.264 11.16 217.264 10.5967C217.264 9.89929 216.969 9.55059 216.379 9.55059Z" fill="#6082FA"/>
<path opacity="0.86" d="M222.755 11.7384C223.274 11.5059 223.824 11.3896 224.405 11.3896C225.29 11.3896 225.988 11.6579 226.497 12.1944C227.016 12.7219 227.275 13.4685 227.275 14.4341C227.275 15.0868 227.168 15.7485 226.953 16.4191C226.739 17.0807 226.439 17.6932 226.055 18.2565C225.67 18.8198 225.169 19.2802 224.552 19.6379C223.936 19.9866 223.225 20.1609 222.42 20.1609C221.615 20.1609 220.954 19.8927 220.435 19.3562C219.925 18.8198 219.671 18.0419 219.671 17.0226C219.671 16.0033 219.948 14.9751 220.502 13.9379C221.065 12.9007 221.816 12.1675 222.755 11.7384ZM225.786 12.4224C225.429 11.9664 224.955 11.7384 224.365 11.7384C223.775 11.7384 223.229 11.9306 222.728 12.3151C222.228 12.6906 221.83 13.1689 221.535 13.7501C220.918 14.9482 220.609 16.1106 220.609 17.2372C220.609 18.0508 220.784 18.6856 221.132 19.1416C221.49 19.5887 221.964 19.8122 222.554 19.8122C223.153 19.8122 223.703 19.6245 224.204 19.2489C224.704 18.8645 225.107 18.3861 225.411 17.8139C226.028 16.6247 226.336 15.4624 226.336 14.3268C226.336 13.5132 226.153 12.8784 225.786 12.4224ZM228.374 14.6889L228.441 14.4341H231.821L231.754 14.6889H228.374ZM230.654 13.6831L229.393 19.5708C229.134 20.7511 228.817 21.6273 228.441 22.1995C228.066 22.7718 227.61 23.0579 227.073 23.0579C226.733 23.0579 226.47 22.9551 226.282 22.7494C226.094 22.5438 226 22.3113 226 22.052C226 21.8016 226.054 21.5736 226.161 21.368C226.26 21.1713 226.421 21.0729 226.644 21.0729C226.868 21.0729 227.029 21.1311 227.127 21.2473C227.011 21.3367 226.917 21.4708 226.845 21.6496C226.765 21.8285 226.725 22.0028 226.725 22.1727C226.725 22.5572 226.885 22.7494 227.207 22.7494C227.565 22.7494 227.838 22.4722 228.025 21.9179C228.213 21.3635 228.473 20.2504 228.803 18.5784L229.581 14.6085C229.769 13.6607 230.1 12.8471 230.574 12.1675C231.048 11.488 231.597 11.1482 232.223 11.1482C232.67 11.1482 233.006 11.2511 233.229 11.4567C233.462 11.6624 233.578 11.9038 233.578 12.1809C233.578 12.4581 233.52 12.7085 233.404 12.932C233.296 13.1555 233.122 13.2673 232.881 13.2673C232.639 13.2673 232.465 13.2047 232.357 13.0795C232.617 12.7487 232.746 12.4134 232.746 12.0736C232.746 11.6624 232.55 11.4567 232.156 11.4567C231.772 11.4567 231.463 11.6534 231.231 12.0468C230.998 12.4313 230.806 12.9767 230.654 13.6831ZM232.532 14.6889L232.599 14.4341H235.979L235.912 14.6889H232.532ZM234.812 13.6831L233.552 19.5708C233.292 20.7511 232.975 21.6273 232.599 22.1995C232.224 22.7718 231.768 23.0579 231.231 23.0579C230.892 23.0579 230.628 22.9551 230.44 22.7494C230.252 22.5438 230.158 22.3113 230.158 22.052C230.158 21.8016 230.212 21.5736 230.319 21.368C230.418 21.1713 230.579 21.0729 230.802 21.0729C231.026 21.0729 231.187 21.1311 231.285 21.2473C231.169 21.3367 231.075 21.4708 231.003 21.6496C230.923 21.8285 230.883 22.0028 230.883 22.1727C230.883 22.5572 231.044 22.7494 231.366 22.7494C231.723 22.7494 231.996 22.4722 232.184 21.9179C232.371 21.3635 232.631 20.2504 232.962 18.5784L233.739 14.6085C233.927 13.6607 234.258 12.8471 234.732 12.1675C235.206 11.488 235.756 11.1482 236.382 11.1482C236.829 11.1482 237.164 11.2511 237.387 11.4567C237.62 11.6624 237.736 11.9038 237.736 12.1809C237.736 12.4581 237.678 12.7085 237.562 12.932C237.454 13.1555 237.28 13.2673 237.039 13.2673C236.797 13.2673 236.623 13.2047 236.516 13.0795C236.775 12.7487 236.905 12.4134 236.905 12.0736C236.905 11.6624 236.708 11.4567 236.314 11.4567C235.93 11.4567 235.622 11.6534 235.389 12.0468C235.157 12.4313 234.964 12.9767 234.812 13.6831ZM239.762 14.0452C240.236 14.0452 240.589 14.1614 240.821 14.3939C241.063 14.6174 241.183 14.9438 241.183 15.3729C241.183 15.7932 241.018 16.1598 240.687 16.4727C240.124 17.0092 239.288 17.2774 238.179 17.2774C237.848 17.2774 237.562 17.2506 237.321 17.1969V16.9421C237.634 16.9868 237.893 17.0092 238.099 17.0092C238.841 17.0092 239.413 16.8214 239.815 16.4459C240.227 16.0704 240.432 15.6591 240.432 15.212C240.432 14.9706 240.365 14.7694 240.231 14.6085C240.106 14.4475 239.891 14.3671 239.587 14.3671C239.292 14.3671 238.988 14.5056 238.675 14.7828C238.371 15.06 238.13 15.4042 237.951 15.8155C237.594 16.6828 237.415 17.4339 237.415 18.0687C237.415 19.2489 237.772 19.8391 238.488 19.8391C239.373 19.8391 240.021 19.3562 240.432 18.3906L240.647 18.4442C240.432 18.9896 240.119 19.4144 239.708 19.7184C239.306 20.0134 238.85 20.1609 238.34 20.1609C237.831 20.1609 237.401 19.9732 237.053 19.5976C236.704 19.2221 236.53 18.7169 236.53 18.0821C236.53 17.4473 236.65 16.8348 236.892 16.2447C237.133 15.6456 237.509 15.1315 238.018 14.7024C238.528 14.2642 239.109 14.0452 239.762 14.0452ZM244.368 14.1659L244.556 14.3C244.127 15.2835 243.751 16.4146 243.429 17.6932H243.537L243.751 17.1031C244.172 15.9586 244.587 15.1628 244.999 14.7158C245.41 14.2687 245.768 14.0452 246.072 14.0452C246.376 14.0452 246.599 14.1435 246.742 14.3402C246.894 14.5369 246.97 14.7918 246.97 15.1047C246.97 15.4176 246.912 15.6904 246.796 15.9228C246.68 16.1553 246.51 16.2715 246.286 16.2715C246.072 16.2715 245.893 16.2 245.75 16.0569C245.839 15.9407 245.924 15.7708 246.004 15.5473C246.085 15.3238 246.125 15.1271 246.125 14.9572C246.125 14.6979 246.018 14.5682 245.803 14.5682C245.58 14.5682 245.303 14.7873 244.972 15.2254C244.248 16.1732 243.635 17.7647 243.134 20L242.196 20.0805L243.51 14.6621L242.652 14.7292L242.638 14.5012C243.255 14.4207 243.832 14.3089 244.368 14.1659ZM247.615 19.9598C247.481 19.8167 247.414 19.6468 247.414 19.4501C247.414 19.2534 247.481 19.088 247.615 18.9539C247.758 18.8108 247.928 18.7393 248.125 18.7393C248.322 18.7393 248.487 18.8108 248.621 18.9539C248.764 19.088 248.836 19.2534 248.836 19.4501C248.836 19.6468 248.764 19.8167 248.621 19.9598C248.487 20.0939 248.322 20.1609 248.125 20.1609C247.928 20.1609 247.758 20.0939 247.615 19.9598ZM255.654 14.3C255.341 15.2299 255.046 16.2268 254.769 17.2908C254.492 18.3548 254.353 19.0388 254.353 19.3428C254.353 19.6379 254.465 19.7854 254.688 19.7854C254.858 19.7854 255.041 19.6736 255.238 19.4501C255.435 19.2176 255.605 18.8913 255.748 18.4711L255.962 18.5247C255.578 19.6155 255.077 20.1609 254.46 20.1609C253.906 20.1609 253.629 19.8256 253.629 19.1551C253.629 19.0209 253.651 18.8064 253.696 18.5113H253.629C253.074 19.6111 252.431 20.1609 251.697 20.1609C251.277 20.1609 250.924 19.9776 250.638 19.6111C250.361 19.2355 250.222 18.7795 250.222 18.2431C250.222 17.6976 250.294 17.1925 250.437 16.7275C250.58 16.2626 250.781 15.8289 251.04 15.4266C251.3 15.0153 251.644 14.6845 252.073 14.4341C252.502 14.1748 252.972 14.0452 253.481 14.0452C254.143 14.0452 254.666 14.3268 255.05 14.8901L255.466 14.1659L255.654 14.3ZM252.019 19.7586C252.395 19.7586 252.775 19.468 253.159 18.8868C253.597 18.2162 254.004 17.1209 254.38 15.6009C254.46 15.2433 254.523 14.984 254.568 14.8231C254.255 14.5191 253.893 14.3671 253.481 14.3671C253.079 14.3671 252.717 14.5056 252.395 14.7828C252.082 15.06 251.836 15.4087 251.657 15.8289C251.291 16.6873 251.107 17.4965 251.107 18.2565C251.107 18.7572 251.188 19.1327 251.349 19.3831C251.519 19.6334 251.742 19.7586 252.019 19.7586ZM259.436 14.1659L259.624 14.3C259.195 15.2835 258.819 16.4146 258.497 17.6932H258.605L258.819 17.1031C259.239 15.9586 259.655 15.1628 260.066 14.7158C260.478 14.2687 260.835 14.0452 261.139 14.0452C261.443 14.0452 261.667 14.1435 261.81 14.3402C261.962 14.5369 262.038 14.7918 262.038 15.1047C262.038 15.4176 261.98 15.6904 261.864 15.9228C261.747 16.1553 261.577 16.2715 261.354 16.2715C261.139 16.2715 260.961 16.2 260.817 16.0569C260.907 15.9407 260.992 15.7708 261.072 15.5473C261.153 15.3238 261.193 15.1271 261.193 14.9572C261.193 14.6979 261.086 14.5682 260.871 14.5682C260.648 14.5682 260.37 14.7873 260.04 15.2254C259.315 16.1732 258.703 17.7647 258.202 20L257.263 20.0805L258.578 14.6621L257.719 14.7292L257.706 14.5012C258.323 14.4207 258.9 14.3089 259.436 14.1659ZM263.394 19.2221L265.526 19.7049C265.991 19.8122 266.322 19.9553 266.519 20.1341C266.715 20.3219 266.814 20.5767 266.814 20.8986C266.814 21.4172 266.528 21.9045 265.955 22.3605C265.392 22.8254 264.748 23.0579 264.024 23.0579C263.3 23.0579 262.71 22.8925 262.254 22.5616C261.807 22.2308 261.583 21.8374 261.583 21.3814C261.583 21.0685 261.69 20.7689 261.905 20.4828C262.111 20.1967 262.419 19.9553 262.83 19.7586L263.099 19.8391C262.83 19.9732 262.625 20.1744 262.482 20.4426C262.339 20.7198 262.267 21.0104 262.267 21.3144C262.267 21.8151 262.433 22.1861 262.763 22.4275C263.094 22.6779 263.519 22.8031 264.038 22.8031C264.565 22.8031 265.048 22.6511 265.486 22.3471C265.933 22.052 266.157 21.6944 266.157 21.2741C266.157 20.8539 265.884 20.5812 265.338 20.456L263.032 19.9464C262.772 19.8927 262.571 19.772 262.428 19.5842C262.285 19.3965 262.214 19.1685 262.214 18.9002C262.214 18.632 262.325 18.3861 262.549 18.1626C262.772 17.9391 263.081 17.8273 263.474 17.8273H264.829L264.789 18.0151H263.474C263.286 18.0151 263.134 18.0732 263.018 18.1894C262.911 18.3056 262.857 18.4442 262.857 18.6052C262.857 18.936 263.036 19.1416 263.394 19.2221ZM265.647 14.2329L265.634 14.0452C265.884 14.0452 266.094 13.9871 266.264 13.8708C266.434 13.7456 266.519 13.5847 266.519 13.388C266.519 13.1913 266.376 13.0035 266.09 12.8247C266.233 12.5207 266.402 12.3687 266.599 12.3687C266.805 12.3687 266.957 12.4268 267.055 12.5431C267.162 12.6593 267.216 12.8068 267.216 12.9856C267.216 13.2986 267.073 13.5847 266.787 13.844C266.51 14.1033 266.13 14.2329 265.647 14.2329ZM263.193 16.5532C263.193 15.8915 263.425 15.3104 263.89 14.8096C264.364 14.3 264.945 14.0452 265.634 14.0452C266.116 14.0452 266.496 14.1748 266.774 14.4341C267.06 14.6845 267.203 15.0421 267.203 15.5071C267.203 16.2581 266.961 16.8661 266.478 17.3311C265.996 17.7871 265.432 18.0151 264.789 18.0151C264.297 18.0151 263.908 17.8899 263.622 17.6395C263.336 17.3802 263.193 17.0181 263.193 16.5532ZM265.62 14.3C265.128 14.3 264.726 14.5727 264.413 15.1181C264.1 15.6546 263.944 16.1329 263.944 16.5532C263.944 16.9734 264.02 17.2819 264.172 17.4786C264.333 17.6664 264.543 17.7602 264.802 17.7602C265.195 17.7602 265.571 17.5367 265.929 17.0896C266.286 16.6426 266.465 16.0793 266.465 15.3998C266.465 15.06 266.385 14.7918 266.224 14.5951C266.072 14.3984 265.87 14.3 265.62 14.3ZM270.982 14.3671C270.642 14.3671 270.352 14.4654 270.11 14.6621C269.869 14.8588 269.748 15.1092 269.748 15.4132C269.748 15.7172 269.873 15.9944 270.124 16.2447C270.374 16.4951 270.647 16.7052 270.942 16.8751C271.237 17.036 271.509 17.2506 271.76 17.5188C272.01 17.7871 272.135 18.0732 272.135 18.3772C272.135 18.9494 271.912 19.392 271.465 19.7049C271.027 20.0089 270.495 20.1609 269.869 20.1609C269.243 20.1609 268.693 20.0134 268.219 19.7184C268.371 19.4144 268.514 18.8868 268.648 18.1358L268.876 18.176C268.814 18.5426 268.782 18.8332 268.782 19.0478C268.782 19.2534 268.881 19.4456 269.077 19.6245C269.283 19.7944 269.574 19.8793 269.949 19.8793C270.334 19.8793 270.656 19.7631 270.915 19.5306C271.183 19.2981 271.317 18.9941 271.317 18.6186C271.317 18.3772 271.196 18.1447 270.955 17.9212C270.723 17.6887 270.463 17.4965 270.177 17.3445C269.9 17.1925 269.641 16.9779 269.399 16.7007C269.167 16.4235 269.051 16.1195 269.051 15.7887C269.051 15.2969 269.243 14.8856 269.627 14.5548C270.021 14.2151 270.535 14.0452 271.17 14.0452C271.661 14.0452 272.149 14.1659 272.632 14.4073C272.587 14.5056 272.511 14.7292 272.404 15.0779C272.305 15.4266 272.229 15.7574 272.176 16.0704L271.948 16.0301C272.001 15.744 272.028 15.4713 272.028 15.212C272.028 14.9438 271.939 14.7381 271.76 14.5951C271.59 14.4431 271.331 14.3671 270.982 14.3671ZM277.07 16.6336H275.755C275.344 18.5292 275.138 19.5261 275.138 19.6245C275.138 19.7139 275.187 19.7586 275.286 19.7586H276.265L276.225 20H273.368L273.408 19.7586H274.025C274.141 19.7586 274.213 19.6915 274.24 19.5574C275.313 14.4788 275.849 11.9172 275.849 11.8725C275.849 11.8188 275.8 11.792 275.702 11.792H275.111L275.152 11.5506H278.143C278.751 11.5506 279.251 11.7205 279.645 12.0602C280.038 12.4 280.235 12.8694 280.235 13.4685C280.235 14.4162 279.908 15.1807 279.256 15.7619C278.603 16.3431 277.874 16.6336 277.07 16.6336ZM277.995 11.8591H276.775L275.822 16.3252H277.083C277.727 16.3252 278.263 16.0122 278.692 15.3864C279.131 14.7605 279.35 14.1033 279.35 13.4148C279.35 12.9678 279.233 12.5967 279.001 12.3016C278.777 12.0066 278.442 11.8591 277.995 11.8591ZM284.274 19.1551C284.274 19.0209 284.297 18.8064 284.341 18.5113H284.274C283.702 19.6111 283.04 20.1609 282.289 20.1609C281.485 20.1609 281.082 19.7139 281.082 18.8198C281.082 18.2386 281.288 17.1612 281.699 15.5875L281.941 14.6621L281.082 14.7292L281.069 14.5012C281.686 14.4207 282.262 14.3089 282.799 14.1659L282.987 14.3C282.236 16.6336 281.86 18.1268 281.86 18.7795C281.86 19.4322 282.106 19.7586 282.598 19.7586C283.009 19.7586 283.411 19.4591 283.805 18.86C284.207 18.252 284.538 17.4384 284.797 16.4191L285.253 14.6621L284.395 14.7292L284.382 14.5012C284.998 14.4207 285.575 14.3089 286.112 14.1659L286.299 14.3C285.986 15.2299 285.691 16.2268 285.414 17.2908C285.137 18.3548 284.998 19.0388 284.998 19.3428C284.998 19.6379 285.11 19.7854 285.334 19.7854C285.504 19.7854 285.687 19.6736 285.884 19.4501C286.08 19.2176 286.25 18.8913 286.393 18.4711L286.608 18.5247C286.223 19.6155 285.723 20.1609 285.106 20.1609C284.551 20.1609 284.274 19.8256 284.274 19.1551ZM289.03 17.6932H289.137L289.352 17.1031C290.103 15.0645 290.926 14.0452 291.82 14.0452C292.24 14.0452 292.589 14.2329 292.866 14.6085C293.152 14.9751 293.295 15.4311 293.295 15.9765C293.295 16.5129 293.223 17.0136 293.08 17.4786C292.937 17.9435 292.736 18.3816 292.477 18.7929C292.218 19.1953 291.873 19.5261 291.444 19.7854C291.015 20.0358 290.577 20.1609 290.13 20.1609C289.683 20.1609 289.298 20.076 288.976 19.9061C288.655 19.7273 288.404 19.4948 288.225 19.2087L288.346 18.8466C288.775 19.5261 289.325 19.8659 289.996 19.8659C290.505 19.8659 290.948 19.6334 291.323 19.1685C291.699 18.6946 291.963 18.176 292.115 17.6127C292.276 17.0405 292.356 16.5174 292.356 16.0435C292.356 15.5607 292.276 15.1941 292.115 14.9438C291.963 14.6845 291.784 14.5548 291.578 14.5548C291.373 14.5548 291.167 14.6442 290.961 14.8231C290.756 14.9929 290.532 15.2612 290.291 15.6278C289.772 16.4325 289.285 17.7513 288.829 19.5842L288.427 19.1551L288.024 20.1609L287.796 20.0805L289.902 11.6847L289.043 11.7518L289.03 11.5238C289.647 11.4433 290.224 11.3315 290.76 11.1885L290.948 11.3226C290.224 13.4327 289.584 15.5562 289.03 17.6932ZM295.358 19.3428C295.358 19.6379 295.469 19.7854 295.693 19.7854C295.863 19.7854 296.046 19.6736 296.243 19.4501C296.44 19.2176 296.609 18.8913 296.753 18.4711L296.967 18.5247C296.583 19.6155 296.082 20.1609 295.465 20.1609C294.911 20.1609 294.633 19.8122 294.633 19.1148C294.633 18.4085 295.219 15.9318 296.39 11.6847L295.532 11.7518L295.519 11.5238C296.136 11.4433 296.712 11.3315 297.249 11.1885L297.437 11.3226C297.061 12.4224 296.618 13.9155 296.109 15.8021C295.608 17.6798 295.358 18.86 295.358 19.3428ZM300.114 12.704C299.998 12.5878 299.939 12.4447 299.939 12.2748C299.939 12.1049 299.998 11.9619 300.114 11.8456C300.23 11.7294 300.373 11.6713 300.543 11.6713C300.713 11.6713 300.856 11.7294 300.972 11.8456C301.088 11.9619 301.147 12.1049 301.147 12.2748C301.147 12.4447 301.088 12.5878 300.972 12.704C300.856 12.8202 300.713 12.8784 300.543 12.8784C300.373 12.8784 300.23 12.8202 300.114 12.704ZM298.598 19.1551C298.598 18.6812 298.925 17.1835 299.577 14.6621L298.719 14.7292L298.706 14.5012C299.323 14.4207 299.899 14.3089 300.436 14.1659L300.623 14.3C300.311 15.2299 300.015 16.2268 299.738 17.2908C299.461 18.3548 299.323 19.0388 299.323 19.3428C299.323 19.6379 299.434 19.7854 299.658 19.7854C299.828 19.7854 300.011 19.6736 300.208 19.4501C300.404 19.2176 300.574 18.8913 300.717 18.4711L300.932 18.5247C300.547 19.6155 300.047 20.1609 299.43 20.1609C298.875 20.1609 298.598 19.8256 298.598 19.1551ZM305.336 14.3671C304.969 14.3671 304.63 14.5056 304.317 14.7828C304.013 15.06 303.771 15.4042 303.592 15.8155C303.235 16.6828 303.056 17.4339 303.056 18.0687C303.056 19.2489 303.414 19.8391 304.129 19.8391C305.014 19.8391 305.662 19.3562 306.074 18.3906L306.288 18.4442C306.074 18.9896 305.761 19.4144 305.349 19.7184C304.947 20.0134 304.491 20.1609 303.981 20.1609C303.472 20.1609 303.043 19.9732 302.694 19.5976C302.345 19.2221 302.171 18.7169 302.171 18.0821C302.171 17.4473 302.291 16.8348 302.533 16.2447C302.774 15.6456 303.15 15.1315 303.659 14.7024C304.169 14.2642 304.75 14.0452 305.403 14.0452C305.85 14.0452 306.185 14.1614 306.409 14.3939C306.641 14.6174 306.758 14.8901 306.758 15.212C306.758 15.5249 306.699 15.8066 306.583 16.0569C306.476 16.3073 306.302 16.4325 306.06 16.4325C305.828 16.4325 305.653 16.3609 305.537 16.2179C305.796 15.8245 305.926 15.44 305.926 15.0645C305.926 14.5995 305.729 14.3671 305.336 14.3671ZM310.747 11.9798L309.138 19.6245C309.138 19.7139 309.187 19.7586 309.285 19.7586H309.875L309.835 20H307.367L307.408 19.7586H308.024C308.141 19.7586 308.212 19.6915 308.239 19.5574C309.312 14.4788 309.848 11.9172 309.848 11.8725C309.848 11.8188 309.799 11.792 309.701 11.792H309.111L309.151 11.5506H311.619L311.579 11.792H310.975C310.859 11.792 310.783 11.8546 310.747 11.9798ZM312.665 17.6529L312.692 18.8868C312.71 19.4412 312.857 19.7184 313.134 19.7184C313.313 19.7184 313.461 19.6245 313.577 19.4367C313.702 19.2489 313.765 19.0075 313.765 18.7125L314.02 18.6722C314.02 19.1282 313.899 19.4904 313.657 19.7586C313.425 20.0268 313.13 20.1609 312.772 20.1609C312.137 20.1609 311.802 19.6826 311.766 18.7259L311.713 17.4115C311.686 16.8304 311.565 16.428 311.351 16.2045C311.136 15.972 310.783 15.8558 310.291 15.8558L310.358 15.6412L314.18 11.792H313.55L313.59 11.5506H315.32L315.28 11.792H314.932C314.788 11.792 314.659 11.8546 314.543 11.9798L310.908 15.6144C311.552 15.6233 311.999 15.8111 312.249 16.1776C312.508 16.5442 312.647 17.036 312.665 17.6529ZM318.893 14.0452C319.367 14.0452 319.72 14.1614 319.952 14.3939C320.194 14.6174 320.314 14.9438 320.314 15.3729C320.314 15.7932 320.149 16.1598 319.818 16.4727C319.255 17.0092 318.419 17.2774 317.31 17.2774C316.979 17.2774 316.693 17.2506 316.452 17.1969V16.9421C316.765 16.9868 317.024 17.0092 317.23 17.0092C317.972 17.0092 318.544 16.8214 318.946 16.4459C319.358 16.0704 319.563 15.6591 319.563 15.212C319.563 14.9706 319.496 14.7694 319.362 14.6085C319.237 14.4475 319.022 14.3671 318.718 14.3671C318.423 14.3671 318.119 14.5056 317.806 14.7828C317.502 15.06 317.261 15.4042 317.082 15.8155C316.725 16.6828 316.546 17.4339 316.546 18.0687C316.546 19.2489 316.903 19.8391 317.619 19.8391C318.504 19.8391 319.152 19.3562 319.563 18.3906L319.778 18.4442C319.563 18.9896 319.25 19.4144 318.839 19.7184C318.437 20.0134 317.981 20.1609 317.471 20.1609C316.962 20.1609 316.532 19.9732 316.184 19.5976C315.835 19.2221 315.661 18.7169 315.661 18.0821C315.661 17.4473 315.781 16.8348 316.023 16.2447C316.264 15.6456 316.64 15.1315 317.149 14.7024C317.659 14.2642 318.24 14.0452 318.893 14.0452ZM323.405 19.7184C323.978 19.7184 324.545 19.3026 325.109 18.4711C325.681 17.6306 325.967 16.8482 325.967 16.124C325.967 15.3908 325.735 14.7918 325.27 14.3268C325.493 14.1391 325.699 14.0452 325.887 14.0452C326.235 14.0452 326.41 14.5369 326.41 15.5205C326.41 16.504 326.302 17.4071 326.088 18.2296C325.873 19.0433 325.591 19.7362 325.243 20.3085C324.903 20.8807 324.514 21.3769 324.076 21.7972C323.227 22.6376 322.364 23.0579 321.487 23.0579C321.04 23.0579 320.705 22.9551 320.482 22.7494C320.249 22.5438 320.133 22.3024 320.133 22.0252C320.133 21.748 320.191 21.4976 320.307 21.2741C320.415 21.0506 320.58 20.9388 320.803 20.9388C321.027 20.9388 321.21 21.0014 321.353 21.1266C321.094 21.4574 320.964 21.7614 320.964 22.0386C320.964 22.4856 321.201 22.7092 321.675 22.7092C321.988 22.7092 322.35 22.5929 322.762 22.3605C323.173 22.1369 323.589 21.8151 324.009 21.3948C324.429 20.9835 324.814 20.4292 325.162 19.7318C325.52 19.0344 325.77 18.2788 325.913 17.4652C325.618 18.2431 325.22 18.8868 324.72 19.3965C324.228 19.9061 323.66 20.1609 323.016 20.1609C322.686 20.1609 322.417 20.0492 322.212 19.8256C322.015 19.5932 321.917 19.2802 321.917 18.8868C321.917 18.4934 322.064 17.8049 322.359 16.8214C322.663 15.8379 322.815 15.1941 322.815 14.8901C322.815 14.5772 322.699 14.4207 322.467 14.4207C322.297 14.4207 322.118 14.5369 321.93 14.7694C321.742 14.9929 321.59 15.3148 321.474 15.7351L321.246 15.6814C321.577 14.5906 322.055 14.0452 322.681 14.0452C323.262 14.0452 323.553 14.3581 323.553 14.984C323.553 15.2344 323.414 15.8558 323.137 16.8482C322.86 17.8407 322.721 18.4934 322.721 18.8064C322.721 19.4144 322.949 19.7184 323.405 19.7184ZM332.159 19.7586L331.797 17.1701H328.833L327.384 19.7586H328.216L328.176 20H326.244L326.298 19.7586H326.767C326.893 19.7586 326.986 19.696 327.049 19.5708L331.555 11.5506H331.985L333.084 19.5708C333.102 19.696 333.169 19.7586 333.286 19.7586H333.755L333.715 20H331.287L331.327 19.7586H332.159ZM331.22 12.9186L329.034 16.7946H331.743L331.22 12.9186ZM335.951 19.3428C335.951 19.6379 336.063 19.7854 336.287 19.7854C336.456 19.7854 336.64 19.6736 336.836 19.4501C337.033 19.2176 337.203 18.8913 337.346 18.4711L337.561 18.5247C337.176 19.6155 336.676 20.1609 336.059 20.1609C335.504 20.1609 335.227 19.8122 335.227 19.1148C335.227 18.4085 335.813 15.9318 336.984 11.6847L336.126 11.7518L336.112 11.5238C336.729 11.4433 337.306 11.3315 337.842 11.1885L338.03 11.3226C337.655 12.4224 337.212 13.9155 336.702 15.8021C336.202 17.6798 335.951 18.86 335.951 19.3428ZM339.742 19.2221L341.874 19.7049C342.339 19.8122 342.67 19.9553 342.867 20.1341C343.063 20.3219 343.162 20.5767 343.162 20.8986C343.162 21.4172 342.876 21.9045 342.303 22.3605C341.74 22.8254 341.096 23.0579 340.372 23.0579C339.648 23.0579 339.058 22.8925 338.602 22.5616C338.155 22.2308 337.931 21.8374 337.931 21.3814C337.931 21.0685 338.039 20.7689 338.253 20.4828C338.459 20.1967 338.767 19.9553 339.179 19.7586L339.447 19.8391C339.179 19.9732 338.973 20.1744 338.83 20.4426C338.687 20.7198 338.615 21.0104 338.615 21.3144C338.615 21.8151 338.781 22.1861 339.111 22.4275C339.442 22.6779 339.867 22.8031 340.386 22.8031C340.913 22.8031 341.396 22.6511 341.834 22.3471C342.281 22.052 342.505 21.6944 342.505 21.2741C342.505 20.8539 342.232 20.5812 341.687 20.456L339.38 19.9464C339.12 19.8927 338.919 19.772 338.776 19.5842C338.633 19.3965 338.562 19.1685 338.562 18.9002C338.562 18.632 338.673 18.3861 338.897 18.1626C339.12 17.9391 339.429 17.8273 339.822 17.8273H341.177L341.137 18.0151H339.822C339.635 18.0151 339.483 18.0732 339.366 18.1894C339.259 18.3056 339.205 18.4442 339.205 18.6052C339.205 18.936 339.384 19.1416 339.742 19.2221ZM341.995 14.2329L341.982 14.0452C342.232 14.0452 342.442 13.9871 342.612 13.8708C342.782 13.7456 342.867 13.5847 342.867 13.388C342.867 13.1913 342.724 13.0035 342.438 12.8247C342.581 12.5207 342.751 12.3687 342.947 12.3687C343.153 12.3687 343.305 12.4268 343.403 12.5431C343.511 12.6593 343.564 12.8068 343.564 12.9856C343.564 13.2986 343.421 13.5847 343.135 13.844C342.858 14.1033 342.478 14.2329 341.995 14.2329ZM339.541 16.5532C339.541 15.8915 339.773 15.3104 340.238 14.8096C340.712 14.3 341.293 14.0452 341.982 14.0452C342.464 14.0452 342.844 14.1748 343.122 14.4341C343.408 14.6845 343.551 15.0421 343.551 15.5071C343.551 16.2581 343.309 16.8661 342.827 17.3311C342.344 17.7871 341.78 18.0151 341.137 18.0151C340.645 18.0151 340.256 17.8899 339.97 17.6395C339.684 17.3802 339.541 17.0181 339.541 16.5532ZM341.968 14.3C341.476 14.3 341.074 14.5727 340.761 15.1181C340.448 15.6546 340.292 16.1329 340.292 16.5532C340.292 16.9734 340.368 17.2819 340.52 17.4786C340.681 17.6664 340.891 17.7602 341.15 17.7602C341.543 17.7602 341.919 17.5367 342.277 17.0896C342.634 16.6426 342.813 16.0793 342.813 15.3998C342.813 15.06 342.733 14.7918 342.572 14.5951C342.42 14.3984 342.219 14.3 341.968 14.3ZM344.768 18.0553C344.768 17.1344 345.037 16.2536 345.573 15.4132C345.832 15.0108 346.172 14.6845 346.592 14.4341C347.013 14.1748 347.491 14.0452 348.027 14.0452C348.573 14.0452 349.015 14.2285 349.355 14.5951C349.695 14.9616 349.865 15.4624 349.865 16.0972C349.865 16.732 349.749 17.3489 349.516 17.948C349.284 18.5471 348.917 19.0656 348.416 19.5038C347.916 19.9419 347.352 20.1609 346.726 20.1609C346.101 20.1609 345.618 19.9776 345.278 19.6111C344.938 19.2445 344.768 18.7259 344.768 18.0553ZM347.92 14.3402C347.437 14.3402 347.008 14.5816 346.633 15.0645C346.266 15.5473 346.002 16.0748 345.841 16.6471C345.689 17.2193 345.613 17.7558 345.613 18.2565C345.613 18.7482 345.712 19.1416 345.908 19.4367C346.114 19.7228 346.391 19.8659 346.74 19.8659C347.097 19.8659 347.428 19.7228 347.732 19.4367C348.045 19.1506 348.291 18.7974 348.47 18.3772C348.837 17.5188 349.02 16.7767 349.02 16.1508C349.02 15.516 348.921 15.0555 348.725 14.7694C348.528 14.4833 348.26 14.3402 347.92 14.3402Z" fill="#6082FA"/>
<path opacity="0.86" d="M356.493 6.68471C355.563 7.37318 354.839 8.33882 354.32 9.58165C353.802 10.8155 353.542 12.0941 353.542 13.4174C353.542 14.7318 353.846 15.6974 354.454 16.3144L354.267 16.5155C353.703 16.1668 353.274 15.6751 352.979 15.0402C352.693 14.4054 352.55 13.6991 352.55 12.9212C352.55 11.6426 352.899 10.3953 353.596 9.17929C354.302 7.95435 355.237 7.05576 356.399 6.48353L356.493 6.68471ZM361.904 9.3C361.591 10.2299 361.296 11.2268 361.019 12.2908C360.741 13.3548 360.603 14.0388 360.603 14.3428C360.603 14.6379 360.715 14.7854 360.938 14.7854C361.108 14.7854 361.291 14.6736 361.488 14.4501C361.685 14.2176 361.855 13.8913 361.998 13.4711L362.212 13.5247C361.828 14.6155 361.327 15.1609 360.71 15.1609C360.156 15.1609 359.879 14.8256 359.879 14.1551C359.879 14.0209 359.901 13.8064 359.946 13.5113H359.879C359.324 14.6111 358.68 15.1609 357.947 15.1609C357.527 15.1609 357.174 14.9776 356.888 14.6111C356.611 14.2355 356.472 13.7795 356.472 13.2431C356.472 12.6976 356.544 12.1925 356.687 11.7275C356.83 11.2626 357.031 10.8289 357.29 10.4266C357.549 10.0153 357.894 9.68447 358.323 9.43412C358.752 9.17482 359.221 9.04518 359.731 9.04518C360.393 9.04518 360.916 9.32682 361.3 9.89012L361.716 9.16588L361.904 9.3ZM358.269 14.7586C358.645 14.7586 359.025 14.468 359.409 13.8868C359.847 13.2162 360.254 12.1209 360.63 10.6009C360.71 10.2433 360.773 9.984 360.817 9.82306C360.504 9.51906 360.142 9.36706 359.731 9.36706C359.329 9.36706 358.967 9.50565 358.645 9.78282C358.332 10.06 358.086 10.4087 357.907 10.8289C357.54 11.6873 357.357 12.4965 357.357 13.2565C357.357 13.7572 357.438 14.1327 357.599 14.3831C357.768 14.6334 357.992 14.7586 358.269 14.7586ZM365.686 9.16588L365.874 9.3C365.444 10.2835 365.069 11.4146 364.747 12.6932H364.854L365.069 12.1031C365.489 10.9586 365.905 10.1628 366.316 9.71576C366.728 9.26871 367.085 9.04518 367.389 9.04518C367.693 9.04518 367.917 9.14353 368.06 9.34024C368.212 9.53694 368.288 9.79176 368.288 10.1047C368.288 10.4176 368.23 10.6904 368.113 10.9228C367.997 11.1553 367.827 11.2715 367.604 11.2715C367.389 11.2715 367.21 11.2 367.067 11.0569C367.157 10.9407 367.242 10.7708 367.322 10.5473C367.403 10.3238 367.443 10.1271 367.443 9.95718C367.443 9.69788 367.336 9.56824 367.121 9.56824C366.897 9.56824 366.62 9.78729 366.289 10.2254C365.565 11.1732 364.953 12.7647 364.452 15L363.513 15.0805L364.828 9.66212L363.969 9.72918L363.956 9.50118C364.573 9.42071 365.149 9.30894 365.686 9.16588ZM369.644 14.2221L371.776 14.7049C372.241 14.8122 372.572 14.9553 372.769 15.1341C372.965 15.3219 373.064 15.5767 373.064 15.8986C373.064 16.4172 372.777 16.9045 372.205 17.3605C371.642 17.8254 370.998 18.0579 370.274 18.0579C369.55 18.0579 368.96 17.8925 368.504 17.5616C368.057 17.2308 367.833 16.8374 367.833 16.3814C367.833 16.0685 367.94 15.7689 368.155 15.4828C368.361 15.1967 368.669 14.9553 369.08 14.7586L369.349 14.8391C369.08 14.9732 368.875 15.1744 368.732 15.4426C368.589 15.7198 368.517 16.0104 368.517 16.3144C368.517 16.8151 368.682 17.1861 369.013 17.4275C369.344 17.6779 369.769 17.8031 370.287 17.8031C370.815 17.8031 371.298 17.6511 371.736 17.3471C372.183 17.052 372.406 16.6944 372.406 16.2741C372.406 15.8539 372.134 15.5812 371.588 15.456L369.281 14.9464C369.022 14.8927 368.821 14.772 368.678 14.5842C368.535 14.3965 368.463 14.1685 368.463 13.9002C368.463 13.632 368.575 13.3861 368.799 13.1626C369.022 12.9391 369.331 12.8273 369.724 12.8273H371.079L371.038 13.0151H369.724C369.536 13.0151 369.384 13.0732 369.268 13.1894C369.161 13.3056 369.107 13.4442 369.107 13.6052C369.107 13.936 369.286 14.1416 369.644 14.2221ZM371.897 9.23294L371.883 9.04518C372.134 9.04518 372.344 8.98706 372.514 8.87082C372.684 8.74565 372.769 8.58471 372.769 8.388C372.769 8.19129 372.625 8.00353 372.339 7.82471C372.482 7.52071 372.652 7.36871 372.849 7.36871C373.055 7.36871 373.207 7.42682 373.305 7.54306C373.412 7.65929 373.466 7.80682 373.466 7.98565C373.466 8.29859 373.323 8.58471 373.037 8.844C372.76 9.10329 372.38 9.23294 371.897 9.23294ZM369.442 11.5532C369.442 10.8915 369.675 10.3104 370.14 9.80965C370.614 9.3 371.195 9.04518 371.883 9.04518C372.366 9.04518 372.746 9.17482 373.023 9.43412C373.309 9.68447 373.453 10.0421 373.453 10.5071C373.453 11.2581 373.211 11.8661 372.728 12.3311C372.245 12.7871 371.682 13.0151 371.038 13.0151C370.547 13.0151 370.158 12.8899 369.872 12.6395C369.585 12.3802 369.442 12.0181 369.442 11.5532ZM371.87 9.3C371.378 9.3 370.976 9.57271 370.663 10.1181C370.35 10.6546 370.193 11.1329 370.193 11.5532C370.193 11.9734 370.269 12.2819 370.421 12.4786C370.582 12.6664 370.793 12.7602 371.052 12.7602C371.445 12.7602 371.821 12.5367 372.178 12.0896C372.536 11.6426 372.715 11.0793 372.715 10.3998C372.715 10.06 372.634 9.79176 372.473 9.59506C372.321 9.39835 372.12 9.3 371.87 9.3ZM377.232 9.36706C376.892 9.36706 376.601 9.46541 376.36 9.66212C376.119 9.85882 375.998 10.1092 375.998 10.4132C375.998 10.7172 376.123 10.9944 376.373 11.2447C376.624 11.4951 376.896 11.7052 377.191 11.8751C377.487 12.036 377.759 12.2506 378.01 12.5188C378.26 12.7871 378.385 13.0732 378.385 13.3772C378.385 13.9494 378.162 14.392 377.715 14.7049C377.276 15.0089 376.744 15.1609 376.119 15.1609C375.493 15.1609 374.943 15.0134 374.469 14.7184C374.621 14.4144 374.764 13.8868 374.898 13.1358L375.126 13.176C375.063 13.5426 375.032 13.8332 375.032 14.0478C375.032 14.2534 375.131 14.4456 375.327 14.6245C375.533 14.7944 375.823 14.8793 376.199 14.8793C376.583 14.8793 376.905 14.7631 377.165 14.5306C377.433 14.2981 377.567 13.9941 377.567 13.6186C377.567 13.3772 377.446 13.1447 377.205 12.9212C376.972 12.6887 376.713 12.4965 376.427 12.3445C376.15 12.1925 375.891 11.9779 375.649 11.7007C375.417 11.4235 375.3 11.1195 375.3 10.7887C375.3 10.2969 375.493 9.88565 375.877 9.55482C376.271 9.21506 376.785 9.04518 377.419 9.04518C377.911 9.04518 378.399 9.16588 378.881 9.40729C378.837 9.50565 378.761 9.72918 378.653 10.0779C378.555 10.4266 378.479 10.7574 378.425 11.0704L378.197 11.0301C378.251 10.744 378.278 10.4713 378.278 10.212C378.278 9.94376 378.188 9.73812 378.01 9.59506C377.84 9.44306 377.58 9.36706 377.232 9.36706ZM379.551 16.4887C380.132 16.0416 380.422 15.5722 380.422 15.0805C380.422 14.8122 380.329 14.5932 380.141 14.4233C380.186 14.2176 380.288 14.0388 380.449 13.8868C380.619 13.7348 380.798 13.6588 380.986 13.6588C381.352 13.6588 381.536 13.8421 381.536 14.2087C381.536 14.5753 381.352 15.0089 380.986 15.5096C380.628 16.0193 380.186 16.4082 379.658 16.6765L379.551 16.4887ZM389.564 6.73835C390.083 6.50588 390.633 6.38965 391.214 6.38965C392.099 6.38965 392.797 6.65788 393.306 7.19435C393.825 7.72188 394.084 8.46847 394.084 9.43412C394.084 10.0868 393.977 10.7485 393.762 11.4191C393.548 12.0807 393.248 12.6932 392.864 13.2565C392.479 13.8198 391.979 14.2802 391.362 14.6379C390.745 14.9866 390.034 15.1609 389.229 15.1609C388.424 15.1609 387.763 14.8927 387.244 14.3562C386.735 13.8198 386.48 13.0419 386.48 12.0226C386.48 11.0033 386.757 9.97506 387.311 8.93788C387.875 7.90071 388.626 7.16753 389.564 6.73835ZM392.596 7.42235C392.238 6.96635 391.764 6.73835 391.174 6.73835C390.584 6.73835 390.038 6.93059 389.538 7.31506C389.037 7.69059 388.639 8.16894 388.344 8.75012C387.727 9.94824 387.419 11.1106 387.419 12.2372C387.419 13.0508 387.593 13.6856 387.942 14.1416C388.299 14.5887 388.773 14.8122 389.363 14.8122C389.962 14.8122 390.512 14.6245 391.013 14.2489C391.514 13.8645 391.916 13.3861 392.22 12.8139C392.837 11.6247 393.145 10.4624 393.145 9.32682C393.145 8.51318 392.962 7.87835 392.596 7.42235ZM395.183 9.68894L395.25 9.43412H398.63L398.563 9.68894H395.183ZM397.463 8.68306L396.203 14.5708C395.943 15.7511 395.626 16.6273 395.25 17.1995C394.875 17.7718 394.419 18.0579 393.882 18.0579C393.543 18.0579 393.279 17.9551 393.091 17.7494C392.903 17.5438 392.809 17.3113 392.809 17.052C392.809 16.8016 392.863 16.5736 392.97 16.368C393.069 16.1713 393.23 16.0729 393.453 16.0729C393.677 16.0729 393.838 16.1311 393.936 16.2473C393.82 16.3367 393.726 16.4708 393.654 16.6496C393.574 16.8285 393.534 17.0028 393.534 17.1727C393.534 17.5572 393.695 17.7494 394.017 17.7494C394.374 17.7494 394.647 17.4722 394.835 16.9179C395.022 16.3635 395.282 15.2504 395.613 13.5784L396.39 9.60847C396.578 8.66071 396.909 7.84706 397.383 7.16753C397.857 6.488 398.407 6.14824 399.033 6.14824C399.48 6.14824 399.815 6.25106 400.038 6.45671C400.271 6.66235 400.387 6.90376 400.387 7.18094C400.387 7.45812 400.329 7.70847 400.213 7.932C400.105 8.15553 399.931 8.26729 399.69 8.26729C399.448 8.26729 399.274 8.20471 399.167 8.07953C399.426 7.74871 399.556 7.41341 399.556 7.07365C399.556 6.66235 399.359 6.45671 398.965 6.45671C398.581 6.45671 398.273 6.65341 398.04 7.04682C397.808 7.43129 397.615 7.97671 397.463 8.68306ZM399.342 9.68894L399.409 9.43412H402.788L402.721 9.68894H399.342ZM401.622 8.68306L400.361 14.5708C400.102 15.7511 399.784 16.6273 399.409 17.1995C399.033 17.7718 398.577 18.0579 398.041 18.0579C397.701 18.0579 397.437 17.9551 397.249 17.7494C397.062 17.5438 396.968 17.3113 396.968 17.052C396.968 16.8016 397.021 16.5736 397.129 16.368C397.227 16.1713 397.388 16.0729 397.611 16.0729C397.835 16.0729 397.996 16.1311 398.094 16.2473C397.978 16.3367 397.884 16.4708 397.813 16.6496C397.732 16.8285 397.692 17.0028 397.692 17.1727C397.692 17.5572 397.853 17.7494 398.175 17.7494C398.532 17.7494 398.805 17.4722 398.993 16.9179C399.181 16.3635 399.44 15.2504 399.771 13.5784L400.549 9.60847C400.736 8.66071 401.067 7.84706 401.541 7.16753C402.015 6.488 402.565 6.14824 403.191 6.14824C403.638 6.14824 403.973 6.25106 404.197 6.45671C404.429 6.66235 404.545 6.90376 404.545 7.18094C404.545 7.45812 404.487 7.70847 404.371 7.932C404.264 8.15553 404.089 8.26729 403.848 8.26729C403.606 8.26729 403.432 8.20471 403.325 8.07953C403.584 7.74871 403.714 7.41341 403.714 7.07365C403.714 6.66235 403.517 6.45671 403.124 6.45671C402.739 6.45671 402.431 6.65341 402.198 7.04682C401.966 7.43129 401.774 7.97671 401.622 8.68306ZM406.571 9.04518C407.045 9.04518 407.398 9.16141 407.631 9.39388C407.872 9.61741 407.993 9.94376 407.993 10.3729C407.993 10.7932 407.827 11.1598 407.496 11.4727C406.933 12.0092 406.097 12.2774 404.988 12.2774C404.658 12.2774 404.371 12.2506 404.13 12.1969V11.9421C404.443 11.9868 404.702 12.0092 404.908 12.0092C405.65 12.0092 406.222 11.8214 406.625 11.4459C407.036 11.0704 407.242 10.6591 407.242 10.212C407.242 9.97059 407.175 9.76941 407.04 9.60847C406.915 9.44753 406.701 9.36706 406.397 9.36706C406.102 9.36706 405.798 9.50565 405.485 9.78282C405.181 10.06 404.939 10.4042 404.76 10.8155C404.403 11.6828 404.224 12.4339 404.224 13.0687C404.224 14.2489 404.582 14.8391 405.297 14.8391C406.182 14.8391 406.83 14.3562 407.242 13.3906L407.456 13.4442C407.242 13.9896 406.929 14.4144 406.517 14.7184C406.115 15.0134 405.659 15.1609 405.149 15.1609C404.64 15.1609 404.211 14.9732 403.862 14.5976C403.513 14.2221 403.339 13.7169 403.339 13.0821C403.339 12.4473 403.459 11.8348 403.701 11.2447C403.942 10.6456 404.318 10.1315 404.827 9.70235C405.337 9.26424 405.918 9.04518 406.571 9.04518ZM411.177 9.16588L411.365 9.3C410.936 10.2835 410.56 11.4146 410.239 12.6932H410.346L410.56 12.1031C410.981 10.9586 411.396 10.1628 411.808 9.71576C412.219 9.26871 412.577 9.04518 412.881 9.04518C413.185 9.04518 413.408 9.14353 413.551 9.34024C413.703 9.53694 413.779 9.79176 413.779 10.1047C413.779 10.4176 413.721 10.6904 413.605 10.9228C413.489 11.1553 413.319 11.2715 413.095 11.2715C412.881 11.2715 412.702 11.2 412.559 11.0569C412.648 10.9407 412.733 10.7708 412.814 10.5473C412.894 10.3238 412.934 10.1271 412.934 9.95718C412.934 9.69788 412.827 9.56824 412.612 9.56824C412.389 9.56824 412.112 9.78729 411.781 10.2254C411.057 11.1732 410.444 12.7647 409.944 15L409.005 15.0805L410.319 9.66212L409.461 9.72918L409.447 9.50118C410.064 9.42071 410.641 9.30894 411.177 9.16588ZM414.424 14.9598C414.29 14.8167 414.223 14.6468 414.223 14.4501C414.223 14.2534 414.29 14.088 414.424 13.9539C414.567 13.8108 414.737 13.7393 414.934 13.7393C415.131 13.7393 415.296 13.8108 415.43 13.9539C415.573 14.088 415.645 14.2534 415.645 14.4501C415.645 14.6468 415.573 14.8167 415.43 14.9598C415.296 15.0939 415.131 15.1609 414.934 15.1609C414.737 15.1609 414.567 15.0939 414.424 14.9598ZM422.463 9.3C422.15 10.2299 421.855 11.2268 421.578 12.2908C421.301 13.3548 421.162 14.0388 421.162 14.3428C421.162 14.6379 421.274 14.7854 421.497 14.7854C421.667 14.7854 421.851 14.6736 422.047 14.4501C422.244 14.2176 422.414 13.8913 422.557 13.4711L422.772 13.5247C422.387 14.6155 421.886 15.1609 421.269 15.1609C420.715 15.1609 420.438 14.8256 420.438 14.1551C420.438 14.0209 420.46 13.8064 420.505 13.5113H420.438C419.884 14.6111 419.24 15.1609 418.507 15.1609C418.086 15.1609 417.733 14.9776 417.447 14.6111C417.17 14.2355 417.031 13.7795 417.031 13.2431C417.031 12.6976 417.103 12.1925 417.246 11.7275C417.389 11.2626 417.59 10.8289 417.849 10.4266C418.109 10.0153 418.453 9.68447 418.882 9.43412C419.311 9.17482 419.781 9.04518 420.29 9.04518C420.952 9.04518 421.475 9.32682 421.86 9.89012L422.275 9.16588L422.463 9.3ZM418.829 14.7586C419.204 14.7586 419.584 14.468 419.969 13.8868C420.407 13.2162 420.813 12.1209 421.189 10.6009C421.269 10.2433 421.332 9.984 421.377 9.82306C421.064 9.51906 420.702 9.36706 420.29 9.36706C419.888 9.36706 419.526 9.50565 419.204 9.78282C418.891 10.06 418.645 10.4087 418.466 10.8289C418.1 11.6873 417.917 12.4965 417.917 13.2565C417.917 13.7572 417.997 14.1327 418.158 14.3831C418.328 14.6334 418.551 14.7586 418.829 14.7586ZM426.245 9.16588L426.433 9.3C426.004 10.2835 425.628 11.4146 425.306 12.6932H425.414L425.628 12.1031C426.049 10.9586 426.464 10.1628 426.876 9.71576C427.287 9.26871 427.645 9.04518 427.949 9.04518C428.253 9.04518 428.476 9.14353 428.619 9.34024C428.771 9.53694 428.847 9.79176 428.847 10.1047C428.847 10.4176 428.789 10.6904 428.673 10.9228C428.557 11.1553 428.387 11.2715 428.163 11.2715C427.949 11.2715 427.77 11.2 427.627 11.0569C427.716 10.9407 427.801 10.7708 427.881 10.5473C427.962 10.3238 428.002 10.1271 428.002 9.95718C428.002 9.69788 427.895 9.56824 427.68 9.56824C427.457 9.56824 427.18 9.78729 426.849 10.2254C426.125 11.1732 425.512 12.7647 425.011 15L424.073 15.0805L425.387 9.66212L424.529 9.72918L424.515 9.50118C425.132 9.42071 425.709 9.30894 426.245 9.16588ZM430.203 14.2221L432.335 14.7049C432.8 14.8122 433.131 14.9553 433.328 15.1341C433.525 15.3219 433.623 15.5767 433.623 15.8986C433.623 16.4172 433.337 16.9045 432.765 17.3605C432.201 17.8254 431.558 18.0579 430.833 18.0579C430.109 18.0579 429.519 17.8925 429.063 17.5616C428.616 17.2308 428.392 16.8374 428.392 16.3814C428.392 16.0685 428.5 15.7689 428.714 15.4828C428.92 15.1967 429.228 14.9553 429.64 14.7586L429.908 14.8391C429.64 14.9732 429.434 15.1744 429.291 15.4426C429.148 15.7198 429.076 16.0104 429.076 16.3144C429.076 16.8151 429.242 17.1861 429.573 17.4275C429.903 17.6779 430.328 17.8031 430.847 17.8031C431.374 17.8031 431.857 17.6511 432.295 17.3471C432.742 17.052 432.966 16.6944 432.966 16.2741C432.966 15.8539 432.693 15.5812 432.148 15.456L429.841 14.9464C429.582 14.8927 429.38 14.772 429.237 14.5842C429.094 14.3965 429.023 14.1685 429.023 13.9002C429.023 13.632 429.134 13.3861 429.358 13.1626C429.582 12.9391 429.89 12.8273 430.283 12.8273H431.638L431.598 13.0151H430.283C430.096 13.0151 429.944 13.0732 429.827 13.1894C429.72 13.3056 429.666 13.4442 429.666 13.6052C429.666 13.936 429.845 14.1416 430.203 14.2221ZM432.456 9.23294L432.443 9.04518C432.693 9.04518 432.903 8.98706 433.073 8.87082C433.243 8.74565 433.328 8.58471 433.328 8.388C433.328 8.19129 433.185 8.00353 432.899 7.82471C433.042 7.52071 433.212 7.36871 433.408 7.36871C433.614 7.36871 433.766 7.42682 433.864 7.54306C433.972 7.65929 434.025 7.80682 434.025 7.98565C434.025 8.29859 433.882 8.58471 433.596 8.844C433.319 9.10329 432.939 9.23294 432.456 9.23294ZM430.002 11.5532C430.002 10.8915 430.234 10.3104 430.699 9.80965C431.173 9.3 431.754 9.04518 432.443 9.04518C432.926 9.04518 433.306 9.17482 433.583 9.43412C433.869 9.68447 434.012 10.0421 434.012 10.5071C434.012 11.2581 433.77 11.8661 433.288 12.3311C432.805 12.7871 432.242 13.0151 431.598 13.0151C431.106 13.0151 430.717 12.8899 430.431 12.6395C430.145 12.3802 430.002 12.0181 430.002 11.5532ZM432.429 9.3C431.938 9.3 431.535 9.57271 431.222 10.1181C430.909 10.6546 430.753 11.1329 430.753 11.5532C430.753 11.9734 430.829 12.2819 430.981 12.4786C431.142 12.6664 431.352 12.7602 431.611 12.7602C432.005 12.7602 432.38 12.5367 432.738 12.0896C433.095 11.6426 433.274 11.0793 433.274 10.3998C433.274 10.06 433.194 9.79176 433.033 9.59506C432.881 9.39835 432.68 9.3 432.429 9.3ZM437.791 9.36706C437.451 9.36706 437.161 9.46541 436.919 9.66212C436.678 9.85882 436.557 10.1092 436.557 10.4132C436.557 10.7172 436.682 10.9944 436.933 11.2447C437.183 11.4951 437.456 11.7052 437.751 11.8751C438.046 12.036 438.319 12.2506 438.569 12.5188C438.819 12.7871 438.944 13.0732 438.944 13.3772C438.944 13.9494 438.721 14.392 438.274 14.7049C437.836 15.0089 437.304 15.1609 436.678 15.1609C436.052 15.1609 435.502 15.0134 435.028 14.7184C435.18 14.4144 435.323 13.8868 435.457 13.1358L435.685 13.176C435.623 13.5426 435.592 13.8332 435.592 14.0478C435.592 14.2534 435.69 14.4456 435.887 14.6245C436.092 14.7944 436.383 14.8793 436.758 14.8793C437.143 14.8793 437.465 14.7631 437.724 14.5306C437.992 14.2981 438.126 13.9941 438.126 13.6186C438.126 13.3772 438.006 13.1447 437.764 12.9212C437.532 12.6887 437.272 12.4965 436.986 12.3445C436.709 12.1925 436.45 11.9779 436.208 11.7007C435.976 11.4235 435.86 11.1195 435.86 10.7887C435.86 10.2969 436.052 9.88565 436.436 9.55482C436.83 9.21506 437.344 9.04518 437.979 9.04518C438.471 9.04518 438.958 9.16588 439.441 9.40729C439.396 9.50565 439.32 9.72918 439.213 10.0779C439.114 10.4266 439.038 10.7574 438.985 11.0704L438.757 11.0301C438.81 10.744 438.837 10.4713 438.837 10.212C438.837 9.94376 438.748 9.73812 438.569 9.59506C438.399 9.44306 438.14 9.36706 437.791 9.36706ZM443.879 11.6336H442.564C442.153 13.5292 441.947 14.5261 441.947 14.6245C441.947 14.7139 441.997 14.7586 442.095 14.7586H443.074L443.034 15H440.177L440.217 14.7586H440.834C440.951 14.7586 441.022 14.6915 441.049 14.5574C442.122 9.47882 442.658 6.91718 442.658 6.87247C442.658 6.81882 442.609 6.792 442.511 6.792H441.921L441.961 6.55059H444.952C445.56 6.55059 446.06 6.72047 446.454 7.06024C446.847 7.4 447.044 7.86941 447.044 8.46847C447.044 9.41624 446.718 10.1807 446.065 10.7619C445.412 11.3431 444.683 11.6336 443.879 11.6336ZM444.804 6.85906H443.584L442.631 11.3252H443.892C444.536 11.3252 445.072 11.0122 445.502 10.3864C445.94 9.76047 446.159 9.10329 446.159 8.41482C446.159 7.96776 446.043 7.59671 445.81 7.30165C445.587 7.00659 445.251 6.85906 444.804 6.85906ZM451.083 14.1551C451.083 14.0209 451.106 13.8064 451.15 13.5113H451.083C450.511 14.6111 449.85 15.1609 449.098 15.1609C448.294 15.1609 447.891 14.7139 447.891 13.8198C447.891 13.2386 448.097 12.1612 448.508 10.5875L448.75 9.66212L447.891 9.72918L447.878 9.50118C448.495 9.42071 449.072 9.30894 449.608 9.16588L449.796 9.3C449.045 11.6336 448.669 13.1268 448.669 13.7795C448.669 14.4322 448.915 14.7586 449.407 14.7586C449.818 14.7586 450.221 14.4591 450.614 13.86C451.016 13.252 451.347 12.4384 451.606 11.4191L452.062 9.66212L451.204 9.72918L451.191 9.50118C451.808 9.42071 452.384 9.30894 452.921 9.16588L453.109 9.3C452.796 10.2299 452.501 11.2268 452.223 12.2908C451.946 13.3548 451.808 14.0388 451.808 14.3428C451.808 14.6379 451.919 14.7854 452.143 14.7854C452.313 14.7854 452.496 14.6736 452.693 14.4501C452.89 14.2176 453.059 13.8913 453.202 13.4711L453.417 13.5247C453.033 14.6155 452.532 15.1609 451.915 15.1609C451.361 15.1609 451.083 14.8256 451.083 14.1551ZM455.839 12.6932H455.947L456.161 12.1031C456.912 10.0645 457.735 9.04518 458.629 9.04518C459.049 9.04518 459.398 9.23294 459.675 9.60847C459.961 9.97506 460.104 10.4311 460.104 10.9765C460.104 11.5129 460.033 12.0136 459.89 12.4786C459.747 12.9435 459.545 13.3816 459.286 13.7929C459.027 14.1953 458.683 14.5261 458.253 14.7854C457.824 15.0358 457.386 15.1609 456.939 15.1609C456.492 15.1609 456.107 15.076 455.786 14.9061C455.464 14.7273 455.213 14.4948 455.035 14.2087L455.155 13.8466C455.584 14.5261 456.134 14.8659 456.805 14.8659C457.315 14.8659 457.757 14.6334 458.133 14.1685C458.508 13.6946 458.772 13.176 458.924 12.6127C459.085 12.0405 459.165 11.5174 459.165 11.0435C459.165 10.5607 459.085 10.1941 458.924 9.94376C458.772 9.68447 458.593 9.55482 458.387 9.55482C458.182 9.55482 457.976 9.64424 457.771 9.82306C457.565 9.99294 457.341 10.2612 457.1 10.6278C456.581 11.4325 456.094 12.7513 455.638 14.5842L455.236 14.1551L454.833 15.1609L454.605 15.0805L456.711 6.68471L455.853 6.75176L455.839 6.52376C456.456 6.44329 457.033 6.33153 457.569 6.18847L457.757 6.32259C457.033 8.43271 456.394 10.5562 455.839 12.6932ZM462.167 14.3428C462.167 14.6379 462.279 14.7854 462.502 14.7854C462.672 14.7854 462.855 14.6736 463.052 14.4501C463.249 14.2176 463.419 13.8913 463.562 13.4711L463.776 13.5247C463.392 14.6155 462.891 15.1609 462.274 15.1609C461.72 15.1609 461.443 14.8122 461.443 14.1148C461.443 13.4085 462.028 10.9318 463.2 6.68471L462.341 6.75176L462.328 6.52376C462.945 6.44329 463.521 6.33153 464.058 6.18847L464.246 6.32259C463.87 7.42235 463.428 8.91553 462.918 10.8021C462.417 12.6798 462.167 13.86 462.167 14.3428ZM466.923 7.704C466.807 7.58776 466.749 7.44471 466.749 7.27482C466.749 7.10494 466.807 6.96188 466.923 6.84565C467.039 6.72941 467.182 6.67129 467.352 6.67129C467.522 6.67129 467.665 6.72941 467.781 6.84565C467.898 6.96188 467.956 7.10494 467.956 7.27482C467.956 7.44471 467.898 7.58776 467.781 7.704C467.665 7.82024 467.522 7.87835 467.352 7.87835C467.182 7.87835 467.039 7.82024 466.923 7.704ZM465.407 14.1551C465.407 13.6812 465.734 12.1835 466.387 9.66212L465.528 9.72918L465.515 9.50118C466.132 9.42071 466.708 9.30894 467.245 9.16588L467.433 9.3C467.12 10.2299 466.825 11.2268 466.547 12.2908C466.27 13.3548 466.132 14.0388 466.132 14.3428C466.132 14.6379 466.243 14.7854 466.467 14.7854C466.637 14.7854 466.82 14.6736 467.017 14.4501C467.214 14.2176 467.383 13.8913 467.527 13.4711L467.741 13.5247C467.357 14.6155 466.856 15.1609 466.239 15.1609C465.685 15.1609 465.407 14.8256 465.407 14.1551ZM472.145 9.36706C471.779 9.36706 471.439 9.50565 471.126 9.78282C470.822 10.06 470.58 10.4042 470.402 10.8155C470.044 11.6828 469.865 12.4339 469.865 13.0687C469.865 14.2489 470.223 14.8391 470.938 14.8391C471.823 14.8391 472.471 14.3562 472.883 13.3906L473.097 13.4442C472.883 13.9896 472.57 14.4144 472.159 14.7184C471.756 15.0134 471.3 15.1609 470.791 15.1609C470.281 15.1609 469.852 14.9732 469.503 14.5976C469.154 14.2221 468.98 13.7169 468.98 13.0821C468.98 12.4473 469.101 11.8348 469.342 11.2447C469.583 10.6456 469.959 10.1315 470.469 9.70235C470.978 9.26424 471.559 9.04518 472.212 9.04518C472.659 9.04518 472.995 9.16141 473.218 9.39388C473.451 9.61741 473.567 9.89012 473.567 10.212C473.567 10.5249 473.509 10.8066 473.392 11.0569C473.285 11.3073 473.111 11.4325 472.869 11.4325C472.637 11.4325 472.463 11.3609 472.346 11.2179C472.606 10.8245 472.735 10.44 472.735 10.0645C472.735 9.59953 472.539 9.36706 472.145 9.36706ZM477.556 6.97976L475.947 14.6245C475.947 14.7139 475.996 14.7586 476.094 14.7586H476.684L476.644 15H474.176L474.217 14.7586H474.834C474.95 14.7586 475.021 14.6915 475.048 14.5574C476.121 9.47882 476.658 6.91718 476.658 6.87247C476.658 6.81882 476.608 6.792 476.51 6.792H475.92L475.96 6.55059H478.428L478.388 6.792H477.784C477.668 6.792 477.592 6.85459 477.556 6.97976ZM479.474 12.6529L479.501 13.8868C479.519 14.4412 479.666 14.7184 479.944 14.7184C480.122 14.7184 480.27 14.6245 480.386 14.4367C480.511 14.2489 480.574 14.0075 480.574 13.7125L480.829 13.6722C480.829 14.1282 480.708 14.4904 480.467 14.7586C480.234 15.0268 479.939 15.1609 479.581 15.1609C478.947 15.1609 478.611 14.6826 478.576 13.7259L478.522 12.4115C478.495 11.8304 478.374 11.428 478.16 11.2045C477.945 10.972 477.592 10.8558 477.1 10.8558L477.167 10.6412L480.99 6.792H480.359L480.4 6.55059H482.13L482.089 6.792H481.741C481.598 6.792 481.468 6.85459 481.352 6.97976L477.717 10.6144C478.361 10.6233 478.808 10.8111 479.058 11.1776C479.318 11.5442 479.456 12.036 479.474 12.6529ZM485.702 9.04518C486.176 9.04518 486.529 9.16141 486.762 9.39388C487.003 9.61741 487.124 9.94376 487.124 10.3729C487.124 10.7932 486.958 11.1598 486.627 11.4727C486.064 12.0092 485.228 12.2774 484.119 12.2774C483.789 12.2774 483.502 12.2506 483.261 12.1969V11.9421C483.574 11.9868 483.833 12.0092 484.039 12.0092C484.781 12.0092 485.353 11.8214 485.756 11.4459C486.167 11.0704 486.373 10.6591 486.373 10.212C486.373 9.97059 486.306 9.76941 486.171 9.60847C486.046 9.44753 485.832 9.36706 485.528 9.36706C485.233 9.36706 484.929 9.50565 484.616 9.78282C484.312 10.06 484.07 10.4042 483.891 10.8155C483.534 11.6828 483.355 12.4339 483.355 13.0687C483.355 14.2489 483.713 14.8391 484.428 14.8391C485.313 14.8391 485.961 14.3562 486.373 13.3906L486.587 13.4442C486.373 13.9896 486.06 14.4144 485.648 14.7184C485.246 15.0134 484.79 15.1609 484.28 15.1609C483.771 15.1609 483.342 14.9732 482.993 14.5976C482.644 14.2221 482.47 13.7169 482.47 13.0821C482.47 12.4473 482.59 11.8348 482.832 11.2447C483.073 10.6456 483.449 10.1315 483.958 9.70235C484.468 9.26424 485.049 9.04518 485.702 9.04518ZM490.215 14.7184C490.787 14.7184 491.355 14.3026 491.918 13.4711C492.49 12.6306 492.776 11.8482 492.776 11.124C492.776 10.3908 492.544 9.79176 492.079 9.32682C492.302 9.13906 492.508 9.04518 492.696 9.04518C493.044 9.04518 493.219 9.53694 493.219 10.5205C493.219 11.504 493.111 12.4071 492.897 13.2296C492.682 14.0433 492.401 14.7362 492.052 15.3085C491.712 15.8807 491.323 16.3769 490.885 16.7972C490.036 17.6376 489.173 18.0579 488.297 18.0579C487.85 18.0579 487.514 17.9551 487.291 17.7494C487.058 17.5438 486.942 17.3024 486.942 17.0252C486.942 16.748 487 16.4976 487.116 16.2741C487.224 16.0506 487.389 15.9388 487.613 15.9388C487.836 15.9388 488.019 16.0014 488.163 16.1266C487.903 16.4574 487.774 16.7614 487.774 17.0386C487.774 17.4856 488.011 17.7092 488.484 17.7092C488.797 17.7092 489.159 17.5929 489.571 17.3605C489.982 17.1369 490.398 16.8151 490.818 16.3948C491.238 15.9835 491.623 15.4292 491.971 14.7318C492.329 14.0344 492.579 13.2788 492.723 12.4652C492.427 13.2431 492.03 13.8868 491.529 14.3965C491.037 14.9061 490.469 15.1609 489.826 15.1609C489.495 15.1609 489.227 15.0492 489.021 14.8256C488.824 14.5932 488.726 14.2802 488.726 13.8868C488.726 13.4934 488.873 12.8049 489.168 11.8214C489.472 10.8379 489.624 10.1941 489.624 9.89012C489.624 9.57718 489.508 9.42071 489.276 9.42071C489.106 9.42071 488.927 9.53694 488.739 9.76941C488.551 9.99294 488.399 10.3148 488.283 10.7351L488.055 10.6814C488.386 9.59059 488.864 9.04518 489.49 9.04518C490.071 9.04518 490.362 9.35812 490.362 9.984C490.362 10.2344 490.223 10.8558 489.946 11.8482C489.669 12.8407 489.531 13.4934 489.531 13.8064C489.531 14.4144 489.759 14.7184 490.215 14.7184ZM493.51 16.3144C494.404 15.6348 495.114 14.6647 495.642 13.404C496.17 12.1433 496.433 10.8692 496.433 9.58165C496.433 8.28518 496.134 7.31953 495.535 6.68471L495.696 6.48353C496.277 6.83224 496.71 7.324 496.997 7.95882C497.283 8.58471 497.426 9.29106 497.426 10.0779C497.426 11.3565 497.073 12.6082 496.366 13.8332C495.669 15.0581 494.734 15.9522 493.563 16.5155L493.51 16.3144Z" fill="#6082FA"/>
</svg>
