<svg width="359" height="23" viewBox="0 0 359 23" fill="none" xmlns="http://www.w3.org/2000/svg">
<path opacity="0.86" d="M30.5872 11.87H22.7011V10.8038H30.5872V11.87ZM30.5872 15.29H22.7011V14.2238H30.5872V15.29Z" fill="#6082FA"/>
<path opacity="0.86" d="M40.8768 4.32588H46.9322C47.9515 4.32588 48.6758 4.26553 49.1049 4.14482C48.9038 4.61423 48.6624 5.47929 48.3807 6.74L48.1795 7.68553H47.7369L47.9985 5.13059C47.9985 4.90259 47.8509 4.78859 47.5559 4.78859H43.3111L42.1241 10.3813H46.1879C46.322 10.3679 46.4159 10.274 46.4695 10.0996L46.8719 8.85235H47.2139L46.4293 12.4735H46.0873L46.2684 11.2262C46.2684 11.0385 46.1946 10.9446 46.0471 10.9446H42.0235L40.8366 16.5373H45.2826C45.6045 16.5373 45.8124 16.3898 45.9062 16.0947L46.7512 13.6404H47.1938L46.9926 14.5859C46.7378 15.7795 46.6104 16.6446 46.6104 17.1811C46.2214 17.0604 45.5307 17 44.5382 17H38.2012L38.2615 16.6379H39.1869C39.3613 16.6379 39.4686 16.5373 39.5088 16.3361C41.1182 8.71824 41.9229 4.87576 41.9229 4.80871C41.9229 4.72823 41.8492 4.688 41.7016 4.688H40.8165L40.8768 4.32588ZM58.3187 9.89847C58.3187 10.4752 57.9901 11.5347 57.3329 13.0771C56.6891 14.6194 56.3673 15.6052 56.3673 16.0344C56.3673 16.4635 56.5349 16.6781 56.8702 16.6781C57.125 16.6781 57.4 16.5105 57.695 16.1752C57.9901 15.8265 58.2449 15.3369 58.4595 14.7066L58.7814 14.7871C58.2047 16.4233 57.4536 17.2414 56.5282 17.2414C55.6967 17.2414 55.2809 16.7854 55.2809 15.8734C55.2809 15.4845 55.5827 14.5188 56.1862 12.9765C56.8031 11.4341 57.1116 10.4416 57.1116 9.99906C57.1116 9.15412 56.8031 8.73165 56.1862 8.73165C55.5156 8.73165 54.7914 9.27482 54.0135 10.3612C53.1149 11.6621 52.3169 13.8751 51.6195 17L50.2113 17.1207L52.1828 8.99318L50.8953 9.09376L50.8751 8.75176C51.8005 8.63106 52.6656 8.46341 53.4703 8.24882L53.752 8.45C53.1082 9.92529 52.5449 11.6219 52.0621 13.5398H52.223L52.5449 12.6546C53.2691 10.6294 54.0537 9.31506 54.8987 8.71153C55.301 8.44329 55.6296 8.26894 55.8844 8.18847C56.1527 8.108 56.4813 8.06776 56.8702 8.06776C57.2725 8.06776 57.6145 8.22871 57.8962 8.55059C58.1778 8.87247 58.3187 9.32176 58.3187 9.89847ZM65.3785 8.55059C64.8287 8.55059 64.319 8.75847 63.8496 9.17423C63.3936 9.59 63.0315 10.1064 62.7633 10.7233C62.2268 12.0242 61.9585 13.1508 61.9585 14.1031C61.9585 15.8734 62.495 16.7586 63.568 16.7586C64.8957 16.7586 65.8681 16.0344 66.485 14.5859L66.8069 14.6664C66.485 15.4845 66.0156 16.1215 65.3987 16.5775C64.7951 17.0201 64.1111 17.2414 63.3467 17.2414C62.5822 17.2414 61.9384 16.9598 61.4154 16.3965C60.8923 15.8332 60.6308 15.0754 60.6308 14.1232C60.6308 13.1709 60.8118 12.2522 61.174 11.3671C61.5361 10.4685 62.0994 9.69729 62.8638 9.05353C63.6283 8.39635 64.5001 8.06776 65.4791 8.06776C66.1497 8.06776 66.6527 8.24212 66.988 8.59082C67.3367 8.92612 67.511 9.33518 67.511 9.818C67.511 10.2874 67.4238 10.7099 67.2495 11.0854C67.0885 11.4609 66.827 11.6487 66.4649 11.6487C66.1162 11.6487 65.8547 11.5414 65.6803 11.3268C66.0693 10.7367 66.2637 10.16 66.2637 9.59671C66.2637 8.89929 65.9687 8.55059 65.3785 8.55059Z" fill="#6082FA"/>
<path opacity="0.86" d="M71.7553 10.7384C72.2739 10.5059 72.8238 10.3896 73.4049 10.3896C74.2901 10.3896 74.9875 10.6579 75.4972 11.1944C76.0158 11.7219 76.2751 12.4685 76.2751 13.4341C76.2751 14.0868 76.1678 14.7485 75.9532 15.4191C75.7386 16.0807 75.4391 16.6932 75.0546 17.2565C74.6701 17.8198 74.1694 18.2802 73.5525 18.6379C72.9355 18.9866 72.2247 19.1609 71.42 19.1609C70.6153 19.1609 69.9536 18.8927 69.4351 18.3562C68.9254 17.8198 68.6706 17.0419 68.6706 16.0226C68.6706 15.0033 68.9478 13.9751 69.5021 12.9379C70.0654 11.9007 70.8165 11.1675 71.7553 10.7384ZM74.7864 11.4224C74.4287 10.9664 73.9548 10.7384 73.3647 10.7384C72.7746 10.7384 72.2292 10.9306 71.7285 11.3151C71.2278 11.6906 70.8299 12.1689 70.5348 12.7501C69.9179 13.9482 69.6094 15.1106 69.6094 16.2372C69.6094 17.0508 69.7838 17.6856 70.1325 18.1416C70.4901 18.5887 70.964 18.8122 71.5541 18.8122C72.1532 18.8122 72.7031 18.6245 73.2038 18.2489C73.7045 17.8645 74.1068 17.3861 74.4108 16.8139C75.0278 15.6247 75.3362 14.4624 75.3362 13.3268C75.3362 12.5132 75.1529 11.8784 74.7864 11.4224ZM79.453 13.1659L79.6408 13.3C79.2116 14.2835 78.8361 15.4146 78.5142 16.6932H78.6215L78.8361 16.1031C79.2563 14.9586 79.6721 14.1628 80.0834 13.7158C80.4947 13.2687 80.8523 13.0452 81.1563 13.0452C81.4603 13.0452 81.6838 13.1435 81.8269 13.3402C81.9789 13.5369 82.0549 13.7918 82.0549 14.1047C82.0549 14.4176 81.9968 14.6904 81.8805 14.9228C81.7643 15.1553 81.5944 15.2715 81.3709 15.2715C81.1563 15.2715 80.9775 15.2 80.8344 15.0569C80.9238 14.9407 81.0088 14.7708 81.0893 14.5473C81.1697 14.3238 81.21 14.1271 81.21 13.9572C81.21 13.6979 81.1027 13.5682 80.8881 13.5682C80.6645 13.5682 80.3874 13.7873 80.0565 14.2254C79.3323 15.1732 78.7198 16.7647 78.2191 19L77.2803 19.0805L78.5947 13.6621L77.7363 13.7292L77.7229 13.5012C78.3398 13.4207 78.9165 13.3089 79.453 13.1659ZM86.5893 18.3428C86.5893 18.6379 86.7011 18.7854 86.9246 18.7854C87.0945 18.7854 87.2778 18.6736 87.4745 18.4501C87.6712 18.2176 87.8411 17.8913 87.9842 17.4711L88.1987 17.5247C87.8143 18.6155 87.3136 19.1609 86.6966 19.1609C86.1423 19.1609 85.8651 18.8122 85.8651 18.1148C85.8651 17.4085 86.4507 14.9318 87.622 10.6847L86.7637 10.7518L86.7503 10.5238C87.3672 10.4433 87.9439 10.3315 88.4804 10.1885L88.6682 10.3226C88.2926 11.4224 87.85 12.9155 87.3404 14.8021C86.8397 16.6798 86.5893 17.86 86.5893 18.3428ZM85.9992 17.5113H85.8651C85.3107 18.6111 84.667 19.1609 83.9338 19.1609C83.5136 19.1609 83.1604 18.9776 82.8743 18.6111C82.5971 18.2355 82.4585 17.7795 82.4585 17.2431C82.4585 16.6976 82.53 16.1925 82.6731 15.7275C82.8162 15.2626 83.0173 14.8289 83.2766 14.4266C83.5359 14.0153 83.8802 13.6845 84.3093 13.4341C84.7385 13.1748 85.1766 13.0452 85.6237 13.0452C86.482 13.0452 87.09 13.4207 87.4477 14.1718L87.2599 14.4132C86.8397 13.7158 86.3166 13.3671 85.6907 13.3671C85.3063 13.3671 84.9531 13.5056 84.6312 13.7828C84.3183 14.06 84.0724 14.4087 83.8936 14.8289C83.527 15.6873 83.3437 16.4965 83.3437 17.2565C83.3437 17.7572 83.4242 18.1327 83.5851 18.3831C83.755 18.6334 83.9785 18.7586 84.2557 18.7586C84.6402 18.7586 85.0336 18.4367 85.4359 17.7929C85.8383 17.1402 86.1959 16.2104 86.5089 15.0033L85.9992 17.5113ZM92.6649 13.0452C93.1387 13.0452 93.4919 13.1614 93.7244 13.3939C93.9658 13.6174 94.0865 13.9438 94.0865 14.3729C94.0865 14.7932 93.9211 15.1598 93.5903 15.4727C93.027 16.0092 92.191 16.2774 91.0823 16.2774C90.7515 16.2774 90.4653 16.2506 90.2239 16.1969V15.9421C90.5369 15.9868 90.7962 16.0092 91.0018 16.0092C91.7439 16.0092 92.3162 15.8214 92.7185 15.4459C93.1298 15.0704 93.3355 14.6591 93.3355 14.212C93.3355 13.9706 93.2684 13.7694 93.1343 13.6085C93.0091 13.4475 92.7945 13.3671 92.4905 13.3671C92.1955 13.3671 91.8915 13.5056 91.5785 13.7828C91.2745 14.06 91.0331 14.4042 90.8543 14.8155C90.4966 15.6828 90.3178 16.4339 90.3178 17.0687C90.3178 18.2489 90.6755 18.8391 91.3907 18.8391C92.2759 18.8391 92.9242 18.3562 93.3355 17.3906L93.55 17.4442C93.3355 17.9896 93.0225 18.4144 92.6112 18.7184C92.2089 19.0134 91.7529 19.1609 91.2432 19.1609C90.7336 19.1609 90.3044 18.9732 89.9557 18.5976C89.607 18.2221 89.4326 17.7169 89.4326 17.0821C89.4326 16.4473 89.5533 15.8348 89.7947 15.2447C90.0362 14.6456 90.4117 14.1315 90.9213 13.7024C91.431 13.2642 92.0122 13.0452 92.6649 13.0452ZM97.2713 13.1659L97.459 13.3C97.0299 14.2835 96.6543 15.4146 96.3325 16.6932H96.4398L96.6543 16.1031C97.0746 14.9586 97.4903 14.1628 97.9016 13.7158C98.3129 13.2687 98.6706 13.0452 98.9746 13.0452C99.2786 13.0452 99.5021 13.1435 99.6452 13.3402C99.7972 13.5369 99.8732 13.7918 99.8732 14.1047C99.8732 14.4176 99.815 14.6904 99.6988 14.9228C99.5826 15.1553 99.4127 15.2715 99.1892 15.2715C98.9746 15.2715 98.7958 15.2 98.6527 15.0569C98.7421 14.9407 98.827 14.7708 98.9075 14.5473C98.988 14.3238 99.0282 14.1271 99.0282 13.9572C99.0282 13.6979 98.9209 13.5682 98.7063 13.5682C98.4828 13.5682 98.2056 13.7873 97.8748 14.2254C97.1506 15.1732 96.5381 16.7647 96.0374 19L95.0986 19.0805L96.4129 13.6621L95.5546 13.7292L95.5412 13.5012C96.1581 13.4207 96.7348 13.3089 97.2713 13.1659ZM100.518 18.9598C100.384 18.8167 100.317 18.6468 100.317 18.4501C100.317 18.2534 100.384 18.088 100.518 17.9539C100.661 17.8108 100.831 17.7393 101.028 17.7393C101.225 17.7393 101.39 17.8108 101.524 17.9539C101.667 18.088 101.739 18.2534 101.739 18.4501C101.739 18.6468 101.667 18.8167 101.524 18.9598C101.39 19.0939 101.225 19.1609 101.028 19.1609C100.831 19.1609 100.661 19.0939 100.518 18.9598ZM105.365 13.1659L105.553 13.3C105.124 14.2835 104.748 15.4146 104.426 16.6932H104.533L104.748 16.1031C105.168 14.9586 105.584 14.1628 105.995 13.7158C106.407 13.2687 106.764 13.0452 107.068 13.0452C107.372 13.0452 107.596 13.1435 107.739 13.3402C107.891 13.5369 107.967 13.7918 107.967 14.1047C107.967 14.4176 107.909 14.6904 107.792 14.9228C107.676 15.1553 107.506 15.2715 107.283 15.2715C107.068 15.2715 106.889 15.2 106.746 15.0569C106.836 14.9407 106.921 14.7708 107.001 14.5473C107.082 14.3238 107.122 14.1271 107.122 13.9572C107.122 13.6979 107.015 13.5682 106.8 13.5682C106.576 13.5682 106.299 13.7873 105.968 14.2254C105.244 15.1732 104.632 16.7647 104.131 19L103.192 19.0805L104.507 13.6621L103.648 13.7292L103.635 13.5012C104.252 13.4207 104.828 13.3089 105.365 13.1659ZM111.603 13.0452C112.077 13.0452 112.43 13.1614 112.662 13.3939C112.904 13.6174 113.024 13.9438 113.024 14.3729C113.024 14.7932 112.859 15.1598 112.528 15.4727C111.965 16.0092 111.129 16.2774 110.02 16.2774C109.689 16.2774 109.403 16.2506 109.162 16.1969V15.9421C109.475 15.9868 109.734 16.0092 109.94 16.0092C110.682 16.0092 111.254 15.8214 111.656 15.4459C112.068 15.0704 112.273 14.6591 112.273 14.212C112.273 13.9706 112.206 13.7694 112.072 13.6085C111.947 13.4475 111.732 13.3671 111.428 13.3671C111.133 13.3671 110.829 13.5056 110.516 13.7828C110.212 14.06 109.971 14.4042 109.792 14.8155C109.434 15.6828 109.256 16.4339 109.256 17.0687C109.256 18.2489 109.613 18.8391 110.329 18.8391C111.214 18.8391 111.862 18.3562 112.273 17.3906L112.488 17.4442C112.273 17.9896 111.96 18.4144 111.549 18.7184C111.147 19.0134 110.691 19.1609 110.181 19.1609C109.671 19.1609 109.242 18.9732 108.894 18.5976C108.545 18.2221 108.37 17.7169 108.37 17.0821C108.37 16.4473 108.491 15.8348 108.733 15.2447C108.974 14.6456 109.35 14.1315 109.859 13.7024C110.369 13.2642 110.95 13.0452 111.603 13.0452ZM116.531 13.3671C116.191 13.3671 115.901 13.4654 115.659 13.6621C115.418 13.8588 115.297 14.1092 115.297 14.4132C115.297 14.7172 115.422 14.9944 115.673 15.2447C115.923 15.4951 116.196 15.7052 116.491 15.8751C116.786 16.036 117.059 16.2506 117.309 16.5188C117.559 16.7871 117.684 17.0732 117.684 17.3772C117.684 17.9494 117.461 18.392 117.014 18.7049C116.576 19.0089 116.044 19.1609 115.418 19.1609C114.792 19.1609 114.242 19.0134 113.768 18.7184C113.92 18.4144 114.063 17.8868 114.197 17.1358L114.425 17.176C114.363 17.5426 114.331 17.8332 114.331 18.0478C114.331 18.2534 114.43 18.4456 114.627 18.6245C114.832 18.7944 115.123 18.8793 115.498 18.8793C115.883 18.8793 116.205 18.7631 116.464 18.5306C116.732 18.2981 116.866 17.9941 116.866 17.6186C116.866 17.3772 116.746 17.1447 116.504 16.9212C116.272 16.6887 116.012 16.4965 115.726 16.3445C115.449 16.1925 115.19 15.9779 114.948 15.7007C114.716 15.4235 114.6 15.1195 114.6 14.7887C114.6 14.2969 114.792 13.8856 115.176 13.5548C115.57 13.2151 116.084 13.0452 116.719 13.0452C117.211 13.0452 117.698 13.1659 118.181 13.4073C118.136 13.5056 118.06 13.7292 117.953 14.0779C117.854 14.4266 117.778 14.7574 117.725 15.0704L117.497 15.0301C117.55 14.744 117.577 14.4713 117.577 14.212C117.577 13.9438 117.488 13.7381 117.309 13.5951C117.139 13.4431 116.88 13.3671 116.531 13.3671ZM122.954 18.1551C122.954 18.0209 122.976 17.8064 123.021 17.5113H122.954C122.382 18.6111 121.72 19.1609 120.969 19.1609C120.164 19.1609 119.762 18.7139 119.762 17.8198C119.762 17.2386 119.968 16.1612 120.379 14.5875L120.62 13.6621L119.762 13.7292L119.749 13.5012C120.365 13.4207 120.942 13.3089 121.479 13.1659L121.666 13.3C120.915 15.6336 120.54 17.1268 120.54 17.7795C120.54 18.4322 120.786 18.7586 121.277 18.7586C121.689 18.7586 122.091 18.4591 122.485 17.86C122.887 17.252 123.218 16.4384 123.477 15.4191L123.933 13.6621L123.075 13.7292L123.061 13.5012C123.678 13.4207 124.255 13.3089 124.791 13.1659L124.979 13.3C124.666 14.2299 124.371 15.2268 124.094 16.2908C123.817 17.3548 123.678 18.0388 123.678 18.3428C123.678 18.6379 123.79 18.7854 124.013 18.7854C124.183 18.7854 124.367 18.6736 124.563 18.4501C124.76 18.2176 124.93 17.8913 125.073 17.4711L125.288 17.5247C124.903 18.6155 124.402 19.1609 123.785 19.1609C123.231 19.1609 122.954 18.8256 122.954 18.1551ZM127.509 18.3428C127.509 18.6379 127.62 18.7854 127.844 18.7854C128.014 18.7854 128.197 18.6736 128.394 18.4501C128.591 18.2176 128.76 17.8913 128.903 17.4711L129.118 17.5247C128.734 18.6155 128.233 19.1609 127.616 19.1609C127.062 19.1609 126.784 18.8122 126.784 18.1148C126.784 17.4085 127.37 14.9318 128.541 10.6847L127.683 10.7518L127.67 10.5238C128.287 10.4433 128.863 10.3315 129.4 10.1885L129.587 10.3226C129.212 11.4224 128.769 12.9155 128.26 14.8021C127.759 16.6798 127.509 17.86 127.509 18.3428ZM130.709 13.6889L130.776 13.4341H133.753L133.686 13.6889H130.709ZM132.841 11.7845L133.029 11.9186C132.824 12.5445 132.546 13.528 132.198 14.8692C131.858 16.2104 131.652 17.0776 131.581 17.4711C131.509 17.8555 131.473 18.1461 131.473 18.3428C131.473 18.6379 131.585 18.7854 131.809 18.7854C131.979 18.7854 132.162 18.6736 132.359 18.4501C132.555 18.2176 132.725 17.8913 132.868 17.4711L133.083 17.5247C132.698 18.6155 132.198 19.1609 131.581 19.1609C131.026 19.1609 130.749 18.8256 130.749 18.1551C130.749 17.6007 131.08 16.0539 131.742 13.5146L130.776 13.4341C131.268 13.4341 131.666 13.3179 131.97 13.0854C132.274 12.844 132.564 12.4104 132.841 11.7845ZM137.621 15.6336H136.307C135.895 17.5292 135.69 18.5261 135.69 18.6245C135.69 18.7139 135.739 18.7586 135.837 18.7586H136.816L136.776 19H133.919L133.96 18.7586H134.577C134.693 18.7586 134.764 18.6915 134.791 18.5574C135.864 13.4788 136.401 10.9172 136.401 10.8725C136.401 10.8188 136.351 10.792 136.253 10.792H135.663L135.703 10.5506H138.694C139.302 10.5506 139.803 10.7205 140.196 11.0602C140.589 11.4 140.786 11.8694 140.786 12.4685C140.786 13.4162 140.46 14.1807 139.807 14.7619C139.154 15.3431 138.426 15.6336 137.621 15.6336ZM138.546 10.8591H137.326L136.374 15.3252H137.634C138.278 15.3252 138.815 15.0122 139.244 14.3864C139.682 13.7605 139.901 13.1033 139.901 12.4148C139.901 11.9678 139.785 11.5967 139.552 11.3016C139.329 11.0066 138.993 10.8591 138.546 10.8591ZM144.826 18.1551C144.826 18.0209 144.848 17.8064 144.893 17.5113H144.826C144.253 18.6111 143.592 19.1609 142.841 19.1609C142.036 19.1609 141.634 18.7139 141.634 17.8198C141.634 17.2386 141.839 16.1612 142.251 14.5875L142.492 13.6621L141.634 13.7292L141.62 13.5012C142.237 13.4207 142.814 13.3089 143.35 13.1659L143.538 13.3C142.787 15.6336 142.412 17.1268 142.412 17.7795C142.412 18.4322 142.657 18.7586 143.149 18.7586C143.56 18.7586 143.963 18.4591 144.356 17.86C144.759 17.252 145.089 16.4384 145.349 15.4191L145.805 13.6621L144.946 13.7292L144.933 13.5012C145.55 13.4207 146.127 13.3089 146.663 13.1659L146.851 13.3C146.538 14.2299 146.243 15.2268 145.966 16.2908C145.688 17.3548 145.55 18.0388 145.55 18.3428C145.55 18.6379 145.662 18.7854 145.885 18.7854C146.055 18.7854 146.238 18.6736 146.435 18.4501C146.632 18.2176 146.802 17.8913 146.945 17.4711L147.159 17.5247C146.775 18.6155 146.274 19.1609 145.657 19.1609C145.103 19.1609 144.826 18.8256 144.826 18.1551ZM149.581 16.6932H149.689L149.903 16.1031C150.654 14.0645 151.477 13.0452 152.371 13.0452C152.791 13.0452 153.14 13.2329 153.417 13.6085C153.703 13.9751 153.846 14.4311 153.846 14.9765C153.846 15.5129 153.775 16.0136 153.632 16.4786C153.489 16.9435 153.288 17.3816 153.028 17.7929C152.769 18.1953 152.425 18.5261 151.996 18.7854C151.566 19.0358 151.128 19.1609 150.681 19.1609C150.234 19.1609 149.85 19.076 149.528 18.9061C149.206 18.7273 148.956 18.4948 148.777 18.2087L148.897 17.8466C149.327 18.5261 149.877 18.8659 150.547 18.8659C151.057 18.8659 151.499 18.6334 151.875 18.1685C152.25 17.6946 152.514 17.176 152.666 16.6127C152.827 16.0405 152.908 15.5174 152.908 15.0435C152.908 14.5607 152.827 14.1941 152.666 13.9438C152.514 13.6845 152.335 13.5548 152.13 13.5548C151.924 13.5548 151.718 13.6442 151.513 13.8231C151.307 13.9929 151.084 14.2612 150.842 14.6278C150.324 15.4325 149.836 16.7513 149.38 18.5842L148.978 18.1551L148.576 19.1609L148.348 19.0805L150.453 10.6847L149.595 10.7518L149.581 10.5238C150.198 10.4433 150.775 10.3315 151.312 10.1885L151.499 10.3226C150.775 12.4327 150.136 14.5562 149.581 16.6932ZM155.909 18.3428C155.909 18.6379 156.021 18.7854 156.244 18.7854C156.414 18.7854 156.598 18.6736 156.794 18.4501C156.991 18.2176 157.161 17.8913 157.304 17.4711L157.518 17.5247C157.134 18.6155 156.633 19.1609 156.016 19.1609C155.462 19.1609 155.185 18.8122 155.185 18.1148C155.185 17.4085 155.77 14.9318 156.942 10.6847L156.083 10.7518L156.07 10.5238C156.687 10.4433 157.264 10.3315 157.8 10.1885L157.988 10.3226C157.612 11.4224 157.17 12.9155 156.66 14.8021C156.159 16.6798 155.909 17.86 155.909 18.3428ZM160.665 11.704C160.549 11.5878 160.491 11.4447 160.491 11.2748C160.491 11.1049 160.549 10.9619 160.665 10.8456C160.781 10.7294 160.925 10.6713 161.094 10.6713C161.264 10.6713 161.407 10.7294 161.524 10.8456C161.64 10.9619 161.698 11.1049 161.698 11.2748C161.698 11.4447 161.64 11.5878 161.524 11.704C161.407 11.8202 161.264 11.8784 161.094 11.8784C160.925 11.8784 160.781 11.8202 160.665 11.704ZM159.15 18.1551C159.15 17.6812 159.476 16.1835 160.129 13.6621L159.27 13.7292L159.257 13.5012C159.874 13.4207 160.451 13.3089 160.987 13.1659L161.175 13.3C160.862 14.2299 160.567 15.2268 160.29 16.2908C160.013 17.3548 159.874 18.0388 159.874 18.3428C159.874 18.6379 159.986 18.7854 160.209 18.7854C160.379 18.7854 160.562 18.6736 160.759 18.4501C160.956 18.2176 161.126 17.8913 161.269 17.4711L161.483 17.5247C161.099 18.6155 160.598 19.1609 159.981 19.1609C159.427 19.1609 159.15 18.8256 159.15 18.1551ZM165.887 13.3671C165.521 13.3671 165.181 13.5056 164.868 13.7828C164.564 14.06 164.323 14.4042 164.144 14.8155C163.786 15.6828 163.607 16.4339 163.607 17.0687C163.607 18.2489 163.965 18.8391 164.68 18.8391C165.565 18.8391 166.214 18.3562 166.625 17.3906L166.84 17.4442C166.625 17.9896 166.312 18.4144 165.901 18.7184C165.498 19.0134 165.042 19.1609 164.533 19.1609C164.023 19.1609 163.594 18.9732 163.245 18.5976C162.897 18.2221 162.722 17.7169 162.722 17.0821C162.722 16.4473 162.843 15.8348 163.084 15.2447C163.326 14.6456 163.701 14.1315 164.211 13.7024C164.721 13.2642 165.302 13.0452 165.954 13.0452C166.401 13.0452 166.737 13.1614 166.96 13.3939C167.193 13.6174 167.309 13.8901 167.309 14.212C167.309 14.5249 167.251 14.8066 167.135 15.0569C167.027 15.3073 166.853 15.4325 166.612 15.4325C166.379 15.4325 166.205 15.3609 166.089 15.2179C166.348 14.8245 166.477 14.44 166.477 14.0645C166.477 13.5995 166.281 13.3671 165.887 13.3671ZM171.298 10.9798L169.689 18.6245C169.689 18.7139 169.738 18.7586 169.837 18.7586H170.427L170.386 19H167.919L167.959 18.7586H168.576C168.692 18.7586 168.764 18.6915 168.79 18.5574C169.863 13.4788 170.4 10.9172 170.4 10.8725C170.4 10.8188 170.351 10.792 170.252 10.792H169.662L169.702 10.5506H172.17L172.13 10.792H171.526C171.41 10.792 171.334 10.8546 171.298 10.9798ZM173.216 16.6529L173.243 17.8868C173.261 18.4412 173.409 18.7184 173.686 18.7184C173.865 18.7184 174.012 18.6245 174.128 18.4367C174.254 18.2489 174.316 18.0075 174.316 17.7125L174.571 17.6722C174.571 18.1282 174.45 18.4904 174.209 18.7586C173.976 19.0268 173.681 19.1609 173.324 19.1609C172.689 19.1609 172.354 18.6826 172.318 17.7259L172.264 16.4115C172.237 15.8304 172.117 15.428 171.902 15.2045C171.687 14.972 171.334 14.8558 170.842 14.8558L170.91 14.6412L174.732 10.792H174.102L174.142 10.5506H175.872L175.832 10.792H175.483C175.34 10.792 175.21 10.8546 175.094 10.9798L171.459 14.6144C172.103 14.6233 172.55 14.8111 172.801 15.1776C173.06 15.5442 173.198 16.036 173.216 16.6529ZM179.444 13.0452C179.918 13.0452 180.271 13.1614 180.504 13.3939C180.745 13.6174 180.866 13.9438 180.866 14.3729C180.866 14.7932 180.7 15.1598 180.37 15.4727C179.806 16.0092 178.97 16.2774 177.862 16.2774C177.531 16.2774 177.245 16.2506 177.003 16.1969V15.9421C177.316 15.9868 177.576 16.0092 177.781 16.0092C178.523 16.0092 179.096 15.8214 179.498 15.4459C179.909 15.0704 180.115 14.6591 180.115 14.212C180.115 13.9706 180.048 13.7694 179.914 13.6085C179.788 13.4475 179.574 13.3671 179.27 13.3671C178.975 13.3671 178.671 13.5056 178.358 13.7828C178.054 14.06 177.812 14.4042 177.634 14.8155C177.276 15.6828 177.097 16.4339 177.097 17.0687C177.097 18.2489 177.455 18.8391 178.17 18.8391C179.055 18.8391 179.704 18.3562 180.115 17.3906L180.329 17.4442C180.115 17.9896 179.802 18.4144 179.391 18.7184C178.988 19.0134 178.532 19.1609 178.023 19.1609C177.513 19.1609 177.084 18.9732 176.735 18.5976C176.386 18.2221 176.212 17.7169 176.212 17.0821C176.212 16.4473 176.333 15.8348 176.574 15.2447C176.816 14.6456 177.191 14.1315 177.701 13.7024C178.21 13.2642 178.792 13.0452 179.444 13.0452ZM183.957 18.7184C184.529 18.7184 185.097 18.3026 185.66 17.4711C186.232 16.6306 186.518 15.8482 186.518 15.124C186.518 14.3908 186.286 13.7918 185.821 13.3268C186.045 13.1391 186.25 13.0452 186.438 13.0452C186.787 13.0452 186.961 13.5369 186.961 14.5205C186.961 15.504 186.854 16.4071 186.639 17.2296C186.425 18.0433 186.143 18.7362 185.794 19.3085C185.454 19.8807 185.065 20.3769 184.627 20.7972C183.778 21.6376 182.915 22.0579 182.039 22.0579C181.592 22.0579 181.257 21.9551 181.033 21.7494C180.801 21.5438 180.684 21.3024 180.684 21.0252C180.684 20.748 180.742 20.4976 180.859 20.2741C180.966 20.0506 181.131 19.9388 181.355 19.9388C181.578 19.9388 181.762 20.0014 181.905 20.1266C181.645 20.4574 181.516 20.7614 181.516 21.0386C181.516 21.4856 181.753 21.7092 182.227 21.7092C182.54 21.7092 182.902 21.5929 183.313 21.3605C183.724 21.1369 184.14 20.8151 184.56 20.3948C184.981 19.9835 185.365 19.4292 185.714 18.7318C186.071 18.0344 186.322 17.2788 186.465 16.4652C186.17 17.2431 185.772 17.8868 185.271 18.3965C184.779 18.9061 184.212 19.1609 183.568 19.1609C183.237 19.1609 182.969 19.0492 182.763 18.8256C182.566 18.5932 182.468 18.2802 182.468 17.8868C182.468 17.4934 182.616 16.8049 182.911 15.8214C183.215 14.8379 183.367 14.1941 183.367 13.8901C183.367 13.5772 183.25 13.4207 183.018 13.4207C182.848 13.4207 182.669 13.5369 182.481 13.7694C182.294 13.9929 182.142 14.3148 182.025 14.7351L181.797 14.6814C182.128 13.5906 182.607 13.0452 183.233 13.0452C183.814 13.0452 184.104 13.3581 184.104 13.984C184.104 14.2344 183.966 14.8558 183.689 15.8482C183.411 16.8407 183.273 17.4934 183.273 17.8064C183.273 18.4144 183.501 18.7184 183.957 18.7184ZM192.71 18.7586L192.348 16.1701H189.384L187.936 18.7586H188.767L188.727 19H186.796L186.849 18.7586H187.319C187.444 18.7586 187.538 18.696 187.6 18.5708L192.107 10.5506H192.536L193.636 18.5708C193.654 18.696 193.721 18.7586 193.837 18.7586H194.306L194.266 19H191.839L191.879 18.7586H192.71ZM191.772 11.9186L189.585 15.7946H192.295L191.772 11.9186ZM196.503 18.3428C196.503 18.6379 196.614 18.7854 196.838 18.7854C197.008 18.7854 197.191 18.6736 197.388 18.4501C197.585 18.2176 197.754 17.8913 197.898 17.4711L198.112 17.5247C197.728 18.6155 197.227 19.1609 196.61 19.1609C196.056 19.1609 195.778 18.8122 195.778 18.1148C195.778 17.4085 196.364 14.9318 197.535 10.6847L196.677 10.7518L196.664 10.5238C197.281 10.4433 197.857 10.3315 198.394 10.1885L198.582 10.3226C198.206 11.4224 197.763 12.9155 197.254 14.8021C196.753 16.6798 196.503 17.86 196.503 18.3428ZM200.293 18.2221L202.426 18.7049C202.891 18.8122 203.221 18.9553 203.418 19.1341C203.615 19.3219 203.713 19.5767 203.713 19.8986C203.713 20.4172 203.427 20.9045 202.855 21.3605C202.292 21.8254 201.648 22.0579 200.924 22.0579C200.199 22.0579 199.609 21.8925 199.153 21.5616C198.706 21.2308 198.483 20.8374 198.483 20.3814C198.483 20.0685 198.59 19.7689 198.805 19.4828C199.01 19.1967 199.319 18.9553 199.73 18.7586L199.998 18.8391C199.73 18.9732 199.524 19.1744 199.381 19.4426C199.238 19.7198 199.167 20.0104 199.167 20.3144C199.167 20.8151 199.332 21.1861 199.663 21.4275C199.994 21.6779 200.418 21.8031 200.937 21.8031C201.465 21.8031 201.947 21.6511 202.385 21.3471C202.833 21.052 203.056 20.6944 203.056 20.2741C203.056 19.8539 202.783 19.5812 202.238 19.456L199.931 18.9464C199.672 18.8927 199.471 18.772 199.328 18.5842C199.185 18.3965 199.113 18.1685 199.113 17.9002C199.113 17.632 199.225 17.3861 199.448 17.1626C199.672 16.9391 199.98 16.8273 200.374 16.8273H201.728L201.688 17.0151H200.374C200.186 17.0151 200.034 17.0732 199.918 17.1894C199.81 17.3056 199.757 17.4442 199.757 17.6052C199.757 17.936 199.936 18.1416 200.293 18.2221ZM202.546 13.2329L202.533 13.0452C202.783 13.0452 202.993 12.9871 203.163 12.8708C203.333 12.7456 203.418 12.5847 203.418 12.388C203.418 12.1913 203.275 12.0035 202.989 11.8247C203.132 11.5207 203.302 11.3687 203.499 11.3687C203.704 11.3687 203.856 11.4268 203.955 11.5431C204.062 11.6593 204.116 11.8068 204.116 11.9856C204.116 12.2986 203.973 12.5847 203.686 12.844C203.409 13.1033 203.029 13.2329 202.546 13.2329ZM200.092 15.5532C200.092 14.8915 200.325 14.3104 200.789 13.8096C201.263 13.3 201.845 13.0452 202.533 13.0452C203.016 13.0452 203.396 13.1748 203.673 13.4341C203.959 13.6845 204.102 14.0421 204.102 14.5071C204.102 15.2581 203.861 15.8661 203.378 16.3311C202.895 16.7871 202.332 17.0151 201.688 17.0151C201.196 17.0151 200.807 16.8899 200.521 16.6395C200.235 16.3802 200.092 16.0181 200.092 15.5532ZM202.52 13.3C202.028 13.3 201.625 13.5727 201.313 14.1181C201 14.6546 200.843 15.1329 200.843 15.5532C200.843 15.9734 200.919 16.2819 201.071 16.4786C201.232 16.6664 201.442 16.7602 201.701 16.7602C202.095 16.7602 202.47 16.5367 202.828 16.0896C203.186 15.6426 203.365 15.0793 203.365 14.3998C203.365 14.06 203.284 13.7918 203.123 13.5951C202.971 13.3984 202.77 13.3 202.52 13.3ZM205.32 17.0553C205.32 16.1344 205.588 15.2536 206.124 14.4132C206.384 14.0108 206.723 13.6845 207.144 13.4341C207.564 13.1748 208.042 13.0452 208.579 13.0452C209.124 13.0452 209.567 13.2285 209.907 13.5951C210.246 13.9616 210.416 14.4624 210.416 15.0972C210.416 15.732 210.3 16.3489 210.067 16.948C209.835 17.5471 209.468 18.0656 208.968 18.5038C208.467 18.9419 207.904 19.1609 207.278 19.1609C206.652 19.1609 206.169 18.9776 205.829 18.6111C205.49 18.2445 205.32 17.7259 205.32 17.0553ZM208.471 13.3402C207.989 13.3402 207.559 13.5816 207.184 14.0645C206.817 14.5473 206.554 15.0748 206.393 15.6471C206.241 16.2193 206.165 16.7558 206.165 17.2565C206.165 17.7482 206.263 18.1416 206.46 18.4367C206.665 18.7228 206.943 18.8659 207.291 18.8659C207.649 18.8659 207.98 18.7228 208.284 18.4367C208.597 18.1506 208.843 17.7974 209.021 17.3772C209.388 16.5188 209.571 15.7767 209.571 15.1508C209.571 14.516 209.473 14.0555 209.276 13.7694C209.079 13.4833 208.811 13.3402 208.471 13.3402Z" fill="#6082FA"/>
<path opacity="0.86" d="M218.493 5.68471C217.563 6.37318 216.839 7.33882 216.32 8.58165C215.802 9.81553 215.542 11.0941 215.542 12.4174C215.542 13.7318 215.846 14.6974 216.454 15.3144L216.267 15.5155C215.703 15.1668 215.274 14.6751 214.979 14.0402C214.693 13.4054 214.55 12.6991 214.55 11.9212C214.55 10.6426 214.899 9.39529 215.596 8.17929C216.302 6.95435 217.237 6.05576 218.399 5.48353L218.493 5.68471ZM223.019 5.85906H221.476L219.827 13.6915H221.382C221.955 13.6915 222.482 13.5127 222.965 13.1551C223.448 12.7974 223.837 12.3459 224.132 11.8005C224.74 10.6649 225.044 9.53388 225.044 8.40729C225.044 7.60259 224.856 6.97671 224.48 6.52965C224.114 6.08259 223.627 5.85906 223.019 5.85906ZM219.853 5.55059H223.099C223.993 5.55059 224.7 5.81435 225.218 6.34188C225.737 6.86047 225.996 7.58918 225.996 8.528C225.996 9.16282 225.884 9.80212 225.661 10.4459C225.446 11.0807 225.147 11.6664 224.762 12.2028C224.378 12.7304 223.881 13.164 223.273 13.5038C222.674 13.8346 222.022 14 221.315 14H218.07L218.11 13.7586H218.727C218.843 13.7586 218.915 13.6915 218.941 13.5574C220.014 8.47882 220.551 5.91718 220.551 5.87247C220.551 5.81882 220.502 5.792 220.403 5.792H219.813L219.853 5.55059Z" fill="#6082FA"/>
<path opacity="0.86" d="M232.067 15.4887C232.648 15.0416 232.939 14.5722 232.939 14.0805C232.939 13.8122 232.845 13.5932 232.657 13.4233C232.702 13.2176 232.805 13.0388 232.966 12.8868C233.136 12.7348 233.314 12.6588 233.502 12.6588C233.869 12.6588 234.052 12.8421 234.052 13.2087C234.052 13.5753 233.869 14.0089 233.502 14.5096C233.144 15.0193 232.702 15.4082 232.174 15.6765L232.067 15.4887ZM238.46 5.73835C238.978 5.50588 239.528 5.38965 240.109 5.38965C240.994 5.38965 241.692 5.65788 242.202 6.19435C242.72 6.72188 242.979 7.46847 242.979 8.43412C242.979 9.08682 242.872 9.74847 242.658 10.4191C242.443 11.0807 242.143 11.6932 241.759 12.2565C241.374 12.8198 240.874 13.2802 240.257 13.6379C239.64 13.9866 238.929 14.1609 238.124 14.1609C237.32 14.1609 236.658 13.8927 236.139 13.3562C235.63 12.8198 235.375 12.0419 235.375 11.0226C235.375 10.0033 235.652 8.97506 236.206 7.93788C236.77 6.90071 237.521 6.16753 238.46 5.73835ZM241.491 6.42235C241.133 5.96635 240.659 5.73835 240.069 5.73835C239.479 5.73835 238.934 5.93059 238.433 6.31506C237.932 6.69059 237.534 7.16894 237.239 7.75012C236.622 8.94824 236.314 10.1106 236.314 11.2372C236.314 12.0508 236.488 12.6856 236.837 13.1416C237.194 13.5887 237.668 13.8122 238.258 13.8122C238.858 13.8122 239.407 13.6245 239.908 13.2489C240.409 12.8645 240.811 12.3861 241.115 11.8139C241.732 10.6247 242.041 9.46235 242.041 8.32682C242.041 7.51318 241.857 6.87835 241.491 6.42235ZM246.157 8.16588L246.345 8.3C245.916 9.28353 245.54 10.4146 245.219 11.6932H245.326L245.54 11.1031C245.961 9.95859 246.376 9.16282 246.788 8.71576C247.199 8.26871 247.557 8.04518 247.861 8.04518C248.165 8.04518 248.388 8.14353 248.531 8.34024C248.683 8.53694 248.759 8.79176 248.759 9.10471C248.759 9.41765 248.701 9.69035 248.585 9.92282C248.469 10.1553 248.299 10.2715 248.075 10.2715C247.861 10.2715 247.682 10.2 247.539 10.0569C247.628 9.94071 247.713 9.77082 247.794 9.54729C247.874 9.32376 247.914 9.12706 247.914 8.95718C247.914 8.69788 247.807 8.56824 247.592 8.56824C247.369 8.56824 247.092 8.78729 246.761 9.22541C246.037 10.1732 245.424 11.7647 244.923 14L243.985 14.0805L245.299 8.66212L244.441 8.72918L244.427 8.50118C245.044 8.42071 245.621 8.30894 246.157 8.16588ZM253.294 13.3428C253.294 13.6379 253.405 13.7854 253.629 13.7854C253.799 13.7854 253.982 13.6736 254.179 13.4501C254.376 13.2176 254.545 12.8913 254.689 12.4711L254.903 12.5247C254.519 13.6155 254.018 14.1609 253.401 14.1609C252.847 14.1609 252.569 13.8122 252.569 13.1148C252.569 12.4085 253.155 9.93176 254.326 5.68471L253.468 5.75176L253.455 5.52376C254.072 5.44329 254.648 5.33153 255.185 5.18847L255.373 5.32259C254.997 6.42235 254.554 7.91553 254.045 9.80212C253.544 11.6798 253.294 12.86 253.294 13.3428ZM252.704 12.5113H252.569C252.015 13.6111 251.371 14.1609 250.638 14.1609C250.218 14.1609 249.865 13.9776 249.579 13.6111C249.301 13.2355 249.163 12.7795 249.163 12.2431C249.163 11.6976 249.234 11.1925 249.377 10.7275C249.521 10.2626 249.722 9.82894 249.981 9.42659C250.24 9.01529 250.585 8.68447 251.014 8.43412C251.443 8.17482 251.881 8.04518 252.328 8.04518C253.186 8.04518 253.794 8.42071 254.152 9.17176L253.964 9.41318C253.544 8.71576 253.021 8.36706 252.395 8.36706C252.011 8.36706 251.657 8.50565 251.336 8.78282C251.023 9.06 250.777 9.40871 250.598 9.82894C250.231 10.6873 250.048 11.4965 250.048 12.2565C250.048 12.7572 250.129 13.1327 250.289 13.3831C250.459 13.6334 250.683 13.7586 250.96 13.7586C251.345 13.7586 251.738 13.4367 252.14 12.7929C252.543 12.1402 252.9 11.2104 253.213 10.0033L252.704 12.5113ZM259.369 8.04518C259.843 8.04518 260.196 8.16141 260.429 8.39388C260.67 8.61741 260.791 8.94376 260.791 9.37294C260.791 9.79318 260.625 10.1598 260.295 10.4727C259.731 11.0092 258.895 11.2774 257.787 11.2774C257.456 11.2774 257.17 11.2506 256.928 11.1969V10.9421C257.241 10.9868 257.501 11.0092 257.706 11.0092C258.448 11.0092 259.021 10.8214 259.423 10.4459C259.834 10.0704 260.04 9.65906 260.04 9.212C260.04 8.97059 259.973 8.76941 259.839 8.60847C259.713 8.44753 259.499 8.36706 259.195 8.36706C258.9 8.36706 258.596 8.50565 258.283 8.78282C257.979 9.06 257.737 9.40424 257.559 9.81553C257.201 10.6828 257.022 11.4339 257.022 12.0687C257.022 13.2489 257.38 13.8391 258.095 13.8391C258.98 13.8391 259.629 13.3562 260.04 12.3906L260.254 12.4442C260.04 12.9896 259.727 13.4144 259.316 13.7184C258.913 14.0134 258.457 14.1609 257.948 14.1609C257.438 14.1609 257.009 13.9732 256.66 13.5976C256.311 13.2221 256.137 12.7169 256.137 12.0821C256.137 11.4473 256.258 10.8348 256.499 10.2447C256.741 9.64565 257.116 9.13153 257.626 8.70235C258.135 8.26424 258.717 8.04518 259.369 8.04518ZM263.976 8.16588L264.163 8.3C263.734 9.28353 263.359 10.4146 263.037 11.6932H263.144L263.359 11.1031C263.779 9.95859 264.195 9.16282 264.606 8.71576C265.017 8.26871 265.375 8.04518 265.679 8.04518C265.983 8.04518 266.206 8.14353 266.35 8.34024C266.502 8.53694 266.578 8.79176 266.578 9.10471C266.578 9.41765 266.519 9.69035 266.403 9.92282C266.287 10.1553 266.117 10.2715 265.894 10.2715C265.679 10.2715 265.5 10.2 265.357 10.0569C265.446 9.94071 265.531 9.77082 265.612 9.54729C265.692 9.32376 265.733 9.12706 265.733 8.95718C265.733 8.69788 265.625 8.56824 265.411 8.56824C265.187 8.56824 264.91 8.78729 264.579 9.22541C263.855 10.1732 263.242 11.7647 262.742 14L261.803 14.0805L263.117 8.66212L262.259 8.72918L262.246 8.50118C262.862 8.42071 263.439 8.30894 263.976 8.16588ZM267.223 13.9598C267.088 13.8167 267.021 13.6468 267.021 13.4501C267.021 13.2534 267.088 13.088 267.223 12.9539C267.366 12.8108 267.535 12.7393 267.732 12.7393C267.929 12.7393 268.094 12.8108 268.228 12.9539C268.371 13.088 268.443 13.2534 268.443 13.4501C268.443 13.6468 268.371 13.8167 268.228 13.9598C268.094 14.0939 267.929 14.1609 267.732 14.1609C267.535 14.1609 267.366 14.0939 267.223 13.9598ZM272.069 8.16588L272.257 8.3C271.828 9.28353 271.452 10.4146 271.13 11.6932H271.238L271.452 11.1031C271.873 9.95859 272.288 9.16282 272.7 8.71576C273.111 8.26871 273.469 8.04518 273.773 8.04518C274.077 8.04518 274.3 8.14353 274.443 8.34024C274.595 8.53694 274.671 8.79176 274.671 9.10471C274.671 9.41765 274.613 9.69035 274.497 9.92282C274.381 10.1553 274.211 10.2715 273.987 10.2715C273.773 10.2715 273.594 10.2 273.451 10.0569C273.54 9.94071 273.625 9.77082 273.706 9.54729C273.786 9.32376 273.826 9.12706 273.826 8.95718C273.826 8.69788 273.719 8.56824 273.504 8.56824C273.281 8.56824 273.004 8.78729 272.673 9.22541C271.949 10.1732 271.336 11.7647 270.835 14L269.897 14.0805L271.211 8.66212L270.353 8.72918L270.339 8.50118C270.956 8.42071 271.533 8.30894 272.069 8.16588ZM278.307 8.04518C278.781 8.04518 279.134 8.16141 279.367 8.39388C279.608 8.61741 279.729 8.94376 279.729 9.37294C279.729 9.79318 279.563 10.1598 279.232 10.4727C278.669 11.0092 277.833 11.2774 276.724 11.2774C276.394 11.2774 276.108 11.2506 275.866 11.1969V10.9421C276.179 10.9868 276.438 11.0092 276.644 11.0092C277.386 11.0092 277.958 10.8214 278.361 10.4459C278.772 10.0704 278.978 9.65906 278.978 9.212C278.978 8.97059 278.911 8.76941 278.776 8.60847C278.651 8.44753 278.437 8.36706 278.133 8.36706C277.838 8.36706 277.534 8.50565 277.221 8.78282C276.917 9.06 276.675 9.40424 276.496 9.81553C276.139 10.6828 275.96 11.4339 275.96 12.0687C275.96 13.2489 276.318 13.8391 277.033 13.8391C277.918 13.8391 278.566 13.3562 278.978 12.3906L279.192 12.4442C278.978 12.9896 278.665 13.4144 278.253 13.7184C277.851 14.0134 277.395 14.1609 276.885 14.1609C276.376 14.1609 275.947 13.9732 275.598 13.5976C275.249 13.2221 275.075 12.7169 275.075 12.0821C275.075 11.4473 275.196 10.8348 275.437 10.2447C275.678 9.64565 276.054 9.13153 276.564 8.70235C277.073 8.26424 277.654 8.04518 278.307 8.04518ZM283.235 8.36706C282.896 8.36706 282.605 8.46541 282.364 8.66212C282.122 8.85882 282.001 9.10918 282.001 9.41318C282.001 9.71718 282.127 9.99435 282.377 10.2447C282.627 10.4951 282.9 10.7052 283.195 10.8751C283.49 11.036 283.763 11.2506 284.013 11.5188C284.264 11.7871 284.389 12.0732 284.389 12.3772C284.389 12.9494 284.165 13.392 283.718 13.7049C283.28 14.0089 282.748 14.1609 282.122 14.1609C281.496 14.1609 280.946 14.0134 280.473 13.7184C280.625 13.4144 280.768 12.8868 280.902 12.1358L281.13 12.176C281.067 12.5426 281.036 12.8332 281.036 13.0478C281.036 13.2534 281.134 13.4456 281.331 13.6245C281.537 13.7944 281.827 13.8793 282.203 13.8793C282.587 13.8793 282.909 13.7631 283.168 13.5306C283.437 13.2981 283.571 12.9941 283.571 12.6186C283.571 12.3772 283.45 12.1447 283.209 11.9212C282.976 11.6887 282.717 11.4965 282.431 11.3445C282.153 11.1925 281.894 10.9779 281.653 10.7007C281.42 10.4235 281.304 10.1195 281.304 9.78871C281.304 9.29694 281.496 8.88565 281.881 8.55482C282.274 8.21506 282.788 8.04518 283.423 8.04518C283.915 8.04518 284.402 8.16588 284.885 8.40729C284.84 8.50565 284.764 8.72918 284.657 9.07788C284.559 9.42659 284.483 9.75741 284.429 10.0704L284.201 10.0301C284.255 9.744 284.281 9.47129 284.281 9.212C284.281 8.94376 284.192 8.73812 284.013 8.59506C283.843 8.44306 283.584 8.36706 283.235 8.36706ZM289.658 13.1551C289.658 13.0209 289.681 12.8064 289.725 12.5113H289.658C289.086 13.6111 288.424 14.1609 287.673 14.1609C286.869 14.1609 286.466 13.7139 286.466 12.8198C286.466 12.2386 286.672 11.1612 287.083 9.58753L287.325 8.66212L286.466 8.72918L286.453 8.50118C287.07 8.42071 287.647 8.30894 288.183 8.16588L288.371 8.3C287.62 10.6336 287.244 12.1268 287.244 12.7795C287.244 13.4322 287.49 13.7586 287.982 13.7586C288.393 13.7586 288.796 13.4591 289.189 12.86C289.591 12.252 289.922 11.4384 290.181 10.4191L290.637 8.66212L289.779 8.72918L289.766 8.50118C290.383 8.42071 290.959 8.30894 291.496 8.16588L291.684 8.3C291.371 9.22988 291.076 10.2268 290.798 11.2908C290.521 12.3548 290.383 13.0388 290.383 13.3428C290.383 13.6379 290.494 13.7854 290.718 13.7854C290.888 13.7854 291.071 13.6736 291.268 13.4501C291.464 13.2176 291.634 12.8913 291.777 12.4711L291.992 12.5247C291.608 13.6155 291.107 14.1609 290.49 14.1609C289.936 14.1609 289.658 13.8256 289.658 13.1551ZM294.213 13.3428C294.213 13.6379 294.325 13.7854 294.548 13.7854C294.718 13.7854 294.901 13.6736 295.098 13.4501C295.295 13.2176 295.465 12.8913 295.608 12.4711L295.822 12.5247C295.438 13.6155 294.937 14.1609 294.32 14.1609C293.766 14.1609 293.489 13.8122 293.489 13.1148C293.489 12.4085 294.074 9.93176 295.246 5.68471L294.387 5.75176L294.374 5.52376C294.991 5.44329 295.568 5.33153 296.104 5.18847L296.292 5.32259C295.916 6.42235 295.474 7.91553 294.964 9.80212C294.463 11.6798 294.213 12.86 294.213 13.3428ZM297.413 8.68894L297.48 8.43412H300.458L300.391 8.68894H297.413ZM299.546 6.78447L299.734 6.91859C299.528 7.54447 299.251 8.528 298.902 9.86918C298.562 11.2104 298.357 12.0776 298.285 12.4711C298.214 12.8555 298.178 13.1461 298.178 13.3428C298.178 13.6379 298.29 13.7854 298.513 13.7854C298.683 13.7854 298.866 13.6736 299.063 13.4501C299.26 13.2176 299.43 12.8913 299.573 12.4711L299.787 12.5247C299.403 13.6155 298.902 14.1609 298.285 14.1609C297.731 14.1609 297.454 13.8256 297.454 13.1551C297.454 12.6007 297.784 11.0539 298.446 8.51459L297.48 8.43412C297.972 8.43412 298.37 8.31788 298.674 8.08541C298.978 7.844 299.269 7.41035 299.546 6.78447ZM304.325 10.6336H303.011C302.6 12.5292 302.394 13.5261 302.394 13.6245C302.394 13.7139 302.443 13.7586 302.542 13.7586H303.521L303.48 14H300.624L300.664 13.7586H301.281C301.397 13.7586 301.469 13.6915 301.495 13.5574C302.568 8.47882 303.105 5.91718 303.105 5.87247C303.105 5.81882 303.056 5.792 302.957 5.792H302.367L302.407 5.55059H305.398C306.006 5.55059 306.507 5.72047 306.9 6.06024C307.294 6.4 307.491 6.86941 307.491 7.46847C307.491 8.41624 307.164 9.18071 306.511 9.76188C305.859 10.3431 305.13 10.6336 304.325 10.6336ZM305.251 5.85906H304.03L303.078 10.3252H304.339C304.983 10.3252 305.519 10.0122 305.948 9.38635C306.386 8.76047 306.605 8.10329 306.605 7.41482C306.605 6.96776 306.489 6.59671 306.257 6.30165C306.033 6.00659 305.698 5.85906 305.251 5.85906ZM311.53 13.1551C311.53 13.0209 311.552 12.8064 311.597 12.5113H311.53C310.958 13.6111 310.296 14.1609 309.545 14.1609C308.74 14.1609 308.338 13.7139 308.338 12.8198C308.338 12.2386 308.544 11.1612 308.955 9.58753L309.196 8.66212L308.338 8.72918L308.325 8.50118C308.942 8.42071 309.518 8.30894 310.055 8.16588L310.242 8.3C309.491 10.6336 309.116 12.1268 309.116 12.7795C309.116 13.4322 309.362 13.7586 309.854 13.7586C310.265 13.7586 310.667 13.4591 311.061 12.86C311.463 12.252 311.794 11.4384 312.053 10.4191L312.509 8.66212L311.651 8.72918L311.637 8.50118C312.254 8.42071 312.831 8.30894 313.367 8.16588L313.555 8.3C313.242 9.22988 312.947 10.2268 312.67 11.2908C312.393 12.3548 312.254 13.0388 312.254 13.3428C312.254 13.6379 312.366 13.7854 312.59 13.7854C312.759 13.7854 312.943 13.6736 313.139 13.4501C313.336 13.2176 313.506 12.8913 313.649 12.4711L313.864 12.5247C313.479 13.6155 312.978 14.1609 312.362 14.1609C311.807 14.1609 311.53 13.8256 311.53 13.1551ZM316.286 11.6932H316.393L316.608 11.1031C317.359 9.06447 318.181 8.04518 319.075 8.04518C319.496 8.04518 319.844 8.23294 320.122 8.60847C320.408 8.97506 320.551 9.43106 320.551 9.97647C320.551 10.5129 320.479 11.0136 320.336 11.4786C320.193 11.9435 319.992 12.3816 319.733 12.7929C319.473 13.1953 319.129 13.5261 318.7 13.7854C318.271 14.0358 317.833 14.1609 317.386 14.1609C316.939 14.1609 316.554 14.076 316.232 13.9061C315.91 13.7273 315.66 13.4948 315.481 13.2087L315.602 12.8466C316.031 13.5261 316.581 13.8659 317.251 13.8659C317.761 13.8659 318.204 13.6334 318.579 13.1685C318.955 12.6946 319.219 12.176 319.371 11.6127C319.531 11.0405 319.612 10.5174 319.612 10.0435C319.612 9.56071 319.531 9.19412 319.371 8.94376C319.219 8.68447 319.04 8.55482 318.834 8.55482C318.628 8.55482 318.423 8.64424 318.217 8.82306C318.011 8.99294 317.788 9.26118 317.547 9.62776C317.028 10.4325 316.541 11.7513 316.085 13.5842L315.682 13.1551L315.28 14.1609L315.052 14.0805L317.158 5.68471L316.299 5.75176L316.286 5.52376C316.903 5.44329 317.479 5.33153 318.016 5.18847L318.204 5.32259C317.479 7.43271 316.84 9.55624 316.286 11.6932ZM322.613 13.3428C322.613 13.6379 322.725 13.7854 322.949 13.7854C323.119 13.7854 323.302 13.6736 323.499 13.4501C323.695 13.2176 323.865 12.8913 324.008 12.4711L324.223 12.5247C323.838 13.6155 323.338 14.1609 322.721 14.1609C322.166 14.1609 321.889 13.8122 321.889 13.1148C321.889 12.4085 322.475 9.93176 323.646 5.68471L322.788 5.75176L322.774 5.52376C323.391 5.44329 323.968 5.33153 324.505 5.18847L324.692 5.32259C324.317 6.42235 323.874 7.91553 323.365 9.80212C322.864 11.6798 322.613 12.86 322.613 13.3428ZM327.37 6.704C327.253 6.58776 327.195 6.44471 327.195 6.27482C327.195 6.10494 327.253 5.96188 327.37 5.84565C327.486 5.72941 327.629 5.67129 327.799 5.67129C327.969 5.67129 328.112 5.72941 328.228 5.84565C328.344 5.96188 328.402 6.10494 328.402 6.27482C328.402 6.44471 328.344 6.58776 328.228 6.704C328.112 6.82024 327.969 6.87835 327.799 6.87835C327.629 6.87835 327.486 6.82024 327.37 6.704ZM325.854 13.1551C325.854 12.6812 326.18 11.1835 326.833 8.66212L325.975 8.72918L325.961 8.50118C326.578 8.42071 327.155 8.30894 327.691 8.16588L327.879 8.3C327.566 9.22988 327.271 10.2268 326.994 11.2908C326.717 12.3548 326.578 13.0388 326.578 13.3428C326.578 13.6379 326.69 13.7854 326.914 13.7854C327.083 13.7854 327.267 13.6736 327.463 13.4501C327.66 13.2176 327.83 12.8913 327.973 12.4711L328.188 12.5247C327.803 13.6155 327.303 14.1609 326.686 14.1609C326.131 14.1609 325.854 13.8256 325.854 13.1551ZM332.592 8.36706C332.225 8.36706 331.885 8.50565 331.572 8.78282C331.268 9.06 331.027 9.40424 330.848 9.81553C330.491 10.6828 330.312 11.4339 330.312 12.0687C330.312 13.2489 330.669 13.8391 331.385 13.8391C332.27 13.8391 332.918 13.3562 333.329 12.3906L333.544 12.4442C333.329 12.9896 333.016 13.4144 332.605 13.7184C332.203 14.0134 331.747 14.1609 331.237 14.1609C330.727 14.1609 330.298 13.9732 329.95 13.5976C329.601 13.2221 329.427 12.7169 329.427 12.0821C329.427 11.4473 329.547 10.8348 329.789 10.2447C330.03 9.64565 330.406 9.13153 330.915 8.70235C331.425 8.26424 332.006 8.04518 332.659 8.04518C333.106 8.04518 333.441 8.16141 333.665 8.39388C333.897 8.61741 334.013 8.89012 334.013 9.212C334.013 9.52494 333.955 9.80659 333.839 10.0569C333.732 10.3073 333.557 10.4325 333.316 10.4325C333.083 10.4325 332.909 10.3609 332.793 10.2179C333.052 9.82447 333.182 9.44 333.182 9.06447C333.182 8.59953 332.985 8.36706 332.592 8.36706ZM338.003 5.97976L336.393 13.6245C336.393 13.7139 336.443 13.7586 336.541 13.7586H337.131L337.091 14H334.623L334.663 13.7586H335.28C335.396 13.7586 335.468 13.6915 335.495 13.5574C336.568 8.47882 337.104 5.91718 337.104 5.87247C337.104 5.81882 337.055 5.792 336.957 5.792H336.367L336.407 5.55059H338.875L338.834 5.792H338.231C338.115 5.792 338.039 5.85459 338.003 5.97976ZM339.921 11.6529L339.948 12.8868C339.965 13.4412 340.113 13.7184 340.39 13.7184C340.569 13.7184 340.716 13.6245 340.833 13.4367C340.958 13.2489 341.02 13.0075 341.02 12.7125L341.275 12.6722C341.275 13.1282 341.155 13.4904 340.913 13.7586C340.681 14.0268 340.386 14.1609 340.028 14.1609C339.393 14.1609 339.058 13.6826 339.022 12.7259L338.968 11.4115C338.942 10.8304 338.821 10.428 338.606 10.2045C338.392 9.972 338.039 9.85576 337.547 9.85576L337.614 9.64118L341.436 5.792H340.806L340.846 5.55059H342.576L342.536 5.792H342.187C342.044 5.792 341.915 5.85459 341.798 5.97976L338.164 9.61435C338.808 9.62329 339.255 9.81106 339.505 10.1776C339.764 10.5442 339.903 11.036 339.921 11.6529ZM346.149 8.04518C346.622 8.04518 346.976 8.16141 347.208 8.39388C347.45 8.61741 347.57 8.94376 347.57 9.37294C347.57 9.79318 347.405 10.1598 347.074 10.4727C346.511 11.0092 345.675 11.2774 344.566 11.2774C344.235 11.2774 343.949 11.2506 343.708 11.1969V10.9421C344.021 10.9868 344.28 11.0092 344.486 11.0092C345.228 11.0092 345.8 10.8214 346.202 10.4459C346.614 10.0704 346.819 9.65906 346.819 9.212C346.819 8.97059 346.752 8.76941 346.618 8.60847C346.493 8.44753 346.278 8.36706 345.974 8.36706C345.679 8.36706 345.375 8.50565 345.062 8.78282C344.758 9.06 344.517 9.40424 344.338 9.81553C343.98 10.6828 343.802 11.4339 343.802 12.0687C343.802 13.2489 344.159 13.8391 344.874 13.8391C345.76 13.8391 346.408 13.3562 346.819 12.3906L347.034 12.4442C346.819 12.9896 346.506 13.4144 346.095 13.7184C345.693 14.0134 345.237 14.1609 344.727 14.1609C344.217 14.1609 343.788 13.9732 343.439 13.5976C343.091 13.2221 342.916 12.7169 342.916 12.0821C342.916 11.4473 343.037 10.8348 343.278 10.2447C343.52 9.64565 343.895 9.13153 344.405 8.70235C344.915 8.26424 345.496 8.04518 346.149 8.04518ZM350.661 13.7184C351.233 13.7184 351.801 13.3026 352.364 12.4711C352.937 11.6306 353.223 10.8482 353.223 10.124C353.223 9.39082 352.99 8.79176 352.525 8.32682C352.749 8.13906 352.955 8.04518 353.142 8.04518C353.491 8.04518 353.665 8.53694 353.665 9.52047C353.665 10.504 353.558 11.4071 353.343 12.2296C353.129 13.0433 352.847 13.7362 352.499 14.3085C352.159 14.8807 351.77 15.3769 351.332 15.7972C350.482 16.6376 349.619 17.0579 348.743 17.0579C348.296 17.0579 347.961 16.9551 347.737 16.7494C347.505 16.5438 347.389 16.3024 347.389 16.0252C347.389 15.748 347.447 15.4976 347.563 15.2741C347.67 15.0506 347.836 14.9388 348.059 14.9388C348.283 14.9388 348.466 15.0014 348.609 15.1266C348.35 15.4574 348.22 15.7614 348.22 16.0386C348.22 16.4856 348.457 16.7092 348.931 16.7092C349.244 16.7092 349.606 16.5929 350.017 16.3605C350.429 16.1369 350.844 15.8151 351.265 15.3948C351.685 14.9835 352.069 14.4292 352.418 13.7318C352.776 13.0344 353.026 12.2788 353.169 11.4652C352.874 12.2431 352.476 12.8868 351.975 13.3965C351.484 13.9061 350.916 14.1609 350.272 14.1609C349.941 14.1609 349.673 14.0492 349.467 13.8256C349.271 13.5932 349.172 13.2802 349.172 12.8868C349.172 12.4934 349.32 11.8049 349.615 10.8214C349.919 9.83788 350.071 9.19412 350.071 8.89012C350.071 8.57718 349.955 8.42071 349.722 8.42071C349.552 8.42071 349.374 8.53694 349.186 8.76941C348.998 8.99294 348.846 9.31482 348.73 9.73506L348.502 9.68141C348.833 8.59059 349.311 8.04518 349.937 8.04518C350.518 8.04518 350.809 8.35812 350.809 8.984C350.809 9.23435 350.67 9.85576 350.393 10.8482C350.116 11.8407 349.977 12.4934 349.977 12.8064C349.977 13.4144 350.205 13.7184 350.661 13.7184ZM353.956 15.3144C354.85 14.6348 355.561 13.6647 356.089 12.404C356.616 11.1433 356.88 9.86918 356.88 8.58165C356.88 7.28518 356.58 6.31953 355.981 5.68471L356.142 5.48353C356.723 5.83224 357.157 6.324 357.443 6.95882C357.729 7.58471 357.872 8.29106 357.872 9.07788C357.872 10.3565 357.519 11.6082 356.813 12.8332C356.115 14.0581 355.181 14.9522 354.01 15.5155L353.956 15.3144Z" fill="#6082FA"/>
<path opacity="0.86" d="M227.548 15.105C227.134 15.105 226.77 15 226.455 14.7901C226.35 14.7259 226.277 14.6939 226.236 14.6939C226.131 14.6939 226.064 14.7959 226.035 15H225.869L226.175 13.5393H226.332C226.327 13.5859 226.324 13.6559 226.324 13.7492C226.324 14.1282 226.432 14.4081 226.647 14.5889C226.869 14.7638 227.169 14.8513 227.548 14.8513C227.933 14.8513 228.254 14.7172 228.51 14.449C228.773 14.1749 228.904 13.8629 228.904 13.513C228.904 13.1573 228.723 12.892 228.362 12.7171L227.662 12.3585C227.114 12.0902 226.84 11.6733 226.84 11.1077C226.84 10.6645 227.012 10.268 227.356 9.91811C227.7 9.5624 228.131 9.38455 228.65 9.38455C228.994 9.38455 229.306 9.48077 229.586 9.6732C229.679 9.73734 229.744 9.76941 229.779 9.76941C229.837 9.76941 229.886 9.70818 229.927 9.58573L229.971 9.43703H230.128L229.805 10.9502H229.656C229.668 10.8336 229.674 10.7491 229.674 10.6966C229.674 10.335 229.58 10.0697 229.394 9.90061C229.213 9.72568 228.951 9.63821 228.607 9.63821C228.263 9.63821 227.968 9.7665 227.723 10.0231C227.484 10.2796 227.365 10.5683 227.365 10.889C227.365 11.2855 227.542 11.5771 227.898 11.7637L228.799 12.2273C229.283 12.478 229.525 12.8337 229.525 13.2944C229.525 13.7492 229.327 14.1661 228.93 14.5452C228.534 14.9184 228.073 15.105 227.548 15.105Z" fill="#6082FA"/>
<path opacity="0.86" d="M7.62459 4.78859H5.31106L2.83659 16.5373H5.17024C6.02859 16.5373 6.81988 16.2691 7.54412 15.7326C8.26835 15.1961 8.85177 14.5188 9.29435 13.7007C10.2064 11.9974 10.6624 10.3008 10.6624 8.61094C10.6624 7.40388 10.3807 6.46506 9.81741 5.79447C9.26753 5.12388 8.53659 4.78859 7.62459 4.78859ZM2.87682 4.32588H7.74529C9.08647 4.32588 10.146 4.72153 10.9239 5.51282C11.7018 6.29071 12.0907 7.38376 12.0907 8.792C12.0907 9.74423 11.9231 10.7032 11.5878 11.6688C11.2659 12.6211 10.8166 13.4995 10.2399 14.3042C9.66318 15.0955 8.91882 15.746 8.00682 16.2556C7.10824 16.7519 6.12918 17 5.06965 17H0.201176L0.261529 16.6379H1.18694C1.36129 16.6379 1.46859 16.5373 1.50882 16.3361C3.11824 8.71824 3.92294 4.87576 3.92294 4.80871C3.92294 4.72823 3.84918 4.688 3.70165 4.688H2.81647L2.87682 4.32588Z" fill="#6082FA"/>
<path opacity="0.86" d="M13.2508 12.4895H15.8836C16.3268 12.4895 16.6416 12.4633 16.8282 12.4108C16.7408 12.6149 16.6358 12.991 16.5134 13.5391L16.4259 13.9502H16.2335L16.3472 12.8394C16.3472 12.7403 16.283 12.6907 16.1547 12.6907H14.3092L13.7931 15.1223H15.5599C15.6183 15.1165 15.6591 15.0757 15.6824 14.9998L15.8573 14.4575H16.006L15.6649 16.032H15.5162L15.5949 15.4897C15.5949 15.408 15.5629 15.3672 15.4987 15.3672H13.7494L13.2333 17.7988H15.1663C15.3063 17.7988 15.3967 17.7347 15.4375 17.6064L15.8049 16.5393H15.9973L15.9098 16.9504C15.799 17.4694 15.7436 17.8455 15.7436 18.0787C15.5745 18.0262 15.2742 18 14.8427 18H12.0875L12.1137 17.8426H12.5161C12.5919 17.8426 12.6385 17.7988 12.656 17.7114C13.3558 14.3992 13.7056 12.7286 13.7056 12.6994C13.7056 12.6644 13.6736 12.647 13.6094 12.647H13.2246L13.2508 12.4895Z" fill="#6082FA"/>
</svg>
