<svg width="92" height="23" viewBox="0 0 92 23" fill="none" xmlns="http://www.w3.org/2000/svg">
<path opacity="0.86" d="M7.62459 5.78859H5.31106L2.83659 17.5373H5.17024C6.02859 17.5373 6.81988 17.2691 7.54412 16.7326C8.26835 16.1961 8.85177 15.5188 9.29435 14.7007C10.2064 12.9974 10.6624 11.3008 10.6624 9.61094C10.6624 8.40388 10.3807 7.46506 9.81741 6.79447C9.26753 6.12388 8.53659 5.78859 7.62459 5.78859ZM2.87682 5.32588H7.74529C9.08647 5.32588 10.146 5.72153 10.9239 6.51282C11.7018 7.29071 12.0907 8.38376 12.0907 9.792C12.0907 10.7442 11.9231 11.7032 11.5878 12.6688C11.2659 13.6211 10.8166 14.4995 10.2399 15.3042C9.66318 16.0955 8.91882 16.746 8.00682 17.2556C7.10824 17.7519 6.12918 18 5.06965 18H0.201176L0.261529 17.6379H1.18694C1.36129 17.6379 1.46859 17.5373 1.50882 17.3361C3.11824 9.71824 3.92294 5.87576 3.92294 5.80871C3.92294 5.72823 3.84918 5.688 3.70165 5.688H2.81647L2.87682 5.32588ZM26.924 12.87H19.4201L19.6414 11.8038H27.1453L26.924 12.87ZM26.1998 16.29H18.6959L18.9172 15.2238H26.4211L26.1998 16.29Z" fill="#6082FA"/>
<path opacity="0.86" d="M31.776 12.792V12.856C32.1493 12.9733 32.4213 13.1653 32.592 13.432C32.7733 13.6987 32.864 14.088 32.864 14.6V16.632C32.864 17.24 32.9867 17.6773 33.232 17.944C33.3493 18.0613 33.5947 18.2693 33.968 18.568L33.808 18.808C33.4773 18.6373 33.2587 18.5253 33.152 18.472C33.0453 18.4187 32.88 18.3227 32.656 18.184C32.4427 18.056 32.3093 17.9653 32.256 17.912C32.2133 17.8587 32.128 17.768 32 17.64C31.8827 17.512 31.8133 17.4 31.792 17.304C31.7813 17.2187 31.7493 17.08 31.696 16.888C31.6533 16.6853 31.632 16.296 31.632 15.72V13.912C31.632 13.6027 31.568 13.3627 31.44 13.192C31.312 13.0213 31.072 12.936 30.72 12.936V12.712C31.072 12.712 31.312 12.6267 31.44 12.456C31.568 12.2853 31.632 12.0453 31.632 11.736V9.928C31.632 9.352 31.6533 8.968 31.696 8.776C31.7493 8.57333 31.7813 8.42933 31.792 8.344C31.8133 8.248 31.8827 8.136 32 8.008C32.128 7.88 32.2133 7.78933 32.256 7.736C32.3093 7.68267 32.4427 7.592 32.656 7.464C32.88 7.32533 33.0453 7.22933 33.152 7.176C33.2587 7.12267 33.4773 7.01067 33.808 6.84L33.968 7.08C33.5947 7.37867 33.3493 7.58667 33.232 7.704C32.9867 7.97067 32.864 8.408 32.864 9.016V11.048C32.864 11.56 32.7733 11.9493 32.592 12.216C32.4213 12.4827 32.1493 12.6747 31.776 12.792Z" fill="#6082FA"/>
<path opacity="0.86" d="M90.832 12.856V12.792C90.4587 12.6747 90.1813 12.4827 90 12.216C89.8293 11.9493 89.744 11.56 89.744 11.048V9.016C89.744 8.408 89.6213 7.97067 89.376 7.704C89.2587 7.58667 89.0133 7.37867 88.64 7.08L88.8 6.84C89.1307 7.01067 89.3493 7.12267 89.456 7.176C89.5627 7.22933 89.7227 7.32533 89.936 7.464C90.16 7.592 90.2933 7.68267 90.336 7.736C90.3893 7.78933 90.4747 7.88 90.592 8.008C90.72 8.136 90.7893 8.248 90.8 8.344C90.8213 8.42933 90.8533 8.57333 90.896 8.776C90.9493 8.968 90.976 9.352 90.976 9.928V11.736C90.976 12.0453 91.04 12.2853 91.168 12.456C91.296 12.6267 91.536 12.712 91.888 12.712V12.936C91.536 12.936 91.296 13.0213 91.168 13.192C91.04 13.3627 90.976 13.6027 90.976 13.912V15.72C90.976 16.296 90.9493 16.6853 90.896 16.888C90.8533 17.08 90.8213 17.2187 90.8 17.304C90.7893 17.4 90.72 17.512 90.592 17.64C90.4747 17.768 90.3893 17.8587 90.336 17.912C90.2933 17.9653 90.16 18.056 89.936 18.184C89.7227 18.3227 89.5627 18.4187 89.456 18.472C89.3493 18.5253 89.1307 18.6373 88.8 18.808L88.64 18.568C89.0133 18.2693 89.2587 18.0613 89.376 17.944C89.6213 17.6773 89.744 17.24 89.744 16.632V14.6C89.744 14.088 89.8293 13.6987 90 13.432C90.1813 13.1653 90.4587 12.9733 90.832 12.856Z" fill="#6082FA"/>
<path opacity="0.86" d="M47.0656 17.4563C47.6341 17.019 47.9184 16.5598 47.9184 16.0787C47.9184 15.8163 47.8266 15.602 47.6429 15.4358C47.6866 15.2347 47.7872 15.0597 47.9447 14.911C48.1108 14.7623 48.2858 14.688 48.4695 14.688C48.8281 14.688 49.0074 14.8673 49.0074 15.2259C49.0074 15.5845 48.8281 16.0087 48.4695 16.4986C48.1196 16.9971 47.6866 17.3776 47.1706 17.64L47.0656 17.4563Z" fill="#6082FA"/>
<path opacity="0.86" d="M64.761 15.9606C64.6298 15.8207 64.5642 15.6545 64.5642 15.4621C64.5642 15.2696 64.6298 15.1078 64.761 14.9766C64.9009 14.8367 65.0671 14.7667 65.2595 14.7667C65.452 14.7667 65.6138 14.8367 65.745 14.9766C65.8849 15.1078 65.9549 15.2696 65.9549 15.4621C65.9549 15.6545 65.8849 15.8207 65.745 15.9606C65.6138 16.0918 65.452 16.1574 65.2595 16.1574C65.0671 16.1574 64.9009 16.0918 64.761 15.9606ZM67.5475 15.9606C67.4163 15.8207 67.3507 15.6545 67.3507 15.4621C67.3507 15.2696 67.4163 15.1078 67.5475 14.9766C67.6874 14.8367 67.8536 14.7667 68.046 14.7667C68.2385 14.7667 68.4003 14.8367 68.5315 14.9766C68.6714 15.1078 68.7414 15.2696 68.7414 15.4621C68.7414 15.6545 68.6714 15.8207 68.5315 15.9606C68.4003 16.0918 68.2385 16.1574 68.046 16.1574C67.8536 16.1574 67.6874 16.0918 67.5475 15.9606ZM70.334 15.9606C70.2028 15.8207 70.1372 15.6545 70.1372 15.4621C70.1372 15.2696 70.2028 15.1078 70.334 14.9766C70.4739 14.8367 70.6401 14.7667 70.8326 14.7667C71.025 14.7667 71.1868 14.8367 71.318 14.9766C71.4579 15.1078 71.5279 15.2696 71.5279 15.4621C71.5279 15.6545 71.4579 15.8207 71.318 15.9606C71.1868 16.0918 71.025 16.1574 70.8326 16.1574C70.6401 16.1574 70.4739 16.0918 70.334 15.9606Z" fill="#6082FA"/>
<path opacity="0.86" d="M39.5658 15.3571C39.5658 15.6458 39.6752 15.7901 39.8938 15.7901C40.06 15.7901 40.2393 15.6807 40.4318 15.4621C40.6242 15.2347 40.7904 14.9154 40.9303 14.5043L41.1403 14.5568C40.7641 15.6239 40.2743 16.1574 39.6708 16.1574C39.1285 16.1574 38.8573 15.8163 38.8573 15.1341C38.8573 14.4431 39.4303 12.0202 40.5761 7.86547L39.7364 7.93107L39.7233 7.70803C40.3268 7.62931 40.891 7.51997 41.4158 7.38003L41.5995 7.51123C41.2321 8.58708 40.7991 10.0478 40.3006 11.8934C39.8107 13.7302 39.5658 14.8848 39.5658 15.3571ZM38.9885 14.5437H38.8573C38.315 15.6195 37.6853 16.1574 36.968 16.1574C36.5569 16.1574 36.2114 15.9781 35.9315 15.6195C35.6604 15.2521 35.5248 14.8061 35.5248 14.2813C35.5248 13.7477 35.5948 13.2535 35.7347 12.7987C35.8747 12.3438 36.0715 11.9196 36.3251 11.526C36.5788 11.1237 36.9156 10.8 37.3354 10.5551C37.7552 10.3015 38.1838 10.1746 38.6212 10.1746C39.4609 10.1746 40.0557 10.542 40.4055 11.2767L40.2218 11.5129C39.8107 10.8306 39.2991 10.4895 38.6868 10.4895C38.3107 10.4895 37.9652 10.6251 37.6503 10.8962C37.3441 11.1674 37.1036 11.5085 36.9287 11.9196C36.5701 12.7593 36.3907 13.5509 36.3907 14.2944C36.3907 14.7842 36.4695 15.1516 36.6269 15.3965C36.7931 15.6414 37.0118 15.7638 37.2829 15.7638C37.659 15.7638 38.0439 15.449 38.4375 14.8192C38.8311 14.1807 39.181 13.271 39.4871 12.0902L38.9885 14.5437Z" fill="#6082FA"/>
<path opacity="0.86" d="M44.3831 12.9221L44.3918 12.8434C44.3918 12.7501 44.3219 12.7034 44.1819 12.7034L43.246 12.7559L43.2723 12.546L44.0595 12.4323C44.5551 12.3565 44.9516 12.2632 45.249 12.1524C45.1441 12.374 45.0449 12.7064 44.9516 13.1495L44.0945 17.2168H43.4734L44.3831 12.9221ZM44.1557 16.9282L44.1469 16.9631C44.1469 17.0215 44.1819 17.0506 44.2519 17.0506H45.0391L45.0041 17.2168H42.3888L42.4238 17.0506H43.3947C43.4705 17.0506 43.5172 17.0098 43.5347 16.9282H44.1557Z" fill="#6082FA"/>
<path opacity="0.86" d="M54.5658 15.3571C54.5658 15.6458 54.6752 15.7901 54.8938 15.7901C55.06 15.7901 55.2393 15.6807 55.4318 15.4621C55.6242 15.2347 55.7904 14.9154 55.9303 14.5043L56.1403 14.5568C55.7641 15.6239 55.2743 16.1574 54.6708 16.1574C54.1285 16.1574 53.8573 15.8163 53.8573 15.1341C53.8573 14.4431 54.4303 12.0202 55.5761 7.86547L54.7364 7.93107L54.7233 7.70803C55.3268 7.62931 55.891 7.51997 56.4158 7.38003L56.5995 7.51123C56.2321 8.58708 55.7991 10.0478 55.3006 11.8934C54.8107 13.7302 54.5658 14.8848 54.5658 15.3571ZM53.9885 14.5437H53.8573C53.315 15.6195 52.6853 16.1574 51.968 16.1574C51.5569 16.1574 51.2114 15.9781 50.9315 15.6195C50.6604 15.2521 50.5248 14.8061 50.5248 14.2813C50.5248 13.7477 50.5948 13.2535 50.7347 12.7987C50.8747 12.3438 51.0715 11.9196 51.3251 11.526C51.5788 11.1237 51.9156 10.8 52.3354 10.5551C52.7552 10.3015 53.1838 10.1746 53.6212 10.1746C54.4609 10.1746 55.0557 10.542 55.4055 11.2767L55.2218 11.5129C54.8107 10.8306 54.2991 10.4895 53.6868 10.4895C53.3107 10.4895 52.9652 10.6251 52.6503 10.8962C52.3441 11.1674 52.1036 11.5085 51.9287 11.9196C51.5701 12.7593 51.3907 13.5509 51.3907 14.2944C51.3907 14.7842 51.4695 15.1516 51.6269 15.3965C51.7931 15.6414 52.0118 15.7638 52.2829 15.7638C52.659 15.7638 53.0439 15.449 53.4375 14.8192C53.8311 14.1807 54.181 13.271 54.4871 12.0902L53.9885 14.5437Z" fill="#6082FA"/>
<path opacity="0.86" d="M60.4065 12.3448C60.0916 12.3448 59.8525 12.444 59.6892 12.6422C59.526 12.8405 59.4443 13.0825 59.4443 13.3682C59.4443 13.4498 59.4531 13.5256 59.4706 13.5956C59.3598 13.6831 59.2227 13.7268 59.0595 13.7268C58.9137 13.7268 58.8408 13.6335 58.8408 13.4469C58.8408 13.0971 58.9837 12.7938 59.2694 12.5373C59.5551 12.2807 59.9225 12.1524 60.3715 12.1524C60.8205 12.1524 61.15 12.2428 61.3599 12.4235C61.5756 12.5985 61.6835 12.8201 61.6835 13.0883C61.6835 13.3565 61.631 13.5752 61.5261 13.7443C61.4269 13.9076 61.3482 14.033 61.2899 14.1204C61.2316 14.2079 61.1412 14.3158 61.0188 14.4441C60.8963 14.5665 60.803 14.6598 60.7389 14.724C60.6747 14.7823 60.5698 14.8756 60.424 15.0039C60.2782 15.1321 60.1849 15.2167 60.1441 15.2575L58.6046 16.6657H60.6077C60.7359 16.6657 60.8263 16.6016 60.8788 16.4733L61.15 15.7123H61.3336L61.2462 16.1322C61.1412 16.6395 61.0887 17.0273 61.0887 17.2955C60.908 17.243 60.596 17.2168 60.1528 17.2168H57.695L60.0479 15.0301C60.4036 14.7035 60.6543 14.3566 60.8001 13.9892C60.9517 13.616 61.0275 13.3011 61.0275 13.0446C61.0275 12.5781 60.8205 12.3448 60.4065 12.3448Z" fill="#6082FA"/>
<path opacity="0.86" d="M78.5658 15.3571C78.5658 15.6458 78.6752 15.7901 78.8938 15.7901C79.06 15.7901 79.2393 15.6807 79.4318 15.4621C79.6242 15.2347 79.7904 14.9154 79.9303 14.5043L80.1403 14.5568C79.7641 15.6239 79.2743 16.1574 78.6708 16.1574C78.1285 16.1574 77.8573 15.8163 77.8573 15.1341C77.8573 14.4431 78.4303 12.0202 79.5761 7.86547L78.7364 7.93107L78.7233 7.70803C79.3268 7.62931 79.891 7.51997 80.4158 7.38003L80.5995 7.51123C80.2321 8.58708 79.7991 10.0478 79.3006 11.8934C78.8107 13.7302 78.5658 14.8848 78.5658 15.3571ZM77.9885 14.5437H77.8573C77.315 15.6195 76.6853 16.1574 75.968 16.1574C75.5569 16.1574 75.2114 15.9781 74.9315 15.6195C74.6604 15.2521 74.5248 14.8061 74.5248 14.2813C74.5248 13.7477 74.5948 13.2535 74.7347 12.7987C74.8747 12.3438 75.0715 11.9196 75.3251 11.526C75.5788 11.1237 75.9156 10.8 76.3354 10.5551C76.7552 10.3015 77.1838 10.1746 77.6212 10.1746C78.4609 10.1746 79.0557 10.542 79.4055 11.2767L79.2218 11.5129C78.8107 10.8306 78.2991 10.4895 77.6868 10.4895C77.3107 10.4895 76.9652 10.6251 76.6503 10.8962C76.3441 11.1674 76.1036 11.5085 75.9287 11.9196C75.5701 12.7593 75.3907 13.5509 75.3907 14.2944C75.3907 14.7842 75.4695 15.1516 75.6269 15.3965C75.7931 15.6414 76.0118 15.7638 76.2829 15.7638C76.659 15.7638 77.0439 15.449 77.4375 14.8192C77.8311 14.1807 78.181 13.271 78.4871 12.0902L77.9885 14.5437Z" fill="#6082FA"/>
<path opacity="0.86" d="M85.7447 14.1292C85.7447 14.3799 85.6019 14.8406 85.3161 15.5112C85.0362 16.1818 84.8963 16.6104 84.8963 16.797C84.8963 16.9835 84.9692 17.0768 85.115 17.0768C85.2258 17.0768 85.3453 17.004 85.4736 16.8582C85.6019 16.7066 85.7127 16.4937 85.806 16.2197L85.9459 16.2546C85.6952 16.9661 85.3686 17.3218 84.9663 17.3218C84.6047 17.3218 84.424 17.1235 84.424 16.727C84.424 16.5579 84.5552 16.138 84.8176 15.4674C85.0858 14.7968 85.2199 14.3653 85.2199 14.1729C85.2199 13.8055 85.0858 13.6219 84.8176 13.6219C84.526 13.6219 84.2111 13.858 83.8729 14.3304C83.4822 14.896 83.1353 15.8581 82.8321 17.2168L82.2198 17.2693L83.077 13.7356L82.5172 13.7793L82.5084 13.6306C82.9108 13.5781 83.2869 13.5052 83.6368 13.4119L83.7592 13.4994C83.4793 14.1408 83.2344 14.8785 83.0245 15.7123H83.0945L83.2344 15.3275C83.5493 14.447 83.8904 13.8755 84.2578 13.6131C84.4327 13.4965 84.5756 13.4207 84.6864 13.3857C84.803 13.3507 84.9459 13.3332 85.115 13.3332C85.2899 13.3332 85.4386 13.4032 85.5611 13.5431C85.6835 13.6831 85.7447 13.8784 85.7447 14.1292Z" fill="#6082FA"/>
</svg>
