<svg width="279" height="23" viewBox="0 0 279 23" fill="none" xmlns="http://www.w3.org/2000/svg">
<path opacity="0.86" d="M4.05307 18.2414C3.10084 18.2414 2.2626 18 1.53837 17.5172C1.29695 17.3696 1.12931 17.2959 1.03543 17.2959C0.794013 17.2959 0.639778 17.5306 0.572719 18H0.190484L0.894602 14.6404H1.25672C1.24331 14.7476 1.2366 14.9086 1.2366 15.1232C1.2366 15.9949 1.48472 16.6387 1.98095 17.0545C2.4906 17.4568 3.18131 17.658 4.05307 17.658C4.93825 17.658 5.6759 17.3495 6.26601 16.7326C6.86954 16.1022 7.17131 15.3847 7.17131 14.58C7.17131 13.7619 6.75554 13.1516 5.92401 12.7493L4.3146 11.9245C3.0539 11.3075 2.42354 10.3486 2.42354 9.04765C2.42354 8.02835 2.81919 7.11635 3.61048 6.31165C4.40178 5.49353 5.39425 5.08447 6.5879 5.08447C7.37919 5.08447 8.09672 5.30576 8.74048 5.74835C8.95507 5.89588 9.1026 5.96965 9.18307 5.96965C9.31719 5.96965 9.43119 5.82882 9.52507 5.54718L9.62566 5.20518H9.98778L9.24343 8.68553H8.90143C8.92825 8.41729 8.94166 8.22282 8.94166 8.10212C8.94166 7.27059 8.72707 6.66035 8.2979 6.27141C7.88213 5.86906 7.2786 5.66788 6.48731 5.66788C5.69601 5.66788 5.01872 5.96294 4.45543 6.55306C3.90554 7.14318 3.6306 7.80706 3.6306 8.54471C3.6306 9.45671 4.03966 10.1273 4.85778 10.5565L6.9299 11.6227C8.04307 12.1994 8.59966 13.0175 8.59966 14.0771C8.59966 15.1232 8.14366 16.0821 7.23166 16.9539C6.31966 17.8122 5.26013 18.2414 4.05307 18.2414ZM11.4369 10.0334L11.5375 9.65118H16.0036L15.903 10.0334H11.4369ZM14.6356 7.1767L14.9172 7.37788C14.6088 8.31671 14.193 9.792 13.6699 11.8038C13.1603 13.8155 12.8518 15.1165 12.7445 15.7066C12.6372 16.2833 12.5836 16.7192 12.5836 17.0142C12.5836 17.4568 12.7512 17.6781 13.0865 17.6781C13.3413 17.6781 13.6163 17.5105 13.9113 17.1752C14.2064 16.8265 14.4612 16.3369 14.6758 15.7066L14.9977 15.7871C14.421 17.4233 13.6699 18.2414 12.7445 18.2414C11.913 18.2414 11.4972 17.7385 11.4972 16.7326C11.4972 15.9011 11.9935 13.5808 12.9859 9.77188L11.5375 9.65118C12.2751 9.65118 12.8719 9.47682 13.3279 9.12812C13.7839 8.766 14.2198 8.11553 14.6356 7.1767ZM16.8559 15.0829C16.8559 13.7015 17.2583 12.3805 18.063 11.1198C18.4519 10.5162 18.9616 10.0267 19.5919 9.65118C20.2223 9.26223 20.9398 9.06776 21.7445 9.06776C22.5626 9.06776 23.2265 9.34271 23.7361 9.89259C24.2458 10.4425 24.5006 11.1935 24.5006 12.1458C24.5006 13.098 24.3263 14.0234 23.9776 14.922C23.6289 15.8206 23.079 16.5985 22.3279 17.2556C21.5769 17.9128 20.7319 18.2414 19.7931 18.2414C18.8543 18.2414 18.13 17.9665 17.6204 17.4166C17.1107 16.8667 16.8559 16.0888 16.8559 15.0829ZM21.5836 9.51035C20.8593 9.51035 20.2156 9.87247 19.6523 10.5967C19.1024 11.3209 18.7067 12.1122 18.4653 12.9706C18.2373 13.8289 18.1233 14.6336 18.1233 15.3847C18.1233 16.1224 18.2709 16.7125 18.5659 17.1551C18.8744 17.5842 19.2901 17.7988 19.8132 17.7988C20.3497 17.7988 20.8459 17.5842 21.3019 17.1551C21.7713 16.7259 22.1401 16.1961 22.4084 15.5658C22.9583 14.2782 23.2332 13.1651 23.2332 12.2262C23.2332 11.274 23.0857 10.5833 22.7906 10.1541C22.4956 9.72494 22.0932 9.51035 21.5836 9.51035ZM29.8712 9.24882L30.1529 9.45C29.5091 10.9253 28.9458 12.6219 28.463 14.5398H28.6239L28.9458 13.6546C29.5762 11.9379 30.1998 10.7442 30.8168 10.0736C31.4337 9.40306 31.9702 9.06776 32.4262 9.06776C32.8822 9.06776 33.2175 9.21529 33.4321 9.51035C33.6601 9.80541 33.7741 10.1876 33.7741 10.6571C33.7741 11.1265 33.6869 11.5355 33.5125 11.8842C33.3382 12.2329 33.0834 12.4073 32.7481 12.4073C32.4262 12.4073 32.1579 12.3 31.9434 12.0854C32.0775 11.9111 32.2049 11.6562 32.3256 11.3209C32.4463 10.9856 32.5067 10.6906 32.5067 10.4358C32.5067 10.0468 32.3457 9.85235 32.0238 9.85235C31.6885 9.85235 31.2728 10.1809 30.7765 10.8381C29.6902 12.2598 28.7715 14.6471 28.0204 18L26.6122 18.1207L28.5837 9.99318L27.2962 10.0938L27.2761 9.75176C28.2015 9.63106 29.0665 9.46341 29.8712 9.24882ZM42.5271 9.45C42.0577 10.8448 41.6151 12.3402 41.1994 13.9362C40.7836 15.5322 40.5757 16.5582 40.5757 17.0142C40.5757 17.4568 40.7434 17.6781 41.0787 17.6781C41.3335 17.6781 41.6084 17.5105 41.9035 17.1752C42.1985 16.8265 42.4534 16.3369 42.668 15.7066L42.9898 15.7871C42.4131 17.4233 41.6621 18.2414 40.7367 18.2414C39.9051 18.2414 39.4894 17.7385 39.4894 16.7326C39.4894 16.5314 39.5229 16.2095 39.59 15.7669H39.4894C38.6578 17.4166 37.6922 18.2414 36.5924 18.2414C35.9621 18.2414 35.4323 17.9665 35.0031 17.4166C34.5874 16.8533 34.3795 16.1693 34.3795 15.3646C34.3795 14.5465 34.4868 13.7887 34.7014 13.0913C34.916 12.3939 35.2177 11.7434 35.6067 11.1399C35.9956 10.5229 36.512 10.0267 37.1557 9.65118C37.7995 9.26223 38.5036 9.06776 39.2681 9.06776C40.2605 9.06776 41.0451 9.49023 41.6218 10.3352L42.2455 9.24882L42.5271 9.45ZM37.0752 17.6379C37.6385 17.6379 38.2085 17.202 38.7852 16.3302C39.4424 15.3244 40.0527 13.6814 40.616 11.4014C40.7367 10.8649 40.8305 10.476 40.8976 10.2346C40.4282 9.77859 39.885 9.55059 39.2681 9.55059C38.6645 9.55059 38.1214 9.75847 37.6385 10.1742C37.1691 10.59 36.8003 11.1131 36.5321 11.7434C35.9822 13.0309 35.7072 14.2447 35.7072 15.3847C35.7072 16.1358 35.828 16.6991 36.0694 17.0746C36.3242 17.4501 36.6595 17.6379 37.0752 17.6379ZM46.269 16.8332L49.4677 17.5574C50.1651 17.7184 50.6614 17.9329 50.9564 18.2012C51.2515 18.4828 51.399 18.8651 51.399 19.3479C51.399 20.1258 50.9698 20.8567 50.1115 21.5407C49.2665 22.2381 48.3009 22.5868 47.2145 22.5868C46.1282 22.5868 45.243 22.3387 44.559 21.8425C43.8884 21.3462 43.5531 20.7561 43.5531 20.0721C43.5531 19.6027 43.7141 19.1534 44.036 18.7242C44.3444 18.2951 44.8071 17.9329 45.4241 17.6379L45.8264 17.7586C45.4241 17.9598 45.1156 18.2615 44.901 18.6639C44.6864 19.0796 44.5791 19.5155 44.5791 19.9715C44.5791 20.7226 44.8272 21.2792 45.3235 21.6413C45.8197 22.0168 46.4568 22.2046 47.2347 22.2046C48.026 22.2046 48.7502 21.9766 49.4074 21.5206C50.078 21.078 50.4132 20.5415 50.4132 19.9112C50.4132 19.2808 50.0042 18.8718 49.1861 18.684L45.7258 17.9195C45.3369 17.8391 45.0351 17.658 44.8205 17.3764C44.606 17.0947 44.4987 16.7527 44.4987 16.3504C44.4987 15.948 44.6663 15.5792 45.0016 15.2439C45.3369 14.9086 45.7996 14.7409 46.3897 14.7409H48.4216L48.3612 15.0226H46.3897C46.1081 15.0226 45.8801 15.1098 45.7057 15.2841C45.5448 15.4585 45.4643 15.6664 45.4643 15.9078C45.4643 16.404 45.7325 16.7125 46.269 16.8332ZM49.6488 9.34941L49.6287 9.06776C50.0042 9.06776 50.3194 8.98059 50.5742 8.80623C50.829 8.61847 50.9564 8.37706 50.9564 8.082C50.9564 7.78694 50.7418 7.50529 50.3127 7.23706C50.5272 6.78106 50.7821 6.55306 51.0771 6.55306C51.3856 6.55306 51.6136 6.64023 51.7611 6.81459C51.9221 6.98894 52.0025 7.21023 52.0025 7.47847C52.0025 7.94788 51.788 8.37706 51.3588 8.766C50.943 9.15494 50.373 9.34941 49.6488 9.34941ZM45.9672 12.8298C45.9672 11.8373 46.316 10.9655 47.0134 10.2145C47.7242 9.45 48.596 9.06776 49.6287 9.06776C50.3529 9.06776 50.9229 9.26223 51.3387 9.65118C51.7678 10.0267 51.9824 10.5632 51.9824 11.2606C51.9824 12.3872 51.6203 13.2992 50.8961 13.9966C50.1718 14.6806 49.3269 15.0226 48.3612 15.0226C47.6236 15.0226 47.0402 14.8348 46.611 14.4593C46.1818 14.0704 45.9672 13.5272 45.9672 12.8298ZM49.6085 9.45C48.8709 9.45 48.2674 9.85906 47.798 10.6772C47.3285 11.4819 47.0938 12.1994 47.0938 12.8298C47.0938 13.4601 47.2078 13.9228 47.4358 14.2179C47.6772 14.4995 47.9924 14.6404 48.3814 14.6404C48.9715 14.6404 49.5348 14.3051 50.0712 13.6345C50.6077 12.9639 50.876 12.1189 50.876 11.0996C50.876 10.59 50.7552 10.1876 50.5138 9.89259C50.2858 9.59753 49.9841 9.45 49.6085 9.45ZM58.6571 9.06776C59.3679 9.06776 59.8977 9.24212 60.2464 9.59082C60.6085 9.92612 60.7896 10.4156 60.7896 11.0594C60.7896 11.6898 60.5414 12.2396 60.0452 12.7091C59.2003 13.5138 57.9463 13.9161 56.2832 13.9161C55.787 13.9161 55.3578 13.8759 54.9957 13.7954V13.4132C55.4651 13.4802 55.854 13.5138 56.1625 13.5138C57.2757 13.5138 58.134 13.2321 58.7376 12.6688C59.3545 12.1055 59.663 11.4886 59.663 10.818C59.663 10.4559 59.5624 10.1541 59.3612 9.91271C59.1734 9.67129 58.8516 9.55059 58.3956 9.55059C57.953 9.55059 57.497 9.75847 57.0276 10.1742C56.5716 10.59 56.2094 11.1064 55.9412 11.7233C55.4047 13.0242 55.1365 14.1508 55.1365 15.1031C55.1365 16.8734 55.673 17.7586 56.7459 17.7586C58.0737 17.7586 59.046 17.0344 59.663 15.5859L59.9848 15.6664C59.663 16.4845 59.1936 17.1215 58.5766 17.5775C57.9731 18.0201 57.2891 18.2414 56.5246 18.2414C55.7601 18.2414 55.1164 17.9598 54.5933 17.3965C54.0703 16.8332 53.8087 16.0754 53.8087 15.1232C53.8087 14.1709 53.9898 13.2522 54.3519 12.3671C54.714 11.4685 55.2773 10.6973 56.0418 10.0535C56.8063 9.39635 57.678 9.06776 58.6571 9.06776Z" fill="#6082FA"/>
<path opacity="0.86" d="M84.7261 12.87H76.84V11.8038H84.7261V12.87ZM84.7261 16.29H76.84V15.2238H84.7261V16.29Z" fill="#6082FA"/>
<path opacity="0.86" d="M64.002 13.18H68.216C68.9253 13.18 69.4293 13.138 69.728 13.054C69.588 13.3807 69.42 13.9827 69.224 14.86L69.084 15.518H68.776L68.958 13.74C68.958 13.5813 68.8553 13.502 68.65 13.502H65.696L64.87 17.394H67.698C67.7913 17.3847 67.8567 17.3193 67.894 17.198L68.174 16.33H68.412L67.866 18.85H67.628L67.754 17.982C67.754 17.8513 67.7027 17.786 67.6 17.786H64.8L63.974 21.678H67.068C67.292 21.678 67.4367 21.5753 67.502 21.37L68.09 19.662H68.398L68.258 20.32C68.0807 21.1507 67.992 21.7527 67.992 22.126C67.7213 22.042 67.2407 22 66.55 22H62.14L62.182 21.748H62.826C62.9473 21.748 63.022 21.678 63.05 21.538C64.17 16.2367 64.73 13.5627 64.73 13.516C64.73 13.46 64.6787 13.432 64.576 13.432H63.96L64.002 13.18Z" fill="#6082FA"/>
<path opacity="0.86" d="M95.8768 5.32588H101.932C102.952 5.32588 103.676 5.26553 104.105 5.14482C103.904 5.61423 103.662 6.47929 103.381 7.74L103.18 8.68553H102.737L102.998 6.13059C102.998 5.90259 102.851 5.78859 102.556 5.78859H98.3111L97.1241 11.3813H101.188C101.322 11.3679 101.416 11.274 101.47 11.0996L101.872 9.85235H102.214L101.429 13.4735H101.087L101.268 12.2262C101.268 12.0385 101.195 11.9446 101.047 11.9446H97.0235L95.8366 17.5373H100.283C100.604 17.5373 100.812 17.3898 100.906 17.0947L101.751 14.6404H102.194L101.993 15.5859C101.738 16.7795 101.61 17.6446 101.61 18.1811C101.221 18.0604 100.531 18 99.5382 18H93.2012L93.2615 17.6379H94.1869C94.3613 17.6379 94.4686 17.5373 94.5088 17.3361C96.1182 9.71824 96.9229 5.87576 96.9229 5.80871C96.9229 5.72823 96.8492 5.688 96.7016 5.688H95.8165L95.8768 5.32588ZM113.319 10.8985C113.319 11.4752 112.99 12.5347 112.333 14.0771C111.689 15.6194 111.367 16.6052 111.367 17.0344C111.367 17.4635 111.535 17.6781 111.87 17.6781C112.125 17.6781 112.4 17.5105 112.695 17.1752C112.99 16.8265 113.245 16.3369 113.459 15.7066L113.781 15.7871C113.205 17.4233 112.454 18.2414 111.528 18.2414C110.697 18.2414 110.281 17.7854 110.281 16.8734C110.281 16.4845 110.583 15.5188 111.186 13.9765C111.803 12.4341 112.112 11.4416 112.112 10.9991C112.112 10.1541 111.803 9.73165 111.186 9.73165C110.516 9.73165 109.791 10.2748 109.013 11.3612C108.115 12.6621 107.317 14.8751 106.619 18L105.211 18.1207L107.183 9.99318L105.895 10.0938L105.875 9.75176C106.801 9.63106 107.666 9.46341 108.47 9.24882L108.752 9.45C108.108 10.9253 107.545 12.6219 107.062 14.5398H107.223L107.545 13.6546C108.269 11.6294 109.054 10.3151 109.899 9.71153C110.301 9.44329 110.63 9.26894 110.884 9.18847C111.153 9.108 111.481 9.06776 111.87 9.06776C112.273 9.06776 112.615 9.22871 112.896 9.55059C113.178 9.87247 113.319 10.3218 113.319 10.8985ZM120.379 9.55059C119.829 9.55059 119.319 9.75847 118.85 10.1742C118.394 10.59 118.031 11.1064 117.763 11.7233C117.227 13.0242 116.959 14.1508 116.959 15.1031C116.959 16.8734 117.495 17.7586 118.568 17.7586C119.896 17.7586 120.868 17.0344 121.485 15.5859L121.807 15.6664C121.485 16.4845 121.016 17.1215 120.399 17.5775C119.795 18.0201 119.111 18.2414 118.347 18.2414C117.582 18.2414 116.938 17.9598 116.415 17.3965C115.892 16.8332 115.631 16.0754 115.631 15.1232C115.631 14.1709 115.812 13.2522 116.174 12.3671C116.536 11.4685 117.099 10.6973 117.864 10.0535C118.628 9.39635 119.5 9.06776 120.479 9.06776C121.15 9.06776 121.653 9.24212 121.988 9.59082C122.337 9.92612 122.511 10.3352 122.511 10.818C122.511 11.2874 122.424 11.7099 122.249 12.0854C122.089 12.4609 121.827 12.6487 121.465 12.6487C121.116 12.6487 120.855 12.5414 120.68 12.3268C121.069 11.7367 121.264 11.16 121.264 10.5967C121.264 9.89929 120.969 9.55059 120.379 9.55059Z" fill="#6082FA"/>
<path opacity="0.86" d="M126.66 13.18H130.23C130.93 13.18 131.429 13.138 131.728 13.054C131.607 13.334 131.443 13.936 131.238 14.86L131.098 15.518H130.79L130.944 13.824C130.944 13.656 130.837 13.572 130.622 13.572H128.83C127.701 18.9013 127.136 21.5987 127.136 21.664C127.136 21.72 127.187 21.748 127.29 21.748H128.494L128.452 22H124.7L124.742 21.748H125.974C126.095 21.748 126.17 21.678 126.198 21.538L127.878 13.572H126.1C125.876 13.572 125.731 13.6747 125.666 13.88L125.12 15.518H124.812L124.952 14.86C125.129 14.048 125.218 13.446 125.218 13.054C125.489 13.138 125.969 13.18 126.66 13.18ZM132.886 13.18H137.1C137.809 13.18 138.313 13.138 138.612 13.054C138.472 13.3807 138.304 13.9827 138.108 14.86L137.968 15.518H137.66L137.842 13.74C137.842 13.5813 137.739 13.502 137.534 13.502H134.58L133.754 17.394H136.582C136.675 17.3847 136.74 17.3193 136.778 17.198L137.058 16.33H137.296L136.75 18.85H136.512L136.638 17.982C136.638 17.8513 136.586 17.786 136.484 17.786H133.684L132.858 21.678H135.952C136.176 21.678 136.32 21.5753 136.386 21.37L136.974 19.662H137.282L137.142 20.32C136.964 21.1507 136.876 21.7527 136.876 22.126C136.605 22.042 136.124 22 135.434 22H131.024L131.066 21.748H131.71C131.831 21.748 131.906 21.678 131.934 21.538C133.054 16.2367 133.614 13.5627 133.614 13.516C133.614 13.46 133.562 13.432 133.46 13.432H132.844L132.886 13.18ZM140.753 13.18H144.967C145.677 13.18 146.181 13.138 146.479 13.054C146.339 13.3807 146.171 13.9827 145.975 14.86L145.835 15.518H145.527L145.709 13.74C145.709 13.5813 145.607 13.502 145.401 13.502H142.447L141.621 17.394H144.449C144.543 17.3847 144.608 17.3193 144.645 17.198L144.925 16.33H145.163L144.617 18.85H144.379L144.505 17.982C144.505 17.8513 144.454 17.786 144.351 17.786H141.551L140.725 21.678H143.819C144.043 21.678 144.188 21.5753 144.253 21.37L144.841 19.662H145.149L145.009 20.32C144.832 21.1507 144.743 21.7527 144.743 22.126C144.473 22.042 143.992 22 143.301 22H138.891L138.933 21.748H139.577C139.699 21.748 139.773 21.678 139.801 21.538C140.921 16.2367 141.481 13.5627 141.481 13.516C141.481 13.46 141.43 13.432 141.327 13.432H140.711L140.753 13.18ZM151.673 21.748L151.295 19.046H148.201L146.689 21.748H147.557L147.515 22H145.499L145.555 21.748H146.045C146.176 21.748 146.274 21.6827 146.339 21.552L151.043 13.18H151.491L152.639 21.552C152.658 21.6827 152.728 21.748 152.849 21.748H153.339L153.297 22H150.763L150.805 21.748H151.673ZM150.693 14.608L148.411 18.654H151.239L150.693 14.608ZM157.704 13.628L156.01 21.678H158.768C159.001 21.678 159.151 21.5753 159.216 21.37L159.79 19.662H160.098L159.958 20.32C159.781 21.132 159.692 21.734 159.692 22.126C159.421 22.042 158.941 22 158.25 22H154.176L154.218 21.748H154.862C154.983 21.748 155.058 21.678 155.086 21.538C156.206 16.2367 156.766 13.5627 156.766 13.516C156.766 13.46 156.715 13.432 156.612 13.432H155.996L156.038 13.18H158.614L158.572 13.432H157.942C157.821 13.432 157.741 13.4973 157.704 13.628ZM168.094 18.836L167.996 19.312C167.818 20.1427 167.389 20.8287 166.708 21.37C166.036 21.902 165.247 22.168 164.342 22.168C163.436 22.168 162.713 21.888 162.172 21.328C161.63 20.768 161.36 19.984 161.36 18.976C161.36 18.2947 161.472 17.6087 161.696 16.918C161.92 16.2273 162.232 15.588 162.634 15C163.044 14.412 163.572 13.936 164.216 13.572C164.86 13.1987 165.56 13.012 166.316 13.012C166.894 13.012 167.436 13.18 167.94 13.516C168.108 13.6187 168.229 13.67 168.304 13.67C168.416 13.67 168.504 13.572 168.57 13.376L168.654 13.096H168.906L168.388 15.518H168.15C168.159 15.4433 168.164 15.336 168.164 15.196C168.164 14.5893 167.982 14.1413 167.618 13.852C167.263 13.5627 166.782 13.418 166.176 13.418C165.569 13.418 165.009 13.614 164.496 14.006C163.982 14.398 163.572 14.888 163.264 15.476C162.638 16.708 162.326 17.9307 162.326 19.144C162.326 19.984 162.512 20.6327 162.886 21.09C163.259 21.538 163.805 21.762 164.524 21.762C165.252 21.762 165.83 21.524 166.26 21.048C166.689 20.572 166.988 19.8207 167.156 18.794C167.156 18.6913 167.109 18.64 167.016 18.64H166.134L166.176 18.388H168.738L168.696 18.64H168.346C168.206 18.64 168.122 18.7053 168.094 18.836ZM172.967 13.376C173.509 13.1333 174.083 13.012 174.689 13.012C175.613 13.012 176.341 13.292 176.873 13.852C177.415 14.4027 177.685 15.182 177.685 16.19C177.685 16.8713 177.573 17.562 177.349 18.262C177.125 18.9527 176.813 19.592 176.411 20.18C176.01 20.768 175.487 21.2487 174.843 21.622C174.199 21.986 173.457 22.168 172.617 22.168C171.777 22.168 171.087 21.888 170.545 21.328C170.013 20.768 169.747 19.956 169.747 18.892C169.747 17.828 170.037 16.7547 170.615 15.672C171.203 14.5893 171.987 13.824 172.967 13.376ZM176.131 14.09C175.758 13.614 175.263 13.376 174.647 13.376C174.031 13.376 173.462 13.5767 172.939 13.978C172.417 14.37 172.001 14.8693 171.693 15.476C171.049 16.7267 170.727 17.94 170.727 19.116C170.727 19.9653 170.909 20.628 171.273 21.104C171.647 21.5707 172.141 21.804 172.757 21.804C173.383 21.804 173.957 21.608 174.479 21.216C175.002 20.8147 175.422 20.3153 175.739 19.718C176.383 18.4767 176.705 17.2633 176.705 16.078C176.705 15.2287 176.514 14.566 176.131 14.09Z" fill="#6082FA"/>
<path opacity="0.86" d="M185.493 6.68471C184.563 7.37318 183.839 8.33882 183.32 9.58165C182.802 10.8155 182.542 12.0941 182.542 13.4174C182.542 14.7318 182.846 15.6974 183.454 16.3144L183.267 16.5155C182.703 16.1668 182.274 15.6751 181.979 15.0402C181.693 14.4054 181.55 13.6991 181.55 12.9212C181.55 11.6426 181.899 10.3953 182.596 9.17929C183.302 7.95435 184.237 7.05576 185.399 6.48353L185.493 6.68471ZM187.309 15.1609C186.675 15.1609 186.116 15 185.633 14.6781C185.472 14.5798 185.36 14.5306 185.298 14.5306C185.137 14.5306 185.034 14.6871 184.989 15H184.734L185.204 12.7602H185.445C185.436 12.8318 185.432 12.9391 185.432 13.0821C185.432 13.6633 185.597 14.0925 185.928 14.3696C186.268 14.6379 186.728 14.772 187.309 14.772C187.9 14.772 188.391 14.5664 188.785 14.1551C189.187 13.7348 189.388 13.2565 189.388 12.72C189.388 12.1746 189.111 11.7678 188.557 11.4995L187.484 10.9496C186.643 10.5384 186.223 9.89906 186.223 9.03176C186.223 8.35224 186.487 7.74424 187.014 7.20776C187.542 6.66235 188.204 6.38965 188.999 6.38965C189.527 6.38965 190.005 6.53718 190.434 6.83224C190.577 6.93059 190.676 6.97976 190.729 6.97976C190.819 6.97976 190.895 6.88588 190.957 6.69812L191.024 6.47012H191.266L190.77 8.79035H190.542C190.56 8.61153 190.568 8.48188 190.568 8.40141C190.568 7.84706 190.425 7.44024 190.139 7.18094C189.862 6.91271 189.46 6.77859 188.932 6.77859C188.405 6.77859 187.953 6.97529 187.578 7.36871C187.211 7.76212 187.028 8.20471 187.028 8.69647C187.028 9.30447 187.3 9.75153 187.846 10.0376L189.227 10.7485C189.969 11.1329 190.34 11.6784 190.34 12.3847C190.34 13.0821 190.036 13.7214 189.428 14.3026C188.82 14.8748 188.114 15.1609 187.309 15.1609ZM192.232 9.68894L192.299 9.43412H195.276L195.209 9.68894H192.232ZM194.364 7.78447L194.552 7.91859C194.347 8.54447 194.069 9.528 193.721 10.8692C193.381 12.2104 193.175 13.0776 193.104 13.4711C193.032 13.8555 192.996 14.1461 192.996 14.3428C192.996 14.6379 193.108 14.7854 193.332 14.7854C193.502 14.7854 193.685 14.6736 193.882 14.4501C194.078 14.2176 194.248 13.8913 194.391 13.4711L194.606 13.5247C194.221 14.6155 193.721 15.1609 193.104 15.1609C192.549 15.1609 192.272 14.8256 192.272 14.1551C192.272 13.6007 192.603 12.0539 193.265 9.51459L192.299 9.43412C192.791 9.43412 193.189 9.31788 193.493 9.08541C193.797 8.844 194.087 8.41035 194.364 7.78447ZM195.845 13.0553C195.845 12.1344 196.113 11.2536 196.649 10.4132C196.909 10.0108 197.248 9.68447 197.669 9.43412C198.089 9.17482 198.567 9.04518 199.104 9.04518C199.649 9.04518 200.092 9.22847 200.431 9.59506C200.771 9.96165 200.941 10.4624 200.941 11.0972C200.941 11.732 200.825 12.3489 200.592 12.948C200.36 13.5471 199.993 14.0656 199.493 14.5038C198.992 14.9419 198.429 15.1609 197.803 15.1609C197.177 15.1609 196.694 14.9776 196.354 14.6111C196.015 14.2445 195.845 13.7259 195.845 13.0553ZM198.996 9.34024C198.514 9.34024 198.084 9.58165 197.709 10.0645C197.342 10.5473 197.079 11.0748 196.918 11.6471C196.766 12.2193 196.69 12.7558 196.69 13.2565C196.69 13.7482 196.788 14.1416 196.985 14.4367C197.19 14.7228 197.467 14.8659 197.816 14.8659C198.174 14.8659 198.505 14.7228 198.809 14.4367C199.122 14.1506 199.367 13.7974 199.546 13.3772C199.913 12.5188 200.096 11.7767 200.096 11.1508C200.096 10.516 199.998 10.0555 199.801 9.76941C199.604 9.48329 199.336 9.34024 198.996 9.34024ZM204.522 9.16588L204.709 9.3C204.28 10.2835 203.905 11.4146 203.583 12.6932H203.69L203.905 12.1031C204.325 10.9586 204.741 10.1628 205.152 9.71576C205.563 9.26871 205.921 9.04518 206.225 9.04518C206.529 9.04518 206.752 9.14353 206.895 9.34024C207.047 9.53694 207.123 9.79176 207.123 10.1047C207.123 10.4176 207.065 10.6904 206.949 10.9228C206.833 11.1553 206.663 11.2715 206.439 11.2715C206.225 11.2715 206.046 11.2 205.903 11.0569C205.992 10.9407 206.077 10.7708 206.158 10.5473C206.238 10.3238 206.278 10.1271 206.278 9.95718C206.278 9.69788 206.171 9.56824 205.957 9.56824C205.733 9.56824 205.456 9.78729 205.125 10.2254C204.401 11.1732 203.788 12.7647 203.288 15L202.349 15.0805L203.663 9.66212L202.805 9.72918L202.791 9.50118C203.408 9.42071 203.985 9.30894 204.522 9.16588ZM212.959 9.3C212.646 10.2299 212.351 11.2268 212.074 12.2908C211.796 13.3548 211.658 14.0388 211.658 14.3428C211.658 14.6379 211.77 14.7854 211.993 14.7854C212.163 14.7854 212.346 14.6736 212.543 14.4501C212.74 14.2176 212.91 13.8913 213.053 13.4711L213.267 13.5247C212.883 14.6155 212.382 15.1609 211.765 15.1609C211.211 15.1609 210.934 14.8256 210.934 14.1551C210.934 14.0209 210.956 13.8064 211.001 13.5113H210.934C210.379 14.6111 209.735 15.1609 209.002 15.1609C208.582 15.1609 208.229 14.9776 207.943 14.6111C207.666 14.2355 207.527 13.7795 207.527 13.2431C207.527 12.6976 207.599 12.1925 207.742 11.7275C207.885 11.2626 208.086 10.8289 208.345 10.4266C208.604 10.0153 208.949 9.68447 209.378 9.43412C209.807 9.17482 210.276 9.04518 210.786 9.04518C211.448 9.04518 211.971 9.32682 212.355 9.89012L212.771 9.16588L212.959 9.3ZM209.324 14.7586C209.7 14.7586 210.08 14.468 210.464 13.8868C210.902 13.2162 211.309 12.1209 211.685 10.6009C211.765 10.2433 211.828 9.984 211.872 9.82306C211.559 9.51906 211.197 9.36706 210.786 9.36706C210.384 9.36706 210.022 9.50565 209.7 9.78282C209.387 10.06 209.141 10.4087 208.962 10.8289C208.595 11.6873 208.412 12.4965 208.412 13.2565C208.412 13.7572 208.493 14.1327 208.654 14.3831C208.823 14.6334 209.047 14.7586 209.324 14.7586ZM215.453 14.2221L217.586 14.7049C218.051 14.8122 218.382 14.9553 218.578 15.1341C218.775 15.3219 218.873 15.5767 218.873 15.8986C218.873 16.4172 218.587 16.9045 218.015 17.3605C217.452 17.8254 216.808 18.0579 216.084 18.0579C215.359 18.0579 214.769 17.8925 214.313 17.5616C213.866 17.2308 213.643 16.8374 213.643 16.3814C213.643 16.0685 213.75 15.7689 213.965 15.4828C214.17 15.1967 214.479 14.9553 214.89 14.7586L215.158 14.8391C214.89 14.9732 214.684 15.1744 214.541 15.4426C214.398 15.7198 214.327 16.0104 214.327 16.3144C214.327 16.8151 214.492 17.1861 214.823 17.4275C215.154 17.6779 215.579 17.8031 216.097 17.8031C216.625 17.8031 217.107 17.6511 217.546 17.3471C217.993 17.052 218.216 16.6944 218.216 16.2741C218.216 15.8539 217.943 15.5812 217.398 15.456L215.091 14.9464C214.832 14.8927 214.631 14.772 214.488 14.5842C214.345 14.3965 214.273 14.1685 214.273 13.9002C214.273 13.632 214.385 13.3861 214.608 13.1626C214.832 12.9391 215.14 12.8273 215.534 12.8273H216.888L216.848 13.0151H215.534C215.346 13.0151 215.194 13.0732 215.078 13.1894C214.971 13.3056 214.917 13.4442 214.917 13.6052C214.917 13.936 215.096 14.1416 215.453 14.2221ZM217.707 9.23294L217.693 9.04518C217.943 9.04518 218.154 8.98706 218.323 8.87082C218.493 8.74565 218.578 8.58471 218.578 8.388C218.578 8.19129 218.435 8.00353 218.149 7.82471C218.292 7.52071 218.462 7.36871 218.659 7.36871C218.864 7.36871 219.016 7.42682 219.115 7.54306C219.222 7.65929 219.276 7.80682 219.276 7.98565C219.276 8.29859 219.133 8.58471 218.847 8.844C218.569 9.10329 218.189 9.23294 217.707 9.23294ZM215.252 11.5532C215.252 10.8915 215.485 10.3104 215.95 9.80965C216.423 9.3 217.005 9.04518 217.693 9.04518C218.176 9.04518 218.556 9.17482 218.833 9.43412C219.119 9.68447 219.262 10.0421 219.262 10.5071C219.262 11.2581 219.021 11.8661 218.538 12.3311C218.055 12.7871 217.492 13.0151 216.848 13.0151C216.356 13.0151 215.967 12.8899 215.681 12.6395C215.395 12.3802 215.252 12.0181 215.252 11.5532ZM217.68 9.3C217.188 9.3 216.786 9.57271 216.473 10.1181C216.16 10.6546 216.003 11.1329 216.003 11.5532C216.003 11.9734 216.079 12.2819 216.231 12.4786C216.392 12.6664 216.602 12.7602 216.862 12.7602C217.255 12.7602 217.631 12.5367 217.988 12.0896C218.346 11.6426 218.525 11.0793 218.525 10.3998C218.525 10.06 218.444 9.79176 218.283 9.59506C218.131 9.39835 217.93 9.3 217.68 9.3ZM223.712 9.04518C224.186 9.04518 224.539 9.16141 224.772 9.39388C225.013 9.61741 225.134 9.94376 225.134 10.3729C225.134 10.7932 224.968 11.1598 224.637 11.4727C224.074 12.0092 223.238 12.2774 222.129 12.2774C221.799 12.2774 221.513 12.2506 221.271 12.1969V11.9421C221.584 11.9868 221.843 12.0092 222.049 12.0092C222.791 12.0092 223.363 11.8214 223.766 11.4459C224.177 11.0704 224.383 10.6591 224.383 10.212C224.383 9.97059 224.316 9.76941 224.181 9.60847C224.056 9.44753 223.842 9.36706 223.538 9.36706C223.243 9.36706 222.939 9.50565 222.626 9.78282C222.322 10.06 222.08 10.4042 221.901 10.8155C221.544 11.6828 221.365 12.4339 221.365 13.0687C221.365 14.2489 221.723 14.8391 222.438 14.8391C223.323 14.8391 223.971 14.3562 224.383 13.3906L224.597 13.4442C224.383 13.9896 224.07 14.4144 223.658 14.7184C223.256 15.0134 222.8 15.1609 222.29 15.1609C221.781 15.1609 221.352 14.9732 221.003 14.5976C220.654 14.2221 220.48 13.7169 220.48 13.0821C220.48 12.4473 220.601 11.8348 220.842 11.2447C221.083 10.6456 221.459 10.1315 221.969 9.70235C222.478 9.26424 223.059 9.04518 223.712 9.04518ZM225.609 16.4887C226.19 16.0416 226.481 15.5722 226.481 15.0805C226.481 14.8122 226.387 14.5932 226.199 14.4233C226.244 14.2176 226.347 14.0388 226.508 13.8868C226.678 13.7348 226.857 13.6588 227.044 13.6588C227.411 13.6588 227.594 13.8421 227.594 14.2087C227.594 14.5753 227.411 15.0089 227.044 15.5096C226.687 16.0193 226.244 16.4082 225.717 16.6765L225.609 16.4887ZM234.416 6.55059H237.836C238.507 6.55059 238.985 6.51035 239.271 6.42988C239.155 6.69812 238.998 7.27482 238.802 8.16L238.668 8.79035H238.372L238.52 7.16753C238.52 7.00659 238.417 6.92612 238.212 6.92612H236.495C235.413 12.0315 234.872 14.6155 234.872 14.6781C234.872 14.7318 234.921 14.7586 235.02 14.7586H236.173L236.133 15H232.538L232.579 14.7586H233.759C233.875 14.7586 233.947 14.6915 233.973 14.5574L235.583 6.92612H233.88C233.665 6.92612 233.526 7.02447 233.464 7.22118L232.941 8.79035H232.646L232.78 8.16C232.95 7.38212 233.035 6.80541 233.035 6.42988C233.294 6.51035 233.754 6.55059 234.416 6.55059ZM240.38 6.55059H244.417C245.096 6.55059 245.579 6.51035 245.865 6.42988C245.731 6.74282 245.57 7.31953 245.383 8.16L245.248 8.79035H244.953L245.128 7.08706C245.128 6.93506 245.029 6.85906 244.833 6.85906H242.003L241.211 10.5875H243.921C244.01 10.5786 244.073 10.516 244.108 10.3998L244.377 9.56824H244.605L244.082 11.9824H243.854L243.974 11.1508C243.974 11.0256 243.925 10.9631 243.827 10.9631H241.144L240.353 14.6915H243.317C243.532 14.6915 243.67 14.5932 243.733 14.3965L244.296 12.7602H244.591L244.457 13.3906C244.287 14.1864 244.202 14.7631 244.202 15.1207C243.943 15.0402 243.483 15 242.821 15H238.596L238.636 14.7586H239.253C239.37 14.7586 239.441 14.6915 239.468 14.5574C240.541 9.47882 241.077 6.91718 241.077 6.87247C241.077 6.81882 241.028 6.792 240.93 6.792H240.34L240.38 6.55059ZM247.917 6.55059H251.954C252.634 6.55059 253.117 6.51035 253.403 6.42988C253.269 6.74282 253.108 7.31953 252.92 8.16L252.786 8.79035H252.491L252.665 7.08706C252.665 6.93506 252.567 6.85906 252.37 6.85906H249.54L248.749 10.5875H251.458C251.547 10.5786 251.61 10.516 251.646 10.3998L251.914 9.56824H252.142L251.619 11.9824H251.391L251.512 11.1508C251.512 11.0256 251.462 10.9631 251.364 10.9631H248.682L247.89 14.6915H250.854C251.069 14.6915 251.208 14.5932 251.27 14.3965L251.833 12.7602H252.129L251.994 13.3906C251.825 14.1864 251.74 14.7631 251.74 15.1207C251.48 15.0402 251.02 15 250.358 15H246.133L246.174 14.7586H246.791C246.907 14.7586 246.978 14.6915 247.005 14.5574C248.078 9.47882 248.615 6.91718 248.615 6.87247C248.615 6.81882 248.565 6.792 248.467 6.792H247.877L247.917 6.55059ZM257.051 6.97976L255.441 14.6245C255.441 14.7139 255.49 14.7586 255.589 14.7586H256.179L256.139 15H253.671L253.711 14.7586H254.328C254.444 14.7586 254.516 14.6915 254.543 14.5574C255.616 9.47882 256.152 6.91718 256.152 6.87247C256.152 6.81882 256.103 6.792 256.004 6.792H255.414L255.455 6.55059H257.922L257.882 6.792H257.279C257.162 6.792 257.086 6.85459 257.051 6.97976ZM258.968 12.6529L258.995 13.8868C259.013 14.4412 259.161 14.7184 259.438 14.7184C259.617 14.7184 259.764 14.6245 259.88 14.4367C260.006 14.2489 260.068 14.0075 260.068 13.7125L260.323 13.6722C260.323 14.1282 260.202 14.4904 259.961 14.7586C259.728 15.0268 259.433 15.1609 259.076 15.1609C258.441 15.1609 258.106 14.6826 258.07 13.7259L258.016 12.4115C257.989 11.8304 257.869 11.428 257.654 11.2045C257.44 10.972 257.086 10.8558 256.595 10.8558L256.662 10.6412L260.484 6.792H259.854L259.894 6.55059H261.624L261.584 6.792H261.235C261.092 6.792 260.962 6.85459 260.846 6.97976L257.212 10.6144C257.855 10.6233 258.302 10.8111 258.553 11.1776C258.812 11.5442 258.951 12.036 258.968 12.6529ZM263.346 6.55059H267.382C268.062 6.55059 268.545 6.51035 268.831 6.42988C268.697 6.74282 268.536 7.31953 268.348 8.16L268.214 8.79035H267.919L268.093 7.08706C268.093 6.93506 267.995 6.85906 267.798 6.85906H264.968L264.177 10.5875H266.886C266.976 10.5786 267.038 10.516 267.074 10.3998L267.342 9.56824H267.57L267.047 11.9824H266.819L266.94 11.1508C266.94 11.0256 266.891 10.9631 266.792 10.9631H264.11L263.319 14.6915H266.283C266.497 14.6915 266.636 14.5932 266.698 14.3965L267.262 12.7602H267.557L267.423 13.3906C267.253 14.1864 267.168 14.7631 267.168 15.1207C266.909 15.0402 266.448 15 265.786 15H261.562L261.602 14.7586H262.219C262.335 14.7586 262.407 14.6915 262.434 14.5574C263.506 9.47882 264.043 6.91718 264.043 6.87247C264.043 6.81882 263.994 6.792 263.895 6.792H263.305L263.346 6.55059ZM272.278 12.4518L271.688 12.5188L270.454 6.97976C270.427 6.85459 270.36 6.792 270.252 6.792H269.783L269.823 6.55059H272.036L271.996 6.792H271.366L272.439 11.5532L275.268 6.792H274.638L274.678 6.55059H276.408L276.368 6.792H275.899C275.792 6.792 275.698 6.85459 275.617 6.97976L272.278 12.4518ZM271.661 11.7544L272.519 11.9824C272.152 13.7169 271.969 14.6155 271.969 14.6781C271.969 14.7318 272.018 14.7586 272.117 14.7586H273.002L272.962 15H269.904L269.944 14.7586H270.856C270.972 14.7586 271.044 14.6915 271.071 14.5574L271.661 11.7544ZM274.72 16.3144C275.614 15.6348 276.325 14.6647 276.852 13.404C277.38 12.1433 277.643 10.8692 277.643 9.58165C277.643 8.28518 277.344 7.31953 276.745 6.68471L276.906 6.48353C277.487 6.83224 277.921 7.324 278.207 7.95882C278.493 8.58471 278.636 9.29106 278.636 10.0779C278.636 11.3565 278.283 12.6082 277.576 13.8332C276.879 15.0581 275.945 15.9522 274.773 16.5155L274.72 16.3144Z" fill="#6082FA"/>
</svg>
