<svg width="98" height="30" viewBox="0 0 98 30" fill="none" xmlns="http://www.w3.org/2000/svg">
<path opacity="0.86" d="M4.81517 7.04562H11.2776C12.5448 7.04562 13.4487 6.96959 13.9893 6.81753C13.7697 7.32439 13.474 8.41414 13.1023 10.0868L12.8489 11.2779H12.2914L12.5701 8.2114C12.5701 7.90728 12.3758 7.75523 11.9872 7.75523H8.74334C6.699 17.4025 5.67683 22.2852 5.67683 22.4035C5.67683 22.5049 5.76976 22.5555 5.95561 22.5555H8.13511L8.05908 23.0117H1.26715L1.34318 22.5555H3.57336C3.793 22.5555 3.92817 22.4288 3.97885 22.1754L7.02001 7.75523H3.80145C3.39596 7.75523 3.13409 7.94107 3.01582 8.31277L2.02744 11.2779H1.46989L1.72332 10.0868C2.04434 8.61689 2.20484 7.52714 2.20484 6.81753C2.69481 6.96959 3.56492 7.04562 4.81517 7.04562ZM16.0847 7.04562H23.7129C24.997 7.04562 25.9093 6.96959 26.45 6.81753C26.1966 7.40887 25.8924 8.49862 25.5376 10.0868L25.2842 11.2779H24.7267L25.0561 8.05934C25.0561 7.77212 24.8703 7.62851 24.4986 7.62851H19.1512L17.656 14.6739H22.7752C22.9442 14.657 23.0625 14.5387 23.1301 14.3191L23.6369 12.7478H24.0677L23.0794 17.3095H22.6485L22.8766 15.7383C22.8766 15.5017 22.7837 15.3835 22.5978 15.3835H17.5292L16.034 22.4288H21.6348C22.0403 22.4288 22.3022 22.243 22.4204 21.8713L23.4849 18.7794H24.0424L23.789 19.9706C23.468 21.4742 23.3075 22.564 23.3075 23.2398C22.8175 23.0877 21.9474 23.0117 20.6971 23.0117H12.7141L12.7901 22.5555H13.9559C14.1755 22.5555 14.3107 22.4288 14.3614 22.1754C16.3888 12.5788 17.4025 7.73833 17.4025 7.65385C17.4025 7.55248 17.3096 7.5018 17.1238 7.5018H16.0087L16.0847 7.04562ZM30.3273 7.04562H37.9555C39.2396 7.04562 40.1519 6.96959 40.6926 6.81753C40.4391 7.40887 40.135 8.49862 39.7802 10.0868L39.5268 11.2779H38.9692L39.2987 8.05934C39.2987 7.77212 39.1128 7.62851 38.7411 7.62851H33.3938L31.8985 14.6739H37.0178C37.1868 14.657 37.305 14.5387 37.3726 14.3191L37.8795 12.7478H38.3103L37.3219 17.3095H36.8911L37.1192 15.7383C37.1192 15.5017 37.0263 15.3835 36.8404 15.3835H31.7718L30.2766 22.4288H35.8774C36.2829 22.4288 36.5448 22.243 36.663 21.8713L37.7274 18.7794H38.285L38.0315 19.9706C37.7105 21.4742 37.55 22.564 37.55 23.2398C37.0601 23.0877 36.19 23.0117 34.9397 23.0117H26.9566L27.0327 22.5555H28.1985C28.4181 22.5555 28.5533 22.4288 28.6039 22.1754C30.6314 12.5788 31.6451 7.73833 31.6451 7.65385C31.6451 7.55248 31.5522 7.5018 31.3663 7.5018H30.2512L30.3273 7.04562ZM50.0946 22.5555L49.4104 17.6643H43.8095L41.0725 22.5555H42.6438L42.5677 23.0117H38.9183L39.0197 22.5555H39.9067C40.1433 22.5555 40.3207 22.4373 40.4389 22.2007L48.9542 7.04562H49.7652L51.8433 22.2007C51.8771 22.4373 52.0038 22.5555 52.2234 22.5555H53.1104L53.0344 23.0117H48.4473L48.5233 22.5555H50.0946ZM48.3206 9.63061L44.1897 16.9547H49.309L48.3206 9.63061ZM61.0115 7.8566L57.945 22.4288H62.9376C63.36 22.4288 63.6303 22.243 63.7486 21.8713L64.7876 18.7794H65.3452L65.0917 19.9706C64.7707 21.4405 64.6102 22.5302 64.6102 23.2398C64.1203 23.0877 63.2501 23.0117 61.9999 23.0117H54.6251L54.7011 22.5555H55.8669C56.0865 22.5555 56.2217 22.4288 56.2724 22.1754C58.2998 12.5788 59.3135 7.73833 59.3135 7.65385C59.3135 7.55248 59.2206 7.5018 59.0348 7.5018H57.9197L57.9957 7.04562H62.6588L62.5828 7.5018H61.4423C61.2227 7.5018 61.0791 7.62006 61.0115 7.8566ZM79.8192 17.2842L79.6418 18.1459C79.3208 19.6495 78.5436 20.8914 77.3102 21.8713C76.0938 22.8343 74.6661 23.3158 73.0273 23.3158C71.3884 23.3158 70.079 22.809 69.0991 21.7953C68.1192 20.7815 67.6292 19.3623 67.6292 17.5376C67.6292 16.3043 67.8319 15.0625 68.2374 13.8122C68.6429 12.562 69.2089 11.4046 69.9354 10.3402C70.6788 9.27581 71.6334 8.41414 72.7992 7.75523C73.965 7.07941 75.2321 6.74151 76.6006 6.74151C77.6481 6.74151 78.6281 7.04562 79.5404 7.65385C79.8445 7.8397 80.0642 7.93263 80.1993 7.93263C80.4021 7.93263 80.5626 7.75523 80.6809 7.40042L80.8329 6.89356H81.2891L80.3514 11.2779H79.9206C79.9375 11.1427 79.9459 10.9484 79.9459 10.695C79.9459 9.59682 79.6164 8.78584 78.9575 8.26209C78.3155 7.73833 77.4454 7.47645 76.3472 7.47645C75.249 7.47645 74.2353 7.83125 73.306 8.54086C72.3768 9.25046 71.6334 10.1375 71.0759 11.2019C69.9439 13.4321 69.3779 15.6454 69.3779 17.8417C69.3779 19.3623 69.7158 20.5366 70.3916 21.3644C71.0674 22.1754 72.0558 22.5809 73.3567 22.5809C74.6746 22.5809 75.7221 22.1501 76.4993 21.2884C77.2764 20.4267 77.8171 19.0667 78.1212 17.2082C78.1212 17.0223 78.0367 16.9294 77.8678 16.9294H76.2712L76.3472 16.4732H80.985L80.9089 16.9294H80.2754C80.0219 16.9294 79.8699 17.0477 79.8192 17.2842ZM88.6411 7.40042C89.6211 6.96114 90.6601 6.74151 91.7583 6.74151C93.431 6.74151 94.7488 7.24837 95.7118 8.26209C96.6918 9.25891 97.1817 10.6697 97.1817 12.4944C97.1817 13.7277 96.979 14.978 96.5735 16.2451C96.168 17.4954 95.602 18.6527 94.8755 19.7171C94.149 20.7815 93.2029 21.6516 92.0371 22.3275C90.8713 22.9864 89.5281 23.3158 88.0076 23.3158C86.487 23.3158 85.2367 22.809 84.2568 21.7953C83.2938 20.7815 82.8122 19.3116 82.8122 17.3856C82.8122 15.4595 83.336 13.5165 84.3835 11.5567C85.4479 9.59682 86.8671 8.2114 88.6411 7.40042ZM94.3687 8.69292C93.6928 7.83125 92.7974 7.40042 91.6823 7.40042C90.5672 7.40042 89.5366 7.76367 88.5904 8.49017C87.6443 9.19978 86.8925 10.1037 86.3349 11.2019C85.1691 13.4659 84.5863 15.6622 84.5863 17.7911C84.5863 19.3285 84.9157 20.5281 85.5746 21.3898C86.2504 22.2345 87.1459 22.6569 88.261 22.6569C89.393 22.6569 90.432 22.3021 91.3782 21.5925C92.3243 20.866 93.0846 19.9621 93.659 18.8808C94.8248 16.6337 95.4077 14.4373 95.4077 12.2916C95.4077 10.7541 95.0614 9.55458 94.3687 8.69292Z" fill="#6082FA"/>
</svg>
