<svg width="78" height="23" viewBox="0 0 78 23" fill="none" xmlns="http://www.w3.org/2000/svg">
<path opacity="0.86" d="M3.82235 5.32588H8.95235C9.95824 5.32588 10.6758 5.26553 11.1049 5.14482C10.9306 5.54718 10.6959 6.41223 10.4008 7.74L10.1996 8.68553H9.75706L9.97835 6.25129C9.97835 6.00988 9.82412 5.88918 9.51565 5.88918H6.94059C5.31777 13.5473 4.50635 17.4233 4.50635 17.5172C4.50635 17.5976 4.58012 17.6379 4.72765 17.6379H6.45776L6.39741 18H1.00588L1.06624 17.6379H2.83659C3.01094 17.6379 3.11824 17.5373 3.15847 17.3361L5.57259 5.88918H3.01765C2.69576 5.88918 2.48788 6.0367 2.394 6.33176L1.60941 8.68553H1.16682L1.368 7.74C1.62282 6.57318 1.75024 5.70812 1.75024 5.14482C2.13918 5.26553 2.82988 5.32588 3.82235 5.32588ZM12.7683 5.32588H18.8237C19.843 5.32588 20.5672 5.26553 20.9964 5.14482C20.7952 5.61423 20.5538 6.47929 20.2721 7.74L20.071 8.68553H19.6284L19.8899 6.13059C19.8899 5.90259 19.7424 5.78859 19.4473 5.78859H15.2025L14.0156 11.3813H18.0793C18.2134 11.3679 18.3073 11.274 18.361 11.0996L18.7633 9.85235H19.1053L18.3207 13.4735H17.9787L18.1598 12.2262C18.1598 12.0385 18.086 11.9446 17.9385 11.9446H13.915L12.728 17.5373H17.174C17.4959 17.5373 17.7038 17.3898 17.7977 17.0947L18.6426 14.6404H19.0852L18.884 15.5859C18.6292 16.7795 18.5018 17.6446 18.5018 18.1811C18.1129 18.0604 17.4221 18 16.4297 18H10.0926L10.153 17.6379H11.0784C11.2527 17.6379 11.36 17.5373 11.4003 17.3361C13.0097 9.71824 13.8144 5.87576 13.8144 5.80871C13.8144 5.72823 13.7406 5.688 13.5931 5.688H12.7079L12.7683 5.32588ZM24.0742 5.32588H30.1296C31.1489 5.32588 31.8732 5.26553 32.3023 5.14482C32.1012 5.61423 31.8598 6.47929 31.5781 7.74L31.3769 8.68553H30.9343L31.1959 6.13059C31.1959 5.90259 31.0483 5.78859 30.7533 5.78859H26.5085L25.3215 11.3813H29.3853C29.5194 11.3679 29.6133 11.274 29.6669 11.0996L30.0693 9.85235H30.4113L29.6267 13.4735H29.2847L29.4658 12.2262C29.4658 12.0385 29.392 11.9446 29.2445 11.9446H25.2209L24.034 17.5373H28.48C28.8019 17.5373 29.0098 17.3898 29.1036 17.0947L29.9486 14.6404H30.3912L30.19 15.5859C29.9352 16.7795 29.8078 17.6446 29.8078 18.1811C29.4188 18.0604 28.7281 18 27.7356 18H21.3986L21.4589 17.6379H22.3843C22.5587 17.6379 22.666 17.5373 22.7062 17.3361C24.3156 9.71824 25.1203 5.87576 25.1203 5.80871C25.1203 5.72823 25.0466 5.688 24.899 5.688H24.0139L24.0742 5.32588ZM39.7658 17.6379L39.2227 13.7552H34.7767L32.6039 17.6379H33.8512L33.7909 18H30.8939L30.9744 17.6379H31.6785C31.8663 17.6379 32.0071 17.544 32.101 17.3562L38.8605 5.32588H39.5043L41.1539 17.3562C41.1808 17.544 41.2814 17.6379 41.4557 17.6379H42.1598L42.0995 18H38.4582L38.5185 17.6379H39.7658ZM38.3576 7.37788L35.0784 13.1919H39.1422L38.3576 7.37788ZM48.4318 5.96965L45.9976 17.5373H49.9608C50.2961 17.5373 50.5106 17.3898 50.6045 17.0947L51.4293 14.6404H51.8719L51.6708 15.5859C51.4159 16.7527 51.2885 17.6178 51.2885 18.1811C50.8996 18.0604 50.2089 18 49.2164 18H43.3622L43.4225 17.6379H44.3479C44.5223 17.6379 44.6296 17.5373 44.6698 17.3361C46.2792 9.71824 47.0839 5.87576 47.0839 5.80871C47.0839 5.72823 47.0102 5.688 46.8626 5.688H45.9775L46.0378 5.32588H49.7395L49.6791 5.688H48.7738C48.5995 5.688 48.4855 5.78188 48.4318 5.96965ZM63.3616 13.4534L63.2208 14.1374C62.966 15.3311 62.349 16.3168 61.37 17.0947C60.4043 17.8592 59.271 18.2414 57.9701 18.2414C56.6692 18.2414 55.6297 17.8391 54.8519 17.0344C54.074 16.2296 53.685 15.1031 53.685 13.6546C53.685 12.6755 53.846 11.6898 54.1679 10.6973C54.4897 9.70482 54.939 8.78612 55.5157 7.94118C56.1059 7.09623 56.8636 6.41223 57.789 5.88918C58.7145 5.35271 59.7203 5.08447 60.8067 5.08447C61.6382 5.08447 62.4161 5.32588 63.1403 5.80871C63.3817 5.95623 63.5561 6.03 63.6634 6.03C63.8243 6.03 63.9517 5.88918 64.0456 5.60753L64.1663 5.20518H64.5285L63.7841 8.68553H63.4421C63.4555 8.57823 63.4622 8.424 63.4622 8.22282C63.4622 7.35106 63.2007 6.70729 62.6776 6.29153C62.168 5.87576 61.4773 5.66788 60.6055 5.66788C59.7337 5.66788 58.929 5.94953 58.1914 6.51282C57.4537 7.07612 56.8636 7.78023 56.421 8.62518C55.5225 10.3955 55.0732 12.1525 55.0732 13.896C55.0732 15.1031 55.3414 16.0352 55.8779 16.6924C56.4143 17.3361 57.1989 17.658 58.2316 17.658C59.2777 17.658 60.1093 17.316 60.7262 16.632C61.3432 15.948 61.7723 14.8684 62.0137 13.3931C62.0137 13.2455 61.9467 13.1718 61.8126 13.1718H60.5452L60.6055 12.8096H64.287L64.2267 13.1718H63.7237C63.5226 13.1718 63.4019 13.2656 63.3616 13.4534ZM70.3646 5.60753C71.1425 5.25882 71.9673 5.08447 72.8391 5.08447C74.1669 5.08447 75.213 5.48682 75.9774 6.29153C76.7553 7.08282 77.1443 8.20271 77.1443 9.65118C77.1443 10.6302 76.9833 11.6227 76.6614 12.6286C76.3396 13.6211 75.8903 14.5398 75.3136 15.3847C74.7369 16.2296 73.9858 16.9204 73.0604 17.4568C72.135 17.9799 71.0687 18.2414 69.8617 18.2414C68.6546 18.2414 67.6621 17.8391 66.8843 17.0344C66.1198 16.2296 65.7376 15.0628 65.7376 13.5339C65.7376 12.0049 66.1533 10.4626 66.9849 8.90682C67.8298 7.35106 68.9564 6.25129 70.3646 5.60753ZM74.9112 6.63353C74.3747 5.94953 73.6639 5.60753 72.7787 5.60753C71.8936 5.60753 71.0754 5.89588 70.3244 6.47259C69.5733 7.03588 68.9765 7.75341 68.5339 8.62518C67.6085 10.4224 67.1458 12.1659 67.1458 13.8558C67.1458 15.0762 67.4073 16.0285 67.9304 16.7125C68.4669 17.3831 69.1777 17.7184 70.0629 17.7184C70.9614 17.7184 71.7863 17.4367 72.5373 16.8734C73.2884 16.2967 73.8919 15.5792 74.3479 14.7208C75.2733 12.9371 75.736 11.1935 75.736 9.49024C75.736 8.26976 75.4611 7.31753 74.9112 6.63353Z" fill="#6082FA"/>
</svg>
