<svg width="27" height="23" viewBox="0 0 27 23" fill="none" xmlns="http://www.w3.org/2000/svg">
<path opacity="0.86" d="M12.7785 17.2944L13.5394 13.7169C13.5394 13.6703 13.5074 13.647 13.4432 13.647H13.0496L13.0759 13.4895H14.6853L14.659 13.647H14.2654C14.1896 13.647 14.1401 13.6878 14.1167 13.7694L13.3558 17.3556C13.3208 17.5189 13.3033 17.6676 13.3033 17.8017C13.3033 18.1457 13.4053 18.4023 13.6094 18.5714C13.8135 18.7347 14.0847 18.8163 14.4229 18.8163C14.7436 18.8163 15.0789 18.7055 15.4287 18.4839C15.8019 18.2449 16.0469 17.8513 16.1635 17.3031L16.9157 13.7432C16.9157 13.679 16.8865 13.647 16.8282 13.647H16.4346L16.4609 13.4895H17.7641L17.7379 13.647H17.3443C17.2685 13.647 17.2189 13.6878 17.1956 13.7694L16.4521 17.2944C16.3238 17.9008 16.0614 18.3557 15.6649 18.6589C15.2742 18.9563 14.8194 19.105 14.3004 19.105C13.245 19.105 12.7172 18.6764 12.7172 17.8192C12.7172 17.6501 12.7376 17.4751 12.7785 17.2944ZM19.7704 16.4547H19.2194C18.9045 17.9533 18.7471 18.7259 18.7471 18.7726C18.7471 18.8192 18.7791 18.8426 18.8433 18.8426H19.4031L19.3768 19H17.5925L17.6187 18.8426H18.0211C18.0969 18.8426 18.1435 18.7988 18.161 18.7114C18.8608 15.3992 19.2106 13.7286 19.2106 13.6994C19.2106 13.6644 19.1786 13.647 19.1144 13.647H18.7296L18.7558 13.4895H20.7413C21.1437 13.4895 21.4761 13.5945 21.7385 13.8044C22.0067 14.0085 22.1408 14.3117 22.1408 14.7141C22.1408 15.1106 21.995 15.4634 21.7035 15.7724C21.4178 16.0815 21.0621 16.2885 20.6364 16.3935C21.0446 16.5509 21.2487 16.8687 21.2487 17.3469C21.2487 17.516 21.2195 17.7405 21.1612 18.0204C21.1087 18.3003 21.0825 18.481 21.0825 18.5627C21.0825 18.7259 21.1466 18.8076 21.2749 18.8076C21.4032 18.8076 21.5373 18.7172 21.6772 18.5364C21.8172 18.3498 21.9426 18.0874 22.0534 17.7492L22.2021 17.7842C22.0446 18.2507 21.8697 18.5889 21.6772 18.7988C21.4848 19.0029 21.2574 19.105 20.995 19.105C20.8667 19.105 20.7588 19.0583 20.6714 18.965C20.5839 18.8659 20.5402 18.7288 20.5402 18.5539C20.5402 18.379 20.5664 18.1545 20.6189 17.8804C20.6772 17.6063 20.7063 17.3614 20.7063 17.1457C20.7063 16.685 20.3944 16.4547 19.7704 16.4547ZM20.6539 13.6907H19.8142L19.2631 16.2448H20.1378C20.546 16.2448 20.8842 16.0727 21.1524 15.7287C21.4265 15.3847 21.5635 15.0202 21.5635 14.6353C21.5635 14.3613 21.4848 14.1368 21.3274 13.9618C21.1758 13.7811 20.9513 13.6907 20.6539 13.6907ZM24.9344 13.7694L23.876 18.7988H25.5992C25.7449 18.7988 25.8382 18.7347 25.8791 18.6064L26.2377 17.5393H26.4301L26.3426 17.9504C26.2318 18.4577 26.1764 18.8338 26.1764 19.0787C26.0073 19.0262 25.707 19 25.2755 19H22.7302L22.7564 18.8426H23.1588C23.2346 18.8426 23.2813 18.7988 23.2988 18.7114C23.9985 15.3992 24.3484 13.7286 24.3484 13.6994C24.3484 13.6644 24.3163 13.647 24.2522 13.647H23.8673L23.8935 13.4895H25.5029L25.4767 13.647H25.0831C25.0073 13.647 24.9577 13.6878 24.9344 13.7694Z" fill="#6082FA"/>
<path opacity="0.86" d="M5.21047 12.1458H3.94306C3.21882 15.5926 2.85671 17.3696 2.85671 17.4769C2.85671 17.5842 2.93047 17.6379 3.078 17.6379H4.36553L4.30518 18H0.201176L0.261529 17.6379H1.18694C1.36129 17.6379 1.46859 17.5373 1.50882 17.3361C3.11824 9.71824 3.92294 5.87576 3.92294 5.80871C3.92294 5.72823 3.84918 5.688 3.70165 5.688H2.81647L2.87682 5.32588H7.44353C8.36894 5.32588 9.13341 5.56729 9.73694 6.05012C10.3539 6.51953 10.6624 7.21694 10.6624 8.14235C10.6624 9.05435 10.3271 9.86576 9.65647 10.5766C8.99929 11.2874 8.18118 11.7635 7.20212 12.0049C8.14094 12.3671 8.61035 13.098 8.61035 14.1978C8.61035 14.5867 8.54329 15.1031 8.40918 15.7468C8.28847 16.3906 8.22812 16.8064 8.22812 16.9941C8.22812 17.3696 8.37565 17.5574 8.67071 17.5574C8.96577 17.5574 9.27424 17.3495 9.59612 16.9338C9.918 16.5046 10.2064 15.9011 10.4612 15.1232L10.8032 15.2036C10.4411 16.2766 10.0387 17.0545 9.59612 17.5373C9.15353 18.0067 8.63047 18.2414 8.02694 18.2414C7.73188 18.2414 7.48376 18.1341 7.28259 17.9195C7.08141 17.6915 6.98082 17.3764 6.98082 16.974C6.98082 16.5716 7.04118 16.0553 7.16188 15.4249C7.296 14.7946 7.36306 14.2313 7.36306 13.7351C7.36306 12.6755 6.64553 12.1458 5.21047 12.1458ZM7.24235 5.78859H5.31106L4.04365 11.6629H6.05541C6.99424 11.6629 7.77212 11.2673 8.38906 10.476C9.01941 9.68471 9.33459 8.84647 9.33459 7.96129C9.33459 7.33094 9.15353 6.81459 8.79141 6.41223C8.44271 5.99647 7.92635 5.78859 7.24235 5.78859Z" fill="#6082FA"/>
</svg>
