<svg width="535" height="24" viewBox="0 0 535 24" fill="none" xmlns="http://www.w3.org/2000/svg">
<path opacity="0.86" d="M4.63294 5.60753C5.41082 5.25882 6.23565 5.08447 7.10741 5.08447C8.43518 5.08447 9.48129 5.48682 10.2458 6.29153C11.0236 7.08282 11.4126 8.20271 11.4126 9.65118C11.4126 10.6302 11.2516 11.6227 10.9298 12.6286C10.6079 13.6211 10.1586 14.5398 9.58188 15.3847C9.00518 16.2296 8.25412 16.9204 7.32871 17.4568C6.40329 17.9799 5.33706 18.2414 4.13 18.2414C2.92294 18.2414 1.93047 17.8391 1.15259 17.0344C0.388118 16.2296 0.00588237 15.0628 0.00588237 13.5339C0.00588237 12.0049 0.421647 10.4626 1.25318 8.90682C2.09812 7.35106 3.22471 6.25129 4.63294 5.60753ZM9.17953 6.63353C8.64306 5.94953 7.93224 5.60753 7.04706 5.60753C6.16188 5.60753 5.34377 5.89588 4.59271 6.47259C3.84165 7.03588 3.24482 7.75341 2.80224 8.62518C1.87682 10.4224 1.41412 12.1659 1.41412 13.8558C1.41412 15.0762 1.67565 16.0285 2.19871 16.7125C2.73518 17.3831 3.446 17.7184 4.33118 17.7184C5.22977 17.7184 6.05459 17.4367 6.80565 16.8734C7.55671 16.2967 8.16024 15.5792 8.61624 14.7208C9.54165 12.9371 10.0044 11.1935 10.0044 9.49024C10.0044 8.26976 9.72941 7.31753 9.17953 6.63353ZM16.1795 9.24882L16.4612 9.45C15.8174 10.9253 15.2541 12.6219 14.7713 14.5398H14.9322L15.2541 13.6546C15.8845 11.9379 16.5081 10.7442 17.1251 10.0736C17.742 9.40306 18.2785 9.06776 18.7345 9.06776C19.1905 9.06776 19.5258 9.21529 19.7404 9.51035C19.9684 9.80541 20.0824 10.1876 20.0824 10.6571C20.0824 11.1265 19.9952 11.5355 19.8208 11.8842C19.6465 12.2329 19.3916 12.4073 19.0564 12.4073C18.7345 12.4073 18.4662 12.3 18.2516 12.0854C18.3858 11.9111 18.5132 11.6562 18.6339 11.3209C18.7546 10.9856 18.8149 10.6906 18.8149 10.4358C18.8149 10.0468 18.654 9.85235 18.3321 9.85235C17.9968 9.85235 17.5811 10.1809 17.0848 10.8381C15.9985 12.2598 15.0798 14.6471 14.3287 18L12.9205 18.1207L14.892 9.99318L13.6045 10.0938L13.5844 9.75176C14.5098 9.63106 15.3748 9.46341 16.1795 9.24882ZM26.884 17.0142C26.884 17.4568 27.0516 17.6781 27.3869 17.6781C27.6418 17.6781 27.9167 17.5105 28.2118 17.1752C28.5068 16.8265 28.7616 16.3369 28.9762 15.7066L29.2981 15.7871C28.7214 17.4233 27.9704 18.2414 27.0449 18.2414C26.2134 18.2414 25.7976 17.7184 25.7976 16.6722C25.7976 15.6127 26.6761 11.8976 28.4331 5.52706L27.1455 5.62765L27.1254 5.28565C28.0508 5.16494 28.9159 4.99729 29.7206 4.78271L30.0022 4.98388C29.4389 6.63353 28.7751 8.87329 28.0106 11.7032C27.2595 14.5196 26.884 16.29 26.884 17.0142ZM25.9988 15.7669H25.7976C24.9661 17.4166 24.0005 18.2414 22.9007 18.2414C22.2704 18.2414 21.7406 17.9665 21.3114 17.4166C20.8956 16.8533 20.6878 16.1693 20.6878 15.3646C20.6878 14.5465 20.7951 13.7887 21.0096 13.0913C21.2242 12.3939 21.526 11.7434 21.9149 11.1399C22.3039 10.5229 22.8202 10.0267 23.464 9.65118C24.1078 9.26223 24.7649 9.06776 25.4355 9.06776C26.7231 9.06776 27.6351 9.63106 28.1715 10.7576L27.8899 11.1198C27.2595 10.0736 26.4749 9.55059 25.5361 9.55059C24.9594 9.55059 24.4296 9.75847 23.9468 10.1742C23.4774 10.59 23.1086 11.1131 22.8404 11.7434C22.2905 13.0309 22.0155 14.2447 22.0155 15.3847C22.0155 16.1358 22.1362 16.6991 22.3776 17.0746C22.6325 17.4501 22.9678 17.6379 23.3835 17.6379C23.9602 17.6379 24.5504 17.1551 25.1539 16.1894C25.7574 15.2104 26.2939 13.8155 26.7633 12.0049L25.9988 15.7669ZM35.9973 9.06776C36.7081 9.06776 37.2379 9.24212 37.5866 9.59082C37.9487 9.92612 38.1298 10.4156 38.1298 11.0594C38.1298 11.6898 37.8816 12.2396 37.3854 12.7091C36.5405 13.5138 35.2865 13.9161 33.6234 13.9161C33.1272 13.9161 32.698 13.8759 32.3359 13.7954V13.4132C32.8053 13.4802 33.1942 13.5138 33.5027 13.5138C34.6159 13.5138 35.4742 13.2321 36.0778 12.6688C36.6947 12.1055 37.0032 11.4886 37.0032 10.818C37.0032 10.4559 36.9026 10.1541 36.7014 9.91271C36.5136 9.67129 36.1918 9.55059 35.7358 9.55059C35.2932 9.55059 34.8372 9.75847 34.3678 10.1742C33.9118 10.59 33.5496 11.1064 33.2814 11.7233C32.7449 13.0242 32.4767 14.1508 32.4767 15.1031C32.4767 16.8734 33.0132 17.7586 34.0861 17.7586C35.4139 17.7586 36.3862 17.0344 37.0032 15.5859L37.3251 15.6664C37.0032 16.4845 36.5338 17.1215 35.9168 17.5775C35.3133 18.0201 34.6293 18.2414 33.8648 18.2414C33.1004 18.2414 32.4566 17.9598 31.9335 17.3965C31.4105 16.8332 31.1489 16.0754 31.1489 15.1232C31.1489 14.1709 31.33 13.2522 31.6921 12.3671C32.0542 11.4685 32.6175 10.6973 33.382 10.0535C34.1465 9.39635 35.0182 9.06776 35.9973 9.06776ZM42.9069 9.24882L43.1886 9.45C42.5448 10.9253 41.9815 12.6219 41.4987 14.5398H41.6596L41.9815 13.6546C42.6119 11.9379 43.2355 10.7442 43.8525 10.0736C44.4694 9.40306 45.0059 9.06776 45.4619 9.06776C45.9179 9.06776 46.2532 9.21529 46.4677 9.51035C46.6957 9.80541 46.8097 10.1876 46.8097 10.6571C46.8097 11.1265 46.7226 11.5355 46.5482 11.8842C46.3739 12.2329 46.119 12.4073 45.7837 12.4073C45.4619 12.4073 45.1936 12.3 44.979 12.0854C45.1132 11.9111 45.2406 11.6562 45.3613 11.3209C45.482 10.9856 45.5423 10.6906 45.5423 10.4358C45.5423 10.0468 45.3814 9.85235 45.0595 9.85235C44.7242 9.85235 44.3085 10.1809 43.8122 10.8381C42.7259 12.2598 41.8072 14.6471 41.0561 18L39.6479 18.1207L41.6194 9.99318L40.3319 10.0938L40.3117 9.75176C41.2372 9.63106 42.1022 9.46341 42.9069 9.24882ZM47.7773 17.9396C47.5761 17.7251 47.4755 17.4702 47.4755 17.1752C47.4755 16.8801 47.5761 16.632 47.7773 16.4308C47.9919 16.2162 48.2467 16.1089 48.5417 16.1089C48.8368 16.1089 49.0849 16.2162 49.2861 16.4308C49.5007 16.632 49.608 16.8801 49.608 17.1752C49.608 17.4702 49.5007 17.7251 49.2861 17.9396C49.0849 18.1408 48.8368 18.2414 48.5417 18.2414C48.2467 18.2414 47.9919 18.1408 47.7773 17.9396ZM56.5362 9.06776C57.247 9.06776 57.7767 9.24212 58.1255 9.59082C58.4876 9.92612 58.6686 10.4156 58.6686 11.0594C58.6686 11.6898 58.4205 12.2396 57.9243 12.7091C57.0793 13.5138 55.8253 13.9161 54.1623 13.9161C53.666 13.9161 53.2369 13.8759 52.8747 13.7954V13.4132C53.3442 13.4802 53.7331 13.5138 54.0416 13.5138C55.1547 13.5138 56.0131 13.2321 56.6166 12.6688C57.2336 12.1055 57.542 11.4886 57.542 10.818C57.542 10.4559 57.4415 10.1541 57.2403 9.91271C57.0525 9.67129 56.7306 9.55059 56.2746 9.55059C55.832 9.55059 55.376 9.75847 54.9066 10.1742C54.4506 10.59 54.0885 11.1064 53.8203 11.7233C53.2838 13.0242 53.0156 14.1508 53.0156 15.1031C53.0156 16.8734 53.552 17.7586 54.625 17.7586C55.9527 17.7586 56.9251 17.0344 57.542 15.5859L57.8639 15.6664C57.542 16.4845 57.0726 17.1215 56.4557 17.5775C55.8522 18.0201 55.1682 18.2414 54.4037 18.2414C53.6392 18.2414 52.9955 17.9598 52.4724 17.3965C51.9493 16.8332 51.6878 16.0754 51.6878 15.1232C51.6878 14.1709 51.8689 13.2522 52.231 12.3671C52.5931 11.4685 53.1564 10.6973 53.9209 10.0535C54.6853 9.39635 55.5571 9.06776 56.5362 9.06776ZM68.2941 10.8985C68.2941 11.4752 67.9655 12.5347 67.3084 14.0771C66.6646 15.6194 66.3427 16.6052 66.3427 17.0344C66.3427 17.4635 66.5104 17.6781 66.8457 17.6781C67.1005 17.6781 67.3754 17.5105 67.6705 17.1752C67.9655 16.8265 68.2204 16.3369 68.435 15.7066L68.7568 15.7871C68.1801 17.4233 67.4291 18.2414 66.5037 18.2414C65.6721 18.2414 65.2564 17.7854 65.2564 16.8734C65.2564 16.4845 65.5581 15.5188 66.1617 13.9765C66.7786 12.4341 67.0871 11.4416 67.0871 10.9991C67.0871 10.1541 66.7786 9.73165 66.1617 9.73165C65.4911 9.73165 64.7668 10.2748 63.989 11.3612C63.0904 12.6621 62.2924 14.8751 61.595 18L60.1867 18.1207L62.1583 9.99318L60.8707 10.0938L60.8506 9.75176C61.776 9.63106 62.6411 9.46341 63.4458 9.24882L63.7274 9.45C63.0837 10.9253 62.5204 12.6219 62.0375 14.5398H62.1985L62.5204 13.6546C63.2446 11.6294 64.0292 10.3151 64.8741 9.71153C65.2765 9.44329 65.6051 9.26894 65.8599 9.18847C66.1281 9.108 66.4567 9.06776 66.8457 9.06776C67.248 9.06776 67.59 9.22871 67.8717 9.55059C68.1533 9.87247 68.2941 10.3218 68.2941 10.8985ZM75.354 9.55059C74.8041 9.55059 74.2945 9.75847 73.8251 10.1742C73.3691 10.59 73.007 11.1064 72.7387 11.7233C72.2023 13.0242 71.934 14.1508 71.934 15.1031C71.934 16.8734 72.4705 17.7586 73.5434 17.7586C74.8712 17.7586 75.8435 17.0344 76.4605 15.5859L76.7824 15.6664C76.4605 16.4845 75.9911 17.1215 75.3741 17.5775C74.7706 18.0201 74.0866 18.2414 73.3221 18.2414C72.5577 18.2414 71.9139 17.9598 71.3908 17.3965C70.8678 16.8332 70.6063 16.0754 70.6063 15.1232C70.6063 14.1709 70.7873 13.2522 71.1494 12.3671C71.5115 11.4685 72.0748 10.6973 72.8393 10.0535C73.6038 9.39635 74.4755 9.06776 75.4546 9.06776C76.1252 9.06776 76.6281 9.24212 76.9634 9.59082C77.3121 9.92612 77.4865 10.3352 77.4865 10.818C77.4865 11.2874 77.3993 11.7099 77.225 12.0854C77.064 12.4609 76.8025 12.6487 76.4404 12.6487C76.0917 12.6487 75.8301 12.5414 75.6558 12.3268C76.0447 11.7367 76.2392 11.16 76.2392 10.5967C76.2392 9.89929 75.9441 9.55059 75.354 9.55059ZM82.3642 9.24882L82.6459 9.45C82.0021 10.9253 81.4388 12.6219 80.956 14.5398H81.1169L81.4388 13.6546C82.0692 11.9379 82.6928 10.7442 83.3098 10.0736C83.9267 9.40306 84.4632 9.06776 84.9192 9.06776C85.3752 9.06776 85.7105 9.21529 85.9251 9.51035C86.1531 9.80541 86.2671 10.1876 86.2671 10.6571C86.2671 11.1265 86.1799 11.5355 86.0055 11.8842C85.8312 12.2329 85.5763 12.4073 85.2411 12.4073C84.9192 12.4073 84.6509 12.3 84.4363 12.0854C84.5705 11.9111 84.6979 11.6562 84.8186 11.3209C84.9393 10.9856 84.9996 10.6906 84.9996 10.4358C84.9996 10.0468 84.8387 9.85235 84.5168 9.85235C84.1815 9.85235 83.7658 10.1809 83.2695 10.8381C82.1832 12.2598 81.2645 14.6471 80.5134 18L79.1052 18.1207L81.0767 9.99318L79.7892 10.0938L79.7691 9.75176C80.6945 9.63106 81.5595 9.46341 82.3642 9.24882ZM90.0913 17.5775C90.9496 17.5775 91.8013 16.9539 92.6462 15.7066C93.5046 14.4459 93.9338 13.2724 93.9338 12.186C93.9338 11.0862 93.5851 10.1876 92.8876 9.49024C93.2229 9.20859 93.5314 9.06776 93.8131 9.06776C94.3361 9.06776 94.5976 9.80541 94.5976 11.2807C94.5976 12.756 94.4367 14.1106 94.1148 15.3445C93.7929 16.5649 93.3705 17.6044 92.8474 18.4627C92.3378 19.3211 91.7544 20.0654 91.0972 20.6958C89.8231 21.9565 88.5288 22.5868 87.2145 22.5868C86.5439 22.5868 86.0409 22.4326 85.7056 22.1241C85.3569 21.8156 85.1826 21.4535 85.1826 21.0378C85.1826 20.622 85.2698 20.2465 85.4441 19.9112C85.6051 19.5759 85.8532 19.4082 86.1885 19.4082C86.5238 19.4082 86.7987 19.5021 87.0133 19.6899C86.6244 20.1861 86.4299 20.6421 86.4299 21.0579C86.4299 21.7285 86.7853 22.0638 87.4961 22.0638C87.9655 22.0638 88.5087 21.8894 89.1256 21.5407C89.7426 21.2054 90.3662 20.7226 90.9966 20.0922C91.6269 19.4753 92.2036 18.6438 92.7267 17.5976C93.2632 16.5515 93.6387 15.4182 93.8533 14.1978C93.4107 15.3646 92.8139 16.3302 92.0628 17.0947C91.3252 17.8592 90.4735 18.2414 89.5079 18.2414C89.0116 18.2414 88.6093 18.0738 88.3008 17.7385C88.0058 17.3898 87.8582 16.9204 87.8582 16.3302C87.8582 15.7401 88.0795 14.7074 88.5221 13.2321C88.9781 11.7568 89.2061 10.7912 89.2061 10.3352C89.2061 9.86576 89.0318 9.63106 88.6831 9.63106C88.4282 9.63106 88.16 9.80541 87.8784 10.1541C87.5967 10.4894 87.3687 10.9722 87.1944 11.6026L86.8524 11.5221C87.3486 9.88588 88.0661 9.06776 89.0049 9.06776C89.8767 9.06776 90.3126 9.53718 90.3126 10.476C90.3126 10.8515 90.1047 11.7836 89.6889 13.2724C89.2732 14.7611 89.0653 15.7401 89.0653 16.2095C89.0653 17.1215 89.4073 17.5775 90.0913 17.5775ZM100.144 9.24882L100.425 9.45C99.7816 10.9253 99.2183 12.6219 98.7354 14.5398H98.8964L99.2183 13.6546C100.331 10.5967 101.606 9.06776 103.041 9.06776C103.617 9.06776 104.107 9.34941 104.509 9.91271C104.925 10.476 105.133 11.16 105.133 11.9647C105.133 12.7694 105.026 13.5205 104.811 14.2179C104.61 14.9019 104.315 15.5456 103.926 16.1492C103.537 16.7393 103.027 17.2221 102.397 17.5976C101.766 17.9732 101.069 18.1609 100.305 18.1609C99.1378 18.1609 98.2258 17.6446 97.5686 16.6119L97.7094 16.2699C98.3532 17.2489 99.1981 17.7385 100.244 17.7385C100.848 17.7385 101.384 17.5373 101.854 17.1349C102.336 16.7326 102.705 16.2296 102.96 15.6261C103.47 14.3922 103.725 13.1852 103.725 12.0049C103.725 11.3209 103.624 10.7912 103.423 10.4156C103.235 10.0267 102.987 9.83223 102.678 9.83223C102.048 9.83223 101.337 10.4425 100.546 11.6629C99.7681 12.8834 99.064 14.7879 98.4337 17.3764L97.2266 22.3454L95.8184 22.4661L98.8561 9.99318L97.5686 10.0938L97.5485 9.75176C98.4739 9.63106 99.339 9.46341 100.144 9.24882ZM107.277 10.0334L107.378 9.65118H111.844L111.743 10.0334H107.277ZM110.476 7.1767L110.757 7.37788C110.449 8.31671 110.033 9.792 109.51 11.8038C109.001 13.8155 108.692 15.1165 108.585 15.7066C108.477 16.2833 108.424 16.7192 108.424 17.0142C108.424 17.4568 108.591 17.6781 108.927 17.6781C109.182 17.6781 109.457 17.5105 109.752 17.1752C110.047 16.8265 110.301 16.3369 110.516 15.7066L110.838 15.7871C110.261 17.4233 109.51 18.2414 108.585 18.2414C107.753 18.2414 107.337 17.7385 107.337 16.7326C107.337 15.9011 107.834 13.5808 108.826 9.77188L107.378 9.65118C108.115 9.65118 108.712 9.47682 109.168 9.12812C109.624 8.766 110.06 8.11553 110.476 7.1767ZM117.544 9.06776C118.255 9.06776 118.785 9.24212 119.134 9.59082C119.496 9.92612 119.677 10.4156 119.677 11.0594C119.677 11.6898 119.429 12.2396 118.933 12.7091C118.088 13.5138 116.834 13.9161 115.171 13.9161C114.674 13.9161 114.245 13.8759 113.883 13.7954V13.4132C114.352 13.4802 114.741 13.5138 115.05 13.5138C116.163 13.5138 117.021 13.2321 117.625 12.6688C118.242 12.1055 118.55 11.4886 118.55 10.818C118.55 10.4559 118.45 10.1541 118.249 9.91271C118.061 9.67129 117.739 9.55059 117.283 9.55059C116.84 9.55059 116.384 9.75847 115.915 10.1742C115.459 10.59 115.097 11.1064 114.829 11.7233C114.292 13.0242 114.024 14.1508 114.024 15.1031C114.024 16.8734 114.56 17.7586 115.633 17.7586C116.961 17.7586 117.933 17.0344 118.55 15.5859L118.872 15.6664C118.55 16.4845 118.081 17.1215 117.464 17.5775C116.86 18.0201 116.176 18.2414 115.412 18.2414C114.648 18.2414 114.004 17.9598 113.481 17.3965C112.958 16.8332 112.696 16.0754 112.696 15.1232C112.696 14.1709 112.877 13.2522 113.239 12.3671C113.601 11.4685 114.165 10.6973 114.929 10.0535C115.694 9.39635 116.565 9.06776 117.544 9.06776ZM127.291 17.0142C127.291 17.4568 127.458 17.6781 127.794 17.6781C128.048 17.6781 128.323 17.5105 128.618 17.1752C128.914 16.8265 129.168 16.3369 129.383 15.7066L129.705 15.7871C129.128 17.4233 128.377 18.2414 127.452 18.2414C126.62 18.2414 126.204 17.7184 126.204 16.6722C126.204 15.6127 127.083 11.8976 128.84 5.52706L127.552 5.62765L127.532 5.28565C128.458 5.16494 129.323 4.99729 130.127 4.78271L130.409 4.98388C129.846 6.63353 129.182 8.87329 128.417 11.7032C127.666 14.5196 127.291 16.29 127.291 17.0142ZM126.406 15.7669H126.204C125.373 17.4166 124.407 18.2414 123.307 18.2414C122.677 18.2414 122.147 17.9665 121.718 17.4166C121.302 16.8533 121.094 16.1693 121.094 15.3646C121.094 14.5465 121.202 13.7887 121.416 13.0913C121.631 12.3939 121.933 11.7434 122.322 11.1399C122.711 10.5229 123.227 10.0267 123.871 9.65118C124.514 9.26223 125.172 9.06776 125.842 9.06776C127.13 9.06776 128.042 9.63106 128.578 10.7576L128.297 11.1198C127.666 10.0736 126.882 9.55059 125.943 9.55059C125.366 9.55059 124.836 9.75847 124.354 10.1742C123.884 10.59 123.515 11.1131 123.247 11.7434C122.697 13.0309 122.422 14.2447 122.422 15.3847C122.422 16.1358 122.543 16.6991 122.784 17.0746C123.039 17.4501 123.374 17.6379 123.79 17.6379C124.367 17.6379 124.957 17.1551 125.561 16.1894C126.164 15.2104 126.701 13.8155 127.17 12.0049L126.406 15.7669ZM135.961 12.1458H134.694C133.97 15.5926 133.608 17.3696 133.608 17.4769C133.608 17.5842 133.681 17.6379 133.829 17.6379H135.116L135.056 18H130.952L131.012 17.6379H131.938C132.112 17.6379 132.22 17.5373 132.26 17.3361C133.869 9.71824 134.674 5.87576 134.674 5.80871C134.674 5.72823 134.6 5.688 134.453 5.688H133.567L133.628 5.32588H138.194C139.12 5.32588 139.884 5.56729 140.488 6.05012C141.105 6.51953 141.413 7.21694 141.413 8.14235C141.413 9.05435 141.078 9.86576 140.407 10.5766C139.75 11.2874 138.932 11.7635 137.953 12.0049C138.892 12.3671 139.361 13.098 139.361 14.1978C139.361 14.5867 139.294 15.1031 139.16 15.7468C139.039 16.3906 138.979 16.8064 138.979 16.9941C138.979 17.3696 139.127 17.5574 139.422 17.5574C139.717 17.5574 140.025 17.3495 140.347 16.9338C140.669 16.5046 140.957 15.9011 141.212 15.1232L141.554 15.2036C141.192 16.2766 140.79 17.0545 140.347 17.5373C139.904 18.0067 139.381 18.2414 138.778 18.2414C138.483 18.2414 138.235 18.1341 138.034 17.9195C137.832 17.6915 137.732 17.3764 137.732 16.974C137.732 16.5716 137.792 16.0553 137.913 15.4249C138.047 14.7946 138.114 14.2313 138.114 13.7351C138.114 12.6755 137.396 12.1458 135.961 12.1458ZM137.993 5.78859H136.062L134.795 11.6629H136.806C137.745 11.6629 138.523 11.2673 139.14 10.476C139.77 9.68471 140.086 8.84647 140.086 7.96129C140.086 7.33094 139.904 6.81459 139.542 6.41223C139.194 5.99647 138.677 5.78859 137.993 5.78859ZM148.221 9.06776C148.932 9.06776 149.461 9.24212 149.81 9.59082C150.172 9.92612 150.353 10.4156 150.353 11.0594C150.353 11.6898 150.105 12.2396 149.609 12.7091C148.764 13.5138 147.51 13.9161 145.847 13.9161C145.351 13.9161 144.921 13.8759 144.559 13.7954V13.4132C145.029 13.4802 145.418 13.5138 145.726 13.5138C146.839 13.5138 147.698 13.2321 148.301 12.6688C148.918 12.1055 149.227 11.4886 149.227 10.818C149.227 10.4559 149.126 10.1541 148.925 9.91271C148.737 9.67129 148.415 9.55059 147.959 9.55059C147.517 9.55059 147.061 9.75847 146.591 10.1742C146.135 10.59 145.773 11.1064 145.505 11.7233C144.968 13.0242 144.7 14.1508 144.7 15.1031C144.7 16.8734 145.237 17.7586 146.31 17.7586C147.637 17.7586 148.61 17.0344 149.227 15.5859L149.549 15.6664C149.227 16.4845 148.757 17.1215 148.14 17.5775C147.537 18.0201 146.853 18.2414 146.088 18.2414C145.324 18.2414 144.68 17.9598 144.157 17.3965C143.634 16.8332 143.372 16.0754 143.372 15.1232C143.372 14.1709 143.553 13.2522 143.916 12.3671C144.278 11.4685 144.841 10.6973 145.605 10.0535C146.37 9.39635 147.242 9.06776 148.221 9.06776ZM155.613 9.55059C155.104 9.55059 154.668 9.69812 154.306 9.99318C153.943 10.2882 153.762 10.6638 153.762 11.1198C153.762 11.5758 153.95 11.9915 154.326 12.3671C154.701 12.7426 155.11 13.0578 155.553 13.3126C155.995 13.554 156.405 13.8759 156.78 14.2782C157.156 14.6806 157.343 15.1098 157.343 15.5658C157.343 16.4241 157.008 17.088 156.337 17.5574C155.68 18.0134 154.882 18.2414 153.943 18.2414C153.005 18.2414 152.18 18.0201 151.469 17.5775C151.697 17.1215 151.912 16.3302 152.113 15.2036L152.455 15.264C152.361 15.8139 152.314 16.2498 152.314 16.5716C152.314 16.8801 152.461 17.1685 152.757 17.4367C153.065 17.6915 153.501 17.8189 154.064 17.8189C154.641 17.8189 155.124 17.6446 155.513 17.2959C155.915 16.9472 156.116 16.4912 156.116 15.9279C156.116 15.5658 155.935 15.2171 155.573 14.8818C155.224 14.5331 154.835 14.2447 154.406 14.0167C153.99 13.7887 153.601 13.4668 153.239 13.0511C152.891 12.6353 152.716 12.1793 152.716 11.6831C152.716 10.9454 153.005 10.3285 153.581 9.83223C154.171 9.32259 154.943 9.06776 155.895 9.06776C156.633 9.06776 157.363 9.24882 158.088 9.61094C158.021 9.75847 157.907 10.0938 157.746 10.6168C157.598 11.1399 157.484 11.6361 157.404 12.1055L157.062 12.0452C157.142 11.616 157.182 11.2069 157.182 10.818C157.182 10.4156 157.048 10.1072 156.78 9.89259C156.525 9.66459 156.136 9.55059 155.613 9.55059ZM165.248 16.7326C165.248 16.5314 165.281 16.2095 165.348 15.7669H165.248C164.389 17.4166 163.397 18.2414 162.27 18.2414C161.063 18.2414 160.46 17.5708 160.46 16.2296C160.46 15.3579 160.768 13.7418 161.385 11.3813L161.747 9.99318L160.46 10.0938L160.44 9.75176C161.365 9.63106 162.23 9.46341 163.035 9.24882L163.316 9.45C162.19 12.9505 161.627 15.1902 161.627 16.1693C161.627 17.1484 161.995 17.6379 162.733 17.6379C163.35 17.6379 163.953 17.1886 164.544 16.29C165.147 15.378 165.643 14.1575 166.032 12.6286L166.716 9.99318L165.429 10.0938L165.409 9.75176C166.334 9.63106 167.199 9.46341 168.004 9.24882L168.285 9.45C167.816 10.8448 167.373 12.3402 166.958 13.9362C166.542 15.5322 166.334 16.5582 166.334 17.0142C166.334 17.4568 166.502 17.6781 166.837 17.6781C167.092 17.6781 167.367 17.5105 167.662 17.1752C167.957 16.8265 168.212 16.3369 168.426 15.7066L168.748 15.7871C168.171 17.4233 167.42 18.2414 166.495 18.2414C165.663 18.2414 165.248 17.7385 165.248 16.7326ZM172.08 17.0142C172.08 17.4568 172.247 17.6781 172.583 17.6781C172.837 17.6781 173.112 17.5105 173.407 17.1752C173.702 16.8265 173.957 16.3369 174.172 15.7066L174.494 15.7871C173.917 17.4233 173.166 18.2414 172.241 18.2414C171.409 18.2414 170.993 17.7184 170.993 16.6722C170.993 15.6127 171.872 11.8976 173.629 5.52706L172.341 5.62765L172.321 5.28565C173.246 5.16494 174.112 4.99729 174.916 4.78271L175.198 4.98388C174.635 6.63353 173.971 8.87329 173.206 11.7032C172.455 14.5196 172.08 16.29 172.08 17.0142ZM176.88 10.0334L176.981 9.65118H181.447L181.346 10.0334H176.88ZM180.079 7.1767L180.361 7.37788C180.052 8.31671 179.636 9.792 179.113 11.8038C178.604 13.8155 178.295 15.1165 178.188 15.7066C178.081 16.2833 178.027 16.7192 178.027 17.0142C178.027 17.4568 178.195 17.6781 178.53 17.6781C178.785 17.6781 179.06 17.5105 179.355 17.1752C179.65 16.8265 179.905 16.3369 180.119 15.7066L180.441 15.7871C179.864 17.4233 179.113 18.2414 178.188 18.2414C177.356 18.2414 176.941 17.7385 176.941 16.7326C176.941 15.9011 177.437 13.5808 178.429 9.77188L176.981 9.65118C177.718 9.65118 178.315 9.47682 178.771 9.12812C179.227 8.766 179.663 8.11553 180.079 7.1767ZM196.221 12.87H188.335V11.8038H196.221V12.87ZM196.221 16.29H188.335V15.2238H196.221V16.29Z" fill="#6082FA"/>
<path opacity="0.86" d="M205.877 5.32588H211.932C212.952 5.32588 213.676 5.26553 214.105 5.14482C213.904 5.61423 213.662 6.47929 213.381 7.74L213.18 8.68553H212.737L212.998 6.13059C212.998 5.90259 212.851 5.78859 212.556 5.78859H208.311L207.124 11.3813H211.188C211.322 11.3679 211.416 11.274 211.47 11.0996L211.872 9.85235H212.214L211.429 13.4735H211.087L211.268 12.2262C211.268 12.0385 211.195 11.9446 211.047 11.9446H207.024L205.837 17.5373H210.283C210.604 17.5373 210.812 17.3898 210.906 17.0947L211.751 14.6404H212.194L211.993 15.5859C211.738 16.7795 211.61 17.6446 211.61 18.1811C211.221 18.0604 210.531 18 209.538 18H203.201L203.262 17.6379H204.187C204.361 17.6379 204.469 17.5373 204.509 17.3361C206.118 9.71824 206.923 5.87576 206.923 5.80871C206.923 5.72823 206.849 5.688 206.702 5.688H205.816L205.877 5.32588ZM223.319 10.8985C223.319 11.4752 222.99 12.5347 222.333 14.0771C221.689 15.6194 221.367 16.6052 221.367 17.0344C221.367 17.4635 221.535 17.6781 221.87 17.6781C222.125 17.6781 222.4 17.5105 222.695 17.1752C222.99 16.8265 223.245 16.3369 223.459 15.7066L223.781 15.7871C223.205 17.4233 222.454 18.2414 221.528 18.2414C220.697 18.2414 220.281 17.7854 220.281 16.8734C220.281 16.4845 220.583 15.5188 221.186 13.9765C221.803 12.4341 222.112 11.4416 222.112 10.9991C222.112 10.1541 221.803 9.73165 221.186 9.73165C220.516 9.73165 219.791 10.2748 219.013 11.3612C218.115 12.6621 217.317 14.8751 216.619 18L215.211 18.1207L217.183 9.99318L215.895 10.0938L215.875 9.75176C216.801 9.63106 217.666 9.46341 218.47 9.24882L218.752 9.45C218.108 10.9253 217.545 12.6219 217.062 14.5398H217.223L217.545 13.6546C218.269 11.6294 219.054 10.3151 219.899 9.71153C220.301 9.44329 220.63 9.26894 220.884 9.18847C221.153 9.108 221.481 9.06776 221.87 9.06776C222.273 9.06776 222.615 9.22871 222.896 9.55059C223.178 9.87247 223.319 10.3218 223.319 10.8985ZM230.379 9.55059C229.829 9.55059 229.319 9.75847 228.85 10.1742C228.394 10.59 228.031 11.1064 227.763 11.7233C227.227 13.0242 226.959 14.1508 226.959 15.1031C226.959 16.8734 227.495 17.7586 228.568 17.7586C229.896 17.7586 230.868 17.0344 231.485 15.5859L231.807 15.6664C231.485 16.4845 231.016 17.1215 230.399 17.5775C229.795 18.0201 229.111 18.2414 228.347 18.2414C227.582 18.2414 226.938 17.9598 226.415 17.3965C225.892 16.8332 225.631 16.0754 225.631 15.1232C225.631 14.1709 225.812 13.2522 226.174 12.3671C226.536 11.4685 227.099 10.6973 227.864 10.0535C228.628 9.39635 229.5 9.06776 230.479 9.06776C231.15 9.06776 231.653 9.24212 231.988 9.59082C232.337 9.92612 232.511 10.3352 232.511 10.818C232.511 11.2874 232.424 11.7099 232.249 12.0854C232.089 12.4609 231.827 12.6487 231.465 12.6487C231.116 12.6487 230.855 12.5414 230.68 12.3268C231.069 11.7367 231.264 11.16 231.264 10.5967C231.264 9.89929 230.969 9.55059 230.379 9.55059Z" fill="#6082FA"/>
<path opacity="0.86" d="M236.755 11.7384C237.274 11.5059 237.824 11.3896 238.405 11.3896C239.29 11.3896 239.988 11.6579 240.497 12.1944C241.016 12.7219 241.275 13.4685 241.275 14.4341C241.275 15.0868 241.168 15.7485 240.953 16.4191C240.739 17.0807 240.439 17.6932 240.055 18.2565C239.67 18.8198 239.169 19.2802 238.552 19.6379C237.936 19.9866 237.225 20.1609 236.42 20.1609C235.615 20.1609 234.954 19.8927 234.435 19.3562C233.925 18.8198 233.671 18.0419 233.671 17.0226C233.671 16.0033 233.948 14.9751 234.502 13.9379C235.065 12.9007 235.816 12.1675 236.755 11.7384ZM239.786 12.4224C239.429 11.9664 238.955 11.7384 238.365 11.7384C237.775 11.7384 237.229 11.9306 236.728 12.3151C236.228 12.6906 235.83 13.1689 235.535 13.7501C234.918 14.9482 234.609 16.1106 234.609 17.2372C234.609 18.0508 234.784 18.6856 235.132 19.1416C235.49 19.5887 235.964 19.8122 236.554 19.8122C237.153 19.8122 237.703 19.6245 238.204 19.2489C238.704 18.8645 239.107 18.3861 239.411 17.8139C240.028 16.6247 240.336 15.4624 240.336 14.3268C240.336 13.5132 240.153 12.8784 239.786 12.4224ZM244.453 14.1659L244.641 14.3C244.212 15.2835 243.836 16.4146 243.514 17.6932H243.621L243.836 17.1031C244.256 15.9586 244.672 15.1628 245.083 14.7158C245.495 14.2687 245.852 14.0452 246.156 14.0452C246.46 14.0452 246.684 14.1435 246.827 14.3402C246.979 14.5369 247.055 14.7918 247.055 15.1047C247.055 15.4176 246.997 15.6904 246.881 15.9228C246.764 16.1553 246.594 16.2715 246.371 16.2715C246.156 16.2715 245.977 16.2 245.834 16.0569C245.924 15.9407 246.009 15.7708 246.089 15.5473C246.17 15.3238 246.21 15.1271 246.21 14.9572C246.21 14.6979 246.103 14.5682 245.888 14.5682C245.665 14.5682 245.387 14.7873 245.057 15.2254C244.332 16.1732 243.72 17.7647 243.219 20L242.28 20.0805L243.595 14.6621L242.736 14.7292L242.723 14.5012C243.34 14.4207 243.917 14.3089 244.453 14.1659ZM251.589 19.3428C251.589 19.6379 251.701 19.7854 251.925 19.7854C252.095 19.7854 252.278 19.6736 252.475 19.4501C252.671 19.2176 252.841 18.8913 252.984 18.4711L253.199 18.5247C252.814 19.6155 252.314 20.1609 251.697 20.1609C251.142 20.1609 250.865 19.8122 250.865 19.1148C250.865 18.4085 251.451 15.9318 252.622 11.6847L251.764 11.7518L251.75 11.5238C252.367 11.4433 252.944 11.3315 253.48 11.1885L253.668 11.3226C253.293 12.4224 252.85 13.9155 252.34 15.8021C251.84 17.6798 251.589 18.86 251.589 19.3428ZM250.999 18.5113H250.865C250.311 19.6111 249.667 20.1609 248.934 20.1609C248.514 20.1609 248.16 19.9776 247.874 19.6111C247.597 19.2355 247.459 18.7795 247.459 18.2431C247.459 17.6976 247.53 17.1925 247.673 16.7275C247.816 16.2626 248.017 15.8289 248.277 15.4266C248.536 15.0153 248.88 14.6845 249.309 14.4341C249.739 14.1748 250.177 14.0452 250.624 14.0452C251.482 14.0452 252.09 14.4207 252.448 15.1718L252.26 15.4132C251.84 14.7158 251.317 14.3671 250.691 14.3671C250.306 14.3671 249.953 14.5056 249.631 14.7828C249.318 15.06 249.072 15.4087 248.894 15.8289C248.527 16.6873 248.344 17.4965 248.344 18.2565C248.344 18.7572 248.424 19.1327 248.585 19.3831C248.755 19.6334 248.979 19.7586 249.256 19.7586C249.64 19.7586 250.034 19.4367 250.436 18.7929C250.838 18.1402 251.196 17.2104 251.509 16.0033L250.999 18.5113ZM257.665 14.0452C258.139 14.0452 258.492 14.1614 258.724 14.3939C258.966 14.6174 259.087 14.9438 259.087 15.3729C259.087 15.7932 258.921 16.1598 258.59 16.4727C258.027 17.0092 257.191 17.2774 256.082 17.2774C255.751 17.2774 255.465 17.2506 255.224 17.1969V16.9421C255.537 16.9868 255.796 17.0092 256.002 17.0092C256.744 17.0092 257.316 16.8214 257.719 16.4459C258.13 16.0704 258.335 15.6591 258.335 15.212C258.335 14.9706 258.268 14.7694 258.134 14.6085C258.009 14.4475 257.795 14.3671 257.491 14.3671C257.195 14.3671 256.891 14.5056 256.579 14.7828C256.275 15.06 256.033 15.4042 255.854 15.8155C255.497 16.6828 255.318 17.4339 255.318 18.0687C255.318 19.2489 255.675 19.8391 256.391 19.8391C257.276 19.8391 257.924 19.3562 258.335 18.3906L258.55 18.4442C258.335 18.9896 258.023 19.4144 257.611 19.7184C257.209 20.0134 256.753 20.1609 256.243 20.1609C255.734 20.1609 255.304 19.9732 254.956 19.5976C254.607 19.2221 254.433 18.7169 254.433 18.0821C254.433 17.4473 254.553 16.8348 254.795 16.2447C255.036 15.6456 255.412 15.1315 255.921 14.7024C256.431 14.2642 257.012 14.0452 257.665 14.0452ZM262.271 14.1659L262.459 14.3C262.03 15.2835 261.654 16.4146 261.332 17.6932H261.44L261.654 17.1031C262.075 15.9586 262.49 15.1628 262.902 14.7158C263.313 14.2687 263.671 14.0452 263.975 14.0452C264.279 14.0452 264.502 14.1435 264.645 14.3402C264.797 14.5369 264.873 14.7918 264.873 15.1047C264.873 15.4176 264.815 15.6904 264.699 15.9228C264.583 16.1553 264.413 16.2715 264.189 16.2715C263.975 16.2715 263.796 16.2 263.653 16.0569C263.742 15.9407 263.827 15.7708 263.908 15.5473C263.988 15.3238 264.028 15.1271 264.028 14.9572C264.028 14.6979 263.921 14.5682 263.706 14.5682C263.483 14.5682 263.206 14.7873 262.875 15.2254C262.151 16.1732 261.538 17.7647 261.037 20L260.099 20.0805L261.413 14.6621L260.555 14.7292L260.541 14.5012C261.158 14.4207 261.735 14.3089 262.271 14.1659ZM265.518 19.9598C265.384 19.8167 265.317 19.6468 265.317 19.4501C265.317 19.2534 265.384 19.088 265.518 18.9539C265.661 18.8108 265.831 18.7393 266.028 18.7393C266.225 18.7393 266.39 18.8108 266.524 18.9539C266.667 19.088 266.739 19.2534 266.739 19.4501C266.739 19.6468 266.667 19.8167 266.524 19.9598C266.39 20.0939 266.225 20.1609 266.028 20.1609C265.831 20.1609 265.661 20.0939 265.518 19.9598ZM270.365 14.1659L270.553 14.3C270.124 15.2835 269.748 16.4146 269.426 17.6932H269.533L269.748 17.1031C270.168 15.9586 270.584 15.1628 270.995 14.7158C271.407 14.2687 271.764 14.0452 272.068 14.0452C272.372 14.0452 272.596 14.1435 272.739 14.3402C272.891 14.5369 272.967 14.7918 272.967 15.1047C272.967 15.4176 272.909 15.6904 272.792 15.9228C272.676 16.1553 272.506 16.2715 272.283 16.2715C272.068 16.2715 271.889 16.2 271.746 16.0569C271.836 15.9407 271.921 15.7708 272.001 15.5473C272.082 15.3238 272.122 15.1271 272.122 14.9572C272.122 14.6979 272.015 14.5682 271.8 14.5682C271.576 14.5682 271.299 14.7873 270.968 15.2254C270.244 16.1732 269.632 17.7647 269.131 20L268.192 20.0805L269.507 14.6621L268.648 14.7292L268.635 14.5012C269.252 14.4207 269.828 14.3089 270.365 14.1659ZM276.603 14.0452C277.077 14.0452 277.43 14.1614 277.662 14.3939C277.904 14.6174 278.024 14.9438 278.024 15.3729C278.024 15.7932 277.859 16.1598 277.528 16.4727C276.965 17.0092 276.129 17.2774 275.02 17.2774C274.689 17.2774 274.403 17.2506 274.162 17.1969V16.9421C274.475 16.9868 274.734 17.0092 274.94 17.0092C275.682 17.0092 276.254 16.8214 276.656 16.4459C277.068 16.0704 277.273 15.6591 277.273 15.212C277.273 14.9706 277.206 14.7694 277.072 14.6085C276.947 14.4475 276.732 14.3671 276.428 14.3671C276.133 14.3671 275.829 14.5056 275.516 14.7828C275.212 15.06 274.971 15.4042 274.792 15.8155C274.434 16.6828 274.256 17.4339 274.256 18.0687C274.256 19.2489 274.613 19.8391 275.329 19.8391C276.214 19.8391 276.862 19.3562 277.273 18.3906L277.488 18.4442C277.273 18.9896 276.96 19.4144 276.549 19.7184C276.147 20.0134 275.691 20.1609 275.181 20.1609C274.671 20.1609 274.242 19.9732 273.894 19.5976C273.545 19.2221 273.37 18.7169 273.37 18.0821C273.37 17.4473 273.491 16.8348 273.733 16.2447C273.974 15.6456 274.35 15.1315 274.859 14.7024C275.369 14.2642 275.95 14.0452 276.603 14.0452ZM281.531 14.3671C281.191 14.3671 280.901 14.4654 280.659 14.6621C280.418 14.8588 280.297 15.1092 280.297 15.4132C280.297 15.7172 280.422 15.9944 280.673 16.2447C280.923 16.4951 281.196 16.7052 281.491 16.8751C281.786 17.036 282.059 17.2506 282.309 17.5188C282.559 17.7871 282.684 18.0732 282.684 18.3772C282.684 18.9494 282.461 19.392 282.014 19.7049C281.576 20.0089 281.044 20.1609 280.418 20.1609C279.792 20.1609 279.242 20.0134 278.768 19.7184C278.92 19.4144 279.063 18.8868 279.197 18.1358L279.425 18.176C279.363 18.5426 279.331 18.8332 279.331 19.0478C279.331 19.2534 279.43 19.4456 279.627 19.6245C279.832 19.7944 280.123 19.8793 280.498 19.8793C280.883 19.8793 281.205 19.7631 281.464 19.5306C281.732 19.2981 281.866 18.9941 281.866 18.6186C281.866 18.3772 281.746 18.1447 281.504 17.9212C281.272 17.6887 281.012 17.4965 280.726 17.3445C280.449 17.1925 280.19 16.9779 279.948 16.7007C279.716 16.4235 279.6 16.1195 279.6 15.7887C279.6 15.2969 279.792 14.8856 280.176 14.5548C280.57 14.2151 281.084 14.0452 281.719 14.0452C282.211 14.0452 282.698 14.1659 283.181 14.4073C283.136 14.5056 283.06 14.7292 282.953 15.0779C282.854 15.4266 282.778 15.7574 282.725 16.0704L282.497 16.0301C282.55 15.744 282.577 15.4713 282.577 15.212C282.577 14.9438 282.488 14.7381 282.309 14.5951C282.139 14.4431 281.88 14.3671 281.531 14.3671ZM287.954 19.1551C287.954 19.0209 287.976 18.8064 288.021 18.5113H287.954C287.382 19.6111 286.72 20.1609 285.969 20.1609C285.164 20.1609 284.762 19.7139 284.762 18.8198C284.762 18.2386 284.968 17.1612 285.379 15.5875L285.62 14.6621L284.762 14.7292L284.749 14.5012C285.365 14.4207 285.942 14.3089 286.479 14.1659L286.666 14.3C285.915 16.6336 285.54 18.1268 285.54 18.7795C285.54 19.4322 285.786 19.7586 286.277 19.7586C286.689 19.7586 287.091 19.4591 287.485 18.86C287.887 18.252 288.218 17.4384 288.477 16.4191L288.933 14.6621L288.075 14.7292L288.061 14.5012C288.678 14.4207 289.255 14.3089 289.791 14.1659L289.979 14.3C289.666 15.2299 289.371 16.2268 289.094 17.2908C288.817 18.3548 288.678 19.0388 288.678 19.3428C288.678 19.6379 288.79 19.7854 289.013 19.7854C289.183 19.7854 289.367 19.6736 289.563 19.4501C289.76 19.2176 289.93 18.8913 290.073 18.4711L290.288 18.5247C289.903 19.6155 289.402 20.1609 288.785 20.1609C288.231 20.1609 287.954 19.8256 287.954 19.1551ZM292.509 19.3428C292.509 19.6379 292.62 19.7854 292.844 19.7854C293.014 19.7854 293.197 19.6736 293.394 19.4501C293.591 19.2176 293.76 18.8913 293.903 18.4711L294.118 18.5247C293.734 19.6155 293.233 20.1609 292.616 20.1609C292.062 20.1609 291.784 19.8122 291.784 19.1148C291.784 18.4085 292.37 15.9318 293.541 11.6847L292.683 11.7518L292.67 11.5238C293.287 11.4433 293.863 11.3315 294.4 11.1885L294.587 11.3226C294.212 12.4224 293.769 13.9155 293.26 15.8021C292.759 17.6798 292.509 18.86 292.509 19.3428ZM295.709 14.6889L295.776 14.4341H298.753L298.686 14.6889H295.709ZM297.841 12.7845L298.029 12.9186C297.824 13.5445 297.546 14.528 297.198 15.8692C296.858 17.2104 296.652 18.0776 296.581 18.4711C296.509 18.8555 296.473 19.1461 296.473 19.3428C296.473 19.6379 296.585 19.7854 296.809 19.7854C296.979 19.7854 297.162 19.6736 297.359 19.4501C297.555 19.2176 297.725 18.8913 297.868 18.4711L298.083 18.5247C297.698 19.6155 297.198 20.1609 296.581 20.1609C296.026 20.1609 295.749 19.8256 295.749 19.1551C295.749 18.6007 296.08 17.0539 296.742 14.5146L295.776 14.4341C296.268 14.4341 296.666 14.3179 296.97 14.0854C297.274 13.844 297.564 13.4104 297.841 12.7845ZM302.621 16.6336H301.307C300.895 18.5292 300.69 19.5261 300.69 19.6245C300.69 19.7139 300.739 19.7586 300.837 19.7586H301.816L301.776 20H298.919L298.96 19.7586H299.577C299.693 19.7586 299.764 19.6915 299.791 19.5574C300.864 14.4788 301.401 11.9172 301.401 11.8725C301.401 11.8188 301.351 11.792 301.253 11.792H300.663L300.703 11.5506H303.694C304.302 11.5506 304.803 11.7205 305.196 12.0602C305.589 12.4 305.786 12.8694 305.786 13.4685C305.786 14.4162 305.46 15.1807 304.807 15.7619C304.154 16.3431 303.426 16.6336 302.621 16.6336ZM303.546 11.8591H302.326L301.374 16.3252H302.634C303.278 16.3252 303.815 16.0122 304.244 15.3864C304.682 14.7605 304.901 14.1033 304.901 13.4148C304.901 12.9678 304.785 12.5967 304.552 12.3016C304.329 12.0066 303.993 11.8591 303.546 11.8591ZM309.826 19.1551C309.826 19.0209 309.848 18.8064 309.893 18.5113H309.826C309.253 19.6111 308.592 20.1609 307.841 20.1609C307.036 20.1609 306.634 19.7139 306.634 18.8198C306.634 18.2386 306.839 17.1612 307.251 15.5875L307.492 14.6621L306.634 14.7292L306.62 14.5012C307.237 14.4207 307.814 14.3089 308.35 14.1659L308.538 14.3C307.787 16.6336 307.412 18.1268 307.412 18.7795C307.412 19.4322 307.657 19.7586 308.149 19.7586C308.56 19.7586 308.963 19.4591 309.356 18.86C309.759 18.252 310.089 17.4384 310.349 16.4191L310.805 14.6621L309.946 14.7292L309.933 14.5012C310.55 14.4207 311.127 14.3089 311.663 14.1659L311.851 14.3C311.538 15.2299 311.243 16.2268 310.966 17.2908C310.688 18.3548 310.55 19.0388 310.55 19.3428C310.55 19.6379 310.662 19.7854 310.885 19.7854C311.055 19.7854 311.238 19.6736 311.435 19.4501C311.632 19.2176 311.802 18.8913 311.945 18.4711L312.159 18.5247C311.775 19.6155 311.274 20.1609 310.657 20.1609C310.103 20.1609 309.826 19.8256 309.826 19.1551ZM314.581 17.6932H314.689L314.903 17.1031C315.654 15.0645 316.477 14.0452 317.371 14.0452C317.791 14.0452 318.14 14.2329 318.417 14.6085C318.703 14.9751 318.846 15.4311 318.846 15.9765C318.846 16.5129 318.775 17.0136 318.632 17.4786C318.489 17.9435 318.288 18.3816 318.028 18.7929C317.769 19.1953 317.425 19.5261 316.996 19.7854C316.566 20.0358 316.128 20.1609 315.681 20.1609C315.234 20.1609 314.85 20.076 314.528 19.9061C314.206 19.7273 313.956 19.4948 313.777 19.2087L313.897 18.8466C314.327 19.5261 314.877 19.8659 315.547 19.8659C316.057 19.8659 316.499 19.6334 316.875 19.1685C317.25 18.6946 317.514 18.176 317.666 17.6127C317.827 17.0405 317.908 16.5174 317.908 16.0435C317.908 15.5607 317.827 15.1941 317.666 14.9438C317.514 14.6845 317.335 14.5548 317.13 14.5548C316.924 14.5548 316.718 14.6442 316.513 14.8231C316.307 14.9929 316.084 15.2612 315.842 15.6278C315.324 16.4325 314.836 17.7513 314.38 19.5842L313.978 19.1551L313.576 20.1609L313.348 20.0805L315.453 11.6847L314.595 11.7518L314.581 11.5238C315.198 11.4433 315.775 11.3315 316.312 11.1885L316.499 11.3226C315.775 13.4327 315.136 15.5562 314.581 17.6932ZM320.909 19.3428C320.909 19.6379 321.021 19.7854 321.244 19.7854C321.414 19.7854 321.598 19.6736 321.794 19.4501C321.991 19.2176 322.161 18.8913 322.304 18.4711L322.518 18.5247C322.134 19.6155 321.633 20.1609 321.016 20.1609C320.462 20.1609 320.185 19.8122 320.185 19.1148C320.185 18.4085 320.77 15.9318 321.942 11.6847L321.083 11.7518L321.07 11.5238C321.687 11.4433 322.264 11.3315 322.8 11.1885L322.988 11.3226C322.612 12.4224 322.17 13.9155 321.66 15.8021C321.159 17.6798 320.909 18.86 320.909 19.3428ZM325.665 12.704C325.549 12.5878 325.491 12.4447 325.491 12.2748C325.491 12.1049 325.549 11.9619 325.665 11.8456C325.781 11.7294 325.925 11.6713 326.094 11.6713C326.264 11.6713 326.407 11.7294 326.524 11.8456C326.64 11.9619 326.698 12.1049 326.698 12.2748C326.698 12.4447 326.64 12.5878 326.524 12.704C326.407 12.8202 326.264 12.8784 326.094 12.8784C325.925 12.8784 325.781 12.8202 325.665 12.704ZM324.15 19.1551C324.15 18.6812 324.476 17.1835 325.129 14.6621L324.27 14.7292L324.257 14.5012C324.874 14.4207 325.451 14.3089 325.987 14.1659L326.175 14.3C325.862 15.2299 325.567 16.2268 325.29 17.2908C325.013 18.3548 324.874 19.0388 324.874 19.3428C324.874 19.6379 324.986 19.7854 325.209 19.7854C325.379 19.7854 325.562 19.6736 325.759 19.4501C325.956 19.2176 326.126 18.8913 326.269 18.4711L326.483 18.5247C326.099 19.6155 325.598 20.1609 324.981 20.1609C324.427 20.1609 324.15 19.8256 324.15 19.1551ZM330.887 14.3671C330.521 14.3671 330.181 14.5056 329.868 14.7828C329.564 15.06 329.323 15.4042 329.144 15.8155C328.786 16.6828 328.607 17.4339 328.607 18.0687C328.607 19.2489 328.965 19.8391 329.68 19.8391C330.565 19.8391 331.214 19.3562 331.625 18.3906L331.84 18.4442C331.625 18.9896 331.312 19.4144 330.901 19.7184C330.498 20.0134 330.042 20.1609 329.533 20.1609C329.023 20.1609 328.594 19.9732 328.245 19.5976C327.897 19.2221 327.722 18.7169 327.722 18.0821C327.722 17.4473 327.843 16.8348 328.084 16.2447C328.326 15.6456 328.701 15.1315 329.211 14.7024C329.721 14.2642 330.302 14.0452 330.954 14.0452C331.401 14.0452 331.737 14.1614 331.96 14.3939C332.193 14.6174 332.309 14.8901 332.309 15.212C332.309 15.5249 332.251 15.8066 332.135 16.0569C332.027 16.3073 331.853 16.4325 331.612 16.4325C331.379 16.4325 331.205 16.3609 331.089 16.2179C331.348 15.8245 331.477 15.44 331.477 15.0645C331.477 14.5995 331.281 14.3671 330.887 14.3671ZM336.298 11.9798L334.689 19.6245C334.689 19.7139 334.738 19.7586 334.837 19.7586H335.427L335.386 20H332.919L332.959 19.7586H333.576C333.692 19.7586 333.764 19.6915 333.79 19.5574C334.863 14.4788 335.4 11.9172 335.4 11.8725C335.4 11.8188 335.351 11.792 335.252 11.792H334.662L334.702 11.5506H337.17L337.13 11.792H336.526C336.41 11.792 336.334 11.8546 336.298 11.9798ZM338.216 17.6529L338.243 18.8868C338.261 19.4412 338.409 19.7184 338.686 19.7184C338.865 19.7184 339.012 19.6245 339.128 19.4367C339.254 19.2489 339.316 19.0075 339.316 18.7125L339.571 18.6722C339.571 19.1282 339.45 19.4904 339.209 19.7586C338.976 20.0268 338.681 20.1609 338.324 20.1609C337.689 20.1609 337.354 19.6826 337.318 18.7259L337.264 17.4115C337.237 16.8304 337.117 16.428 336.902 16.2045C336.687 15.972 336.334 15.8558 335.842 15.8558L335.91 15.6412L339.732 11.792H339.102L339.142 11.5506H340.872L340.832 11.792H340.483C340.34 11.792 340.21 11.8546 340.094 11.9798L336.459 15.6144C337.103 15.6233 337.55 15.8111 337.801 16.1776C338.06 16.5442 338.198 17.036 338.216 17.6529ZM344.444 14.0452C344.918 14.0452 345.271 14.1614 345.504 14.3939C345.745 14.6174 345.866 14.9438 345.866 15.3729C345.866 15.7932 345.7 16.1598 345.37 16.4727C344.806 17.0092 343.97 17.2774 342.862 17.2774C342.531 17.2774 342.245 17.2506 342.003 17.1969V16.9421C342.316 16.9868 342.576 17.0092 342.781 17.0092C343.523 17.0092 344.096 16.8214 344.498 16.4459C344.909 16.0704 345.115 15.6591 345.115 15.212C345.115 14.9706 345.048 14.7694 344.914 14.6085C344.788 14.4475 344.574 14.3671 344.27 14.3671C343.975 14.3671 343.671 14.5056 343.358 14.7828C343.054 15.06 342.812 15.4042 342.634 15.8155C342.276 16.6828 342.097 17.4339 342.097 18.0687C342.097 19.2489 342.455 19.8391 343.17 19.8391C344.055 19.8391 344.704 19.3562 345.115 18.3906L345.329 18.4442C345.115 18.9896 344.802 19.4144 344.391 19.7184C343.988 20.0134 343.532 20.1609 343.023 20.1609C342.513 20.1609 342.084 19.9732 341.735 19.5976C341.386 19.2221 341.212 18.7169 341.212 18.0821C341.212 17.4473 341.333 16.8348 341.574 16.2447C341.816 15.6456 342.191 15.1315 342.701 14.7024C343.21 14.2642 343.792 14.0452 344.444 14.0452ZM348.957 19.7184C349.529 19.7184 350.097 19.3026 350.66 18.4711C351.232 17.6306 351.518 16.8482 351.518 16.124C351.518 15.3908 351.286 14.7918 350.821 14.3268C351.045 14.1391 351.25 14.0452 351.438 14.0452C351.787 14.0452 351.961 14.5369 351.961 15.5205C351.961 16.504 351.854 17.4071 351.639 18.2296C351.425 19.0433 351.143 19.7362 350.794 20.3085C350.454 20.8807 350.065 21.3769 349.627 21.7972C348.778 22.6376 347.915 23.0579 347.039 23.0579C346.592 23.0579 346.257 22.9551 346.033 22.7494C345.801 22.5438 345.684 22.3024 345.684 22.0252C345.684 21.748 345.742 21.4976 345.859 21.2741C345.966 21.0506 346.131 20.9388 346.355 20.9388C346.578 20.9388 346.762 21.0014 346.905 21.1266C346.645 21.4574 346.516 21.7614 346.516 22.0386C346.516 22.4856 346.753 22.7092 347.227 22.7092C347.54 22.7092 347.902 22.5929 348.313 22.3605C348.724 22.1369 349.14 21.8151 349.56 21.3948C349.981 20.9835 350.365 20.4292 350.714 19.7318C351.071 19.0344 351.322 18.2788 351.465 17.4652C351.17 18.2431 350.772 18.8868 350.271 19.3965C349.779 19.9061 349.212 20.1609 348.568 20.1609C348.237 20.1609 347.969 20.0492 347.763 19.8256C347.566 19.5932 347.468 19.2802 347.468 18.8868C347.468 18.4934 347.616 17.8049 347.911 16.8214C348.215 15.8379 348.367 15.1941 348.367 14.8901C348.367 14.5772 348.25 14.4207 348.018 14.4207C347.848 14.4207 347.669 14.5369 347.481 14.7694C347.294 14.9929 347.142 15.3148 347.025 15.7351L346.797 15.6814C347.128 14.5906 347.607 14.0452 348.233 14.0452C348.814 14.0452 349.104 14.3581 349.104 14.984C349.104 15.2344 348.966 15.8558 348.689 16.8482C348.411 17.8407 348.273 18.4934 348.273 18.8064C348.273 19.4144 348.501 19.7184 348.957 19.7184ZM357.71 19.7586L357.348 17.1701H354.384L352.936 19.7586H353.767L353.727 20H351.796L351.849 19.7586H352.319C352.444 19.7586 352.538 19.696 352.6 19.5708L357.107 11.5506H357.536L358.636 19.5708C358.654 19.696 358.721 19.7586 358.837 19.7586H359.306L359.266 20H356.839L356.879 19.7586H357.71ZM356.772 12.9186L354.585 16.7946H357.295L356.772 12.9186ZM361.503 19.3428C361.503 19.6379 361.614 19.7854 361.838 19.7854C362.008 19.7854 362.191 19.6736 362.388 19.4501C362.585 19.2176 362.754 18.8913 362.898 18.4711L363.112 18.5247C362.728 19.6155 362.227 20.1609 361.61 20.1609C361.056 20.1609 360.778 19.8122 360.778 19.1148C360.778 18.4085 361.364 15.9318 362.535 11.6847L361.677 11.7518L361.664 11.5238C362.281 11.4433 362.857 11.3315 363.394 11.1885L363.582 11.3226C363.206 12.4224 362.763 13.9155 362.254 15.8021C361.753 17.6798 361.503 18.86 361.503 19.3428ZM365.293 19.2221L367.426 19.7049C367.891 19.8122 368.221 19.9553 368.418 20.1341C368.615 20.3219 368.713 20.5767 368.713 20.8986C368.713 21.4172 368.427 21.9045 367.855 22.3605C367.292 22.8254 366.648 23.0579 365.924 23.0579C365.199 23.0579 364.609 22.8925 364.153 22.5616C363.706 22.2308 363.483 21.8374 363.483 21.3814C363.483 21.0685 363.59 20.7689 363.805 20.4828C364.01 20.1967 364.319 19.9553 364.73 19.7586L364.998 19.8391C364.73 19.9732 364.524 20.1744 364.381 20.4426C364.238 20.7198 364.167 21.0104 364.167 21.3144C364.167 21.8151 364.332 22.1861 364.663 22.4275C364.994 22.6779 365.418 22.8031 365.937 22.8031C366.465 22.8031 366.947 22.6511 367.385 22.3471C367.833 22.052 368.056 21.6944 368.056 21.2741C368.056 20.8539 367.783 20.5812 367.238 20.456L364.931 19.9464C364.672 19.8927 364.471 19.772 364.328 19.5842C364.185 19.3965 364.113 19.1685 364.113 18.9002C364.113 18.632 364.225 18.3861 364.448 18.1626C364.672 17.9391 364.98 17.8273 365.374 17.8273H366.728L366.688 18.0151H365.374C365.186 18.0151 365.034 18.0732 364.918 18.1894C364.81 18.3056 364.757 18.4442 364.757 18.6052C364.757 18.936 364.936 19.1416 365.293 19.2221ZM367.546 14.2329L367.533 14.0452C367.783 14.0452 367.993 13.9871 368.163 13.8708C368.333 13.7456 368.418 13.5847 368.418 13.388C368.418 13.1913 368.275 13.0035 367.989 12.8247C368.132 12.5207 368.302 12.3687 368.499 12.3687C368.704 12.3687 368.856 12.4268 368.955 12.5431C369.062 12.6593 369.116 12.8068 369.116 12.9856C369.116 13.2986 368.973 13.5847 368.686 13.844C368.409 14.1033 368.029 14.2329 367.546 14.2329ZM365.092 16.5532C365.092 15.8915 365.325 15.3104 365.789 14.8096C366.263 14.3 366.845 14.0452 367.533 14.0452C368.016 14.0452 368.396 14.1748 368.673 14.4341C368.959 14.6845 369.102 15.0421 369.102 15.5071C369.102 16.2581 368.861 16.8661 368.378 17.3311C367.895 17.7871 367.332 18.0151 366.688 18.0151C366.196 18.0151 365.807 17.8899 365.521 17.6395C365.235 17.3802 365.092 17.0181 365.092 16.5532ZM367.52 14.3C367.028 14.3 366.625 14.5727 366.313 15.1181C366 15.6546 365.843 16.1329 365.843 16.5532C365.843 16.9734 365.919 17.2819 366.071 17.4786C366.232 17.6664 366.442 17.7602 366.701 17.7602C367.095 17.7602 367.47 17.5367 367.828 17.0896C368.186 16.6426 368.365 16.0793 368.365 15.3998C368.365 15.06 368.284 14.7918 368.123 14.5951C367.971 14.3984 367.77 14.3 367.52 14.3ZM370.32 18.0553C370.32 17.1344 370.588 16.2536 371.124 15.4132C371.384 15.0108 371.723 14.6845 372.144 14.4341C372.564 14.1748 373.042 14.0452 373.579 14.0452C374.124 14.0452 374.567 14.2285 374.907 14.5951C375.246 14.9616 375.416 15.4624 375.416 16.0972C375.416 16.732 375.3 17.3489 375.067 17.948C374.835 18.5471 374.468 19.0656 373.968 19.5038C373.467 19.9419 372.904 20.1609 372.278 20.1609C371.652 20.1609 371.169 19.9776 370.829 19.6111C370.49 19.2445 370.32 18.7259 370.32 18.0553ZM373.471 14.3402C372.989 14.3402 372.559 14.5816 372.184 15.0645C371.817 15.5473 371.554 16.0748 371.393 16.6471C371.241 17.2193 371.165 17.7558 371.165 18.2565C371.165 18.7482 371.263 19.1416 371.46 19.4367C371.665 19.7228 371.943 19.8659 372.291 19.8659C372.649 19.8659 372.98 19.7228 373.284 19.4367C373.597 19.1506 373.843 18.7974 374.021 18.3772C374.388 17.5188 374.571 16.7767 374.571 16.1508C374.571 15.516 374.473 15.0555 374.276 14.7694C374.079 14.4833 373.811 14.3402 373.471 14.3402Z" fill="#6082FA"/>
<path opacity="0.86" d="M382.493 6.68471C381.563 7.37318 380.839 8.33882 380.32 9.58165C379.802 10.8155 379.542 12.0941 379.542 13.4174C379.542 14.7318 379.846 15.6974 380.454 16.3144L380.267 16.5155C379.703 16.1668 379.274 15.6751 378.979 15.0402C378.693 14.4054 378.55 13.6991 378.55 12.9212C378.55 11.6426 378.899 10.3953 379.596 9.17929C380.302 7.95435 381.237 7.05576 382.399 6.48353L382.493 6.68471ZM385.409 11.0972H384.564C384.081 13.3951 383.84 14.5798 383.84 14.6513C383.84 14.7228 383.889 14.7586 383.988 14.7586H384.846L384.806 15H382.07L382.11 14.7586H382.727C382.843 14.7586 382.915 14.6915 382.941 14.5574C384.014 9.47882 384.551 6.91718 384.551 6.87247C384.551 6.81882 384.502 6.792 384.403 6.792H383.813L383.853 6.55059H386.898C387.515 6.55059 388.024 6.71153 388.427 7.03341C388.838 7.34635 389.044 7.81129 389.044 8.42824C389.044 9.03624 388.82 9.57718 388.373 10.0511C387.935 10.5249 387.39 10.8424 386.737 11.0033C387.363 11.2447 387.676 11.732 387.676 12.4652C387.676 12.7245 387.631 13.0687 387.542 13.4979C387.461 13.9271 387.421 14.2042 387.421 14.3294C387.421 14.5798 387.519 14.7049 387.716 14.7049C387.913 14.7049 388.118 14.5664 388.333 14.2892C388.548 14.0031 388.74 13.6007 388.91 13.0821L389.138 13.1358C388.896 13.8511 388.628 14.3696 388.333 14.6915C388.038 15.0045 387.689 15.1609 387.287 15.1609C387.09 15.1609 386.925 15.0894 386.791 14.9464C386.656 14.7944 386.589 14.5842 386.589 14.316C386.589 14.0478 386.63 13.7035 386.71 13.2833C386.8 12.8631 386.844 12.4875 386.844 12.1567C386.844 11.4504 386.366 11.0972 385.409 11.0972ZM386.764 6.85906H385.476L384.631 10.7753H385.972C386.598 10.7753 387.117 10.5115 387.528 9.984C387.948 9.45647 388.159 8.89765 388.159 8.30753C388.159 7.88729 388.038 7.54306 387.796 7.27482C387.564 6.99765 387.22 6.85906 386.764 6.85906Z" fill="#6082FA"/>
<path opacity="0.86" d="M409.067 16.4887C409.648 16.0416 409.939 15.5722 409.939 15.0805C409.939 14.8122 409.845 14.5932 409.657 14.4233C409.702 14.2176 409.805 14.0388 409.966 13.8868C410.136 13.7348 410.314 13.6588 410.502 13.6588C410.869 13.6588 411.052 13.8421 411.052 14.2087C411.052 14.5753 410.869 15.0089 410.502 15.5096C410.144 16.0193 409.702 16.4082 409.174 16.6765L409.067 16.4887ZM415.46 6.73835C415.978 6.50588 416.528 6.38965 417.109 6.38965C417.994 6.38965 418.692 6.65788 419.202 7.19435C419.72 7.72188 419.979 8.46847 419.979 9.43412C419.979 10.0868 419.872 10.7485 419.658 11.4191C419.443 12.0807 419.143 12.6932 418.759 13.2565C418.374 13.8198 417.874 14.2802 417.257 14.6379C416.64 14.9866 415.929 15.1609 415.124 15.1609C414.32 15.1609 413.658 14.8927 413.139 14.3562C412.63 13.8198 412.375 13.0419 412.375 12.0226C412.375 11.0033 412.652 9.97506 413.206 8.93788C413.77 7.90071 414.521 7.16753 415.46 6.73835ZM418.491 7.42235C418.133 6.96635 417.659 6.73835 417.069 6.73835C416.479 6.73835 415.934 6.93059 415.433 7.31506C414.932 7.69059 414.534 8.16894 414.239 8.75012C413.622 9.94824 413.314 11.1106 413.314 12.2372C413.314 13.0508 413.488 13.6856 413.837 14.1416C414.194 14.5887 414.668 14.8122 415.258 14.8122C415.858 14.8122 416.407 14.6245 416.908 14.2489C417.409 13.8645 417.811 13.3861 418.115 12.8139C418.732 11.6247 419.041 10.4624 419.041 9.32682C419.041 8.51318 418.857 7.87835 418.491 7.42235ZM423.157 9.16588L423.345 9.3C422.916 10.2835 422.54 11.4146 422.219 12.6932H422.326L422.54 12.1031C422.961 10.9586 423.376 10.1628 423.788 9.71576C424.199 9.26871 424.557 9.04518 424.861 9.04518C425.165 9.04518 425.388 9.14353 425.531 9.34024C425.683 9.53694 425.759 9.79176 425.759 10.1047C425.759 10.4176 425.701 10.6904 425.585 10.9228C425.469 11.1553 425.299 11.2715 425.075 11.2715C424.861 11.2715 424.682 11.2 424.539 11.0569C424.628 10.9407 424.713 10.7708 424.794 10.5473C424.874 10.3238 424.914 10.1271 424.914 9.95718C424.914 9.69788 424.807 9.56824 424.592 9.56824C424.369 9.56824 424.092 9.78729 423.761 10.2254C423.037 11.1732 422.424 12.7647 421.923 15L420.985 15.0805L422.299 9.66212L421.441 9.72918L421.427 9.50118C422.044 9.42071 422.621 9.30894 423.157 9.16588ZM430.294 14.3428C430.294 14.6379 430.405 14.7854 430.629 14.7854C430.799 14.7854 430.982 14.6736 431.179 14.4501C431.376 14.2176 431.545 13.8913 431.689 13.4711L431.903 13.5247C431.519 14.6155 431.018 15.1609 430.401 15.1609C429.847 15.1609 429.569 14.8122 429.569 14.1148C429.569 13.4085 430.155 10.9318 431.326 6.68471L430.468 6.75176L430.455 6.52376C431.072 6.44329 431.648 6.33153 432.185 6.18847L432.373 6.32259C431.997 7.42235 431.554 8.91553 431.045 10.8021C430.544 12.6798 430.294 13.86 430.294 14.3428ZM429.704 13.5113H429.569C429.015 14.6111 428.371 15.1609 427.638 15.1609C427.218 15.1609 426.865 14.9776 426.579 14.6111C426.301 14.2355 426.163 13.7795 426.163 13.2431C426.163 12.6976 426.234 12.1925 426.377 11.7275C426.521 11.2626 426.722 10.8289 426.981 10.4266C427.24 10.0153 427.585 9.68447 428.014 9.43412C428.443 9.17482 428.881 9.04518 429.328 9.04518C430.186 9.04518 430.794 9.42071 431.152 10.1718L430.964 10.4132C430.544 9.71576 430.021 9.36706 429.395 9.36706C429.011 9.36706 428.657 9.50565 428.336 9.78282C428.023 10.06 427.777 10.4087 427.598 10.8289C427.231 11.6873 427.048 12.4965 427.048 13.2565C427.048 13.7572 427.129 14.1327 427.289 14.3831C427.459 14.6334 427.683 14.7586 427.96 14.7586C428.345 14.7586 428.738 14.4367 429.14 13.7929C429.543 13.1402 429.9 12.2104 430.213 11.0033L429.704 13.5113ZM436.369 9.04518C436.843 9.04518 437.196 9.16141 437.429 9.39388C437.67 9.61741 437.791 9.94376 437.791 10.3729C437.791 10.7932 437.625 11.1598 437.295 11.4727C436.731 12.0092 435.895 12.2774 434.787 12.2774C434.456 12.2774 434.17 12.2506 433.928 12.1969V11.9421C434.241 11.9868 434.501 12.0092 434.706 12.0092C435.448 12.0092 436.021 11.8214 436.423 11.4459C436.834 11.0704 437.04 10.6591 437.04 10.212C437.04 9.97059 436.973 9.76941 436.839 9.60847C436.713 9.44753 436.499 9.36706 436.195 9.36706C435.9 9.36706 435.596 9.50565 435.283 9.78282C434.979 10.06 434.737 10.4042 434.559 10.8155C434.201 11.6828 434.022 12.4339 434.022 13.0687C434.022 14.2489 434.38 14.8391 435.095 14.8391C435.98 14.8391 436.629 14.3562 437.04 13.3906L437.254 13.4442C437.04 13.9896 436.727 14.4144 436.316 14.7184C435.913 15.0134 435.457 15.1609 434.948 15.1609C434.438 15.1609 434.009 14.9732 433.66 14.5976C433.311 14.2221 433.137 13.7169 433.137 13.0821C433.137 12.4473 433.258 11.8348 433.499 11.2447C433.741 10.6456 434.116 10.1315 434.626 9.70235C435.135 9.26424 435.717 9.04518 436.369 9.04518ZM440.976 9.16588L441.163 9.3C440.734 10.2835 440.359 11.4146 440.037 12.6932H440.144L440.359 12.1031C440.779 10.9586 441.195 10.1628 441.606 9.71576C442.017 9.26871 442.375 9.04518 442.679 9.04518C442.983 9.04518 443.206 9.14353 443.35 9.34024C443.502 9.53694 443.578 9.79176 443.578 10.1047C443.578 10.4176 443.519 10.6904 443.403 10.9228C443.287 11.1553 443.117 11.2715 442.894 11.2715C442.679 11.2715 442.5 11.2 442.357 11.0569C442.446 10.9407 442.531 10.7708 442.612 10.5473C442.692 10.3238 442.733 10.1271 442.733 9.95718C442.733 9.69788 442.625 9.56824 442.411 9.56824C442.187 9.56824 441.91 9.78729 441.579 10.2254C440.855 11.1732 440.242 12.7647 439.742 15L438.803 15.0805L440.117 9.66212L439.259 9.72918L439.246 9.50118C439.862 9.42071 440.439 9.30894 440.976 9.16588ZM444.223 14.9598C444.088 14.8167 444.021 14.6468 444.021 14.4501C444.021 14.2534 444.088 14.088 444.223 13.9539C444.366 13.8108 444.535 13.7393 444.732 13.7393C444.929 13.7393 445.094 13.8108 445.228 13.9539C445.371 14.088 445.443 14.2534 445.443 14.4501C445.443 14.6468 445.371 14.8167 445.228 14.9598C445.094 15.0939 444.929 15.1609 444.732 15.1609C444.535 15.1609 444.366 15.0939 444.223 14.9598ZM449.069 9.16588L449.257 9.3C448.828 10.2835 448.452 11.4146 448.13 12.6932H448.238L448.452 12.1031C448.873 10.9586 449.288 10.1628 449.7 9.71576C450.111 9.26871 450.469 9.04518 450.773 9.04518C451.077 9.04518 451.3 9.14353 451.443 9.34024C451.595 9.53694 451.671 9.79176 451.671 10.1047C451.671 10.4176 451.613 10.6904 451.497 10.9228C451.381 11.1553 451.211 11.2715 450.987 11.2715C450.773 11.2715 450.594 11.2 450.451 11.0569C450.54 10.9407 450.625 10.7708 450.706 10.5473C450.786 10.3238 450.826 10.1271 450.826 9.95718C450.826 9.69788 450.719 9.56824 450.504 9.56824C450.281 9.56824 450.004 9.78729 449.673 10.2254C448.949 11.1732 448.336 12.7647 447.835 15L446.897 15.0805L448.211 9.66212L447.353 9.72918L447.339 9.50118C447.956 9.42071 448.533 9.30894 449.069 9.16588ZM455.307 9.04518C455.781 9.04518 456.134 9.16141 456.367 9.39388C456.608 9.61741 456.729 9.94376 456.729 10.3729C456.729 10.7932 456.563 11.1598 456.232 11.4727C455.669 12.0092 454.833 12.2774 453.724 12.2774C453.394 12.2774 453.108 12.2506 452.866 12.1969V11.9421C453.179 11.9868 453.438 12.0092 453.644 12.0092C454.386 12.0092 454.958 11.8214 455.361 11.4459C455.772 11.0704 455.978 10.6591 455.978 10.212C455.978 9.97059 455.911 9.76941 455.776 9.60847C455.651 9.44753 455.437 9.36706 455.133 9.36706C454.838 9.36706 454.534 9.50565 454.221 9.78282C453.917 10.06 453.675 10.4042 453.496 10.8155C453.139 11.6828 452.96 12.4339 452.96 13.0687C452.96 14.2489 453.318 14.8391 454.033 14.8391C454.918 14.8391 455.566 14.3562 455.978 13.3906L456.192 13.4442C455.978 13.9896 455.665 14.4144 455.253 14.7184C454.851 15.0134 454.395 15.1609 453.885 15.1609C453.376 15.1609 452.947 14.9732 452.598 14.5976C452.249 14.2221 452.075 13.7169 452.075 13.0821C452.075 12.4473 452.196 11.8348 452.437 11.2447C452.678 10.6456 453.054 10.1315 453.564 9.70235C454.073 9.26424 454.654 9.04518 455.307 9.04518ZM460.235 9.36706C459.896 9.36706 459.605 9.46541 459.364 9.66212C459.122 9.85882 459.001 10.1092 459.001 10.4132C459.001 10.7172 459.127 10.9944 459.377 11.2447C459.627 11.4951 459.9 11.7052 460.195 11.8751C460.49 12.036 460.763 12.2506 461.013 12.5188C461.264 12.7871 461.389 13.0732 461.389 13.3772C461.389 13.9494 461.165 14.392 460.718 14.7049C460.28 15.0089 459.748 15.1609 459.122 15.1609C458.496 15.1609 457.946 15.0134 457.473 14.7184C457.625 14.4144 457.768 13.8868 457.902 13.1358L458.13 13.176C458.067 13.5426 458.036 13.8332 458.036 14.0478C458.036 14.2534 458.134 14.4456 458.331 14.6245C458.537 14.7944 458.827 14.8793 459.203 14.8793C459.587 14.8793 459.909 14.7631 460.168 14.5306C460.437 14.2981 460.571 13.9941 460.571 13.6186C460.571 13.3772 460.45 13.1447 460.209 12.9212C459.976 12.6887 459.717 12.4965 459.431 12.3445C459.153 12.1925 458.894 11.9779 458.653 11.7007C458.42 11.4235 458.304 11.1195 458.304 10.7887C458.304 10.2969 458.496 9.88565 458.881 9.55482C459.274 9.21506 459.788 9.04518 460.423 9.04518C460.915 9.04518 461.402 9.16588 461.885 9.40729C461.84 9.50565 461.764 9.72918 461.657 10.0779C461.559 10.4266 461.483 10.7574 461.429 11.0704L461.201 11.0301C461.255 10.744 461.281 10.4713 461.281 10.212C461.281 9.94376 461.192 9.73812 461.013 9.59506C460.843 9.44306 460.584 9.36706 460.235 9.36706ZM466.658 14.1551C466.658 14.0209 466.681 13.8064 466.725 13.5113H466.658C466.086 14.6111 465.424 15.1609 464.673 15.1609C463.869 15.1609 463.466 14.7139 463.466 13.8198C463.466 13.2386 463.672 12.1612 464.083 10.5875L464.325 9.66212L463.466 9.72918L463.453 9.50118C464.07 9.42071 464.647 9.30894 465.183 9.16588L465.371 9.3C464.62 11.6336 464.244 13.1268 464.244 13.7795C464.244 14.4322 464.49 14.7586 464.982 14.7586C465.393 14.7586 465.796 14.4591 466.189 13.86C466.591 13.252 466.922 12.4384 467.181 11.4191L467.637 9.66212L466.779 9.72918L466.766 9.50118C467.383 9.42071 467.959 9.30894 468.496 9.16588L468.684 9.3C468.371 10.2299 468.076 11.2268 467.798 12.2908C467.521 13.3548 467.383 14.0388 467.383 14.3428C467.383 14.6379 467.494 14.7854 467.718 14.7854C467.888 14.7854 468.071 14.6736 468.268 14.4501C468.464 14.2176 468.634 13.8913 468.777 13.4711L468.992 13.5247C468.608 14.6155 468.107 15.1609 467.49 15.1609C466.936 15.1609 466.658 14.8256 466.658 14.1551ZM471.213 14.3428C471.213 14.6379 471.325 14.7854 471.548 14.7854C471.718 14.7854 471.901 14.6736 472.098 14.4501C472.295 14.2176 472.465 13.8913 472.608 13.4711L472.822 13.5247C472.438 14.6155 471.937 15.1609 471.32 15.1609C470.766 15.1609 470.489 14.8122 470.489 14.1148C470.489 13.4085 471.074 10.9318 472.246 6.68471L471.387 6.75176L471.374 6.52376C471.991 6.44329 472.568 6.33153 473.104 6.18847L473.292 6.32259C472.916 7.42235 472.474 8.91553 471.964 10.8021C471.463 12.6798 471.213 13.86 471.213 14.3428ZM474.413 9.68894L474.48 9.43412H477.458L477.391 9.68894H474.413ZM476.546 7.78447L476.734 7.91859C476.528 8.54447 476.251 9.528 475.902 10.8692C475.562 12.2104 475.357 13.0776 475.285 13.4711C475.214 13.8555 475.178 14.1461 475.178 14.3428C475.178 14.6379 475.29 14.7854 475.513 14.7854C475.683 14.7854 475.866 14.6736 476.063 14.4501C476.26 14.2176 476.43 13.8913 476.573 13.4711L476.787 13.5247C476.403 14.6155 475.902 15.1609 475.285 15.1609C474.731 15.1609 474.454 14.8256 474.454 14.1551C474.454 13.6007 474.784 12.0539 475.446 9.51459L474.48 9.43412C474.972 9.43412 475.37 9.31788 475.674 9.08541C475.978 8.844 476.269 8.41035 476.546 7.78447ZM481.325 11.6336H480.011C479.6 13.5292 479.394 14.5261 479.394 14.6245C479.394 14.7139 479.443 14.7586 479.542 14.7586H480.521L480.48 15H477.624L477.664 14.7586H478.281C478.397 14.7586 478.469 14.6915 478.495 14.5574C479.568 9.47882 480.105 6.91718 480.105 6.87247C480.105 6.81882 480.056 6.792 479.957 6.792H479.367L479.407 6.55059H482.398C483.006 6.55059 483.507 6.72047 483.9 7.06024C484.294 7.4 484.491 7.86941 484.491 8.46847C484.491 9.41624 484.164 10.1807 483.511 10.7619C482.859 11.3431 482.13 11.6336 481.325 11.6336ZM482.251 6.85906H481.03L480.078 11.3252H481.339C481.983 11.3252 482.519 11.0122 482.948 10.3864C483.386 9.76047 483.605 9.10329 483.605 8.41482C483.605 7.96776 483.489 7.59671 483.257 7.30165C483.033 7.00659 482.698 6.85906 482.251 6.85906ZM488.53 14.1551C488.53 14.0209 488.552 13.8064 488.597 13.5113H488.53C487.958 14.6111 487.296 15.1609 486.545 15.1609C485.74 15.1609 485.338 14.7139 485.338 13.8198C485.338 13.2386 485.544 12.1612 485.955 10.5875L486.196 9.66212L485.338 9.72918L485.325 9.50118C485.942 9.42071 486.518 9.30894 487.055 9.16588L487.242 9.3C486.491 11.6336 486.116 13.1268 486.116 13.7795C486.116 14.4322 486.362 14.7586 486.854 14.7586C487.265 14.7586 487.667 14.4591 488.061 13.86C488.463 13.252 488.794 12.4384 489.053 11.4191L489.509 9.66212L488.651 9.72918L488.637 9.50118C489.254 9.42071 489.831 9.30894 490.367 9.16588L490.555 9.3C490.242 10.2299 489.947 11.2268 489.67 12.2908C489.393 13.3548 489.254 14.0388 489.254 14.3428C489.254 14.6379 489.366 14.7854 489.59 14.7854C489.759 14.7854 489.943 14.6736 490.139 14.4501C490.336 14.2176 490.506 13.8913 490.649 13.4711L490.864 13.5247C490.479 14.6155 489.978 15.1609 489.362 15.1609C488.807 15.1609 488.53 14.8256 488.53 14.1551ZM493.286 12.6932H493.393L493.608 12.1031C494.359 10.0645 495.181 9.04518 496.075 9.04518C496.496 9.04518 496.844 9.23294 497.122 9.60847C497.408 9.97506 497.551 10.4311 497.551 10.9765C497.551 11.5129 497.479 12.0136 497.336 12.4786C497.193 12.9435 496.992 13.3816 496.733 13.7929C496.473 14.1953 496.129 14.5261 495.7 14.7854C495.271 15.0358 494.833 15.1609 494.386 15.1609C493.939 15.1609 493.554 15.076 493.232 14.9061C492.91 14.7273 492.66 14.4948 492.481 14.2087L492.602 13.8466C493.031 14.5261 493.581 14.8659 494.251 14.8659C494.761 14.8659 495.204 14.6334 495.579 14.1685C495.955 13.6946 496.219 13.176 496.371 12.6127C496.531 12.0405 496.612 11.5174 496.612 11.0435C496.612 10.5607 496.531 10.1941 496.371 9.94376C496.219 9.68447 496.04 9.55482 495.834 9.55482C495.628 9.55482 495.423 9.64424 495.217 9.82306C495.011 9.99294 494.788 10.2612 494.547 10.6278C494.028 11.4325 493.541 12.7513 493.085 14.5842L492.682 14.1551L492.28 15.1609L492.052 15.0805L494.158 6.68471L493.299 6.75176L493.286 6.52376C493.903 6.44329 494.479 6.33153 495.016 6.18847L495.204 6.32259C494.479 8.43271 493.84 10.5562 493.286 12.6932ZM499.613 14.3428C499.613 14.6379 499.725 14.7854 499.949 14.7854C500.119 14.7854 500.302 14.6736 500.499 14.4501C500.695 14.2176 500.865 13.8913 501.008 13.4711L501.223 13.5247C500.838 14.6155 500.338 15.1609 499.721 15.1609C499.166 15.1609 498.889 14.8122 498.889 14.1148C498.889 13.4085 499.475 10.9318 500.646 6.68471L499.788 6.75176L499.774 6.52376C500.391 6.44329 500.968 6.33153 501.505 6.18847L501.692 6.32259C501.317 7.42235 500.874 8.91553 500.365 10.8021C499.864 12.6798 499.613 13.86 499.613 14.3428ZM504.37 7.704C504.253 7.58776 504.195 7.44471 504.195 7.27482C504.195 7.10494 504.253 6.96188 504.37 6.84565C504.486 6.72941 504.629 6.67129 504.799 6.67129C504.969 6.67129 505.112 6.72941 505.228 6.84565C505.344 6.96188 505.402 7.10494 505.402 7.27482C505.402 7.44471 505.344 7.58776 505.228 7.704C505.112 7.82024 504.969 7.87835 504.799 7.87835C504.629 7.87835 504.486 7.82024 504.37 7.704ZM502.854 14.1551C502.854 13.6812 503.18 12.1835 503.833 9.66212L502.975 9.72918L502.961 9.50118C503.578 9.42071 504.155 9.30894 504.691 9.16588L504.879 9.3C504.566 10.2299 504.271 11.2268 503.994 12.2908C503.717 13.3548 503.578 14.0388 503.578 14.3428C503.578 14.6379 503.69 14.7854 503.914 14.7854C504.083 14.7854 504.267 14.6736 504.463 14.4501C504.66 14.2176 504.83 13.8913 504.973 13.4711L505.188 13.5247C504.803 14.6155 504.303 15.1609 503.686 15.1609C503.131 15.1609 502.854 14.8256 502.854 14.1551ZM509.592 9.36706C509.225 9.36706 508.885 9.50565 508.572 9.78282C508.268 10.06 508.027 10.4042 507.848 10.8155C507.491 11.6828 507.312 12.4339 507.312 13.0687C507.312 14.2489 507.669 14.8391 508.385 14.8391C509.27 14.8391 509.918 14.3562 510.329 13.3906L510.544 13.4442C510.329 13.9896 510.016 14.4144 509.605 14.7184C509.203 15.0134 508.747 15.1609 508.237 15.1609C507.727 15.1609 507.298 14.9732 506.95 14.5976C506.601 14.2221 506.427 13.7169 506.427 13.0821C506.427 12.4473 506.547 11.8348 506.789 11.2447C507.03 10.6456 507.406 10.1315 507.915 9.70235C508.425 9.26424 509.006 9.04518 509.659 9.04518C510.106 9.04518 510.441 9.16141 510.665 9.39388C510.897 9.61741 511.013 9.89012 511.013 10.212C511.013 10.5249 510.955 10.8066 510.839 11.0569C510.732 11.3073 510.557 11.4325 510.316 11.4325C510.083 11.4325 509.909 11.3609 509.793 11.2179C510.052 10.8245 510.182 10.44 510.182 10.0645C510.182 9.59953 509.985 9.36706 509.592 9.36706ZM515.003 6.97976L513.393 14.6245C513.393 14.7139 513.443 14.7586 513.541 14.7586H514.131L514.091 15H511.623L511.663 14.7586H512.28C512.396 14.7586 512.468 14.6915 512.495 14.5574C513.568 9.47882 514.104 6.91718 514.104 6.87247C514.104 6.81882 514.055 6.792 513.957 6.792H513.367L513.407 6.55059H515.875L515.834 6.792H515.231C515.115 6.792 515.039 6.85459 515.003 6.97976ZM516.921 12.6529L516.948 13.8868C516.965 14.4412 517.113 14.7184 517.39 14.7184C517.569 14.7184 517.716 14.6245 517.833 14.4367C517.958 14.2489 518.02 14.0075 518.02 13.7125L518.275 13.6722C518.275 14.1282 518.155 14.4904 517.913 14.7586C517.681 15.0268 517.386 15.1609 517.028 15.1609C516.393 15.1609 516.058 14.6826 516.022 13.7259L515.968 12.4115C515.942 11.8304 515.821 11.428 515.606 11.2045C515.392 10.972 515.039 10.8558 514.547 10.8558L514.614 10.6412L518.436 6.792H517.806L517.846 6.55059H519.576L519.536 6.792H519.187C519.044 6.792 518.915 6.85459 518.798 6.97976L515.164 10.6144C515.808 10.6233 516.255 10.8111 516.505 11.1776C516.764 11.5442 516.903 12.036 516.921 12.6529ZM523.149 9.04518C523.622 9.04518 523.976 9.16141 524.208 9.39388C524.45 9.61741 524.57 9.94376 524.57 10.3729C524.57 10.7932 524.405 11.1598 524.074 11.4727C523.511 12.0092 522.675 12.2774 521.566 12.2774C521.235 12.2774 520.949 12.2506 520.708 12.1969V11.9421C521.021 11.9868 521.28 12.0092 521.486 12.0092C522.228 12.0092 522.8 11.8214 523.202 11.4459C523.614 11.0704 523.819 10.6591 523.819 10.212C523.819 9.97059 523.752 9.76941 523.618 9.60847C523.493 9.44753 523.278 9.36706 522.974 9.36706C522.679 9.36706 522.375 9.50565 522.062 9.78282C521.758 10.06 521.517 10.4042 521.338 10.8155C520.98 11.6828 520.802 12.4339 520.802 13.0687C520.802 14.2489 521.159 14.8391 521.874 14.8391C522.76 14.8391 523.408 14.3562 523.819 13.3906L524.034 13.4442C523.819 13.9896 523.506 14.4144 523.095 14.7184C522.693 15.0134 522.237 15.1609 521.727 15.1609C521.217 15.1609 520.788 14.9732 520.439 14.5976C520.091 14.2221 519.916 13.7169 519.916 13.0821C519.916 12.4473 520.037 11.8348 520.278 11.2447C520.52 10.6456 520.895 10.1315 521.405 9.70235C521.915 9.26424 522.496 9.04518 523.149 9.04518ZM527.661 14.7184C528.233 14.7184 528.801 14.3026 529.364 13.4711C529.937 12.6306 530.223 11.8482 530.223 11.124C530.223 10.3908 529.99 9.79176 529.525 9.32682C529.749 9.13906 529.955 9.04518 530.142 9.04518C530.491 9.04518 530.665 9.53694 530.665 10.5205C530.665 11.504 530.558 12.4071 530.343 13.2296C530.129 14.0433 529.847 14.7362 529.499 15.3085C529.159 15.8807 528.77 16.3769 528.332 16.7972C527.482 17.6376 526.619 18.0579 525.743 18.0579C525.296 18.0579 524.961 17.9551 524.737 17.7494C524.505 17.5438 524.389 17.3024 524.389 17.0252C524.389 16.748 524.447 16.4976 524.563 16.2741C524.67 16.0506 524.836 15.9388 525.059 15.9388C525.283 15.9388 525.466 16.0014 525.609 16.1266C525.35 16.4574 525.22 16.7614 525.22 17.0386C525.22 17.4856 525.457 17.7092 525.931 17.7092C526.244 17.7092 526.606 17.5929 527.017 17.3605C527.429 17.1369 527.844 16.8151 528.265 16.3948C528.685 15.9835 529.069 15.4292 529.418 14.7318C529.776 14.0344 530.026 13.2788 530.169 12.4652C529.874 13.2431 529.476 13.8868 528.975 14.3965C528.484 14.9061 527.916 15.1609 527.272 15.1609C526.941 15.1609 526.673 15.0492 526.467 14.8256C526.271 14.5932 526.172 14.2802 526.172 13.8868C526.172 13.4934 526.32 12.8049 526.615 11.8214C526.919 10.8379 527.071 10.1941 527.071 9.89012C527.071 9.57718 526.955 9.42071 526.722 9.42071C526.552 9.42071 526.374 9.53694 526.186 9.76941C525.998 9.99294 525.846 10.3148 525.73 10.7351L525.502 10.6814C525.833 9.59059 526.311 9.04518 526.937 9.04518C527.518 9.04518 527.809 9.35812 527.809 9.984C527.809 10.2344 527.67 10.8558 527.393 11.8482C527.116 12.8407 526.977 13.4934 526.977 13.8064C526.977 14.4144 527.205 14.7184 527.661 14.7184ZM530.956 16.3144C531.85 15.6348 532.561 14.6647 533.089 13.404C533.616 12.1433 533.88 10.8692 533.88 9.58165C533.88 8.28518 533.58 7.31953 532.981 6.68471L533.142 6.48353C533.723 6.83224 534.157 7.324 534.443 7.95882C534.729 8.58471 534.872 9.29106 534.872 10.0779C534.872 11.3565 534.519 12.6082 533.813 13.8332C533.115 15.0581 532.181 15.9522 531.01 16.5155L530.956 16.3144Z" fill="#6082FA"/>
<path opacity="0.86" d="M391.89 15.05L392.76 10.96C392.76 10.9067 392.723 10.88 392.65 10.88H392.2L392.23 10.7H394.07L394.04 10.88H393.59C393.503 10.88 393.447 10.9267 393.42 11.02L392.55 15.12C392.51 15.3067 392.49 15.4767 392.49 15.63C392.49 16.0233 392.607 16.3167 392.84 16.51C393.073 16.6967 393.383 16.79 393.77 16.79C394.137 16.79 394.52 16.6633 394.92 16.41C395.347 16.1367 395.627 15.6867 395.76 15.06L396.62 10.99C396.62 10.9167 396.587 10.88 396.52 10.88H396.07L396.1 10.7H397.59L397.56 10.88H397.11C397.023 10.88 396.967 10.9267 396.94 11.02L396.09 15.05C395.943 15.7433 395.643 16.2633 395.19 16.61C394.743 16.95 394.223 17.12 393.63 17.12C392.423 17.12 391.82 16.63 391.82 15.65C391.82 15.4567 391.843 15.2567 391.89 15.05ZM399.884 14.09H399.254C398.894 15.8033 398.714 16.6867 398.714 16.74C398.714 16.7933 398.75 16.82 398.824 16.82H399.464L399.434 17H397.394L397.424 16.82H397.884C397.97 16.82 398.024 16.77 398.044 16.67C398.844 12.8833 399.244 10.9733 399.244 10.94C399.244 10.9 399.207 10.88 399.134 10.88H398.694L398.724 10.7H400.994C401.454 10.7 401.834 10.82 402.134 11.06C402.44 11.2933 402.594 11.64 402.594 12.1C402.594 12.5533 402.427 12.9567 402.094 13.31C401.767 13.6633 401.36 13.9 400.874 14.02C401.34 14.2 401.574 14.5633 401.574 15.11C401.574 15.3033 401.54 15.56 401.474 15.88C401.414 16.2 401.384 16.4067 401.384 16.5C401.384 16.6867 401.457 16.78 401.604 16.78C401.75 16.78 401.904 16.6767 402.064 16.47C402.224 16.2567 402.367 15.9567 402.494 15.57L402.664 15.61C402.484 16.1433 402.284 16.53 402.064 16.77C401.844 17.0033 401.584 17.12 401.284 17.12C401.137 17.12 401.014 17.0667 400.914 16.96C400.814 16.8467 400.764 16.69 400.764 16.49C400.764 16.29 400.794 16.0333 400.854 15.72C400.92 15.4067 400.954 15.1267 400.954 14.88C400.954 14.3533 400.597 14.09 399.884 14.09ZM400.894 10.93H399.934L399.304 13.85H400.304C400.77 13.85 401.157 13.6533 401.464 13.26C401.777 12.8667 401.934 12.45 401.934 12.01C401.934 11.6967 401.844 11.44 401.664 11.24C401.49 11.0333 401.234 10.93 400.894 10.93ZM405.788 11.02L404.578 16.77H406.548C406.714 16.77 406.821 16.6967 406.868 16.55L407.278 15.33H407.498L407.398 15.8C407.271 16.38 407.208 16.81 407.208 17.09C407.014 17.03 406.671 17 406.178 17H403.268L403.298 16.82H403.758C403.844 16.82 403.898 16.77 403.918 16.67C404.718 12.8833 405.118 10.9733 405.118 10.94C405.118 10.9 405.081 10.88 405.008 10.88H404.568L404.598 10.7H406.438L406.408 10.88H405.958C405.871 10.88 405.814 10.9267 405.788 11.02Z" fill="#6082FA"/>
</svg>
