<svg width="562" height="24" viewBox="0 0 562 24" fill="none" xmlns="http://www.w3.org/2000/svg">
<path opacity="0.86" d="M30.5872 12.87H22.7011V11.8038H30.5872V12.87ZM30.5872 16.29H22.7011V15.2238H30.5872V16.29Z" fill="#6082FA"/>
<path opacity="0.86" d="M41.5608 18.2414C40.6086 18.2414 39.7704 18 39.0461 17.5172C38.8047 17.3696 38.6371 17.2959 38.5432 17.2959C38.3018 17.2959 38.1475 17.5306 38.0805 18H37.6982L38.4024 14.6404H38.7645C38.7511 14.7476 38.7444 14.9086 38.7444 15.1232C38.7444 15.9949 38.9925 16.6387 39.4887 17.0545C39.9984 17.4568 40.6891 17.658 41.5608 17.658C42.446 17.658 43.1836 17.3495 43.7738 16.7326C44.3773 16.1022 44.6791 15.3847 44.6791 14.58C44.6791 13.7619 44.2633 13.1516 43.4318 12.7493L41.8224 11.9245C40.5616 11.3075 39.9313 10.3486 39.9313 9.04765C39.9313 8.02835 40.3269 7.11635 41.1182 6.31165C41.9095 5.49353 42.902 5.08447 44.0956 5.08447C44.8869 5.08447 45.6045 5.30576 46.2482 5.74835C46.4628 5.89588 46.6104 5.96965 46.6908 5.96965C46.8249 5.96965 46.9389 5.82882 47.0328 5.54718L47.1334 5.20518H47.4955L46.7512 8.68553H46.4092C46.436 8.41729 46.4494 8.22282 46.4494 8.10212C46.4494 7.27059 46.2348 6.66035 45.8056 6.27141C45.3899 5.86906 44.7864 5.66788 43.9951 5.66788C43.2038 5.66788 42.5265 5.96294 41.9632 6.55306C41.4133 7.14318 41.1384 7.80706 41.1384 8.54471C41.1384 9.45671 41.5474 10.1273 42.3655 10.5565L44.4376 11.6227C45.5508 12.1994 46.1074 13.0175 46.1074 14.0771C46.1074 15.1232 45.6514 16.0821 44.7394 16.9539C43.8274 17.8122 42.7679 18.2414 41.5608 18.2414ZM48.4015 15.0829C48.4015 13.7015 48.8038 12.3805 49.6085 11.1198C49.9975 10.5162 50.5071 10.0267 51.1375 9.65118C51.7678 9.26223 52.4853 9.06776 53.29 9.06776C54.1082 9.06776 54.772 9.34271 55.2817 9.89259C55.7913 10.4425 56.0462 11.1935 56.0462 12.1458C56.0462 13.098 55.8718 14.0234 55.5231 14.922C55.1744 15.8206 54.6245 16.5985 53.8735 17.2556C53.1224 17.9128 52.2775 18.2414 51.3386 18.2414C50.3998 18.2414 49.6756 17.9665 49.1659 17.4166C48.6563 16.8667 48.4015 16.0888 48.4015 15.0829ZM53.1291 9.51035C52.4049 9.51035 51.7611 9.87247 51.1978 10.5967C50.6479 11.3209 50.2523 12.1122 50.0109 12.9706C49.7829 13.8289 49.6689 14.6336 49.6689 15.3847C49.6689 16.1224 49.8164 16.7125 50.1115 17.1551C50.4199 17.5842 50.8357 17.7988 51.3587 17.7988C51.8952 17.7988 52.3915 17.5842 52.8475 17.1551C53.3169 16.7259 53.6857 16.1961 53.9539 15.5658C54.5038 14.2782 54.7787 13.1651 54.7787 12.2262C54.7787 11.274 54.6312 10.5833 54.3362 10.1541C54.0411 9.72494 53.6387 9.51035 53.1291 9.51035ZM59.5458 17.0142C59.5458 17.4568 59.7135 17.6781 60.0488 17.6781C60.3036 17.6781 60.5785 17.5105 60.8736 17.1752C61.1687 16.8265 61.4235 16.3369 61.6381 15.7066L61.96 15.7871C61.3833 17.4233 60.6322 18.2414 59.7068 18.2414C58.8753 18.2414 58.4595 17.7184 58.4595 16.6722C58.4595 15.6127 59.338 11.8976 61.0949 5.52706L59.8074 5.62765L59.7873 5.28565C60.7127 5.16494 61.5777 4.99729 62.3824 4.78271L62.6641 4.98388C62.1008 6.63353 61.4369 8.87329 60.6724 11.7032C59.9214 14.5196 59.5458 16.29 59.5458 17.0142ZM69.2551 16.7326C69.2551 16.5314 69.2887 16.2095 69.3557 15.7669H69.2551C68.3968 17.4166 67.4043 18.2414 66.2777 18.2414C65.0707 18.2414 64.4671 17.5708 64.4671 16.2296C64.4671 15.3579 64.7756 13.7418 65.3925 11.3813L65.7547 9.99318L64.4671 10.0938L64.447 9.75176C65.3724 9.63106 66.2375 9.46341 67.0422 9.24882L67.3238 9.45C66.1972 12.9505 65.6339 15.1902 65.6339 16.1693C65.6339 17.1484 66.0028 17.6379 66.7404 17.6379C67.3574 17.6379 67.9609 17.1886 68.551 16.29C69.1545 15.378 69.6508 14.1575 70.0397 12.6286L70.7237 9.99318L69.4362 10.0938L69.4161 9.75176C70.3415 9.63106 71.2065 9.46341 72.0112 9.24882L72.2929 9.45C71.8235 10.8448 71.3809 12.3402 70.9651 13.9362C70.5494 15.5322 70.3415 16.5582 70.3415 17.0142C70.3415 17.4568 70.5091 17.6781 70.8444 17.6781C71.0992 17.6781 71.3742 17.5105 71.6692 17.1752C71.9643 16.8265 72.2191 16.3369 72.4337 15.7066L72.7556 15.7871C72.1789 17.4233 71.4278 18.2414 70.5024 18.2414C69.6709 18.2414 69.2551 17.7385 69.2551 16.7326ZM75.1416 10.0334L75.2422 9.65118H79.7083L79.6077 10.0334H75.1416ZM78.3403 7.1767L78.6219 7.37788C78.3135 8.31671 77.8977 9.792 77.3746 11.8038C76.865 13.8155 76.5565 15.1165 76.4492 15.7066C76.3419 16.2833 76.2883 16.7192 76.2883 17.0142C76.2883 17.4568 76.4559 17.6781 76.7912 17.6781C77.046 17.6781 77.321 17.5105 77.616 17.1752C77.9111 16.8265 78.1659 16.3369 78.3805 15.7066L78.7024 15.7871C78.1257 17.4233 77.3746 18.2414 76.4492 18.2414C75.6177 18.2414 75.2019 17.7385 75.2019 16.7326C75.2019 15.9011 75.6982 13.5808 76.6906 9.77188L75.2422 9.65118C75.9798 9.65118 76.5766 9.47682 77.0326 9.12812C77.4886 8.766 77.9245 8.11553 78.3403 7.1767ZM83.4374 7.056C83.2631 6.88165 83.1759 6.66706 83.1759 6.41223C83.1759 6.15741 83.2631 5.94282 83.4374 5.76847C83.6118 5.59412 83.8264 5.50694 84.0812 5.50694C84.336 5.50694 84.5506 5.59412 84.725 5.76847C84.8993 5.94282 84.9865 6.15741 84.9865 6.41223C84.9865 6.66706 84.8993 6.88165 84.725 7.056C84.5506 7.23035 84.336 7.31753 84.0812 7.31753C83.8264 7.31753 83.6118 7.23035 83.4374 7.056ZM81.1641 16.7326C81.1641 16.0218 81.6537 13.7753 82.6327 9.99318L81.3452 10.0938L81.3251 9.75176C82.2505 9.63106 83.1156 9.46341 83.9203 9.24882L84.2019 9.45C83.7325 10.8448 83.2899 12.3402 82.8741 13.9362C82.4584 15.5322 82.2505 16.5582 82.2505 17.0142C82.2505 17.4568 82.4181 17.6781 82.7534 17.6781C83.0083 17.6781 83.2832 17.5105 83.5783 17.1752C83.8733 16.8265 84.1281 16.3369 84.3427 15.7066L84.6646 15.7871C84.0879 17.4233 83.3368 18.2414 82.4114 18.2414C81.5799 18.2414 81.1641 17.7385 81.1641 16.7326ZM86.5228 15.0829C86.5228 13.7015 86.9252 12.3805 87.7299 11.1198C88.1188 10.5162 88.6285 10.0267 89.2588 9.65118C89.8892 9.26223 90.6067 9.06776 91.4114 9.06776C92.2295 9.06776 92.8934 9.34271 93.4031 9.89259C93.9127 10.4425 94.1675 11.1935 94.1675 12.1458C94.1675 13.098 93.9932 14.0234 93.6445 14.922C93.2958 15.8206 92.7459 16.5985 91.9948 17.2556C91.2438 17.9128 90.3988 18.2414 89.46 18.2414C88.5212 18.2414 87.7969 17.9665 87.2873 17.4166C86.7776 16.8667 86.5228 16.0888 86.5228 15.0829ZM91.2505 9.51035C90.5262 9.51035 89.8825 9.87247 89.3192 10.5967C88.7693 11.3209 88.3736 12.1122 88.1322 12.9706C87.9042 13.8289 87.7902 14.6336 87.7902 15.3847C87.7902 16.1224 87.9378 16.7125 88.2328 17.1551C88.5413 17.5842 88.9571 17.7988 89.4801 17.7988C90.0166 17.7988 90.5128 17.5842 90.9688 17.1551C91.4382 16.7259 91.8071 16.1961 92.0753 15.5658C92.6252 14.2782 92.9001 13.1651 92.9001 12.2262C92.9001 11.274 92.7526 10.5833 92.4575 10.1541C92.1625 9.72494 91.7601 9.51035 91.2505 9.51035ZM104.387 10.8985C104.387 11.4752 104.058 12.5347 103.401 14.0771C102.757 15.6194 102.435 16.6052 102.435 17.0344C102.435 17.4635 102.603 17.6781 102.938 17.6781C103.193 17.6781 103.468 17.5105 103.763 17.1752C104.058 16.8265 104.313 16.3369 104.527 15.7066L104.849 15.7871C104.273 17.4233 103.521 18.2414 102.596 18.2414C101.765 18.2414 101.349 17.7854 101.349 16.8734C101.349 16.4845 101.651 15.5188 102.254 13.9765C102.871 12.4341 103.179 11.4416 103.179 10.9991C103.179 10.1541 102.871 9.73165 102.254 9.73165C101.583 9.73165 100.859 10.2748 100.081 11.3612C99.1827 12.6621 98.3847 14.8751 97.6873 18L96.2791 18.1207L98.2506 9.99318L96.9631 10.0938L96.943 9.75176C97.8684 9.63106 98.7334 9.46341 99.5382 9.24882L99.8198 9.45C99.176 10.9253 98.6127 12.6219 98.1299 14.5398H98.2909L98.6127 13.6546C99.337 11.6294 100.122 10.3151 100.967 9.71153C101.369 9.44329 101.697 9.26894 101.952 9.18847C102.221 9.108 102.549 9.06776 102.938 9.06776C103.34 9.06776 103.682 9.22871 103.964 9.55059C104.246 9.87247 104.387 10.3218 104.387 10.8985ZM112.633 5.52706C111.239 6.55976 110.152 8.00823 109.374 9.87247C108.596 11.7233 108.207 13.6412 108.207 15.6261C108.207 17.5976 108.663 19.0461 109.575 19.9715L109.294 20.2733C108.449 19.7502 107.805 19.0126 107.363 18.0604C106.933 17.1081 106.719 16.0486 106.719 14.8818C106.719 12.9639 107.242 11.0929 108.288 9.26894C109.347 7.43153 110.749 6.08365 112.493 5.22529L112.633 5.52706ZM119.422 5.78859H117.108L114.634 17.5373H116.967C117.826 17.5373 118.617 17.2691 119.341 16.7326C120.066 16.1961 120.649 15.5188 121.092 14.7007C122.004 12.9974 122.46 11.3008 122.46 9.61094C122.46 8.40388 122.178 7.46506 121.615 6.79447C121.065 6.12388 120.334 5.78859 119.422 5.78859ZM114.674 5.32588H119.542C120.884 5.32588 121.943 5.72153 122.721 6.51282C123.499 7.29071 123.888 8.38376 123.888 9.792C123.888 10.7442 123.72 11.7032 123.385 12.6688C123.063 13.6211 122.614 14.4995 122.037 15.3042C121.46 16.0955 120.716 16.746 119.804 17.2556C118.905 17.7519 117.926 18 116.867 18H111.998L112.059 17.6379H112.984C113.158 17.6379 113.266 17.5373 113.306 17.3361C114.915 9.71824 115.72 5.87576 115.72 5.80871C115.72 5.72823 115.646 5.688 115.499 5.688H114.614L114.674 5.32588ZM130.151 9.06776C130.862 9.06776 131.392 9.24212 131.74 9.59082C132.102 9.92612 132.284 10.4156 132.284 11.0594C132.284 11.6898 132.035 12.2396 131.539 12.7091C130.694 13.5138 129.44 13.9161 127.777 13.9161C127.281 13.9161 126.852 13.8759 126.49 13.7954V13.4132C126.959 13.4802 127.348 13.5138 127.656 13.5138C128.77 13.5138 129.628 13.2321 130.232 12.6688C130.848 12.1055 131.157 11.4886 131.157 10.818C131.157 10.4559 131.056 10.1541 130.855 9.91271C130.667 9.67129 130.346 9.55059 129.89 9.55059C129.447 9.55059 128.991 9.75847 128.522 10.1742C128.066 10.59 127.703 11.1064 127.435 11.7233C126.899 13.0242 126.63 14.1508 126.63 15.1031C126.63 16.8734 127.167 17.7586 128.24 17.7586C129.568 17.7586 130.54 17.0344 131.157 15.5859L131.479 15.6664C131.157 16.4845 130.688 17.1215 130.071 17.5775C129.467 18.0201 128.783 18.2414 128.019 18.2414C127.254 18.2414 126.61 17.9598 126.087 17.3965C125.564 16.8332 125.303 16.0754 125.303 15.1232C125.303 14.1709 125.484 13.2522 125.846 12.3671C126.208 11.4685 126.771 10.6973 127.536 10.0535C128.3 9.39635 129.172 9.06776 130.151 9.06776ZM138.449 9.55059C137.899 9.55059 137.389 9.75847 136.92 10.1742C136.464 10.59 136.102 11.1064 135.834 11.7233C135.297 13.0242 135.029 14.1508 135.029 15.1031C135.029 16.8734 135.565 17.7586 136.638 17.7586C137.966 17.7586 138.938 17.0344 139.555 15.5859L139.877 15.6664C139.555 16.4845 139.086 17.1215 138.469 17.5775C137.865 18.0201 137.181 18.2414 136.417 18.2414C135.652 18.2414 135.009 17.9598 134.486 17.3965C133.963 16.8332 133.701 16.0754 133.701 15.1232C133.701 14.1709 133.882 13.2522 134.244 12.3671C134.606 11.4685 135.17 10.6973 135.934 10.0535C136.699 9.39635 137.57 9.06776 138.549 9.06776C139.22 9.06776 139.723 9.24212 140.058 9.59082C140.407 9.92612 140.581 10.3352 140.581 10.818C140.581 11.2874 140.494 11.7099 140.32 12.0854C140.159 12.4609 139.897 12.6487 139.535 12.6487C139.186 12.6487 138.925 12.5414 138.751 12.3268C139.14 11.7367 139.334 11.16 139.334 10.5967C139.334 9.89929 139.039 9.55059 138.449 9.55059Z" fill="#6082FA"/>
<path opacity="0.86" d="M144.755 11.7384C145.274 11.5059 145.824 11.3896 146.405 11.3896C147.29 11.3896 147.988 11.6579 148.497 12.1944C149.016 12.7219 149.275 13.4685 149.275 14.4341C149.275 15.0868 149.168 15.7485 148.953 16.4191C148.739 17.0807 148.439 17.6932 148.055 18.2565C147.67 18.8198 147.169 19.2802 146.552 19.6379C145.936 19.9866 145.225 20.1609 144.42 20.1609C143.615 20.1609 142.954 19.8927 142.435 19.3562C141.925 18.8198 141.671 18.0419 141.671 17.0226C141.671 16.0033 141.948 14.9751 142.502 13.9379C143.065 12.9007 143.816 12.1675 144.755 11.7384ZM147.786 12.4224C147.429 11.9664 146.955 11.7384 146.365 11.7384C145.775 11.7384 145.229 11.9306 144.728 12.3151C144.228 12.6906 143.83 13.1689 143.535 13.7501C142.918 14.9482 142.609 16.1106 142.609 17.2372C142.609 18.0508 142.784 18.6856 143.132 19.1416C143.49 19.5887 143.964 19.8122 144.554 19.8122C145.153 19.8122 145.703 19.6245 146.204 19.2489C146.704 18.8645 147.107 18.3861 147.411 17.8139C148.028 16.6247 148.336 15.4624 148.336 14.3268C148.336 13.5132 148.153 12.8784 147.786 12.4224ZM150.374 14.6889L150.441 14.4341H153.821L153.754 14.6889H150.374ZM152.654 13.6831L151.393 19.5708C151.134 20.7511 150.817 21.6273 150.441 22.1995C150.066 22.7718 149.61 23.0579 149.073 23.0579C148.733 23.0579 148.47 22.9551 148.282 22.7494C148.094 22.5438 148 22.3113 148 22.052C148 21.8016 148.054 21.5736 148.161 21.368C148.26 21.1713 148.421 21.0729 148.644 21.0729C148.868 21.0729 149.029 21.1311 149.127 21.2473C149.011 21.3367 148.917 21.4708 148.845 21.6496C148.765 21.8285 148.725 22.0028 148.725 22.1727C148.725 22.5572 148.885 22.7494 149.207 22.7494C149.565 22.7494 149.838 22.4722 150.025 21.9179C150.213 21.3635 150.473 20.2504 150.803 18.5784L151.581 14.6085C151.769 13.6607 152.1 12.8471 152.574 12.1675C153.048 11.488 153.597 11.1482 154.223 11.1482C154.67 11.1482 155.006 11.2511 155.229 11.4567C155.462 11.6624 155.578 11.9038 155.578 12.1809C155.578 12.4581 155.52 12.7085 155.404 12.932C155.296 13.1555 155.122 13.2673 154.881 13.2673C154.639 13.2673 154.465 13.2047 154.357 13.0795C154.617 12.7487 154.746 12.4134 154.746 12.0736C154.746 11.6624 154.55 11.4567 154.156 11.4567C153.772 11.4567 153.463 11.6534 153.231 12.0468C152.998 12.4313 152.806 12.9767 152.654 13.6831ZM154.532 14.6889L154.599 14.4341H157.979L157.912 14.6889H154.532ZM156.812 13.6831L155.552 19.5708C155.292 20.7511 154.975 21.6273 154.599 22.1995C154.224 22.7718 153.768 23.0579 153.231 23.0579C152.892 23.0579 152.628 22.9551 152.44 22.7494C152.252 22.5438 152.158 22.3113 152.158 22.052C152.158 21.8016 152.212 21.5736 152.319 21.368C152.418 21.1713 152.579 21.0729 152.802 21.0729C153.026 21.0729 153.187 21.1311 153.285 21.2473C153.169 21.3367 153.075 21.4708 153.003 21.6496C152.923 21.8285 152.883 22.0028 152.883 22.1727C152.883 22.5572 153.044 22.7494 153.366 22.7494C153.723 22.7494 153.996 22.4722 154.184 21.9179C154.371 21.3635 154.631 20.2504 154.962 18.5784L155.739 14.6085C155.927 13.6607 156.258 12.8471 156.732 12.1675C157.206 11.488 157.756 11.1482 158.382 11.1482C158.829 11.1482 159.164 11.2511 159.387 11.4567C159.62 11.6624 159.736 11.9038 159.736 12.1809C159.736 12.4581 159.678 12.7085 159.562 12.932C159.454 13.1555 159.28 13.2673 159.039 13.2673C158.797 13.2673 158.623 13.2047 158.516 13.0795C158.775 12.7487 158.905 12.4134 158.905 12.0736C158.905 11.6624 158.708 11.4567 158.314 11.4567C157.93 11.4567 157.622 11.6534 157.389 12.0468C157.157 12.4313 156.964 12.9767 156.812 13.6831ZM161.762 14.0452C162.236 14.0452 162.589 14.1614 162.821 14.3939C163.063 14.6174 163.183 14.9438 163.183 15.3729C163.183 15.7932 163.018 16.1598 162.687 16.4727C162.124 17.0092 161.288 17.2774 160.179 17.2774C159.848 17.2774 159.562 17.2506 159.321 17.1969V16.9421C159.634 16.9868 159.893 17.0092 160.099 17.0092C160.841 17.0092 161.413 16.8214 161.815 16.4459C162.227 16.0704 162.432 15.6591 162.432 15.212C162.432 14.9706 162.365 14.7694 162.231 14.6085C162.106 14.4475 161.891 14.3671 161.587 14.3671C161.292 14.3671 160.988 14.5056 160.675 14.7828C160.371 15.06 160.13 15.4042 159.951 15.8155C159.594 16.6828 159.415 17.4339 159.415 18.0687C159.415 19.2489 159.772 19.8391 160.488 19.8391C161.373 19.8391 162.021 19.3562 162.432 18.3906L162.647 18.4442C162.432 18.9896 162.119 19.4144 161.708 19.7184C161.306 20.0134 160.85 20.1609 160.34 20.1609C159.831 20.1609 159.401 19.9732 159.053 19.5976C158.704 19.2221 158.53 18.7169 158.53 18.0821C158.53 17.4473 158.65 16.8348 158.892 16.2447C159.133 15.6456 159.509 15.1315 160.018 14.7024C160.528 14.2642 161.109 14.0452 161.762 14.0452ZM166.368 14.1659L166.556 14.3C166.127 15.2835 165.751 16.4146 165.429 17.6932H165.537L165.751 17.1031C166.172 15.9586 166.587 15.1628 166.999 14.7158C167.41 14.2687 167.768 14.0452 168.072 14.0452C168.376 14.0452 168.599 14.1435 168.742 14.3402C168.894 14.5369 168.97 14.7918 168.97 15.1047C168.97 15.4176 168.912 15.6904 168.796 15.9228C168.68 16.1553 168.51 16.2715 168.286 16.2715C168.072 16.2715 167.893 16.2 167.75 16.0569C167.839 15.9407 167.924 15.7708 168.004 15.5473C168.085 15.3238 168.125 15.1271 168.125 14.9572C168.125 14.6979 168.018 14.5682 167.803 14.5682C167.58 14.5682 167.303 14.7873 166.972 15.2254C166.248 16.1732 165.635 17.7647 165.134 20L164.196 20.0805L165.51 14.6621L164.652 14.7292L164.638 14.5012C165.255 14.4207 165.832 14.3089 166.368 14.1659ZM169.615 19.9598C169.481 19.8167 169.414 19.6468 169.414 19.4501C169.414 19.2534 169.481 19.088 169.615 18.9539C169.758 18.8108 169.928 18.7393 170.125 18.7393C170.322 18.7393 170.487 18.8108 170.621 18.9539C170.764 19.088 170.836 19.2534 170.836 19.4501C170.836 19.6468 170.764 19.8167 170.621 19.9598C170.487 20.0939 170.322 20.1609 170.125 20.1609C169.928 20.1609 169.758 20.0939 169.615 19.9598ZM177.654 14.3C177.341 15.2299 177.046 16.2268 176.769 17.2908C176.492 18.3548 176.353 19.0388 176.353 19.3428C176.353 19.6379 176.465 19.7854 176.688 19.7854C176.858 19.7854 177.041 19.6736 177.238 19.4501C177.435 19.2176 177.605 18.8913 177.748 18.4711L177.962 18.5247C177.578 19.6155 177.077 20.1609 176.46 20.1609C175.906 20.1609 175.629 19.8256 175.629 19.1551C175.629 19.0209 175.651 18.8064 175.696 18.5113H175.629C175.074 19.6111 174.431 20.1609 173.697 20.1609C173.277 20.1609 172.924 19.9776 172.638 19.6111C172.361 19.2355 172.222 18.7795 172.222 18.2431C172.222 17.6976 172.294 17.1925 172.437 16.7275C172.58 16.2626 172.781 15.8289 173.04 15.4266C173.3 15.0153 173.644 14.6845 174.073 14.4341C174.502 14.1748 174.972 14.0452 175.481 14.0452C176.143 14.0452 176.666 14.3268 177.05 14.8901L177.466 14.1659L177.654 14.3ZM174.019 19.7586C174.395 19.7586 174.775 19.468 175.159 18.8868C175.597 18.2162 176.004 17.1209 176.38 15.6009C176.46 15.2433 176.523 14.984 176.568 14.8231C176.255 14.5191 175.893 14.3671 175.481 14.3671C175.079 14.3671 174.717 14.5056 174.395 14.7828C174.082 15.06 173.836 15.4087 173.657 15.8289C173.291 16.6873 173.107 17.4965 173.107 18.2565C173.107 18.7572 173.188 19.1327 173.349 19.3831C173.519 19.6334 173.742 19.7586 174.019 19.7586ZM181.436 14.1659L181.624 14.3C181.195 15.2835 180.819 16.4146 180.497 17.6932H180.605L180.819 17.1031C181.239 15.9586 181.655 15.1628 182.066 14.7158C182.478 14.2687 182.835 14.0452 183.139 14.0452C183.443 14.0452 183.667 14.1435 183.81 14.3402C183.962 14.5369 184.038 14.7918 184.038 15.1047C184.038 15.4176 183.98 15.6904 183.864 15.9228C183.747 16.1553 183.577 16.2715 183.354 16.2715C183.139 16.2715 182.961 16.2 182.817 16.0569C182.907 15.9407 182.992 15.7708 183.072 15.5473C183.153 15.3238 183.193 15.1271 183.193 14.9572C183.193 14.6979 183.086 14.5682 182.871 14.5682C182.648 14.5682 182.37 14.7873 182.04 15.2254C181.315 16.1732 180.703 17.7647 180.202 20L179.263 20.0805L180.578 14.6621L179.719 14.7292L179.706 14.5012C180.323 14.4207 180.9 14.3089 181.436 14.1659ZM185.394 19.2221L187.526 19.7049C187.991 19.8122 188.322 19.9553 188.519 20.1341C188.715 20.3219 188.814 20.5767 188.814 20.8986C188.814 21.4172 188.528 21.9045 187.955 22.3605C187.392 22.8254 186.748 23.0579 186.024 23.0579C185.3 23.0579 184.71 22.8925 184.254 22.5616C183.807 22.2308 183.583 21.8374 183.583 21.3814C183.583 21.0685 183.69 20.7689 183.905 20.4828C184.111 20.1967 184.419 19.9553 184.83 19.7586L185.099 19.8391C184.83 19.9732 184.625 20.1744 184.482 20.4426C184.339 20.7198 184.267 21.0104 184.267 21.3144C184.267 21.8151 184.433 22.1861 184.763 22.4275C185.094 22.6779 185.519 22.8031 186.038 22.8031C186.565 22.8031 187.048 22.6511 187.486 22.3471C187.933 22.052 188.157 21.6944 188.157 21.2741C188.157 20.8539 187.884 20.5812 187.338 20.456L185.032 19.9464C184.772 19.8927 184.571 19.772 184.428 19.5842C184.285 19.3965 184.214 19.1685 184.214 18.9002C184.214 18.632 184.325 18.3861 184.549 18.1626C184.772 17.9391 185.081 17.8273 185.474 17.8273H186.829L186.789 18.0151H185.474C185.286 18.0151 185.134 18.0732 185.018 18.1894C184.911 18.3056 184.857 18.4442 184.857 18.6052C184.857 18.936 185.036 19.1416 185.394 19.2221ZM187.647 14.2329L187.634 14.0452C187.884 14.0452 188.094 13.9871 188.264 13.8708C188.434 13.7456 188.519 13.5847 188.519 13.388C188.519 13.1913 188.376 13.0035 188.09 12.8247C188.233 12.5207 188.402 12.3687 188.599 12.3687C188.805 12.3687 188.957 12.4268 189.055 12.5431C189.162 12.6593 189.216 12.8068 189.216 12.9856C189.216 13.2986 189.073 13.5847 188.787 13.844C188.51 14.1033 188.13 14.2329 187.647 14.2329ZM185.193 16.5532C185.193 15.8915 185.425 15.3104 185.89 14.8096C186.364 14.3 186.945 14.0452 187.634 14.0452C188.116 14.0452 188.496 14.1748 188.774 14.4341C189.06 14.6845 189.203 15.0421 189.203 15.5071C189.203 16.2581 188.961 16.8661 188.478 17.3311C187.996 17.7871 187.432 18.0151 186.789 18.0151C186.297 18.0151 185.908 17.8899 185.622 17.6395C185.336 17.3802 185.193 17.0181 185.193 16.5532ZM187.62 14.3C187.128 14.3 186.726 14.5727 186.413 15.1181C186.1 15.6546 185.944 16.1329 185.944 16.5532C185.944 16.9734 186.02 17.2819 186.172 17.4786C186.333 17.6664 186.543 17.7602 186.802 17.7602C187.195 17.7602 187.571 17.5367 187.929 17.0896C188.286 16.6426 188.465 16.0793 188.465 15.3998C188.465 15.06 188.385 14.7918 188.224 14.5951C188.072 14.3984 187.87 14.3 187.62 14.3ZM192.982 14.3671C192.642 14.3671 192.352 14.4654 192.11 14.6621C191.869 14.8588 191.748 15.1092 191.748 15.4132C191.748 15.7172 191.873 15.9944 192.124 16.2447C192.374 16.4951 192.647 16.7052 192.942 16.8751C193.237 17.036 193.509 17.2506 193.76 17.5188C194.01 17.7871 194.135 18.0732 194.135 18.3772C194.135 18.9494 193.912 19.392 193.465 19.7049C193.027 20.0089 192.495 20.1609 191.869 20.1609C191.243 20.1609 190.693 20.0134 190.219 19.7184C190.371 19.4144 190.514 18.8868 190.648 18.1358L190.876 18.176C190.814 18.5426 190.782 18.8332 190.782 19.0478C190.782 19.2534 190.881 19.4456 191.077 19.6245C191.283 19.7944 191.574 19.8793 191.949 19.8793C192.334 19.8793 192.656 19.7631 192.915 19.5306C193.183 19.2981 193.317 18.9941 193.317 18.6186C193.317 18.3772 193.196 18.1447 192.955 17.9212C192.723 17.6887 192.463 17.4965 192.177 17.3445C191.9 17.1925 191.641 16.9779 191.399 16.7007C191.167 16.4235 191.051 16.1195 191.051 15.7887C191.051 15.2969 191.243 14.8856 191.627 14.5548C192.021 14.2151 192.535 14.0452 193.17 14.0452C193.661 14.0452 194.149 14.1659 194.632 14.4073C194.587 14.5056 194.511 14.7292 194.404 15.0779C194.305 15.4266 194.229 15.7574 194.176 16.0704L193.948 16.0301C194.001 15.744 194.028 15.4713 194.028 15.212C194.028 14.9438 193.939 14.7381 193.76 14.5951C193.59 14.4431 193.331 14.3671 192.982 14.3671ZM199.07 16.6336H197.755C197.344 18.5292 197.138 19.5261 197.138 19.6245C197.138 19.7139 197.187 19.7586 197.286 19.7586H198.265L198.225 20H195.368L195.408 19.7586H196.025C196.141 19.7586 196.213 19.6915 196.24 19.5574C197.313 14.4788 197.849 11.9172 197.849 11.8725C197.849 11.8188 197.8 11.792 197.702 11.792H197.111L197.152 11.5506H200.143C200.751 11.5506 201.251 11.7205 201.645 12.0602C202.038 12.4 202.235 12.8694 202.235 13.4685C202.235 14.4162 201.908 15.1807 201.256 15.7619C200.603 16.3431 199.874 16.6336 199.07 16.6336ZM199.995 11.8591H198.775L197.822 16.3252H199.083C199.727 16.3252 200.263 16.0122 200.692 15.3864C201.131 14.7605 201.35 14.1033 201.35 13.4148C201.35 12.9678 201.233 12.5967 201.001 12.3016C200.777 12.0066 200.442 11.8591 199.995 11.8591ZM204.879 14.1659L205.067 14.3C204.638 15.2835 204.262 16.4146 203.941 17.6932H204.048L204.262 17.1031C204.683 15.9586 205.098 15.1628 205.51 14.7158C205.921 14.2687 206.279 14.0452 206.583 14.0452C206.887 14.0452 207.11 14.1435 207.253 14.3402C207.405 14.5369 207.481 14.7918 207.481 15.1047C207.481 15.4176 207.423 15.6904 207.307 15.9228C207.191 16.1553 207.021 16.2715 206.797 16.2715C206.583 16.2715 206.404 16.2 206.261 16.0569C206.35 15.9407 206.435 15.7708 206.516 15.5473C206.596 15.3238 206.636 15.1271 206.636 14.9572C206.636 14.6979 206.529 14.5682 206.314 14.5682C206.091 14.5682 205.814 14.7873 205.483 15.2254C204.759 16.1732 204.146 17.7647 203.646 20L202.707 20.0805L204.021 14.6621L203.163 14.7292L203.149 14.5012C203.766 14.4207 204.343 14.3089 204.879 14.1659ZM209.803 12.704C209.687 12.5878 209.628 12.4447 209.628 12.2748C209.628 12.1049 209.687 11.9619 209.803 11.8456C209.919 11.7294 210.062 11.6713 210.232 11.6713C210.402 11.6713 210.545 11.7294 210.661 11.8456C210.777 11.9619 210.835 12.1049 210.835 12.2748C210.835 12.4447 210.777 12.5878 210.661 12.704C210.545 12.8202 210.402 12.8784 210.232 12.8784C210.062 12.8784 209.919 12.8202 209.803 12.704ZM208.287 19.1551C208.287 18.6812 208.614 17.1835 209.266 14.6621L208.408 14.7292L208.395 14.5012C209.011 14.4207 209.588 14.3089 210.125 14.1659L210.312 14.3C209.999 15.2299 209.704 16.2268 209.427 17.2908C209.15 18.3548 209.011 19.0388 209.011 19.3428C209.011 19.6379 209.123 19.7854 209.347 19.7854C209.517 19.7854 209.7 19.6736 209.897 19.4501C210.093 19.2176 210.263 18.8913 210.406 18.4711L210.621 18.5247C210.236 19.6155 209.736 20.1609 209.119 20.1609C208.564 20.1609 208.287 19.8256 208.287 19.1551ZM214.006 19.7184C214.578 19.7184 215.137 19.3026 215.682 18.4711C216.227 17.6395 216.5 16.8751 216.5 16.1776C216.5 15.4802 216.29 14.8633 215.87 14.3268C216.093 14.1391 216.295 14.0452 216.473 14.0452C216.652 14.0452 216.782 14.1569 216.862 14.3805C216.943 14.604 216.983 14.908 216.983 15.2925C216.983 15.668 216.907 16.1374 216.755 16.7007C216.603 17.264 216.393 17.8094 216.125 18.3369C215.856 18.8555 215.499 19.2892 215.052 19.6379C214.605 19.9866 214.126 20.1609 213.617 20.1609C213.286 20.1609 213.018 20.0492 212.812 19.8256C212.615 19.5932 212.517 19.2802 212.517 18.8868C212.517 18.4934 212.664 17.8049 212.959 16.8214C213.263 15.8379 213.415 15.1941 213.415 14.8901C213.415 14.5772 213.299 14.4207 213.067 14.4207C212.897 14.4207 212.718 14.5369 212.53 14.7694C212.343 14.9929 212.191 15.3148 212.074 15.7351L211.846 15.6814C212.177 14.5906 212.655 14.0452 213.281 14.0452C213.863 14.0452 214.153 14.3581 214.153 14.984C214.153 15.2344 214.015 15.8558 213.737 16.8482C213.46 17.8407 213.322 18.4934 213.322 18.8064C213.322 19.4144 213.55 19.7184 214.006 19.7184ZM223.558 14.3C223.245 15.2299 222.95 16.2268 222.673 17.2908C222.396 18.3548 222.257 19.0388 222.257 19.3428C222.257 19.6379 222.369 19.7854 222.593 19.7854C222.763 19.7854 222.946 19.6736 223.143 19.4501C223.339 19.2176 223.509 18.8913 223.652 18.4711L223.867 18.5247C223.482 19.6155 222.982 20.1609 222.365 20.1609C221.81 20.1609 221.533 19.8256 221.533 19.1551C221.533 19.0209 221.555 18.8064 221.6 18.5113H221.533C220.979 19.6111 220.335 20.1609 219.602 20.1609C219.182 20.1609 218.828 19.9776 218.542 19.6111C218.265 19.2355 218.127 18.7795 218.127 18.2431C218.127 17.6976 218.198 17.1925 218.341 16.7275C218.484 16.2626 218.685 15.8289 218.945 15.4266C219.204 15.0153 219.548 14.6845 219.977 14.4341C220.407 14.1748 220.876 14.0452 221.386 14.0452C222.047 14.0452 222.57 14.3268 222.955 14.8901L223.371 14.1659L223.558 14.3ZM219.924 19.7586C220.299 19.7586 220.679 19.468 221.064 18.8868C221.502 18.2162 221.909 17.1209 222.284 15.6009C222.365 15.2433 222.427 14.984 222.472 14.8231C222.159 14.5191 221.797 14.3671 221.386 14.3671C220.983 14.3671 220.621 14.5056 220.299 14.7828C219.986 15.06 219.74 15.4087 219.562 15.8289C219.195 16.6873 219.012 17.4965 219.012 18.2565C219.012 18.7572 219.092 19.1327 219.253 19.3831C219.423 19.6334 219.647 19.7586 219.924 19.7586ZM225.463 14.6889L225.53 14.4341H228.507L228.44 14.6889H225.463ZM227.595 12.7845L227.783 12.9186C227.577 13.5445 227.3 14.528 226.951 15.8692C226.612 17.2104 226.406 18.0776 226.335 18.4711C226.263 18.8555 226.227 19.1461 226.227 19.3428C226.227 19.6379 226.339 19.7854 226.563 19.7854C226.732 19.7854 226.916 19.6736 227.112 19.4501C227.309 19.2176 227.479 18.8913 227.622 18.4711L227.837 18.5247C227.452 19.6155 226.951 20.1609 226.335 20.1609C225.78 20.1609 225.503 19.8256 225.503 19.1551C225.503 18.6007 225.834 17.0539 226.495 14.5146L225.53 14.4341C226.022 14.4341 226.419 14.3179 226.723 14.0854C227.027 13.844 227.318 13.4104 227.595 12.7845ZM232.308 14.0452C232.782 14.0452 233.135 14.1614 233.367 14.3939C233.609 14.6174 233.729 14.9438 233.729 15.3729C233.729 15.7932 233.564 16.1598 233.233 16.4727C232.67 17.0092 231.834 17.2774 230.725 17.2774C230.394 17.2774 230.108 17.2506 229.867 17.1969V16.9421C230.18 16.9868 230.439 17.0092 230.645 17.0092C231.387 17.0092 231.959 16.8214 232.361 16.4459C232.773 16.0704 232.978 15.6591 232.978 15.212C232.978 14.9706 232.911 14.7694 232.777 14.6085C232.652 14.4475 232.437 14.3671 232.133 14.3671C231.838 14.3671 231.534 14.5056 231.221 14.7828C230.917 15.06 230.676 15.4042 230.497 15.8155C230.139 16.6828 229.961 17.4339 229.961 18.0687C229.961 19.2489 230.318 19.8391 231.034 19.8391C231.919 19.8391 232.567 19.3562 232.978 18.3906L233.193 18.4442C232.978 18.9896 232.665 19.4144 232.254 19.7184C231.852 20.0134 231.396 20.1609 230.886 20.1609C230.376 20.1609 229.947 19.9732 229.599 19.5976C229.25 19.2221 229.075 18.7169 229.075 18.0821C229.075 17.4473 229.196 16.8348 229.438 16.2447C229.679 15.6456 230.055 15.1315 230.564 14.7024C231.074 14.2642 231.655 14.0452 232.308 14.0452ZM237.652 11.9798L236.042 19.6245C236.042 19.7139 236.092 19.7586 236.19 19.7586H236.78L236.74 20H234.272L234.312 19.7586H234.929C235.045 19.7586 235.117 19.6915 235.144 19.5574C236.217 14.4788 236.753 11.9172 236.753 11.8725C236.753 11.8188 236.704 11.792 236.606 11.792H236.016L236.056 11.5506H238.524L238.483 11.792H237.88C237.764 11.792 237.688 11.8546 237.652 11.9798ZM239.57 17.6529L239.596 18.8868C239.614 19.4412 239.762 19.7184 240.039 19.7184C240.218 19.7184 240.365 19.6245 240.482 19.4367C240.607 19.2489 240.669 19.0075 240.669 18.7125L240.924 18.6722C240.924 19.1282 240.804 19.4904 240.562 19.7586C240.33 20.0268 240.035 20.1609 239.677 20.1609C239.042 20.1609 238.707 19.6826 238.671 18.7259L238.617 17.4115C238.591 16.8304 238.47 16.428 238.255 16.2045C238.041 15.972 237.688 15.8558 237.196 15.8558L237.263 15.6412L241.085 11.792H240.455L240.495 11.5506H242.225L242.185 11.792H241.836C241.693 11.792 241.564 11.8546 241.447 11.9798L237.813 15.6144C238.456 15.6233 238.904 15.8111 239.154 16.1776C239.413 16.5442 239.552 17.036 239.57 17.6529ZM245.798 14.0452C246.271 14.0452 246.625 14.1614 246.857 14.3939C247.098 14.6174 247.219 14.9438 247.219 15.3729C247.219 15.7932 247.054 16.1598 246.723 16.4727C246.16 17.0092 245.324 17.2774 244.215 17.2774C243.884 17.2774 243.598 17.2506 243.357 17.1969V16.9421C243.67 16.9868 243.929 17.0092 244.134 17.0092C244.877 17.0092 245.449 16.8214 245.851 16.4459C246.262 16.0704 246.468 15.6591 246.468 15.212C246.468 14.9706 246.401 14.7694 246.267 14.6085C246.142 14.4475 245.927 14.3671 245.623 14.3671C245.328 14.3671 245.024 14.5056 244.711 14.7828C244.407 15.06 244.166 15.4042 243.987 15.8155C243.629 16.6828 243.45 17.4339 243.45 18.0687C243.45 19.2489 243.808 19.8391 244.523 19.8391C245.409 19.8391 246.057 19.3562 246.468 18.3906L246.683 18.4442C246.468 18.9896 246.155 19.4144 245.744 19.7184C245.342 20.0134 244.886 20.1609 244.376 20.1609C243.866 20.1609 243.437 19.9732 243.088 19.5976C242.74 19.2221 242.565 18.7169 242.565 18.0821C242.565 17.4473 242.686 16.8348 242.927 16.2447C243.169 15.6456 243.544 15.1315 244.054 14.7024C244.564 14.2642 245.145 14.0452 245.798 14.0452ZM250.31 19.7184C250.882 19.7184 251.45 19.3026 252.013 18.4711C252.586 17.6306 252.872 16.8482 252.872 16.124C252.872 15.3908 252.639 14.7918 252.174 14.3268C252.398 14.1391 252.603 14.0452 252.791 14.0452C253.14 14.0452 253.314 14.5369 253.314 15.5205C253.314 16.504 253.207 17.4071 252.992 18.2296C252.778 19.0433 252.496 19.7362 252.147 20.3085C251.808 20.8807 251.419 21.3769 250.981 21.7972C250.131 22.6376 249.268 23.0579 248.392 23.0579C247.945 23.0579 247.61 22.9551 247.386 22.7494C247.154 22.5438 247.038 22.3024 247.038 22.0252C247.038 21.748 247.096 21.4976 247.212 21.2741C247.319 21.0506 247.485 20.9388 247.708 20.9388C247.932 20.9388 248.115 21.0014 248.258 21.1266C247.999 21.4574 247.869 21.7614 247.869 22.0386C247.869 22.4856 248.106 22.7092 248.58 22.7092C248.893 22.7092 249.255 22.5929 249.666 22.3605C250.078 22.1369 250.493 21.8151 250.914 21.3948C251.334 20.9835 251.718 20.4292 252.067 19.7318C252.425 19.0344 252.675 18.2788 252.818 17.4652C252.523 18.2431 252.125 18.8868 251.624 19.3965C251.133 19.9061 250.565 20.1609 249.921 20.1609C249.59 20.1609 249.322 20.0492 249.116 19.8256C248.92 19.5932 248.821 19.2802 248.821 18.8868C248.821 18.4934 248.969 17.8049 249.264 16.8214C249.568 15.8379 249.72 15.1941 249.72 14.8901C249.72 14.5772 249.604 14.4207 249.371 14.4207C249.201 14.4207 249.023 14.5369 248.835 14.7694C248.647 14.9929 248.495 15.3148 248.379 15.7351L248.151 15.6814C248.482 14.5906 248.96 14.0452 249.586 14.0452C250.167 14.0452 250.458 14.3581 250.458 14.984C250.458 15.2344 250.319 15.8558 250.042 16.8482C249.765 17.8407 249.626 18.4934 249.626 18.8064C249.626 19.4144 249.854 19.7184 250.31 19.7184ZM259.064 19.7586L258.702 17.1701H255.738L254.289 19.7586H255.121L255.08 20H253.149L253.203 19.7586H253.672C253.797 19.7586 253.891 19.696 253.954 19.5708L258.46 11.5506H258.889L259.989 19.5708C260.007 19.696 260.074 19.7586 260.19 19.7586H260.66L260.619 20H258.192L258.232 19.7586H259.064ZM258.125 12.9186L255.939 16.7946H258.648L258.125 12.9186ZM262.856 19.3428C262.856 19.6379 262.968 19.7854 263.191 19.7854C263.361 19.7854 263.545 19.6736 263.741 19.4501C263.938 19.2176 264.108 18.8913 264.251 18.4711L264.465 18.5247C264.081 19.6155 263.58 20.1609 262.963 20.1609C262.409 20.1609 262.132 19.8122 262.132 19.1148C262.132 18.4085 262.717 15.9318 263.889 11.6847L263.03 11.7518L263.017 11.5238C263.634 11.4433 264.211 11.3315 264.747 11.1885L264.935 11.3226C264.559 12.4224 264.117 13.9155 263.607 15.8021C263.106 17.6798 262.856 18.86 262.856 19.3428ZM266.647 19.2221L268.779 19.7049C269.244 19.8122 269.575 19.9553 269.771 20.1341C269.968 20.3219 270.067 20.5767 270.067 20.8986C270.067 21.4172 269.78 21.9045 269.208 22.3605C268.645 22.8254 268.001 23.0579 267.277 23.0579C266.553 23.0579 265.963 22.8925 265.507 22.5616C265.059 22.2308 264.836 21.8374 264.836 21.3814C264.836 21.0685 264.943 20.7689 265.158 20.4828C265.363 20.1967 265.672 19.9553 266.083 19.7586L266.351 19.8391C266.083 19.9732 265.878 20.1744 265.735 20.4426C265.591 20.7198 265.52 21.0104 265.52 21.3144C265.52 21.8151 265.685 22.1861 266.016 22.4275C266.347 22.6779 266.772 22.8031 267.29 22.8031C267.818 22.8031 268.301 22.6511 268.739 22.3471C269.186 22.052 269.409 21.6944 269.409 21.2741C269.409 20.8539 269.137 20.5812 268.591 20.456L266.284 19.9464C266.025 19.8927 265.824 19.772 265.681 19.5842C265.538 19.3965 265.466 19.1685 265.466 18.9002C265.466 18.632 265.578 18.3861 265.802 18.1626C266.025 17.9391 266.334 17.8273 266.727 17.8273H268.082L268.041 18.0151H266.727C266.539 18.0151 266.387 18.0732 266.271 18.1894C266.164 18.3056 266.11 18.4442 266.11 18.6052C266.11 18.936 266.289 19.1416 266.647 19.2221ZM268.9 14.2329L268.886 14.0452C269.137 14.0452 269.347 13.9871 269.517 13.8708C269.687 13.7456 269.771 13.5847 269.771 13.388C269.771 13.1913 269.628 13.0035 269.342 12.8247C269.485 12.5207 269.655 12.3687 269.852 12.3687C270.058 12.3687 270.21 12.4268 270.308 12.5431C270.415 12.6593 270.469 12.8068 270.469 12.9856C270.469 13.2986 270.326 13.5847 270.04 13.844C269.763 14.1033 269.383 14.2329 268.9 14.2329ZM266.445 16.5532C266.445 15.8915 266.678 15.3104 267.143 14.8096C267.617 14.3 268.198 14.0452 268.886 14.0452C269.369 14.0452 269.749 14.1748 270.026 14.4341C270.312 14.6845 270.455 15.0421 270.455 15.5071C270.455 16.2581 270.214 16.8661 269.731 17.3311C269.248 17.7871 268.685 18.0151 268.041 18.0151C267.55 18.0151 267.161 17.8899 266.875 17.6395C266.588 17.3802 266.445 17.0181 266.445 16.5532ZM268.873 14.3C268.381 14.3 267.979 14.5727 267.666 15.1181C267.353 15.6546 267.196 16.1329 267.196 16.5532C267.196 16.9734 267.272 17.2819 267.424 17.4786C267.585 17.6664 267.795 17.7602 268.055 17.7602C268.448 17.7602 268.824 17.5367 269.181 17.0896C269.539 16.6426 269.718 16.0793 269.718 15.3998C269.718 15.06 269.637 14.7918 269.476 14.5951C269.324 14.3984 269.123 14.3 268.873 14.3ZM271.673 18.0553C271.673 17.1344 271.941 16.2536 272.478 15.4132C272.737 15.0108 273.077 14.6845 273.497 14.4341C273.917 14.1748 274.396 14.0452 274.932 14.0452C275.477 14.0452 275.92 14.2285 276.26 14.5951C276.6 14.9616 276.769 15.4624 276.769 16.0972C276.769 16.732 276.653 17.3489 276.421 17.948C276.188 18.5471 275.822 19.0656 275.321 19.5038C274.82 19.9419 274.257 20.1609 273.631 20.1609C273.005 20.1609 272.522 19.9776 272.183 19.6111C271.843 19.2445 271.673 18.7259 271.673 18.0553ZM274.825 14.3402C274.342 14.3402 273.913 14.5816 273.537 15.0645C273.171 15.5473 272.907 16.0748 272.746 16.6471C272.594 17.2193 272.518 17.7558 272.518 18.2565C272.518 18.7482 272.616 19.1416 272.813 19.4367C273.019 19.7228 273.296 19.8659 273.645 19.8659C274.002 19.8659 274.333 19.7228 274.637 19.4367C274.95 19.1506 275.196 18.7974 275.375 18.3772C275.741 17.5188 275.925 16.7767 275.925 16.1508C275.925 15.516 275.826 15.0555 275.629 14.7694C275.433 14.4833 275.165 14.3402 274.825 14.3402Z" fill="#6082FA"/>
<path opacity="0.86" d="M283.493 6.68471C282.563 7.37318 281.839 8.33882 281.32 9.58165C280.802 10.8155 280.542 12.0941 280.542 13.4174C280.542 14.7318 280.846 15.6974 281.454 16.3144L281.267 16.5155C280.703 16.1668 280.274 15.6751 279.979 15.0402C279.693 14.4054 279.55 13.6991 279.55 12.9212C279.55 11.6426 279.899 10.3953 280.596 9.17929C281.302 7.95435 282.237 7.05576 283.399 6.48353L283.493 6.68471ZM286.691 6.73835C287.209 6.50588 287.759 6.38965 288.34 6.38965C289.226 6.38965 289.923 6.65788 290.433 7.19435C290.951 7.72188 291.211 8.46847 291.211 9.43412C291.211 10.0868 291.103 10.7485 290.889 11.4191C290.674 12.0807 290.375 12.6932 289.99 13.2565C289.606 13.8198 289.105 14.2802 288.488 14.6379C287.871 14.9866 287.16 15.1609 286.356 15.1609C285.551 15.1609 284.889 14.8927 284.371 14.3562C283.861 13.8198 283.606 13.0419 283.606 12.0226C283.606 11.0033 283.883 9.97506 284.438 8.93788C285.001 7.90071 285.752 7.16753 286.691 6.73835ZM289.722 7.42235C289.364 6.96635 288.89 6.73835 288.3 6.73835C287.71 6.73835 287.165 6.93059 286.664 7.31506C286.163 7.69059 285.765 8.16894 285.47 8.75012C284.853 9.94824 284.545 11.1106 284.545 12.2372C284.545 13.0508 284.719 13.6856 285.068 14.1416C285.426 14.5887 285.9 14.8122 286.49 14.8122C287.089 14.8122 287.639 14.6245 288.139 14.2489C288.64 13.8645 289.042 13.3861 289.346 12.8139C289.963 11.6247 290.272 10.4624 290.272 9.32682C290.272 8.51318 290.088 7.87835 289.722 7.42235ZM294.389 9.16588L294.576 9.3C294.147 10.2835 293.772 11.4146 293.45 12.6932H293.557L293.772 12.1031C294.192 10.9586 294.608 10.1628 295.019 9.71576C295.43 9.26871 295.788 9.04518 296.092 9.04518C296.396 9.04518 296.619 9.14353 296.762 9.34024C296.914 9.53694 296.99 9.79176 296.99 10.1047C296.99 10.4176 296.932 10.6904 296.816 10.9228C296.7 11.1553 296.53 11.2715 296.306 11.2715C296.092 11.2715 295.913 11.2 295.77 11.0569C295.859 10.9407 295.944 10.7708 296.025 10.5473C296.105 10.3238 296.145 10.1271 296.145 9.95718C296.145 9.69788 296.038 9.56824 295.824 9.56824C295.6 9.56824 295.323 9.78729 294.992 10.2254C294.268 11.1732 293.655 12.7647 293.155 15L292.216 15.0805L293.53 9.66212L292.672 9.72918L292.658 9.50118C293.275 9.42071 293.852 9.30894 294.389 9.16588ZM301.525 14.3428C301.525 14.6379 301.637 14.7854 301.86 14.7854C302.03 14.7854 302.213 14.6736 302.41 14.4501C302.607 14.2176 302.777 13.8913 302.92 13.4711L303.134 13.5247C302.75 14.6155 302.249 15.1609 301.632 15.1609C301.078 15.1609 300.801 14.8122 300.801 14.1148C300.801 13.4085 301.386 10.9318 302.558 6.68471L301.699 6.75176L301.686 6.52376C302.303 6.44329 302.879 6.33153 303.416 6.18847L303.604 6.32259C303.228 7.42235 302.786 8.91553 302.276 10.8021C301.775 12.6798 301.525 13.86 301.525 14.3428ZM300.935 13.5113H300.801C300.246 14.6111 299.602 15.1609 298.869 15.1609C298.449 15.1609 298.096 14.9776 297.81 14.6111C297.533 14.2355 297.394 13.7795 297.394 13.2431C297.394 12.6976 297.466 12.1925 297.609 11.7275C297.752 11.2626 297.953 10.8289 298.212 10.4266C298.471 10.0153 298.816 9.68447 299.245 9.43412C299.674 9.17482 300.112 9.04518 300.559 9.04518C301.418 9.04518 302.026 9.42071 302.383 10.1718L302.195 10.4132C301.775 9.71576 301.252 9.36706 300.626 9.36706C300.242 9.36706 299.889 9.50565 299.567 9.78282C299.254 10.06 299.008 10.4087 298.829 10.8289C298.462 11.6873 298.279 12.4965 298.279 13.2565C298.279 13.7572 298.36 14.1327 298.521 14.3831C298.69 14.6334 298.914 14.7586 299.191 14.7586C299.576 14.7586 299.969 14.4367 300.371 13.7929C300.774 13.1402 301.131 12.2104 301.444 11.0033L300.935 13.5113ZM307.6 9.04518C308.074 9.04518 308.427 9.16141 308.66 9.39388C308.901 9.61741 309.022 9.94376 309.022 10.3729C309.022 10.7932 308.857 11.1598 308.526 11.4727C307.962 12.0092 307.126 12.2774 306.018 12.2774C305.687 12.2774 305.401 12.2506 305.159 12.1969V11.9421C305.472 11.9868 305.732 12.0092 305.937 12.0092C306.679 12.0092 307.252 11.8214 307.654 11.4459C308.065 11.0704 308.271 10.6591 308.271 10.212C308.271 9.97059 308.204 9.76941 308.07 9.60847C307.945 9.44753 307.73 9.36706 307.426 9.36706C307.131 9.36706 306.827 9.50565 306.514 9.78282C306.21 10.06 305.969 10.4042 305.79 10.8155C305.432 11.6828 305.253 12.4339 305.253 13.0687C305.253 14.2489 305.611 14.8391 306.326 14.8391C307.211 14.8391 307.86 14.3562 308.271 13.3906L308.486 13.4442C308.271 13.9896 307.958 14.4144 307.547 14.7184C307.144 15.0134 306.688 15.1609 306.179 15.1609C305.669 15.1609 305.24 14.9732 304.891 14.5976C304.542 14.2221 304.368 13.7169 304.368 13.0821C304.368 12.4473 304.489 11.8348 304.73 11.2447C304.972 10.6456 305.347 10.1315 305.857 9.70235C306.366 9.26424 306.948 9.04518 307.6 9.04518ZM312.207 9.16588L312.395 9.3C311.965 10.2835 311.59 11.4146 311.268 12.6932H311.375L311.59 12.1031C312.01 10.9586 312.426 10.1628 312.837 9.71576C313.248 9.26871 313.606 9.04518 313.91 9.04518C314.214 9.04518 314.438 9.14353 314.581 9.34024C314.733 9.53694 314.809 9.79176 314.809 10.1047C314.809 10.4176 314.751 10.6904 314.634 10.9228C314.518 11.1553 314.348 11.2715 314.125 11.2715C313.91 11.2715 313.731 11.2 313.588 11.0569C313.678 10.9407 313.763 10.7708 313.843 10.5473C313.924 10.3238 313.964 10.1271 313.964 9.95718C313.964 9.69788 313.856 9.56824 313.642 9.56824C313.418 9.56824 313.141 9.78729 312.81 10.2254C312.086 11.1732 311.474 12.7647 310.973 15L310.034 15.0805L311.348 9.66212L310.49 9.72918L310.477 9.50118C311.094 9.42071 311.67 9.30894 312.207 9.16588ZM315.454 14.9598C315.32 14.8167 315.253 14.6468 315.253 14.4501C315.253 14.2534 315.32 14.088 315.454 13.9539C315.597 13.8108 315.767 13.7393 315.963 13.7393C316.16 13.7393 316.325 13.8108 316.46 13.9539C316.603 14.088 316.674 14.2534 316.674 14.4501C316.674 14.6468 316.603 14.8167 316.46 14.9598C316.325 15.0939 316.16 15.1609 315.963 15.1609C315.767 15.1609 315.597 15.0939 315.454 14.9598ZM321.293 9.04518C321.767 9.04518 322.12 9.16141 322.352 9.39388C322.594 9.61741 322.715 9.94376 322.715 10.3729C322.715 10.7932 322.549 11.1598 322.218 11.4727C321.655 12.0092 320.819 12.2774 319.71 12.2774C319.38 12.2774 319.093 12.2506 318.852 12.1969V11.9421C319.165 11.9868 319.424 12.0092 319.63 12.0092C320.372 12.0092 320.944 11.8214 321.347 11.4459C321.758 11.0704 321.964 10.6591 321.964 10.212C321.964 9.97059 321.896 9.76941 321.762 9.60847C321.637 9.44753 321.423 9.36706 321.119 9.36706C320.824 9.36706 320.52 9.50565 320.207 9.78282C319.903 10.06 319.661 10.4042 319.482 10.8155C319.125 11.6828 318.946 12.4339 318.946 13.0687C318.946 14.2489 319.304 14.8391 320.019 14.8391C320.904 14.8391 321.552 14.3562 321.964 13.3906L322.178 13.4442C321.964 13.9896 321.651 14.4144 321.239 14.7184C320.837 15.0134 320.381 15.1609 319.871 15.1609C319.362 15.1609 318.932 14.9732 318.584 14.5976C318.235 14.2221 318.061 13.7169 318.061 13.0821C318.061 12.4473 318.181 11.8348 318.423 11.2447C318.664 10.6456 319.04 10.1315 319.549 9.70235C320.059 9.26424 320.64 9.04518 321.293 9.04518ZM329.132 10.2656C329.132 10.6501 328.913 11.3565 328.474 12.3847C328.045 13.4129 327.831 14.0701 327.831 14.3562C327.831 14.6424 327.942 14.7854 328.166 14.7854C328.336 14.7854 328.519 14.6736 328.716 14.4501C328.913 14.2176 329.082 13.8913 329.225 13.4711L329.44 13.5247C329.056 14.6155 328.555 15.1609 327.938 15.1609C327.384 15.1609 327.106 14.8569 327.106 14.2489C327.106 13.9896 327.308 13.3459 327.71 12.3176C328.121 11.2894 328.327 10.6278 328.327 10.3327C328.327 9.76941 328.121 9.48776 327.71 9.48776C327.263 9.48776 326.78 9.84988 326.261 10.5741C325.662 11.4414 325.13 12.9167 324.665 15L323.727 15.0805L325.041 9.66212L324.183 9.72918L324.169 9.50118C324.786 9.42071 325.363 9.30894 325.899 9.16588L326.087 9.3C325.658 10.2835 325.282 11.4146 324.961 12.6932H325.068L325.282 12.1031C325.765 10.7529 326.288 9.87671 326.852 9.47435C327.12 9.29553 327.339 9.17929 327.509 9.12565C327.688 9.072 327.907 9.04518 328.166 9.04518C328.434 9.04518 328.662 9.15247 328.85 9.36706C329.038 9.58165 329.132 9.88118 329.132 10.2656ZM333.838 9.36706C333.472 9.36706 333.132 9.50565 332.819 9.78282C332.515 10.06 332.273 10.4042 332.095 10.8155C331.737 11.6828 331.558 12.4339 331.558 13.0687C331.558 14.2489 331.916 14.8391 332.631 14.8391C333.516 14.8391 334.165 14.3562 334.576 13.3906L334.79 13.4442C334.576 13.9896 334.263 14.4144 333.852 14.7184C333.449 15.0134 332.993 15.1609 332.484 15.1609C331.974 15.1609 331.545 14.9732 331.196 14.5976C330.847 14.2221 330.673 13.7169 330.673 13.0821C330.673 12.4473 330.794 11.8348 331.035 11.2447C331.277 10.6456 331.652 10.1315 332.162 9.70235C332.671 9.26424 333.253 9.04518 333.905 9.04518C334.352 9.04518 334.688 9.16141 334.911 9.39388C335.144 9.61741 335.26 9.89012 335.26 10.212C335.26 10.5249 335.202 10.8066 335.085 11.0569C334.978 11.3073 334.804 11.4325 334.562 11.4325C334.33 11.4325 334.156 11.3609 334.039 11.2179C334.299 10.8245 334.428 10.44 334.428 10.0645C334.428 9.59953 334.232 9.36706 333.838 9.36706ZM338.512 9.16588L338.699 9.3C338.27 10.2835 337.895 11.4146 337.573 12.6932H337.68L337.895 12.1031C338.315 10.9586 338.731 10.1628 339.142 9.71576C339.553 9.26871 339.911 9.04518 340.215 9.04518C340.519 9.04518 340.742 9.14353 340.886 9.34024C341.038 9.53694 341.114 9.79176 341.114 10.1047C341.114 10.4176 341.055 10.6904 340.939 10.9228C340.823 11.1553 340.653 11.2715 340.43 11.2715C340.215 11.2715 340.036 11.2 339.893 11.0569C339.982 10.9407 340.067 10.7708 340.148 10.5473C340.228 10.3238 340.269 10.1271 340.269 9.95718C340.269 9.69788 340.161 9.56824 339.947 9.56824C339.723 9.56824 339.446 9.78729 339.115 10.2254C338.391 11.1732 337.778 12.7647 337.278 15L336.339 15.0805L337.653 9.66212L336.795 9.72918L336.782 9.50118C337.398 9.42071 337.975 9.30894 338.512 9.16588ZM343.663 14.7184C344.235 14.7184 344.803 14.3026 345.366 13.4711C345.939 12.6306 346.225 11.8482 346.225 11.124C346.225 10.3908 345.992 9.79176 345.527 9.32682C345.751 9.13906 345.956 9.04518 346.144 9.04518C346.493 9.04518 346.667 9.53694 346.667 10.5205C346.667 11.504 346.56 12.4071 346.345 13.2296C346.131 14.0433 345.849 14.7362 345.5 15.3085C345.161 15.8807 344.772 16.3769 344.334 16.7972C343.484 17.6376 342.621 18.0579 341.745 18.0579C341.298 18.0579 340.963 17.9551 340.739 17.7494C340.507 17.5438 340.391 17.3024 340.391 17.0252C340.391 16.748 340.449 16.4976 340.565 16.2741C340.672 16.0506 340.838 15.9388 341.061 15.9388C341.285 15.9388 341.468 16.0014 341.611 16.1266C341.352 16.4574 341.222 16.7614 341.222 17.0386C341.222 17.4856 341.459 17.7092 341.933 17.7092C342.246 17.7092 342.608 17.5929 343.019 17.3605C343.431 17.1369 343.846 16.8151 344.267 16.3948C344.687 15.9835 345.071 15.4292 345.42 14.7318C345.778 14.0344 346.028 13.2788 346.171 12.4652C345.876 13.2431 345.478 13.8868 344.977 14.3965C344.486 14.9061 343.918 15.1609 343.274 15.1609C342.943 15.1609 342.675 15.0492 342.469 14.8256C342.273 14.5932 342.174 14.2802 342.174 13.8868C342.174 13.4934 342.322 12.8049 342.617 11.8214C342.921 10.8379 343.073 10.1941 343.073 9.89012C343.073 9.57718 342.957 9.42071 342.724 9.42071C342.554 9.42071 342.376 9.53694 342.188 9.76941C342 9.99294 341.848 10.3148 341.732 10.7351L341.504 10.6814C341.835 9.59059 342.313 9.04518 342.939 9.04518C343.52 9.04518 343.811 9.35812 343.811 9.984C343.811 10.2344 343.672 10.8558 343.395 11.8482C343.118 12.8407 342.979 13.4934 342.979 13.8064C342.979 14.4144 343.207 14.7184 343.663 14.7184ZM350.365 9.16588L350.552 9.3C350.123 10.2835 349.748 11.4146 349.426 12.6932H349.533L349.748 12.1031C350.49 10.0645 351.339 9.04518 352.296 9.04518C352.68 9.04518 353.007 9.23294 353.275 9.60847C353.552 9.984 353.691 10.44 353.691 10.9765C353.691 11.5129 353.619 12.0136 353.476 12.4786C353.342 12.9346 353.145 13.3638 352.886 13.7661C352.627 14.1595 352.287 14.4814 351.867 14.7318C351.447 14.9821 350.982 15.1073 350.472 15.1073C349.694 15.1073 349.086 14.7631 348.648 14.0746L348.742 13.8466C349.171 14.4993 349.734 14.8256 350.432 14.8256C350.834 14.8256 351.192 14.6915 351.505 14.4233C351.827 14.1551 352.072 13.8198 352.242 13.4174C352.582 12.5948 352.752 11.7901 352.752 11.0033C352.752 10.5473 352.685 10.1941 352.551 9.94376C352.426 9.68447 352.26 9.55482 352.055 9.55482C351.634 9.55482 351.16 9.96165 350.633 10.7753C350.114 11.5889 349.645 12.8586 349.225 14.5842L348.42 17.8969L347.481 17.9774L349.506 9.66212L348.648 9.72918L348.635 9.50118C349.251 9.42071 349.828 9.30894 350.365 9.16588ZM355.12 9.68894L355.187 9.43412H358.165L358.098 9.68894H355.12ZM357.253 7.78447L357.44 7.91859C357.235 8.54447 356.958 9.528 356.609 10.8692C356.269 12.2104 356.064 13.0776 355.992 13.4711C355.92 13.8555 355.885 14.1461 355.885 14.3428C355.885 14.6379 355.996 14.7854 356.22 14.7854C356.39 14.7854 356.573 14.6736 356.77 14.4501C356.967 14.2176 357.136 13.8913 357.28 13.4711L357.494 13.5247C357.11 14.6155 356.609 15.1609 355.992 15.1609C355.438 15.1609 355.16 14.8256 355.16 14.1551C355.16 13.6007 355.491 12.0539 356.153 9.51459L355.187 9.43412C355.679 9.43412 356.077 9.31788 356.381 9.08541C356.685 8.844 356.976 8.41035 357.253 7.78447ZM361.965 9.04518C362.439 9.04518 362.792 9.16141 363.025 9.39388C363.266 9.61741 363.387 9.94376 363.387 10.3729C363.387 10.7932 363.221 11.1598 362.891 11.4727C362.327 12.0092 361.491 12.2774 360.383 12.2774C360.052 12.2774 359.766 12.2506 359.524 12.1969V11.9421C359.837 11.9868 360.096 12.0092 360.302 12.0092C361.044 12.0092 361.616 11.8214 362.019 11.4459C362.43 11.0704 362.636 10.6591 362.636 10.212C362.636 9.97059 362.569 9.76941 362.435 9.60847C362.309 9.44753 362.095 9.36706 361.791 9.36706C361.496 9.36706 361.192 9.50565 360.879 9.78282C360.575 10.06 360.333 10.4042 360.155 10.8155C359.797 11.6828 359.618 12.4339 359.618 13.0687C359.618 14.2489 359.976 14.8391 360.691 14.8391C361.576 14.8391 362.224 14.3562 362.636 13.3906L362.85 13.4442C362.636 13.9896 362.323 14.4144 361.912 14.7184C361.509 15.0134 361.053 15.1609 360.544 15.1609C360.034 15.1609 359.605 14.9732 359.256 14.5976C358.907 14.2221 358.733 13.7169 358.733 13.0821C358.733 12.4473 358.854 11.8348 359.095 11.2447C359.336 10.6456 359.712 10.1315 360.222 9.70235C360.731 9.26424 361.312 9.04518 361.965 9.04518ZM368.463 14.3428C368.463 14.6379 368.574 14.7854 368.798 14.7854C368.968 14.7854 369.151 14.6736 369.348 14.4501C369.545 14.2176 369.714 13.8913 369.857 13.4711L370.072 13.5247C369.688 14.6155 369.187 15.1609 368.57 15.1609C368.016 15.1609 367.738 14.8122 367.738 14.1148C367.738 13.4085 368.324 10.9318 369.495 6.68471L368.637 6.75176L368.624 6.52376C369.241 6.44329 369.817 6.33153 370.354 6.18847L370.541 6.32259C370.166 7.42235 369.723 8.91553 369.214 10.8021C368.713 12.6798 368.463 13.86 368.463 14.3428ZM367.873 13.5113H367.738C367.184 14.6111 366.54 15.1609 365.807 15.1609C365.387 15.1609 365.034 14.9776 364.748 14.6111C364.47 14.2355 364.332 13.7795 364.332 13.2431C364.332 12.6976 364.403 12.1925 364.546 11.7275C364.689 11.2626 364.891 10.8289 365.15 10.4266C365.409 10.0153 365.753 9.68447 366.183 9.43412C366.612 9.17482 367.05 9.04518 367.497 9.04518C368.355 9.04518 368.963 9.42071 369.321 10.1718L369.133 10.4132C368.713 9.71576 368.19 9.36706 367.564 9.36706C367.18 9.36706 366.826 9.50565 366.505 9.78282C366.192 10.06 365.946 10.4087 365.767 10.8289C365.4 11.6873 365.217 12.4965 365.217 13.2565C365.217 13.7572 365.297 14.1327 365.458 14.3831C365.628 14.6334 365.852 14.7586 366.129 14.7586C366.513 14.7586 366.907 14.4367 367.309 13.7929C367.712 13.1402 368.069 12.2104 368.382 11.0033L367.873 13.5113ZM375.611 14.7586L375.249 12.1701H372.285L370.837 14.7586H371.668L371.628 15H369.697L369.75 14.7586H370.22C370.345 14.7586 370.439 14.696 370.501 14.5708L375.008 6.55059H375.437L376.537 14.5708C376.554 14.696 376.621 14.7586 376.738 14.7586H377.207L377.167 15H374.739L374.78 14.7586H375.611ZM374.672 7.91859L372.486 11.7946H375.195L374.672 7.91859ZM380.651 9.16588L380.839 9.3C380.409 10.2835 380.034 11.4146 379.712 12.6932H379.819L380.034 12.1031C380.454 10.9586 380.87 10.1628 381.281 9.71576C381.692 9.26871 382.05 9.04518 382.354 9.04518C382.658 9.04518 382.882 9.14353 383.025 9.34024C383.177 9.53694 383.253 9.79176 383.253 10.1047C383.253 10.4176 383.195 10.6904 383.078 10.9228C382.962 11.1553 382.792 11.2715 382.569 11.2715C382.354 11.2715 382.175 11.2 382.032 11.0569C382.122 10.9407 382.207 10.7708 382.287 10.5473C382.368 10.3238 382.408 10.1271 382.408 9.95718C382.408 9.69788 382.3 9.56824 382.086 9.56824C381.862 9.56824 381.585 9.78729 381.254 10.2254C380.53 11.1732 379.918 12.7647 379.417 15L378.478 15.0805L379.792 9.66212L378.934 9.72918L378.921 9.50118C379.538 9.42071 380.114 9.30894 380.651 9.16588ZM384.609 14.2221L386.741 14.7049C387.206 14.8122 387.537 14.9553 387.733 15.1341C387.93 15.3219 388.029 15.5767 388.029 15.8986C388.029 16.4172 387.742 16.9045 387.17 17.3605C386.607 17.8254 385.963 18.0579 385.239 18.0579C384.515 18.0579 383.925 17.8925 383.469 17.5616C383.021 17.2308 382.798 16.8374 382.798 16.3814C382.798 16.0685 382.905 15.7689 383.12 15.4828C383.325 15.1967 383.634 14.9553 384.045 14.7586L384.313 14.8391C384.045 14.9732 383.84 15.1744 383.697 15.4426C383.553 15.7198 383.482 16.0104 383.482 16.3144C383.482 16.8151 383.647 17.1861 383.978 17.4275C384.309 17.6779 384.734 17.8031 385.252 17.8031C385.78 17.8031 386.263 17.6511 386.701 17.3471C387.148 17.052 387.371 16.6944 387.371 16.2741C387.371 15.8539 387.099 15.5812 386.553 15.456L384.246 14.9464C383.987 14.8927 383.786 14.772 383.643 14.5842C383.5 14.3965 383.428 14.1685 383.428 13.9002C383.428 13.632 383.54 13.3861 383.764 13.1626C383.987 12.9391 384.296 12.8273 384.689 12.8273H386.044L386.003 13.0151H384.689C384.501 13.0151 384.349 13.0732 384.233 13.1894C384.126 13.3056 384.072 13.4442 384.072 13.6052C384.072 13.936 384.251 14.1416 384.609 14.2221ZM386.862 9.23294L386.848 9.04518C387.099 9.04518 387.309 8.98706 387.479 8.87082C387.649 8.74565 387.733 8.58471 387.733 8.388C387.733 8.19129 387.59 8.00353 387.304 7.82471C387.447 7.52071 387.617 7.36871 387.814 7.36871C388.02 7.36871 388.172 7.42682 388.27 7.54306C388.377 7.65929 388.431 7.80682 388.431 7.98565C388.431 8.29859 388.288 8.58471 388.002 8.844C387.725 9.10329 387.345 9.23294 386.862 9.23294ZM384.407 11.5532C384.407 10.8915 384.64 10.3104 385.105 9.80965C385.579 9.3 386.16 9.04518 386.848 9.04518C387.331 9.04518 387.711 9.17482 387.988 9.43412C388.274 9.68447 388.417 10.0421 388.417 10.5071C388.417 11.2581 388.176 11.8661 387.693 12.3311C387.21 12.7871 386.647 13.0151 386.003 13.0151C385.512 13.0151 385.123 12.8899 384.837 12.6395C384.55 12.3802 384.407 12.0181 384.407 11.5532ZM386.835 9.3C386.343 9.3 385.941 9.57271 385.628 10.1181C385.315 10.6546 385.158 11.1329 385.158 11.5532C385.158 11.9734 385.234 12.2819 385.386 12.4786C385.547 12.6664 385.757 12.7602 386.017 12.7602C386.41 12.7602 386.786 12.5367 387.143 12.0896C387.501 11.6426 387.68 11.0793 387.68 10.3998C387.68 10.06 387.599 9.79176 387.438 9.59506C387.286 9.39835 387.085 9.3 386.835 9.3ZM392.197 9.36706C391.857 9.36706 391.566 9.46541 391.325 9.66212C391.083 9.85882 390.963 10.1092 390.963 10.4132C390.963 10.7172 391.088 10.9944 391.338 11.2447C391.589 11.4951 391.861 11.7052 392.156 11.8751C392.451 12.036 392.724 12.2506 392.975 12.5188C393.225 12.7871 393.35 13.0732 393.35 13.3772C393.35 13.9494 393.127 14.392 392.679 14.7049C392.241 15.0089 391.709 15.1609 391.083 15.1609C390.458 15.1609 389.908 15.0134 389.434 14.7184C389.586 14.4144 389.729 13.8868 389.863 13.1358L390.091 13.176C390.028 13.5426 389.997 13.8332 389.997 14.0478C389.997 14.2534 390.095 14.4456 390.292 14.6245C390.498 14.7944 390.788 14.8793 391.164 14.8793C391.548 14.8793 391.87 14.7631 392.13 14.5306C392.398 14.2981 392.532 13.9941 392.532 13.6186C392.532 13.3772 392.411 13.1447 392.17 12.9212C391.937 12.6887 391.678 12.4965 391.392 12.3445C391.115 12.1925 390.855 11.9779 390.614 11.7007C390.382 11.4235 390.265 11.1195 390.265 10.7887C390.265 10.2969 390.458 9.88565 390.842 9.55482C391.235 9.21506 391.75 9.04518 392.384 9.04518C392.876 9.04518 393.363 9.16588 393.846 9.40729C393.802 9.50565 393.726 9.72918 393.618 10.0779C393.52 10.4266 393.444 10.7574 393.39 11.0704L393.162 11.0301C393.216 10.744 393.243 10.4713 393.243 10.212C393.243 9.94376 393.153 9.73812 392.975 9.59506C392.805 9.44306 392.545 9.36706 392.197 9.36706ZM394.516 16.4887C395.097 16.0416 395.387 15.5722 395.387 15.0805C395.387 14.8122 395.294 14.5932 395.106 14.4233C395.15 14.2176 395.253 14.0388 395.414 13.8868C395.584 13.7348 395.763 13.6588 395.951 13.6588C396.317 13.6588 396.501 13.8421 396.501 14.2087C396.501 14.5753 396.317 15.0089 395.951 15.5096C395.593 16.0193 395.15 16.4082 394.623 16.6765L394.516 16.4887ZM400.908 6.73835C401.427 6.50588 401.977 6.38965 402.558 6.38965C403.443 6.38965 404.14 6.65788 404.65 7.19435C405.169 7.72188 405.428 8.46847 405.428 9.43412C405.428 10.0868 405.321 10.7485 405.106 11.4191C404.892 12.0807 404.592 12.6932 404.208 13.2565C403.823 13.8198 403.322 14.2802 402.705 14.6379C402.088 14.9866 401.378 15.1609 400.573 15.1609C399.768 15.1609 399.107 14.8927 398.588 14.3562C398.078 13.8198 397.824 13.0419 397.824 12.0226C397.824 11.0033 398.101 9.97506 398.655 8.93788C399.218 7.90071 399.969 7.16753 400.908 6.73835ZM403.939 7.42235C403.582 6.96635 403.108 6.73835 402.518 6.73835C401.928 6.73835 401.382 6.93059 400.881 7.31506C400.381 7.69059 399.983 8.16894 399.688 8.75012C399.071 9.94824 398.762 11.1106 398.762 12.2372C398.762 13.0508 398.937 13.6856 399.285 14.1416C399.643 14.5887 400.117 14.8122 400.707 14.8122C401.306 14.8122 401.856 14.6245 402.357 14.2489C402.857 13.8645 403.26 13.3861 403.564 12.8139C404.181 11.6247 404.489 10.4624 404.489 9.32682C404.489 8.51318 404.306 7.87835 403.939 7.42235ZM406.527 9.68894L406.594 9.43412H409.974L409.907 9.68894H406.527ZM408.807 8.68306L407.546 14.5708C407.287 15.7511 406.97 16.6273 406.594 17.1995C406.219 17.7718 405.763 18.0579 405.226 18.0579C404.886 18.0579 404.623 17.9551 404.435 17.7494C404.247 17.5438 404.153 17.3113 404.153 17.052C404.153 16.8016 404.207 16.5736 404.314 16.368C404.413 16.1713 404.573 16.0729 404.797 16.0729C405.021 16.0729 405.181 16.1311 405.28 16.2473C405.164 16.3367 405.07 16.4708 404.998 16.6496C404.918 16.8285 404.877 17.0028 404.877 17.1727C404.877 17.5572 405.038 17.7494 405.36 17.7494C405.718 17.7494 405.991 17.4722 406.178 16.9179C406.366 16.3635 406.625 15.2504 406.956 13.5784L407.734 9.60847C407.922 8.66071 408.253 7.84706 408.727 7.16753C409.201 6.488 409.75 6.14824 410.376 6.14824C410.823 6.14824 411.159 6.25106 411.382 6.45671C411.615 6.66235 411.731 6.90376 411.731 7.18094C411.731 7.45812 411.673 7.70847 411.557 7.932C411.449 8.15553 411.275 8.26729 411.033 8.26729C410.792 8.26729 410.618 8.20471 410.51 8.07953C410.77 7.74871 410.899 7.41341 410.899 7.07365C410.899 6.66235 410.703 6.45671 410.309 6.45671C409.925 6.45671 409.616 6.65341 409.384 7.04682C409.151 7.43129 408.959 7.97671 408.807 8.68306ZM410.685 9.68894L410.752 9.43412H414.132L414.065 9.68894H410.685ZM412.965 8.68306L411.705 14.5708C411.445 15.7511 411.128 16.6273 410.752 17.1995C410.377 17.7718 409.921 18.0579 409.384 18.0579C409.045 18.0579 408.781 17.9551 408.593 17.7494C408.405 17.5438 408.311 17.3113 408.311 17.052C408.311 16.8016 408.365 16.5736 408.472 16.368C408.571 16.1713 408.732 16.0729 408.955 16.0729C409.179 16.0729 409.34 16.1311 409.438 16.2473C409.322 16.3367 409.228 16.4708 409.156 16.6496C409.076 16.8285 409.036 17.0028 409.036 17.1727C409.036 17.5572 409.197 17.7494 409.518 17.7494C409.876 17.7494 410.149 17.4722 410.337 16.9179C410.524 16.3635 410.784 15.2504 411.114 13.5784L411.892 9.60847C412.08 8.66071 412.411 7.84706 412.885 7.16753C413.359 6.488 413.909 6.14824 414.534 6.14824C414.982 6.14824 415.317 6.25106 415.54 6.45671C415.773 6.66235 415.889 6.90376 415.889 7.18094C415.889 7.45812 415.831 7.70847 415.715 7.932C415.607 8.15553 415.433 8.26729 415.192 8.26729C414.95 8.26729 414.776 8.20471 414.669 8.07953C414.928 7.74871 415.058 7.41341 415.058 7.07365C415.058 6.66235 414.861 6.45671 414.467 6.45671C414.083 6.45671 413.774 6.65341 413.542 7.04682C413.31 7.43129 413.117 7.97671 412.965 8.68306ZM417.915 9.04518C418.389 9.04518 418.742 9.16141 418.974 9.39388C419.216 9.61741 419.336 9.94376 419.336 10.3729C419.336 10.7932 419.171 11.1598 418.84 11.4727C418.277 12.0092 417.441 12.2774 416.332 12.2774C416.001 12.2774 415.715 12.2506 415.474 12.1969V11.9421C415.787 11.9868 416.046 12.0092 416.252 12.0092C416.994 12.0092 417.566 11.8214 417.968 11.4459C418.38 11.0704 418.585 10.6591 418.585 10.212C418.585 9.97059 418.518 9.76941 418.384 9.60847C418.259 9.44753 418.044 9.36706 417.74 9.36706C417.445 9.36706 417.141 9.50565 416.828 9.78282C416.524 10.06 416.283 10.4042 416.104 10.8155C415.747 11.6828 415.568 12.4339 415.568 13.0687C415.568 14.2489 415.925 14.8391 416.641 14.8391C417.526 14.8391 418.174 14.3562 418.585 13.3906L418.8 13.4442C418.585 13.9896 418.272 14.4144 417.861 14.7184C417.459 15.0134 417.003 15.1609 416.493 15.1609C415.983 15.1609 415.554 14.9732 415.206 14.5976C414.857 14.2221 414.683 13.7169 414.683 13.0821C414.683 12.4473 414.803 11.8348 415.045 11.2447C415.286 10.6456 415.662 10.1315 416.171 9.70235C416.681 9.26424 417.262 9.04518 417.915 9.04518ZM422.521 9.16588L422.709 9.3C422.28 10.2835 421.904 11.4146 421.582 12.6932H421.69L421.904 12.1031C422.324 10.9586 422.74 10.1628 423.152 9.71576C423.563 9.26871 423.92 9.04518 424.224 9.04518C424.528 9.04518 424.752 9.14353 424.895 9.34024C425.047 9.53694 425.123 9.79176 425.123 10.1047C425.123 10.4176 425.065 10.6904 424.949 10.9228C424.832 11.1553 424.663 11.2715 424.439 11.2715C424.224 11.2715 424.046 11.2 423.903 11.0569C423.992 10.9407 424.077 10.7708 424.157 10.5473C424.238 10.3238 424.278 10.1271 424.278 9.95718C424.278 9.69788 424.171 9.56824 423.956 9.56824C423.733 9.56824 423.456 9.78729 423.125 10.2254C422.4 11.1732 421.788 12.7647 421.287 15L420.348 15.0805L421.663 9.66212L420.804 9.72918L420.791 9.50118C421.408 9.42071 421.985 9.30894 422.521 9.16588ZM425.768 14.9598C425.634 14.8167 425.567 14.6468 425.567 14.4501C425.567 14.2534 425.634 14.088 425.768 13.9539C425.911 13.8108 426.081 13.7393 426.278 13.7393C426.474 13.7393 426.64 13.8108 426.774 13.9539C426.917 14.088 426.989 14.2534 426.989 14.4501C426.989 14.6468 426.917 14.8167 426.774 14.9598C426.64 15.0939 426.474 15.1609 426.278 15.1609C426.081 15.1609 425.911 15.0939 425.768 14.9598ZM433.807 9.3C433.494 10.2299 433.199 11.2268 432.922 12.2908C432.645 13.3548 432.506 14.0388 432.506 14.3428C432.506 14.6379 432.618 14.7854 432.841 14.7854C433.011 14.7854 433.194 14.6736 433.391 14.4501C433.588 14.2176 433.758 13.8913 433.901 13.4711L434.115 13.5247C433.731 14.6155 433.23 15.1609 432.613 15.1609C432.059 15.1609 431.782 14.8256 431.782 14.1551C431.782 14.0209 431.804 13.8064 431.849 13.5113H431.782C431.227 14.6111 430.584 15.1609 429.85 15.1609C429.43 15.1609 429.077 14.9776 428.791 14.6111C428.514 14.2355 428.375 13.7795 428.375 13.2431C428.375 12.6976 428.447 12.1925 428.59 11.7275C428.733 11.2626 428.934 10.8289 429.193 10.4266C429.453 10.0153 429.797 9.68447 430.226 9.43412C430.655 9.17482 431.125 9.04518 431.634 9.04518C432.296 9.04518 432.819 9.32682 433.203 9.89012L433.619 9.16588L433.807 9.3ZM430.172 14.7586C430.548 14.7586 430.928 14.468 431.312 13.8868C431.75 13.2162 432.157 12.1209 432.533 10.6009C432.613 10.2433 432.676 9.984 432.721 9.82306C432.408 9.51906 432.045 9.36706 431.634 9.36706C431.232 9.36706 430.87 9.50565 430.548 9.78282C430.235 10.06 429.989 10.4087 429.81 10.8289C429.444 11.6873 429.26 12.4965 429.26 13.2565C429.26 13.7572 429.341 14.1327 429.502 14.3831C429.672 14.6334 429.895 14.7586 430.172 14.7586ZM437.589 9.16588L437.777 9.3C437.348 10.2835 436.972 11.4146 436.65 12.6932H436.757L436.972 12.1031C437.392 10.9586 437.808 10.1628 438.219 9.71576C438.631 9.26871 438.988 9.04518 439.292 9.04518C439.596 9.04518 439.82 9.14353 439.963 9.34024C440.115 9.53694 440.191 9.79176 440.191 10.1047C440.191 10.4176 440.133 10.6904 440.017 10.9228C439.9 11.1553 439.73 11.2715 439.507 11.2715C439.292 11.2715 439.113 11.2 438.97 11.0569C439.06 10.9407 439.145 10.7708 439.225 10.5473C439.306 10.3238 439.346 10.1271 439.346 9.95718C439.346 9.69788 439.239 9.56824 439.024 9.56824C438.801 9.56824 438.523 9.78729 438.193 10.2254C437.468 11.1732 436.856 12.7647 436.355 15L435.416 15.0805L436.731 9.66212L435.872 9.72918L435.859 9.50118C436.476 9.42071 437.053 9.30894 437.589 9.16588ZM441.547 14.2221L443.679 14.7049C444.144 14.8122 444.475 14.9553 444.672 15.1341C444.868 15.3219 444.967 15.5767 444.967 15.8986C444.967 16.4172 444.681 16.9045 444.108 17.3605C443.545 17.8254 442.901 18.0579 442.177 18.0579C441.453 18.0579 440.863 17.8925 440.407 17.5616C439.96 17.2308 439.736 16.8374 439.736 16.3814C439.736 16.0685 439.843 15.7689 440.058 15.4828C440.264 15.1967 440.572 14.9553 440.983 14.7586L441.252 14.8391C440.983 14.9732 440.778 15.1744 440.635 15.4426C440.492 15.7198 440.42 16.0104 440.42 16.3144C440.42 16.8151 440.586 17.1861 440.916 17.4275C441.247 17.6779 441.672 17.8031 442.19 17.8031C442.718 17.8031 443.201 17.6511 443.639 17.3471C444.086 17.052 444.31 16.6944 444.31 16.2741C444.31 15.8539 444.037 15.5812 443.491 15.456L441.185 14.9464C440.925 14.8927 440.724 14.772 440.581 14.5842C440.438 14.3965 440.366 14.1685 440.366 13.9002C440.366 13.632 440.478 13.3861 440.702 13.1626C440.925 12.9391 441.234 12.8273 441.627 12.8273H442.982L442.942 13.0151H441.627C441.439 13.0151 441.287 13.0732 441.171 13.1894C441.064 13.3056 441.01 13.4442 441.01 13.6052C441.01 13.936 441.189 14.1416 441.547 14.2221ZM443.8 9.23294L443.786 9.04518C444.037 9.04518 444.247 8.98706 444.417 8.87082C444.587 8.74565 444.672 8.58471 444.672 8.388C444.672 8.19129 444.529 8.00353 444.242 7.82471C444.386 7.52071 444.555 7.36871 444.752 7.36871C444.958 7.36871 445.11 7.42682 445.208 7.54306C445.315 7.65929 445.369 7.80682 445.369 7.98565C445.369 8.29859 445.226 8.58471 444.94 8.844C444.663 9.10329 444.283 9.23294 443.8 9.23294ZM441.346 11.5532C441.346 10.8915 441.578 10.3104 442.043 9.80965C442.517 9.3 443.098 9.04518 443.786 9.04518C444.269 9.04518 444.649 9.17482 444.926 9.43412C445.213 9.68447 445.356 10.0421 445.356 10.5071C445.356 11.2581 445.114 11.8661 444.631 12.3311C444.149 12.7871 443.585 13.0151 442.942 13.0151C442.45 13.0151 442.061 12.8899 441.775 12.6395C441.489 12.3802 441.346 12.0181 441.346 11.5532ZM443.773 9.3C443.281 9.3 442.879 9.57271 442.566 10.1181C442.253 10.6546 442.097 11.1329 442.097 11.5532C442.097 11.9734 442.173 12.2819 442.325 12.4786C442.486 12.6664 442.696 12.7602 442.955 12.7602C443.348 12.7602 443.724 12.5367 444.082 12.0896C444.439 11.6426 444.618 11.0793 444.618 10.3998C444.618 10.06 444.538 9.79176 444.377 9.59506C444.225 9.39835 444.023 9.3 443.773 9.3ZM449.135 9.36706C448.795 9.36706 448.504 9.46541 448.263 9.66212C448.022 9.85882 447.901 10.1092 447.901 10.4132C447.901 10.7172 448.026 10.9944 448.276 11.2447C448.527 11.4951 448.8 11.7052 449.095 11.8751C449.39 12.036 449.662 12.2506 449.913 12.5188C450.163 12.7871 450.288 13.0732 450.288 13.3772C450.288 13.9494 450.065 14.392 449.618 14.7049C449.18 15.0089 448.648 15.1609 448.022 15.1609C447.396 15.1609 446.846 15.0134 446.372 14.7184C446.524 14.4144 446.667 13.8868 446.801 13.1358L447.029 13.176C446.967 13.5426 446.935 13.8332 446.935 14.0478C446.935 14.2534 447.034 14.4456 447.23 14.6245C447.436 14.7944 447.727 14.8793 448.102 14.8793C448.487 14.8793 448.808 14.7631 449.068 14.5306C449.336 14.2981 449.47 13.9941 449.47 13.6186C449.47 13.3772 449.349 13.1447 449.108 12.9212C448.876 12.6887 448.616 12.4965 448.33 12.3445C448.053 12.1925 447.794 11.9779 447.552 11.7007C447.32 11.4235 447.204 11.1195 447.204 10.7887C447.204 10.2969 447.396 9.88565 447.78 9.55482C448.174 9.21506 448.688 9.04518 449.323 9.04518C449.814 9.04518 450.302 9.16588 450.784 9.40729C450.74 9.50565 450.664 9.72918 450.556 10.0779C450.458 10.4266 450.382 10.7574 450.328 11.0704L450.1 11.0301C450.154 10.744 450.181 10.4713 450.181 10.212C450.181 9.94376 450.092 9.73812 449.913 9.59506C449.743 9.44306 449.484 9.36706 449.135 9.36706ZM455.223 11.6336H453.908C453.497 13.5292 453.291 14.5261 453.291 14.6245C453.291 14.7139 453.34 14.7586 453.439 14.7586H454.418L454.378 15H451.521L451.561 14.7586H452.178C452.294 14.7586 452.366 14.6915 452.393 14.5574C453.466 9.47882 454.002 6.91718 454.002 6.87247C454.002 6.81882 453.953 6.792 453.855 6.792H453.264L453.305 6.55059H456.295C456.903 6.55059 457.404 6.72047 457.798 7.06024C458.191 7.4 458.388 7.86941 458.388 8.46847C458.388 9.41624 458.061 10.1807 457.409 10.7619C456.756 11.3431 456.027 11.6336 455.223 11.6336ZM456.148 6.85906H454.927L453.975 11.3252H455.236C455.88 11.3252 456.416 11.0122 456.845 10.3864C457.283 9.76047 457.503 9.10329 457.503 8.41482C457.503 7.96776 457.386 7.59671 457.154 7.30165C456.93 7.00659 456.595 6.85906 456.148 6.85906ZM461.032 9.16588L461.22 9.3C460.791 10.2835 460.415 11.4146 460.094 12.6932H460.201L460.415 12.1031C460.836 10.9586 461.251 10.1628 461.663 9.71576C462.074 9.26871 462.432 9.04518 462.736 9.04518C463.04 9.04518 463.263 9.14353 463.406 9.34024C463.558 9.53694 463.634 9.79176 463.634 10.1047C463.634 10.4176 463.576 10.6904 463.46 10.9228C463.344 11.1553 463.174 11.2715 462.95 11.2715C462.736 11.2715 462.557 11.2 462.414 11.0569C462.503 10.9407 462.588 10.7708 462.669 10.5473C462.749 10.3238 462.789 10.1271 462.789 9.95718C462.789 9.69788 462.682 9.56824 462.467 9.56824C462.244 9.56824 461.967 9.78729 461.636 10.2254C460.912 11.1732 460.299 12.7647 459.798 15L458.86 15.0805L460.174 9.66212L459.316 9.72918L459.302 9.50118C459.919 9.42071 460.496 9.30894 461.032 9.16588ZM465.956 7.704C465.839 7.58776 465.781 7.44471 465.781 7.27482C465.781 7.10494 465.839 6.96188 465.956 6.84565C466.072 6.72941 466.215 6.67129 466.385 6.67129C466.555 6.67129 466.698 6.72941 466.814 6.84565C466.93 6.96188 466.988 7.10494 466.988 7.27482C466.988 7.44471 466.93 7.58776 466.814 7.704C466.698 7.82024 466.555 7.87835 466.385 7.87835C466.215 7.87835 466.072 7.82024 465.956 7.704ZM464.44 14.1551C464.44 13.6812 464.767 12.1835 465.419 9.66212L464.561 9.72918L464.547 9.50118C465.164 9.42071 465.741 9.30894 466.278 9.16588L466.465 9.3C466.152 10.2299 465.857 11.2268 465.58 12.2908C465.303 13.3548 465.164 14.0388 465.164 14.3428C465.164 14.6379 465.276 14.7854 465.5 14.7854C465.67 14.7854 465.853 14.6736 466.05 14.4501C466.246 14.2176 466.416 13.8913 466.559 13.4711L466.774 13.5247C466.389 14.6155 465.889 15.1609 465.272 15.1609C464.717 15.1609 464.44 14.8256 464.44 14.1551ZM470.159 14.7184C470.731 14.7184 471.29 14.3026 471.835 13.4711C472.38 12.6395 472.653 11.8751 472.653 11.1776C472.653 10.4802 472.443 9.86329 472.023 9.32682C472.246 9.13906 472.447 9.04518 472.626 9.04518C472.805 9.04518 472.935 9.15694 473.015 9.38047C473.096 9.604 473.136 9.908 473.136 10.2925C473.136 10.668 473.06 11.1374 472.908 11.7007C472.756 12.264 472.546 12.8094 472.278 13.3369C472.009 13.8555 471.652 14.2892 471.205 14.6379C470.758 14.9866 470.279 15.1609 469.77 15.1609C469.439 15.1609 469.171 15.0492 468.965 14.8256C468.768 14.5932 468.67 14.2802 468.67 13.8868C468.67 13.4934 468.817 12.8049 469.112 11.8214C469.416 10.8379 469.568 10.1941 469.568 9.89012C469.568 9.57718 469.452 9.42071 469.22 9.42071C469.05 9.42071 468.871 9.53694 468.683 9.76941C468.495 9.99294 468.343 10.3148 468.227 10.7351L467.999 10.6814C468.33 9.59059 468.808 9.04518 469.434 9.04518C470.015 9.04518 470.306 9.35812 470.306 9.984C470.306 10.2344 470.167 10.8558 469.89 11.8482C469.613 12.8407 469.475 13.4934 469.475 13.8064C469.475 14.4144 469.703 14.7184 470.159 14.7184ZM479.711 9.3C479.398 10.2299 479.103 11.2268 478.826 12.2908C478.549 13.3548 478.41 14.0388 478.41 14.3428C478.41 14.6379 478.522 14.7854 478.746 14.7854C478.915 14.7854 479.099 14.6736 479.295 14.4501C479.492 14.2176 479.662 13.8913 479.805 13.4711L480.02 13.5247C479.635 14.6155 479.135 15.1609 478.518 15.1609C477.963 15.1609 477.686 14.8256 477.686 14.1551C477.686 14.0209 477.708 13.8064 477.753 13.5113H477.686C477.132 14.6111 476.488 15.1609 475.755 15.1609C475.335 15.1609 474.981 14.9776 474.695 14.6111C474.418 14.2355 474.279 13.7795 474.279 13.2431C474.279 12.6976 474.351 12.1925 474.494 11.7275C474.637 11.2626 474.838 10.8289 475.098 10.4266C475.357 10.0153 475.701 9.68447 476.13 9.43412C476.559 9.17482 477.029 9.04518 477.539 9.04518C478.2 9.04518 478.723 9.32682 479.108 9.89012L479.523 9.16588L479.711 9.3ZM476.077 14.7586C476.452 14.7586 476.832 14.468 477.217 13.8868C477.655 13.2162 478.062 12.1209 478.437 10.6009C478.518 10.2433 478.58 9.984 478.625 9.82306C478.312 9.51906 477.95 9.36706 477.539 9.36706C477.136 9.36706 476.774 9.50565 476.452 9.78282C476.139 10.06 475.893 10.4087 475.715 10.8289C475.348 11.6873 475.165 12.4965 475.165 13.2565C475.165 13.7572 475.245 14.1327 475.406 14.3831C475.576 14.6334 475.799 14.7586 476.077 14.7586ZM481.616 9.68894L481.683 9.43412H484.66L484.593 9.68894H481.616ZM483.748 7.78447L483.936 7.91859C483.73 8.54447 483.453 9.528 483.104 10.8692C482.765 12.2104 482.559 13.0776 482.487 13.4711C482.416 13.8555 482.38 14.1461 482.38 14.3428C482.38 14.6379 482.492 14.7854 482.715 14.7854C482.885 14.7854 483.069 14.6736 483.265 14.4501C483.462 14.2176 483.632 13.8913 483.775 13.4711L483.99 13.5247C483.605 14.6155 483.104 15.1609 482.487 15.1609C481.933 15.1609 481.656 14.8256 481.656 14.1551C481.656 13.6007 481.987 12.0539 482.648 9.51459L481.683 9.43412C482.175 9.43412 482.572 9.31788 482.876 9.08541C483.18 8.844 483.471 8.41035 483.748 7.78447ZM488.461 9.04518C488.935 9.04518 489.288 9.16141 489.52 9.39388C489.762 9.61741 489.882 9.94376 489.882 10.3729C489.882 10.7932 489.717 11.1598 489.386 11.4727C488.823 12.0092 487.987 12.2774 486.878 12.2774C486.547 12.2774 486.261 12.2506 486.02 12.1969V11.9421C486.333 11.9868 486.592 12.0092 486.798 12.0092C487.54 12.0092 488.112 11.8214 488.514 11.4459C488.926 11.0704 489.131 10.6591 489.131 10.212C489.131 9.97059 489.064 9.76941 488.93 9.60847C488.805 9.44753 488.59 9.36706 488.286 9.36706C487.991 9.36706 487.687 9.50565 487.374 9.78282C487.07 10.06 486.829 10.4042 486.65 10.8155C486.292 11.6828 486.114 12.4339 486.114 13.0687C486.114 14.2489 486.471 14.8391 487.187 14.8391C488.072 14.8391 488.72 14.3562 489.131 13.3906L489.346 13.4442C489.131 13.9896 488.818 14.4144 488.407 14.7184C488.005 15.0134 487.549 15.1609 487.039 15.1609C486.529 15.1609 486.1 14.9732 485.751 14.5976C485.403 14.2221 485.228 13.7169 485.228 13.0821C485.228 12.4473 485.349 11.8348 485.591 11.2447C485.832 10.6456 486.207 10.1315 486.717 9.70235C487.227 9.26424 487.808 9.04518 488.461 9.04518ZM493.805 6.97976L492.195 14.6245C492.195 14.7139 492.244 14.7586 492.343 14.7586H492.933L492.893 15H490.425L490.465 14.7586H491.082C491.198 14.7586 491.27 14.6915 491.297 14.5574C492.37 9.47882 492.906 6.91718 492.906 6.87247C492.906 6.81882 492.857 6.792 492.759 6.792H492.168L492.209 6.55059H494.676L494.636 6.792H494.033C493.916 6.792 493.84 6.85459 493.805 6.97976ZM495.723 12.6529L495.749 13.8868C495.767 14.4412 495.915 14.7184 496.192 14.7184C496.371 14.7184 496.518 14.6245 496.635 14.4367C496.76 14.2489 496.822 14.0075 496.822 13.7125L497.077 13.6722C497.077 14.1282 496.956 14.4904 496.715 14.7586C496.483 15.0268 496.188 15.1609 495.83 15.1609C495.195 15.1609 494.86 14.6826 494.824 13.7259L494.77 12.4115C494.744 11.8304 494.623 11.428 494.408 11.2045C494.194 10.972 493.84 10.8558 493.349 10.8558L493.416 10.6412L497.238 6.792H496.608L496.648 6.55059H498.378L498.338 6.792H497.989C497.846 6.792 497.716 6.85459 497.6 6.97976L493.966 10.6144C494.609 10.6233 495.056 10.8111 495.307 11.1776C495.566 11.5442 495.705 12.036 495.723 12.6529ZM501.95 9.04518C502.424 9.04518 502.778 9.16141 503.01 9.39388C503.251 9.61741 503.372 9.94376 503.372 10.3729C503.372 10.7932 503.207 11.1598 502.876 11.4727C502.313 12.0092 501.477 12.2774 500.368 12.2774C500.037 12.2774 499.751 12.2506 499.51 12.1969V11.9421C499.822 11.9868 500.082 12.0092 500.287 12.0092C501.03 12.0092 501.602 11.8214 502.004 11.4459C502.415 11.0704 502.621 10.6591 502.621 10.212C502.621 9.97059 502.554 9.76941 502.42 9.60847C502.295 9.44753 502.08 9.36706 501.776 9.36706C501.481 9.36706 501.177 9.50565 500.864 9.78282C500.56 10.06 500.319 10.4042 500.14 10.8155C499.782 11.6828 499.603 12.4339 499.603 13.0687C499.603 14.2489 499.961 14.8391 500.676 14.8391C501.562 14.8391 502.21 14.3562 502.621 13.3906L502.836 13.4442C502.621 13.9896 502.308 14.4144 501.897 14.7184C501.494 15.0134 501.038 15.1609 500.529 15.1609C500.019 15.1609 499.59 14.9732 499.241 14.5976C498.893 14.2221 498.718 13.7169 498.718 13.0821C498.718 12.4473 498.839 11.8348 499.08 11.2447C499.322 10.6456 499.697 10.1315 500.207 9.70235C500.717 9.26424 501.298 9.04518 501.95 9.04518ZM506.463 14.7184C507.035 14.7184 507.603 14.3026 508.166 13.4711C508.739 12.6306 509.025 11.8482 509.025 11.124C509.025 10.3908 508.792 9.79176 508.327 9.32682C508.551 9.13906 508.756 9.04518 508.944 9.04518C509.293 9.04518 509.467 9.53694 509.467 10.5205C509.467 11.504 509.36 12.4071 509.145 13.2296C508.931 14.0433 508.649 14.7362 508.3 15.3085C507.961 15.8807 507.572 16.3769 507.134 16.7972C506.284 17.6376 505.421 18.0579 504.545 18.0579C504.098 18.0579 503.763 17.9551 503.539 17.7494C503.307 17.5438 503.191 17.3024 503.191 17.0252C503.191 16.748 503.249 16.4976 503.365 16.2741C503.472 16.0506 503.638 15.9388 503.861 15.9388C504.085 15.9388 504.268 16.0014 504.411 16.1266C504.152 16.4574 504.022 16.7614 504.022 17.0386C504.022 17.4856 504.259 17.7092 504.733 17.7092C505.046 17.7092 505.408 17.5929 505.819 17.3605C506.231 17.1369 506.646 16.8151 507.067 16.3948C507.487 15.9835 507.871 15.4292 508.22 14.7318C508.578 14.0344 508.828 13.2788 508.971 12.4652C508.676 13.2431 508.278 13.8868 507.777 14.3965C507.286 14.9061 506.718 15.1609 506.074 15.1609C505.743 15.1609 505.475 15.0492 505.269 14.8256C505.073 14.5932 504.974 14.2802 504.974 13.8868C504.974 13.4934 505.122 12.8049 505.417 11.8214C505.721 10.8379 505.873 10.1941 505.873 9.89012C505.873 9.57718 505.757 9.42071 505.524 9.42071C505.354 9.42071 505.175 9.53694 504.988 9.76941C504.8 9.99294 504.648 10.3148 504.532 10.7351L504.304 10.6814C504.635 9.59059 505.113 9.04518 505.739 9.04518C506.32 9.04518 506.611 9.35812 506.611 9.984C506.611 10.2344 506.472 10.8558 506.195 11.8482C505.918 12.8407 505.779 13.4934 505.779 13.8064C505.779 14.4144 506.007 14.7184 506.463 14.7184ZM509.758 16.3144C510.652 15.6348 511.363 14.6647 511.89 13.404C512.418 12.1433 512.682 10.8692 512.682 9.58165C512.682 8.28518 512.382 7.31953 511.783 6.68471L511.944 6.48353C512.525 6.83224 512.959 7.324 513.245 7.95882C513.531 8.58471 513.674 9.29106 513.674 10.0779C513.674 11.3565 513.321 12.6082 512.615 13.8332C511.917 15.0581 510.983 15.9522 509.812 16.5155L509.758 16.3144ZM514.378 16.4887C514.959 16.0416 515.249 15.5722 515.249 15.0805C515.249 14.8122 515.155 14.5932 514.968 14.4233C515.012 14.2176 515.115 14.0388 515.276 13.8868C515.446 13.7348 515.625 13.6588 515.813 13.6588C516.179 13.6588 516.362 13.8421 516.362 14.2087C516.362 14.5753 516.179 15.0089 515.813 15.5096C515.455 16.0193 515.012 16.4082 514.485 16.6765L514.378 16.4887ZM525.719 6.85906H524.177L522.527 14.6915H524.083C524.655 14.6915 525.183 14.5127 525.665 14.1551C526.148 13.7974 526.537 13.3459 526.832 12.8005C527.44 11.6649 527.744 10.5339 527.744 9.40729C527.744 8.60259 527.556 7.97671 527.181 7.52965C526.814 7.08259 526.327 6.85906 525.719 6.85906ZM522.554 6.55059H525.8C526.694 6.55059 527.4 6.81435 527.919 7.34188C528.437 7.86047 528.696 8.58918 528.696 9.528C528.696 10.1628 528.585 10.8021 528.361 11.4459C528.147 12.0807 527.847 12.6664 527.463 13.2028C527.078 13.7304 526.582 14.164 525.974 14.5038C525.375 14.8346 524.722 15 524.016 15H520.77L520.81 14.7586H521.427C521.544 14.7586 521.615 14.6915 521.642 14.5574C522.715 9.47882 523.251 6.91718 523.251 6.87247C523.251 6.81882 523.202 6.792 523.104 6.792H522.514L522.554 6.55059ZM529.17 16.4887C529.751 16.0416 530.042 15.5722 530.042 15.0805C530.042 14.8122 529.948 14.5932 529.76 14.4233C529.805 14.2176 529.908 14.0388 530.069 13.8868C530.239 13.7348 530.418 13.6588 530.605 13.6588C530.972 13.6588 531.155 13.8421 531.155 14.2087C531.155 14.5753 530.972 15.0089 530.605 15.5096C530.248 16.0193 529.805 16.4082 529.278 16.6765L529.17 16.4887ZM540.512 6.85906H538.969L537.32 14.6915H538.876C539.448 14.6915 539.975 14.5127 540.458 14.1551C540.941 13.7974 541.33 13.3459 541.625 12.8005C542.233 11.6649 542.537 10.5339 542.537 9.40729C542.537 8.60259 542.349 7.97671 541.974 7.52965C541.607 7.08259 541.12 6.85906 540.512 6.85906ZM537.347 6.55059H540.592C541.486 6.55059 542.193 6.81435 542.711 7.34188C543.23 7.86047 543.489 8.58918 543.489 9.528C543.489 10.1628 543.377 10.8021 543.154 11.4459C542.939 12.0807 542.64 12.6664 542.255 13.2028C541.871 13.7304 541.375 14.164 540.767 14.5038C540.168 14.8346 539.515 15 538.809 15H535.563L535.603 14.7586H536.22C536.336 14.7586 536.408 14.6915 536.435 14.5574C537.508 9.47882 538.044 6.91718 538.044 6.87247C538.044 6.81882 537.995 6.792 537.897 6.792H537.306L537.347 6.55059Z" fill="#6082FA"/>
<path opacity="0.86" d="M7.62459 5.78859H5.31106L2.83659 17.5373H5.17024C6.02859 17.5373 6.81988 17.2691 7.54412 16.7326C8.26835 16.1961 8.85177 15.5188 9.29435 14.7007C10.2064 12.9974 10.6624 11.3008 10.6624 9.61094C10.6624 8.40388 10.3807 7.46506 9.81741 6.79447C9.26753 6.12388 8.53659 5.78859 7.62459 5.78859ZM2.87682 5.32588H7.74529C9.08647 5.32588 10.146 5.72153 10.9239 6.51282C11.7018 7.29071 12.0907 8.38376 12.0907 9.792C12.0907 10.7442 11.9231 11.7032 11.5878 12.6688C11.2659 13.6211 10.8166 14.4995 10.2399 15.3042C9.66318 16.0955 8.91882 16.746 8.00682 17.2556C7.10824 17.7519 6.12918 18 5.06965 18H0.201176L0.261529 17.6379H1.18694C1.36129 17.6379 1.46859 17.5373 1.50882 17.3361C3.11824 9.71824 3.92294 5.87576 3.92294 5.80871C3.92294 5.72823 3.84918 5.688 3.70165 5.688H2.81647L2.87682 5.32588Z" fill="#6082FA"/>
<path opacity="0.86" d="M13.5482 19.105C13.1342 19.105 12.7697 19 12.4548 18.7901C12.3499 18.7259 12.277 18.6939 12.2362 18.6939C12.1312 18.6939 12.0641 18.7959 12.035 19H11.8688L12.1749 17.5393H12.3324C12.3265 17.5859 12.3236 17.6559 12.3236 17.7492C12.3236 18.1282 12.4315 18.4081 12.6473 18.5889C12.8688 18.7638 13.1692 18.8513 13.5482 18.8513C13.933 18.8513 14.2538 18.7172 14.5103 18.449C14.7727 18.1749 14.9039 17.8629 14.9039 17.513C14.9039 17.1573 14.7232 16.892 14.3616 16.7171L13.6619 16.3585C13.1138 16.0902 12.8397 15.6733 12.8397 15.1077C12.8397 14.6645 13.0117 14.268 13.3558 13.9181C13.6998 13.5624 14.1313 13.3846 14.6503 13.3846C14.9943 13.3846 15.3063 13.4808 15.5862 13.6732C15.6795 13.7373 15.7436 13.7694 15.7786 13.7694C15.8369 13.7694 15.8865 13.7082 15.9273 13.5857L15.971 13.437H16.1285L15.8049 14.9502H15.6562C15.6678 14.8336 15.6737 14.7491 15.6737 14.6966C15.6737 14.335 15.5804 14.0697 15.3938 13.9006C15.213 13.7257 14.9506 13.6382 14.6065 13.6382C14.2625 13.6382 13.968 13.7665 13.7231 14.0231C13.484 14.2796 13.3645 14.5683 13.3645 14.889C13.3645 15.2855 13.5424 15.5771 13.8981 15.7637L14.799 16.2273C15.283 16.478 15.525 16.8337 15.525 17.2944C15.525 17.7492 15.3267 18.1661 14.9302 18.5452C14.5337 18.9184 14.073 19.105 13.5482 19.105Z" fill="#6082FA"/>
<path opacity="0.86" d="M546.458 12.1164C546.767 12.1164 546.997 12.1922 547.149 12.3438C547.306 12.4896 547.385 12.7025 547.385 12.9824C547.385 13.2564 547.277 13.4955 547.061 13.6996C546.694 14.0495 546.149 14.2244 545.426 14.2244C545.21 14.2244 545.023 14.2069 544.866 14.1719V14.0057C545.07 14.0349 545.239 14.0495 545.373 14.0495C545.857 14.0495 546.23 13.927 546.493 13.6821C546.761 13.4372 546.895 13.169 546.895 12.8774C546.895 12.7199 546.851 12.5887 546.764 12.4838C546.682 12.3788 546.542 12.3263 546.344 12.3263C546.152 12.3263 545.953 12.4167 545.749 12.5975C545.551 12.7783 545.394 13.0028 545.277 13.271C545.044 13.8366 544.927 14.3264 544.927 14.7405C544.927 15.5102 545.16 15.895 545.627 15.895C546.204 15.895 546.627 15.5802 546.895 14.9504L547.035 14.9854C546.895 15.3411 546.691 15.6181 546.423 15.8163C546.16 16.0087 545.863 16.105 545.531 16.105C545.198 16.105 544.918 15.9825 544.691 15.7376C544.464 15.4927 544.35 15.1632 544.35 14.7492C544.35 14.3352 544.429 13.9358 544.586 13.5509C544.743 13.1602 544.988 12.8249 545.321 12.545C545.653 12.2593 546.032 12.1164 546.458 12.1164ZM549.077 12.1164C549.31 12.1164 549.5 12.2447 549.646 12.5013C549.792 12.7579 549.891 13.0698 549.943 13.4372C550.001 13.8046 550.051 14.1719 550.092 14.5393C550.191 15.4198 550.354 15.8601 550.582 15.8601C550.692 15.8601 550.812 15.7872 550.94 15.6414C551.069 15.4898 551.179 15.2769 551.273 15.0029L551.413 15.0379C551.162 15.7493 550.835 16.105 550.433 16.105C550.2 16.105 550.01 15.9767 549.864 15.7201C549.719 15.4635 549.617 15.1516 549.558 14.7842C549.506 14.4168 549.459 14.0495 549.418 13.6821C549.319 12.8016 549.156 12.3613 548.928 12.3613C548.818 12.3613 548.698 12.4371 548.57 12.5887C548.442 12.7345 548.331 12.9444 548.237 13.2185L548.098 13.1835C548.348 12.4721 548.675 12.1164 549.077 12.1164ZM549.243 14.6617L549.567 14.1019L549.786 14.0844L549.366 14.8192C548.882 15.6764 548.456 16.105 548.089 16.105C547.914 16.105 547.826 15.9475 547.826 15.6326C548.427 15.5802 548.899 15.2565 549.243 14.6617ZM550.179 13.5596L549.856 14.1194L549.637 14.1369L550.057 13.4022C550.541 12.545 550.966 12.1164 551.334 12.1164C551.509 12.1164 551.596 12.2739 551.596 12.5887C550.996 12.6412 550.523 12.9649 550.179 13.5596ZM552.444 12.5363L552.488 12.3701H554.43L554.386 12.5363H552.444ZM553.835 11.2942L553.957 11.3817C553.823 11.7899 553.642 12.4313 553.415 13.306C553.193 14.1807 553.059 14.7463 553.013 15.0029C552.966 15.2536 552.943 15.4431 552.943 15.5714C552.943 15.7638 553.016 15.8601 553.161 15.8601C553.272 15.8601 553.392 15.7872 553.52 15.6414C553.648 15.4898 553.759 15.2769 553.852 15.0029L553.992 15.0379C553.742 15.7493 553.415 16.105 553.013 16.105C552.651 16.105 552.47 15.8863 552.47 15.449C552.47 15.0874 552.686 14.0786 553.118 12.4226L552.488 12.3701C552.809 12.3701 553.068 12.2943 553.266 12.1427C553.465 11.9852 553.654 11.7024 553.835 11.2942Z" fill="#6082FA"/>
<path opacity="0.86" d="M555.075 18.9715C556.416 17.9522 557.482 16.4971 558.273 14.606C559.065 12.7149 559.46 10.8038 559.46 8.87247C559.46 6.92776 559.011 5.47929 558.112 4.52706L558.354 4.22529C559.226 4.74835 559.876 5.486 560.305 6.43823C560.734 7.37706 560.949 8.43659 560.949 9.61682C560.949 11.5347 560.419 13.4124 559.36 15.2498C558.314 17.0872 556.912 18.4284 555.155 19.2733L555.075 18.9715Z" fill="#6082FA"/>
</svg>
