<svg width="255" height="23" viewBox="0 0 255 23" fill="none" xmlns="http://www.w3.org/2000/svg">
<path opacity="0.86" d="M3.82235 5.32588H8.95235C9.95824 5.32588 10.6758 5.26553 11.1049 5.14482C10.9306 5.54718 10.6959 6.41223 10.4008 7.74L10.1996 8.68553H9.75706L9.97835 6.25129C9.97835 6.00988 9.82412 5.88918 9.51565 5.88918H6.94059C5.31777 13.5473 4.50635 17.4233 4.50635 17.5172C4.50635 17.5976 4.58012 17.6379 4.72765 17.6379H6.45776L6.39741 18H1.00588L1.06624 17.6379H2.83659C3.01094 17.6379 3.11824 17.5373 3.15847 17.3361L5.57259 5.88918H3.01765C2.69576 5.88918 2.48788 6.0367 2.394 6.33176L1.60941 8.68553H1.16682L1.368 7.74C1.62282 6.57318 1.75024 5.70812 1.75024 5.14482C2.13918 5.26553 2.82988 5.32588 3.82235 5.32588ZM14.739 9.06776C15.4498 9.06776 15.9796 9.24212 16.3283 9.59082C16.6904 9.92612 16.8715 10.4156 16.8715 11.0594C16.8715 11.6898 16.6234 12.2396 16.1271 12.7091C15.2822 13.5138 14.0282 13.9161 12.3651 13.9161C11.8689 13.9161 11.4397 13.8759 11.0776 13.7954V13.4132C11.547 13.4802 11.9359 13.5138 12.2444 13.5138C13.3576 13.5138 14.2159 13.2321 14.8195 12.6688C15.4364 12.1055 15.7449 11.4886 15.7449 10.818C15.7449 10.4559 15.6443 10.1541 15.4431 9.91271C15.2554 9.67129 14.9335 9.55059 14.4775 9.55059C14.0349 9.55059 13.5789 9.75847 13.1095 10.1742C12.6535 10.59 12.2914 11.1064 12.0231 11.7233C11.4867 13.0242 11.2184 14.1508 11.2184 15.1031C11.2184 16.8734 11.7549 17.7586 12.8278 17.7586C14.1556 17.7586 15.1279 17.0344 15.7449 15.5859L16.0668 15.6664C15.7449 16.4845 15.2755 17.1215 14.6585 17.5775C14.055 18.0201 13.371 18.2414 12.6065 18.2414C11.8421 18.2414 11.1983 17.9598 10.6752 17.3965C10.1522 16.8332 9.89065 16.0754 9.89065 15.1232C9.89065 14.1709 10.0717 13.2522 10.4338 12.3671C10.7959 11.4685 11.3592 10.6973 12.1237 10.0535C12.8882 9.39635 13.7599 9.06776 14.739 9.06776ZM24.7065 18L23.2782 18.1207L24.0024 15.3646C24.0829 15.0561 24.2036 14.6001 24.3645 13.9966C24.5389 13.3931 24.6663 12.9304 24.7467 12.6085C24.9747 11.7233 25.0887 11.1265 25.0887 10.818C25.0887 10.5095 25.0083 10.2547 24.8473 10.0535C24.6998 9.83894 24.4718 9.73165 24.1633 9.73165C23.4927 9.73165 22.7618 10.4089 21.9705 11.7635C21.1792 13.1181 20.455 15.1969 19.7978 18L18.3896 18.1207L20.3611 9.99318L19.0736 10.0938L19.0535 9.75176C19.9789 9.63106 20.8439 9.46341 21.6486 9.24882L21.9303 9.45C21.2865 10.9253 20.7232 12.6219 20.2404 14.5398H20.4013L20.7232 13.6546C21.3536 11.9379 22.0242 10.7442 22.735 10.0736C23.4458 9.40306 24.1097 9.06776 24.7266 9.06776C25.6655 9.06776 26.1349 9.59753 26.1349 10.6571C26.1349 11.274 25.9404 12.1458 25.5515 13.2724L25.129 14.5398H25.31L25.6319 13.6546C26.3562 11.6294 27.1407 10.3151 27.9857 9.71153C28.388 9.44329 28.7166 9.26894 28.9715 9.18847C29.2397 9.108 29.5549 9.06776 29.917 9.06776C30.2791 9.06776 30.5809 9.22871 30.8223 9.55059C31.0637 9.87247 31.1844 10.3218 31.1844 10.8985C31.1844 11.4752 30.8558 12.5347 30.1986 14.0771C29.5549 15.6194 29.233 16.6052 29.233 17.0344C29.233 17.4635 29.4006 17.6781 29.7359 17.6781C29.9907 17.6781 30.2657 17.5105 30.5607 17.1752C30.8558 16.8265 31.1106 16.3369 31.3252 15.7066L31.6471 15.7871C31.0704 17.4233 30.3193 18.2414 29.3939 18.2414C28.5624 18.2414 28.1466 17.7854 28.1466 16.8734C28.1466 16.4845 28.4484 15.5188 29.0519 13.9765C29.6689 12.4341 29.9773 11.3813 29.9773 10.818C29.9773 10.0938 29.7426 9.73165 29.2732 9.73165C28.6026 9.73165 27.8784 10.2748 27.1005 11.3612C26.2019 12.6621 25.4039 14.8751 24.7065 18ZM36.8843 9.24882L37.1659 9.45C36.5222 10.9253 35.9589 12.6219 35.4761 14.5398H35.637L35.9589 13.6546C37.0721 10.5967 38.3462 9.06776 39.7812 9.06776C40.3579 9.06776 40.8475 9.34941 41.2498 9.91271C41.6656 10.476 41.8735 11.16 41.8735 11.9647C41.8735 12.7694 41.7662 13.5205 41.5516 14.2179C41.3504 14.9019 41.0554 15.5456 40.6664 16.1492C40.2775 16.7393 39.7678 17.2221 39.1375 17.5976C38.5071 17.9732 37.8097 18.1609 37.0452 18.1609C35.8784 18.1609 34.9664 17.6446 34.3092 16.6119L34.4501 16.2699C35.0938 17.2489 35.9388 17.7385 36.9849 17.7385C37.5884 17.7385 38.1249 17.5373 38.5943 17.1349C39.0771 16.7326 39.4459 16.2296 39.7008 15.6261C40.2104 14.3922 40.4652 13.1852 40.4652 12.0049C40.4652 11.3209 40.3646 10.7912 40.1635 10.4156C39.9757 10.0267 39.7276 9.83223 39.4191 9.83223C38.7888 9.83223 38.0779 10.4425 37.2866 11.6629C36.5088 12.8834 35.8046 14.7879 35.1743 17.3764L33.9672 22.3454L32.559 22.4661L35.5968 9.99318L34.3092 10.0938L34.2891 9.75176C35.2145 9.63106 36.0796 9.46341 36.8843 9.24882Z" fill="#6082FA"/>
<path opacity="0.86" d="M65.7261 12.87H57.84V11.8038H65.7261V12.87ZM65.7261 16.29H57.84V15.2238H65.7261V16.29Z" fill="#6082FA"/>
<path opacity="0.86" d="M45.002 13.18H49.216C49.9253 13.18 50.4293 13.138 50.728 13.054C50.588 13.3807 50.42 13.9827 50.224 14.86L50.084 15.518H49.776L49.958 13.74C49.958 13.5813 49.8553 13.502 49.65 13.502H46.696L45.87 17.394H48.698C48.7913 17.3847 48.8567 17.3193 48.894 17.198L49.174 16.33H49.412L48.866 18.85H48.628L48.754 17.982C48.754 17.8513 48.7027 17.786 48.6 17.786H45.8L44.974 21.678H48.068C48.292 21.678 48.4367 21.5753 48.502 21.37L49.09 19.662H49.398L49.258 20.32C49.0807 21.1507 48.992 21.7527 48.992 22.126C48.7213 22.042 48.2407 22 47.55 22H43.14L43.182 21.748H43.826C43.9473 21.748 44.022 21.678 44.05 21.538C45.17 16.2367 45.73 13.5627 45.73 13.516C45.73 13.46 45.6787 13.432 45.576 13.432H44.96L45.002 13.18Z" fill="#6082FA"/>
<path opacity="0.86" d="M76.8768 5.32588H82.9322C83.9515 5.32588 84.6758 5.26553 85.1049 5.14482C84.9038 5.61423 84.6624 6.47929 84.3807 7.74L84.1795 8.68553H83.7369L83.9985 6.13059C83.9985 5.90259 83.8509 5.78859 83.5559 5.78859H79.3111L78.1241 11.3813H82.1879C82.322 11.3679 82.4159 11.274 82.4695 11.0996L82.8719 9.85235H83.2139L82.4293 13.4735H82.0873L82.2684 12.2262C82.2684 12.0385 82.1946 11.9446 82.0471 11.9446H78.0235L76.8366 17.5373H81.2826C81.6045 17.5373 81.8124 17.3898 81.9062 17.0947L82.7512 14.6404H83.1938L82.9926 15.5859C82.7378 16.7795 82.6104 17.6446 82.6104 18.1811C82.2214 18.0604 81.5307 18 80.5382 18H74.2012L74.2615 17.6379H75.1869C75.3613 17.6379 75.4686 17.5373 75.5088 17.3361C77.1182 9.71824 77.9229 5.87576 77.9229 5.80871C77.9229 5.72823 77.8492 5.688 77.7016 5.688H76.8165L76.8768 5.32588ZM94.3187 10.8985C94.3187 11.4752 93.9901 12.5347 93.3329 14.0771C92.6891 15.6194 92.3673 16.6052 92.3673 17.0344C92.3673 17.4635 92.5349 17.6781 92.8702 17.6781C93.125 17.6781 93.4 17.5105 93.695 17.1752C93.9901 16.8265 94.2449 16.3369 94.4595 15.7066L94.7814 15.7871C94.2047 17.4233 93.4536 18.2414 92.5282 18.2414C91.6967 18.2414 91.2809 17.7854 91.2809 16.8734C91.2809 16.4845 91.5827 15.5188 92.1862 13.9765C92.8031 12.4341 93.1116 11.4416 93.1116 10.9991C93.1116 10.1541 92.8031 9.73165 92.1862 9.73165C91.5156 9.73165 90.7914 10.2748 90.0135 11.3612C89.1149 12.6621 88.3169 14.8751 87.6195 18L86.2113 18.1207L88.1828 9.99318L86.8953 10.0938L86.8751 9.75176C87.8005 9.63106 88.6656 9.46341 89.4703 9.24882L89.752 9.45C89.1082 10.9253 88.5449 12.6219 88.0621 14.5398H88.223L88.5449 13.6546C89.2691 11.6294 90.0537 10.3151 90.8987 9.71153C91.301 9.44329 91.6296 9.26894 91.8844 9.18847C92.1527 9.108 92.4813 9.06776 92.8702 9.06776C93.2725 9.06776 93.6145 9.22871 93.8962 9.55059C94.1778 9.87247 94.3187 10.3218 94.3187 10.8985ZM101.379 9.55059C100.829 9.55059 100.319 9.75847 99.8496 10.1742C99.3936 10.59 99.0315 11.1064 98.7633 11.7233C98.2268 13.0242 97.9585 14.1508 97.9585 15.1031C97.9585 16.8734 98.495 17.7586 99.568 17.7586C100.896 17.7586 101.868 17.0344 102.485 15.5859L102.807 15.6664C102.485 16.4845 102.016 17.1215 101.399 17.5775C100.795 18.0201 100.111 18.2414 99.3467 18.2414C98.5822 18.2414 97.9384 17.9598 97.4154 17.3965C96.8923 16.8332 96.6308 16.0754 96.6308 15.1232C96.6308 14.1709 96.8118 13.2522 97.174 12.3671C97.5361 11.4685 98.0994 10.6973 98.8638 10.0535C99.6283 9.39635 100.5 9.06776 101.479 9.06776C102.15 9.06776 102.653 9.24212 102.988 9.59082C103.337 9.92612 103.511 10.3352 103.511 10.818C103.511 11.2874 103.424 11.7099 103.249 12.0854C103.089 12.4609 102.827 12.6487 102.465 12.6487C102.116 12.6487 101.855 12.5414 101.68 12.3268C102.069 11.7367 102.264 11.16 102.264 10.5967C102.264 9.89929 101.969 9.55059 101.379 9.55059Z" fill="#6082FA"/>
<path opacity="0.86" d="M107.66 13.18H111.23C111.93 13.18 112.429 13.138 112.728 13.054C112.607 13.334 112.443 13.936 112.238 14.86L112.098 15.518H111.79L111.944 13.824C111.944 13.656 111.837 13.572 111.622 13.572H109.83C108.701 18.9013 108.136 21.5987 108.136 21.664C108.136 21.72 108.187 21.748 108.29 21.748H109.494L109.452 22H105.7L105.742 21.748H106.974C107.095 21.748 107.17 21.678 107.198 21.538L108.878 13.572H107.1C106.876 13.572 106.731 13.6747 106.666 13.88L106.12 15.518H105.812L105.952 14.86C106.129 14.048 106.218 13.446 106.218 13.054C106.489 13.138 106.969 13.18 107.66 13.18ZM113.886 13.18H118.1C118.809 13.18 119.313 13.138 119.612 13.054C119.472 13.3807 119.304 13.9827 119.108 14.86L118.968 15.518H118.66L118.842 13.74C118.842 13.5813 118.739 13.502 118.534 13.502H115.58L114.754 17.394H117.582C117.675 17.3847 117.74 17.3193 117.778 17.198L118.058 16.33H118.296L117.75 18.85H117.512L117.638 17.982C117.638 17.8513 117.586 17.786 117.484 17.786H114.684L113.858 21.678H116.952C117.176 21.678 117.32 21.5753 117.386 21.37L117.974 19.662H118.282L118.142 20.32C117.964 21.1507 117.876 21.7527 117.876 22.126C117.605 22.042 117.124 22 116.434 22H112.024L112.066 21.748H112.71C112.831 21.748 112.906 21.678 112.934 21.538C114.054 16.2367 114.614 13.5627 114.614 13.516C114.614 13.46 114.562 13.432 114.46 13.432H113.844L113.886 13.18ZM121.753 13.18H125.967C126.677 13.18 127.181 13.138 127.479 13.054C127.339 13.3807 127.171 13.9827 126.975 14.86L126.835 15.518H126.527L126.709 13.74C126.709 13.5813 126.607 13.502 126.401 13.502H123.447L122.621 17.394H125.449C125.543 17.3847 125.608 17.3193 125.645 17.198L125.925 16.33H126.163L125.617 18.85H125.379L125.505 17.982C125.505 17.8513 125.454 17.786 125.351 17.786H122.551L121.725 21.678H124.819C125.043 21.678 125.188 21.5753 125.253 21.37L125.841 19.662H126.149L126.009 20.32C125.832 21.1507 125.743 21.7527 125.743 22.126C125.473 22.042 124.992 22 124.301 22H119.891L119.933 21.748H120.577C120.699 21.748 120.773 21.678 120.801 21.538C121.921 16.2367 122.481 13.5627 122.481 13.516C122.481 13.46 122.43 13.432 122.327 13.432H121.711L121.753 13.18ZM132.673 21.748L132.295 19.046H129.201L127.689 21.748H128.557L128.515 22H126.499L126.555 21.748H127.045C127.176 21.748 127.274 21.6827 127.339 21.552L132.043 13.18H132.491L133.639 21.552C133.658 21.6827 133.728 21.748 133.849 21.748H134.339L134.297 22H131.763L131.805 21.748H132.673ZM131.693 14.608L129.411 18.654H132.239L131.693 14.608ZM138.704 13.628L137.01 21.678H139.768C140.001 21.678 140.151 21.5753 140.216 21.37L140.79 19.662H141.098L140.958 20.32C140.781 21.132 140.692 21.734 140.692 22.126C140.421 22.042 139.941 22 139.25 22H135.176L135.218 21.748H135.862C135.983 21.748 136.058 21.678 136.086 21.538C137.206 16.2367 137.766 13.5627 137.766 13.516C137.766 13.46 137.715 13.432 137.612 13.432H136.996L137.038 13.18H139.614L139.572 13.432H138.942C138.821 13.432 138.741 13.4973 138.704 13.628ZM149.094 18.836L148.996 19.312C148.818 20.1427 148.389 20.8287 147.708 21.37C147.036 21.902 146.247 22.168 145.342 22.168C144.436 22.168 143.713 21.888 143.172 21.328C142.63 20.768 142.36 19.984 142.36 18.976C142.36 18.2947 142.472 17.6087 142.696 16.918C142.92 16.2273 143.232 15.588 143.634 15C144.044 14.412 144.572 13.936 145.216 13.572C145.86 13.1987 146.56 13.012 147.316 13.012C147.894 13.012 148.436 13.18 148.94 13.516C149.108 13.6187 149.229 13.67 149.304 13.67C149.416 13.67 149.504 13.572 149.57 13.376L149.654 13.096H149.906L149.388 15.518H149.15C149.159 15.4433 149.164 15.336 149.164 15.196C149.164 14.5893 148.982 14.1413 148.618 13.852C148.263 13.5627 147.782 13.418 147.176 13.418C146.569 13.418 146.009 13.614 145.496 14.006C144.982 14.398 144.572 14.888 144.264 15.476C143.638 16.708 143.326 17.9307 143.326 19.144C143.326 19.984 143.512 20.6327 143.886 21.09C144.259 21.538 144.805 21.762 145.524 21.762C146.252 21.762 146.83 21.524 147.26 21.048C147.689 20.572 147.988 19.8207 148.156 18.794C148.156 18.6913 148.109 18.64 148.016 18.64H147.134L147.176 18.388H149.738L149.696 18.64H149.346C149.206 18.64 149.122 18.7053 149.094 18.836ZM153.967 13.376C154.509 13.1333 155.083 13.012 155.689 13.012C156.613 13.012 157.341 13.292 157.873 13.852C158.415 14.4027 158.685 15.182 158.685 16.19C158.685 16.8713 158.573 17.562 158.349 18.262C158.125 18.9527 157.813 19.592 157.411 20.18C157.01 20.768 156.487 21.2487 155.843 21.622C155.199 21.986 154.457 22.168 153.617 22.168C152.777 22.168 152.087 21.888 151.545 21.328C151.013 20.768 150.747 19.956 150.747 18.892C150.747 17.828 151.037 16.7547 151.615 15.672C152.203 14.5893 152.987 13.824 153.967 13.376ZM157.131 14.09C156.758 13.614 156.263 13.376 155.647 13.376C155.031 13.376 154.462 13.5767 153.939 13.978C153.417 14.37 153.001 14.8693 152.693 15.476C152.049 16.7267 151.727 17.94 151.727 19.116C151.727 19.9653 151.909 20.628 152.273 21.104C152.647 21.5707 153.141 21.804 153.757 21.804C154.383 21.804 154.957 21.608 155.479 21.216C156.002 20.8147 156.422 20.3153 156.739 19.718C157.383 18.4767 157.705 17.2633 157.705 16.078C157.705 15.2287 157.514 14.566 157.131 14.09Z" fill="#6082FA"/>
<path opacity="0.86" d="M166.493 6.68471C165.563 7.37318 164.839 8.33882 164.32 9.58165C163.802 10.8155 163.542 12.0941 163.542 13.4174C163.542 14.7318 163.846 15.6974 164.454 16.3144L164.267 16.5155C163.703 16.1668 163.274 15.6751 162.979 15.0402C162.693 14.4054 162.55 13.6991 162.55 12.9212C162.55 11.6426 162.899 10.3953 163.596 9.17929C164.302 7.95435 165.237 7.05576 166.399 6.48353L166.493 6.68471ZM168.484 6.55059H171.904C172.574 6.55059 173.053 6.51035 173.339 6.42988C173.223 6.69812 173.066 7.27482 172.869 8.16L172.735 8.79035H172.44L172.588 7.16753C172.588 7.00659 172.485 6.92612 172.279 6.92612H170.563C169.481 12.0315 168.94 14.6155 168.94 14.6781C168.94 14.7318 168.989 14.7586 169.087 14.7586H170.241L170.2 15H166.606L166.646 14.7586H167.827C167.943 14.7586 168.014 14.6915 168.041 14.5574L169.651 6.92612H167.947C167.733 6.92612 167.594 7.02447 167.532 7.22118L167.008 8.79035H166.713L166.848 8.16C167.017 7.38212 167.102 6.80541 167.102 6.42988C167.362 6.51035 167.822 6.55059 168.484 6.55059ZM175.762 9.04518C176.235 9.04518 176.589 9.16141 176.821 9.39388C177.062 9.61741 177.183 9.94376 177.183 10.3729C177.183 10.7932 177.018 11.1598 176.687 11.4727C176.124 12.0092 175.288 12.2774 174.179 12.2774C173.848 12.2774 173.562 12.2506 173.321 12.1969V11.9421C173.634 11.9868 173.893 12.0092 174.098 12.0092C174.841 12.0092 175.413 11.8214 175.815 11.4459C176.226 11.0704 176.432 10.6591 176.432 10.212C176.432 9.97059 176.365 9.76941 176.231 9.60847C176.106 9.44753 175.891 9.36706 175.587 9.36706C175.292 9.36706 174.988 9.50565 174.675 9.78282C174.371 10.06 174.13 10.4042 173.951 10.8155C173.593 11.6828 173.414 12.4339 173.414 13.0687C173.414 14.2489 173.772 14.8391 174.487 14.8391C175.373 14.8391 176.021 14.3562 176.432 13.3906L176.647 13.4442C176.432 13.9896 176.119 14.4144 175.708 14.7184C175.306 15.0134 174.85 15.1609 174.34 15.1609C173.83 15.1609 173.401 14.9732 173.052 14.5976C172.704 14.2221 172.529 13.7169 172.529 13.0821C172.529 12.4473 172.65 11.8348 172.891 11.2447C173.133 10.6456 173.508 10.1315 174.018 9.70235C174.528 9.26424 175.109 9.04518 175.762 9.04518ZM182.407 15L181.454 15.0805L181.937 13.2431C181.991 13.0374 182.071 12.7334 182.179 12.3311C182.295 11.9287 182.38 11.6202 182.433 11.4056C182.585 10.8155 182.661 10.4176 182.661 10.212C182.661 10.0064 182.608 9.83647 182.5 9.70235C182.402 9.55929 182.25 9.48776 182.044 9.48776C181.597 9.48776 181.11 9.93929 180.583 10.8424C180.055 11.7454 179.572 13.1313 179.134 15L178.195 15.0805L179.51 9.66212L178.651 9.72918L178.638 9.50118C179.255 9.42071 179.831 9.30894 180.368 9.16588L180.556 9.3C180.127 10.2835 179.751 11.4146 179.429 12.6932H179.536L179.751 12.1031C180.171 10.9586 180.618 10.1628 181.092 9.71576C181.566 9.26871 182.009 9.04518 182.42 9.04518C183.046 9.04518 183.359 9.39835 183.359 10.1047C183.359 10.516 183.229 11.0972 182.97 11.8482L182.688 12.6932H182.809L183.023 12.1031C183.506 10.7529 184.029 9.87671 184.593 9.47435C184.861 9.29553 185.08 9.17929 185.25 9.12565C185.429 9.072 185.639 9.04518 185.88 9.04518C186.122 9.04518 186.323 9.15247 186.484 9.36706C186.645 9.58165 186.725 9.88118 186.725 10.2656C186.725 10.6501 186.506 11.3565 186.068 12.3847C185.639 13.4129 185.424 14.0701 185.424 14.3562C185.424 14.6424 185.536 14.7854 185.759 14.7854C185.929 14.7854 186.113 14.6736 186.309 14.4501C186.506 14.2176 186.676 13.8913 186.819 13.4711L187.034 13.5247C186.649 14.6155 186.148 15.1609 185.531 15.1609C184.977 15.1609 184.7 14.8569 184.7 14.2489C184.7 13.9896 184.901 13.3459 185.303 12.3176C185.715 11.2894 185.92 10.5875 185.92 10.212C185.92 9.72918 185.764 9.48776 185.451 9.48776C185.004 9.48776 184.521 9.84988 184.003 10.5741C183.403 11.4414 182.871 12.9167 182.407 15ZM190.525 9.16588L190.713 9.3C190.284 10.2835 189.908 11.4146 189.586 12.6932H189.694L189.908 12.1031C190.65 10.0645 191.5 9.04518 192.456 9.04518C192.841 9.04518 193.167 9.23294 193.435 9.60847C193.713 9.984 193.851 10.44 193.851 10.9765C193.851 11.5129 193.78 12.0136 193.637 12.4786C193.502 12.9346 193.306 13.3638 193.046 13.7661C192.787 14.1595 192.447 14.4814 192.027 14.7318C191.607 14.9821 191.142 15.1073 190.632 15.1073C189.854 15.1073 189.246 14.7631 188.808 14.0746L188.902 13.8466C189.331 14.4993 189.895 14.8256 190.592 14.8256C190.994 14.8256 191.352 14.6915 191.665 14.4233C191.987 14.1551 192.233 13.8198 192.403 13.4174C192.742 12.5948 192.912 11.7901 192.912 11.0033C192.912 10.5473 192.845 10.1941 192.711 9.94376C192.586 9.68447 192.421 9.55482 192.215 9.55482C191.795 9.55482 191.321 9.96165 190.793 10.7753C190.275 11.5889 189.805 12.8586 189.385 14.5842L188.58 17.8969L187.642 17.9774L189.667 9.66212L188.808 9.72918L188.795 9.50118C189.412 9.42071 189.989 9.30894 190.525 9.16588ZM194.449 16.4887C195.03 16.0416 195.321 15.5722 195.321 15.0805C195.321 14.8122 195.227 14.5932 195.039 14.4233C195.084 14.2176 195.187 14.0388 195.348 13.8868C195.518 13.7348 195.696 13.6588 195.884 13.6588C196.251 13.6588 196.434 13.8421 196.434 14.2087C196.434 14.5753 196.251 15.0089 195.884 15.5096C195.527 16.0193 195.084 16.4082 194.556 16.6765L194.449 16.4887ZM203.256 6.55059H206.676C207.346 6.55059 207.825 6.51035 208.111 6.42988C207.995 6.69812 207.838 7.27482 207.641 8.16L207.507 8.79035H207.212L207.36 7.16753C207.36 7.00659 207.257 6.92612 207.051 6.92612H205.335C204.253 12.0315 203.712 14.6155 203.712 14.6781C203.712 14.7318 203.761 14.7586 203.859 14.7586H205.013L204.973 15H201.378L201.418 14.7586H202.599C202.715 14.7586 202.786 14.6915 202.813 14.5574L204.423 6.92612H202.719C202.505 6.92612 202.366 7.02447 202.304 7.22118L201.781 8.79035H201.485L201.62 8.16C201.789 7.38212 201.874 6.80541 201.874 6.42988C202.134 6.51035 202.594 6.55059 203.256 6.55059ZM209.22 6.55059H213.257C213.936 6.55059 214.419 6.51035 214.705 6.42988C214.571 6.74282 214.41 7.31953 214.222 8.16L214.088 8.79035H213.793L213.968 7.08706C213.968 6.93506 213.869 6.85906 213.672 6.85906H210.843L210.051 10.5875H212.76C212.85 10.5786 212.912 10.516 212.948 10.3998L213.216 9.56824H213.444L212.921 11.9824H212.693L212.814 11.1508C212.814 11.0256 212.765 10.9631 212.667 10.9631H209.984L209.193 14.6915H212.157C212.372 14.6915 212.51 14.5932 212.573 14.3965L213.136 12.7602H213.431L213.297 13.3906C213.127 14.1864 213.042 14.7631 213.042 15.1207C212.783 15.0402 212.322 15 211.661 15H207.436L207.476 14.7586H208.093C208.209 14.7586 208.281 14.6915 208.308 14.5574C209.381 9.47882 209.917 6.91718 209.917 6.87247C209.917 6.81882 209.868 6.792 209.77 6.792H209.18L209.22 6.55059ZM216.757 6.55059H220.794C221.474 6.55059 221.956 6.51035 222.243 6.42988C222.108 6.74282 221.947 7.31953 221.76 8.16L221.626 8.79035H221.331L221.505 7.08706C221.505 6.93506 221.407 6.85906 221.21 6.85906H218.38L217.589 10.5875H220.298C220.387 10.5786 220.45 10.516 220.486 10.3998L220.754 9.56824H220.982L220.459 11.9824H220.231L220.351 11.1508C220.351 11.0256 220.302 10.9631 220.204 10.9631H217.522L216.73 14.6915H219.694C219.909 14.6915 220.047 14.5932 220.11 14.3965L220.673 12.7602H220.968L220.834 13.3906C220.664 14.1864 220.579 14.7631 220.579 15.1207C220.32 15.0402 219.86 15 219.198 15H214.973L215.014 14.7586H215.631C215.747 14.7586 215.818 14.6915 215.845 14.5574C216.918 9.47882 217.455 6.91718 217.455 6.87247C217.455 6.81882 217.405 6.792 217.307 6.792H216.717L216.757 6.55059ZM225.89 6.97976L224.281 14.6245C224.281 14.7139 224.33 14.7586 224.429 14.7586H225.019L224.978 15H222.511L222.551 14.7586H223.168C223.284 14.7586 223.356 14.6915 223.382 14.5574C224.455 9.47882 224.992 6.91718 224.992 6.87247C224.992 6.81882 224.943 6.792 224.844 6.792H224.254L224.294 6.55059H226.762L226.722 6.792H226.118C226.002 6.792 225.926 6.85459 225.89 6.97976ZM227.808 12.6529L227.835 13.8868C227.853 14.4412 228.001 14.7184 228.278 14.7184C228.457 14.7184 228.604 14.6245 228.72 14.4367C228.845 14.2489 228.908 14.0075 228.908 13.7125L229.163 13.6722C229.163 14.1282 229.042 14.4904 228.801 14.7586C228.568 15.0268 228.273 15.1609 227.916 15.1609C227.281 15.1609 226.945 14.6826 226.91 13.7259L226.856 12.4115C226.829 11.8304 226.709 11.428 226.494 11.2045C226.279 10.972 225.926 10.8558 225.434 10.8558L225.501 10.6412L229.324 6.792H228.693L228.734 6.55059H230.464L230.424 6.792H230.075C229.932 6.792 229.802 6.85459 229.686 6.97976L226.051 10.6144C226.695 10.6233 227.142 10.8111 227.393 11.1776C227.652 11.5442 227.79 12.036 227.808 12.6529ZM232.185 6.55059H236.222C236.902 6.55059 237.385 6.51035 237.671 6.42988C237.537 6.74282 237.376 7.31953 237.188 8.16L237.054 8.79035H236.759L236.933 7.08706C236.933 6.93506 236.835 6.85906 236.638 6.85906H233.808L233.017 10.5875H235.726C235.815 10.5786 235.878 10.516 235.914 10.3998L236.182 9.56824H236.41L235.887 11.9824H235.659L235.78 11.1508C235.78 11.0256 235.731 10.9631 235.632 10.9631H232.95L232.159 14.6915H235.123C235.337 14.6915 235.476 14.5932 235.538 14.3965L236.102 12.7602H236.397L236.263 13.3906C236.093 14.1864 236.008 14.7631 236.008 15.1207C235.748 15.0402 235.288 15 234.626 15H230.402L230.442 14.7586H231.059C231.175 14.7586 231.247 14.6915 231.273 14.5574C232.346 9.47882 232.883 6.91718 232.883 6.87247C232.883 6.81882 232.834 6.792 232.735 6.792H232.145L232.185 6.55059ZM241.117 12.4518L240.527 12.5188L239.293 6.97976C239.267 6.85459 239.2 6.792 239.092 6.792H238.623L238.663 6.55059H240.876L240.836 6.792H240.205L241.278 11.5532L244.108 6.792H243.478L243.518 6.55059H245.248L245.208 6.792H244.739C244.631 6.792 244.537 6.85459 244.457 6.97976L241.117 12.4518ZM240.501 11.7544L241.359 11.9824C240.992 13.7169 240.809 14.6155 240.809 14.6781C240.809 14.7318 240.858 14.7586 240.957 14.7586H241.842L241.801 15H238.744L238.784 14.7586H239.696C239.812 14.7586 239.884 14.6915 239.91 14.5574L240.501 11.7544ZM243.559 16.3144C244.454 15.6348 245.164 14.6647 245.692 13.404C246.219 12.1433 246.483 10.8692 246.483 9.58165C246.483 8.28518 246.184 7.31953 245.585 6.68471L245.746 6.48353C246.327 6.83224 246.76 7.324 247.047 7.95882C247.333 8.58471 247.476 9.29106 247.476 10.0779C247.476 11.3565 247.123 12.6082 246.416 13.8332C245.719 15.0581 244.784 15.9522 243.613 16.5155L243.559 16.3144Z" fill="#6082FA"/>
</svg>
