<svg width="484" height="23" viewBox="0 0 484 23" fill="none" xmlns="http://www.w3.org/2000/svg">
<path opacity="0.86" d="M40.5872 11.87H32.7011V10.8038H40.5872V11.87ZM40.5872 15.29H32.7011V14.2238H40.5872V15.29Z" fill="#6082FA"/>
<path opacity="0.86" d="M55.6246 4.78859H53.3111L50.8366 16.5373H53.1702C54.0286 16.5373 54.8199 16.2691 55.5441 15.7326C56.2684 15.1961 56.8518 14.5188 57.2944 13.7007C58.2064 11.9974 58.6624 10.3008 58.6624 8.61094C58.6624 7.40388 58.3807 6.46506 57.8174 5.79447C57.2675 5.12388 56.5366 4.78859 55.6246 4.78859ZM50.8768 4.32588H55.7453C57.0865 4.32588 58.146 4.72153 58.9239 5.51282C59.7018 6.29071 60.0907 7.38376 60.0907 8.792C60.0907 9.74423 59.9231 10.7032 59.5878 11.6688C59.2659 12.6211 58.8166 13.4995 58.2399 14.3042C57.6632 15.0955 56.9188 15.746 56.0068 16.2556C55.1082 16.7519 54.1292 17 53.0696 17H48.2012L48.2615 16.6379H49.1869C49.3613 16.6379 49.4686 16.5373 49.5088 16.3361C51.1182 8.71824 51.9229 4.87576 51.9229 4.80871C51.9229 4.72823 51.8492 4.688 51.7016 4.688H50.8165L50.8768 4.32588ZM66.3539 8.06776C67.0647 8.06776 67.5945 8.24212 67.9432 8.59082C68.3053 8.92612 68.4864 9.41565 68.4864 10.0594C68.4864 10.6898 68.2382 11.2396 67.742 11.7091C66.8971 12.5138 65.6431 12.9161 63.98 12.9161C63.4838 12.9161 63.0546 12.8759 62.6925 12.7954V12.4132C63.1619 12.4802 63.5508 12.5138 63.8593 12.5138C64.9725 12.5138 65.8308 12.2321 66.4344 11.6688C67.0513 11.1055 67.3598 10.4886 67.3598 9.818C67.3598 9.45588 67.2592 9.15412 67.058 8.91271C66.8702 8.67129 66.5484 8.55059 66.0924 8.55059C65.6498 8.55059 65.1938 8.75847 64.7244 9.17423C64.2684 9.59 63.9062 10.1064 63.638 10.7233C63.1015 12.0242 62.8333 13.1508 62.8333 14.1031C62.8333 15.8734 63.3698 16.7586 64.4427 16.7586C65.7705 16.7586 66.7428 16.0344 67.3598 14.5859L67.6817 14.6664C67.3598 15.4845 66.8904 16.1215 66.2734 16.5775C65.6699 17.0201 64.9859 17.2414 64.2214 17.2414C63.457 17.2414 62.8132 16.9598 62.2901 16.3965C61.7671 15.8332 61.5055 15.0754 61.5055 14.1232C61.5055 13.1709 61.6866 12.2522 62.0487 11.3671C62.4108 10.4685 62.9741 9.69729 63.7386 9.05353C64.5031 8.39635 65.3748 8.06776 66.3539 8.06776ZM74.6516 8.55059C74.1018 8.55059 73.5921 8.75847 73.1227 9.17423C72.6667 9.59 72.3046 10.1064 72.0363 10.7233C71.4999 12.0242 71.2316 13.1508 71.2316 14.1031C71.2316 15.8734 71.7681 16.7586 72.8411 16.7586C74.1688 16.7586 75.1412 16.0344 75.7581 14.5859L76.08 14.6664C75.7581 15.4845 75.2887 16.1215 74.6718 16.5775C74.0682 17.0201 73.3842 17.2414 72.6198 17.2414C71.8553 17.2414 71.2115 16.9598 70.6885 16.3965C70.1654 15.8332 69.9039 15.0754 69.9039 14.1232C69.9039 13.1709 70.0849 12.2522 70.4471 11.3671C70.8092 10.4685 71.3725 9.69729 72.1369 9.05353C72.9014 8.39635 73.7732 8.06776 74.7522 8.06776C75.4228 8.06776 75.9258 8.24212 76.2611 8.59082C76.6098 8.92612 76.7841 9.33518 76.7841 9.818C76.7841 10.2874 76.6969 10.7099 76.5226 11.0854C76.3616 11.4609 76.1001 11.6487 75.738 11.6487C75.3893 11.6487 75.1278 11.5414 74.9534 11.3268C75.3423 10.7367 75.5368 10.16 75.5368 9.59671C75.5368 8.89929 75.2418 8.55059 74.6516 8.55059Z" fill="#6082FA"/>
<path opacity="0.86" d="M81.7553 10.7384C82.2739 10.5059 82.8238 10.3896 83.4049 10.3896C84.2901 10.3896 84.9875 10.6579 85.4972 11.1944C86.0158 11.7219 86.2751 12.4685 86.2751 13.4341C86.2751 14.0868 86.1678 14.7485 85.9532 15.4191C85.7386 16.0807 85.4391 16.6932 85.0546 17.2565C84.6701 17.8198 84.1694 18.2802 83.5525 18.6379C82.9355 18.9866 82.2247 19.1609 81.42 19.1609C80.6153 19.1609 79.9536 18.8927 79.4351 18.3562C78.9254 17.8198 78.6706 17.0419 78.6706 16.0226C78.6706 15.0033 78.9478 13.9751 79.5021 12.9379C80.0654 11.9007 80.8165 11.1675 81.7553 10.7384ZM84.7864 11.4224C84.4287 10.9664 83.9548 10.7384 83.3647 10.7384C82.7746 10.7384 82.2292 10.9306 81.7285 11.3151C81.2278 11.6906 80.8299 12.1689 80.5348 12.7501C79.9179 13.9482 79.6094 15.1106 79.6094 16.2372C79.6094 17.0508 79.7838 17.6856 80.1325 18.1416C80.4901 18.5887 80.964 18.8122 81.5541 18.8122C82.1532 18.8122 82.7031 18.6245 83.2038 18.2489C83.7045 17.8645 84.1068 17.3861 84.4108 16.8139C85.0278 15.6247 85.3362 14.4624 85.3362 13.3268C85.3362 12.5132 85.1529 11.8784 84.7864 11.4224ZM89.453 13.1659L89.6408 13.3C89.2116 14.2835 88.8361 15.4146 88.5142 16.6932H88.6215L88.8361 16.1031C89.2563 14.9586 89.6721 14.1628 90.0834 13.7158C90.4947 13.2687 90.8523 13.0452 91.1563 13.0452C91.4603 13.0452 91.6838 13.1435 91.8269 13.3402C91.9789 13.5369 92.0549 13.7918 92.0549 14.1047C92.0549 14.4176 91.9968 14.6904 91.8805 14.9228C91.7643 15.1553 91.5944 15.2715 91.3709 15.2715C91.1563 15.2715 90.9775 15.2 90.8344 15.0569C90.9238 14.9407 91.0088 14.7708 91.0893 14.5473C91.1697 14.3238 91.21 14.1271 91.21 13.9572C91.21 13.6979 91.1027 13.5682 90.8881 13.5682C90.6645 13.5682 90.3874 13.7873 90.0565 14.2254C89.3323 15.1732 88.7198 16.7647 88.2191 19L87.2803 19.0805L88.5947 13.6621L87.7363 13.7292L87.7229 13.5012C88.3398 13.4207 88.9165 13.3089 89.453 13.1659ZM96.5893 18.3428C96.5893 18.6379 96.7011 18.7854 96.9246 18.7854C97.0945 18.7854 97.2778 18.6736 97.4745 18.4501C97.6712 18.2176 97.8411 17.8913 97.9842 17.4711L98.1987 17.5247C97.8143 18.6155 97.3136 19.1609 96.6966 19.1609C96.1423 19.1609 95.8651 18.8122 95.8651 18.1148C95.8651 17.4085 96.4507 14.9318 97.622 10.6847L96.7637 10.7518L96.7503 10.5238C97.3672 10.4433 97.9439 10.3315 98.4804 10.1885L98.6682 10.3226C98.2926 11.4224 97.85 12.9155 97.3404 14.8021C96.8397 16.6798 96.5893 17.86 96.5893 18.3428ZM95.9992 17.5113H95.8651C95.3107 18.6111 94.667 19.1609 93.9338 19.1609C93.5136 19.1609 93.1604 18.9776 92.8743 18.6111C92.5971 18.2355 92.4585 17.7795 92.4585 17.2431C92.4585 16.6976 92.53 16.1925 92.6731 15.7275C92.8162 15.2626 93.0173 14.8289 93.2766 14.4266C93.5359 14.0153 93.8802 13.6845 94.3093 13.4341C94.7385 13.1748 95.1766 13.0452 95.6237 13.0452C96.482 13.0452 97.09 13.4207 97.4477 14.1718L97.2599 14.4132C96.8397 13.7158 96.3166 13.3671 95.6907 13.3671C95.3063 13.3671 94.9531 13.5056 94.6312 13.7828C94.3183 14.06 94.0724 14.4087 93.8936 14.8289C93.527 15.6873 93.3437 16.4965 93.3437 17.2565C93.3437 17.7572 93.4242 18.1327 93.5851 18.3831C93.755 18.6334 93.9785 18.7586 94.2557 18.7586C94.6402 18.7586 95.0336 18.4367 95.4359 17.7929C95.8383 17.1402 96.1959 16.2104 96.5089 15.0033L95.9992 17.5113ZM102.665 13.0452C103.139 13.0452 103.492 13.1614 103.724 13.3939C103.966 13.6174 104.087 13.9438 104.087 14.3729C104.087 14.7932 103.921 15.1598 103.59 15.4727C103.027 16.0092 102.191 16.2774 101.082 16.2774C100.751 16.2774 100.465 16.2506 100.224 16.1969V15.9421C100.537 15.9868 100.796 16.0092 101.002 16.0092C101.744 16.0092 102.316 15.8214 102.719 15.4459C103.13 15.0704 103.335 14.6591 103.335 14.212C103.335 13.9706 103.268 13.7694 103.134 13.6085C103.009 13.4475 102.795 13.3671 102.491 13.3671C102.195 13.3671 101.891 13.5056 101.579 13.7828C101.275 14.06 101.033 14.4042 100.854 14.8155C100.497 15.6828 100.318 16.4339 100.318 17.0687C100.318 18.2489 100.675 18.8391 101.391 18.8391C102.276 18.8391 102.924 18.3562 103.335 17.3906L103.55 17.4442C103.335 17.9896 103.023 18.4144 102.611 18.7184C102.209 19.0134 101.753 19.1609 101.243 19.1609C100.734 19.1609 100.304 18.9732 99.9557 18.5976C99.607 18.2221 99.4326 17.7169 99.4326 17.0821C99.4326 16.4473 99.5533 15.8348 99.7947 15.2447C100.036 14.6456 100.412 14.1315 100.921 13.7024C101.431 13.2642 102.012 13.0452 102.665 13.0452ZM107.271 13.1659L107.459 13.3C107.03 14.2835 106.654 15.4146 106.332 16.6932H106.44L106.654 16.1031C107.075 14.9586 107.49 14.1628 107.902 13.7158C108.313 13.2687 108.671 13.0452 108.975 13.0452C109.279 13.0452 109.502 13.1435 109.645 13.3402C109.797 13.5369 109.873 13.7918 109.873 14.1047C109.873 14.4176 109.815 14.6904 109.699 14.9228C109.583 15.1553 109.413 15.2715 109.189 15.2715C108.975 15.2715 108.796 15.2 108.653 15.0569C108.742 14.9407 108.827 14.7708 108.908 14.5473C108.988 14.3238 109.028 14.1271 109.028 13.9572C109.028 13.6979 108.921 13.5682 108.706 13.5682C108.483 13.5682 108.206 13.7873 107.875 14.2254C107.151 15.1732 106.538 16.7647 106.037 19L105.099 19.0805L106.413 13.6621L105.555 13.7292L105.541 13.5012C106.158 13.4207 106.735 13.3089 107.271 13.1659ZM110.518 18.9598C110.384 18.8167 110.317 18.6468 110.317 18.4501C110.317 18.2534 110.384 18.088 110.518 17.9539C110.661 17.8108 110.831 17.7393 111.028 17.7393C111.225 17.7393 111.39 17.8108 111.524 17.9539C111.667 18.088 111.739 18.2534 111.739 18.4501C111.739 18.6468 111.667 18.8167 111.524 18.9598C111.39 19.0939 111.225 19.1609 111.028 19.1609C110.831 19.1609 110.661 19.0939 110.518 18.9598ZM115.365 13.1659L115.553 13.3C115.124 14.2835 114.748 15.4146 114.426 16.6932H114.533L114.748 16.1031C115.168 14.9586 115.584 14.1628 115.995 13.7158C116.407 13.2687 116.764 13.0452 117.068 13.0452C117.372 13.0452 117.596 13.1435 117.739 13.3402C117.891 13.5369 117.967 13.7918 117.967 14.1047C117.967 14.4176 117.909 14.6904 117.792 14.9228C117.676 15.1553 117.506 15.2715 117.283 15.2715C117.068 15.2715 116.889 15.2 116.746 15.0569C116.836 14.9407 116.921 14.7708 117.001 14.5473C117.082 14.3238 117.122 14.1271 117.122 13.9572C117.122 13.6979 117.015 13.5682 116.8 13.5682C116.576 13.5682 116.299 13.7873 115.968 14.2254C115.244 15.1732 114.632 16.7647 114.131 19L113.192 19.0805L114.507 13.6621L113.648 13.7292L113.635 13.5012C114.252 13.4207 114.828 13.3089 115.365 13.1659ZM121.603 13.0452C122.077 13.0452 122.43 13.1614 122.662 13.3939C122.904 13.6174 123.024 13.9438 123.024 14.3729C123.024 14.7932 122.859 15.1598 122.528 15.4727C121.965 16.0092 121.129 16.2774 120.02 16.2774C119.689 16.2774 119.403 16.2506 119.162 16.1969V15.9421C119.475 15.9868 119.734 16.0092 119.94 16.0092C120.682 16.0092 121.254 15.8214 121.656 15.4459C122.068 15.0704 122.273 14.6591 122.273 14.212C122.273 13.9706 122.206 13.7694 122.072 13.6085C121.947 13.4475 121.732 13.3671 121.428 13.3671C121.133 13.3671 120.829 13.5056 120.516 13.7828C120.212 14.06 119.971 14.4042 119.792 14.8155C119.434 15.6828 119.256 16.4339 119.256 17.0687C119.256 18.2489 119.613 18.8391 120.329 18.8391C121.214 18.8391 121.862 18.3562 122.273 17.3906L122.488 17.4442C122.273 17.9896 121.96 18.4144 121.549 18.7184C121.147 19.0134 120.691 19.1609 120.181 19.1609C119.671 19.1609 119.242 18.9732 118.894 18.5976C118.545 18.2221 118.37 17.7169 118.37 17.0821C118.37 16.4473 118.491 15.8348 118.733 15.2447C118.974 14.6456 119.35 14.1315 119.859 13.7024C120.369 13.2642 120.95 13.0452 121.603 13.0452ZM126.531 13.3671C126.191 13.3671 125.901 13.4654 125.659 13.6621C125.418 13.8588 125.297 14.1092 125.297 14.4132C125.297 14.7172 125.422 14.9944 125.673 15.2447C125.923 15.4951 126.196 15.7052 126.491 15.8751C126.786 16.036 127.059 16.2506 127.309 16.5188C127.559 16.7871 127.684 17.0732 127.684 17.3772C127.684 17.9494 127.461 18.392 127.014 18.7049C126.576 19.0089 126.044 19.1609 125.418 19.1609C124.792 19.1609 124.242 19.0134 123.768 18.7184C123.92 18.4144 124.063 17.8868 124.197 17.1358L124.425 17.176C124.363 17.5426 124.331 17.8332 124.331 18.0478C124.331 18.2534 124.43 18.4456 124.627 18.6245C124.832 18.7944 125.123 18.8793 125.498 18.8793C125.883 18.8793 126.205 18.7631 126.464 18.5306C126.732 18.2981 126.866 17.9941 126.866 17.6186C126.866 17.3772 126.746 17.1447 126.504 16.9212C126.272 16.6887 126.012 16.4965 125.726 16.3445C125.449 16.1925 125.19 15.9779 124.948 15.7007C124.716 15.4235 124.6 15.1195 124.6 14.7887C124.6 14.2969 124.792 13.8856 125.176 13.5548C125.57 13.2151 126.084 13.0452 126.719 13.0452C127.211 13.0452 127.698 13.1659 128.181 13.4073C128.136 13.5056 128.06 13.7292 127.953 14.0779C127.854 14.4266 127.778 14.7574 127.725 15.0704L127.497 15.0301C127.55 14.744 127.577 14.4713 127.577 14.212C127.577 13.9438 127.488 13.7381 127.309 13.5951C127.139 13.4431 126.88 13.3671 126.531 13.3671ZM132.954 18.1551C132.954 18.0209 132.976 17.8064 133.021 17.5113H132.954C132.382 18.6111 131.72 19.1609 130.969 19.1609C130.164 19.1609 129.762 18.7139 129.762 17.8198C129.762 17.2386 129.968 16.1612 130.379 14.5875L130.62 13.6621L129.762 13.7292L129.749 13.5012C130.365 13.4207 130.942 13.3089 131.479 13.1659L131.666 13.3C130.915 15.6336 130.54 17.1268 130.54 17.7795C130.54 18.4322 130.786 18.7586 131.277 18.7586C131.689 18.7586 132.091 18.4591 132.485 17.86C132.887 17.252 133.218 16.4384 133.477 15.4191L133.933 13.6621L133.075 13.7292L133.061 13.5012C133.678 13.4207 134.255 13.3089 134.791 13.1659L134.979 13.3C134.666 14.2299 134.371 15.2268 134.094 16.2908C133.817 17.3548 133.678 18.0388 133.678 18.3428C133.678 18.6379 133.79 18.7854 134.013 18.7854C134.183 18.7854 134.367 18.6736 134.563 18.4501C134.76 18.2176 134.93 17.8913 135.073 17.4711L135.288 17.5247C134.903 18.6155 134.402 19.1609 133.785 19.1609C133.231 19.1609 132.954 18.8256 132.954 18.1551ZM137.509 18.3428C137.509 18.6379 137.62 18.7854 137.844 18.7854C138.014 18.7854 138.197 18.6736 138.394 18.4501C138.591 18.2176 138.76 17.8913 138.903 17.4711L139.118 17.5247C138.734 18.6155 138.233 19.1609 137.616 19.1609C137.062 19.1609 136.784 18.8122 136.784 18.1148C136.784 17.4085 137.37 14.9318 138.541 10.6847L137.683 10.7518L137.67 10.5238C138.287 10.4433 138.863 10.3315 139.4 10.1885L139.587 10.3226C139.212 11.4224 138.769 12.9155 138.26 14.8021C137.759 16.6798 137.509 17.86 137.509 18.3428ZM140.709 13.6889L140.776 13.4341H143.753L143.686 13.6889H140.709ZM142.841 11.7845L143.029 11.9186C142.824 12.5445 142.546 13.528 142.198 14.8692C141.858 16.2104 141.652 17.0776 141.581 17.4711C141.509 17.8555 141.473 18.1461 141.473 18.3428C141.473 18.6379 141.585 18.7854 141.809 18.7854C141.979 18.7854 142.162 18.6736 142.359 18.4501C142.555 18.2176 142.725 17.8913 142.868 17.4711L143.083 17.5247C142.698 18.6155 142.198 19.1609 141.581 19.1609C141.026 19.1609 140.749 18.8256 140.749 18.1551C140.749 17.6007 141.08 16.0539 141.742 13.5146L140.776 13.4341C141.268 13.4341 141.666 13.3179 141.97 13.0854C142.274 12.844 142.564 12.4104 142.841 11.7845ZM147.621 15.6336H146.307C145.895 17.5292 145.69 18.5261 145.69 18.6245C145.69 18.7139 145.739 18.7586 145.837 18.7586H146.816L146.776 19H143.919L143.96 18.7586H144.577C144.693 18.7586 144.764 18.6915 144.791 18.5574C145.864 13.4788 146.401 10.9172 146.401 10.8725C146.401 10.8188 146.351 10.792 146.253 10.792H145.663L145.703 10.5506H148.694C149.302 10.5506 149.803 10.7205 150.196 11.0602C150.589 11.4 150.786 11.8694 150.786 12.4685C150.786 13.4162 150.46 14.1807 149.807 14.7619C149.154 15.3431 148.426 15.6336 147.621 15.6336ZM148.546 10.8591H147.326L146.374 15.3252H147.634C148.278 15.3252 148.815 15.0122 149.244 14.3864C149.682 13.7605 149.901 13.1033 149.901 12.4148C149.901 11.9678 149.785 11.5967 149.552 11.3016C149.329 11.0066 148.993 10.8591 148.546 10.8591ZM154.826 18.1551C154.826 18.0209 154.848 17.8064 154.893 17.5113H154.826C154.253 18.6111 153.592 19.1609 152.841 19.1609C152.036 19.1609 151.634 18.7139 151.634 17.8198C151.634 17.2386 151.839 16.1612 152.251 14.5875L152.492 13.6621L151.634 13.7292L151.62 13.5012C152.237 13.4207 152.814 13.3089 153.35 13.1659L153.538 13.3C152.787 15.6336 152.412 17.1268 152.412 17.7795C152.412 18.4322 152.657 18.7586 153.149 18.7586C153.56 18.7586 153.963 18.4591 154.356 17.86C154.759 17.252 155.089 16.4384 155.349 15.4191L155.805 13.6621L154.946 13.7292L154.933 13.5012C155.55 13.4207 156.127 13.3089 156.663 13.1659L156.851 13.3C156.538 14.2299 156.243 15.2268 155.966 16.2908C155.688 17.3548 155.55 18.0388 155.55 18.3428C155.55 18.6379 155.662 18.7854 155.885 18.7854C156.055 18.7854 156.238 18.6736 156.435 18.4501C156.632 18.2176 156.802 17.8913 156.945 17.4711L157.159 17.5247C156.775 18.6155 156.274 19.1609 155.657 19.1609C155.103 19.1609 154.826 18.8256 154.826 18.1551ZM159.581 16.6932H159.689L159.903 16.1031C160.654 14.0645 161.477 13.0452 162.371 13.0452C162.791 13.0452 163.14 13.2329 163.417 13.6085C163.703 13.9751 163.846 14.4311 163.846 14.9765C163.846 15.5129 163.775 16.0136 163.632 16.4786C163.489 16.9435 163.288 17.3816 163.028 17.7929C162.769 18.1953 162.425 18.5261 161.996 18.7854C161.566 19.0358 161.128 19.1609 160.681 19.1609C160.234 19.1609 159.85 19.076 159.528 18.9061C159.206 18.7273 158.956 18.4948 158.777 18.2087L158.897 17.8466C159.327 18.5261 159.877 18.8659 160.547 18.8659C161.057 18.8659 161.499 18.6334 161.875 18.1685C162.25 17.6946 162.514 17.176 162.666 16.6127C162.827 16.0405 162.908 15.5174 162.908 15.0435C162.908 14.5607 162.827 14.1941 162.666 13.9438C162.514 13.6845 162.335 13.5548 162.13 13.5548C161.924 13.5548 161.718 13.6442 161.513 13.8231C161.307 13.9929 161.084 14.2612 160.842 14.6278C160.324 15.4325 159.836 16.7513 159.38 18.5842L158.978 18.1551L158.576 19.1609L158.348 19.0805L160.453 10.6847L159.595 10.7518L159.581 10.5238C160.198 10.4433 160.775 10.3315 161.312 10.1885L161.499 10.3226C160.775 12.4327 160.136 14.5562 159.581 16.6932ZM165.909 18.3428C165.909 18.6379 166.021 18.7854 166.244 18.7854C166.414 18.7854 166.598 18.6736 166.794 18.4501C166.991 18.2176 167.161 17.8913 167.304 17.4711L167.518 17.5247C167.134 18.6155 166.633 19.1609 166.016 19.1609C165.462 19.1609 165.185 18.8122 165.185 18.1148C165.185 17.4085 165.77 14.9318 166.942 10.6847L166.083 10.7518L166.07 10.5238C166.687 10.4433 167.264 10.3315 167.8 10.1885L167.988 10.3226C167.612 11.4224 167.17 12.9155 166.66 14.8021C166.159 16.6798 165.909 17.86 165.909 18.3428ZM170.665 11.704C170.549 11.5878 170.491 11.4447 170.491 11.2748C170.491 11.1049 170.549 10.9619 170.665 10.8456C170.781 10.7294 170.925 10.6713 171.094 10.6713C171.264 10.6713 171.407 10.7294 171.524 10.8456C171.64 10.9619 171.698 11.1049 171.698 11.2748C171.698 11.4447 171.64 11.5878 171.524 11.704C171.407 11.8202 171.264 11.8784 171.094 11.8784C170.925 11.8784 170.781 11.8202 170.665 11.704ZM169.15 18.1551C169.15 17.6812 169.476 16.1835 170.129 13.6621L169.27 13.7292L169.257 13.5012C169.874 13.4207 170.451 13.3089 170.987 13.1659L171.175 13.3C170.862 14.2299 170.567 15.2268 170.29 16.2908C170.013 17.3548 169.874 18.0388 169.874 18.3428C169.874 18.6379 169.986 18.7854 170.209 18.7854C170.379 18.7854 170.562 18.6736 170.759 18.4501C170.956 18.2176 171.126 17.8913 171.269 17.4711L171.483 17.5247C171.099 18.6155 170.598 19.1609 169.981 19.1609C169.427 19.1609 169.15 18.8256 169.15 18.1551ZM175.887 13.3671C175.521 13.3671 175.181 13.5056 174.868 13.7828C174.564 14.06 174.323 14.4042 174.144 14.8155C173.786 15.6828 173.607 16.4339 173.607 17.0687C173.607 18.2489 173.965 18.8391 174.68 18.8391C175.565 18.8391 176.214 18.3562 176.625 17.3906L176.84 17.4442C176.625 17.9896 176.312 18.4144 175.901 18.7184C175.498 19.0134 175.042 19.1609 174.533 19.1609C174.023 19.1609 173.594 18.9732 173.245 18.5976C172.897 18.2221 172.722 17.7169 172.722 17.0821C172.722 16.4473 172.843 15.8348 173.084 15.2447C173.326 14.6456 173.701 14.1315 174.211 13.7024C174.721 13.2642 175.302 13.0452 175.954 13.0452C176.401 13.0452 176.737 13.1614 176.96 13.3939C177.193 13.6174 177.309 13.8901 177.309 14.212C177.309 14.5249 177.251 14.8066 177.135 15.0569C177.027 15.3073 176.853 15.4325 176.612 15.4325C176.379 15.4325 176.205 15.3609 176.089 15.2179C176.348 14.8245 176.477 14.44 176.477 14.0645C176.477 13.5995 176.281 13.3671 175.887 13.3671ZM181.298 10.9798L179.689 18.6245C179.689 18.7139 179.738 18.7586 179.837 18.7586H180.427L180.386 19H177.919L177.959 18.7586H178.576C178.692 18.7586 178.764 18.6915 178.79 18.5574C179.863 13.4788 180.4 10.9172 180.4 10.8725C180.4 10.8188 180.351 10.792 180.252 10.792H179.662L179.702 10.5506H182.17L182.13 10.792H181.526C181.41 10.792 181.334 10.8546 181.298 10.9798ZM183.216 16.6529L183.243 17.8868C183.261 18.4412 183.409 18.7184 183.686 18.7184C183.865 18.7184 184.012 18.6245 184.128 18.4367C184.254 18.2489 184.316 18.0075 184.316 17.7125L184.571 17.6722C184.571 18.1282 184.45 18.4904 184.209 18.7586C183.976 19.0268 183.681 19.1609 183.324 19.1609C182.689 19.1609 182.354 18.6826 182.318 17.7259L182.264 16.4115C182.237 15.8304 182.117 15.428 181.902 15.2045C181.687 14.972 181.334 14.8558 180.842 14.8558L180.91 14.6412L184.732 10.792H184.102L184.142 10.5506H185.872L185.832 10.792H185.483C185.34 10.792 185.21 10.8546 185.094 10.9798L181.459 14.6144C182.103 14.6233 182.55 14.8111 182.801 15.1776C183.06 15.5442 183.198 16.036 183.216 16.6529ZM189.444 13.0452C189.918 13.0452 190.271 13.1614 190.504 13.3939C190.745 13.6174 190.866 13.9438 190.866 14.3729C190.866 14.7932 190.7 15.1598 190.37 15.4727C189.806 16.0092 188.97 16.2774 187.862 16.2774C187.531 16.2774 187.245 16.2506 187.003 16.1969V15.9421C187.316 15.9868 187.576 16.0092 187.781 16.0092C188.523 16.0092 189.096 15.8214 189.498 15.4459C189.909 15.0704 190.115 14.6591 190.115 14.212C190.115 13.9706 190.048 13.7694 189.914 13.6085C189.788 13.4475 189.574 13.3671 189.27 13.3671C188.975 13.3671 188.671 13.5056 188.358 13.7828C188.054 14.06 187.812 14.4042 187.634 14.8155C187.276 15.6828 187.097 16.4339 187.097 17.0687C187.097 18.2489 187.455 18.8391 188.17 18.8391C189.055 18.8391 189.704 18.3562 190.115 17.3906L190.329 17.4442C190.115 17.9896 189.802 18.4144 189.391 18.7184C188.988 19.0134 188.532 19.1609 188.023 19.1609C187.513 19.1609 187.084 18.9732 186.735 18.5976C186.386 18.2221 186.212 17.7169 186.212 17.0821C186.212 16.4473 186.333 15.8348 186.574 15.2447C186.816 14.6456 187.191 14.1315 187.701 13.7024C188.21 13.2642 188.792 13.0452 189.444 13.0452ZM193.957 18.7184C194.529 18.7184 195.097 18.3026 195.66 17.4711C196.232 16.6306 196.518 15.8482 196.518 15.124C196.518 14.3908 196.286 13.7918 195.821 13.3268C196.045 13.1391 196.25 13.0452 196.438 13.0452C196.787 13.0452 196.961 13.5369 196.961 14.5205C196.961 15.504 196.854 16.4071 196.639 17.2296C196.425 18.0433 196.143 18.7362 195.794 19.3085C195.454 19.8807 195.065 20.3769 194.627 20.7972C193.778 21.6376 192.915 22.0579 192.039 22.0579C191.592 22.0579 191.257 21.9551 191.033 21.7494C190.801 21.5438 190.684 21.3024 190.684 21.0252C190.684 20.748 190.742 20.4976 190.859 20.2741C190.966 20.0506 191.131 19.9388 191.355 19.9388C191.578 19.9388 191.762 20.0014 191.905 20.1266C191.645 20.4574 191.516 20.7614 191.516 21.0386C191.516 21.4856 191.753 21.7092 192.227 21.7092C192.54 21.7092 192.902 21.5929 193.313 21.3605C193.724 21.1369 194.14 20.8151 194.56 20.3948C194.981 19.9835 195.365 19.4292 195.714 18.7318C196.071 18.0344 196.322 17.2788 196.465 16.4652C196.17 17.2431 195.772 17.8868 195.271 18.3965C194.779 18.9061 194.212 19.1609 193.568 19.1609C193.237 19.1609 192.969 19.0492 192.763 18.8256C192.566 18.5932 192.468 18.2802 192.468 17.8868C192.468 17.4934 192.616 16.8049 192.911 15.8214C193.215 14.8379 193.367 14.1941 193.367 13.8901C193.367 13.5772 193.25 13.4207 193.018 13.4207C192.848 13.4207 192.669 13.5369 192.481 13.7694C192.294 13.9929 192.142 14.3148 192.025 14.7351L191.797 14.6814C192.128 13.5906 192.607 13.0452 193.233 13.0452C193.814 13.0452 194.104 13.3581 194.104 13.984C194.104 14.2344 193.966 14.8558 193.689 15.8482C193.411 16.8407 193.273 17.4934 193.273 17.8064C193.273 18.4144 193.501 18.7184 193.957 18.7184ZM202.71 18.7586L202.348 16.1701H199.384L197.936 18.7586H198.767L198.727 19H196.796L196.849 18.7586H197.319C197.444 18.7586 197.538 18.696 197.6 18.5708L202.107 10.5506H202.536L203.636 18.5708C203.654 18.696 203.721 18.7586 203.837 18.7586H204.306L204.266 19H201.839L201.879 18.7586H202.71ZM201.772 11.9186L199.585 15.7946H202.295L201.772 11.9186ZM206.503 18.3428C206.503 18.6379 206.614 18.7854 206.838 18.7854C207.008 18.7854 207.191 18.6736 207.388 18.4501C207.585 18.2176 207.754 17.8913 207.898 17.4711L208.112 17.5247C207.728 18.6155 207.227 19.1609 206.61 19.1609C206.056 19.1609 205.778 18.8122 205.778 18.1148C205.778 17.4085 206.364 14.9318 207.535 10.6847L206.677 10.7518L206.664 10.5238C207.281 10.4433 207.857 10.3315 208.394 10.1885L208.582 10.3226C208.206 11.4224 207.763 12.9155 207.254 14.8021C206.753 16.6798 206.503 17.86 206.503 18.3428ZM210.293 18.2221L212.426 18.7049C212.891 18.8122 213.221 18.9553 213.418 19.1341C213.615 19.3219 213.713 19.5767 213.713 19.8986C213.713 20.4172 213.427 20.9045 212.855 21.3605C212.292 21.8254 211.648 22.0579 210.924 22.0579C210.199 22.0579 209.609 21.8925 209.153 21.5616C208.706 21.2308 208.483 20.8374 208.483 20.3814C208.483 20.0685 208.59 19.7689 208.805 19.4828C209.01 19.1967 209.319 18.9553 209.73 18.7586L209.998 18.8391C209.73 18.9732 209.524 19.1744 209.381 19.4426C209.238 19.7198 209.167 20.0104 209.167 20.3144C209.167 20.8151 209.332 21.1861 209.663 21.4275C209.994 21.6779 210.418 21.8031 210.937 21.8031C211.465 21.8031 211.947 21.6511 212.385 21.3471C212.833 21.052 213.056 20.6944 213.056 20.2741C213.056 19.8539 212.783 19.5812 212.238 19.456L209.931 18.9464C209.672 18.8927 209.471 18.772 209.328 18.5842C209.185 18.3965 209.113 18.1685 209.113 17.9002C209.113 17.632 209.225 17.3861 209.448 17.1626C209.672 16.9391 209.98 16.8273 210.374 16.8273H211.728L211.688 17.0151H210.374C210.186 17.0151 210.034 17.0732 209.918 17.1894C209.81 17.3056 209.757 17.4442 209.757 17.6052C209.757 17.936 209.936 18.1416 210.293 18.2221ZM212.546 13.2329L212.533 13.0452C212.783 13.0452 212.993 12.9871 213.163 12.8708C213.333 12.7456 213.418 12.5847 213.418 12.388C213.418 12.1913 213.275 12.0035 212.989 11.8247C213.132 11.5207 213.302 11.3687 213.499 11.3687C213.704 11.3687 213.856 11.4268 213.955 11.5431C214.062 11.6593 214.116 11.8068 214.116 11.9856C214.116 12.2986 213.973 12.5847 213.686 12.844C213.409 13.1033 213.029 13.2329 212.546 13.2329ZM210.092 15.5532C210.092 14.8915 210.325 14.3104 210.789 13.8096C211.263 13.3 211.845 13.0452 212.533 13.0452C213.016 13.0452 213.396 13.1748 213.673 13.4341C213.959 13.6845 214.102 14.0421 214.102 14.5071C214.102 15.2581 213.861 15.8661 213.378 16.3311C212.895 16.7871 212.332 17.0151 211.688 17.0151C211.196 17.0151 210.807 16.8899 210.521 16.6395C210.235 16.3802 210.092 16.0181 210.092 15.5532ZM212.52 13.3C212.028 13.3 211.625 13.5727 211.313 14.1181C211 14.6546 210.843 15.1329 210.843 15.5532C210.843 15.9734 210.919 16.2819 211.071 16.4786C211.232 16.6664 211.442 16.7602 211.701 16.7602C212.095 16.7602 212.47 16.5367 212.828 16.0896C213.186 15.6426 213.365 15.0793 213.365 14.3998C213.365 14.06 213.284 13.7918 213.123 13.5951C212.971 13.3984 212.77 13.3 212.52 13.3ZM215.32 17.0553C215.32 16.1344 215.588 15.2536 216.124 14.4132C216.384 14.0108 216.723 13.6845 217.144 13.4341C217.564 13.1748 218.042 13.0452 218.579 13.0452C219.124 13.0452 219.567 13.2285 219.907 13.5951C220.246 13.9616 220.416 14.4624 220.416 15.0972C220.416 15.732 220.3 16.3489 220.067 16.948C219.835 17.5471 219.468 18.0656 218.968 18.5038C218.467 18.9419 217.904 19.1609 217.278 19.1609C216.652 19.1609 216.169 18.9776 215.829 18.6111C215.49 18.2445 215.32 17.7259 215.32 17.0553ZM218.471 13.3402C217.989 13.3402 217.559 13.5816 217.184 14.0645C216.817 14.5473 216.554 15.0748 216.393 15.6471C216.241 16.2193 216.165 16.7558 216.165 17.2565C216.165 17.7482 216.263 18.1416 216.46 18.4367C216.665 18.7228 216.943 18.8659 217.291 18.8659C217.649 18.8659 217.98 18.7228 218.284 18.4367C218.597 18.1506 218.843 17.7974 219.021 17.3772C219.388 16.5188 219.571 15.7767 219.571 15.1508C219.571 14.516 219.473 14.0555 219.276 13.7694C219.079 13.4833 218.811 13.3402 218.471 13.3402Z" fill="#6082FA"/>
<path opacity="0.86" d="M227.493 5.68471C226.563 6.37318 225.839 7.33882 225.32 8.58165C224.802 9.81553 224.542 11.0941 224.542 12.4174C224.542 13.7318 224.846 14.6974 225.454 15.3144L225.267 15.5155C224.703 15.1668 224.274 14.6751 223.979 14.0402C223.693 13.4054 223.55 12.6991 223.55 11.9212C223.55 10.6426 223.899 9.39529 224.596 8.17929C225.302 6.95435 226.237 6.05576 227.399 5.48353L227.493 5.68471ZM230.691 5.73835C231.209 5.50588 231.759 5.38965 232.34 5.38965C233.226 5.38965 233.923 5.65788 234.433 6.19435C234.951 6.72188 235.211 7.46847 235.211 8.43412C235.211 9.08682 235.103 9.74847 234.889 10.4191C234.674 11.0807 234.375 11.6932 233.99 12.2565C233.606 12.8198 233.105 13.2802 232.488 13.6379C231.871 13.9866 231.16 14.1609 230.356 14.1609C229.551 14.1609 228.889 13.8927 228.371 13.3562C227.861 12.8198 227.606 12.0419 227.606 11.0226C227.606 10.0033 227.883 8.97506 228.438 7.93788C229.001 6.90071 229.752 6.16753 230.691 5.73835ZM233.722 6.42235C233.364 5.96635 232.89 5.73835 232.3 5.73835C231.71 5.73835 231.165 5.93059 230.664 6.31506C230.163 6.69059 229.765 7.16894 229.47 7.75012C228.853 8.94824 228.545 10.1106 228.545 11.2372C228.545 12.0508 228.719 12.6856 229.068 13.1416C229.426 13.5887 229.9 13.8122 230.49 13.8122C231.089 13.8122 231.639 13.6245 232.139 13.2489C232.64 12.8645 233.042 12.3861 233.346 11.8139C233.963 10.6247 234.272 9.46235 234.272 8.32682C234.272 7.51318 234.088 6.87835 233.722 6.42235ZM238.389 8.16588L238.576 8.3C238.147 9.28353 237.772 10.4146 237.45 11.6932H237.557L237.772 11.1031C238.192 9.95859 238.608 9.16282 239.019 8.71576C239.43 8.26871 239.788 8.04518 240.092 8.04518C240.396 8.04518 240.619 8.14353 240.762 8.34024C240.914 8.53694 240.99 8.79176 240.99 9.10471C240.99 9.41765 240.932 9.69035 240.816 9.92282C240.7 10.1553 240.53 10.2715 240.306 10.2715C240.092 10.2715 239.913 10.2 239.77 10.0569C239.859 9.94071 239.944 9.77082 240.025 9.54729C240.105 9.32376 240.145 9.12706 240.145 8.95718C240.145 8.69788 240.038 8.56824 239.824 8.56824C239.6 8.56824 239.323 8.78729 238.992 9.22541C238.268 10.1732 237.655 11.7647 237.155 14L236.216 14.0805L237.53 8.66212L236.672 8.72918L236.658 8.50118C237.275 8.42071 237.852 8.30894 238.389 8.16588ZM245.525 13.3428C245.525 13.6379 245.637 13.7854 245.86 13.7854C246.03 13.7854 246.213 13.6736 246.41 13.4501C246.607 13.2176 246.777 12.8913 246.92 12.4711L247.134 12.5247C246.75 13.6155 246.249 14.1609 245.632 14.1609C245.078 14.1609 244.801 13.8122 244.801 13.1148C244.801 12.4085 245.386 9.93176 246.558 5.68471L245.699 5.75176L245.686 5.52376C246.303 5.44329 246.879 5.33153 247.416 5.18847L247.604 5.32259C247.228 6.42235 246.786 7.91553 246.276 9.80212C245.775 11.6798 245.525 12.86 245.525 13.3428ZM244.935 12.5113H244.801C244.246 13.6111 243.602 14.1609 242.869 14.1609C242.449 14.1609 242.096 13.9776 241.81 13.6111C241.533 13.2355 241.394 12.7795 241.394 12.2431C241.394 11.6976 241.466 11.1925 241.609 10.7275C241.752 10.2626 241.953 9.82894 242.212 9.42659C242.471 9.01529 242.816 8.68447 243.245 8.43412C243.674 8.17482 244.112 8.04518 244.559 8.04518C245.418 8.04518 246.026 8.42071 246.383 9.17176L246.195 9.41318C245.775 8.71576 245.252 8.36706 244.626 8.36706C244.242 8.36706 243.889 8.50565 243.567 8.78282C243.254 9.06 243.008 9.40871 242.829 9.82894C242.462 10.6873 242.279 11.4965 242.279 12.2565C242.279 12.7572 242.36 13.1327 242.521 13.3831C242.69 13.6334 242.914 13.7586 243.191 13.7586C243.576 13.7586 243.969 13.4367 244.371 12.7929C244.774 12.1402 245.131 11.2104 245.444 10.0033L244.935 12.5113ZM251.6 8.04518C252.074 8.04518 252.427 8.16141 252.66 8.39388C252.901 8.61741 253.022 8.94376 253.022 9.37294C253.022 9.79318 252.857 10.1598 252.526 10.4727C251.962 11.0092 251.126 11.2774 250.018 11.2774C249.687 11.2774 249.401 11.2506 249.159 11.1969V10.9421C249.472 10.9868 249.732 11.0092 249.937 11.0092C250.679 11.0092 251.252 10.8214 251.654 10.4459C252.065 10.0704 252.271 9.65906 252.271 9.212C252.271 8.97059 252.204 8.76941 252.07 8.60847C251.945 8.44753 251.73 8.36706 251.426 8.36706C251.131 8.36706 250.827 8.50565 250.514 8.78282C250.21 9.06 249.969 9.40424 249.79 9.81553C249.432 10.6828 249.253 11.4339 249.253 12.0687C249.253 13.2489 249.611 13.8391 250.326 13.8391C251.211 13.8391 251.86 13.3562 252.271 12.3906L252.486 12.4442C252.271 12.9896 251.958 13.4144 251.547 13.7184C251.144 14.0134 250.688 14.1609 250.179 14.1609C249.669 14.1609 249.24 13.9732 248.891 13.5976C248.542 13.2221 248.368 12.7169 248.368 12.0821C248.368 11.4473 248.489 10.8348 248.73 10.2447C248.972 9.64565 249.347 9.13153 249.857 8.70235C250.366 8.26424 250.948 8.04518 251.6 8.04518ZM256.207 8.16588L256.395 8.3C255.965 9.28353 255.59 10.4146 255.268 11.6932H255.375L255.59 11.1031C256.01 9.95859 256.426 9.16282 256.837 8.71576C257.248 8.26871 257.606 8.04518 257.91 8.04518C258.214 8.04518 258.438 8.14353 258.581 8.34024C258.733 8.53694 258.809 8.79176 258.809 9.10471C258.809 9.41765 258.751 9.69035 258.634 9.92282C258.518 10.1553 258.348 10.2715 258.125 10.2715C257.91 10.2715 257.731 10.2 257.588 10.0569C257.678 9.94071 257.763 9.77082 257.843 9.54729C257.924 9.32376 257.964 9.12706 257.964 8.95718C257.964 8.69788 257.856 8.56824 257.642 8.56824C257.418 8.56824 257.141 8.78729 256.81 9.22541C256.086 10.1732 255.474 11.7647 254.973 14L254.034 14.0805L255.348 8.66212L254.49 8.72918L254.477 8.50118C255.094 8.42071 255.67 8.30894 256.207 8.16588ZM259.454 13.9598C259.32 13.8167 259.253 13.6468 259.253 13.4501C259.253 13.2534 259.32 13.088 259.454 12.9539C259.597 12.8108 259.767 12.7393 259.963 12.7393C260.16 12.7393 260.325 12.8108 260.46 12.9539C260.603 13.088 260.674 13.2534 260.674 13.4501C260.674 13.6468 260.603 13.8167 260.46 13.9598C260.325 14.0939 260.16 14.1609 259.963 14.1609C259.767 14.1609 259.597 14.0939 259.454 13.9598ZM265.293 8.04518C265.767 8.04518 266.12 8.16141 266.352 8.39388C266.594 8.61741 266.715 8.94376 266.715 9.37294C266.715 9.79318 266.549 10.1598 266.218 10.4727C265.655 11.0092 264.819 11.2774 263.71 11.2774C263.38 11.2774 263.093 11.2506 262.852 11.1969V10.9421C263.165 10.9868 263.424 11.0092 263.63 11.0092C264.372 11.0092 264.944 10.8214 265.347 10.4459C265.758 10.0704 265.964 9.65906 265.964 9.212C265.964 8.97059 265.896 8.76941 265.762 8.60847C265.637 8.44753 265.423 8.36706 265.119 8.36706C264.824 8.36706 264.52 8.50565 264.207 8.78282C263.903 9.06 263.661 9.40424 263.482 9.81553C263.125 10.6828 262.946 11.4339 262.946 12.0687C262.946 13.2489 263.304 13.8391 264.019 13.8391C264.904 13.8391 265.552 13.3562 265.964 12.3906L266.178 12.4442C265.964 12.9896 265.651 13.4144 265.239 13.7184C264.837 14.0134 264.381 14.1609 263.871 14.1609C263.362 14.1609 262.932 13.9732 262.584 13.5976C262.235 13.2221 262.061 12.7169 262.061 12.0821C262.061 11.4473 262.181 10.8348 262.423 10.2447C262.664 9.64565 263.04 9.13153 263.549 8.70235C264.059 8.26424 264.64 8.04518 265.293 8.04518ZM273.132 9.26565C273.132 9.65012 272.913 10.3565 272.474 11.3847C272.045 12.4129 271.831 13.0701 271.831 13.3562C271.831 13.6424 271.942 13.7854 272.166 13.7854C272.336 13.7854 272.519 13.6736 272.716 13.4501C272.913 13.2176 273.082 12.8913 273.225 12.4711L273.44 12.5247C273.056 13.6155 272.555 14.1609 271.938 14.1609C271.384 14.1609 271.106 13.8569 271.106 13.2489C271.106 12.9896 271.308 12.3459 271.71 11.3176C272.121 10.2894 272.327 9.62776 272.327 9.33271C272.327 8.76941 272.121 8.48776 271.71 8.48776C271.263 8.48776 270.78 8.84988 270.261 9.57412C269.662 10.4414 269.13 11.9167 268.665 14L267.727 14.0805L269.041 8.66212L268.183 8.72918L268.169 8.50118C268.786 8.42071 269.363 8.30894 269.899 8.16588L270.087 8.3C269.658 9.28353 269.282 10.4146 268.961 11.6932H269.068L269.282 11.1031C269.765 9.75294 270.288 8.87671 270.852 8.47435C271.12 8.29553 271.339 8.17929 271.509 8.12565C271.688 8.072 271.907 8.04518 272.166 8.04518C272.434 8.04518 272.662 8.15247 272.85 8.36706C273.038 8.58165 273.132 8.88118 273.132 9.26565ZM277.838 8.36706C277.472 8.36706 277.132 8.50565 276.819 8.78282C276.515 9.06 276.273 9.40424 276.095 9.81553C275.737 10.6828 275.558 11.4339 275.558 12.0687C275.558 13.2489 275.916 13.8391 276.631 13.8391C277.516 13.8391 278.165 13.3562 278.576 12.3906L278.79 12.4442C278.576 12.9896 278.263 13.4144 277.852 13.7184C277.449 14.0134 276.993 14.1609 276.484 14.1609C275.974 14.1609 275.545 13.9732 275.196 13.5976C274.847 13.2221 274.673 12.7169 274.673 12.0821C274.673 11.4473 274.794 10.8348 275.035 10.2447C275.277 9.64565 275.652 9.13153 276.162 8.70235C276.671 8.26424 277.253 8.04518 277.905 8.04518C278.352 8.04518 278.688 8.16141 278.911 8.39388C279.144 8.61741 279.26 8.89012 279.26 9.212C279.26 9.52494 279.202 9.80659 279.085 10.0569C278.978 10.3073 278.804 10.4325 278.562 10.4325C278.33 10.4325 278.156 10.3609 278.039 10.2179C278.299 9.82447 278.428 9.44 278.428 9.06447C278.428 8.59953 278.232 8.36706 277.838 8.36706ZM282.512 8.16588L282.699 8.3C282.27 9.28353 281.895 10.4146 281.573 11.6932H281.68L281.895 11.1031C282.315 9.95859 282.731 9.16282 283.142 8.71576C283.553 8.26871 283.911 8.04518 284.215 8.04518C284.519 8.04518 284.742 8.14353 284.886 8.34024C285.038 8.53694 285.114 8.79176 285.114 9.10471C285.114 9.41765 285.055 9.69035 284.939 9.92282C284.823 10.1553 284.653 10.2715 284.43 10.2715C284.215 10.2715 284.036 10.2 283.893 10.0569C283.982 9.94071 284.067 9.77082 284.148 9.54729C284.228 9.32376 284.269 9.12706 284.269 8.95718C284.269 8.69788 284.161 8.56824 283.947 8.56824C283.723 8.56824 283.446 8.78729 283.115 9.22541C282.391 10.1732 281.778 11.7647 281.278 14L280.339 14.0805L281.653 8.66212L280.795 8.72918L280.782 8.50118C281.398 8.42071 281.975 8.30894 282.512 8.16588ZM287.663 13.7184C288.235 13.7184 288.803 13.3026 289.366 12.4711C289.939 11.6306 290.225 10.8482 290.225 10.124C290.225 9.39082 289.992 8.79176 289.527 8.32682C289.751 8.13906 289.956 8.04518 290.144 8.04518C290.493 8.04518 290.667 8.53694 290.667 9.52047C290.667 10.504 290.56 11.4071 290.345 12.2296C290.131 13.0433 289.849 13.7362 289.5 14.3085C289.161 14.8807 288.772 15.3769 288.334 15.7972C287.484 16.6376 286.621 17.0579 285.745 17.0579C285.298 17.0579 284.963 16.9551 284.739 16.7494C284.507 16.5438 284.391 16.3024 284.391 16.0252C284.391 15.748 284.449 15.4976 284.565 15.2741C284.672 15.0506 284.838 14.9388 285.061 14.9388C285.285 14.9388 285.468 15.0014 285.611 15.1266C285.352 15.4574 285.222 15.7614 285.222 16.0386C285.222 16.4856 285.459 16.7092 285.933 16.7092C286.246 16.7092 286.608 16.5929 287.019 16.3605C287.431 16.1369 287.846 15.8151 288.267 15.3948C288.687 14.9835 289.071 14.4292 289.42 13.7318C289.778 13.0344 290.028 12.2788 290.171 11.4652C289.876 12.2431 289.478 12.8868 288.977 13.3965C288.486 13.9061 287.918 14.1609 287.274 14.1609C286.943 14.1609 286.675 14.0492 286.469 13.8256C286.273 13.5932 286.174 13.2802 286.174 12.8868C286.174 12.4934 286.322 11.8049 286.617 10.8214C286.921 9.83788 287.073 9.19412 287.073 8.89012C287.073 8.57718 286.957 8.42071 286.724 8.42071C286.554 8.42071 286.376 8.53694 286.188 8.76941C286 8.99294 285.848 9.31482 285.732 9.73506L285.504 9.68141C285.835 8.59059 286.313 8.04518 286.939 8.04518C287.52 8.04518 287.811 8.35812 287.811 8.984C287.811 9.23435 287.672 9.85576 287.395 10.8482C287.118 11.8407 286.979 12.4934 286.979 12.8064C286.979 13.4144 287.207 13.7184 287.663 13.7184ZM294.365 8.16588L294.552 8.3C294.123 9.28353 293.748 10.4146 293.426 11.6932H293.533L293.748 11.1031C294.49 9.06447 295.339 8.04518 296.296 8.04518C296.68 8.04518 297.007 8.23294 297.275 8.60847C297.552 8.984 297.691 9.44 297.691 9.97647C297.691 10.5129 297.619 11.0136 297.476 11.4786C297.342 11.9346 297.145 12.3638 296.886 12.7661C296.627 13.1595 296.287 13.4814 295.867 13.7318C295.447 13.9821 294.982 14.1073 294.472 14.1073C293.694 14.1073 293.086 13.7631 292.648 13.0746L292.742 12.8466C293.171 13.4993 293.734 13.8256 294.432 13.8256C294.834 13.8256 295.192 13.6915 295.505 13.4233C295.827 13.1551 296.072 12.8198 296.242 12.4174C296.582 11.5948 296.752 10.7901 296.752 10.0033C296.752 9.54729 296.685 9.19412 296.551 8.94376C296.426 8.68447 296.26 8.55482 296.055 8.55482C295.634 8.55482 295.16 8.96165 294.633 9.77529C294.114 10.5889 293.645 11.8586 293.225 13.5842L292.42 16.8969L291.481 16.9774L293.506 8.66212L292.648 8.72918L292.635 8.50118C293.251 8.42071 293.828 8.30894 294.365 8.16588ZM299.12 8.68894L299.187 8.43412H302.165L302.098 8.68894H299.12ZM301.253 6.78447L301.44 6.91859C301.235 7.54447 300.958 8.528 300.609 9.86918C300.269 11.2104 300.064 12.0776 299.992 12.4711C299.92 12.8555 299.885 13.1461 299.885 13.3428C299.885 13.6379 299.996 13.7854 300.22 13.7854C300.39 13.7854 300.573 13.6736 300.77 13.4501C300.967 13.2176 301.136 12.8913 301.28 12.4711L301.494 12.5247C301.11 13.6155 300.609 14.1609 299.992 14.1609C299.438 14.1609 299.16 13.8256 299.16 13.1551C299.16 12.6007 299.491 11.0539 300.153 8.51459L299.187 8.43412C299.679 8.43412 300.077 8.31788 300.381 8.08541C300.685 7.844 300.976 7.41035 301.253 6.78447ZM305.965 8.04518C306.439 8.04518 306.792 8.16141 307.025 8.39388C307.266 8.61741 307.387 8.94376 307.387 9.37294C307.387 9.79318 307.221 10.1598 306.891 10.4727C306.327 11.0092 305.491 11.2774 304.383 11.2774C304.052 11.2774 303.766 11.2506 303.524 11.1969V10.9421C303.837 10.9868 304.096 11.0092 304.302 11.0092C305.044 11.0092 305.616 10.8214 306.019 10.4459C306.43 10.0704 306.636 9.65906 306.636 9.212C306.636 8.97059 306.569 8.76941 306.435 8.60847C306.309 8.44753 306.095 8.36706 305.791 8.36706C305.496 8.36706 305.192 8.50565 304.879 8.78282C304.575 9.06 304.333 9.40424 304.155 9.81553C303.797 10.6828 303.618 11.4339 303.618 12.0687C303.618 13.2489 303.976 13.8391 304.691 13.8391C305.576 13.8391 306.224 13.3562 306.636 12.3906L306.85 12.4442C306.636 12.9896 306.323 13.4144 305.912 13.7184C305.509 14.0134 305.053 14.1609 304.544 14.1609C304.034 14.1609 303.605 13.9732 303.256 13.5976C302.907 13.2221 302.733 12.7169 302.733 12.0821C302.733 11.4473 302.854 10.8348 303.095 10.2447C303.336 9.64565 303.712 9.13153 304.222 8.70235C304.731 8.26424 305.312 8.04518 305.965 8.04518ZM312.463 13.3428C312.463 13.6379 312.574 13.7854 312.798 13.7854C312.968 13.7854 313.151 13.6736 313.348 13.4501C313.545 13.2176 313.714 12.8913 313.857 12.4711L314.072 12.5247C313.688 13.6155 313.187 14.1609 312.57 14.1609C312.016 14.1609 311.738 13.8122 311.738 13.1148C311.738 12.4085 312.324 9.93176 313.495 5.68471L312.637 5.75176L312.624 5.52376C313.241 5.44329 313.817 5.33153 314.354 5.18847L314.541 5.32259C314.166 6.42235 313.723 7.91553 313.214 9.80212C312.713 11.6798 312.463 12.86 312.463 13.3428ZM311.873 12.5113H311.738C311.184 13.6111 310.54 14.1609 309.807 14.1609C309.387 14.1609 309.034 13.9776 308.748 13.6111C308.47 13.2355 308.332 12.7795 308.332 12.2431C308.332 11.6976 308.403 11.1925 308.546 10.7275C308.689 10.2626 308.891 9.82894 309.15 9.42659C309.409 9.01529 309.753 8.68447 310.183 8.43412C310.612 8.17482 311.05 8.04518 311.497 8.04518C312.355 8.04518 312.963 8.42071 313.321 9.17176L313.133 9.41318C312.713 8.71576 312.19 8.36706 311.564 8.36706C311.18 8.36706 310.826 8.50565 310.505 8.78282C310.192 9.06 309.946 9.40871 309.767 9.82894C309.4 10.6873 309.217 11.4965 309.217 12.2565C309.217 12.7572 309.297 13.1327 309.458 13.3831C309.628 13.6334 309.852 13.7586 310.129 13.7586C310.513 13.7586 310.907 13.4367 311.309 12.7929C311.712 12.1402 312.069 11.2104 312.382 10.0033L311.873 12.5113ZM318.243 10.0972H317.398C316.915 12.3951 316.674 13.5798 316.674 13.6513C316.674 13.7228 316.723 13.7586 316.821 13.7586H317.68L317.64 14H314.904L314.944 13.7586H315.561C315.677 13.7586 315.749 13.6915 315.775 13.5574C316.848 8.47882 317.385 5.91718 317.385 5.87247C317.385 5.81882 317.336 5.792 317.237 5.792H316.647L316.687 5.55059H319.732C320.349 5.55059 320.858 5.71153 321.261 6.03341C321.672 6.34635 321.878 6.81129 321.878 7.42824C321.878 8.03624 321.654 8.57718 321.207 9.05106C320.769 9.52494 320.224 9.84235 319.571 10.0033C320.197 10.2447 320.51 10.732 320.51 11.4652C320.51 11.7245 320.465 12.0687 320.376 12.4979C320.295 12.9271 320.255 13.2042 320.255 13.3294C320.255 13.5798 320.353 13.7049 320.55 13.7049C320.747 13.7049 320.952 13.5664 321.167 13.2892C321.381 13.0031 321.574 12.6007 321.744 12.0821L321.972 12.1358C321.73 12.8511 321.462 13.3696 321.167 13.6915C320.872 14.0045 320.523 14.1609 320.121 14.1609C319.924 14.1609 319.759 14.0894 319.625 13.9464C319.49 13.7944 319.423 13.5842 319.423 13.316C319.423 13.0478 319.464 12.7035 319.544 12.2833C319.633 11.8631 319.678 11.4875 319.678 11.1567C319.678 10.4504 319.2 10.0972 318.243 10.0972ZM319.598 5.85906H318.31L317.465 9.77529H318.806C319.432 9.77529 319.951 9.51153 320.362 8.984C320.782 8.45647 320.993 7.89765 320.993 7.30753C320.993 6.88729 320.872 6.54306 320.63 6.27482C320.398 5.99765 320.054 5.85906 319.598 5.85906ZM326.416 8.04518C326.89 8.04518 327.243 8.16141 327.476 8.39388C327.717 8.61741 327.838 8.94376 327.838 9.37294C327.838 9.79318 327.672 10.1598 327.341 10.4727C326.778 11.0092 325.942 11.2774 324.833 11.2774C324.503 11.2774 324.216 11.2506 323.975 11.1969V10.9421C324.288 10.9868 324.547 11.0092 324.753 11.0092C325.495 11.0092 326.067 10.8214 326.47 10.4459C326.881 10.0704 327.087 9.65906 327.087 9.212C327.087 8.97059 327.02 8.76941 326.885 8.60847C326.76 8.44753 326.546 8.36706 326.242 8.36706C325.947 8.36706 325.643 8.50565 325.33 8.78282C325.026 9.06 324.784 9.40424 324.605 9.81553C324.248 10.6828 324.069 11.4339 324.069 12.0687C324.069 13.2489 324.427 13.8391 325.142 13.8391C326.027 13.8391 326.675 13.3562 327.087 12.3906L327.301 12.4442C327.087 12.9896 326.774 13.4144 326.362 13.7184C325.96 14.0134 325.504 14.1609 324.994 14.1609C324.485 14.1609 324.056 13.9732 323.707 13.5976C323.358 13.2221 323.184 12.7169 323.184 12.0821C323.184 11.4473 323.304 10.8348 323.546 10.2447C323.787 9.64565 324.163 9.13153 324.672 8.70235C325.182 8.26424 325.763 8.04518 326.416 8.04518ZM331.344 8.36706C331.005 8.36706 330.714 8.46541 330.473 8.66212C330.231 8.85882 330.11 9.10918 330.11 9.41318C330.11 9.71718 330.236 9.99435 330.486 10.2447C330.736 10.4951 331.009 10.7052 331.304 10.8751C331.599 11.036 331.872 11.2506 332.122 11.5188C332.373 11.7871 332.498 12.0732 332.498 12.3772C332.498 12.9494 332.274 13.392 331.827 13.7049C331.389 14.0089 330.857 14.1609 330.231 14.1609C329.605 14.1609 329.055 14.0134 328.581 13.7184C328.733 13.4144 328.877 12.8868 329.011 12.1358L329.239 12.176C329.176 12.5426 329.145 12.8332 329.145 13.0478C329.145 13.2534 329.243 13.4456 329.44 13.6245C329.645 13.7944 329.936 13.8793 330.312 13.8793C330.696 13.8793 331.018 13.7631 331.277 13.5306C331.545 13.2981 331.68 12.9941 331.68 12.6186C331.68 12.3772 331.559 12.1447 331.317 11.9212C331.085 11.6887 330.826 11.4965 330.54 11.3445C330.262 11.1925 330.003 10.9779 329.762 10.7007C329.529 10.4235 329.413 10.1195 329.413 9.78871C329.413 9.29694 329.605 8.88565 329.99 8.55482C330.383 8.21506 330.897 8.04518 331.532 8.04518C332.024 8.04518 332.511 8.16588 332.994 8.40729C332.949 8.50565 332.873 8.72918 332.766 9.07788C332.668 9.42659 332.592 9.75741 332.538 10.0704L332.31 10.0301C332.364 9.744 332.39 9.47129 332.39 9.212C332.39 8.94376 332.301 8.73812 332.122 8.59506C331.952 8.44306 331.693 8.36706 331.344 8.36706ZM337.767 13.1551C337.767 13.0209 337.79 12.8064 337.834 12.5113H337.767C337.195 13.6111 336.533 14.1609 335.782 14.1609C334.978 14.1609 334.575 13.7139 334.575 12.8198C334.575 12.2386 334.781 11.1612 335.192 9.58753L335.434 8.66212L334.575 8.72918L334.562 8.50118C335.179 8.42071 335.756 8.30894 336.292 8.16588L336.48 8.3C335.729 10.6336 335.353 12.1268 335.353 12.7795C335.353 13.4322 335.599 13.7586 336.091 13.7586C336.502 13.7586 336.904 13.4591 337.298 12.86C337.7 12.252 338.031 11.4384 338.29 10.4191L338.746 8.66212L337.888 8.72918L337.875 8.50118C338.492 8.42071 339.068 8.30894 339.605 8.16588L339.792 8.3C339.48 9.22988 339.184 10.2268 338.907 11.2908C338.63 12.3548 338.492 13.0388 338.492 13.3428C338.492 13.6379 338.603 13.7854 338.827 13.7854C338.997 13.7854 339.18 13.6736 339.377 13.4501C339.573 13.2176 339.743 12.8913 339.886 12.4711L340.101 12.5247C339.716 13.6155 339.216 14.1609 338.599 14.1609C338.044 14.1609 337.767 13.8256 337.767 13.1551ZM342.322 13.3428C342.322 13.6379 342.434 13.7854 342.657 13.7854C342.827 13.7854 343.01 13.6736 343.207 13.4501C343.404 13.2176 343.574 12.8913 343.717 12.4711L343.931 12.5247C343.547 13.6155 343.046 14.1609 342.429 14.1609C341.875 14.1609 341.598 13.8122 341.598 13.1148C341.598 12.4085 342.183 9.93176 343.355 5.68471L342.496 5.75176L342.483 5.52376C343.1 5.44329 343.677 5.33153 344.213 5.18847L344.401 5.32259C344.025 6.42235 343.583 7.91553 343.073 9.80212C342.572 11.6798 342.322 12.86 342.322 13.3428ZM345.522 8.68894L345.589 8.43412H348.567L348.5 8.68894H345.522ZM347.655 6.78447L347.843 6.91859C347.637 7.54447 347.36 8.528 347.011 9.86918C346.671 11.2104 346.466 12.0776 346.394 12.4711C346.323 12.8555 346.287 13.1461 346.287 13.3428C346.287 13.6379 346.399 13.7854 346.622 13.7854C346.792 13.7854 346.975 13.6736 347.172 13.4501C347.369 13.2176 347.539 12.8913 347.682 12.4711L347.896 12.5247C347.512 13.6155 347.011 14.1609 346.394 14.1609C345.84 14.1609 345.563 13.8256 345.563 13.1551C345.563 12.6007 345.893 11.0539 346.555 8.51459L345.589 8.43412C346.081 8.43412 346.479 8.31788 346.783 8.08541C347.087 7.844 347.378 7.41035 347.655 6.78447ZM348.666 15.4887C349.247 15.0416 349.537 14.5722 349.537 14.0805C349.537 13.8122 349.443 13.5932 349.256 13.4233C349.3 13.2176 349.403 13.0388 349.564 12.8868C349.734 12.7348 349.913 12.6588 350.101 12.6588C350.467 12.6588 350.651 12.8421 350.651 13.2087C350.651 13.5753 350.467 14.0089 350.101 14.5096C349.743 15.0193 349.3 15.4082 348.773 15.6765L348.666 15.4887ZM358.679 5.73835C359.198 5.50588 359.748 5.38965 360.329 5.38965C361.214 5.38965 361.912 5.65788 362.421 6.19435C362.94 6.72188 363.199 7.46847 363.199 8.43412C363.199 9.08682 363.092 9.74847 362.877 10.4191C362.663 11.0807 362.363 11.6932 361.979 12.2565C361.594 12.8198 361.093 13.2802 360.477 13.6379C359.86 13.9866 359.149 14.1609 358.344 14.1609C357.539 14.1609 356.878 13.8927 356.359 13.3562C355.849 12.8198 355.595 12.0419 355.595 11.0226C355.595 10.0033 355.872 8.97506 356.426 7.93788C356.989 6.90071 357.741 6.16753 358.679 5.73835ZM361.71 6.42235C361.353 5.96635 360.879 5.73835 360.289 5.73835C359.699 5.73835 359.153 5.93059 358.653 6.31506C358.152 6.69059 357.754 7.16894 357.459 7.75012C356.842 8.94824 356.533 10.1106 356.533 11.2372C356.533 12.0508 356.708 12.6856 357.057 13.1416C357.414 13.5887 357.888 13.8122 358.478 13.8122C359.077 13.8122 359.627 13.6245 360.128 13.2489C360.629 12.8645 361.031 12.3861 361.335 11.8139C361.952 10.6247 362.26 9.46235 362.26 8.32682C362.26 7.51318 362.077 6.87835 361.71 6.42235ZM366.377 8.16588L366.565 8.3C366.136 9.28353 365.76 10.4146 365.438 11.6932H365.546L365.76 11.1031C366.18 9.95859 366.596 9.16282 367.007 8.71576C367.419 8.26871 367.776 8.04518 368.08 8.04518C368.384 8.04518 368.608 8.14353 368.751 8.34024C368.903 8.53694 368.979 8.79176 368.979 9.10471C368.979 9.41765 368.921 9.69035 368.805 9.92282C368.688 10.1553 368.519 10.2715 368.295 10.2715C368.08 10.2715 367.902 10.2 367.759 10.0569C367.848 9.94071 367.933 9.77082 368.013 9.54729C368.094 9.32376 368.134 9.12706 368.134 8.95718C368.134 8.69788 368.027 8.56824 367.812 8.56824C367.589 8.56824 367.311 8.78729 366.981 9.22541C366.256 10.1732 365.644 11.7647 365.143 14L364.204 14.0805L365.519 8.66212L364.66 8.72918L364.647 8.50118C365.264 8.42071 365.841 8.30894 366.377 8.16588ZM373.513 13.3428C373.513 13.6379 373.625 13.7854 373.849 13.7854C374.019 13.7854 374.202 13.6736 374.399 13.4501C374.595 13.2176 374.765 12.8913 374.908 12.4711L375.123 12.5247C374.738 13.6155 374.238 14.1609 373.621 14.1609C373.066 14.1609 372.789 13.8122 372.789 13.1148C372.789 12.4085 373.375 9.93176 374.546 5.68471L373.688 5.75176L373.674 5.52376C374.291 5.44329 374.868 5.33153 375.404 5.18847L375.592 5.32259C375.217 6.42235 374.774 7.91553 374.264 9.80212C373.764 11.6798 373.513 12.86 373.513 13.3428ZM372.923 12.5113H372.789C372.235 13.6111 371.591 14.1609 370.858 14.1609C370.438 14.1609 370.084 13.9776 369.798 13.6111C369.521 13.2355 369.383 12.7795 369.383 12.2431C369.383 11.6976 369.454 11.1925 369.597 10.7275C369.74 10.2626 369.941 9.82894 370.201 9.42659C370.46 9.01529 370.804 8.68447 371.233 8.43412C371.663 8.17482 372.101 8.04518 372.548 8.04518C373.406 8.04518 374.014 8.42071 374.372 9.17176L374.184 9.41318C373.764 8.71576 373.241 8.36706 372.615 8.36706C372.23 8.36706 371.877 8.50565 371.555 8.78282C371.242 9.06 370.996 9.40871 370.818 9.82894C370.451 10.6873 370.268 11.4965 370.268 12.2565C370.268 12.7572 370.348 13.1327 370.509 13.3831C370.679 13.6334 370.903 13.7586 371.18 13.7586C371.564 13.7586 371.958 13.4367 372.36 12.7929C372.762 12.1402 373.12 11.2104 373.433 10.0033L372.923 12.5113ZM379.589 8.04518C380.063 8.04518 380.416 8.16141 380.648 8.39388C380.89 8.61741 381.011 8.94376 381.011 9.37294C381.011 9.79318 380.845 10.1598 380.514 10.4727C379.951 11.0092 379.115 11.2774 378.006 11.2774C377.676 11.2774 377.389 11.2506 377.148 11.1969V10.9421C377.461 10.9868 377.72 11.0092 377.926 11.0092C378.668 11.0092 379.24 10.8214 379.643 10.4459C380.054 10.0704 380.26 9.65906 380.26 9.212C380.26 8.97059 380.192 8.76941 380.058 8.60847C379.933 8.44753 379.719 8.36706 379.415 8.36706C379.12 8.36706 378.816 8.50565 378.503 8.78282C378.199 9.06 377.957 9.40424 377.778 9.81553C377.421 10.6828 377.242 11.4339 377.242 12.0687C377.242 13.2489 377.6 13.8391 378.315 13.8391C379.2 13.8391 379.848 13.3562 380.26 12.3906L380.474 12.4442C380.26 12.9896 379.947 13.4144 379.535 13.7184C379.133 14.0134 378.677 14.1609 378.167 14.1609C377.658 14.1609 377.228 13.9732 376.88 13.5976C376.531 13.2221 376.357 12.7169 376.357 12.0821C376.357 11.4473 376.477 10.8348 376.719 10.2447C376.96 9.64565 377.336 9.13153 377.845 8.70235C378.355 8.26424 378.936 8.04518 379.589 8.04518ZM384.195 8.16588L384.383 8.3C383.954 9.28353 383.578 10.4146 383.257 11.6932H383.364L383.578 11.1031C383.999 9.95859 384.414 9.16282 384.826 8.71576C385.237 8.26871 385.595 8.04518 385.899 8.04518C386.203 8.04518 386.426 8.14353 386.569 8.34024C386.721 8.53694 386.797 8.79176 386.797 9.10471C386.797 9.41765 386.739 9.69035 386.623 9.92282C386.507 10.1553 386.337 10.2715 386.113 10.2715C385.899 10.2715 385.72 10.2 385.577 10.0569C385.666 9.94071 385.751 9.77082 385.832 9.54729C385.912 9.32376 385.952 9.12706 385.952 8.95718C385.952 8.69788 385.845 8.56824 385.63 8.56824C385.407 8.56824 385.13 8.78729 384.799 9.22541C384.075 10.1732 383.462 11.7647 382.961 14L382.023 14.0805L383.337 8.66212L382.479 8.72918L382.465 8.50118C383.082 8.42071 383.659 8.30894 384.195 8.16588ZM387.442 13.9598C387.308 13.8167 387.241 13.6468 387.241 13.4501C387.241 13.2534 387.308 13.088 387.442 12.9539C387.585 12.8108 387.755 12.7393 387.952 12.7393C388.149 12.7393 388.314 12.8108 388.448 12.9539C388.591 13.088 388.663 13.2534 388.663 13.4501C388.663 13.6468 388.591 13.8167 388.448 13.9598C388.314 14.0939 388.149 14.1609 387.952 14.1609C387.755 14.1609 387.585 14.0939 387.442 13.9598ZM392.289 8.16588L392.477 8.3C392.048 9.28353 391.672 10.4146 391.35 11.6932H391.458L391.672 11.1031C392.092 9.95859 392.508 9.16282 392.919 8.71576C393.331 8.26871 393.688 8.04518 393.992 8.04518C394.296 8.04518 394.52 8.14353 394.663 8.34024C394.815 8.53694 394.891 8.79176 394.891 9.10471C394.891 9.41765 394.833 9.69035 394.717 9.92282C394.6 10.1553 394.43 10.2715 394.207 10.2715C393.992 10.2715 393.814 10.2 393.67 10.0569C393.76 9.94071 393.845 9.77082 393.925 9.54729C394.006 9.32376 394.046 9.12706 394.046 8.95718C394.046 8.69788 393.939 8.56824 393.724 8.56824C393.501 8.56824 393.223 8.78729 392.893 9.22541C392.168 10.1732 391.556 11.7647 391.055 14L390.116 14.0805L391.431 8.66212L390.572 8.72918L390.559 8.50118C391.176 8.42071 391.753 8.30894 392.289 8.16588ZM398.527 8.04518C399.001 8.04518 399.354 8.16141 399.586 8.39388C399.828 8.61741 399.948 8.94376 399.948 9.37294C399.948 9.79318 399.783 10.1598 399.452 10.4727C398.889 11.0092 398.053 11.2774 396.944 11.2774C396.613 11.2774 396.327 11.2506 396.086 11.1969V10.9421C396.399 10.9868 396.658 11.0092 396.864 11.0092C397.606 11.0092 398.178 10.8214 398.58 10.4459C398.992 10.0704 399.197 9.65906 399.197 9.212C399.197 8.97059 399.13 8.76941 398.996 8.60847C398.871 8.44753 398.656 8.36706 398.352 8.36706C398.057 8.36706 397.753 8.50565 397.44 8.78282C397.136 9.06 396.895 9.40424 396.716 9.81553C396.359 10.6828 396.18 11.4339 396.18 12.0687C396.18 13.2489 396.537 13.8391 397.253 13.8391C398.138 13.8391 398.786 13.3562 399.197 12.3906L399.412 12.4442C399.197 12.9896 398.884 13.4144 398.473 13.7184C398.071 14.0134 397.615 14.1609 397.105 14.1609C396.595 14.1609 396.166 13.9732 395.818 13.5976C395.469 13.2221 395.295 12.7169 395.295 12.0821C395.295 11.4473 395.415 10.8348 395.657 10.2447C395.898 9.64565 396.274 9.13153 396.783 8.70235C397.293 8.26424 397.874 8.04518 398.527 8.04518ZM403.455 8.36706C403.115 8.36706 402.825 8.46541 402.583 8.66212C402.342 8.85882 402.221 9.10918 402.221 9.41318C402.221 9.71718 402.346 9.99435 402.597 10.2447C402.847 10.4951 403.12 10.7052 403.415 10.8751C403.71 11.036 403.983 11.2506 404.233 11.5188C404.483 11.7871 404.608 12.0732 404.608 12.3772C404.608 12.9494 404.385 13.392 403.938 13.7049C403.5 14.0089 402.968 14.1609 402.342 14.1609C401.716 14.1609 401.166 14.0134 400.692 13.7184C400.844 13.4144 400.987 12.8868 401.121 12.1358L401.349 12.176C401.287 12.5426 401.256 12.8332 401.256 13.0478C401.256 13.2534 401.354 13.4456 401.551 13.6245C401.756 13.7944 402.047 13.8793 402.422 13.8793C402.807 13.8793 403.129 13.7631 403.388 13.5306C403.656 13.2981 403.79 12.9941 403.79 12.6186C403.79 12.3772 403.67 12.1447 403.428 11.9212C403.196 11.6887 402.936 11.4965 402.65 11.3445C402.373 11.1925 402.114 10.9779 401.872 10.7007C401.64 10.4235 401.524 10.1195 401.524 9.78871C401.524 9.29694 401.716 8.88565 402.1 8.55482C402.494 8.21506 403.008 8.04518 403.643 8.04518C404.135 8.04518 404.622 8.16588 405.105 8.40729C405.06 8.50565 404.984 8.72918 404.877 9.07788C404.778 9.42659 404.702 9.75741 404.649 10.0704L404.421 10.0301C404.474 9.744 404.501 9.47129 404.501 9.212C404.501 8.94376 404.412 8.73812 404.233 8.59506C404.063 8.44306 403.804 8.36706 403.455 8.36706ZM409.878 13.1551C409.878 13.0209 409.9 12.8064 409.945 12.5113H409.878C409.306 13.6111 408.644 14.1609 407.893 14.1609C407.088 14.1609 406.686 13.7139 406.686 12.8198C406.686 12.2386 406.892 11.1612 407.303 9.58753L407.544 8.66212L406.686 8.72918L406.673 8.50118C407.29 8.42071 407.866 8.30894 408.403 8.16588L408.591 8.3C407.839 10.6336 407.464 12.1268 407.464 12.7795C407.464 13.4322 407.71 13.7586 408.202 13.7586C408.613 13.7586 409.015 13.4591 409.409 12.86C409.811 12.252 410.142 11.4384 410.401 10.4191L410.857 8.66212L409.999 8.72918L409.985 8.50118C410.602 8.42071 411.179 8.30894 411.715 8.16588L411.903 8.3C411.59 9.22988 411.295 10.2268 411.018 11.2908C410.741 12.3548 410.602 13.0388 410.602 13.3428C410.602 13.6379 410.714 13.7854 410.938 13.7854C411.107 13.7854 411.291 13.6736 411.487 13.4501C411.684 13.2176 411.854 12.8913 411.997 12.4711L412.212 12.5247C411.827 13.6155 411.327 14.1609 410.71 14.1609C410.155 14.1609 409.878 13.8256 409.878 13.1551ZM414.433 13.3428C414.433 13.6379 414.544 13.7854 414.768 13.7854C414.938 13.7854 415.121 13.6736 415.318 13.4501C415.515 13.2176 415.684 12.8913 415.828 12.4711L416.042 12.5247C415.658 13.6155 415.157 14.1609 414.54 14.1609C413.986 14.1609 413.708 13.8122 413.708 13.1148C413.708 12.4085 414.294 9.93176 415.465 5.68471L414.607 5.75176L414.594 5.52376C415.211 5.44329 415.787 5.33153 416.324 5.18847L416.512 5.32259C416.136 6.42235 415.693 7.91553 415.184 9.80212C414.683 11.6798 414.433 12.86 414.433 13.3428ZM417.633 8.68894L417.7 8.43412H420.678L420.61 8.68894H417.633ZM419.766 6.78447L419.953 6.91859C419.748 7.54447 419.47 8.528 419.122 9.86918C418.782 11.2104 418.576 12.0776 418.505 12.4711C418.433 12.8555 418.398 13.1461 418.398 13.3428C418.398 13.6379 418.509 13.7854 418.733 13.7854C418.903 13.7854 419.086 13.6736 419.283 13.4501C419.479 13.2176 419.649 12.8913 419.792 12.4711L420.007 12.5247C419.622 13.6155 419.122 14.1609 418.505 14.1609C417.95 14.1609 417.673 13.8256 417.673 13.1551C417.673 12.6007 418.004 11.0539 418.666 8.51459L417.7 8.43412C418.192 8.43412 418.59 8.31788 418.894 8.08541C419.198 7.844 419.488 7.41035 419.766 6.78447ZM424.545 10.6336H423.231C422.819 12.5292 422.614 13.5261 422.614 13.6245C422.614 13.7139 422.663 13.7586 422.761 13.7586H423.74L423.7 14H420.843L420.884 13.7586H421.501C421.617 13.7586 421.688 13.6915 421.715 13.5574C422.788 8.47882 423.325 5.91718 423.325 5.87247C423.325 5.81882 423.275 5.792 423.177 5.792H422.587L422.627 5.55059H425.618C426.226 5.55059 426.727 5.72047 427.12 6.06024C427.514 6.4 427.71 6.86941 427.71 7.46847C427.71 8.41624 427.384 9.18071 426.731 9.76188C426.078 10.3431 425.35 10.6336 424.545 10.6336ZM425.47 5.85906H424.25L423.298 10.3252H424.558C425.202 10.3252 425.739 10.0122 426.168 9.38635C426.606 8.76047 426.825 8.10329 426.825 7.41482C426.825 6.96776 426.709 6.59671 426.476 6.30165C426.253 6.00659 425.918 5.85906 425.47 5.85906ZM430.355 8.16588L430.543 8.3C430.113 9.28353 429.738 10.4146 429.416 11.6932H429.523L429.738 11.1031C430.158 9.95859 430.574 9.16282 430.985 8.71576C431.397 8.26871 431.754 8.04518 432.058 8.04518C432.362 8.04518 432.586 8.14353 432.729 8.34024C432.881 8.53694 432.957 8.79176 432.957 9.10471C432.957 9.41765 432.899 9.69035 432.782 9.92282C432.666 10.1553 432.496 10.2715 432.273 10.2715C432.058 10.2715 431.879 10.2 431.736 10.0569C431.826 9.94071 431.911 9.77082 431.991 9.54729C432.072 9.32376 432.112 9.12706 432.112 8.95718C432.112 8.69788 432.005 8.56824 431.79 8.56824C431.566 8.56824 431.289 8.78729 430.958 9.22541C430.234 10.1732 429.622 11.7647 429.121 14L428.182 14.0805L429.497 8.66212L428.638 8.72918L428.625 8.50118C429.242 8.42071 429.818 8.30894 430.355 8.16588ZM435.278 6.704C435.162 6.58776 435.104 6.44471 435.104 6.27482C435.104 6.10494 435.162 5.96188 435.278 5.84565C435.394 5.72941 435.538 5.67129 435.707 5.67129C435.877 5.67129 436.02 5.72941 436.137 5.84565C436.253 5.96188 436.311 6.10494 436.311 6.27482C436.311 6.44471 436.253 6.58776 436.137 6.704C436.02 6.82024 435.877 6.87835 435.707 6.87835C435.538 6.87835 435.394 6.82024 435.278 6.704ZM433.763 13.1551C433.763 12.6812 434.089 11.1835 434.742 8.66212L433.883 8.72918L433.87 8.50118C434.487 8.42071 435.064 8.30894 435.6 8.16588L435.788 8.3C435.475 9.22988 435.18 10.2268 434.903 11.2908C434.626 12.3548 434.487 13.0388 434.487 13.3428C434.487 13.6379 434.599 13.7854 434.822 13.7854C434.992 13.7854 435.175 13.6736 435.372 13.4501C435.569 13.2176 435.739 12.8913 435.882 12.4711L436.096 12.5247C435.712 13.6155 435.211 14.1609 434.594 14.1609C434.04 14.1609 433.763 13.8256 433.763 13.1551ZM439.481 13.7184C440.053 13.7184 440.612 13.3026 441.158 12.4711C441.703 11.6395 441.976 10.8751 441.976 10.1776C441.976 9.48024 441.766 8.86329 441.345 8.32682C441.569 8.13906 441.77 8.04518 441.949 8.04518C442.128 8.04518 442.257 8.15694 442.338 8.38047C442.418 8.604 442.458 8.908 442.458 9.29247C442.458 9.668 442.382 10.1374 442.23 10.7007C442.078 11.264 441.868 11.8094 441.6 12.3369C441.332 12.8555 440.974 13.2892 440.527 13.6379C440.08 13.9866 439.602 14.1609 439.092 14.1609C438.761 14.1609 438.493 14.0492 438.287 13.8256C438.091 13.5932 437.992 13.2802 437.992 12.8868C437.992 12.4934 438.14 11.8049 438.435 10.8214C438.739 9.83788 438.891 9.19412 438.891 8.89012C438.891 8.57718 438.775 8.42071 438.542 8.42071C438.372 8.42071 438.194 8.53694 438.006 8.76941C437.818 8.99294 437.666 9.31482 437.55 9.73506L437.322 9.68141C437.653 8.59059 438.131 8.04518 438.757 8.04518C439.338 8.04518 439.629 8.35812 439.629 8.984C439.629 9.23435 439.49 9.85576 439.213 10.8482C438.936 11.8407 438.797 12.4934 438.797 12.8064C438.797 13.4144 439.025 13.7184 439.481 13.7184ZM449.034 8.3C448.721 9.22988 448.426 10.2268 448.149 11.2908C447.871 12.3548 447.733 13.0388 447.733 13.3428C447.733 13.6379 447.845 13.7854 448.068 13.7854C448.238 13.7854 448.421 13.6736 448.618 13.4501C448.815 13.2176 448.985 12.8913 449.128 12.4711L449.342 12.5247C448.958 13.6155 448.457 14.1609 447.84 14.1609C447.286 14.1609 447.009 13.8256 447.009 13.1551C447.009 13.0209 447.031 12.8064 447.076 12.5113H447.009C446.454 13.6111 445.811 14.1609 445.077 14.1609C444.657 14.1609 444.304 13.9776 444.018 13.6111C443.741 13.2355 443.602 12.7795 443.602 12.2431C443.602 11.6976 443.674 11.1925 443.817 10.7275C443.96 10.2626 444.161 9.82894 444.42 9.42659C444.679 9.01529 445.024 8.68447 445.453 8.43412C445.882 8.17482 446.351 8.04518 446.861 8.04518C447.523 8.04518 448.046 8.32682 448.43 8.89012L448.846 8.16588L449.034 8.3ZM445.399 13.7586C445.775 13.7586 446.155 13.468 446.539 12.8868C446.977 12.2162 447.384 11.1209 447.76 9.60094C447.84 9.24329 447.903 8.984 447.947 8.82306C447.635 8.51906 447.272 8.36706 446.861 8.36706C446.459 8.36706 446.097 8.50565 445.775 8.78282C445.462 9.06 445.216 9.40871 445.037 9.82894C444.671 10.6873 444.487 11.4965 444.487 12.2565C444.487 12.7572 444.568 13.1327 444.729 13.3831C444.899 13.6334 445.122 13.7586 445.399 13.7586ZM450.938 8.68894L451.005 8.43412H453.983L453.916 8.68894H450.938ZM453.071 6.78447L453.259 6.91859C453.053 7.54447 452.776 8.528 452.427 9.86918C452.087 11.2104 451.882 12.0776 451.81 12.4711C451.739 12.8555 451.703 13.1461 451.703 13.3428C451.703 13.6379 451.815 13.7854 452.038 13.7854C452.208 13.7854 452.391 13.6736 452.588 13.4501C452.785 13.2176 452.955 12.8913 453.098 12.4711L453.312 12.5247C452.928 13.6155 452.427 14.1609 451.81 14.1609C451.256 14.1609 450.979 13.8256 450.979 13.1551C450.979 12.6007 451.309 11.0539 451.971 8.51459L451.005 8.43412C451.497 8.43412 451.895 8.31788 452.199 8.08541C452.503 7.844 452.794 7.41035 453.071 6.78447ZM457.783 8.04518C458.257 8.04518 458.61 8.16141 458.843 8.39388C459.084 8.61741 459.205 8.94376 459.205 9.37294C459.205 9.79318 459.039 10.1598 458.709 10.4727C458.145 11.0092 457.309 11.2774 456.201 11.2774C455.87 11.2774 455.584 11.2506 455.342 11.1969V10.9421C455.655 10.9868 455.914 11.0092 456.12 11.0092C456.862 11.0092 457.434 10.8214 457.837 10.4459C458.248 10.0704 458.454 9.65906 458.454 9.212C458.454 8.97059 458.387 8.76941 458.253 8.60847C458.127 8.44753 457.913 8.36706 457.609 8.36706C457.314 8.36706 457.01 8.50565 456.697 8.78282C456.393 9.06 456.151 9.40424 455.973 9.81553C455.615 10.6828 455.436 11.4339 455.436 12.0687C455.436 13.2489 455.794 13.8391 456.509 13.8391C457.394 13.8391 458.042 13.3562 458.454 12.3906L458.668 12.4442C458.454 12.9896 458.141 13.4144 457.73 13.7184C457.327 14.0134 456.871 14.1609 456.362 14.1609C455.852 14.1609 455.423 13.9732 455.074 13.5976C454.725 13.2221 454.551 12.7169 454.551 12.0821C454.551 11.4473 454.672 10.8348 454.913 10.2447C455.154 9.64565 455.53 9.13153 456.04 8.70235C456.549 8.26424 457.13 8.04518 457.783 8.04518ZM463.127 5.97976L461.518 13.6245C461.518 13.7139 461.567 13.7586 461.665 13.7586H462.256L462.215 14H459.748L459.788 13.7586H460.405C460.521 13.7586 460.592 13.6915 460.619 13.5574C461.692 8.47882 462.229 5.91718 462.229 5.87247C462.229 5.81882 462.18 5.792 462.081 5.792H461.491L461.531 5.55059H463.999L463.959 5.792H463.355C463.239 5.792 463.163 5.85459 463.127 5.97976ZM465.045 11.6529L465.072 12.8868C465.09 13.4412 465.237 13.7184 465.515 13.7184C465.693 13.7184 465.841 13.6245 465.957 13.4367C466.082 13.2489 466.145 13.0075 466.145 12.7125L466.4 12.6722C466.4 13.1282 466.279 13.4904 466.038 13.7586C465.805 14.0268 465.51 14.1609 465.152 14.1609C464.518 14.1609 464.182 13.6826 464.147 12.7259L464.093 11.4115C464.066 10.8304 463.945 10.428 463.731 10.2045C463.516 9.972 463.163 9.85576 462.671 9.85576L462.738 9.64118L466.561 5.792H465.93L465.971 5.55059H467.701L467.66 5.792H467.312C467.169 5.792 467.039 5.85459 466.923 5.97976L463.288 9.61435C463.932 9.62329 464.379 9.81106 464.629 10.1776C464.889 10.5442 465.027 11.036 465.045 11.6529ZM471.273 8.04518C471.747 8.04518 472.1 8.16141 472.333 8.39388C472.574 8.61741 472.695 8.94376 472.695 9.37294C472.695 9.79318 472.529 10.1598 472.198 10.4727C471.635 11.0092 470.799 11.2774 469.69 11.2774C469.36 11.2774 469.073 11.2506 468.832 11.1969V10.9421C469.145 10.9868 469.404 11.0092 469.61 11.0092C470.352 11.0092 470.924 10.8214 471.327 10.4459C471.738 10.0704 471.944 9.65906 471.944 9.212C471.944 8.97059 471.877 8.76941 471.742 8.60847C471.617 8.44753 471.403 8.36706 471.099 8.36706C470.804 8.36706 470.5 8.50565 470.187 8.78282C469.883 9.06 469.641 9.40424 469.462 9.81553C469.105 10.6828 468.926 11.4339 468.926 12.0687C468.926 13.2489 469.284 13.8391 469.999 13.8391C470.884 13.8391 471.532 13.3562 471.944 12.3906L472.158 12.4442C471.944 12.9896 471.631 13.4144 471.219 13.7184C470.817 14.0134 470.361 14.1609 469.851 14.1609C469.342 14.1609 468.913 13.9732 468.564 13.5976C468.215 13.2221 468.041 12.7169 468.041 12.0821C468.041 11.4473 468.161 10.8348 468.403 10.2447C468.644 9.64565 469.02 9.13153 469.529 8.70235C470.039 8.26424 470.62 8.04518 471.273 8.04518ZM475.786 13.7184C476.358 13.7184 476.926 13.3026 477.489 12.4711C478.061 11.6306 478.347 10.8482 478.347 10.124C478.347 9.39082 478.115 8.79176 477.65 8.32682C477.873 8.13906 478.079 8.04518 478.267 8.04518C478.615 8.04518 478.79 8.53694 478.79 9.52047C478.79 10.504 478.683 11.4071 478.468 12.2296C478.253 13.0433 477.972 13.7362 477.623 14.3085C477.283 14.8807 476.894 15.3769 476.456 15.7972C475.607 16.6376 474.744 17.0579 473.868 17.0579C473.421 17.0579 473.085 16.9551 472.862 16.7494C472.629 16.5438 472.513 16.3024 472.513 16.0252C472.513 15.748 472.571 15.4976 472.687 15.2741C472.795 15.0506 472.96 14.9388 473.184 14.9388C473.407 14.9388 473.591 15.0014 473.734 15.1266C473.474 15.4574 473.345 15.7614 473.345 16.0386C473.345 16.4856 473.582 16.7092 474.055 16.7092C474.368 16.7092 474.731 16.5929 475.142 16.3605C475.553 16.1369 475.969 15.8151 476.389 15.3948C476.809 14.9835 477.194 14.4292 477.543 13.7318C477.9 13.0344 478.151 12.2788 478.294 11.4652C477.999 12.2431 477.601 12.8868 477.1 13.3965C476.608 13.9061 476.04 14.1609 475.397 14.1609C475.066 14.1609 474.798 14.0492 474.592 13.8256C474.395 13.5932 474.297 13.2802 474.297 12.8868C474.297 12.4934 474.444 11.8049 474.739 10.8214C475.043 9.83788 475.195 9.19412 475.195 8.89012C475.195 8.57718 475.079 8.42071 474.847 8.42071C474.677 8.42071 474.498 8.53694 474.31 8.76941C474.123 8.99294 473.971 9.31482 473.854 9.73506L473.626 9.68141C473.957 8.59059 474.435 8.04518 475.061 8.04518C475.643 8.04518 475.933 8.35812 475.933 8.984C475.933 9.23435 475.795 9.85576 475.517 10.8482C475.24 11.8407 475.102 12.4934 475.102 12.8064C475.102 13.4144 475.33 13.7184 475.786 13.7184ZM479.081 15.3144C479.975 14.6348 480.686 13.6647 481.213 12.404C481.741 11.1433 482.004 9.86918 482.004 8.58165C482.004 7.28518 481.705 6.31953 481.106 5.68471L481.267 5.48353C481.848 5.83224 482.282 6.324 482.568 6.95882C482.854 7.58471 482.997 8.29106 482.997 9.07788C482.997 10.3565 482.644 11.6082 481.937 12.8332C481.24 14.0581 480.306 14.9522 479.134 15.5155L479.081 15.3144Z" fill="#6082FA"/>
<path opacity="0.86" d="M5.21047 11.1458H3.94306C3.21882 14.5926 2.85671 16.3696 2.85671 16.4769C2.85671 16.5842 2.93047 16.6379 3.078 16.6379H4.36553L4.30518 17H0.201176L0.261529 16.6379H1.18694C1.36129 16.6379 1.46859 16.5373 1.50882 16.3361C3.11824 8.71824 3.92294 4.87576 3.92294 4.80871C3.92294 4.72823 3.84918 4.688 3.70165 4.688H2.81647L2.87682 4.32588H7.44353C8.36894 4.32588 9.13341 4.56729 9.73694 5.05012C10.3539 5.51953 10.6624 6.21694 10.6624 7.14235C10.6624 8.05435 10.3271 8.86576 9.65647 9.57659C8.99929 10.2874 8.18118 10.7635 7.20212 11.0049C8.14094 11.3671 8.61035 12.098 8.61035 13.1978C8.61035 13.5867 8.54329 14.1031 8.40918 14.7468C8.28847 15.3906 8.22812 15.8064 8.22812 15.9941C8.22812 16.3696 8.37565 16.5574 8.67071 16.5574C8.96577 16.5574 9.27424 16.3495 9.59612 15.9338C9.918 15.5046 10.2064 14.9011 10.4612 14.1232L10.8032 14.2036C10.4411 15.2766 10.0387 16.0545 9.59612 16.5373C9.15353 17.0067 8.63047 17.2414 8.02694 17.2414C7.73188 17.2414 7.48376 17.1341 7.28259 16.9195C7.08141 16.6915 6.98082 16.3764 6.98082 15.974C6.98082 15.5716 7.04118 15.0553 7.16188 14.4249C7.296 13.7946 7.36306 13.2313 7.36306 12.7351C7.36306 11.6755 6.64553 11.1458 5.21047 11.1458ZM7.24235 4.78859H5.31106L4.04365 10.6629H6.05541C6.99424 10.6629 7.77212 10.2673 8.38906 9.476C9.01941 8.68471 9.33459 7.84647 9.33459 6.96129C9.33459 6.33094 9.15353 5.81459 8.79141 5.41223C8.44271 4.99647 7.92635 4.78859 7.24235 4.78859Z" fill="#6082FA"/>
<path opacity="0.86" d="M12.7785 16.2944L13.5394 12.7169C13.5394 12.6703 13.5074 12.647 13.4432 12.647H13.0496L13.0759 12.4895H14.6853L14.659 12.647H14.2654C14.1896 12.647 14.1401 12.6878 14.1167 12.7694L13.3558 16.3556C13.3208 16.5189 13.3033 16.6676 13.3033 16.8017C13.3033 17.1457 13.4053 17.4023 13.6094 17.5714C13.8135 17.7347 14.0847 17.8163 14.4229 17.8163C14.7436 17.8163 15.0789 17.7055 15.4287 17.4839C15.8019 17.2449 16.0469 16.8513 16.1635 16.3031L16.9157 12.7432C16.9157 12.679 16.8865 12.647 16.8282 12.647H16.4346L16.4609 12.4895H17.7641L17.7379 12.647H17.3443C17.2685 12.647 17.2189 12.6878 17.1956 12.7694L16.4521 16.2944C16.3238 16.9008 16.0614 17.3557 15.6649 17.6589C15.2742 17.9563 14.8194 18.105 14.3004 18.105C13.245 18.105 12.7172 17.6764 12.7172 16.8192C12.7172 16.6501 12.7376 16.4751 12.7785 16.2944ZM19.7704 15.4547H19.2194C18.9045 16.9533 18.7471 17.7259 18.7471 17.7726C18.7471 17.8192 18.7791 17.8426 18.8433 17.8426H19.4031L19.3768 18H17.5925L17.6187 17.8426H18.0211C18.0969 17.8426 18.1435 17.7988 18.161 17.7114C18.8608 14.3992 19.2106 12.7286 19.2106 12.6994C19.2106 12.6644 19.1786 12.647 19.1144 12.647H18.7296L18.7558 12.4895H20.7413C21.1437 12.4895 21.4761 12.5945 21.7385 12.8044C22.0067 13.0085 22.1408 13.3117 22.1408 13.7141C22.1408 14.1106 21.995 14.4634 21.7035 14.7724C21.4178 15.0815 21.0621 15.2885 20.6364 15.3935C21.0446 15.5509 21.2487 15.8687 21.2487 16.3469C21.2487 16.516 21.2195 16.7405 21.1612 17.0204C21.1087 17.3003 21.0825 17.481 21.0825 17.5627C21.0825 17.7259 21.1466 17.8076 21.2749 17.8076C21.4032 17.8076 21.5373 17.7172 21.6772 17.5364C21.8172 17.3498 21.9426 17.0874 22.0534 16.7492L22.2021 16.7842C22.0446 17.2507 21.8697 17.5889 21.6772 17.7988C21.4848 18.0029 21.2574 18.105 20.995 18.105C20.8667 18.105 20.7588 18.0583 20.6714 17.965C20.5839 17.8659 20.5402 17.7288 20.5402 17.5539C20.5402 17.379 20.5664 17.1545 20.6189 16.8804C20.6772 16.6063 20.7063 16.3614 20.7063 16.1457C20.7063 15.685 20.3944 15.4547 19.7704 15.4547ZM20.6539 12.6907H19.8142L19.2631 15.2448H20.1378C20.546 15.2448 20.8842 15.0727 21.1524 14.7287C21.4265 14.3847 21.5635 14.0202 21.5635 13.6353C21.5635 13.3613 21.4848 13.1368 21.3274 12.9618C21.1758 12.7811 20.9513 12.6907 20.6539 12.6907ZM24.9344 12.7694L23.876 17.7988H25.5992C25.7449 17.7988 25.8382 17.7347 25.8791 17.6064L26.2377 16.5393H26.4301L26.3426 16.9504C26.2318 17.4577 26.1764 17.8338 26.1764 18.0787C26.0073 18.0262 25.707 18 25.2755 18H22.7302L22.7564 17.8426H23.1588C23.2346 17.8426 23.2813 17.7988 23.2988 17.7114C23.9985 14.3992 24.3484 12.7286 24.3484 12.6994C24.3484 12.6644 24.3163 12.647 24.2522 12.647H23.8673L23.8935 12.4895H25.5029L25.4767 12.647H25.0831C25.0073 12.647 24.9577 12.6878 24.9344 12.7694Z" fill="#6082FA"/>
</svg>
