<svg width="57" height="15" viewBox="0 0 57 15" fill="none" xmlns="http://www.w3.org/2000/svg">
<path opacity="0.86" d="M6.26016 0.714806C4.96453 1.67407 3.95543 3.01954 3.23286 4.75121C2.51029 6.47042 2.14901 8.25192 2.14901 10.0957C2.14901 11.927 2.57259 13.2725 3.41973 14.1321L3.15811 14.4124C2.37326 13.9266 1.77527 13.2414 1.36416 12.3568C0.965498 11.4723 0.766169 10.4881 0.766169 9.40429C0.766169 7.62279 1.25203 5.88489 2.22376 4.1906C3.20795 2.48385 4.50981 1.23181 6.12936 0.434499L6.26016 0.714806ZM8.80978 3.12544L8.82847 2.95725C8.82847 2.75792 8.67897 2.65826 8.37998 2.65826L6.38046 2.77038L6.43652 2.32189L8.11836 2.07896C9.17729 1.91701 10.0244 1.71768 10.6598 1.48097C10.4356 1.95438 10.2238 2.66449 10.0244 3.6113L8.19311 12.3008H6.86633L8.80978 3.12544ZM8.32392 11.6841L8.30523 11.7589C8.30523 11.8834 8.37998 11.9457 8.52947 11.9457H10.2113L10.1366 12.3008H4.54913L4.62388 11.9457H6.69814C6.8601 11.9457 6.95976 11.8585 6.99713 11.6841H8.32392ZM15.9041 6.61992V8.33912H12.2415V6.61992H15.9041ZM31.1084 1.91078L28.9594 7.81589C29.084 8.51354 29.2833 9.043 29.5574 9.40429C29.8439 9.76557 30.1304 9.94621 30.417 9.94621C30.9402 9.94621 31.2766 9.44166 31.4261 8.43256H31.7625L31.7251 9.5351C31.7251 9.99604 31.5818 10.4009 31.2953 10.7498C31.0212 11.0986 30.7222 11.273 30.3983 11.273C29.8128 11.273 29.2023 10.4072 28.567 8.67549C27.8693 9.85901 27.209 10.6003 26.5861 10.8993C25.9757 11.1858 25.3403 11.3291 24.6801 11.3291C23.6211 11.3291 22.7241 10.9366 21.9891 10.1518C21.2666 9.36691 20.9053 8.23323 20.9053 6.75072C20.9053 5.04397 21.3102 3.77325 22.1199 2.93856C22.9297 2.09142 23.889 1.66785 24.9977 1.66785C25.0849 1.66785 25.1784 1.67407 25.278 1.68653C25.3777 1.69899 25.4525 1.70522 25.5023 1.70522C27.0222 1.96684 27.9378 3.14412 28.2493 5.23707L29.4639 1.91078H31.1084ZM27.7447 6.82547C27.4707 4.98168 27.0845 3.78571 26.5861 3.23756C26.1003 2.67695 25.5085 2.39664 24.8109 2.39664C24.2876 2.39664 23.8267 2.77661 23.428 3.53655C23.0294 4.28403 22.83 5.28691 22.83 6.54517C22.83 8.00276 23.0294 9.06169 23.428 9.72197C23.8267 10.3698 24.325 10.6937 24.923 10.6937C25.8573 10.6937 26.6111 9.91507 27.1841 8.35781L27.7447 6.82547ZM36.9388 13.6836H36.3221L40.9752 0.191568H41.6105L36.9388 13.6836ZM47.8396 1.89209C47.1669 1.89209 46.6561 2.10388 46.3073 2.52745C45.9584 2.95102 45.784 3.46803 45.784 4.07848C45.784 4.25289 45.8027 4.41484 45.8401 4.56434C45.6034 4.75121 45.3106 4.84464 44.9618 4.84464C44.6503 4.84464 44.4946 4.64532 44.4946 4.24666C44.4946 3.49918 44.7998 2.85136 45.4103 2.30321C46.0207 1.75505 46.8056 1.48097 47.7648 1.48097C48.7241 1.48097 49.428 1.67407 49.8765 2.06027C50.3374 2.43401 50.5679 2.90742 50.5679 3.48049C50.5679 4.05356 50.4558 4.52074 50.2315 4.88202C50.0198 5.23084 49.8516 5.49869 49.727 5.68556C49.6024 5.87243 49.4093 6.10291 49.1477 6.37698C48.8861 6.6386 48.6867 6.83793 48.5497 6.97497C48.4127 7.09955 48.1884 7.29888 47.877 7.57296C47.5655 7.84703 47.3662 8.02767 47.279 8.11488L43.9901 11.1235H48.2694C48.5435 11.1235 48.7366 10.9865 48.8487 10.7124L49.428 9.08661H49.8204L49.6336 9.98359C49.4093 11.0674 49.2972 11.8959 49.2972 12.469C48.911 12.3568 48.2445 12.3008 47.2977 12.3008H42.0466L47.0734 7.62902C47.8334 6.93137 48.3691 6.19011 48.6805 5.40526C49.0044 4.60794 49.1664 3.93521 49.1664 3.38705C49.1664 2.39041 48.7241 1.89209 47.8396 1.89209ZM50.4546 14.1321C51.7004 13.1853 52.6908 11.8336 53.4259 10.077C54.1609 8.32044 54.5284 6.54517 54.5284 4.75121C54.5284 2.94479 54.1111 1.59933 53.2764 0.714806L53.5006 0.434499C54.3104 0.920363 54.9146 1.60555 55.3133 2.49008C55.7119 3.36214 55.9112 4.34632 55.9112 5.44263C55.9112 7.22413 55.4191 8.96826 54.435 10.675C53.4632 12.3818 52.1614 13.6276 50.5294 14.4124L50.4546 14.1321Z" fill="#6082FA"/>
</svg>
