<svg width="505" height="24" viewBox="0 0 505 24" fill="none" xmlns="http://www.w3.org/2000/svg">
<path opacity="0.86" d="M5.63294 5.60753C6.41082 5.25882 7.23565 5.08447 8.10741 5.08447C9.43518 5.08447 10.4813 5.48682 11.2458 6.29153C12.0236 7.08282 12.4126 8.20271 12.4126 9.65118C12.4126 10.6302 12.2516 11.6227 11.9298 12.6286C11.6079 13.6211 11.1586 14.5398 10.5819 15.3847C10.0052 16.2296 9.25412 16.9204 8.32871 17.4568C7.40329 17.9799 6.33706 18.2414 5.13 18.2414C3.92294 18.2414 2.93047 17.8391 2.15259 17.0344C1.38812 16.2296 1.00588 15.0628 1.00588 13.5339C1.00588 12.0049 1.42165 10.4626 2.25318 8.90682C3.09812 7.35106 4.22471 6.25129 5.63294 5.60753ZM10.1795 6.63353C9.64306 5.94953 8.93224 5.60753 8.04706 5.60753C7.16188 5.60753 6.34377 5.89588 5.59271 6.47259C4.84165 7.03588 4.24482 7.75341 3.80224 8.62518C2.87682 10.4224 2.41412 12.1659 2.41412 13.8558C2.41412 15.0762 2.67565 16.0285 3.19871 16.7125C3.73518 17.3831 4.446 17.7184 5.33118 17.7184C6.22977 17.7184 7.05459 17.4367 7.80565 16.8734C8.55671 16.2967 9.16024 15.5792 9.61624 14.7208C10.5416 12.9371 11.0044 11.1935 11.0044 9.49024C11.0044 8.26976 10.7294 7.31753 10.1795 6.63353ZM17.1795 9.24882L17.4612 9.45C16.8174 10.9253 16.2541 12.6219 15.7713 14.5398H15.9322L16.2541 13.6546C16.8845 11.9379 17.5081 10.7442 18.1251 10.0736C18.742 9.40306 19.2785 9.06776 19.7345 9.06776C20.1905 9.06776 20.5258 9.21529 20.7404 9.51035C20.9684 9.80541 21.0824 10.1876 21.0824 10.6571C21.0824 11.1265 20.9952 11.5355 20.8208 11.8842C20.6465 12.2329 20.3916 12.4073 20.0564 12.4073C19.7345 12.4073 19.4662 12.3 19.2516 12.0854C19.3858 11.9111 19.5132 11.6562 19.6339 11.3209C19.7546 10.9856 19.8149 10.6906 19.8149 10.4358C19.8149 10.0468 19.654 9.85235 19.3321 9.85235C18.9968 9.85235 18.5811 10.1809 18.0848 10.8381C16.9985 12.2598 16.0798 14.6471 15.3287 18L13.9205 18.1207L15.892 9.99318L14.6045 10.0938L14.5844 9.75176C15.5098 9.63106 16.3748 9.46341 17.1795 9.24882ZM27.884 17.0142C27.884 17.4568 28.0516 17.6781 28.3869 17.6781C28.6418 17.6781 28.9167 17.5105 29.2118 17.1752C29.5068 16.8265 29.7616 16.3369 29.9762 15.7066L30.2981 15.7871C29.7214 17.4233 28.9704 18.2414 28.0449 18.2414C27.2134 18.2414 26.7976 17.7184 26.7976 16.6722C26.7976 15.6127 27.6761 11.8976 29.4331 5.52706L28.1455 5.62765L28.1254 5.28565C29.0508 5.16494 29.9159 4.99729 30.7206 4.78271L31.0022 4.98388C30.4389 6.63353 29.7751 8.87329 29.0106 11.7032C28.2595 14.5196 27.884 16.29 27.884 17.0142ZM26.9988 15.7669H26.7976C25.9661 17.4166 25.0005 18.2414 23.9007 18.2414C23.2704 18.2414 22.7406 17.9665 22.3114 17.4166C21.8956 16.8533 21.6878 16.1693 21.6878 15.3646C21.6878 14.5465 21.7951 13.7887 22.0096 13.0913C22.2242 12.3939 22.526 11.7434 22.9149 11.1399C23.3039 10.5229 23.8202 10.0267 24.464 9.65118C25.1078 9.26223 25.7649 9.06776 26.4355 9.06776C27.7231 9.06776 28.6351 9.63106 29.1715 10.7576L28.8899 11.1198C28.2595 10.0736 27.4749 9.55059 26.5361 9.55059C25.9594 9.55059 25.4296 9.75847 24.9468 10.1742C24.4774 10.59 24.1086 11.1131 23.8404 11.7434C23.2905 13.0309 23.0155 14.2447 23.0155 15.3847C23.0155 16.1358 23.1362 16.6991 23.3776 17.0746C23.6325 17.4501 23.9678 17.6379 24.3835 17.6379C24.9602 17.6379 25.5504 17.1551 26.1539 16.1894C26.7574 15.2104 27.2939 13.8155 27.7633 12.0049L26.9988 15.7669ZM36.9973 9.06776C37.7081 9.06776 38.2379 9.24212 38.5866 9.59082C38.9487 9.92612 39.1298 10.4156 39.1298 11.0594C39.1298 11.6898 38.8816 12.2396 38.3854 12.7091C37.5405 13.5138 36.2865 13.9161 34.6234 13.9161C34.1272 13.9161 33.698 13.8759 33.3359 13.7954V13.4132C33.8053 13.4802 34.1942 13.5138 34.5027 13.5138C35.6159 13.5138 36.4742 13.2321 37.0778 12.6688C37.6947 12.1055 38.0032 11.4886 38.0032 10.818C38.0032 10.4559 37.9026 10.1541 37.7014 9.91271C37.5136 9.67129 37.1918 9.55059 36.7358 9.55059C36.2932 9.55059 35.8372 9.75847 35.3678 10.1742C34.9118 10.59 34.5496 11.1064 34.2814 11.7233C33.7449 13.0242 33.4767 14.1508 33.4767 15.1031C33.4767 16.8734 34.0132 17.7586 35.0861 17.7586C36.4139 17.7586 37.3862 17.0344 38.0032 15.5859L38.3251 15.6664C38.0032 16.4845 37.5338 17.1215 36.9168 17.5775C36.3133 18.0201 35.6293 18.2414 34.8648 18.2414C34.1004 18.2414 33.4566 17.9598 32.9335 17.3965C32.4105 16.8332 32.1489 16.0754 32.1489 15.1232C32.1489 14.1709 32.33 13.2522 32.6921 12.3671C33.0542 11.4685 33.6175 10.6973 34.382 10.0535C35.1465 9.39635 36.0182 9.06776 36.9973 9.06776ZM43.9069 9.24882L44.1886 9.45C43.5448 10.9253 42.9815 12.6219 42.4987 14.5398H42.6596L42.9815 13.6546C43.6119 11.9379 44.2355 10.7442 44.8525 10.0736C45.4694 9.40306 46.0059 9.06776 46.4619 9.06776C46.9179 9.06776 47.2532 9.21529 47.4677 9.51035C47.6957 9.80541 47.8097 10.1876 47.8097 10.6571C47.8097 11.1265 47.7226 11.5355 47.5482 11.8842C47.3739 12.2329 47.119 12.4073 46.7837 12.4073C46.4619 12.4073 46.1936 12.3 45.979 12.0854C46.1132 11.9111 46.2406 11.6562 46.3613 11.3209C46.482 10.9856 46.5423 10.6906 46.5423 10.4358C46.5423 10.0468 46.3814 9.85235 46.0595 9.85235C45.7242 9.85235 45.3085 10.1809 44.8122 10.8381C43.7259 12.2598 42.8072 14.6471 42.0561 18L40.6479 18.1207L42.6194 9.99318L41.3319 10.0938L41.3117 9.75176C42.2372 9.63106 43.1022 9.46341 43.9069 9.24882ZM48.7773 17.9396C48.5761 17.7251 48.4755 17.4702 48.4755 17.1752C48.4755 16.8801 48.5761 16.632 48.7773 16.4308C48.9919 16.2162 49.2467 16.1089 49.5417 16.1089C49.8368 16.1089 50.0849 16.2162 50.2861 16.4308C50.5007 16.632 50.608 16.8801 50.608 17.1752C50.608 17.4702 50.5007 17.7251 50.2861 17.9396C50.0849 18.1408 49.8368 18.2414 49.5417 18.2414C49.2467 18.2414 48.9919 18.1408 48.7773 17.9396ZM56.5303 9.55059C56.0206 9.55059 55.5847 9.69812 55.2226 9.99318C54.8605 10.2882 54.6795 10.6638 54.6795 11.1198C54.6795 11.5758 54.8672 11.9915 55.2427 12.3671C55.6183 12.7426 56.0273 13.0578 56.4699 13.3126C56.9125 13.554 57.3216 13.8759 57.6971 14.2782C58.0726 14.6806 58.2604 15.1098 58.2604 15.5658C58.2604 16.4241 57.9251 17.088 57.2545 17.5574C56.5973 18.0134 55.7993 18.2414 54.8605 18.2414C53.9217 18.2414 53.0969 18.0201 52.386 17.5775C52.614 17.1215 52.8286 16.3302 53.0298 15.2036L53.3718 15.264C53.2779 15.8139 53.231 16.2498 53.231 16.5716C53.231 16.8801 53.3785 17.1685 53.6736 17.4367C53.982 17.6915 54.4179 17.8189 54.9812 17.8189C55.5579 17.8189 56.0407 17.6446 56.4297 17.2959C56.832 16.9472 57.0332 16.4912 57.0332 15.9279C57.0332 15.5658 56.8522 15.2171 56.49 14.8818C56.1413 14.5331 55.7524 14.2447 55.3232 14.0167C54.9075 13.7887 54.5185 13.4668 54.1564 13.0511C53.8077 12.6353 53.6333 12.1793 53.6333 11.6831C53.6333 10.9454 53.9217 10.3285 54.4984 9.83223C55.0885 9.32259 55.8597 9.06776 56.8119 9.06776C57.5496 9.06776 58.2805 9.24882 59.0047 9.61094C58.9377 9.75847 58.8237 10.0938 58.6627 10.6168C58.5152 11.1399 58.4012 11.6361 58.3207 12.1055L57.9787 12.0452C58.0592 11.616 58.0995 11.2069 58.0995 10.818C58.0995 10.4156 57.9653 10.1072 57.6971 9.89259C57.4423 9.66459 57.0533 9.55059 56.5303 9.55059ZM65.4606 9.55059C64.9107 9.55059 64.4011 9.75847 63.9317 10.1742C63.4757 10.59 63.1136 11.1064 62.8453 11.7233C62.3089 13.0242 62.0406 14.1508 62.0406 15.1031C62.0406 16.8734 62.5771 17.7586 63.65 17.7586C64.9778 17.7586 65.9502 17.0344 66.5671 15.5859L66.889 15.6664C66.5671 16.4845 66.0977 17.1215 65.4807 17.5775C64.8772 18.0201 64.1932 18.2414 63.4287 18.2414C62.6643 18.2414 62.0205 17.9598 61.4974 17.3965C60.9744 16.8332 60.7129 16.0754 60.7129 15.1232C60.7129 14.1709 60.8939 13.2522 61.256 12.3671C61.6182 11.4685 62.1814 10.6973 62.9459 10.0535C63.7104 9.39635 64.5822 9.06776 65.5612 9.06776C66.2318 9.06776 66.7347 9.24212 67.07 9.59082C67.4187 9.92612 67.5931 10.3352 67.5931 10.818C67.5931 11.2874 67.5059 11.7099 67.3316 12.0854C67.1706 12.4609 66.9091 12.6487 66.547 12.6487C66.1983 12.6487 65.9367 12.5414 65.7624 12.3268C66.1513 11.7367 66.3458 11.16 66.3458 10.5967C66.3458 9.89929 66.0507 9.55059 65.4606 9.55059ZM72.4708 9.24882L72.7525 9.45C72.1087 10.9253 71.5454 12.6219 71.0626 14.5398H71.2235L71.5454 13.6546C72.1758 11.9379 72.7994 10.7442 73.4164 10.0736C74.0333 9.40306 74.5698 9.06776 75.0258 9.06776C75.4818 9.06776 75.8171 9.21529 76.0317 9.51035C76.2597 9.80541 76.3737 10.1876 76.3737 10.6571C76.3737 11.1265 76.2865 11.5355 76.1121 11.8842C75.9378 12.2329 75.683 12.4073 75.3477 12.4073C75.0258 12.4073 74.7575 12.3 74.543 12.0854C74.6771 11.9111 74.8045 11.6562 74.9252 11.3209C75.0459 10.9856 75.1063 10.6906 75.1063 10.4358C75.1063 10.0468 74.9453 9.85235 74.6234 9.85235C74.2881 9.85235 73.8724 10.1809 73.3761 10.8381C72.2898 12.2598 71.3711 14.6471 70.62 18L69.2118 18.1207L71.1833 9.99318L69.8958 10.0938L69.8757 9.75176C70.8011 9.63106 71.6661 9.46341 72.4708 9.24882ZM79.8559 7.056C79.6815 6.88165 79.5944 6.66706 79.5944 6.41223C79.5944 6.15741 79.6815 5.94282 79.8559 5.76847C80.0303 5.59412 80.2448 5.50694 80.4997 5.50694C80.7545 5.50694 80.9691 5.59412 81.1434 5.76847C81.3178 5.94282 81.405 6.15741 81.405 6.41223C81.405 6.66706 81.3178 6.88165 81.1434 7.056C80.9691 7.23035 80.7545 7.31753 80.4997 7.31753C80.2448 7.31753 80.0303 7.23035 79.8559 7.056ZM77.5826 16.7326C77.5826 16.0218 78.0721 13.7753 79.0512 9.99318L77.7637 10.0938L77.7435 9.75176C78.669 9.63106 79.534 9.46341 80.3387 9.24882L80.6204 9.45C80.151 10.8448 79.7084 12.3402 79.2926 13.9362C78.8768 15.5322 78.669 16.5582 78.669 17.0142C78.669 17.4568 78.8366 17.6781 79.1719 17.6781C79.4267 17.6781 79.7017 17.5105 79.9967 17.1752C80.2918 16.8265 80.5466 16.3369 80.7612 15.7066L81.0831 15.7871C80.5064 17.4233 79.7553 18.2414 78.8299 18.2414C77.9984 18.2414 77.5826 17.7385 77.5826 16.7326ZM86.3211 9.24882L86.6027 9.45C85.9589 10.9253 85.3956 12.6219 84.9128 14.5398H85.0738L85.3956 13.6546C86.5088 10.5967 87.7829 9.06776 89.218 9.06776C89.7947 9.06776 90.2842 9.34941 90.6866 9.91271C91.1023 10.476 91.3102 11.16 91.3102 11.9647C91.3102 12.7694 91.2029 13.5205 90.9883 14.2179C90.7872 14.9019 90.4921 15.5456 90.1032 16.1492C89.7142 16.7393 89.2046 17.2221 88.5742 17.5976C87.9439 17.9732 87.2465 18.1609 86.482 18.1609C85.3152 18.1609 84.4032 17.6446 83.746 16.6119L83.8868 16.2699C84.5306 17.2489 85.3755 17.7385 86.4216 17.7385C87.0252 17.7385 87.5616 17.5373 88.0311 17.1349C88.5139 16.7326 88.8827 16.2296 89.1375 15.6261C89.6472 14.3922 89.902 13.1852 89.902 12.0049C89.902 11.3209 89.8014 10.7912 89.6002 10.4156C89.4125 10.0267 89.1643 9.83223 88.8559 9.83223C88.2255 9.83223 87.5147 10.4425 86.7234 11.6629C85.9455 12.8834 85.2414 14.7879 84.6111 17.3764L83.404 22.3454L81.9958 22.4661L85.0335 9.99318L83.746 10.0938L83.7259 9.75176C84.6513 9.63106 85.5163 9.46341 86.3211 9.24882ZM93.4545 10.0334L93.5551 9.65118H98.0212L97.9206 10.0334H93.4545ZM96.6532 7.1767L96.9348 7.37788C96.6264 8.31671 96.2106 9.792 95.6875 11.8038C95.1779 13.8155 94.8694 15.1165 94.7621 15.7066C94.6548 16.2833 94.6012 16.7192 94.6012 17.0142C94.6012 17.4568 94.7688 17.6781 95.1041 17.6781C95.359 17.6781 95.6339 17.5105 95.929 17.1752C96.224 16.8265 96.4788 16.3369 96.6934 15.7066L97.0153 15.7871C96.4386 17.4233 95.6875 18.2414 94.7621 18.2414C93.9306 18.2414 93.5148 17.7385 93.5148 16.7326C93.5148 15.9011 94.0111 13.5808 95.0035 9.77188L93.5551 9.65118C94.2927 9.65118 94.8895 9.47682 95.3455 9.12812C95.8015 8.766 96.2374 8.11553 96.6532 7.1767ZM99.2356 17.9396C99.0345 17.7251 98.9339 17.4702 98.9339 17.1752C98.9339 16.8801 99.0345 16.632 99.2356 16.4308C99.4502 16.2162 99.7051 16.1089 100 16.1089C100.295 16.1089 100.543 16.2162 100.744 16.4308C100.959 16.632 101.066 16.8801 101.066 17.1752C101.066 17.4702 100.959 17.7251 100.744 17.9396C100.543 18.1408 100.295 18.2414 100 18.2414C99.7051 18.2414 99.4502 18.1408 99.2356 17.9396ZM111.294 9.45C110.824 10.8448 110.382 12.3402 109.966 13.9362C109.55 15.5322 109.342 16.5582 109.342 17.0142C109.342 17.4568 109.51 17.6781 109.845 17.6781C110.1 17.6781 110.375 17.5105 110.67 17.1752C110.965 16.8265 111.22 16.3369 111.435 15.7066L111.757 15.7871C111.18 17.4233 110.429 18.2414 109.503 18.2414C108.672 18.2414 108.256 17.7385 108.256 16.7326C108.256 16.5314 108.29 16.2095 108.357 15.7669H108.256C107.425 17.4166 106.459 18.2414 105.359 18.2414C104.729 18.2414 104.199 17.9665 103.77 17.4166C103.354 16.8533 103.146 16.1693 103.146 15.3646C103.146 14.5465 103.253 13.7887 103.468 13.0913C103.683 12.3939 103.984 11.7434 104.373 11.1399C104.762 10.5229 105.279 10.0267 105.922 9.65118C106.566 9.26223 107.27 9.06776 108.035 9.06776C109.027 9.06776 109.812 9.49023 110.389 10.3352L111.012 9.24882L111.294 9.45ZM105.842 17.6379C106.405 17.6379 106.975 17.202 107.552 16.3302C108.209 15.3244 108.819 13.6814 109.383 11.4014C109.503 10.8649 109.597 10.476 109.664 10.2346C109.195 9.77859 108.652 9.55059 108.035 9.55059C107.431 9.55059 106.888 9.75847 106.405 10.1742C105.936 10.59 105.567 11.1131 105.299 11.7434C104.749 13.0309 104.474 14.2447 104.474 15.3847C104.474 16.1358 104.595 16.6991 104.836 17.0746C105.091 17.4501 105.426 17.6379 105.842 17.6379ZM116.967 9.24882L117.249 9.45C116.605 10.9253 116.042 12.6219 115.559 14.5398H115.72L116.042 13.6546C116.672 11.9379 117.296 10.7442 117.913 10.0736C118.529 9.40306 119.066 9.06776 119.522 9.06776C119.978 9.06776 120.313 9.21529 120.528 9.51035C120.756 9.80541 120.87 10.1876 120.87 10.6571C120.87 11.1265 120.783 11.5355 120.608 11.8842C120.434 12.2329 120.179 12.4073 119.844 12.4073C119.522 12.4073 119.254 12.3 119.039 12.0854C119.173 11.9111 119.301 11.6562 119.421 11.3209C119.542 10.9856 119.602 10.6906 119.602 10.4358C119.602 10.0468 119.441 9.85235 119.12 9.85235C118.784 9.85235 118.369 10.1809 117.872 10.8381C116.786 12.2598 115.867 14.6471 115.116 18L113.708 18.1207L115.679 9.99318L114.392 10.0938L114.372 9.75176C115.297 9.63106 116.162 9.46341 116.967 9.24882ZM122.904 16.8332L126.102 17.5574C126.8 17.7184 127.296 17.9329 127.591 18.2012C127.886 18.4828 128.034 18.8651 128.034 19.3479C128.034 20.1258 127.604 20.8567 126.746 21.5407C125.901 22.2381 124.935 22.5868 123.849 22.5868C122.763 22.5868 121.878 22.3387 121.194 21.8425C120.523 21.3462 120.188 20.7561 120.188 20.0721C120.188 19.6027 120.349 19.1534 120.671 18.7242C120.979 18.2951 121.442 17.9329 122.059 17.6379L122.461 17.7586C122.059 17.9598 121.75 18.2615 121.536 18.6639C121.321 19.0796 121.214 19.5155 121.214 19.9715C121.214 20.7226 121.462 21.2792 121.958 21.6413C122.454 22.0168 123.091 22.2046 123.869 22.2046C124.661 22.2046 125.385 21.9766 126.042 21.5206C126.713 21.078 127.048 20.5415 127.048 19.9112C127.048 19.2808 126.639 18.8718 125.821 18.684L122.36 17.9195C121.971 17.8391 121.67 17.658 121.455 17.3764C121.241 17.0947 121.133 16.7527 121.133 16.3504C121.133 15.948 121.301 15.5792 121.636 15.2439C121.971 14.9086 122.434 14.7409 123.024 14.7409H125.056L124.996 15.0226H123.024C122.743 15.0226 122.515 15.1098 122.34 15.2841C122.179 15.4585 122.099 15.6664 122.099 15.9078C122.099 16.404 122.367 16.7125 122.904 16.8332ZM126.283 9.34941L126.263 9.06776C126.639 9.06776 126.954 8.98059 127.209 8.80623C127.464 8.61847 127.591 8.37706 127.591 8.082C127.591 7.78694 127.376 7.50529 126.947 7.23706C127.162 6.78106 127.417 6.55306 127.712 6.55306C128.02 6.55306 128.248 6.64023 128.396 6.81459C128.557 6.98894 128.637 7.21023 128.637 7.47847C128.637 7.94788 128.423 8.37706 127.993 8.766C127.578 9.15494 127.008 9.34941 126.283 9.34941ZM122.602 12.8298C122.602 11.8373 122.951 10.9655 123.648 10.2145C124.359 9.45 125.231 9.06776 126.263 9.06776C126.987 9.06776 127.557 9.26223 127.973 9.65118C128.402 10.0267 128.617 10.5632 128.617 11.2606C128.617 12.3872 128.255 13.2992 127.531 13.9966C126.806 14.6806 125.961 15.0226 124.996 15.0226C124.258 15.0226 123.675 14.8348 123.246 14.4593C122.816 14.0704 122.602 13.5272 122.602 12.8298ZM126.243 9.45C125.505 9.45 124.902 9.85906 124.433 10.6772C123.963 11.4819 123.728 12.1994 123.728 12.8298C123.728 13.4601 123.842 13.9228 124.07 14.2179C124.312 14.4995 124.627 14.6404 125.016 14.6404C125.606 14.6404 126.169 14.3051 126.706 13.6345C127.242 12.9639 127.511 12.1189 127.511 11.0996C127.511 10.59 127.39 10.1876 127.148 9.89259C126.92 9.59753 126.619 9.45 126.243 9.45ZM134.286 9.55059C133.776 9.55059 133.34 9.69812 132.978 9.99318C132.616 10.2882 132.435 10.6638 132.435 11.1198C132.435 11.5758 132.623 11.9915 132.998 12.3671C133.374 12.7426 133.783 13.0578 134.225 13.3126C134.668 13.554 135.077 13.8759 135.453 14.2782C135.828 14.6806 136.016 15.1098 136.016 15.5658C136.016 16.4241 135.681 17.088 135.01 17.5574C134.353 18.0134 133.555 18.2414 132.616 18.2414C131.677 18.2414 130.852 18.0201 130.142 17.5775C130.37 17.1215 130.584 16.3302 130.785 15.2036L131.127 15.264C131.033 15.8139 130.986 16.2498 130.986 16.5716C130.986 16.8801 131.134 17.1685 131.429 17.4367C131.738 17.6915 132.173 17.8189 132.737 17.8189C133.313 17.8189 133.796 17.6446 134.185 17.2959C134.588 16.9472 134.789 16.4912 134.789 15.9279C134.789 15.5658 134.608 15.2171 134.246 14.8818C133.897 14.5331 133.508 14.2447 133.079 14.0167C132.663 13.7887 132.274 13.4668 131.912 13.0511C131.563 12.6353 131.389 12.1793 131.389 11.6831C131.389 10.9454 131.677 10.3285 132.254 9.83223C132.844 9.32259 133.615 9.06776 134.567 9.06776C135.305 9.06776 136.036 9.24882 136.76 9.61094C136.693 9.75847 136.579 10.0938 136.418 10.6168C136.271 11.1399 136.157 11.6361 136.076 12.1055L135.734 12.0452C135.815 11.616 135.855 11.2069 135.855 10.818C135.855 10.4156 135.721 10.1072 135.453 9.89259C135.198 9.66459 134.809 9.55059 134.286 9.55059ZM152.39 12.87H144.504V11.8038H152.39V12.87ZM152.39 16.29H144.504V15.2238H152.39V16.29Z" fill="#6082FA"/>
<path opacity="0.86" d="M167.625 5.78859H165.311L162.837 17.5373H165.17C166.029 17.5373 166.82 17.2691 167.544 16.7326C168.268 16.1961 168.852 15.5188 169.294 14.7007C170.206 12.9974 170.662 11.3008 170.662 9.61094C170.662 8.40388 170.381 7.46506 169.817 6.79447C169.268 6.12388 168.537 5.78859 167.625 5.78859ZM162.877 5.32588H167.745C169.086 5.32588 170.146 5.72153 170.924 6.51282C171.702 7.29071 172.091 8.38376 172.091 9.792C172.091 10.7442 171.923 11.7032 171.588 12.6688C171.266 13.6211 170.817 14.4995 170.24 15.3042C169.663 16.0955 168.919 16.746 168.007 17.2556C167.108 17.7519 166.129 18 165.07 18H160.201L160.262 17.6379H161.187C161.361 17.6379 161.469 17.5373 161.509 17.3361C163.118 9.71824 163.923 5.87576 163.923 5.80871C163.923 5.72823 163.849 5.688 163.702 5.688H162.816L162.877 5.32588ZM178.354 9.06776C179.065 9.06776 179.594 9.24212 179.943 9.59082C180.305 9.92612 180.486 10.4156 180.486 11.0594C180.486 11.6898 180.238 12.2396 179.742 12.7091C178.897 13.5138 177.643 13.9161 175.98 13.9161C175.484 13.9161 175.055 13.8759 174.692 13.7954V13.4132C175.162 13.4802 175.551 13.5138 175.859 13.5138C176.972 13.5138 177.831 13.2321 178.434 12.6688C179.051 12.1055 179.36 11.4886 179.36 10.818C179.36 10.4559 179.259 10.1541 179.058 9.91271C178.87 9.67129 178.548 9.55059 178.092 9.55059C177.65 9.55059 177.194 9.75847 176.724 10.1742C176.268 10.59 175.906 11.1064 175.638 11.7233C175.102 13.0242 174.833 14.1508 174.833 15.1031C174.833 16.8734 175.37 17.7586 176.443 17.7586C177.77 17.7586 178.743 17.0344 179.36 15.5859L179.682 15.6664C179.36 16.4845 178.89 17.1215 178.273 17.5775C177.67 18.0201 176.986 18.2414 176.221 18.2414C175.457 18.2414 174.813 17.9598 174.29 17.3965C173.767 16.8332 173.506 16.0754 173.506 15.1232C173.506 14.1709 173.687 13.2522 174.049 12.3671C174.411 11.4685 174.974 10.6973 175.739 10.0535C176.503 9.39635 177.375 9.06776 178.354 9.06776ZM186.652 9.55059C186.102 9.55059 185.592 9.75847 185.123 10.1742C184.667 10.59 184.305 11.1064 184.036 11.7233C183.5 13.0242 183.232 14.1508 183.232 15.1031C183.232 16.8734 183.768 17.7586 184.841 17.7586C186.169 17.7586 187.141 17.0344 187.758 15.5859L188.08 15.6664C187.758 16.4845 187.289 17.1215 186.672 17.5775C186.068 18.0201 185.384 18.2414 184.62 18.2414C183.855 18.2414 183.212 17.9598 182.688 17.3965C182.165 16.8332 181.904 16.0754 181.904 15.1232C181.904 14.1709 182.085 13.2522 182.447 12.3671C182.809 11.4685 183.372 10.6973 184.137 10.0535C184.901 9.39635 185.773 9.06776 186.752 9.06776C187.423 9.06776 187.926 9.24212 188.261 9.59082C188.61 9.92612 188.784 10.3352 188.784 10.818C188.784 11.2874 188.697 11.7099 188.523 12.0854C188.362 12.4609 188.1 12.6487 187.738 12.6487C187.389 12.6487 187.128 12.5414 186.953 12.3268C187.342 11.7367 187.537 11.16 187.537 10.5967C187.537 9.89929 187.242 9.55059 186.652 9.55059Z" fill="#6082FA"/>
<path opacity="0.86" d="M193.755 11.7384C194.274 11.5059 194.824 11.3896 195.405 11.3896C196.29 11.3896 196.988 11.6579 197.497 12.1944C198.016 12.7219 198.275 13.4685 198.275 14.4341C198.275 15.0868 198.168 15.7485 197.953 16.4191C197.739 17.0807 197.439 17.6932 197.055 18.2565C196.67 18.8198 196.169 19.2802 195.552 19.6379C194.936 19.9866 194.225 20.1609 193.42 20.1609C192.615 20.1609 191.954 19.8927 191.435 19.3562C190.925 18.8198 190.671 18.0419 190.671 17.0226C190.671 16.0033 190.948 14.9751 191.502 13.9379C192.065 12.9007 192.816 12.1675 193.755 11.7384ZM196.786 12.4224C196.429 11.9664 195.955 11.7384 195.365 11.7384C194.775 11.7384 194.229 11.9306 193.728 12.3151C193.228 12.6906 192.83 13.1689 192.535 13.7501C191.918 14.9482 191.609 16.1106 191.609 17.2372C191.609 18.0508 191.784 18.6856 192.132 19.1416C192.49 19.5887 192.964 19.8122 193.554 19.8122C194.153 19.8122 194.703 19.6245 195.204 19.2489C195.704 18.8645 196.107 18.3861 196.411 17.8139C197.028 16.6247 197.336 15.4624 197.336 14.3268C197.336 13.5132 197.153 12.8784 196.786 12.4224ZM199.374 14.6889L199.441 14.4341H202.821L202.754 14.6889H199.374ZM201.654 13.6831L200.393 19.5708C200.134 20.7511 199.817 21.6273 199.441 22.1995C199.066 22.7718 198.61 23.0579 198.073 23.0579C197.733 23.0579 197.47 22.9551 197.282 22.7494C197.094 22.5438 197 22.3113 197 22.052C197 21.8016 197.054 21.5736 197.161 21.368C197.26 21.1713 197.421 21.0729 197.644 21.0729C197.868 21.0729 198.029 21.1311 198.127 21.2473C198.011 21.3367 197.917 21.4708 197.845 21.6496C197.765 21.8285 197.725 22.0028 197.725 22.1727C197.725 22.5572 197.885 22.7494 198.207 22.7494C198.565 22.7494 198.838 22.4722 199.025 21.9179C199.213 21.3635 199.473 20.2504 199.803 18.5784L200.581 14.6085C200.769 13.6607 201.1 12.8471 201.574 12.1675C202.048 11.488 202.597 11.1482 203.223 11.1482C203.67 11.1482 204.006 11.2511 204.229 11.4567C204.462 11.6624 204.578 11.9038 204.578 12.1809C204.578 12.4581 204.52 12.7085 204.404 12.932C204.296 13.1555 204.122 13.2673 203.881 13.2673C203.639 13.2673 203.465 13.2047 203.357 13.0795C203.617 12.7487 203.746 12.4134 203.746 12.0736C203.746 11.6624 203.55 11.4567 203.156 11.4567C202.772 11.4567 202.463 11.6534 202.231 12.0468C201.998 12.4313 201.806 12.9767 201.654 13.6831ZM203.532 14.6889L203.599 14.4341H206.979L206.912 14.6889H203.532ZM205.812 13.6831L204.552 19.5708C204.292 20.7511 203.975 21.6273 203.599 22.1995C203.224 22.7718 202.768 23.0579 202.231 23.0579C201.892 23.0579 201.628 22.9551 201.44 22.7494C201.252 22.5438 201.158 22.3113 201.158 22.052C201.158 21.8016 201.212 21.5736 201.319 21.368C201.418 21.1713 201.579 21.0729 201.802 21.0729C202.026 21.0729 202.187 21.1311 202.285 21.2473C202.169 21.3367 202.075 21.4708 202.003 21.6496C201.923 21.8285 201.883 22.0028 201.883 22.1727C201.883 22.5572 202.044 22.7494 202.366 22.7494C202.723 22.7494 202.996 22.4722 203.184 21.9179C203.371 21.3635 203.631 20.2504 203.962 18.5784L204.739 14.6085C204.927 13.6607 205.258 12.8471 205.732 12.1675C206.206 11.488 206.756 11.1482 207.382 11.1482C207.829 11.1482 208.164 11.2511 208.387 11.4567C208.62 11.6624 208.736 11.9038 208.736 12.1809C208.736 12.4581 208.678 12.7085 208.562 12.932C208.454 13.1555 208.28 13.2673 208.039 13.2673C207.797 13.2673 207.623 13.2047 207.516 13.0795C207.775 12.7487 207.905 12.4134 207.905 12.0736C207.905 11.6624 207.708 11.4567 207.314 11.4567C206.93 11.4567 206.622 11.6534 206.389 12.0468C206.157 12.4313 205.964 12.9767 205.812 13.6831ZM210.762 14.0452C211.236 14.0452 211.589 14.1614 211.821 14.3939C212.063 14.6174 212.183 14.9438 212.183 15.3729C212.183 15.7932 212.018 16.1598 211.687 16.4727C211.124 17.0092 210.288 17.2774 209.179 17.2774C208.848 17.2774 208.562 17.2506 208.321 17.1969V16.9421C208.634 16.9868 208.893 17.0092 209.099 17.0092C209.841 17.0092 210.413 16.8214 210.815 16.4459C211.227 16.0704 211.432 15.6591 211.432 15.212C211.432 14.9706 211.365 14.7694 211.231 14.6085C211.106 14.4475 210.891 14.3671 210.587 14.3671C210.292 14.3671 209.988 14.5056 209.675 14.7828C209.371 15.06 209.13 15.4042 208.951 15.8155C208.594 16.6828 208.415 17.4339 208.415 18.0687C208.415 19.2489 208.772 19.8391 209.488 19.8391C210.373 19.8391 211.021 19.3562 211.432 18.3906L211.647 18.4442C211.432 18.9896 211.119 19.4144 210.708 19.7184C210.306 20.0134 209.85 20.1609 209.34 20.1609C208.831 20.1609 208.401 19.9732 208.053 19.5976C207.704 19.2221 207.53 18.7169 207.53 18.0821C207.53 17.4473 207.65 16.8348 207.892 16.2447C208.133 15.6456 208.509 15.1315 209.018 14.7024C209.528 14.2642 210.109 14.0452 210.762 14.0452ZM215.368 14.1659L215.556 14.3C215.127 15.2835 214.751 16.4146 214.429 17.6932H214.537L214.751 17.1031C215.172 15.9586 215.587 15.1628 215.999 14.7158C216.41 14.2687 216.768 14.0452 217.072 14.0452C217.376 14.0452 217.599 14.1435 217.742 14.3402C217.894 14.5369 217.97 14.7918 217.97 15.1047C217.97 15.4176 217.912 15.6904 217.796 15.9228C217.68 16.1553 217.51 16.2715 217.286 16.2715C217.072 16.2715 216.893 16.2 216.75 16.0569C216.839 15.9407 216.924 15.7708 217.004 15.5473C217.085 15.3238 217.125 15.1271 217.125 14.9572C217.125 14.6979 217.018 14.5682 216.803 14.5682C216.58 14.5682 216.303 14.7873 215.972 15.2254C215.248 16.1732 214.635 17.7647 214.134 20L213.196 20.0805L214.51 14.6621L213.652 14.7292L213.638 14.5012C214.255 14.4207 214.832 14.3089 215.368 14.1659ZM218.615 19.9598C218.481 19.8167 218.414 19.6468 218.414 19.4501C218.414 19.2534 218.481 19.088 218.615 18.9539C218.758 18.8108 218.928 18.7393 219.125 18.7393C219.322 18.7393 219.487 18.8108 219.621 18.9539C219.764 19.088 219.836 19.2534 219.836 19.4501C219.836 19.6468 219.764 19.8167 219.621 19.9598C219.487 20.0939 219.322 20.1609 219.125 20.1609C218.928 20.1609 218.758 20.0939 218.615 19.9598ZM226.654 14.3C226.341 15.2299 226.046 16.2268 225.769 17.2908C225.492 18.3548 225.353 19.0388 225.353 19.3428C225.353 19.6379 225.465 19.7854 225.688 19.7854C225.858 19.7854 226.041 19.6736 226.238 19.4501C226.435 19.2176 226.605 18.8913 226.748 18.4711L226.962 18.5247C226.578 19.6155 226.077 20.1609 225.46 20.1609C224.906 20.1609 224.629 19.8256 224.629 19.1551C224.629 19.0209 224.651 18.8064 224.696 18.5113H224.629C224.074 19.6111 223.431 20.1609 222.697 20.1609C222.277 20.1609 221.924 19.9776 221.638 19.6111C221.361 19.2355 221.222 18.7795 221.222 18.2431C221.222 17.6976 221.294 17.1925 221.437 16.7275C221.58 16.2626 221.781 15.8289 222.04 15.4266C222.3 15.0153 222.644 14.6845 223.073 14.4341C223.502 14.1748 223.972 14.0452 224.481 14.0452C225.143 14.0452 225.666 14.3268 226.05 14.8901L226.466 14.1659L226.654 14.3ZM223.019 19.7586C223.395 19.7586 223.775 19.468 224.159 18.8868C224.597 18.2162 225.004 17.1209 225.38 15.6009C225.46 15.2433 225.523 14.984 225.568 14.8231C225.255 14.5191 224.893 14.3671 224.481 14.3671C224.079 14.3671 223.717 14.5056 223.395 14.7828C223.082 15.06 222.836 15.4087 222.657 15.8289C222.291 16.6873 222.107 17.4965 222.107 18.2565C222.107 18.7572 222.188 19.1327 222.349 19.3831C222.519 19.6334 222.742 19.7586 223.019 19.7586ZM230.436 14.1659L230.624 14.3C230.195 15.2835 229.819 16.4146 229.497 17.6932H229.605L229.819 17.1031C230.239 15.9586 230.655 15.1628 231.066 14.7158C231.478 14.2687 231.835 14.0452 232.139 14.0452C232.443 14.0452 232.667 14.1435 232.81 14.3402C232.962 14.5369 233.038 14.7918 233.038 15.1047C233.038 15.4176 232.98 15.6904 232.864 15.9228C232.747 16.1553 232.577 16.2715 232.354 16.2715C232.139 16.2715 231.961 16.2 231.817 16.0569C231.907 15.9407 231.992 15.7708 232.072 15.5473C232.153 15.3238 232.193 15.1271 232.193 14.9572C232.193 14.6979 232.086 14.5682 231.871 14.5682C231.648 14.5682 231.37 14.7873 231.04 15.2254C230.315 16.1732 229.703 17.7647 229.202 20L228.263 20.0805L229.578 14.6621L228.719 14.7292L228.706 14.5012C229.323 14.4207 229.9 14.3089 230.436 14.1659ZM234.394 19.2221L236.526 19.7049C236.991 19.8122 237.322 19.9553 237.519 20.1341C237.715 20.3219 237.814 20.5767 237.814 20.8986C237.814 21.4172 237.528 21.9045 236.955 22.3605C236.392 22.8254 235.748 23.0579 235.024 23.0579C234.3 23.0579 233.71 22.8925 233.254 22.5616C232.807 22.2308 232.583 21.8374 232.583 21.3814C232.583 21.0685 232.69 20.7689 232.905 20.4828C233.111 20.1967 233.419 19.9553 233.83 19.7586L234.099 19.8391C233.83 19.9732 233.625 20.1744 233.482 20.4426C233.339 20.7198 233.267 21.0104 233.267 21.3144C233.267 21.8151 233.433 22.1861 233.763 22.4275C234.094 22.6779 234.519 22.8031 235.038 22.8031C235.565 22.8031 236.048 22.6511 236.486 22.3471C236.933 22.052 237.157 21.6944 237.157 21.2741C237.157 20.8539 236.884 20.5812 236.338 20.456L234.032 19.9464C233.772 19.8927 233.571 19.772 233.428 19.5842C233.285 19.3965 233.214 19.1685 233.214 18.9002C233.214 18.632 233.325 18.3861 233.549 18.1626C233.772 17.9391 234.081 17.8273 234.474 17.8273H235.829L235.789 18.0151H234.474C234.286 18.0151 234.134 18.0732 234.018 18.1894C233.911 18.3056 233.857 18.4442 233.857 18.6052C233.857 18.936 234.036 19.1416 234.394 19.2221ZM236.647 14.2329L236.634 14.0452C236.884 14.0452 237.094 13.9871 237.264 13.8708C237.434 13.7456 237.519 13.5847 237.519 13.388C237.519 13.1913 237.376 13.0035 237.09 12.8247C237.233 12.5207 237.402 12.3687 237.599 12.3687C237.805 12.3687 237.957 12.4268 238.055 12.5431C238.162 12.6593 238.216 12.8068 238.216 12.9856C238.216 13.2986 238.073 13.5847 237.787 13.844C237.51 14.1033 237.13 14.2329 236.647 14.2329ZM234.193 16.5532C234.193 15.8915 234.425 15.3104 234.89 14.8096C235.364 14.3 235.945 14.0452 236.634 14.0452C237.116 14.0452 237.496 14.1748 237.774 14.4341C238.06 14.6845 238.203 15.0421 238.203 15.5071C238.203 16.2581 237.961 16.8661 237.478 17.3311C236.996 17.7871 236.432 18.0151 235.789 18.0151C235.297 18.0151 234.908 17.8899 234.622 17.6395C234.336 17.3802 234.193 17.0181 234.193 16.5532ZM236.62 14.3C236.128 14.3 235.726 14.5727 235.413 15.1181C235.1 15.6546 234.944 16.1329 234.944 16.5532C234.944 16.9734 235.02 17.2819 235.172 17.4786C235.333 17.6664 235.543 17.7602 235.802 17.7602C236.195 17.7602 236.571 17.5367 236.929 17.0896C237.286 16.6426 237.465 16.0793 237.465 15.3998C237.465 15.06 237.385 14.7918 237.224 14.5951C237.072 14.3984 236.87 14.3 236.62 14.3ZM241.982 14.3671C241.642 14.3671 241.352 14.4654 241.11 14.6621C240.869 14.8588 240.748 15.1092 240.748 15.4132C240.748 15.7172 240.873 15.9944 241.124 16.2447C241.374 16.4951 241.647 16.7052 241.942 16.8751C242.237 17.036 242.509 17.2506 242.76 17.5188C243.01 17.7871 243.135 18.0732 243.135 18.3772C243.135 18.9494 242.912 19.392 242.465 19.7049C242.027 20.0089 241.495 20.1609 240.869 20.1609C240.243 20.1609 239.693 20.0134 239.219 19.7184C239.371 19.4144 239.514 18.8868 239.648 18.1358L239.876 18.176C239.814 18.5426 239.782 18.8332 239.782 19.0478C239.782 19.2534 239.881 19.4456 240.077 19.6245C240.283 19.7944 240.574 19.8793 240.949 19.8793C241.334 19.8793 241.656 19.7631 241.915 19.5306C242.183 19.2981 242.317 18.9941 242.317 18.6186C242.317 18.3772 242.196 18.1447 241.955 17.9212C241.723 17.6887 241.463 17.4965 241.177 17.3445C240.9 17.1925 240.641 16.9779 240.399 16.7007C240.167 16.4235 240.051 16.1195 240.051 15.7887C240.051 15.2969 240.243 14.8856 240.627 14.5548C241.021 14.2151 241.535 14.0452 242.17 14.0452C242.661 14.0452 243.149 14.1659 243.632 14.4073C243.587 14.5056 243.511 14.7292 243.404 15.0779C243.305 15.4266 243.229 15.7574 243.176 16.0704L242.948 16.0301C243.001 15.744 243.028 15.4713 243.028 15.212C243.028 14.9438 242.939 14.7381 242.76 14.5951C242.59 14.4431 242.331 14.3671 241.982 14.3671ZM248.07 16.6336H246.755C246.344 18.5292 246.138 19.5261 246.138 19.6245C246.138 19.7139 246.187 19.7586 246.286 19.7586H247.265L247.225 20H244.368L244.408 19.7586H245.025C245.141 19.7586 245.213 19.6915 245.24 19.5574C246.313 14.4788 246.849 11.9172 246.849 11.8725C246.849 11.8188 246.8 11.792 246.702 11.792H246.111L246.152 11.5506H249.143C249.751 11.5506 250.251 11.7205 250.645 12.0602C251.038 12.4 251.235 12.8694 251.235 13.4685C251.235 14.4162 250.908 15.1807 250.256 15.7619C249.603 16.3431 248.874 16.6336 248.07 16.6336ZM248.995 11.8591H247.775L246.822 16.3252H248.083C248.727 16.3252 249.263 16.0122 249.692 15.3864C250.131 14.7605 250.35 14.1033 250.35 13.4148C250.35 12.9678 250.233 12.5967 250.001 12.3016C249.777 12.0066 249.442 11.8591 248.995 11.8591ZM255.274 19.1551C255.274 19.0209 255.297 18.8064 255.341 18.5113H255.274C254.702 19.6111 254.04 20.1609 253.289 20.1609C252.485 20.1609 252.082 19.7139 252.082 18.8198C252.082 18.2386 252.288 17.1612 252.699 15.5875L252.941 14.6621L252.082 14.7292L252.069 14.5012C252.686 14.4207 253.262 14.3089 253.799 14.1659L253.987 14.3C253.236 16.6336 252.86 18.1268 252.86 18.7795C252.86 19.4322 253.106 19.7586 253.598 19.7586C254.009 19.7586 254.411 19.4591 254.805 18.86C255.207 18.252 255.538 17.4384 255.797 16.4191L256.253 14.6621L255.395 14.7292L255.382 14.5012C255.998 14.4207 256.575 14.3089 257.112 14.1659L257.299 14.3C256.986 15.2299 256.691 16.2268 256.414 17.2908C256.137 18.3548 255.998 19.0388 255.998 19.3428C255.998 19.6379 256.11 19.7854 256.334 19.7854C256.504 19.7854 256.687 19.6736 256.884 19.4501C257.08 19.2176 257.25 18.8913 257.393 18.4711L257.608 18.5247C257.223 19.6155 256.723 20.1609 256.106 20.1609C255.551 20.1609 255.274 19.8256 255.274 19.1551ZM260.03 17.6932H260.137L260.352 17.1031C261.103 15.0645 261.926 14.0452 262.82 14.0452C263.24 14.0452 263.589 14.2329 263.866 14.6085C264.152 14.9751 264.295 15.4311 264.295 15.9765C264.295 16.5129 264.223 17.0136 264.08 17.4786C263.937 17.9435 263.736 18.3816 263.477 18.7929C263.218 19.1953 262.873 19.5261 262.444 19.7854C262.015 20.0358 261.577 20.1609 261.13 20.1609C260.683 20.1609 260.298 20.076 259.976 19.9061C259.655 19.7273 259.404 19.4948 259.225 19.2087L259.346 18.8466C259.775 19.5261 260.325 19.8659 260.996 19.8659C261.505 19.8659 261.948 19.6334 262.323 19.1685C262.699 18.6946 262.963 18.176 263.115 17.6127C263.276 17.0405 263.356 16.5174 263.356 16.0435C263.356 15.5607 263.276 15.1941 263.115 14.9438C262.963 14.6845 262.784 14.5548 262.578 14.5548C262.373 14.5548 262.167 14.6442 261.961 14.8231C261.756 14.9929 261.532 15.2612 261.291 15.6278C260.772 16.4325 260.285 17.7513 259.829 19.5842L259.427 19.1551L259.024 20.1609L258.796 20.0805L260.902 11.6847L260.043 11.7518L260.03 11.5238C260.647 11.4433 261.224 11.3315 261.76 11.1885L261.948 11.3226C261.224 13.4327 260.584 15.5562 260.03 17.6932ZM266.358 19.3428C266.358 19.6379 266.469 19.7854 266.693 19.7854C266.863 19.7854 267.046 19.6736 267.243 19.4501C267.44 19.2176 267.609 18.8913 267.753 18.4711L267.967 18.5247C267.583 19.6155 267.082 20.1609 266.465 20.1609C265.911 20.1609 265.633 19.8122 265.633 19.1148C265.633 18.4085 266.219 15.9318 267.39 11.6847L266.532 11.7518L266.519 11.5238C267.136 11.4433 267.712 11.3315 268.249 11.1885L268.437 11.3226C268.061 12.4224 267.618 13.9155 267.109 15.8021C266.608 17.6798 266.358 18.86 266.358 19.3428ZM271.114 12.704C270.998 12.5878 270.939 12.4447 270.939 12.2748C270.939 12.1049 270.998 11.9619 271.114 11.8456C271.23 11.7294 271.373 11.6713 271.543 11.6713C271.713 11.6713 271.856 11.7294 271.972 11.8456C272.088 11.9619 272.147 12.1049 272.147 12.2748C272.147 12.4447 272.088 12.5878 271.972 12.704C271.856 12.8202 271.713 12.8784 271.543 12.8784C271.373 12.8784 271.23 12.8202 271.114 12.704ZM269.598 19.1551C269.598 18.6812 269.925 17.1835 270.577 14.6621L269.719 14.7292L269.706 14.5012C270.323 14.4207 270.899 14.3089 271.436 14.1659L271.623 14.3C271.311 15.2299 271.015 16.2268 270.738 17.2908C270.461 18.3548 270.323 19.0388 270.323 19.3428C270.323 19.6379 270.434 19.7854 270.658 19.7854C270.828 19.7854 271.011 19.6736 271.208 19.4501C271.404 19.2176 271.574 18.8913 271.717 18.4711L271.932 18.5247C271.547 19.6155 271.047 20.1609 270.43 20.1609C269.875 20.1609 269.598 19.8256 269.598 19.1551ZM276.336 14.3671C275.969 14.3671 275.63 14.5056 275.317 14.7828C275.013 15.06 274.771 15.4042 274.592 15.8155C274.235 16.6828 274.056 17.4339 274.056 18.0687C274.056 19.2489 274.414 19.8391 275.129 19.8391C276.014 19.8391 276.662 19.3562 277.074 18.3906L277.288 18.4442C277.074 18.9896 276.761 19.4144 276.349 19.7184C275.947 20.0134 275.491 20.1609 274.981 20.1609C274.472 20.1609 274.043 19.9732 273.694 19.5976C273.345 19.2221 273.171 18.7169 273.171 18.0821C273.171 17.4473 273.291 16.8348 273.533 16.2447C273.774 15.6456 274.15 15.1315 274.659 14.7024C275.169 14.2642 275.75 14.0452 276.403 14.0452C276.85 14.0452 277.185 14.1614 277.409 14.3939C277.641 14.6174 277.758 14.8901 277.758 15.212C277.758 15.5249 277.699 15.8066 277.583 16.0569C277.476 16.3073 277.302 16.4325 277.06 16.4325C276.828 16.4325 276.653 16.3609 276.537 16.2179C276.796 15.8245 276.926 15.44 276.926 15.0645C276.926 14.5995 276.729 14.3671 276.336 14.3671ZM281.747 11.9798L280.138 19.6245C280.138 19.7139 280.187 19.7586 280.285 19.7586H280.875L280.835 20H278.367L278.408 19.7586H279.024C279.141 19.7586 279.212 19.6915 279.239 19.5574C280.312 14.4788 280.848 11.9172 280.848 11.8725C280.848 11.8188 280.799 11.792 280.701 11.792H280.111L280.151 11.5506H282.619L282.579 11.792H281.975C281.859 11.792 281.783 11.8546 281.747 11.9798ZM283.665 17.6529L283.692 18.8868C283.71 19.4412 283.857 19.7184 284.134 19.7184C284.313 19.7184 284.461 19.6245 284.577 19.4367C284.702 19.2489 284.765 19.0075 284.765 18.7125L285.02 18.6722C285.02 19.1282 284.899 19.4904 284.657 19.7586C284.425 20.0268 284.13 20.1609 283.772 20.1609C283.137 20.1609 282.802 19.6826 282.766 18.7259L282.713 17.4115C282.686 16.8304 282.565 16.428 282.351 16.2045C282.136 15.972 281.783 15.8558 281.291 15.8558L281.358 15.6412L285.18 11.792H284.55L284.59 11.5506H286.32L286.28 11.792H285.932C285.788 11.792 285.659 11.8546 285.543 11.9798L281.908 15.6144C282.552 15.6233 282.999 15.8111 283.249 16.1776C283.508 16.5442 283.647 17.036 283.665 17.6529ZM289.893 14.0452C290.367 14.0452 290.72 14.1614 290.952 14.3939C291.194 14.6174 291.314 14.9438 291.314 15.3729C291.314 15.7932 291.149 16.1598 290.818 16.4727C290.255 17.0092 289.419 17.2774 288.31 17.2774C287.979 17.2774 287.693 17.2506 287.452 17.1969V16.9421C287.765 16.9868 288.024 17.0092 288.23 17.0092C288.972 17.0092 289.544 16.8214 289.946 16.4459C290.358 16.0704 290.563 15.6591 290.563 15.212C290.563 14.9706 290.496 14.7694 290.362 14.6085C290.237 14.4475 290.022 14.3671 289.718 14.3671C289.423 14.3671 289.119 14.5056 288.806 14.7828C288.502 15.06 288.261 15.4042 288.082 15.8155C287.725 16.6828 287.546 17.4339 287.546 18.0687C287.546 19.2489 287.903 19.8391 288.619 19.8391C289.504 19.8391 290.152 19.3562 290.563 18.3906L290.778 18.4442C290.563 18.9896 290.25 19.4144 289.839 19.7184C289.437 20.0134 288.981 20.1609 288.471 20.1609C287.962 20.1609 287.532 19.9732 287.184 19.5976C286.835 19.2221 286.661 18.7169 286.661 18.0821C286.661 17.4473 286.781 16.8348 287.023 16.2447C287.264 15.6456 287.64 15.1315 288.149 14.7024C288.659 14.2642 289.24 14.0452 289.893 14.0452ZM294.405 19.7184C294.978 19.7184 295.545 19.3026 296.109 18.4711C296.681 17.6306 296.967 16.8482 296.967 16.124C296.967 15.3908 296.735 14.7918 296.27 14.3268C296.493 14.1391 296.699 14.0452 296.887 14.0452C297.235 14.0452 297.41 14.5369 297.41 15.5205C297.41 16.504 297.302 17.4071 297.088 18.2296C296.873 19.0433 296.591 19.7362 296.243 20.3085C295.903 20.8807 295.514 21.3769 295.076 21.7972C294.227 22.6376 293.364 23.0579 292.487 23.0579C292.04 23.0579 291.705 22.9551 291.482 22.7494C291.249 22.5438 291.133 22.3024 291.133 22.0252C291.133 21.748 291.191 21.4976 291.307 21.2741C291.415 21.0506 291.58 20.9388 291.803 20.9388C292.027 20.9388 292.21 21.0014 292.353 21.1266C292.094 21.4574 291.964 21.7614 291.964 22.0386C291.964 22.4856 292.201 22.7092 292.675 22.7092C292.988 22.7092 293.35 22.5929 293.762 22.3605C294.173 22.1369 294.589 21.8151 295.009 21.3948C295.429 20.9835 295.814 20.4292 296.162 19.7318C296.52 19.0344 296.77 18.2788 296.913 17.4652C296.618 18.2431 296.22 18.8868 295.72 19.3965C295.228 19.9061 294.66 20.1609 294.016 20.1609C293.686 20.1609 293.417 20.0492 293.212 19.8256C293.015 19.5932 292.917 19.2802 292.917 18.8868C292.917 18.4934 293.064 17.8049 293.359 16.8214C293.663 15.8379 293.815 15.1941 293.815 14.8901C293.815 14.5772 293.699 14.4207 293.467 14.4207C293.297 14.4207 293.118 14.5369 292.93 14.7694C292.742 14.9929 292.59 15.3148 292.474 15.7351L292.246 15.6814C292.577 14.5906 293.055 14.0452 293.681 14.0452C294.262 14.0452 294.553 14.3581 294.553 14.984C294.553 15.2344 294.414 15.8558 294.137 16.8482C293.86 17.8407 293.721 18.4934 293.721 18.8064C293.721 19.4144 293.949 19.7184 294.405 19.7184ZM303.159 19.7586L302.797 17.1701H299.833L298.384 19.7586H299.216L299.176 20H297.244L297.298 19.7586H297.767C297.893 19.7586 297.986 19.696 298.049 19.5708L302.555 11.5506H302.985L304.084 19.5708C304.102 19.696 304.169 19.7586 304.286 19.7586H304.755L304.715 20H302.287L302.327 19.7586H303.159ZM302.22 12.9186L300.034 16.7946H302.743L302.22 12.9186ZM306.951 19.3428C306.951 19.6379 307.063 19.7854 307.287 19.7854C307.456 19.7854 307.64 19.6736 307.836 19.4501C308.033 19.2176 308.203 18.8913 308.346 18.4711L308.561 18.5247C308.176 19.6155 307.676 20.1609 307.059 20.1609C306.504 20.1609 306.227 19.8122 306.227 19.1148C306.227 18.4085 306.813 15.9318 307.984 11.6847L307.126 11.7518L307.112 11.5238C307.729 11.4433 308.306 11.3315 308.842 11.1885L309.03 11.3226C308.655 12.4224 308.212 13.9155 307.702 15.8021C307.202 17.6798 306.951 18.86 306.951 19.3428ZM310.742 19.2221L312.874 19.7049C313.339 19.8122 313.67 19.9553 313.867 20.1341C314.063 20.3219 314.162 20.5767 314.162 20.8986C314.162 21.4172 313.876 21.9045 313.303 22.3605C312.74 22.8254 312.096 23.0579 311.372 23.0579C310.648 23.0579 310.058 22.8925 309.602 22.5616C309.155 22.2308 308.931 21.8374 308.931 21.3814C308.931 21.0685 309.039 20.7689 309.253 20.4828C309.459 20.1967 309.767 19.9553 310.179 19.7586L310.447 19.8391C310.179 19.9732 309.973 20.1744 309.83 20.4426C309.687 20.7198 309.615 21.0104 309.615 21.3144C309.615 21.8151 309.781 22.1861 310.111 22.4275C310.442 22.6779 310.867 22.8031 311.386 22.8031C311.913 22.8031 312.396 22.6511 312.834 22.3471C313.281 22.052 313.505 21.6944 313.505 21.2741C313.505 20.8539 313.232 20.5812 312.687 20.456L310.38 19.9464C310.12 19.8927 309.919 19.772 309.776 19.5842C309.633 19.3965 309.562 19.1685 309.562 18.9002C309.562 18.632 309.673 18.3861 309.897 18.1626C310.12 17.9391 310.429 17.8273 310.822 17.8273H312.177L312.137 18.0151H310.822C310.635 18.0151 310.483 18.0732 310.366 18.1894C310.259 18.3056 310.205 18.4442 310.205 18.6052C310.205 18.936 310.384 19.1416 310.742 19.2221ZM312.995 14.2329L312.982 14.0452C313.232 14.0452 313.442 13.9871 313.612 13.8708C313.782 13.7456 313.867 13.5847 313.867 13.388C313.867 13.1913 313.724 13.0035 313.438 12.8247C313.581 12.5207 313.751 12.3687 313.947 12.3687C314.153 12.3687 314.305 12.4268 314.403 12.5431C314.511 12.6593 314.564 12.8068 314.564 12.9856C314.564 13.2986 314.421 13.5847 314.135 13.844C313.858 14.1033 313.478 14.2329 312.995 14.2329ZM310.541 16.5532C310.541 15.8915 310.773 15.3104 311.238 14.8096C311.712 14.3 312.293 14.0452 312.982 14.0452C313.464 14.0452 313.844 14.1748 314.122 14.4341C314.408 14.6845 314.551 15.0421 314.551 15.5071C314.551 16.2581 314.309 16.8661 313.827 17.3311C313.344 17.7871 312.78 18.0151 312.137 18.0151C311.645 18.0151 311.256 17.8899 310.97 17.6395C310.684 17.3802 310.541 17.0181 310.541 16.5532ZM312.968 14.3C312.476 14.3 312.074 14.5727 311.761 15.1181C311.448 15.6546 311.292 16.1329 311.292 16.5532C311.292 16.9734 311.368 17.2819 311.52 17.4786C311.681 17.6664 311.891 17.7602 312.15 17.7602C312.543 17.7602 312.919 17.5367 313.277 17.0896C313.634 16.6426 313.813 16.0793 313.813 15.3998C313.813 15.06 313.733 14.7918 313.572 14.5951C313.42 14.3984 313.219 14.3 312.968 14.3ZM315.768 18.0553C315.768 17.1344 316.037 16.2536 316.573 15.4132C316.832 15.0108 317.172 14.6845 317.592 14.4341C318.013 14.1748 318.491 14.0452 319.027 14.0452C319.573 14.0452 320.015 14.2285 320.355 14.5951C320.695 14.9616 320.865 15.4624 320.865 16.0972C320.865 16.732 320.749 17.3489 320.516 17.948C320.284 18.5471 319.917 19.0656 319.416 19.5038C318.916 19.9419 318.352 20.1609 317.726 20.1609C317.101 20.1609 316.618 19.9776 316.278 19.6111C315.938 19.2445 315.768 18.7259 315.768 18.0553ZM318.92 14.3402C318.437 14.3402 318.008 14.5816 317.633 15.0645C317.266 15.5473 317.002 16.0748 316.841 16.6471C316.689 17.2193 316.613 17.7558 316.613 18.2565C316.613 18.7482 316.712 19.1416 316.908 19.4367C317.114 19.7228 317.391 19.8659 317.74 19.8659C318.097 19.8659 318.428 19.7228 318.732 19.4367C319.045 19.1506 319.291 18.7974 319.47 18.3772C319.837 17.5188 320.02 16.7767 320.02 16.1508C320.02 15.516 319.921 15.0555 319.725 14.7694C319.528 14.4833 319.26 14.3402 318.92 14.3402Z" fill="#6082FA"/>
<path opacity="0.86" d="M329.739 5.52706C328.345 6.55976 327.258 8.00823 326.48 9.87247C325.702 11.7233 325.314 13.6412 325.314 15.6261C325.314 17.5976 325.77 19.0461 326.682 19.9715L326.4 20.2733C325.555 19.7502 324.911 19.0126 324.469 18.0604C324.039 17.1081 323.825 16.0486 323.825 14.8818C323.825 12.9639 324.348 11.0929 325.394 9.26894C326.454 7.43153 327.855 6.08365 329.599 5.22529L329.739 5.52706ZM334.536 5.60753C335.314 5.25882 336.139 5.08447 337.011 5.08447C338.338 5.08447 339.385 5.48682 340.149 6.29153C340.927 7.08282 341.316 8.20271 341.316 9.65118C341.316 10.6302 341.155 11.6227 340.833 12.6286C340.511 13.6211 340.062 14.5398 339.485 15.3847C338.908 16.2296 338.157 16.9204 337.232 17.4568C336.307 17.9799 335.24 18.2414 334.033 18.2414C332.826 18.2414 331.834 17.8391 331.056 17.0344C330.291 16.2296 329.909 15.0628 329.909 13.5339C329.909 12.0049 330.325 10.4626 331.156 8.90682C332.001 7.35106 333.128 6.25129 334.536 5.60753ZM339.083 6.63353C338.546 5.94953 337.836 5.60753 336.95 5.60753C336.065 5.60753 335.247 5.89588 334.496 6.47259C333.745 7.03588 333.148 7.75341 332.706 8.62518C331.78 10.4224 331.317 12.1659 331.317 13.8558C331.317 15.0762 331.579 16.0285 332.102 16.7125C332.638 17.3831 333.349 17.7184 334.234 17.7184C335.133 17.7184 335.958 17.4367 336.709 16.8734C337.46 16.2967 338.064 15.5792 338.52 14.7208C339.445 12.9371 339.908 11.1935 339.908 9.49024C339.908 8.26976 339.633 7.31753 339.083 6.63353ZM346.083 9.24882L346.364 9.45C345.721 10.9253 345.157 12.6219 344.675 14.5398H344.836L345.157 13.6546C345.788 11.9379 346.411 10.7442 347.028 10.0736C347.645 9.40306 348.182 9.06776 348.638 9.06776C349.094 9.06776 349.429 9.21529 349.644 9.51035C349.872 9.80541 349.986 10.1876 349.986 10.6571C349.986 11.1265 349.898 11.5355 349.724 11.8842C349.55 12.2329 349.295 12.4073 348.96 12.4073C348.638 12.4073 348.37 12.3 348.155 12.0854C348.289 11.9111 348.416 11.6562 348.537 11.3209C348.658 10.9856 348.718 10.6906 348.718 10.4358C348.718 10.0468 348.557 9.85235 348.235 9.85235C347.9 9.85235 347.484 10.1809 346.988 10.8381C345.902 12.2598 344.983 14.6471 344.232 18L342.824 18.1207L344.795 9.99318L343.508 10.0938L343.488 9.75176C344.413 9.63106 345.278 9.46341 346.083 9.24882ZM356.787 17.0142C356.787 17.4568 356.955 17.6781 357.29 17.6781C357.545 17.6781 357.82 17.5105 358.115 17.1752C358.41 16.8265 358.665 16.3369 358.88 15.7066L359.201 15.7871C358.625 17.4233 357.874 18.2414 356.948 18.2414C356.117 18.2414 355.701 17.7184 355.701 16.6722C355.701 15.6127 356.579 11.8976 358.336 5.52706L357.049 5.62765L357.029 5.28565C357.954 5.16494 358.819 4.99729 359.624 4.78271L359.906 4.98388C359.342 6.63353 358.678 8.87329 357.914 11.7032C357.163 14.5196 356.787 16.29 356.787 17.0142ZM355.902 15.7669H355.701C354.869 17.4166 353.904 18.2414 352.804 18.2414C352.174 18.2414 351.644 17.9665 351.215 17.4166C350.799 16.8533 350.591 16.1693 350.591 15.3646C350.591 14.5465 350.698 13.7887 350.913 13.0913C351.128 12.3939 351.429 11.7434 351.818 11.1399C352.207 10.5229 352.724 10.0267 353.367 9.65118C354.011 9.26223 354.668 9.06776 355.339 9.06776C356.626 9.06776 357.538 9.63106 358.075 10.7576L357.793 11.1198C357.163 10.0736 356.378 9.55059 355.439 9.55059C354.863 9.55059 354.333 9.75847 353.85 10.1742C353.381 10.59 353.012 11.1131 352.744 11.7434C352.194 13.0309 351.919 14.2447 351.919 15.3847C351.919 16.1358 352.04 16.6991 352.281 17.0746C352.536 17.4501 352.871 17.6379 353.287 17.6379C353.864 17.6379 354.454 17.1551 355.057 16.1894C355.661 15.2104 356.197 13.8155 356.667 12.0049L355.902 15.7669ZM365.901 9.06776C366.611 9.06776 367.141 9.24212 367.49 9.59082C367.852 9.92612 368.033 10.4156 368.033 11.0594C368.033 11.6898 367.785 12.2396 367.289 12.7091C366.444 13.5138 365.19 13.9161 363.527 13.9161C363.03 13.9161 362.601 13.8759 362.239 13.7954V13.4132C362.709 13.4802 363.098 13.5138 363.406 13.5138C364.519 13.5138 365.378 13.2321 365.981 12.6688C366.598 12.1055 366.906 11.4886 366.906 10.818C366.906 10.4559 366.806 10.1541 366.605 9.91271C366.417 9.67129 366.095 9.55059 365.639 9.55059C365.196 9.55059 364.74 9.75847 364.271 10.1742C363.815 10.59 363.453 11.1064 363.185 11.7233C362.648 13.0242 362.38 14.1508 362.38 15.1031C362.38 16.8734 362.916 17.7586 363.989 17.7586C365.317 17.7586 366.29 17.0344 366.906 15.5859L367.228 15.6664C366.906 16.4845 366.437 17.1215 365.82 17.5775C365.217 18.0201 364.533 18.2414 363.768 18.2414C363.004 18.2414 362.36 17.9598 361.837 17.3965C361.314 16.8332 361.052 16.0754 361.052 15.1232C361.052 14.1709 361.233 13.2522 361.595 12.3671C361.958 11.4685 362.521 10.6973 363.285 10.0535C364.05 9.39635 364.922 9.06776 365.901 9.06776ZM372.81 9.24882L373.092 9.45C372.448 10.9253 371.885 12.6219 371.402 14.5398H371.563L371.885 13.6546C372.515 11.9379 373.139 10.7442 373.756 10.0736C374.373 9.40306 374.909 9.06776 375.365 9.06776C375.821 9.06776 376.156 9.21529 376.371 9.51035C376.599 9.80541 376.713 10.1876 376.713 10.6571C376.713 11.1265 376.626 11.5355 376.451 11.8842C376.277 12.2329 376.022 12.4073 375.687 12.4073C375.365 12.4073 375.097 12.3 374.882 12.0854C375.016 11.9111 375.144 11.6562 375.265 11.3209C375.385 10.9856 375.446 10.6906 375.446 10.4358C375.446 10.0468 375.285 9.85235 374.963 9.85235C374.627 9.85235 374.212 10.1809 373.715 10.8381C372.629 12.2598 371.71 14.6471 370.959 18L369.551 18.1207L371.523 9.99318L370.235 10.0938L370.215 9.75176C371.14 9.63106 372.005 9.46341 372.81 9.24882ZM377.681 17.9396C377.479 17.7251 377.379 17.4702 377.379 17.1752C377.379 16.8801 377.479 16.632 377.681 16.4308C377.895 16.2162 378.15 16.1089 378.445 16.1089C378.74 16.1089 378.988 16.2162 379.189 16.4308C379.404 16.632 379.511 16.8801 379.511 17.1752C379.511 17.4702 379.404 17.7251 379.189 17.9396C378.988 18.1408 378.74 18.2414 378.445 18.2414C378.15 18.2414 377.895 18.1408 377.681 17.9396ZM383.663 5.32588H389.719C390.738 5.32588 391.462 5.26553 391.891 5.14482C391.69 5.61423 391.449 6.47929 391.167 7.74L390.966 8.68553H390.523L390.785 6.13059C390.785 5.90259 390.637 5.78859 390.342 5.78859H386.097L384.91 11.3813H388.974C389.108 11.3679 389.202 11.274 389.256 11.0996L389.658 9.85235H390L389.216 13.4735H388.874L389.055 12.2262C389.055 12.0385 388.981 11.9446 388.833 11.9446H384.81L383.623 17.5373H388.069C388.391 17.5373 388.599 17.3898 388.693 17.0947L389.538 14.6404H389.98L389.779 15.5859C389.524 16.7795 389.397 17.6446 389.397 18.1811C389.008 18.0604 388.317 18 387.325 18H380.988L381.048 17.6379H381.973C382.148 17.6379 382.255 17.5373 382.295 17.3361C383.905 9.71824 384.709 5.87576 384.709 5.80871C384.709 5.72823 384.636 5.688 384.488 5.688H383.603L383.663 5.32588ZM401.105 10.8985C401.105 11.4752 400.776 12.5347 400.119 14.0771C399.476 15.6194 399.154 16.6052 399.154 17.0344C399.154 17.4635 399.321 17.6781 399.657 17.6781C399.911 17.6781 400.186 17.5105 400.481 17.1752C400.776 16.8265 401.031 16.3369 401.246 15.7066L401.568 15.7871C400.991 17.4233 400.24 18.2414 399.315 18.2414C398.483 18.2414 398.067 17.7854 398.067 16.8734C398.067 16.4845 398.369 15.5188 398.973 13.9765C399.59 12.4341 399.898 11.4416 399.898 10.9991C399.898 10.1541 399.59 9.73165 398.973 9.73165C398.302 9.73165 397.578 10.2748 396.8 11.3612C395.901 12.6621 395.103 14.8751 394.406 18L392.998 18.1207L394.969 9.99318L393.682 10.0938L393.662 9.75176C394.587 9.63106 395.452 9.46341 396.257 9.24882L396.538 9.45C395.895 10.9253 395.331 12.6219 394.848 14.5398H395.009L395.331 13.6546C396.056 11.6294 396.84 10.3151 397.685 9.71153C398.087 9.44329 398.416 9.26894 398.671 9.18847C398.939 9.108 399.268 9.06776 399.657 9.06776C400.059 9.06776 400.401 9.22871 400.683 9.55059C400.964 9.87247 401.105 10.3218 401.105 10.8985ZM408.165 9.55059C407.615 9.55059 407.105 9.75847 406.636 10.1742C406.18 10.59 405.818 11.1064 405.55 11.7233C405.013 13.0242 404.745 14.1508 404.745 15.1031C404.745 16.8734 405.281 17.7586 406.354 17.7586C407.682 17.7586 408.654 17.0344 409.271 15.5859L409.593 15.6664C409.271 16.4845 408.802 17.1215 408.185 17.5775C407.582 18.0201 406.898 18.2414 406.133 18.2414C405.369 18.2414 404.725 17.9598 404.202 17.3965C403.679 16.8332 403.417 16.0754 403.417 15.1232C403.417 14.1709 403.598 13.2522 403.96 12.3671C404.322 11.4685 404.886 10.6973 405.65 10.0535C406.415 9.39635 407.286 9.06776 408.266 9.06776C408.936 9.06776 409.439 9.24212 409.774 9.59082C410.123 9.92612 410.297 10.3352 410.297 10.818C410.297 11.2874 410.21 11.7099 410.036 12.0854C409.875 12.4609 409.613 12.6487 409.251 12.6487C408.903 12.6487 408.641 12.5414 408.467 12.3268C408.856 11.7367 409.05 11.16 409.05 10.5967C409.05 9.89929 408.755 9.55059 408.165 9.55059ZM415.175 9.24882L415.457 9.45C414.813 10.9253 414.25 12.6219 413.767 14.5398H413.928L414.25 13.6546C414.88 11.9379 415.504 10.7442 416.121 10.0736C416.738 9.40306 417.274 9.06776 417.73 9.06776C418.186 9.06776 418.521 9.21529 418.736 9.51035C418.964 9.80541 419.078 10.1876 419.078 10.6571C419.078 11.1265 418.991 11.5355 418.816 11.8842C418.642 12.2329 418.387 12.4073 418.052 12.4073C417.73 12.4073 417.462 12.3 417.247 12.0854C417.381 11.9111 417.509 11.6562 417.629 11.3209C417.75 10.9856 417.811 10.6906 417.811 10.4358C417.811 10.0468 417.65 9.85235 417.328 9.85235C416.992 9.85235 416.577 10.1809 416.08 10.8381C414.994 12.2598 414.075 14.6471 413.324 18L411.916 18.1207L413.888 9.99318L412.6 10.0938L412.58 9.75176C413.505 9.63106 414.37 9.46341 415.175 9.24882ZM422.902 17.5775C423.761 17.5775 424.612 16.9539 425.457 15.7066C426.315 14.4459 426.745 13.2724 426.745 12.186C426.745 11.0862 426.396 10.1876 425.699 9.49024C426.034 9.20859 426.342 9.06776 426.624 9.06776C427.147 9.06776 427.409 9.80541 427.409 11.2807C427.409 12.756 427.248 14.1106 426.926 15.3445C426.604 16.5649 426.181 17.6044 425.658 18.4627C425.149 19.3211 424.565 20.0654 423.908 20.6958C422.634 21.9565 421.34 22.5868 420.025 22.5868C419.355 22.5868 418.852 22.4326 418.517 22.1241C418.168 21.8156 417.993 21.4535 417.993 21.0378C417.993 20.622 418.081 20.2465 418.255 19.9112C418.416 19.5759 418.664 19.4082 418.999 19.4082C419.335 19.4082 419.61 19.5021 419.824 19.6899C419.435 20.1861 419.241 20.6421 419.241 21.0579C419.241 21.7285 419.596 22.0638 420.307 22.0638C420.776 22.0638 421.32 21.8894 421.937 21.5407C422.553 21.2054 423.177 20.7226 423.807 20.0922C424.438 19.4753 425.015 18.6438 425.538 17.5976C426.074 16.5515 426.45 15.4182 426.664 14.1978C426.222 15.3646 425.625 16.3302 424.874 17.0947C424.136 17.8592 423.284 18.2414 422.319 18.2414C421.823 18.2414 421.42 18.0738 421.112 17.7385C420.817 17.3898 420.669 16.9204 420.669 16.3302C420.669 15.7401 420.89 14.7074 421.333 13.2321C421.789 11.7568 422.017 10.7912 422.017 10.3352C422.017 9.86576 421.843 9.63106 421.494 9.63106C421.239 9.63106 420.971 9.80541 420.689 10.1541C420.408 10.4894 420.18 10.9722 420.005 11.6026L419.663 11.5221C420.159 9.88588 420.877 9.06776 421.816 9.06776C422.688 9.06776 423.123 9.53718 423.123 10.476C423.123 10.8515 422.916 11.7836 422.5 13.2724C422.084 14.7611 421.876 15.7401 421.876 16.2095C421.876 17.1215 422.218 17.5775 422.902 17.5775ZM432.955 9.24882L433.236 9.45C432.592 10.9253 432.029 12.6219 431.546 14.5398H431.707L432.029 13.6546C433.142 10.5967 434.416 9.06776 435.852 9.06776C436.428 9.06776 436.918 9.34941 437.32 9.91271C437.736 10.476 437.944 11.16 437.944 11.9647C437.944 12.7694 437.836 13.5205 437.622 14.2179C437.421 14.9019 437.126 15.5456 436.737 16.1492C436.348 16.7393 435.838 17.2221 435.208 17.5976C434.577 17.9732 433.88 18.1609 433.116 18.1609C431.949 18.1609 431.037 17.6446 430.38 16.6119L430.52 16.2699C431.164 17.2489 432.009 17.7385 433.055 17.7385C433.659 17.7385 434.195 17.5373 434.665 17.1349C435.147 16.7326 435.516 16.2296 435.771 15.6261C436.281 14.3922 436.536 13.1852 436.536 12.0049C436.536 11.3209 436.435 10.7912 436.234 10.4156C436.046 10.0267 435.798 9.83223 435.489 9.83223C434.859 9.83223 434.148 10.4425 433.357 11.6629C432.579 12.8834 431.875 14.7879 431.245 17.3764L430.038 22.3454L428.629 22.4661L431.667 9.99318L430.38 10.0938L430.359 9.75176C431.285 9.63106 432.15 9.46341 432.955 9.24882ZM440.088 10.0334L440.189 9.65118H444.655L444.554 10.0334H440.088ZM443.287 7.1767L443.568 7.37788C443.26 8.31671 442.844 9.792 442.321 11.8038C441.811 13.8155 441.503 15.1165 441.396 15.7066C441.288 16.2833 441.235 16.7192 441.235 17.0142C441.235 17.4568 441.402 17.6781 441.738 17.6781C441.992 17.6781 442.267 17.5105 442.562 17.1752C442.858 16.8265 443.112 16.3369 443.327 15.7066L443.649 15.7871C443.072 17.4233 442.321 18.2414 441.396 18.2414C440.564 18.2414 440.148 17.7385 440.148 16.7326C440.148 15.9011 440.645 13.5808 441.637 9.77188L440.189 9.65118C440.926 9.65118 441.523 9.47682 441.979 9.12812C442.435 8.766 442.871 8.11553 443.287 7.1767ZM450.355 9.06776C451.066 9.06776 451.596 9.24212 451.945 9.59082C452.307 9.92612 452.488 10.4156 452.488 11.0594C452.488 11.6898 452.24 12.2396 451.744 12.7091C450.899 13.5138 449.645 13.9161 447.982 13.9161C447.485 13.9161 447.056 13.8759 446.694 13.7954V13.4132C447.163 13.4802 447.552 13.5138 447.861 13.5138C448.974 13.5138 449.832 13.2321 450.436 12.6688C451.053 12.1055 451.361 11.4886 451.361 10.818C451.361 10.4559 451.261 10.1541 451.06 9.91271C450.872 9.67129 450.55 9.55059 450.094 9.55059C449.651 9.55059 449.195 9.75847 448.726 10.1742C448.27 10.59 447.908 11.1064 447.64 11.7233C447.103 13.0242 446.835 14.1508 446.835 15.1031C446.835 16.8734 447.371 17.7586 448.444 17.7586C449.772 17.7586 450.744 17.0344 451.361 15.5859L451.683 15.6664C451.361 16.4845 450.892 17.1215 450.275 17.5775C449.671 18.0201 448.987 18.2414 448.223 18.2414C447.458 18.2414 446.815 17.9598 446.292 17.3965C445.769 16.8332 445.507 16.0754 445.507 15.1232C445.507 14.1709 445.688 13.2522 446.05 12.3671C446.412 11.4685 446.976 10.6973 447.74 10.0535C448.505 9.39635 449.376 9.06776 450.355 9.06776ZM460.102 17.0142C460.102 17.4568 460.269 17.6781 460.605 17.6781C460.859 17.6781 461.134 17.5105 461.429 17.1752C461.724 16.8265 461.979 16.3369 462.194 15.7066L462.516 15.7871C461.939 17.4233 461.188 18.2414 460.263 18.2414C459.431 18.2414 459.015 17.7184 459.015 16.6722C459.015 15.6127 459.894 11.8976 461.651 5.52706L460.363 5.62765L460.343 5.28565C461.268 5.16494 462.133 4.99729 462.938 4.78271L463.22 4.98388C462.657 6.63353 461.993 8.87329 461.228 11.7032C460.477 14.5196 460.102 16.29 460.102 17.0142ZM459.216 15.7669H459.015C458.184 17.4166 457.218 18.2414 456.118 18.2414C455.488 18.2414 454.958 17.9665 454.529 17.4166C454.113 16.8533 453.905 16.1693 453.905 15.3646C453.905 14.5465 454.013 13.7887 454.227 13.0913C454.442 12.3939 454.744 11.7434 455.133 11.1399C455.521 10.5229 456.038 10.0267 456.682 9.65118C457.325 9.26223 457.983 9.06776 458.653 9.06776C459.941 9.06776 460.853 9.63106 461.389 10.7576L461.107 11.1198C460.477 10.0736 459.693 9.55059 458.754 9.55059C458.177 9.55059 457.647 9.75847 457.164 10.1742C456.695 10.59 456.326 11.1131 456.058 11.7434C455.508 13.0309 455.233 14.2447 455.233 15.3847C455.233 16.1358 455.354 16.6991 455.595 17.0746C455.85 17.4501 456.185 17.6379 456.601 17.6379C457.178 17.6379 457.768 17.1551 458.371 16.1894C458.975 15.2104 459.511 13.8155 459.981 12.0049L459.216 15.7669ZM470.824 17.6379L470.281 13.7552H465.835L463.662 17.6379H464.91L464.849 18H461.952L462.033 17.6379H462.737C462.925 17.6379 463.066 17.544 463.159 17.3562L469.919 5.32588H470.563L472.212 17.3562C472.239 17.544 472.34 17.6379 472.514 17.6379H473.218L473.158 18H469.517L469.577 17.6379H470.824ZM469.416 7.37788L466.137 13.1919H470.201L469.416 7.37788ZM478.384 9.24882L478.665 9.45C478.022 10.9253 477.458 12.6219 476.976 14.5398H477.137L477.458 13.6546C478.089 11.9379 478.712 10.7442 479.329 10.0736C479.946 9.40306 480.483 9.06776 480.939 9.06776C481.395 9.06776 481.73 9.21529 481.945 9.51035C482.173 9.80541 482.287 10.1876 482.287 10.6571C482.287 11.1265 482.199 11.5355 482.025 11.8842C481.851 12.2329 481.596 12.4073 481.261 12.4073C480.939 12.4073 480.671 12.3 480.456 12.0854C480.59 11.9111 480.717 11.6562 480.838 11.3209C480.959 10.9856 481.019 10.6906 481.019 10.4358C481.019 10.0468 480.858 9.85235 480.536 9.85235C480.201 9.85235 479.785 10.1809 479.289 10.8381C478.203 12.2598 477.284 14.6471 476.533 18L475.125 18.1207L477.096 9.99318L475.809 10.0938L475.789 9.75176C476.714 9.63106 477.579 9.46341 478.384 9.24882ZM484.32 16.8332L487.519 17.5574C488.217 17.7184 488.713 17.9329 489.008 18.2012C489.303 18.4828 489.45 18.8651 489.45 19.3479C489.45 20.1258 489.021 20.8567 488.163 21.5407C487.318 22.2381 486.352 22.5868 485.266 22.5868C484.18 22.5868 483.294 22.3387 482.61 21.8425C481.94 21.3462 481.605 20.7561 481.605 20.0721C481.605 19.6027 481.765 19.1534 482.087 18.7242C482.396 18.2951 482.859 17.9329 483.475 17.6379L483.878 17.7586C483.475 17.9598 483.167 18.2615 482.952 18.6639C482.738 19.0796 482.631 19.5155 482.631 19.9715C482.631 20.7226 482.879 21.2792 483.375 21.6413C483.871 22.0168 484.508 22.2046 485.286 22.2046C486.077 22.2046 486.802 21.9766 487.459 21.5206C488.129 21.078 488.465 20.5415 488.465 19.9112C488.465 19.2808 488.056 18.8718 487.237 18.684L483.777 17.9195C483.388 17.8391 483.087 17.658 482.872 17.3764C482.657 17.0947 482.55 16.7527 482.55 16.3504C482.55 15.948 482.718 15.5792 483.053 15.2439C483.388 14.9086 483.851 14.7409 484.441 14.7409H486.473L486.413 15.0226H484.441C484.159 15.0226 483.931 15.1098 483.757 15.2841C483.596 15.4585 483.516 15.6664 483.516 15.9078C483.516 16.404 483.784 16.7125 484.32 16.8332ZM487.7 9.34941L487.68 9.06776C488.056 9.06776 488.371 8.98059 488.626 8.80623C488.88 8.61847 489.008 8.37706 489.008 8.082C489.008 7.78694 488.793 7.50529 488.364 7.23706C488.579 6.78106 488.833 6.55306 489.129 6.55306C489.437 6.55306 489.665 6.64023 489.813 6.81459C489.973 6.98894 490.054 7.21023 490.054 7.47847C490.054 7.94788 489.839 8.37706 489.41 8.766C488.994 9.15494 488.424 9.34941 487.7 9.34941ZM484.019 12.8298C484.019 11.8373 484.367 10.9655 485.065 10.2145C485.776 9.45 486.647 9.06776 487.68 9.06776C488.404 9.06776 488.974 9.26223 489.39 9.65118C489.819 10.0267 490.034 10.5632 490.034 11.2606C490.034 12.3872 489.672 13.2992 488.947 13.9966C488.223 14.6806 487.378 15.0226 486.413 15.0226C485.675 15.0226 485.092 14.8348 484.662 14.4593C484.233 14.0704 484.019 13.5272 484.019 12.8298ZM487.66 9.45C486.922 9.45 486.319 9.85906 485.849 10.6772C485.38 11.4819 485.145 12.1994 485.145 12.8298C485.145 13.4601 485.259 13.9228 485.487 14.2179C485.729 14.4995 486.044 14.6404 486.433 14.6404C487.023 14.6404 487.586 14.3051 488.123 13.6345C488.659 12.9639 488.927 12.1189 488.927 11.0996C488.927 10.59 488.807 10.1876 488.565 9.89259C488.337 9.59753 488.035 9.45 487.66 9.45ZM495.703 9.55059C495.193 9.55059 494.757 9.69812 494.395 9.99318C494.033 10.2882 493.852 10.6638 493.852 11.1198C493.852 11.5758 494.04 11.9915 494.415 12.3671C494.791 12.7426 495.2 13.0578 495.642 13.3126C496.085 13.554 496.494 13.8759 496.869 14.2782C497.245 14.6806 497.433 15.1098 497.433 15.5658C497.433 16.4241 497.097 17.088 496.427 17.5574C495.77 18.0134 494.972 18.2414 494.033 18.2414C493.094 18.2414 492.269 18.0201 491.558 17.5775C491.786 17.1215 492.001 16.3302 492.202 15.2036L492.544 15.264C492.45 15.8139 492.403 16.2498 492.403 16.5716C492.403 16.8801 492.551 17.1685 492.846 17.4367C493.154 17.6915 493.59 17.8189 494.154 17.8189C494.73 17.8189 495.213 17.6446 495.602 17.2959C496.004 16.9472 496.206 16.4912 496.206 15.9279C496.206 15.5658 496.024 15.2171 495.662 14.8818C495.314 14.5331 494.925 14.2447 494.496 14.0167C494.08 13.7887 493.691 13.4668 493.329 13.0511C492.98 12.6353 492.806 12.1793 492.806 11.6831C492.806 10.9454 493.094 10.3285 493.671 9.83223C494.261 9.32259 495.032 9.06776 495.984 9.06776C496.722 9.06776 497.453 9.24882 498.177 9.61094C498.11 9.75847 497.996 10.0938 497.835 10.6168C497.688 11.1399 497.574 11.6361 497.493 12.1055L497.151 12.0452C497.232 11.616 497.272 11.2069 497.272 10.818C497.272 10.4156 497.138 10.1072 496.869 9.89259C496.615 9.66459 496.226 9.55059 495.703 9.55059ZM498.155 19.9715C499.496 18.9522 500.562 17.4971 501.354 15.606C502.145 13.7149 502.541 11.8038 502.541 9.87247C502.541 7.92776 502.091 6.47929 501.193 5.52706L501.434 5.22529C502.306 5.74835 502.956 6.486 503.386 7.43823C503.815 8.37706 504.029 9.43659 504.029 10.6168C504.029 12.5347 503.5 14.4124 502.44 16.2498C501.394 18.0872 499.992 19.4284 498.236 20.2733L498.155 19.9715Z" fill="#6082FA"/>
</svg>
