<svg width="102" height="54" viewBox="0 0 102 54" fill="none" xmlns="http://www.w3.org/2000/svg">
<path opacity="0.86" d="M58.7924 5.32588H61.3875L61.3272 5.688H60.6231C60.4353 5.688 60.2945 5.78188 60.2006 5.96965L54.1049 18H53.4612L52.4553 7.98141L47.2448 18H46.6011L45.6153 5.96965C45.5885 5.78188 45.4879 5.688 45.3135 5.688H44.6094L44.6698 5.32588H48.0093L47.9489 5.688H47.0034L47.8282 15.6462L52.3748 6.91518L52.2742 5.96965C52.2474 5.78188 52.1468 5.688 51.9725 5.688H51.2684L51.3287 5.32588H54.6884L54.628 5.688H53.6624L54.6682 15.5859L59.6775 5.688H58.732L58.7924 5.32588Z" fill="#6082FA"/>
<path opacity="0.86" d="M62.7896 14.1659L62.9774 14.3C62.5482 15.2835 62.1727 16.4146 61.8508 17.6932H61.9581L62.1727 17.1031C62.9148 15.0645 63.7642 14.0452 64.7209 14.0452C65.1054 14.0452 65.4318 14.2329 65.7 14.6085C65.9772 14.984 66.1158 15.44 66.1158 15.9765C66.1158 16.5129 66.0442 17.0136 65.9012 17.4786C65.7671 17.9346 65.5704 18.3638 65.3111 18.7661C65.0518 19.1595 64.712 19.4814 64.2918 19.7318C63.8715 19.9821 63.4066 20.1073 62.8969 20.1073C62.1191 20.1073 61.5111 19.7631 61.0729 19.0746L61.1668 18.8466C61.596 19.4993 62.1593 19.8256 62.8567 19.8256C63.2591 19.8256 63.6167 19.6915 63.9296 19.4233C64.2515 19.1551 64.4974 18.8198 64.6673 18.4174C65.0071 17.5948 65.1769 16.7901 65.1769 16.0033C65.1769 15.5473 65.1099 15.1941 64.9758 14.9438C64.8506 14.6845 64.6852 14.5548 64.4795 14.5548C64.0593 14.5548 63.5854 14.9616 63.0579 15.7753C62.5393 16.5889 62.0699 17.8586 61.6496 19.5842L60.8449 22.8969L59.9061 22.9774L61.9313 14.6621L61.0729 14.7292L61.0595 14.5012C61.6765 14.4207 62.2532 14.3089 62.7896 14.1659ZM67.1832 18.0553C67.1832 17.1344 67.4514 16.2536 67.9879 15.4132C68.2472 15.0108 68.5869 14.6845 69.0072 14.4341C69.4274 14.1748 69.9057 14.0452 70.4422 14.0452C70.9876 14.0452 71.4302 14.2285 71.77 14.5951C72.1097 14.9616 72.2796 15.4624 72.2796 16.0972C72.2796 16.732 72.1634 17.3489 71.9309 17.948C71.6984 18.5471 71.3319 19.0656 70.8312 19.5038C70.3304 19.9419 69.7672 20.1609 69.1413 20.1609C68.5154 20.1609 68.0326 19.9776 67.6928 19.6111C67.353 19.2445 67.1832 18.7259 67.1832 18.0553ZM70.3349 14.3402C69.8521 14.3402 69.4229 14.5816 69.0474 15.0645C68.6808 15.5473 68.417 16.0748 68.2561 16.6471C68.1041 17.2193 68.0281 17.7558 68.0281 18.2565C68.0281 18.7482 68.1264 19.1416 68.3232 19.4367C68.5288 19.7228 68.806 19.8659 69.1547 19.8659C69.5123 19.8659 69.8432 19.7228 70.1472 19.4367C70.4601 19.1506 70.706 18.7974 70.8848 18.3772C71.2514 17.5188 71.4347 16.7767 71.4347 16.1508C71.4347 15.516 71.3363 15.0555 71.1396 14.7694C70.9429 14.4833 70.6747 14.3402 70.3349 14.3402ZM76.1819 14.3671C75.8422 14.3671 75.5516 14.4654 75.3102 14.6621C75.0687 14.8588 74.948 15.1092 74.948 15.4132C74.948 15.7172 75.0732 15.9944 75.3236 16.2447C75.5739 16.4951 75.8466 16.7052 76.1417 16.8751C76.4367 17.036 76.7095 17.2506 76.9598 17.5188C77.2102 17.7871 77.3353 18.0732 77.3353 18.3772C77.3353 18.9494 77.1118 19.392 76.6647 19.7049C76.2266 20.0089 75.6946 20.1609 75.0687 20.1609C74.4429 20.1609 73.893 20.0134 73.4191 19.7184C73.5711 19.4144 73.7142 18.8868 73.8483 18.1358L74.0763 18.176C74.0137 18.5426 73.9824 18.8332 73.9824 19.0478C73.9824 19.2534 74.0807 19.4456 74.2775 19.6245C74.4831 19.7944 74.7737 19.8793 75.1492 19.8793C75.5337 19.8793 75.8556 19.7631 76.1149 19.5306C76.3831 19.2981 76.5172 18.9941 76.5172 18.6186C76.5172 18.3772 76.3965 18.1447 76.1551 17.9212C75.9226 17.6887 75.6633 17.4965 75.3772 17.3445C75.1 17.1925 74.8407 16.9779 74.5993 16.7007C74.3669 16.4235 74.2506 16.1195 74.2506 15.7887C74.2506 15.2969 74.4429 14.8856 74.8273 14.5548C75.2207 14.2151 75.7349 14.0452 76.3697 14.0452C76.8615 14.0452 77.3487 14.1659 77.8316 14.4073C77.7869 14.5056 77.7109 14.7292 77.6036 15.0779C77.5052 15.4266 77.4292 15.7574 77.3756 16.0704L77.1476 16.0301C77.2012 15.744 77.228 15.4713 77.228 15.212C77.228 14.9438 77.1386 14.7381 76.9598 14.5951C76.7899 14.4431 76.5306 14.3671 76.1819 14.3671ZM80.8882 12.704C80.772 12.5878 80.7138 12.4447 80.7138 12.2748C80.7138 12.1049 80.772 11.9619 80.8882 11.8456C81.0044 11.7294 81.1475 11.6713 81.3174 11.6713C81.4873 11.6713 81.6303 11.7294 81.7465 11.8456C81.8628 11.9619 81.9209 12.1049 81.9209 12.2748C81.9209 12.4447 81.8628 12.5878 81.7465 12.704C81.6303 12.8202 81.4873 12.8784 81.3174 12.8784C81.1475 12.8784 81.0044 12.8202 80.8882 12.704ZM79.3727 19.1551C79.3727 18.6812 79.699 17.1835 80.3517 14.6621L79.4934 14.7292L79.48 14.5012C80.0969 14.4207 80.6736 14.3089 81.2101 14.1659L81.3978 14.3C81.0849 15.2299 80.7898 16.2268 80.5127 17.2908C80.2355 18.3548 80.0969 19.0388 80.0969 19.3428C80.0969 19.6379 80.2087 19.7854 80.4322 19.7854C80.6021 19.7854 80.7854 19.6736 80.9821 19.4501C81.1788 19.2176 81.3487 18.8913 81.4917 18.4711L81.7063 18.5247C81.3218 19.6155 80.8211 20.1609 80.2042 20.1609C79.6498 20.1609 79.3727 19.8256 79.3727 19.1551ZM83.3072 14.6889L83.3743 14.4341H86.3517L86.2846 14.6889H83.3072ZM85.4397 12.7845L85.6275 12.9186C85.4218 13.5445 85.1446 14.528 84.7959 15.8692C84.4562 17.2104 84.2505 18.0776 84.179 18.4711C84.1075 18.8555 84.0717 19.1461 84.0717 19.3428C84.0717 19.6379 84.1835 19.7854 84.407 19.7854C84.5769 19.7854 84.7602 19.6736 84.9569 19.4501C85.1536 19.2176 85.3235 18.8913 85.4665 18.4711L85.6811 18.5247C85.2966 19.6155 84.7959 20.1609 84.179 20.1609C83.6246 20.1609 83.3475 19.8256 83.3475 19.1551C83.3475 18.6007 83.6783 17.0539 84.3399 14.5146L83.3743 14.4341C83.8661 14.4341 84.2639 14.3179 84.5679 14.0854C84.8719 13.844 85.1625 13.4104 85.4397 12.7845ZM88.8378 12.704C88.7216 12.5878 88.6635 12.4447 88.6635 12.2748C88.6635 12.1049 88.7216 11.9619 88.8378 11.8456C88.954 11.7294 89.0971 11.6713 89.267 11.6713C89.4369 11.6713 89.5799 11.7294 89.6962 11.8456C89.8124 11.9619 89.8705 12.1049 89.8705 12.2748C89.8705 12.4447 89.8124 12.5878 89.6962 12.704C89.5799 12.8202 89.4369 12.8784 89.267 12.8784C89.0971 12.8784 88.954 12.8202 88.8378 12.704ZM87.3223 19.1551C87.3223 18.6812 87.6486 17.1835 88.3013 14.6621L87.443 14.7292L87.4296 14.5012C88.0465 14.4207 88.6232 14.3089 89.1597 14.1659L89.3475 14.3C89.0345 15.2299 88.7395 16.2268 88.4623 17.2908C88.1851 18.3548 88.0465 19.0388 88.0465 19.3428C88.0465 19.6379 88.1583 19.7854 88.3818 19.7854C88.5517 19.7854 88.735 19.6736 88.9317 19.4501C89.1284 19.2176 89.2983 18.8913 89.4413 18.4711L89.6559 18.5247C89.2715 19.6155 88.7707 20.1609 88.1538 20.1609C87.5995 20.1609 87.3223 19.8256 87.3223 19.1551ZM93.0406 19.7184C93.6129 19.7184 94.1717 19.3026 94.7171 18.4711C95.2625 17.6395 95.5352 16.8751 95.5352 16.1776C95.5352 15.4802 95.3251 14.8633 94.9049 14.3268C95.1284 14.1391 95.3296 14.0452 95.5084 14.0452C95.6872 14.0452 95.8169 14.1569 95.8973 14.3805C95.9778 14.604 96.018 14.908 96.018 15.2925C96.018 15.668 95.942 16.1374 95.79 16.7007C95.638 17.264 95.4279 17.8094 95.1597 18.3369C94.8914 18.8555 94.5338 19.2892 94.0867 19.6379C93.6397 19.9866 93.1613 20.1609 92.6517 20.1609C92.3209 20.1609 92.0526 20.0492 91.847 19.8256C91.6503 19.5932 91.5519 19.2802 91.5519 18.8868C91.5519 18.4934 91.6994 17.8049 91.9945 16.8214C92.2985 15.8379 92.4505 15.1941 92.4505 14.8901C92.4505 14.5772 92.3343 14.4207 92.1018 14.4207C91.9319 14.4207 91.7531 14.5369 91.5653 14.7694C91.3776 14.9929 91.2256 15.3148 91.1093 15.7351L90.8813 15.6814C91.2121 14.5906 91.6905 14.0452 92.3164 14.0452C92.8976 14.0452 93.1881 14.3581 93.1881 14.984C93.1881 15.2344 93.0496 15.8558 92.7724 16.8482C92.4952 17.8407 92.3566 18.4934 92.3566 18.8064C92.3566 19.4144 92.5846 19.7184 93.0406 19.7184ZM100.394 14.0452C100.868 14.0452 101.221 14.1614 101.453 14.3939C101.695 14.6174 101.815 14.9438 101.815 15.3729C101.815 15.7932 101.65 16.1598 101.319 16.4727C100.756 17.0092 99.9199 17.2774 98.8112 17.2774C98.4804 17.2774 98.1943 17.2506 97.9529 17.1969V16.9421C98.2658 16.9868 98.5251 17.0092 98.7308 17.0092C99.4729 17.0092 100.045 16.8214 100.447 16.4459C100.859 16.0704 101.064 15.6591 101.064 15.212C101.064 14.9706 100.997 14.7694 100.863 14.6085C100.738 14.4475 100.523 14.3671 100.219 14.3671C99.9244 14.3671 99.6204 14.5056 99.3075 14.7828C99.0035 15.06 98.7621 15.4042 98.5832 15.8155C98.2256 16.6828 98.0468 17.4339 98.0468 18.0687C98.0468 19.2489 98.4044 19.8391 99.1197 19.8391C100.005 19.8391 100.653 19.3562 101.064 18.3906L101.279 18.4442C101.064 18.9896 100.751 19.4144 100.34 19.7184C99.9378 20.0134 99.4818 20.1609 98.9722 20.1609C98.4625 20.1609 98.0334 19.9732 97.6846 19.5976C97.3359 19.2221 97.1616 18.7169 97.1616 18.0821C97.1616 17.4473 97.2823 16.8348 97.5237 16.2447C97.7651 15.6456 98.1406 15.1315 98.6503 14.7024C99.1599 14.2642 99.7411 14.0452 100.394 14.0452Z" fill="#6082FA"/>
<path opacity="0.86" d="M58.7924 36.3259H61.3875L61.3272 36.688H60.6231C60.4353 36.688 60.2945 36.7819 60.2006 36.9696L54.1049 49H53.4612L52.4553 38.9814L47.2448 49H46.6011L45.6153 36.9696C45.5885 36.7819 45.4879 36.688 45.3135 36.688H44.6094L44.6698 36.3259H48.0093L47.9489 36.688H47.0034L47.8282 46.6462L52.3748 37.9152L52.2742 36.9696C52.2474 36.7819 52.1468 36.688 51.9725 36.688H51.2684L51.3287 36.3259H54.6884L54.628 36.688H53.6624L54.6682 46.5859L59.6775 36.688H58.732L58.7924 36.3259Z" fill="#6082FA"/>
<path opacity="0.86" d="M60.8986 45.6889L60.9656 45.4341H63.9431L63.876 45.6889H60.8986ZM63.0311 43.7845L63.2188 43.9186C63.0132 44.5445 62.736 45.528 62.3873 46.8692C62.0475 48.2104 61.8419 49.0776 61.7704 49.4711C61.6988 49.8555 61.6631 50.1461 61.6631 50.3428C61.6631 50.6379 61.7748 50.7854 61.9984 50.7854C62.1682 50.7854 62.3515 50.6736 62.5482 50.4501C62.7449 50.2176 62.9148 49.8913 63.0579 49.4711L63.2725 49.5247C62.888 50.6155 62.3873 51.1609 61.7704 51.1609C61.216 51.1609 60.9388 50.8256 60.9388 50.1551C60.9388 49.6007 61.2696 48.0539 61.9313 45.5146L60.9656 45.4341C61.4574 45.4341 61.8553 45.3179 62.1593 45.0854C62.4633 44.844 62.7539 44.4104 63.0311 43.7845ZM64.5113 49.0553C64.5113 48.1344 64.7795 47.2536 65.316 46.4132C65.5753 46.0108 65.915 45.6845 66.3353 45.4341C66.7555 45.1748 67.2339 45.0452 67.7703 45.0452C68.3157 45.0452 68.7583 45.2285 69.0981 45.5951C69.4379 45.9616 69.6077 46.4624 69.6077 47.0972C69.6077 47.732 69.4915 48.3489 69.259 48.948C69.0266 49.5471 68.66 50.0656 68.1593 50.5038C67.6586 50.9419 67.0953 51.1609 66.4694 51.1609C65.8435 51.1609 65.3607 50.9776 65.0209 50.6111C64.6812 50.2445 64.5113 49.7259 64.5113 49.0553ZM67.663 45.3402C67.1802 45.3402 66.751 45.5816 66.3755 46.0645C66.0089 46.5473 65.7452 47.0748 65.5842 47.6471C65.4322 48.2193 65.3562 48.7558 65.3562 49.2565C65.3562 49.7482 65.4546 50.1416 65.6513 50.4367C65.8569 50.7228 66.1341 50.8659 66.4828 50.8659C66.8405 50.8659 67.1713 50.7228 67.4753 50.4367C67.7882 50.1506 68.0341 49.7974 68.2129 49.3772C68.5795 48.5188 68.7628 47.7767 68.7628 47.1508C68.7628 46.516 68.6645 46.0555 68.4677 45.7694C68.271 45.4833 68.0028 45.3402 67.663 45.3402ZM71.3105 45.6889L71.3776 45.4341H74.355L74.2879 45.6889H71.3105ZM73.443 43.7845L73.6308 43.9186C73.4251 44.5445 73.1479 45.528 72.7992 46.8692C72.4595 48.2104 72.2538 49.0776 72.1823 49.4711C72.1108 49.8555 72.075 50.1461 72.075 50.3428C72.075 50.6379 72.1868 50.7854 72.4103 50.7854C72.5802 50.7854 72.7635 50.6736 72.9602 50.4501C73.1569 50.2176 73.3268 49.8913 73.4698 49.4711L73.6844 49.5247C73.2999 50.6155 72.7992 51.1609 72.1823 51.1609C71.6279 51.1609 71.3508 50.8256 71.3508 50.1551C71.3508 49.6007 71.6816 48.0539 72.3432 45.5146L71.3776 45.4341C71.8693 45.4341 72.2672 45.3179 72.5712 45.0854C72.8752 44.844 73.1658 44.4104 73.443 43.7845ZM80.355 45.3C80.042 46.2299 79.747 47.2268 79.4698 48.2908C79.1926 49.3548 79.054 50.0388 79.054 50.3428C79.054 50.6379 79.1658 50.7854 79.3893 50.7854C79.5592 50.7854 79.7425 50.6736 79.9392 50.4501C80.1359 50.2176 80.3058 49.8913 80.4489 49.4711L80.6634 49.5247C80.279 50.6155 79.7783 51.1609 79.1613 51.1609C78.607 51.1609 78.3298 50.8256 78.3298 50.1551C78.3298 50.0209 78.3521 49.8064 78.3969 49.5113H78.3298C77.7754 50.6111 77.1317 51.1609 76.3985 51.1609C75.9783 51.1609 75.6251 50.9776 75.339 50.6111C75.0618 50.2355 74.9232 49.7795 74.9232 49.2431C74.9232 48.6976 74.9947 48.1925 75.1378 47.7275C75.2809 47.2626 75.482 46.8289 75.7413 46.4266C76.0006 46.0153 76.3449 45.6845 76.774 45.4341C77.2032 45.1748 77.6726 45.0452 78.1823 45.0452C78.8439 45.0452 79.367 45.3268 79.7514 45.8901L80.1672 45.1659L80.355 45.3ZM76.7204 50.7586C77.0959 50.7586 77.4759 50.468 77.8604 49.8868C78.2985 49.2162 78.7053 48.1209 79.0809 46.6009C79.1613 46.2433 79.2239 45.984 79.2686 45.8231C78.9557 45.5191 78.5936 45.3671 78.1823 45.3671C77.7799 45.3671 77.4178 45.5056 77.0959 45.7828C76.783 46.06 76.5371 46.4087 76.3583 46.8289C75.9917 47.6873 75.8084 48.4965 75.8084 49.2565C75.8084 49.7572 75.8889 50.1327 76.0498 50.3831C76.2197 50.6334 76.4432 50.7586 76.7204 50.7586ZM82.8898 50.3428C82.8898 50.6379 83.0016 50.7854 83.2251 50.7854C83.395 50.7854 83.5783 50.6736 83.775 50.4501C83.9717 50.2176 84.1416 49.8913 84.2846 49.4711L84.4992 49.5247C84.1147 50.6155 83.614 51.1609 82.9971 51.1609C82.4427 51.1609 82.1656 50.8122 82.1656 50.1148C82.1656 49.4085 82.7512 46.9318 83.9225 42.6847L83.0641 42.7518L83.0507 42.5238C83.6677 42.4433 84.2444 42.3315 84.7809 42.1885L84.9686 42.3226C84.5931 43.4224 84.1505 44.9155 83.6409 46.8021C83.1401 48.6798 82.8898 49.86 82.8898 50.3428Z" fill="#6082FA"/>
<path opacity="0.86" d="M34.1273 24.2233H26.2499V23.1583H34.1273V24.2233ZM34.1273 27.6395H26.2499V26.5745H34.1273V27.6395Z" fill="#6082FA"/>
<path opacity="0.86" d="M5.17985 20.6101L5.46118 20.811C4.81813 22.2847 4.25546 23.9794 3.77317 25.8952H3.93393L4.25546 25.011C5.3674 21.9564 6.64011 20.4292 8.07359 20.4292C8.64966 20.4292 9.13864 20.7105 9.54055 21.2732C9.95586 21.8359 10.1635 22.5191 10.1635 23.3229C10.1635 24.1268 10.0563 24.877 9.84198 25.5736C9.64103 26.2569 9.3463 26.8999 8.95779 27.5028C8.56927 28.0922 8.06019 28.5745 7.43053 28.9497C6.80088 29.3248 6.10424 29.5123 5.34061 29.5123C4.17508 29.5123 3.26408 28.9965 2.60763 27.965L2.7483 27.6234C3.39135 28.6013 4.23536 29.0903 5.28032 29.0903C5.88319 29.0903 6.41906 28.8894 6.88796 28.4875C7.37025 28.0856 7.73866 27.5832 7.99321 26.9803C8.50229 25.7478 8.75683 24.5421 8.75683 23.3631C8.75683 22.6799 8.65635 22.1507 8.4554 21.7756C8.26784 21.3871 8.02 21.1928 7.71187 21.1928C7.08221 21.1928 6.37218 21.8024 5.58176 23.0215C4.80473 24.2406 4.10139 26.143 3.47174 28.7286L2.26601 33.6922L0.859332 33.8127L3.89374 21.3536L2.60763 21.4541L2.58754 21.1124C3.51193 20.9919 4.37603 20.8244 5.17985 20.6101Z" fill="#6082FA"/>
<line x1="42.1841" y1="26.2197" x2="96.3735" y2="26.2197" stroke="#6082FA" stroke-width="1.31057"/>
<path opacity="0.86" d="M4.028 19.047L7.304 16.9605L10.541 19.047C10.736 19.047 11.2235 18.891 11.2625 18.774L7.889 15.576C7.655 15.4785 6.9335 15.4785 6.6995 15.576L3.326 18.774C3.365 18.891 3.833 19.0275 4.028 19.047Z" fill="#6082FA"/>
</svg>
