<svg width="647" height="24" viewBox="0 0 647 24" fill="none" xmlns="http://www.w3.org/2000/svg">
<path opacity="0.86" d="M5.63294 5.60753C6.41082 5.25882 7.23565 5.08447 8.10741 5.08447C9.43518 5.08447 10.4813 5.48682 11.2458 6.29153C12.0236 7.08282 12.4126 8.20271 12.4126 9.65118C12.4126 10.6302 12.2516 11.6227 11.9298 12.6286C11.6079 13.6211 11.1586 14.5398 10.5819 15.3847C10.0052 16.2296 9.25412 16.9204 8.32871 17.4568C7.40329 17.9799 6.33706 18.2414 5.13 18.2414C3.92294 18.2414 2.93047 17.8391 2.15259 17.0344C1.38812 16.2296 1.00588 15.0628 1.00588 13.5339C1.00588 12.0049 1.42165 10.4626 2.25318 8.90682C3.09812 7.35106 4.22471 6.25129 5.63294 5.60753ZM10.1795 6.63353C9.64306 5.94953 8.93224 5.60753 8.04706 5.60753C7.16188 5.60753 6.34377 5.89588 5.59271 6.47259C4.84165 7.03588 4.24482 7.75341 3.80224 8.62518C2.87682 10.4224 2.41412 12.1659 2.41412 13.8558C2.41412 15.0762 2.67565 16.0285 3.19871 16.7125C3.73518 17.3831 4.446 17.7184 5.33118 17.7184C6.22977 17.7184 7.05459 17.4367 7.80565 16.8734C8.55671 16.2967 9.16024 15.5792 9.61624 14.7208C10.5416 12.9371 11.0044 11.1935 11.0044 9.49024C11.0044 8.26976 10.7294 7.31753 10.1795 6.63353ZM17.1795 9.24882L17.4612 9.45C16.8174 10.9253 16.2541 12.6219 15.7713 14.5398H15.9322L16.2541 13.6546C16.8845 11.9379 17.5081 10.7442 18.1251 10.0736C18.742 9.40306 19.2785 9.06776 19.7345 9.06776C20.1905 9.06776 20.5258 9.21529 20.7404 9.51035C20.9684 9.80541 21.0824 10.1876 21.0824 10.6571C21.0824 11.1265 20.9952 11.5355 20.8208 11.8842C20.6465 12.2329 20.3916 12.4073 20.0564 12.4073C19.7345 12.4073 19.4662 12.3 19.2516 12.0854C19.3858 11.9111 19.5132 11.6562 19.6339 11.3209C19.7546 10.9856 19.8149 10.6906 19.8149 10.4358C19.8149 10.0468 19.654 9.85235 19.3321 9.85235C18.9968 9.85235 18.5811 10.1809 18.0848 10.8381C16.9985 12.2598 16.0798 14.6471 15.3287 18L13.9205 18.1207L15.892 9.99318L14.6045 10.0938L14.5844 9.75176C15.5098 9.63106 16.3748 9.46341 17.1795 9.24882ZM27.884 17.0142C27.884 17.4568 28.0516 17.6781 28.3869 17.6781C28.6418 17.6781 28.9167 17.5105 29.2118 17.1752C29.5068 16.8265 29.7616 16.3369 29.9762 15.7066L30.2981 15.7871C29.7214 17.4233 28.9704 18.2414 28.0449 18.2414C27.2134 18.2414 26.7976 17.7184 26.7976 16.6722C26.7976 15.6127 27.6761 11.8976 29.4331 5.52706L28.1455 5.62765L28.1254 5.28565C29.0508 5.16494 29.9159 4.99729 30.7206 4.78271L31.0022 4.98388C30.4389 6.63353 29.7751 8.87329 29.0106 11.7032C28.2595 14.5196 27.884 16.29 27.884 17.0142ZM26.9988 15.7669H26.7976C25.9661 17.4166 25.0005 18.2414 23.9007 18.2414C23.2704 18.2414 22.7406 17.9665 22.3114 17.4166C21.8956 16.8533 21.6878 16.1693 21.6878 15.3646C21.6878 14.5465 21.7951 13.7887 22.0096 13.0913C22.2242 12.3939 22.526 11.7434 22.9149 11.1399C23.3039 10.5229 23.8202 10.0267 24.464 9.65118C25.1078 9.26223 25.7649 9.06776 26.4355 9.06776C27.7231 9.06776 28.6351 9.63106 29.1715 10.7576L28.8899 11.1198C28.2595 10.0736 27.4749 9.55059 26.5361 9.55059C25.9594 9.55059 25.4296 9.75847 24.9468 10.1742C24.4774 10.59 24.1086 11.1131 23.8404 11.7434C23.2905 13.0309 23.0155 14.2447 23.0155 15.3847C23.0155 16.1358 23.1362 16.6991 23.3776 17.0746C23.6325 17.4501 23.9678 17.6379 24.3835 17.6379C24.9602 17.6379 25.5504 17.1551 26.1539 16.1894C26.7574 15.2104 27.2939 13.8155 27.7633 12.0049L26.9988 15.7669ZM36.9973 9.06776C37.7081 9.06776 38.2379 9.24212 38.5866 9.59082C38.9487 9.92612 39.1298 10.4156 39.1298 11.0594C39.1298 11.6898 38.8816 12.2396 38.3854 12.7091C37.5405 13.5138 36.2865 13.9161 34.6234 13.9161C34.1272 13.9161 33.698 13.8759 33.3359 13.7954V13.4132C33.8053 13.4802 34.1942 13.5138 34.5027 13.5138C35.6159 13.5138 36.4742 13.2321 37.0778 12.6688C37.6947 12.1055 38.0032 11.4886 38.0032 10.818C38.0032 10.4559 37.9026 10.1541 37.7014 9.91271C37.5136 9.67129 37.1918 9.55059 36.7358 9.55059C36.2932 9.55059 35.8372 9.75847 35.3678 10.1742C34.9118 10.59 34.5496 11.1064 34.2814 11.7233C33.7449 13.0242 33.4767 14.1508 33.4767 15.1031C33.4767 16.8734 34.0132 17.7586 35.0861 17.7586C36.4139 17.7586 37.3862 17.0344 38.0032 15.5859L38.3251 15.6664C38.0032 16.4845 37.5338 17.1215 36.9168 17.5775C36.3133 18.0201 35.6293 18.2414 34.8648 18.2414C34.1004 18.2414 33.4566 17.9598 32.9335 17.3965C32.4105 16.8332 32.1489 16.0754 32.1489 15.1232C32.1489 14.1709 32.33 13.2522 32.6921 12.3671C33.0542 11.4685 33.6175 10.6973 34.382 10.0535C35.1465 9.39635 36.0182 9.06776 36.9973 9.06776ZM43.9069 9.24882L44.1886 9.45C43.5448 10.9253 42.9815 12.6219 42.4987 14.5398H42.6596L42.9815 13.6546C43.6119 11.9379 44.2355 10.7442 44.8525 10.0736C45.4694 9.40306 46.0059 9.06776 46.4619 9.06776C46.9179 9.06776 47.2532 9.21529 47.4677 9.51035C47.6957 9.80541 47.8097 10.1876 47.8097 10.6571C47.8097 11.1265 47.7226 11.5355 47.5482 11.8842C47.3739 12.2329 47.119 12.4073 46.7837 12.4073C46.4619 12.4073 46.1936 12.3 45.979 12.0854C46.1132 11.9111 46.2406 11.6562 46.3613 11.3209C46.482 10.9856 46.5423 10.6906 46.5423 10.4358C46.5423 10.0468 46.3814 9.85235 46.0595 9.85235C45.7242 9.85235 45.3085 10.1809 44.8122 10.8381C43.7259 12.2598 42.8072 14.6471 42.0561 18L40.6479 18.1207L42.6194 9.99318L41.3319 10.0938L41.3117 9.75176C42.2372 9.63106 43.1022 9.46341 43.9069 9.24882ZM48.7773 17.9396C48.5761 17.7251 48.4755 17.4702 48.4755 17.1752C48.4755 16.8801 48.5761 16.632 48.7773 16.4308C48.9919 16.2162 49.2467 16.1089 49.5417 16.1089C49.8368 16.1089 50.0849 16.2162 50.2861 16.4308C50.5007 16.632 50.608 16.8801 50.608 17.1752C50.608 17.4702 50.5007 17.7251 50.2861 17.9396C50.0849 18.1408 49.8368 18.2414 49.5417 18.2414C49.2467 18.2414 48.9919 18.1408 48.7773 17.9396ZM54.7599 5.32588H60.8153C61.8346 5.32588 62.5589 5.26553 62.988 5.14482C62.7869 5.61423 62.5455 6.47929 62.2638 7.74L62.0626 8.68553H61.62L61.8816 6.13059C61.8816 5.90259 61.734 5.78859 61.439 5.78859H57.1942L56.0072 11.3813H60.071C60.2051 11.3679 60.299 11.274 60.3526 11.0996L60.755 9.85235H61.097L60.3124 13.4735H59.9704L60.1515 12.2262C60.1515 12.0385 60.0777 11.9446 59.9302 11.9446H55.9066L54.7197 17.5373H59.1657C59.4876 17.5373 59.6955 17.3898 59.7893 17.0947L60.6343 14.6404H61.0769L60.8757 15.5859C60.6209 16.7795 60.4935 17.6446 60.4935 18.1811C60.1045 18.0604 59.4138 18 58.4213 18H52.0843L52.1446 17.6379H53.07C53.2444 17.6379 53.3517 17.5373 53.3919 17.3361C55.0013 9.71824 55.806 5.87576 55.806 5.80871C55.806 5.72823 55.7323 5.688 55.5847 5.688H54.6996L54.7599 5.32588ZM72.2018 10.8985C72.2018 11.4752 71.8732 12.5347 71.216 14.0771C70.5722 15.6194 70.2504 16.6052 70.2504 17.0344C70.2504 17.4635 70.418 17.6781 70.7533 17.6781C71.0081 17.6781 71.2831 17.5105 71.5781 17.1752C71.8732 16.8265 72.128 16.3369 72.3426 15.7066L72.6645 15.7871C72.0878 17.4233 71.3367 18.2414 70.4113 18.2414C69.5798 18.2414 69.164 17.7854 69.164 16.8734C69.164 16.4845 69.4658 15.5188 70.0693 13.9765C70.6862 12.4341 70.9947 11.4416 70.9947 10.9991C70.9947 10.1541 70.6862 9.73165 70.0693 9.73165C69.3987 9.73165 68.6745 10.2748 67.8966 11.3612C66.998 12.6621 66.2 14.8751 65.5026 18L64.0944 18.1207L66.0659 9.99318L64.7784 10.0938L64.7582 9.75176C65.6836 9.63106 66.5487 9.46341 67.3534 9.24882L67.6351 9.45C66.9913 10.9253 66.428 12.6219 65.9452 14.5398H66.1061L66.428 13.6546C67.1522 11.6294 67.9368 10.3151 68.7818 9.71153C69.1841 9.44329 69.5127 9.26894 69.7675 9.18847C70.0358 9.108 70.3644 9.06776 70.7533 9.06776C71.1556 9.06776 71.4976 9.22871 71.7793 9.55059C72.0609 9.87247 72.2018 10.3218 72.2018 10.8985ZM79.2616 9.55059C78.7118 9.55059 78.2021 9.75847 77.7327 10.1742C77.2767 10.59 76.9146 11.1064 76.6464 11.7233C76.1099 13.0242 75.8416 14.1508 75.8416 15.1031C75.8416 16.8734 76.3781 17.7586 77.4511 17.7586C78.7788 17.7586 79.7512 17.0344 80.3681 15.5859L80.69 15.6664C80.3681 16.4845 79.8987 17.1215 79.2818 17.5775C78.6782 18.0201 77.9942 18.2414 77.2298 18.2414C76.4653 18.2414 75.8215 17.9598 75.2985 17.3965C74.7754 16.8332 74.5139 16.0754 74.5139 15.1232C74.5139 14.1709 74.6949 13.2522 75.0571 12.3671C75.4192 11.4685 75.9825 10.6973 76.7469 10.0535C77.5114 9.39635 78.3832 9.06776 79.3622 9.06776C80.0328 9.06776 80.5358 9.24212 80.8711 9.59082C81.2198 9.92612 81.3941 10.3352 81.3941 10.818C81.3941 11.2874 81.3069 11.7099 81.1326 12.0854C80.9716 12.4609 80.7101 12.6487 80.348 12.6487C79.9993 12.6487 79.7378 12.5414 79.5634 12.3268C79.9524 11.7367 80.1468 11.16 80.1468 10.5967C80.1468 9.89929 79.8518 9.55059 79.2616 9.55059ZM86.2719 9.24882L86.5535 9.45C85.9097 10.9253 85.3464 12.6219 84.8636 14.5398H85.0246L85.3464 13.6546C85.9768 11.9379 86.6004 10.7442 87.2174 10.0736C87.8343 9.40306 88.3708 9.06776 88.8268 9.06776C89.2828 9.06776 89.6181 9.21529 89.8327 9.51035C90.0607 9.80541 90.1747 10.1876 90.1747 10.6571C90.1747 11.1265 90.0875 11.5355 89.9132 11.8842C89.7388 12.2329 89.484 12.4073 89.1487 12.4073C88.8268 12.4073 88.5586 12.3 88.344 12.0854C88.4781 11.9111 88.6055 11.6562 88.7262 11.3209C88.8469 10.9856 88.9073 10.6906 88.9073 10.4358C88.9073 10.0468 88.7463 9.85235 88.4244 9.85235C88.0892 9.85235 87.6734 10.1809 87.1772 10.8381C86.0908 12.2598 85.1721 14.6471 84.421 18L83.0128 18.1207L84.9843 9.99318L83.6968 10.0938L83.6767 9.75176C84.6021 9.63106 85.4672 9.46341 86.2719 9.24882ZM93.9989 17.5775C94.8573 17.5775 95.7089 16.9539 96.5539 15.7066C97.4122 14.4459 97.8414 13.2724 97.8414 12.186C97.8414 11.0862 97.4927 10.1876 96.7953 9.49024C97.1306 9.20859 97.439 9.06776 97.7207 9.06776C98.2437 9.06776 98.5053 9.80541 98.5053 11.2807C98.5053 12.756 98.3443 14.1106 98.0224 15.3445C97.7006 16.5649 97.2781 17.6044 96.755 18.4627C96.2454 19.3211 95.662 20.0654 95.0048 20.6958C93.7307 21.9565 92.4364 22.5868 91.1221 22.5868C90.4515 22.5868 89.9486 22.4326 89.6133 22.1241C89.2646 21.8156 89.0902 21.4535 89.0902 21.0378C89.0902 20.622 89.1774 20.2465 89.3517 19.9112C89.5127 19.5759 89.7608 19.4082 90.0961 19.4082C90.4314 19.4082 90.7063 19.5021 90.9209 19.6899C90.532 20.1861 90.3375 20.6421 90.3375 21.0579C90.3375 21.7285 90.6929 22.0638 91.4037 22.0638C91.8732 22.0638 92.4163 21.8894 93.0333 21.5407C93.6502 21.2054 94.2739 20.7226 94.9042 20.0922C95.5346 19.4753 96.1113 18.6438 96.6343 17.5976C97.1708 16.5515 97.5463 15.4182 97.7609 14.1978C97.3183 15.3646 96.7215 16.3302 95.9704 17.0947C95.2328 17.8592 94.3812 18.2414 93.4155 18.2414C92.9193 18.2414 92.5169 18.0738 92.2084 17.7385C91.9134 17.3898 91.7659 16.9204 91.7659 16.3302C91.7659 15.7401 91.9872 14.7074 92.4297 13.2321C92.8857 11.7568 93.1137 10.7912 93.1137 10.3352C93.1137 9.86576 92.9394 9.63106 92.5907 9.63106C92.3359 9.63106 92.0676 9.80541 91.786 10.1541C91.5043 10.4894 91.2763 10.9722 91.102 11.6026L90.76 11.5221C91.2562 9.88588 91.9737 9.06776 92.9126 9.06776C93.7843 9.06776 94.2202 9.53718 94.2202 10.476C94.2202 10.8515 94.0123 11.7836 93.5966 13.2724C93.1808 14.7611 92.9729 15.7401 92.9729 16.2095C92.9729 17.1215 93.3149 17.5775 93.9989 17.5775ZM104.051 9.24882L104.333 9.45C103.689 10.9253 103.126 12.6219 102.643 14.5398H102.804L103.126 13.6546C104.239 10.5967 105.513 9.06776 106.948 9.06776C107.525 9.06776 108.014 9.34941 108.417 9.91271C108.833 10.476 109.04 11.16 109.04 11.9647C109.04 12.7694 108.933 13.5205 108.719 14.2179C108.517 14.9019 108.222 15.5456 107.833 16.1492C107.444 16.7393 106.935 17.2221 106.304 17.5976C105.674 17.9732 104.977 18.1609 104.212 18.1609C103.045 18.1609 102.133 17.6446 101.476 16.6119L101.617 16.2699C102.261 17.2489 103.106 17.7385 104.152 17.7385C104.755 17.7385 105.292 17.5373 105.761 17.1349C106.244 16.7326 106.613 16.2296 106.868 15.6261C107.377 14.3922 107.632 13.1852 107.632 12.0049C107.632 11.3209 107.532 10.7912 107.33 10.4156C107.143 10.0267 106.895 9.83223 106.586 9.83223C105.956 9.83223 105.245 10.4425 104.454 11.6629C103.676 12.8834 102.972 14.7879 102.341 17.3764L101.134 22.3454L99.726 22.4661L102.764 9.99318L101.476 10.0938L101.456 9.75176C102.382 9.63106 103.247 9.46341 104.051 9.24882ZM111.185 10.0334L111.285 9.65118H115.751L115.651 10.0334H111.185ZM114.383 7.1767L114.665 7.37788C114.357 8.31671 113.941 9.792 113.418 11.8038C112.908 13.8155 112.6 15.1165 112.492 15.7066C112.385 16.2833 112.331 16.7192 112.331 17.0142C112.331 17.4568 112.499 17.6781 112.834 17.6781C113.089 17.6781 113.364 17.5105 113.659 17.1752C113.954 16.8265 114.209 16.3369 114.424 15.7066L114.746 15.7871C114.169 17.4233 113.418 18.2414 112.492 18.2414C111.661 18.2414 111.245 17.7385 111.245 16.7326C111.245 15.9011 111.741 13.5808 112.734 9.77188L111.285 9.65118C112.023 9.65118 112.62 9.47682 113.076 9.12812C113.532 8.766 113.968 8.11553 114.383 7.1767ZM121.452 9.06776C122.163 9.06776 122.693 9.24212 123.041 9.59082C123.404 9.92612 123.585 10.4156 123.585 11.0594C123.585 11.6898 123.336 12.2396 122.84 12.7091C121.995 13.5138 120.741 13.9161 119.078 13.9161C118.582 13.9161 118.153 13.8759 117.791 13.7954V13.4132C118.26 13.4802 118.649 13.5138 118.958 13.5138C120.071 13.5138 120.929 13.2321 121.533 12.6688C122.15 12.1055 122.458 11.4886 122.458 10.818C122.458 10.4559 122.357 10.1541 122.156 9.91271C121.968 9.67129 121.647 9.55059 121.191 9.55059C120.748 9.55059 120.292 9.75847 119.823 10.1742C119.367 10.59 119.004 11.1064 118.736 11.7233C118.2 13.0242 117.932 14.1508 117.932 15.1031C117.932 16.8734 118.468 17.7586 119.541 17.7586C120.869 17.7586 121.841 17.0344 122.458 15.5859L122.78 15.6664C122.458 16.4845 121.989 17.1215 121.372 17.5775C120.768 18.0201 120.084 18.2414 119.32 18.2414C118.555 18.2414 117.911 17.9598 117.388 17.3965C116.865 16.8332 116.604 16.0754 116.604 15.1232C116.604 14.1709 116.785 13.2522 117.147 12.3671C117.509 11.4685 118.072 10.6973 118.837 10.0535C119.601 9.39635 120.473 9.06776 121.452 9.06776ZM131.198 17.0142C131.198 17.4568 131.366 17.6781 131.701 17.6781C131.956 17.6781 132.231 17.5105 132.526 17.1752C132.821 16.8265 133.076 16.3369 133.291 15.7066L133.612 15.7871C133.036 17.4233 132.285 18.2414 131.359 18.2414C130.528 18.2414 130.112 17.7184 130.112 16.6722C130.112 15.6127 130.99 11.8976 132.747 5.52706L131.46 5.62765L131.44 5.28565C132.365 5.16494 133.23 4.99729 134.035 4.78271L134.317 4.98388C133.753 6.63353 133.089 8.87329 132.325 11.7032C131.574 14.5196 131.198 16.29 131.198 17.0142ZM130.313 15.7669H130.112C129.28 17.4166 128.315 18.2414 127.215 18.2414C126.585 18.2414 126.055 17.9665 125.626 17.4166C125.21 16.8533 125.002 16.1693 125.002 15.3646C125.002 14.5465 125.109 13.7887 125.324 13.0913C125.539 12.3939 125.84 11.7434 126.229 11.1399C126.618 10.5229 127.135 10.0267 127.778 9.65118C128.422 9.26223 129.079 9.06776 129.75 9.06776C131.037 9.06776 131.949 9.63106 132.486 10.7576L132.204 11.1198C131.574 10.0736 130.789 9.55059 129.85 9.55059C129.274 9.55059 128.744 9.75847 128.261 10.1742C127.792 10.59 127.423 11.1131 127.155 11.7434C126.605 13.0309 126.33 14.2447 126.33 15.3847C126.33 16.1358 126.451 16.6991 126.692 17.0746C126.947 17.4501 127.282 17.6379 127.698 17.6379C128.275 17.6379 128.865 17.1551 129.468 16.1894C130.072 15.2104 130.608 13.8155 131.078 12.0049L130.313 15.7669ZM139.869 12.1458H138.602C137.877 15.5926 137.515 17.3696 137.515 17.4769C137.515 17.5842 137.589 17.6379 137.737 17.6379H139.024L138.964 18H134.86L134.92 17.6379H135.846C136.02 17.6379 136.127 17.5373 136.167 17.3361C137.777 9.71824 138.582 5.87576 138.582 5.80871C138.582 5.72823 138.508 5.688 138.36 5.688H137.475L137.535 5.32588H142.102C143.028 5.32588 143.792 5.56729 144.396 6.05012C145.012 6.51953 145.321 7.21694 145.321 8.14235C145.321 9.05435 144.986 9.86576 144.315 10.5766C143.658 11.2874 142.84 11.7635 141.861 12.0049C142.8 12.3671 143.269 13.098 143.269 14.1978C143.269 14.5867 143.202 15.1031 143.068 15.7468C142.947 16.3906 142.887 16.8064 142.887 16.9941C142.887 17.3696 143.034 17.5574 143.329 17.5574C143.624 17.5574 143.933 17.3495 144.255 16.9338C144.577 16.5046 144.865 15.9011 145.12 15.1232L145.462 15.2036C145.1 16.2766 144.697 17.0545 144.255 17.5373C143.812 18.0067 143.289 18.2414 142.686 18.2414C142.39 18.2414 142.142 18.1341 141.941 17.9195C141.74 17.6915 141.639 17.3764 141.639 16.974C141.639 16.5716 141.7 16.0553 141.82 15.4249C141.955 14.7946 142.022 14.2313 142.022 13.7351C142.022 12.6755 141.304 12.1458 139.869 12.1458ZM141.901 5.78859H139.97L138.702 11.6629H140.714C141.653 11.6629 142.431 11.2673 143.048 10.476C143.678 9.68471 143.993 8.84647 143.993 7.96129C143.993 7.33094 143.812 6.81459 143.45 6.41223C143.101 5.99647 142.585 5.78859 141.901 5.78859ZM152.128 9.06776C152.839 9.06776 153.369 9.24212 153.718 9.59082C154.08 9.92612 154.261 10.4156 154.261 11.0594C154.261 11.6898 154.013 12.2396 153.517 12.7091C152.672 13.5138 151.418 13.9161 149.755 13.9161C149.258 13.9161 148.829 13.8759 148.467 13.7954V13.4132C148.936 13.4802 149.325 13.5138 149.634 13.5138C150.747 13.5138 151.605 13.2321 152.209 12.6688C152.826 12.1055 153.134 11.4886 153.134 10.818C153.134 10.4559 153.034 10.1541 152.833 9.91271C152.645 9.67129 152.323 9.55059 151.867 9.55059C151.424 9.55059 150.968 9.75847 150.499 10.1742C150.043 10.59 149.681 11.1064 149.413 11.7233C148.876 13.0242 148.608 14.1508 148.608 15.1031C148.608 16.8734 149.144 17.7586 150.217 17.7586C151.545 17.7586 152.517 17.0344 153.134 15.5859L153.456 15.6664C153.134 16.4845 152.665 17.1215 152.048 17.5775C151.444 18.0201 150.76 18.2414 149.996 18.2414C149.231 18.2414 148.588 17.9598 148.065 17.3965C147.542 16.8332 147.28 16.0754 147.28 15.1232C147.28 14.1709 147.461 13.2522 147.823 12.3671C148.185 11.4685 148.749 10.6973 149.513 10.0535C150.278 9.39635 151.149 9.06776 152.128 9.06776ZM159.521 9.55059C159.011 9.55059 158.575 9.69812 158.213 9.99318C157.851 10.2882 157.67 10.6638 157.67 11.1198C157.67 11.5758 157.858 11.9915 158.233 12.3671C158.609 12.7426 159.018 13.0578 159.46 13.3126C159.903 13.554 160.312 13.8759 160.688 14.2782C161.063 14.6806 161.251 15.1098 161.251 15.5658C161.251 16.4241 160.916 17.088 160.245 17.5574C159.588 18.0134 158.79 18.2414 157.851 18.2414C156.912 18.2414 156.087 18.0201 155.377 17.5775C155.605 17.1215 155.819 16.3302 156.02 15.2036L156.362 15.264C156.268 15.8139 156.222 16.2498 156.222 16.5716C156.222 16.8801 156.369 17.1685 156.664 17.4367C156.973 17.6915 157.408 17.8189 157.972 17.8189C158.548 17.8189 159.031 17.6446 159.42 17.2959C159.823 16.9472 160.024 16.4912 160.024 15.9279C160.024 15.5658 159.843 15.2171 159.481 14.8818C159.132 14.5331 158.743 14.2447 158.314 14.0167C157.898 13.7887 157.509 13.4668 157.147 13.0511C156.798 12.6353 156.624 12.1793 156.624 11.6831C156.624 10.9454 156.912 10.3285 157.489 9.83223C158.079 9.32259 158.85 9.06776 159.802 9.06776C160.54 9.06776 161.271 9.24882 161.995 9.61094C161.928 9.75847 161.814 10.0938 161.653 10.6168C161.506 11.1399 161.392 11.6361 161.311 12.1055L160.969 12.0452C161.05 11.616 161.09 11.2069 161.09 10.818C161.09 10.4156 160.956 10.1072 160.688 9.89259C160.433 9.66459 160.044 9.55059 159.521 9.55059ZM169.155 16.7326C169.155 16.5314 169.189 16.2095 169.256 15.7669H169.155C168.297 17.4166 167.304 18.2414 166.178 18.2414C164.971 18.2414 164.367 17.5708 164.367 16.2296C164.367 15.3579 164.676 13.7418 165.293 11.3813L165.655 9.99318L164.367 10.0938L164.347 9.75176C165.273 9.63106 166.138 9.46341 166.942 9.24882L167.224 9.45C166.097 12.9505 165.534 15.1902 165.534 16.1693C165.534 17.1484 165.903 17.6379 166.641 17.6379C167.258 17.6379 167.861 17.1886 168.451 16.29C169.055 15.378 169.551 14.1575 169.94 12.6286L170.624 9.99318L169.336 10.0938L169.316 9.75176C170.242 9.63106 171.107 9.46341 171.911 9.24882L172.193 9.45C171.724 10.8448 171.281 12.3402 170.865 13.9362C170.45 15.5322 170.242 16.5582 170.242 17.0142C170.242 17.4568 170.409 17.6781 170.745 17.6781C170.999 17.6781 171.274 17.5105 171.569 17.1752C171.864 16.8265 172.119 16.3369 172.334 15.7066L172.656 15.7871C172.079 17.4233 171.328 18.2414 170.403 18.2414C169.571 18.2414 169.155 17.7385 169.155 16.7326ZM175.987 17.0142C175.987 17.4568 176.155 17.6781 176.49 17.6781C176.745 17.6781 177.02 17.5105 177.315 17.1752C177.61 16.8265 177.865 16.3369 178.08 15.7066L178.401 15.7871C177.825 17.4233 177.074 18.2414 176.148 18.2414C175.317 18.2414 174.901 17.7184 174.901 16.6722C174.901 15.6127 175.779 11.8976 177.536 5.52706L176.249 5.62765L176.229 5.28565C177.154 5.16494 178.019 4.99729 178.824 4.78271L179.106 4.98388C178.542 6.63353 177.878 8.87329 177.114 11.7032C176.363 14.5196 175.987 16.29 175.987 17.0142ZM180.788 10.0334L180.888 9.65118H185.355L185.254 10.0334H180.788ZM183.987 7.1767L184.268 7.37788C183.96 8.31671 183.544 9.792 183.021 11.8038C182.511 13.8155 182.203 15.1165 182.096 15.7066C181.988 16.2833 181.935 16.7192 181.935 17.0142C181.935 17.4568 182.102 17.6781 182.438 17.6781C182.692 17.6781 182.967 17.5105 183.262 17.1752C183.557 16.8265 183.812 16.3369 184.027 15.7066L184.349 15.7871C183.772 17.4233 183.021 18.2414 182.096 18.2414C181.264 18.2414 180.848 17.7385 180.848 16.7326C180.848 15.9011 181.344 13.5808 182.337 9.77188L180.888 9.65118C181.626 9.65118 182.223 9.47682 182.679 9.12812C183.135 8.766 183.571 8.11553 183.987 7.1767ZM200.128 12.87H192.242V11.8038H200.128V12.87ZM200.128 16.29H192.242V15.2238H200.128V16.29Z" fill="#6082FA"/>
<path opacity="0.86" d="M211.877 5.32588H217.932C218.952 5.32588 219.676 5.26553 220.105 5.14482C219.904 5.61423 219.662 6.47929 219.381 7.74L219.18 8.68553H218.737L218.998 6.13059C218.998 5.90259 218.851 5.78859 218.556 5.78859H214.311L213.124 11.3813H217.188C217.322 11.3679 217.416 11.274 217.47 11.0996L217.872 9.85235H218.214L217.429 13.4735H217.087L217.268 12.2262C217.268 12.0385 217.195 11.9446 217.047 11.9446H213.024L211.837 17.5373H216.283C216.604 17.5373 216.812 17.3898 216.906 17.0947L217.751 14.6404H218.194L217.993 15.5859C217.738 16.7795 217.61 17.6446 217.61 18.1811C217.221 18.0604 216.531 18 215.538 18H209.201L209.262 17.6379H210.187C210.361 17.6379 210.469 17.5373 210.509 17.3361C212.118 9.71824 212.923 5.87576 212.923 5.80871C212.923 5.72823 212.849 5.688 212.702 5.688H211.816L211.877 5.32588ZM229.319 10.8985C229.319 11.4752 228.99 12.5347 228.333 14.0771C227.689 15.6194 227.367 16.6052 227.367 17.0344C227.367 17.4635 227.535 17.6781 227.87 17.6781C228.125 17.6781 228.4 17.5105 228.695 17.1752C228.99 16.8265 229.245 16.3369 229.459 15.7066L229.781 15.7871C229.205 17.4233 228.454 18.2414 227.528 18.2414C226.697 18.2414 226.281 17.7854 226.281 16.8734C226.281 16.4845 226.583 15.5188 227.186 13.9765C227.803 12.4341 228.112 11.4416 228.112 10.9991C228.112 10.1541 227.803 9.73165 227.186 9.73165C226.516 9.73165 225.791 10.2748 225.013 11.3612C224.115 12.6621 223.317 14.8751 222.619 18L221.211 18.1207L223.183 9.99318L221.895 10.0938L221.875 9.75176C222.801 9.63106 223.666 9.46341 224.47 9.24882L224.752 9.45C224.108 10.9253 223.545 12.6219 223.062 14.5398H223.223L223.545 13.6546C224.269 11.6294 225.054 10.3151 225.899 9.71153C226.301 9.44329 226.63 9.26894 226.884 9.18847C227.153 9.108 227.481 9.06776 227.87 9.06776C228.273 9.06776 228.615 9.22871 228.896 9.55059C229.178 9.87247 229.319 10.3218 229.319 10.8985ZM236.379 9.55059C235.829 9.55059 235.319 9.75847 234.85 10.1742C234.394 10.59 234.031 11.1064 233.763 11.7233C233.227 13.0242 232.959 14.1508 232.959 15.1031C232.959 16.8734 233.495 17.7586 234.568 17.7586C235.896 17.7586 236.868 17.0344 237.485 15.5859L237.807 15.6664C237.485 16.4845 237.016 17.1215 236.399 17.5775C235.795 18.0201 235.111 18.2414 234.347 18.2414C233.582 18.2414 232.938 17.9598 232.415 17.3965C231.892 16.8332 231.631 16.0754 231.631 15.1232C231.631 14.1709 231.812 13.2522 232.174 12.3671C232.536 11.4685 233.099 10.6973 233.864 10.0535C234.628 9.39635 235.5 9.06776 236.479 9.06776C237.15 9.06776 237.653 9.24212 237.988 9.59082C238.337 9.92612 238.511 10.3352 238.511 10.818C238.511 11.2874 238.424 11.7099 238.249 12.0854C238.089 12.4609 237.827 12.6487 237.465 12.6487C237.116 12.6487 236.855 12.5414 236.68 12.3268C237.069 11.7367 237.264 11.16 237.264 10.5967C237.264 9.89929 236.969 9.55059 236.379 9.55059Z" fill="#6082FA"/>
<path opacity="0.86" d="M242.755 11.7384C243.274 11.5059 243.824 11.3896 244.405 11.3896C245.29 11.3896 245.988 11.6579 246.497 12.1944C247.016 12.7219 247.275 13.4685 247.275 14.4341C247.275 15.0868 247.168 15.7485 246.953 16.4191C246.739 17.0807 246.439 17.6932 246.055 18.2565C245.67 18.8198 245.169 19.2802 244.552 19.6379C243.936 19.9866 243.225 20.1609 242.42 20.1609C241.615 20.1609 240.954 19.8927 240.435 19.3562C239.925 18.8198 239.671 18.0419 239.671 17.0226C239.671 16.0033 239.948 14.9751 240.502 13.9379C241.065 12.9007 241.816 12.1675 242.755 11.7384ZM245.786 12.4224C245.429 11.9664 244.955 11.7384 244.365 11.7384C243.775 11.7384 243.229 11.9306 242.728 12.3151C242.228 12.6906 241.83 13.1689 241.535 13.7501C240.918 14.9482 240.609 16.1106 240.609 17.2372C240.609 18.0508 240.784 18.6856 241.132 19.1416C241.49 19.5887 241.964 19.8122 242.554 19.8122C243.153 19.8122 243.703 19.6245 244.204 19.2489C244.704 18.8645 245.107 18.3861 245.411 17.8139C246.028 16.6247 246.336 15.4624 246.336 14.3268C246.336 13.5132 246.153 12.8784 245.786 12.4224ZM250.453 14.1659L250.641 14.3C250.212 15.2835 249.836 16.4146 249.514 17.6932H249.621L249.836 17.1031C250.256 15.9586 250.672 15.1628 251.083 14.7158C251.495 14.2687 251.852 14.0452 252.156 14.0452C252.46 14.0452 252.684 14.1435 252.827 14.3402C252.979 14.5369 253.055 14.7918 253.055 15.1047C253.055 15.4176 252.997 15.6904 252.881 15.9228C252.764 16.1553 252.594 16.2715 252.371 16.2715C252.156 16.2715 251.977 16.2 251.834 16.0569C251.924 15.9407 252.009 15.7708 252.089 15.5473C252.17 15.3238 252.21 15.1271 252.21 14.9572C252.21 14.6979 252.103 14.5682 251.888 14.5682C251.665 14.5682 251.387 14.7873 251.057 15.2254C250.332 16.1732 249.72 17.7647 249.219 20L248.28 20.0805L249.595 14.6621L248.736 14.7292L248.723 14.5012C249.34 14.4207 249.917 14.3089 250.453 14.1659ZM257.589 19.3428C257.589 19.6379 257.701 19.7854 257.925 19.7854C258.095 19.7854 258.278 19.6736 258.475 19.4501C258.671 19.2176 258.841 18.8913 258.984 18.4711L259.199 18.5247C258.814 19.6155 258.314 20.1609 257.697 20.1609C257.142 20.1609 256.865 19.8122 256.865 19.1148C256.865 18.4085 257.451 15.9318 258.622 11.6847L257.764 11.7518L257.75 11.5238C258.367 11.4433 258.944 11.3315 259.48 11.1885L259.668 11.3226C259.293 12.4224 258.85 13.9155 258.34 15.8021C257.84 17.6798 257.589 18.86 257.589 19.3428ZM256.999 18.5113H256.865C256.311 19.6111 255.667 20.1609 254.934 20.1609C254.514 20.1609 254.16 19.9776 253.874 19.6111C253.597 19.2355 253.459 18.7795 253.459 18.2431C253.459 17.6976 253.53 17.1925 253.673 16.7275C253.816 16.2626 254.017 15.8289 254.277 15.4266C254.536 15.0153 254.88 14.6845 255.309 14.4341C255.739 14.1748 256.177 14.0452 256.624 14.0452C257.482 14.0452 258.09 14.4207 258.448 15.1718L258.26 15.4132C257.84 14.7158 257.317 14.3671 256.691 14.3671C256.306 14.3671 255.953 14.5056 255.631 14.7828C255.318 15.06 255.072 15.4087 254.894 15.8289C254.527 16.6873 254.344 17.4965 254.344 18.2565C254.344 18.7572 254.424 19.1327 254.585 19.3831C254.755 19.6334 254.979 19.7586 255.256 19.7586C255.64 19.7586 256.034 19.4367 256.436 18.7929C256.838 18.1402 257.196 17.2104 257.509 16.0033L256.999 18.5113ZM263.665 14.0452C264.139 14.0452 264.492 14.1614 264.724 14.3939C264.966 14.6174 265.087 14.9438 265.087 15.3729C265.087 15.7932 264.921 16.1598 264.59 16.4727C264.027 17.0092 263.191 17.2774 262.082 17.2774C261.751 17.2774 261.465 17.2506 261.224 17.1969V16.9421C261.537 16.9868 261.796 17.0092 262.002 17.0092C262.744 17.0092 263.316 16.8214 263.719 16.4459C264.13 16.0704 264.335 15.6591 264.335 15.212C264.335 14.9706 264.268 14.7694 264.134 14.6085C264.009 14.4475 263.795 14.3671 263.491 14.3671C263.195 14.3671 262.891 14.5056 262.579 14.7828C262.275 15.06 262.033 15.4042 261.854 15.8155C261.497 16.6828 261.318 17.4339 261.318 18.0687C261.318 19.2489 261.675 19.8391 262.391 19.8391C263.276 19.8391 263.924 19.3562 264.335 18.3906L264.55 18.4442C264.335 18.9896 264.023 19.4144 263.611 19.7184C263.209 20.0134 262.753 20.1609 262.243 20.1609C261.734 20.1609 261.304 19.9732 260.956 19.5976C260.607 19.2221 260.433 18.7169 260.433 18.0821C260.433 17.4473 260.553 16.8348 260.795 16.2447C261.036 15.6456 261.412 15.1315 261.921 14.7024C262.431 14.2642 263.012 14.0452 263.665 14.0452ZM268.271 14.1659L268.459 14.3C268.03 15.2835 267.654 16.4146 267.332 17.6932H267.44L267.654 17.1031C268.075 15.9586 268.49 15.1628 268.902 14.7158C269.313 14.2687 269.671 14.0452 269.975 14.0452C270.279 14.0452 270.502 14.1435 270.645 14.3402C270.797 14.5369 270.873 14.7918 270.873 15.1047C270.873 15.4176 270.815 15.6904 270.699 15.9228C270.583 16.1553 270.413 16.2715 270.189 16.2715C269.975 16.2715 269.796 16.2 269.653 16.0569C269.742 15.9407 269.827 15.7708 269.908 15.5473C269.988 15.3238 270.028 15.1271 270.028 14.9572C270.028 14.6979 269.921 14.5682 269.706 14.5682C269.483 14.5682 269.206 14.7873 268.875 15.2254C268.151 16.1732 267.538 17.7647 267.037 20L266.099 20.0805L267.413 14.6621L266.555 14.7292L266.541 14.5012C267.158 14.4207 267.735 14.3089 268.271 14.1659ZM271.518 19.9598C271.384 19.8167 271.317 19.6468 271.317 19.4501C271.317 19.2534 271.384 19.088 271.518 18.9539C271.661 18.8108 271.831 18.7393 272.028 18.7393C272.225 18.7393 272.39 18.8108 272.524 18.9539C272.667 19.088 272.739 19.2534 272.739 19.4501C272.739 19.6468 272.667 19.8167 272.524 19.9598C272.39 20.0939 272.225 20.1609 272.028 20.1609C271.831 20.1609 271.661 20.0939 271.518 19.9598ZM276.365 14.1659L276.553 14.3C276.124 15.2835 275.748 16.4146 275.426 17.6932H275.533L275.748 17.1031C276.168 15.9586 276.584 15.1628 276.995 14.7158C277.407 14.2687 277.764 14.0452 278.068 14.0452C278.372 14.0452 278.596 14.1435 278.739 14.3402C278.891 14.5369 278.967 14.7918 278.967 15.1047C278.967 15.4176 278.909 15.6904 278.792 15.9228C278.676 16.1553 278.506 16.2715 278.283 16.2715C278.068 16.2715 277.889 16.2 277.746 16.0569C277.836 15.9407 277.921 15.7708 278.001 15.5473C278.082 15.3238 278.122 15.1271 278.122 14.9572C278.122 14.6979 278.015 14.5682 277.8 14.5682C277.576 14.5682 277.299 14.7873 276.968 15.2254C276.244 16.1732 275.632 17.7647 275.131 20L274.192 20.0805L275.507 14.6621L274.648 14.7292L274.635 14.5012C275.252 14.4207 275.828 14.3089 276.365 14.1659ZM282.603 14.0452C283.077 14.0452 283.43 14.1614 283.662 14.3939C283.904 14.6174 284.024 14.9438 284.024 15.3729C284.024 15.7932 283.859 16.1598 283.528 16.4727C282.965 17.0092 282.129 17.2774 281.02 17.2774C280.689 17.2774 280.403 17.2506 280.162 17.1969V16.9421C280.475 16.9868 280.734 17.0092 280.94 17.0092C281.682 17.0092 282.254 16.8214 282.656 16.4459C283.068 16.0704 283.273 15.6591 283.273 15.212C283.273 14.9706 283.206 14.7694 283.072 14.6085C282.947 14.4475 282.732 14.3671 282.428 14.3671C282.133 14.3671 281.829 14.5056 281.516 14.7828C281.212 15.06 280.971 15.4042 280.792 15.8155C280.434 16.6828 280.256 17.4339 280.256 18.0687C280.256 19.2489 280.613 19.8391 281.329 19.8391C282.214 19.8391 282.862 19.3562 283.273 18.3906L283.488 18.4442C283.273 18.9896 282.96 19.4144 282.549 19.7184C282.147 20.0134 281.691 20.1609 281.181 20.1609C280.671 20.1609 280.242 19.9732 279.894 19.5976C279.545 19.2221 279.37 18.7169 279.37 18.0821C279.37 17.4473 279.491 16.8348 279.733 16.2447C279.974 15.6456 280.35 15.1315 280.859 14.7024C281.369 14.2642 281.95 14.0452 282.603 14.0452ZM287.531 14.3671C287.191 14.3671 286.901 14.4654 286.659 14.6621C286.418 14.8588 286.297 15.1092 286.297 15.4132C286.297 15.7172 286.422 15.9944 286.673 16.2447C286.923 16.4951 287.196 16.7052 287.491 16.8751C287.786 17.036 288.059 17.2506 288.309 17.5188C288.559 17.7871 288.684 18.0732 288.684 18.3772C288.684 18.9494 288.461 19.392 288.014 19.7049C287.576 20.0089 287.044 20.1609 286.418 20.1609C285.792 20.1609 285.242 20.0134 284.768 19.7184C284.92 19.4144 285.063 18.8868 285.197 18.1358L285.425 18.176C285.363 18.5426 285.331 18.8332 285.331 19.0478C285.331 19.2534 285.43 19.4456 285.627 19.6245C285.832 19.7944 286.123 19.8793 286.498 19.8793C286.883 19.8793 287.205 19.7631 287.464 19.5306C287.732 19.2981 287.866 18.9941 287.866 18.6186C287.866 18.3772 287.746 18.1447 287.504 17.9212C287.272 17.6887 287.012 17.4965 286.726 17.3445C286.449 17.1925 286.19 16.9779 285.948 16.7007C285.716 16.4235 285.6 16.1195 285.6 15.7887C285.6 15.2969 285.792 14.8856 286.176 14.5548C286.57 14.2151 287.084 14.0452 287.719 14.0452C288.211 14.0452 288.698 14.1659 289.181 14.4073C289.136 14.5056 289.06 14.7292 288.953 15.0779C288.854 15.4266 288.778 15.7574 288.725 16.0704L288.497 16.0301C288.55 15.744 288.577 15.4713 288.577 15.212C288.577 14.9438 288.488 14.7381 288.309 14.5951C288.139 14.4431 287.88 14.3671 287.531 14.3671ZM293.954 19.1551C293.954 19.0209 293.976 18.8064 294.021 18.5113H293.954C293.382 19.6111 292.72 20.1609 291.969 20.1609C291.164 20.1609 290.762 19.7139 290.762 18.8198C290.762 18.2386 290.968 17.1612 291.379 15.5875L291.62 14.6621L290.762 14.7292L290.749 14.5012C291.365 14.4207 291.942 14.3089 292.479 14.1659L292.666 14.3C291.915 16.6336 291.54 18.1268 291.54 18.7795C291.54 19.4322 291.786 19.7586 292.277 19.7586C292.689 19.7586 293.091 19.4591 293.485 18.86C293.887 18.252 294.218 17.4384 294.477 16.4191L294.933 14.6621L294.075 14.7292L294.061 14.5012C294.678 14.4207 295.255 14.3089 295.791 14.1659L295.979 14.3C295.666 15.2299 295.371 16.2268 295.094 17.2908C294.817 18.3548 294.678 19.0388 294.678 19.3428C294.678 19.6379 294.79 19.7854 295.013 19.7854C295.183 19.7854 295.367 19.6736 295.563 19.4501C295.76 19.2176 295.93 18.8913 296.073 18.4711L296.288 18.5247C295.903 19.6155 295.402 20.1609 294.785 20.1609C294.231 20.1609 293.954 19.8256 293.954 19.1551ZM298.509 19.3428C298.509 19.6379 298.62 19.7854 298.844 19.7854C299.014 19.7854 299.197 19.6736 299.394 19.4501C299.591 19.2176 299.76 18.8913 299.903 18.4711L300.118 18.5247C299.734 19.6155 299.233 20.1609 298.616 20.1609C298.062 20.1609 297.784 19.8122 297.784 19.1148C297.784 18.4085 298.37 15.9318 299.541 11.6847L298.683 11.7518L298.67 11.5238C299.287 11.4433 299.863 11.3315 300.4 11.1885L300.587 11.3226C300.212 12.4224 299.769 13.9155 299.26 15.8021C298.759 17.6798 298.509 18.86 298.509 19.3428ZM301.709 14.6889L301.776 14.4341H304.753L304.686 14.6889H301.709ZM303.841 12.7845L304.029 12.9186C303.824 13.5445 303.546 14.528 303.198 15.8692C302.858 17.2104 302.652 18.0776 302.581 18.4711C302.509 18.8555 302.473 19.1461 302.473 19.3428C302.473 19.6379 302.585 19.7854 302.809 19.7854C302.979 19.7854 303.162 19.6736 303.359 19.4501C303.555 19.2176 303.725 18.8913 303.868 18.4711L304.083 18.5247C303.698 19.6155 303.198 20.1609 302.581 20.1609C302.026 20.1609 301.749 19.8256 301.749 19.1551C301.749 18.6007 302.08 17.0539 302.742 14.5146L301.776 14.4341C302.268 14.4341 302.666 14.3179 302.97 14.0854C303.274 13.844 303.564 13.4104 303.841 12.7845ZM308.621 16.6336H307.307C306.895 18.5292 306.69 19.5261 306.69 19.6245C306.69 19.7139 306.739 19.7586 306.837 19.7586H307.816L307.776 20H304.919L304.96 19.7586H305.577C305.693 19.7586 305.764 19.6915 305.791 19.5574C306.864 14.4788 307.401 11.9172 307.401 11.8725C307.401 11.8188 307.351 11.792 307.253 11.792H306.663L306.703 11.5506H309.694C310.302 11.5506 310.803 11.7205 311.196 12.0602C311.589 12.4 311.786 12.8694 311.786 13.4685C311.786 14.4162 311.46 15.1807 310.807 15.7619C310.154 16.3431 309.426 16.6336 308.621 16.6336ZM309.546 11.8591H308.326L307.374 16.3252H308.634C309.278 16.3252 309.815 16.0122 310.244 15.3864C310.682 14.7605 310.901 14.1033 310.901 13.4148C310.901 12.9678 310.785 12.5967 310.552 12.3016C310.329 12.0066 309.993 11.8591 309.546 11.8591ZM315.826 19.1551C315.826 19.0209 315.848 18.8064 315.893 18.5113H315.826C315.253 19.6111 314.592 20.1609 313.841 20.1609C313.036 20.1609 312.634 19.7139 312.634 18.8198C312.634 18.2386 312.839 17.1612 313.251 15.5875L313.492 14.6621L312.634 14.7292L312.62 14.5012C313.237 14.4207 313.814 14.3089 314.35 14.1659L314.538 14.3C313.787 16.6336 313.412 18.1268 313.412 18.7795C313.412 19.4322 313.657 19.7586 314.149 19.7586C314.56 19.7586 314.963 19.4591 315.356 18.86C315.759 18.252 316.089 17.4384 316.349 16.4191L316.805 14.6621L315.946 14.7292L315.933 14.5012C316.55 14.4207 317.127 14.3089 317.663 14.1659L317.851 14.3C317.538 15.2299 317.243 16.2268 316.966 17.2908C316.688 18.3548 316.55 19.0388 316.55 19.3428C316.55 19.6379 316.662 19.7854 316.885 19.7854C317.055 19.7854 317.238 19.6736 317.435 19.4501C317.632 19.2176 317.802 18.8913 317.945 18.4711L318.159 18.5247C317.775 19.6155 317.274 20.1609 316.657 20.1609C316.103 20.1609 315.826 19.8256 315.826 19.1551ZM320.581 17.6932H320.689L320.903 17.1031C321.654 15.0645 322.477 14.0452 323.371 14.0452C323.791 14.0452 324.14 14.2329 324.417 14.6085C324.703 14.9751 324.846 15.4311 324.846 15.9765C324.846 16.5129 324.775 17.0136 324.632 17.4786C324.489 17.9435 324.288 18.3816 324.028 18.7929C323.769 19.1953 323.425 19.5261 322.996 19.7854C322.566 20.0358 322.128 20.1609 321.681 20.1609C321.234 20.1609 320.85 20.076 320.528 19.9061C320.206 19.7273 319.956 19.4948 319.777 19.2087L319.897 18.8466C320.327 19.5261 320.877 19.8659 321.547 19.8659C322.057 19.8659 322.499 19.6334 322.875 19.1685C323.25 18.6946 323.514 18.176 323.666 17.6127C323.827 17.0405 323.908 16.5174 323.908 16.0435C323.908 15.5607 323.827 15.1941 323.666 14.9438C323.514 14.6845 323.335 14.5548 323.13 14.5548C322.924 14.5548 322.718 14.6442 322.513 14.8231C322.307 14.9929 322.084 15.2612 321.842 15.6278C321.324 16.4325 320.836 17.7513 320.38 19.5842L319.978 19.1551L319.576 20.1609L319.348 20.0805L321.453 11.6847L320.595 11.7518L320.581 11.5238C321.198 11.4433 321.775 11.3315 322.312 11.1885L322.499 11.3226C321.775 13.4327 321.136 15.5562 320.581 17.6932ZM326.909 19.3428C326.909 19.6379 327.021 19.7854 327.244 19.7854C327.414 19.7854 327.598 19.6736 327.794 19.4501C327.991 19.2176 328.161 18.8913 328.304 18.4711L328.518 18.5247C328.134 19.6155 327.633 20.1609 327.016 20.1609C326.462 20.1609 326.185 19.8122 326.185 19.1148C326.185 18.4085 326.77 15.9318 327.942 11.6847L327.083 11.7518L327.07 11.5238C327.687 11.4433 328.264 11.3315 328.8 11.1885L328.988 11.3226C328.612 12.4224 328.17 13.9155 327.66 15.8021C327.159 17.6798 326.909 18.86 326.909 19.3428ZM331.665 12.704C331.549 12.5878 331.491 12.4447 331.491 12.2748C331.491 12.1049 331.549 11.9619 331.665 11.8456C331.781 11.7294 331.925 11.6713 332.094 11.6713C332.264 11.6713 332.407 11.7294 332.524 11.8456C332.64 11.9619 332.698 12.1049 332.698 12.2748C332.698 12.4447 332.64 12.5878 332.524 12.704C332.407 12.8202 332.264 12.8784 332.094 12.8784C331.925 12.8784 331.781 12.8202 331.665 12.704ZM330.15 19.1551C330.15 18.6812 330.476 17.1835 331.129 14.6621L330.27 14.7292L330.257 14.5012C330.874 14.4207 331.451 14.3089 331.987 14.1659L332.175 14.3C331.862 15.2299 331.567 16.2268 331.29 17.2908C331.013 18.3548 330.874 19.0388 330.874 19.3428C330.874 19.6379 330.986 19.7854 331.209 19.7854C331.379 19.7854 331.562 19.6736 331.759 19.4501C331.956 19.2176 332.126 18.8913 332.269 18.4711L332.483 18.5247C332.099 19.6155 331.598 20.1609 330.981 20.1609C330.427 20.1609 330.15 19.8256 330.15 19.1551ZM336.887 14.3671C336.521 14.3671 336.181 14.5056 335.868 14.7828C335.564 15.06 335.323 15.4042 335.144 15.8155C334.786 16.6828 334.607 17.4339 334.607 18.0687C334.607 19.2489 334.965 19.8391 335.68 19.8391C336.565 19.8391 337.214 19.3562 337.625 18.3906L337.84 18.4442C337.625 18.9896 337.312 19.4144 336.901 19.7184C336.498 20.0134 336.042 20.1609 335.533 20.1609C335.023 20.1609 334.594 19.9732 334.245 19.5976C333.897 19.2221 333.722 18.7169 333.722 18.0821C333.722 17.4473 333.843 16.8348 334.084 16.2447C334.326 15.6456 334.701 15.1315 335.211 14.7024C335.721 14.2642 336.302 14.0452 336.954 14.0452C337.401 14.0452 337.737 14.1614 337.96 14.3939C338.193 14.6174 338.309 14.8901 338.309 15.212C338.309 15.5249 338.251 15.8066 338.135 16.0569C338.027 16.3073 337.853 16.4325 337.612 16.4325C337.379 16.4325 337.205 16.3609 337.089 16.2179C337.348 15.8245 337.477 15.44 337.477 15.0645C337.477 14.5995 337.281 14.3671 336.887 14.3671ZM342.298 11.9798L340.689 19.6245C340.689 19.7139 340.738 19.7586 340.837 19.7586H341.427L341.386 20H338.919L338.959 19.7586H339.576C339.692 19.7586 339.764 19.6915 339.79 19.5574C340.863 14.4788 341.4 11.9172 341.4 11.8725C341.4 11.8188 341.351 11.792 341.252 11.792H340.662L340.702 11.5506H343.17L343.13 11.792H342.526C342.41 11.792 342.334 11.8546 342.298 11.9798ZM344.216 17.6529L344.243 18.8868C344.261 19.4412 344.409 19.7184 344.686 19.7184C344.865 19.7184 345.012 19.6245 345.128 19.4367C345.254 19.2489 345.316 19.0075 345.316 18.7125L345.571 18.6722C345.571 19.1282 345.45 19.4904 345.209 19.7586C344.976 20.0268 344.681 20.1609 344.324 20.1609C343.689 20.1609 343.354 19.6826 343.318 18.7259L343.264 17.4115C343.237 16.8304 343.117 16.428 342.902 16.2045C342.687 15.972 342.334 15.8558 341.842 15.8558L341.91 15.6412L345.732 11.792H345.102L345.142 11.5506H346.872L346.832 11.792H346.483C346.34 11.792 346.21 11.8546 346.094 11.9798L342.459 15.6144C343.103 15.6233 343.55 15.8111 343.801 16.1776C344.06 16.5442 344.198 17.036 344.216 17.6529ZM350.444 14.0452C350.918 14.0452 351.271 14.1614 351.504 14.3939C351.745 14.6174 351.866 14.9438 351.866 15.3729C351.866 15.7932 351.7 16.1598 351.37 16.4727C350.806 17.0092 349.97 17.2774 348.862 17.2774C348.531 17.2774 348.245 17.2506 348.003 17.1969V16.9421C348.316 16.9868 348.576 17.0092 348.781 17.0092C349.523 17.0092 350.096 16.8214 350.498 16.4459C350.909 16.0704 351.115 15.6591 351.115 15.212C351.115 14.9706 351.048 14.7694 350.914 14.6085C350.788 14.4475 350.574 14.3671 350.27 14.3671C349.975 14.3671 349.671 14.5056 349.358 14.7828C349.054 15.06 348.812 15.4042 348.634 15.8155C348.276 16.6828 348.097 17.4339 348.097 18.0687C348.097 19.2489 348.455 19.8391 349.17 19.8391C350.055 19.8391 350.704 19.3562 351.115 18.3906L351.329 18.4442C351.115 18.9896 350.802 19.4144 350.391 19.7184C349.988 20.0134 349.532 20.1609 349.023 20.1609C348.513 20.1609 348.084 19.9732 347.735 19.5976C347.386 19.2221 347.212 18.7169 347.212 18.0821C347.212 17.4473 347.333 16.8348 347.574 16.2447C347.816 15.6456 348.191 15.1315 348.701 14.7024C349.21 14.2642 349.792 14.0452 350.444 14.0452ZM354.957 19.7184C355.529 19.7184 356.097 19.3026 356.66 18.4711C357.232 17.6306 357.518 16.8482 357.518 16.124C357.518 15.3908 357.286 14.7918 356.821 14.3268C357.045 14.1391 357.25 14.0452 357.438 14.0452C357.787 14.0452 357.961 14.5369 357.961 15.5205C357.961 16.504 357.854 17.4071 357.639 18.2296C357.425 19.0433 357.143 19.7362 356.794 20.3085C356.454 20.8807 356.065 21.3769 355.627 21.7972C354.778 22.6376 353.915 23.0579 353.039 23.0579C352.592 23.0579 352.257 22.9551 352.033 22.7494C351.801 22.5438 351.684 22.3024 351.684 22.0252C351.684 21.748 351.742 21.4976 351.859 21.2741C351.966 21.0506 352.131 20.9388 352.355 20.9388C352.578 20.9388 352.762 21.0014 352.905 21.1266C352.645 21.4574 352.516 21.7614 352.516 22.0386C352.516 22.4856 352.753 22.7092 353.227 22.7092C353.54 22.7092 353.902 22.5929 354.313 22.3605C354.724 22.1369 355.14 21.8151 355.56 21.3948C355.981 20.9835 356.365 20.4292 356.714 19.7318C357.071 19.0344 357.322 18.2788 357.465 17.4652C357.17 18.2431 356.772 18.8868 356.271 19.3965C355.779 19.9061 355.212 20.1609 354.568 20.1609C354.237 20.1609 353.969 20.0492 353.763 19.8256C353.566 19.5932 353.468 19.2802 353.468 18.8868C353.468 18.4934 353.616 17.8049 353.911 16.8214C354.215 15.8379 354.367 15.1941 354.367 14.8901C354.367 14.5772 354.25 14.4207 354.018 14.4207C353.848 14.4207 353.669 14.5369 353.481 14.7694C353.294 14.9929 353.142 15.3148 353.025 15.7351L352.797 15.6814C353.128 14.5906 353.607 14.0452 354.233 14.0452C354.814 14.0452 355.104 14.3581 355.104 14.984C355.104 15.2344 354.966 15.8558 354.689 16.8482C354.411 17.8407 354.273 18.4934 354.273 18.8064C354.273 19.4144 354.501 19.7184 354.957 19.7184ZM363.71 19.7586L363.348 17.1701H360.384L358.936 19.7586H359.767L359.727 20H357.796L357.849 19.7586H358.319C358.444 19.7586 358.538 19.696 358.6 19.5708L363.107 11.5506H363.536L364.636 19.5708C364.654 19.696 364.721 19.7586 364.837 19.7586H365.306L365.266 20H362.839L362.879 19.7586H363.71ZM362.772 12.9186L360.585 16.7946H363.295L362.772 12.9186ZM367.503 19.3428C367.503 19.6379 367.614 19.7854 367.838 19.7854C368.008 19.7854 368.191 19.6736 368.388 19.4501C368.585 19.2176 368.754 18.8913 368.898 18.4711L369.112 18.5247C368.728 19.6155 368.227 20.1609 367.61 20.1609C367.056 20.1609 366.778 19.8122 366.778 19.1148C366.778 18.4085 367.364 15.9318 368.535 11.6847L367.677 11.7518L367.664 11.5238C368.281 11.4433 368.857 11.3315 369.394 11.1885L369.582 11.3226C369.206 12.4224 368.763 13.9155 368.254 15.8021C367.753 17.6798 367.503 18.86 367.503 19.3428ZM371.293 19.2221L373.426 19.7049C373.891 19.8122 374.221 19.9553 374.418 20.1341C374.615 20.3219 374.713 20.5767 374.713 20.8986C374.713 21.4172 374.427 21.9045 373.855 22.3605C373.292 22.8254 372.648 23.0579 371.924 23.0579C371.199 23.0579 370.609 22.8925 370.153 22.5616C369.706 22.2308 369.483 21.8374 369.483 21.3814C369.483 21.0685 369.59 20.7689 369.805 20.4828C370.01 20.1967 370.319 19.9553 370.73 19.7586L370.998 19.8391C370.73 19.9732 370.524 20.1744 370.381 20.4426C370.238 20.7198 370.167 21.0104 370.167 21.3144C370.167 21.8151 370.332 22.1861 370.663 22.4275C370.994 22.6779 371.418 22.8031 371.937 22.8031C372.465 22.8031 372.947 22.6511 373.385 22.3471C373.833 22.052 374.056 21.6944 374.056 21.2741C374.056 20.8539 373.783 20.5812 373.238 20.456L370.931 19.9464C370.672 19.8927 370.471 19.772 370.328 19.5842C370.185 19.3965 370.113 19.1685 370.113 18.9002C370.113 18.632 370.225 18.3861 370.448 18.1626C370.672 17.9391 370.98 17.8273 371.374 17.8273H372.728L372.688 18.0151H371.374C371.186 18.0151 371.034 18.0732 370.918 18.1894C370.81 18.3056 370.757 18.4442 370.757 18.6052C370.757 18.936 370.936 19.1416 371.293 19.2221ZM373.546 14.2329L373.533 14.0452C373.783 14.0452 373.993 13.9871 374.163 13.8708C374.333 13.7456 374.418 13.5847 374.418 13.388C374.418 13.1913 374.275 13.0035 373.989 12.8247C374.132 12.5207 374.302 12.3687 374.499 12.3687C374.704 12.3687 374.856 12.4268 374.955 12.5431C375.062 12.6593 375.116 12.8068 375.116 12.9856C375.116 13.2986 374.973 13.5847 374.686 13.844C374.409 14.1033 374.029 14.2329 373.546 14.2329ZM371.092 16.5532C371.092 15.8915 371.325 15.3104 371.789 14.8096C372.263 14.3 372.845 14.0452 373.533 14.0452C374.016 14.0452 374.396 14.1748 374.673 14.4341C374.959 14.6845 375.102 15.0421 375.102 15.5071C375.102 16.2581 374.861 16.8661 374.378 17.3311C373.895 17.7871 373.332 18.0151 372.688 18.0151C372.196 18.0151 371.807 17.8899 371.521 17.6395C371.235 17.3802 371.092 17.0181 371.092 16.5532ZM373.52 14.3C373.028 14.3 372.625 14.5727 372.313 15.1181C372 15.6546 371.843 16.1329 371.843 16.5532C371.843 16.9734 371.919 17.2819 372.071 17.4786C372.232 17.6664 372.442 17.7602 372.701 17.7602C373.095 17.7602 373.47 17.5367 373.828 17.0896C374.186 16.6426 374.365 16.0793 374.365 15.3998C374.365 15.06 374.284 14.7918 374.123 14.5951C373.971 14.3984 373.77 14.3 373.52 14.3ZM376.32 18.0553C376.32 17.1344 376.588 16.2536 377.124 15.4132C377.384 15.0108 377.723 14.6845 378.144 14.4341C378.564 14.1748 379.042 14.0452 379.579 14.0452C380.124 14.0452 380.567 14.2285 380.907 14.5951C381.246 14.9616 381.416 15.4624 381.416 16.0972C381.416 16.732 381.3 17.3489 381.067 17.948C380.835 18.5471 380.468 19.0656 379.968 19.5038C379.467 19.9419 378.904 20.1609 378.278 20.1609C377.652 20.1609 377.169 19.9776 376.829 19.6111C376.49 19.2445 376.32 18.7259 376.32 18.0553ZM379.471 14.3402C378.989 14.3402 378.559 14.5816 378.184 15.0645C377.817 15.5473 377.554 16.0748 377.393 16.6471C377.241 17.2193 377.165 17.7558 377.165 18.2565C377.165 18.7482 377.263 19.1416 377.46 19.4367C377.665 19.7228 377.943 19.8659 378.291 19.8659C378.649 19.8659 378.98 19.7228 379.284 19.4367C379.597 19.1506 379.843 18.7974 380.021 18.3772C380.388 17.5188 380.571 16.7767 380.571 16.1508C380.571 15.516 380.473 15.0555 380.276 14.7694C380.079 14.4833 379.811 14.3402 379.471 14.3402Z" fill="#6082FA"/>
<path opacity="0.86" d="M388.739 5.52706C387.345 6.55976 386.258 8.00823 385.48 9.87247C384.702 11.7233 384.314 13.6412 384.314 15.6261C384.314 17.5976 384.77 19.0461 385.682 19.9715L385.4 20.2733C384.555 19.7502 383.911 19.0126 383.469 18.0604C383.039 17.1081 382.825 16.0486 382.825 14.8818C382.825 12.9639 383.348 11.0929 384.394 9.26894C385.454 7.43153 386.855 6.08365 388.599 5.22529L388.739 5.52706ZM393.536 5.60753C394.314 5.25882 395.139 5.08447 396.011 5.08447C397.338 5.08447 398.385 5.48682 399.149 6.29153C399.927 7.08282 400.316 8.20271 400.316 9.65118C400.316 10.6302 400.155 11.6227 399.833 12.6286C399.511 13.6211 399.062 14.5398 398.485 15.3847C397.908 16.2296 397.157 16.9204 396.232 17.4568C395.307 17.9799 394.24 18.2414 393.033 18.2414C391.826 18.2414 390.834 17.8391 390.056 17.0344C389.291 16.2296 388.909 15.0628 388.909 13.5339C388.909 12.0049 389.325 10.4626 390.156 8.90682C391.001 7.35106 392.128 6.25129 393.536 5.60753ZM398.083 6.63353C397.546 5.94953 396.836 5.60753 395.95 5.60753C395.065 5.60753 394.247 5.89588 393.496 6.47259C392.745 7.03588 392.148 7.75341 391.706 8.62518C390.78 10.4224 390.317 12.1659 390.317 13.8558C390.317 15.0762 390.579 16.0285 391.102 16.7125C391.638 17.3831 392.349 17.7184 393.234 17.7184C394.133 17.7184 394.958 17.4367 395.709 16.8734C396.46 16.2967 397.064 15.5792 397.52 14.7208C398.445 12.9371 398.908 11.1935 398.908 9.49024C398.908 8.26976 398.633 7.31753 398.083 6.63353ZM405.083 9.24882L405.364 9.45C404.721 10.9253 404.157 12.6219 403.675 14.5398H403.836L404.157 13.6546C404.788 11.9379 405.411 10.7442 406.028 10.0736C406.645 9.40306 407.182 9.06776 407.638 9.06776C408.094 9.06776 408.429 9.21529 408.644 9.51035C408.872 9.80541 408.986 10.1876 408.986 10.6571C408.986 11.1265 408.898 11.5355 408.724 11.8842C408.55 12.2329 408.295 12.4073 407.96 12.4073C407.638 12.4073 407.37 12.3 407.155 12.0854C407.289 11.9111 407.416 11.6562 407.537 11.3209C407.658 10.9856 407.718 10.6906 407.718 10.4358C407.718 10.0468 407.557 9.85235 407.235 9.85235C406.9 9.85235 406.484 10.1809 405.988 10.8381C404.902 12.2598 403.983 14.6471 403.232 18L401.824 18.1207L403.795 9.99318L402.508 10.0938L402.488 9.75176C403.413 9.63106 404.278 9.46341 405.083 9.24882ZM415.787 17.0142C415.787 17.4568 415.955 17.6781 416.29 17.6781C416.545 17.6781 416.82 17.5105 417.115 17.1752C417.41 16.8265 417.665 16.3369 417.88 15.7066L418.201 15.7871C417.625 17.4233 416.874 18.2414 415.948 18.2414C415.117 18.2414 414.701 17.7184 414.701 16.6722C414.701 15.6127 415.579 11.8976 417.336 5.52706L416.049 5.62765L416.029 5.28565C416.954 5.16494 417.819 4.99729 418.624 4.78271L418.906 4.98388C418.342 6.63353 417.678 8.87329 416.914 11.7032C416.163 14.5196 415.787 16.29 415.787 17.0142ZM414.902 15.7669H414.701C413.869 17.4166 412.904 18.2414 411.804 18.2414C411.174 18.2414 410.644 17.9665 410.215 17.4166C409.799 16.8533 409.591 16.1693 409.591 15.3646C409.591 14.5465 409.698 13.7887 409.913 13.0913C410.128 12.3939 410.429 11.7434 410.818 11.1399C411.207 10.5229 411.724 10.0267 412.367 9.65118C413.011 9.26223 413.668 9.06776 414.339 9.06776C415.626 9.06776 416.538 9.63106 417.075 10.7576L416.793 11.1198C416.163 10.0736 415.378 9.55059 414.439 9.55059C413.863 9.55059 413.333 9.75847 412.85 10.1742C412.381 10.59 412.012 11.1131 411.744 11.7434C411.194 13.0309 410.919 14.2447 410.919 15.3847C410.919 16.1358 411.04 16.6991 411.281 17.0746C411.536 17.4501 411.871 17.6379 412.287 17.6379C412.864 17.6379 413.454 17.1551 414.057 16.1894C414.661 15.2104 415.197 13.8155 415.667 12.0049L414.902 15.7669ZM424.901 9.06776C425.611 9.06776 426.141 9.24212 426.49 9.59082C426.852 9.92612 427.033 10.4156 427.033 11.0594C427.033 11.6898 426.785 12.2396 426.289 12.7091C425.444 13.5138 424.19 13.9161 422.527 13.9161C422.03 13.9161 421.601 13.8759 421.239 13.7954V13.4132C421.709 13.4802 422.098 13.5138 422.406 13.5138C423.519 13.5138 424.378 13.2321 424.981 12.6688C425.598 12.1055 425.906 11.4886 425.906 10.818C425.906 10.4559 425.806 10.1541 425.605 9.91271C425.417 9.67129 425.095 9.55059 424.639 9.55059C424.196 9.55059 423.74 9.75847 423.271 10.1742C422.815 10.59 422.453 11.1064 422.185 11.7233C421.648 13.0242 421.38 14.1508 421.38 15.1031C421.38 16.8734 421.916 17.7586 422.989 17.7586C424.317 17.7586 425.29 17.0344 425.906 15.5859L426.228 15.6664C425.906 16.4845 425.437 17.1215 424.82 17.5775C424.217 18.0201 423.533 18.2414 422.768 18.2414C422.004 18.2414 421.36 17.9598 420.837 17.3965C420.314 16.8332 420.052 16.0754 420.052 15.1232C420.052 14.1709 420.233 13.2522 420.595 12.3671C420.958 11.4685 421.521 10.6973 422.285 10.0535C423.05 9.39635 423.922 9.06776 424.901 9.06776ZM431.81 9.24882L432.092 9.45C431.448 10.9253 430.885 12.6219 430.402 14.5398H430.563L430.885 13.6546C431.515 11.9379 432.139 10.7442 432.756 10.0736C433.373 9.40306 433.909 9.06776 434.365 9.06776C434.821 9.06776 435.156 9.21529 435.371 9.51035C435.599 9.80541 435.713 10.1876 435.713 10.6571C435.713 11.1265 435.626 11.5355 435.451 11.8842C435.277 12.2329 435.022 12.4073 434.687 12.4073C434.365 12.4073 434.097 12.3 433.882 12.0854C434.016 11.9111 434.144 11.6562 434.265 11.3209C434.385 10.9856 434.446 10.6906 434.446 10.4358C434.446 10.0468 434.285 9.85235 433.963 9.85235C433.627 9.85235 433.212 10.1809 432.715 10.8381C431.629 12.2598 430.71 14.6471 429.959 18L428.551 18.1207L430.523 9.99318L429.235 10.0938L429.215 9.75176C430.14 9.63106 431.005 9.46341 431.81 9.24882ZM436.681 17.9396C436.479 17.7251 436.379 17.4702 436.379 17.1752C436.379 16.8801 436.479 16.632 436.681 16.4308C436.895 16.2162 437.15 16.1089 437.445 16.1089C437.74 16.1089 437.988 16.2162 438.189 16.4308C438.404 16.632 438.511 16.8801 438.511 17.1752C438.511 17.4702 438.404 17.7251 438.189 17.9396C437.988 18.1408 437.74 18.2414 437.445 18.2414C437.15 18.2414 436.895 18.1408 436.681 17.9396ZM444.434 9.55059C443.924 9.55059 443.488 9.69812 443.126 9.99318C442.764 10.2882 442.583 10.6638 442.583 11.1198C442.583 11.5758 442.77 11.9915 443.146 12.3671C443.522 12.7426 443.931 13.0578 444.373 13.3126C444.816 13.554 445.225 13.8759 445.6 14.2782C445.976 14.6806 446.164 15.1098 446.164 15.5658C446.164 16.4241 445.828 17.088 445.158 17.5574C444.501 18.0134 443.703 18.2414 442.764 18.2414C441.825 18.2414 441 18.0201 440.289 17.5775C440.517 17.1215 440.732 16.3302 440.933 15.2036L441.275 15.264C441.181 15.8139 441.134 16.2498 441.134 16.5716C441.134 16.8801 441.282 17.1685 441.577 17.4367C441.885 17.6915 442.321 17.8189 442.884 17.8189C443.461 17.8189 443.944 17.6446 444.333 17.2959C444.735 16.9472 444.936 16.4912 444.936 15.9279C444.936 15.5658 444.755 15.2171 444.393 14.8818C444.045 14.5331 443.656 14.2447 443.226 14.0167C442.811 13.7887 442.422 13.4668 442.06 13.0511C441.711 12.6353 441.537 12.1793 441.537 11.6831C441.537 10.9454 441.825 10.3285 442.402 9.83223C442.992 9.32259 443.763 9.06776 444.715 9.06776C445.453 9.06776 446.184 9.24882 446.908 9.61094C446.841 9.75847 446.727 10.0938 446.566 10.6168C446.418 11.1399 446.304 11.6361 446.224 12.1055L445.882 12.0452C445.962 11.616 446.003 11.2069 446.003 10.818C446.003 10.4156 445.869 10.1072 445.6 9.89259C445.346 9.66459 444.957 9.55059 444.434 9.55059ZM453.364 9.55059C452.814 9.55059 452.304 9.75847 451.835 10.1742C451.379 10.59 451.017 11.1064 450.749 11.7233C450.212 13.0242 449.944 14.1508 449.944 15.1031C449.944 16.8734 450.48 17.7586 451.553 17.7586C452.881 17.7586 453.853 17.0344 454.47 15.5859L454.792 15.6664C454.47 16.4845 454.001 17.1215 453.384 17.5775C452.78 18.0201 452.096 18.2414 451.332 18.2414C450.568 18.2414 449.924 17.9598 449.401 17.3965C448.878 16.8332 448.616 16.0754 448.616 15.1232C448.616 14.1709 448.797 13.2522 449.159 12.3671C449.521 11.4685 450.085 10.6973 450.849 10.0535C451.614 9.39635 452.485 9.06776 453.464 9.06776C454.135 9.06776 454.638 9.24212 454.973 9.59082C455.322 9.92612 455.496 10.3352 455.496 10.818C455.496 11.2874 455.409 11.7099 455.235 12.0854C455.074 12.4609 454.812 12.6487 454.45 12.6487C454.102 12.6487 453.84 12.5414 453.666 12.3268C454.055 11.7367 454.249 11.16 454.249 10.5967C454.249 9.89929 453.954 9.55059 453.364 9.55059ZM460.374 9.24882L460.656 9.45C460.012 10.9253 459.449 12.6219 458.966 14.5398H459.127L459.449 13.6546C460.079 11.9379 460.703 10.7442 461.32 10.0736C461.937 9.40306 462.473 9.06776 462.929 9.06776C463.385 9.06776 463.72 9.21529 463.935 9.51035C464.163 9.80541 464.277 10.1876 464.277 10.6571C464.277 11.1265 464.19 11.5355 464.015 11.8842C463.841 12.2329 463.586 12.4073 463.251 12.4073C462.929 12.4073 462.661 12.3 462.446 12.0854C462.58 11.9111 462.708 11.6562 462.828 11.3209C462.949 10.9856 463.01 10.6906 463.01 10.4358C463.01 10.0468 462.849 9.85235 462.527 9.85235C462.191 9.85235 461.776 10.1809 461.279 10.8381C460.193 12.2598 459.274 14.6471 458.523 18L457.115 18.1207L459.087 9.99318L457.799 10.0938L457.779 9.75176C458.704 9.63106 459.569 9.46341 460.374 9.24882ZM467.759 7.056C467.585 6.88165 467.498 6.66706 467.498 6.41223C467.498 6.15741 467.585 5.94282 467.759 5.76847C467.934 5.59412 468.148 5.50694 468.403 5.50694C468.658 5.50694 468.872 5.59412 469.047 5.76847C469.221 5.94282 469.308 6.15741 469.308 6.41223C469.308 6.66706 469.221 6.88165 469.047 7.056C468.872 7.23035 468.658 7.31753 468.403 7.31753C468.148 7.31753 467.934 7.23035 467.759 7.056ZM465.486 16.7326C465.486 16.0218 465.975 13.7753 466.954 9.99318L465.667 10.0938L465.647 9.75176C466.572 9.63106 467.437 9.46341 468.242 9.24882L468.524 9.45C468.054 10.8448 467.612 12.3402 467.196 13.9362C466.78 15.5322 466.572 16.5582 466.572 17.0142C466.572 17.4568 466.74 17.6781 467.075 17.6781C467.33 17.6781 467.605 17.5105 467.9 17.1752C468.195 16.8265 468.45 16.3369 468.664 15.7066L468.986 15.7871C468.41 17.4233 467.659 18.2414 466.733 18.2414C465.902 18.2414 465.486 17.7385 465.486 16.7326ZM474.224 9.24882L474.506 9.45C473.862 10.9253 473.299 12.6219 472.816 14.5398H472.977L473.299 13.6546C474.412 10.5967 475.686 9.06776 477.121 9.06776C477.698 9.06776 478.188 9.34941 478.59 9.91271C479.006 10.476 479.214 11.16 479.214 11.9647C479.214 12.7694 479.106 13.5205 478.892 14.2179C478.69 14.9019 478.395 15.5456 478.006 16.1492C477.618 16.7393 477.108 17.2221 476.478 17.5976C475.847 17.9732 475.15 18.1609 474.385 18.1609C473.218 18.1609 472.306 17.6446 471.649 16.6119L471.79 16.2699C472.434 17.2489 473.279 17.7385 474.325 17.7385C474.928 17.7385 475.465 17.5373 475.934 17.1349C476.417 16.7326 476.786 16.2296 477.041 15.6261C477.55 14.3922 477.805 13.1852 477.805 12.0049C477.805 11.3209 477.705 10.7912 477.504 10.4156C477.316 10.0267 477.068 9.83223 476.759 9.83223C476.129 9.83223 475.418 10.4425 474.627 11.6629C473.849 12.8834 473.145 14.7879 472.514 17.3764L471.307 22.3454L469.899 22.4661L472.937 9.99318L471.649 10.0938L471.629 9.75176C472.555 9.63106 473.42 9.46341 474.224 9.24882ZM481.358 10.0334L481.458 9.65118H485.924L485.824 10.0334H481.358ZM484.556 7.1767L484.838 7.37788C484.53 8.31671 484.114 9.792 483.591 11.8038C483.081 13.8155 482.773 15.1165 482.665 15.7066C482.558 16.2833 482.504 16.7192 482.504 17.0142C482.504 17.4568 482.672 17.6781 483.007 17.6781C483.262 17.6781 483.537 17.5105 483.832 17.1752C484.127 16.8265 484.382 16.3369 484.597 15.7066L484.919 15.7871C484.342 17.4233 483.591 18.2414 482.665 18.2414C481.834 18.2414 481.418 17.7385 481.418 16.7326C481.418 15.9011 481.914 13.5808 482.907 9.77188L481.458 9.65118C482.196 9.65118 482.793 9.47682 483.249 9.12812C483.705 8.766 484.141 8.11553 484.556 7.1767ZM485.047 19.9715C486.388 18.9522 487.454 17.4971 488.245 15.606C489.037 13.7149 489.432 11.8038 489.432 9.87247C489.432 7.92776 488.983 6.47929 488.084 5.52706L488.326 5.22529C489.198 5.74835 489.848 6.486 490.277 7.43823C490.706 8.37706 490.921 9.43659 490.921 10.6168C490.921 12.5347 490.391 14.4124 489.332 16.2498C488.286 18.0872 486.884 19.4284 485.127 20.2733L485.047 19.9715Z" fill="#6082FA"/>
<path opacity="0.86" d="M498.739 5.52706C497.345 6.55976 496.258 8.00823 495.48 9.87247C494.702 11.7233 494.314 13.6412 494.314 15.6261C494.314 17.5976 494.77 19.0461 495.682 19.9715L495.4 20.2733C494.555 19.7502 493.911 19.0126 493.469 18.0604C493.039 17.1081 492.825 16.0486 492.825 14.8818C492.825 12.9639 493.348 11.0929 494.394 9.26894C495.454 7.43153 496.855 6.08365 498.599 5.22529L498.739 5.52706ZM503.536 5.60753C504.314 5.25882 505.139 5.08447 506.011 5.08447C507.338 5.08447 508.385 5.48682 509.149 6.29153C509.927 7.08282 510.316 8.20271 510.316 9.65118C510.316 10.6302 510.155 11.6227 509.833 12.6286C509.511 13.6211 509.062 14.5398 508.485 15.3847C507.908 16.2296 507.157 16.9204 506.232 17.4568C505.307 17.9799 504.24 18.2414 503.033 18.2414C501.826 18.2414 500.834 17.8391 500.056 17.0344C499.291 16.2296 498.909 15.0628 498.909 13.5339C498.909 12.0049 499.325 10.4626 500.156 8.90682C501.001 7.35106 502.128 6.25129 503.536 5.60753ZM508.083 6.63353C507.546 5.94953 506.836 5.60753 505.95 5.60753C505.065 5.60753 504.247 5.89588 503.496 6.47259C502.745 7.03588 502.148 7.75341 501.706 8.62518C500.78 10.4224 500.317 12.1659 500.317 13.8558C500.317 15.0762 500.579 16.0285 501.102 16.7125C501.638 17.3831 502.349 17.7184 503.234 17.7184C504.133 17.7184 504.958 17.4367 505.709 16.8734C506.46 16.2967 507.064 15.5792 507.52 14.7208C508.445 12.9371 508.908 11.1935 508.908 9.49024C508.908 8.26976 508.633 7.31753 508.083 6.63353ZM515.083 9.24882L515.364 9.45C514.721 10.9253 514.157 12.6219 513.675 14.5398H513.836L514.157 13.6546C514.788 11.9379 515.411 10.7442 516.028 10.0736C516.645 9.40306 517.182 9.06776 517.638 9.06776C518.094 9.06776 518.429 9.21529 518.644 9.51035C518.872 9.80541 518.986 10.1876 518.986 10.6571C518.986 11.1265 518.898 11.5355 518.724 11.8842C518.55 12.2329 518.295 12.4073 517.96 12.4073C517.638 12.4073 517.37 12.3 517.155 12.0854C517.289 11.9111 517.416 11.6562 517.537 11.3209C517.658 10.9856 517.718 10.6906 517.718 10.4358C517.718 10.0468 517.557 9.85235 517.235 9.85235C516.9 9.85235 516.484 10.1809 515.988 10.8381C514.902 12.2598 513.983 14.6471 513.232 18L511.824 18.1207L513.795 9.99318L512.508 10.0938L512.488 9.75176C513.413 9.63106 514.278 9.46341 515.083 9.24882ZM525.787 17.0142C525.787 17.4568 525.955 17.6781 526.29 17.6781C526.545 17.6781 526.82 17.5105 527.115 17.1752C527.41 16.8265 527.665 16.3369 527.88 15.7066L528.201 15.7871C527.625 17.4233 526.874 18.2414 525.948 18.2414C525.117 18.2414 524.701 17.7184 524.701 16.6722C524.701 15.6127 525.579 11.8976 527.336 5.52706L526.049 5.62765L526.029 5.28565C526.954 5.16494 527.819 4.99729 528.624 4.78271L528.906 4.98388C528.342 6.63353 527.678 8.87329 526.914 11.7032C526.163 14.5196 525.787 16.29 525.787 17.0142ZM524.902 15.7669H524.701C523.869 17.4166 522.904 18.2414 521.804 18.2414C521.174 18.2414 520.644 17.9665 520.215 17.4166C519.799 16.8533 519.591 16.1693 519.591 15.3646C519.591 14.5465 519.698 13.7887 519.913 13.0913C520.128 12.3939 520.429 11.7434 520.818 11.1399C521.207 10.5229 521.724 10.0267 522.367 9.65118C523.011 9.26223 523.668 9.06776 524.339 9.06776C525.626 9.06776 526.538 9.63106 527.075 10.7576L526.793 11.1198C526.163 10.0736 525.378 9.55059 524.439 9.55059C523.863 9.55059 523.333 9.75847 522.85 10.1742C522.381 10.59 522.012 11.1131 521.744 11.7434C521.194 13.0309 520.919 14.2447 520.919 15.3847C520.919 16.1358 521.04 16.6991 521.281 17.0746C521.536 17.4501 521.871 17.6379 522.287 17.6379C522.864 17.6379 523.454 17.1551 524.057 16.1894C524.661 15.2104 525.197 13.8155 525.667 12.0049L524.902 15.7669ZM534.901 9.06776C535.611 9.06776 536.141 9.24212 536.49 9.59082C536.852 9.92612 537.033 10.4156 537.033 11.0594C537.033 11.6898 536.785 12.2396 536.289 12.7091C535.444 13.5138 534.19 13.9161 532.527 13.9161C532.03 13.9161 531.601 13.8759 531.239 13.7954V13.4132C531.709 13.4802 532.098 13.5138 532.406 13.5138C533.519 13.5138 534.378 13.2321 534.981 12.6688C535.598 12.1055 535.906 11.4886 535.906 10.818C535.906 10.4559 535.806 10.1541 535.605 9.91271C535.417 9.67129 535.095 9.55059 534.639 9.55059C534.196 9.55059 533.74 9.75847 533.271 10.1742C532.815 10.59 532.453 11.1064 532.185 11.7233C531.648 13.0242 531.38 14.1508 531.38 15.1031C531.38 16.8734 531.916 17.7586 532.989 17.7586C534.317 17.7586 535.29 17.0344 535.906 15.5859L536.228 15.6664C535.906 16.4845 535.437 17.1215 534.82 17.5775C534.217 18.0201 533.533 18.2414 532.768 18.2414C532.004 18.2414 531.36 17.9598 530.837 17.3965C530.314 16.8332 530.052 16.0754 530.052 15.1232C530.052 14.1709 530.233 13.2522 530.595 12.3671C530.958 11.4685 531.521 10.6973 532.285 10.0535C533.05 9.39635 533.922 9.06776 534.901 9.06776ZM541.81 9.24882L542.092 9.45C541.448 10.9253 540.885 12.6219 540.402 14.5398H540.563L540.885 13.6546C541.515 11.9379 542.139 10.7442 542.756 10.0736C543.373 9.40306 543.909 9.06776 544.365 9.06776C544.821 9.06776 545.156 9.21529 545.371 9.51035C545.599 9.80541 545.713 10.1876 545.713 10.6571C545.713 11.1265 545.626 11.5355 545.451 11.8842C545.277 12.2329 545.022 12.4073 544.687 12.4073C544.365 12.4073 544.097 12.3 543.882 12.0854C544.016 11.9111 544.144 11.6562 544.265 11.3209C544.385 10.9856 544.446 10.6906 544.446 10.4358C544.446 10.0468 544.285 9.85235 543.963 9.85235C543.627 9.85235 543.212 10.1809 542.715 10.8381C541.629 12.2598 540.71 14.6471 539.959 18L538.551 18.1207L540.523 9.99318L539.235 10.0938L539.215 9.75176C540.14 9.63106 541.005 9.46341 541.81 9.24882ZM546.681 17.9396C546.479 17.7251 546.379 17.4702 546.379 17.1752C546.379 16.8801 546.479 16.632 546.681 16.4308C546.895 16.2162 547.15 16.1089 547.445 16.1089C547.74 16.1089 547.988 16.2162 548.189 16.4308C548.404 16.632 548.511 16.8801 548.511 17.1752C548.511 17.4702 548.404 17.7251 548.189 17.9396C547.988 18.1408 547.74 18.2414 547.445 18.2414C547.15 18.2414 546.895 18.1408 546.681 17.9396ZM554.434 9.55059C553.924 9.55059 553.488 9.69812 553.126 9.99318C552.764 10.2882 552.583 10.6638 552.583 11.1198C552.583 11.5758 552.77 11.9915 553.146 12.3671C553.522 12.7426 553.931 13.0578 554.373 13.3126C554.816 13.554 555.225 13.8759 555.6 14.2782C555.976 14.6806 556.164 15.1098 556.164 15.5658C556.164 16.4241 555.828 17.088 555.158 17.5574C554.501 18.0134 553.703 18.2414 552.764 18.2414C551.825 18.2414 551 18.0201 550.289 17.5775C550.517 17.1215 550.732 16.3302 550.933 15.2036L551.275 15.264C551.181 15.8139 551.134 16.2498 551.134 16.5716C551.134 16.8801 551.282 17.1685 551.577 17.4367C551.885 17.6915 552.321 17.8189 552.884 17.8189C553.461 17.8189 553.944 17.6446 554.333 17.2959C554.735 16.9472 554.936 16.4912 554.936 15.9279C554.936 15.5658 554.755 15.2171 554.393 14.8818C554.045 14.5331 553.656 14.2447 553.226 14.0167C552.811 13.7887 552.422 13.4668 552.06 13.0511C551.711 12.6353 551.537 12.1793 551.537 11.6831C551.537 10.9454 551.825 10.3285 552.402 9.83223C552.992 9.32259 553.763 9.06776 554.715 9.06776C555.453 9.06776 556.184 9.24882 556.908 9.61094C556.841 9.75847 556.727 10.0938 556.566 10.6168C556.418 11.1399 556.304 11.6361 556.224 12.1055L555.882 12.0452C555.962 11.616 556.003 11.2069 556.003 10.818C556.003 10.4156 555.869 10.1072 555.6 9.89259C555.346 9.66459 554.957 9.55059 554.434 9.55059ZM563.364 9.55059C562.814 9.55059 562.304 9.75847 561.835 10.1742C561.379 10.59 561.017 11.1064 560.749 11.7233C560.212 13.0242 559.944 14.1508 559.944 15.1031C559.944 16.8734 560.48 17.7586 561.553 17.7586C562.881 17.7586 563.853 17.0344 564.47 15.5859L564.792 15.6664C564.47 16.4845 564.001 17.1215 563.384 17.5775C562.78 18.0201 562.096 18.2414 561.332 18.2414C560.568 18.2414 559.924 17.9598 559.401 17.3965C558.878 16.8332 558.616 16.0754 558.616 15.1232C558.616 14.1709 558.797 13.2522 559.159 12.3671C559.521 11.4685 560.085 10.6973 560.849 10.0535C561.614 9.39635 562.485 9.06776 563.464 9.06776C564.135 9.06776 564.638 9.24212 564.973 9.59082C565.322 9.92612 565.496 10.3352 565.496 10.818C565.496 11.2874 565.409 11.7099 565.235 12.0854C565.074 12.4609 564.812 12.6487 564.45 12.6487C564.102 12.6487 563.84 12.5414 563.666 12.3268C564.055 11.7367 564.249 11.16 564.249 10.5967C564.249 9.89929 563.954 9.55059 563.364 9.55059ZM570.374 9.24882L570.656 9.45C570.012 10.9253 569.449 12.6219 568.966 14.5398H569.127L569.449 13.6546C570.079 11.9379 570.703 10.7442 571.32 10.0736C571.937 9.40306 572.473 9.06776 572.929 9.06776C573.385 9.06776 573.72 9.21529 573.935 9.51035C574.163 9.80541 574.277 10.1876 574.277 10.6571C574.277 11.1265 574.19 11.5355 574.015 11.8842C573.841 12.2329 573.586 12.4073 573.251 12.4073C572.929 12.4073 572.661 12.3 572.446 12.0854C572.58 11.9111 572.708 11.6562 572.828 11.3209C572.949 10.9856 573.01 10.6906 573.01 10.4358C573.01 10.0468 572.849 9.85235 572.527 9.85235C572.191 9.85235 571.776 10.1809 571.279 10.8381C570.193 12.2598 569.274 14.6471 568.523 18L567.115 18.1207L569.087 9.99318L567.799 10.0938L567.779 9.75176C568.704 9.63106 569.569 9.46341 570.374 9.24882ZM577.759 7.056C577.585 6.88165 577.498 6.66706 577.498 6.41223C577.498 6.15741 577.585 5.94282 577.759 5.76847C577.934 5.59412 578.148 5.50694 578.403 5.50694C578.658 5.50694 578.872 5.59412 579.047 5.76847C579.221 5.94282 579.308 6.15741 579.308 6.41223C579.308 6.66706 579.221 6.88165 579.047 7.056C578.872 7.23035 578.658 7.31753 578.403 7.31753C578.148 7.31753 577.934 7.23035 577.759 7.056ZM575.486 16.7326C575.486 16.0218 575.975 13.7753 576.954 9.99318L575.667 10.0938L575.647 9.75176C576.572 9.63106 577.437 9.46341 578.242 9.24882L578.524 9.45C578.054 10.8448 577.612 12.3402 577.196 13.9362C576.78 15.5322 576.572 16.5582 576.572 17.0142C576.572 17.4568 576.74 17.6781 577.075 17.6781C577.33 17.6781 577.605 17.5105 577.9 17.1752C578.195 16.8265 578.45 16.3369 578.664 15.7066L578.986 15.7871C578.41 17.4233 577.659 18.2414 576.733 18.2414C575.902 18.2414 575.486 17.7385 575.486 16.7326ZM584.224 9.24882L584.506 9.45C583.862 10.9253 583.299 12.6219 582.816 14.5398H582.977L583.299 13.6546C584.412 10.5967 585.686 9.06776 587.121 9.06776C587.698 9.06776 588.188 9.34941 588.59 9.91271C589.006 10.476 589.214 11.16 589.214 11.9647C589.214 12.7694 589.106 13.5205 588.892 14.2179C588.69 14.9019 588.395 15.5456 588.006 16.1492C587.618 16.7393 587.108 17.2221 586.478 17.5976C585.847 17.9732 585.15 18.1609 584.385 18.1609C583.218 18.1609 582.306 17.6446 581.649 16.6119L581.79 16.2699C582.434 17.2489 583.279 17.7385 584.325 17.7385C584.928 17.7385 585.465 17.5373 585.934 17.1349C586.417 16.7326 586.786 16.2296 587.041 15.6261C587.55 14.3922 587.805 13.1852 587.805 12.0049C587.805 11.3209 587.705 10.7912 587.504 10.4156C587.316 10.0267 587.068 9.83223 586.759 9.83223C586.129 9.83223 585.418 10.4425 584.627 11.6629C583.849 12.8834 583.145 14.7879 582.514 17.3764L581.307 22.3454L579.899 22.4661L582.937 9.99318L581.649 10.0938L581.629 9.75176C582.555 9.63106 583.42 9.46341 584.224 9.24882ZM591.358 10.0334L591.458 9.65118H595.924L595.824 10.0334H591.358ZM594.556 7.1767L594.838 7.37788C594.53 8.31671 594.114 9.792 593.591 11.8038C593.081 13.8155 592.773 15.1165 592.665 15.7066C592.558 16.2833 592.504 16.7192 592.504 17.0142C592.504 17.4568 592.672 17.6781 593.007 17.6781C593.262 17.6781 593.537 17.5105 593.832 17.1752C594.127 16.8265 594.382 16.3369 594.597 15.7066L594.919 15.7871C594.342 17.4233 593.591 18.2414 592.665 18.2414C591.834 18.2414 591.418 17.7385 591.418 16.7326C591.418 15.9011 591.914 13.5808 592.907 9.77188L591.458 9.65118C592.196 9.65118 592.793 9.47682 593.249 9.12812C593.705 8.766 594.141 8.11553 594.556 7.1767ZM597.139 17.9396C596.938 17.7251 596.837 17.4702 596.837 17.1752C596.837 16.8801 596.938 16.632 597.139 16.4308C597.353 16.2162 597.608 16.1089 597.903 16.1089C598.198 16.1089 598.447 16.2162 598.648 16.4308C598.862 16.632 598.97 16.8801 598.97 17.1752C598.97 17.4702 598.862 17.7251 598.648 17.9396C598.447 18.1408 598.198 18.2414 597.903 18.2414C597.608 18.2414 597.353 18.1408 597.139 17.9396ZM609.197 9.45C608.728 10.8448 608.285 12.3402 607.869 13.9362C607.454 15.5322 607.246 16.5582 607.246 17.0142C607.246 17.4568 607.413 17.6781 607.749 17.6781C608.003 17.6781 608.278 17.5105 608.573 17.1752C608.868 16.8265 609.123 16.3369 609.338 15.7066L609.66 15.7871C609.083 17.4233 608.332 18.2414 607.407 18.2414C606.575 18.2414 606.159 17.7385 606.159 16.7326C606.159 16.5314 606.193 16.2095 606.26 15.7669H606.159C605.328 17.4166 604.362 18.2414 603.262 18.2414C602.632 18.2414 602.102 17.9665 601.673 17.4166C601.257 16.8533 601.049 16.1693 601.049 15.3646C601.049 14.5465 601.157 13.7887 601.371 13.0913C601.586 12.3939 601.888 11.7434 602.277 11.1399C602.666 10.5229 603.182 10.0267 603.826 9.65118C604.469 9.26223 605.174 9.06776 605.938 9.06776C606.93 9.06776 607.715 9.49023 608.292 10.3352L608.915 9.24882L609.197 9.45ZM603.745 17.6379C604.308 17.6379 604.878 17.202 605.455 16.3302C606.112 15.3244 606.723 13.6814 607.286 11.4014C607.407 10.8649 607.5 10.476 607.568 10.2346C607.098 9.77859 606.555 9.55059 605.938 9.55059C605.334 9.55059 604.791 9.75847 604.308 10.1742C603.839 10.59 603.47 11.1131 603.202 11.7434C602.652 13.0309 602.377 14.2447 602.377 15.3847C602.377 16.1358 602.498 16.6991 602.739 17.0746C602.994 17.4501 603.329 17.6379 603.745 17.6379ZM614.87 9.24882L615.152 9.45C614.508 10.9253 613.945 12.6219 613.462 14.5398H613.623L613.945 13.6546C614.575 11.9379 615.199 10.7442 615.816 10.0736C616.433 9.40306 616.969 9.06776 617.425 9.06776C617.881 9.06776 618.216 9.21529 618.431 9.51035C618.659 9.80541 618.773 10.1876 618.773 10.6571C618.773 11.1265 618.686 11.5355 618.512 11.8842C618.337 12.2329 618.082 12.4073 617.747 12.4073C617.425 12.4073 617.157 12.3 616.942 12.0854C617.076 11.9111 617.204 11.6562 617.325 11.3209C617.445 10.9856 617.506 10.6906 617.506 10.4358C617.506 10.0468 617.345 9.85235 617.023 9.85235C616.688 9.85235 616.272 10.1809 615.776 10.8381C614.689 12.2598 613.77 14.6471 613.019 18L611.611 18.1207L613.583 9.99318L612.295 10.0938L612.275 9.75176C613.2 9.63106 614.066 9.46341 614.87 9.24882ZM620.807 16.8332L624.006 17.5574C624.703 17.7184 625.199 17.9329 625.494 18.2012C625.789 18.4828 625.937 18.8651 625.937 19.3479C625.937 20.1258 625.508 20.8567 624.649 21.5407C623.804 22.2381 622.839 22.5868 621.752 22.5868C620.666 22.5868 619.781 22.3387 619.097 21.8425C618.426 21.3462 618.091 20.7561 618.091 20.0721C618.091 19.6027 618.252 19.1534 618.574 18.7242C618.882 18.2951 619.345 17.9329 619.962 17.6379L620.364 17.7586C619.962 17.9598 619.653 18.2615 619.439 18.6639C619.224 19.0796 619.117 19.5155 619.117 19.9715C619.117 20.7226 619.365 21.2792 619.861 21.6413C620.358 22.0168 620.995 22.2046 621.772 22.2046C622.564 22.2046 623.288 21.9766 623.945 21.5206C624.616 21.078 624.951 20.5415 624.951 19.9112C624.951 19.2808 624.542 18.8718 623.724 18.684L620.264 17.9195C619.875 17.8391 619.573 17.658 619.358 17.3764C619.144 17.0947 619.036 16.7527 619.036 16.3504C619.036 15.948 619.204 15.5792 619.539 15.2439C619.875 14.9086 620.337 14.7409 620.928 14.7409H622.959L622.899 15.0226H620.928C620.646 15.0226 620.418 15.1098 620.244 15.2841C620.083 15.4585 620.002 15.6664 620.002 15.9078C620.002 16.404 620.27 16.7125 620.807 16.8332ZM624.187 9.34941L624.166 9.06776C624.542 9.06776 624.857 8.98059 625.112 8.80623C625.367 8.61847 625.494 8.37706 625.494 8.082C625.494 7.78694 625.28 7.50529 624.85 7.23706C625.065 6.78106 625.32 6.55306 625.615 6.55306C625.923 6.55306 626.151 6.64023 626.299 6.81459C626.46 6.98894 626.54 7.21023 626.54 7.47847C626.54 7.94788 626.326 8.37706 625.897 8.766C625.481 9.15494 624.911 9.34941 624.187 9.34941ZM620.505 12.8298C620.505 11.8373 620.854 10.9655 621.551 10.2145C622.262 9.45 623.134 9.06776 624.166 9.06776C624.891 9.06776 625.461 9.26223 625.876 9.65118C626.306 10.0267 626.52 10.5632 626.52 11.2606C626.52 12.3872 626.158 13.2992 625.434 13.9966C624.71 14.6806 623.865 15.0226 622.899 15.0226C622.161 15.0226 621.578 14.8348 621.149 14.4593C620.72 14.0704 620.505 13.5272 620.505 12.8298ZM624.146 9.45C623.409 9.45 622.805 9.85906 622.336 10.6772C621.866 11.4819 621.632 12.1994 621.632 12.8298C621.632 13.4601 621.746 13.9228 621.974 14.2179C622.215 14.4995 622.53 14.6404 622.919 14.6404C623.509 14.6404 624.073 14.3051 624.609 13.6345C625.146 12.9639 625.414 12.1189 625.414 11.0996C625.414 10.59 625.293 10.1876 625.052 9.89259C624.824 9.59753 624.522 9.45 624.146 9.45ZM632.189 9.55059C631.679 9.55059 631.244 9.69812 630.881 9.99318C630.519 10.2882 630.338 10.6638 630.338 11.1198C630.338 11.5758 630.526 11.9915 630.902 12.3671C631.277 12.7426 631.686 13.0578 632.129 13.3126C632.571 13.554 632.98 13.8759 633.356 14.2782C633.731 14.6806 633.919 15.1098 633.919 15.5658C633.919 16.4241 633.584 17.088 632.913 17.5574C632.256 18.0134 631.458 18.2414 630.519 18.2414C629.58 18.2414 628.756 18.0201 628.045 17.5775C628.273 17.1215 628.487 16.3302 628.689 15.2036L629.031 15.264C628.937 15.8139 628.89 16.2498 628.89 16.5716C628.89 16.8801 629.037 17.1685 629.332 17.4367C629.641 17.6915 630.077 17.8189 630.64 17.8189C631.217 17.8189 631.7 17.6446 632.088 17.2959C632.491 16.9472 632.692 16.4912 632.692 15.9279C632.692 15.5658 632.511 15.2171 632.149 14.8818C631.8 14.5331 631.411 14.2447 630.982 14.0167C630.566 13.7887 630.177 13.4668 629.815 13.0511C629.466 12.6353 629.292 12.1793 629.292 11.6831C629.292 10.9454 629.58 10.3285 630.157 9.83223C630.747 9.32259 631.518 9.06776 632.471 9.06776C633.208 9.06776 633.939 9.24882 634.664 9.61094C634.596 9.75847 634.482 10.0938 634.322 10.6168C634.174 11.1399 634.06 11.6361 633.98 12.1055L633.638 12.0452C633.718 11.616 633.758 11.2069 633.758 10.818C633.758 10.4156 633.624 10.1072 633.356 9.89259C633.101 9.66459 632.712 9.55059 632.189 9.55059ZM634.641 19.9715C635.983 18.9522 637.049 17.4971 637.84 15.606C638.631 13.7149 639.027 11.8038 639.027 9.87247C639.027 7.92776 638.578 6.47929 637.679 5.52706L637.921 5.22529C638.792 5.74835 639.443 6.486 639.872 7.43823C640.301 8.37706 640.516 9.43659 640.516 10.6168C640.516 12.5347 639.986 14.4124 638.927 16.2498C637.88 18.0872 636.479 19.4284 634.722 20.2733L634.641 19.9715ZM640.545 19.9715C641.886 18.9522 642.952 17.4971 643.743 15.606C644.535 13.7149 644.93 11.8038 644.93 9.87247C644.93 7.92776 644.481 6.47929 643.583 5.52706L643.824 5.22529C644.696 5.74835 645.346 6.486 645.775 7.43823C646.205 8.37706 646.419 9.43659 646.419 10.6168C646.419 12.5347 645.889 14.4124 644.83 16.2498C643.784 18.0872 642.382 19.4284 640.625 20.2733L640.545 19.9715Z" fill="#6082FA"/>
</svg>
