<svg width="437" height="38" viewBox="0 0 437 38" fill="none" xmlns="http://www.w3.org/2000/svg">
<path opacity="0.86" d="M12.6339 11.9696L10.2198 23.4367C10.2198 23.5708 10.2935 23.6379 10.4411 23.6379H11.3262L11.2659 24H7.56424L7.62459 23.6379H8.55C8.72435 23.6379 8.83165 23.5373 8.87188 23.3361L10.0186 17.9446H3.98329C3.23224 21.4987 2.85671 23.3361 2.85671 23.4568C2.85671 23.5775 2.93047 23.6379 3.078 23.6379H3.96318L3.90282 24H0.201176L0.261529 23.6379H1.18694C1.36129 23.6379 1.46859 23.5373 1.50882 23.3361C3.11824 15.7182 3.92294 11.8758 3.92294 11.8087C3.92294 11.7282 3.84918 11.688 3.70165 11.688H2.81647L2.87682 11.3259H6.57847L6.51812 11.688H5.61282C5.43847 11.688 5.32447 11.7819 5.27082 11.9696L4.104 17.3813H10.1192C10.8971 13.7199 11.286 11.8556 11.286 11.7886C11.286 11.7215 11.2122 11.688 11.0647 11.688H10.1795L10.2399 11.3259H13.9415L13.8812 11.688H12.9759C12.8015 11.688 12.6875 11.7819 12.6339 11.9696ZM14.7432 21.0829C14.7432 19.7015 15.1456 18.3805 15.9503 17.1198C16.3392 16.5162 16.8489 16.0267 17.4792 15.6512C18.1096 15.2622 18.8271 15.0678 19.6318 15.0678C20.45 15.0678 21.1138 15.3427 21.6235 15.8926C22.1331 16.4425 22.388 17.1935 22.388 18.1458C22.388 19.098 22.2136 20.0234 21.8649 20.922C21.5162 21.8206 20.9663 22.5985 20.2152 23.2556C19.4642 23.9128 18.6192 24.2414 17.6804 24.2414C16.7416 24.2414 16.0174 23.9665 15.5077 23.4166C14.9981 22.8667 14.7432 22.0888 14.7432 21.0829ZM19.4709 15.5104C18.7467 15.5104 18.1029 15.8725 17.5396 16.5967C16.9897 17.3209 16.5941 18.1122 16.3527 18.9706C16.1247 19.8289 16.0107 20.6336 16.0107 21.3847C16.0107 22.1224 16.1582 22.7125 16.4532 23.1551C16.7617 23.5842 17.1775 23.7988 17.7005 23.7988C18.237 23.7988 18.7332 23.5842 19.1892 23.1551C19.6587 22.7259 20.0275 22.1961 20.2957 21.5658C20.8456 20.2782 21.1205 19.1651 21.1205 18.2262C21.1205 17.274 20.973 16.5833 20.678 16.1541C20.3829 15.7249 19.9805 15.5104 19.4709 15.5104ZM25.8876 23.0142C25.8876 23.4568 26.0553 23.6781 26.3906 23.6781C26.6454 23.6781 26.9203 23.5105 27.2154 23.1752C27.5105 22.8265 27.7653 22.3369 27.9799 21.7066L28.3018 21.7871C27.7251 23.4233 26.974 24.2414 26.0486 24.2414C25.2171 24.2414 24.8013 23.7184 24.8013 22.6722C24.8013 21.6127 25.6798 17.8976 27.4367 11.5271L26.1492 11.6276L26.1291 11.2856C27.0545 11.1649 27.9195 10.9973 28.7242 10.7827L29.0059 10.9839C28.4426 12.6335 27.7787 14.8733 27.0142 17.7032C26.2632 20.5196 25.8876 22.29 25.8876 23.0142ZM36.3413 23.0142C36.3413 23.4568 36.5089 23.6781 36.8442 23.6781C37.099 23.6781 37.374 23.5105 37.669 23.1752C37.9641 22.8265 38.2189 22.3369 38.4335 21.7066L38.7554 21.7871C38.1787 23.4233 37.4276 24.2414 36.5022 24.2414C35.6707 24.2414 35.2549 23.7184 35.2549 22.6722C35.2549 21.6127 36.1334 17.8976 37.8903 11.5271L36.6028 11.6276L36.5827 11.2856C37.5081 11.1649 38.3732 10.9973 39.1779 10.7827L39.4595 10.9839C38.8962 12.6335 38.2323 14.8733 37.4679 17.7032C36.7168 20.5196 36.3413 22.29 36.3413 23.0142ZM35.4561 21.7669H35.2549C34.4234 23.4166 33.4577 24.2414 32.358 24.2414C31.7276 24.2414 31.1979 23.9665 30.7687 23.4166C30.3529 22.8533 30.145 22.1693 30.145 21.3646C30.145 20.5465 30.2523 19.7887 30.4669 19.0913C30.6815 18.3939 30.9833 17.7434 31.3722 17.1399C31.7612 16.5229 32.2775 16.0267 32.9213 15.6512C33.565 15.2622 34.2222 15.0678 34.8928 15.0678C36.1803 15.0678 37.0923 15.6311 37.6288 16.7576L37.3472 17.1198C36.7168 16.0736 35.9322 15.5506 34.9934 15.5506C34.4167 15.5506 33.8869 15.7585 33.4041 16.1742C32.9347 16.59 32.5659 17.1131 32.2976 17.7434C31.7477 19.0309 31.4728 20.2447 31.4728 21.3847C31.4728 22.1358 31.5935 22.6991 31.8349 23.0746C32.0897 23.4501 32.425 23.6379 32.8408 23.6379C33.4175 23.6379 34.0076 23.1551 34.6112 22.1894C35.2147 21.2104 35.7512 19.8155 36.2206 18.0049L35.4561 21.7669ZM47.4261 11.7886H45.1126L42.6381 23.5373H44.9717C45.8301 23.5373 46.6214 23.2691 47.3456 22.7326C48.0699 22.1961 48.6533 21.5188 49.0959 20.7007C50.0079 18.9974 50.4639 17.3008 50.4639 15.6109C50.4639 14.4039 50.1822 13.4651 49.6189 12.7945C49.069 12.1239 48.3381 11.7886 47.4261 11.7886ZM42.6783 11.3259H47.5468C48.888 11.3259 49.9475 11.7215 50.7254 12.5128C51.5033 13.2907 51.8922 14.3838 51.8922 15.792C51.8922 16.7442 51.7246 17.7032 51.3893 18.6688C51.0674 19.6211 50.6181 20.4995 50.0414 21.3042C49.4647 22.0955 48.7203 22.746 47.8083 23.2556C46.9097 23.7519 45.9307 24 44.8712 24H40.0027L40.063 23.6379H40.9884C41.1628 23.6379 41.2701 23.5373 41.3103 23.3361C42.9197 15.7182 43.7244 11.8758 43.7244 11.8087C43.7244 11.7282 43.6507 11.688 43.5032 11.688H42.618L42.6783 11.3259ZM58.1554 15.0678C58.8662 15.0678 59.396 15.2421 59.7447 15.5908C60.1068 15.9261 60.2879 16.4156 60.2879 17.0594C60.2879 17.6898 60.0398 18.2396 59.5435 18.7091C58.6986 19.5138 57.4446 19.9161 55.7815 19.9161C55.2853 19.9161 54.8561 19.8759 54.494 19.7954V19.4132C54.9634 19.4802 55.3523 19.5138 55.6608 19.5138C56.774 19.5138 57.6323 19.2321 58.2359 18.6688C58.8528 18.1055 59.1613 17.4886 59.1613 16.818C59.1613 16.4559 59.0607 16.1541 58.8595 15.9127C58.6718 15.6713 58.3499 15.5506 57.8939 15.5506C57.4513 15.5506 56.9953 15.7585 56.5259 16.1742C56.0699 16.59 55.7078 17.1064 55.4395 17.7233C54.9031 19.0242 54.6348 20.1508 54.6348 21.1031C54.6348 22.8734 55.1713 23.7586 56.2442 23.7586C57.572 23.7586 58.5443 23.0344 59.1613 21.5859L59.4832 21.6664C59.1613 22.4845 58.6919 23.1215 58.0749 23.5775C57.4714 24.0201 56.7874 24.2414 56.0229 24.2414C55.2585 24.2414 54.6147 23.9598 54.0916 23.3965C53.5686 22.8332 53.3071 22.0754 53.3071 21.1232C53.3071 20.1709 53.4881 19.2522 53.8502 18.3671C54.2123 17.4685 54.7756 16.6973 55.5401 16.0535C56.3046 15.3964 57.1763 15.0678 58.1554 15.0678ZM65.0851 15.2488L65.3668 15.45C64.723 16.9253 64.1597 18.6219 63.6769 20.5398H63.8379L64.1597 19.6546C65.2729 16.5967 66.547 15.0678 67.9821 15.0678C68.5588 15.0678 69.0483 15.3494 69.4507 15.9127C69.8664 16.476 70.0743 17.16 70.0743 17.9647C70.0743 18.7694 69.967 19.5205 69.7524 20.2179C69.5513 20.9019 69.2562 21.5456 68.8673 22.1492C68.4783 22.7393 67.9687 23.2221 67.3383 23.5976C66.708 23.9732 66.0106 24.1609 65.2461 24.1609C64.0793 24.1609 63.1673 23.6446 62.5101 22.6119L62.6509 22.2699C63.2947 23.2489 64.1396 23.7385 65.1857 23.7385C65.7893 23.7385 66.3257 23.5373 66.7951 23.1349C67.278 22.7326 67.6468 22.2296 67.9016 21.6261C68.4113 20.3922 68.6661 19.1852 68.6661 18.0049C68.6661 17.3209 68.5655 16.7912 68.3643 16.4156C68.1766 16.0267 67.9284 15.8322 67.62 15.8322C66.9896 15.8322 66.2788 16.4425 65.4875 17.6629C64.7096 18.8834 64.0055 20.7879 63.3751 23.3764L62.1681 28.3454L60.7599 28.4661L63.7976 15.9932L62.5101 16.0938L62.49 15.7518C63.4154 15.6311 64.2804 15.4634 65.0851 15.2488ZM71.6754 21.0829C71.6754 19.7015 72.0778 18.3805 72.8825 17.1198C73.2714 16.5162 73.7811 16.0267 74.4114 15.6512C75.0418 15.2622 75.7593 15.0678 76.564 15.0678C77.3821 15.0678 78.046 15.3427 78.5556 15.8926C79.0653 16.4425 79.3201 17.1935 79.3201 18.1458C79.3201 19.098 79.1458 20.0234 78.7971 20.922C78.4483 21.8206 77.8985 22.5985 77.1474 23.2556C76.3963 23.9128 75.5514 24.2414 74.6126 24.2414C73.6738 24.2414 72.9495 23.9665 72.4399 23.4166C71.9302 22.8667 71.6754 22.0888 71.6754 21.0829ZM76.4031 15.5104C75.6788 15.5104 75.0351 15.8725 74.4718 16.5967C73.9219 17.3209 73.5262 18.1122 73.2848 18.9706C73.0568 19.8289 72.9428 20.6336 72.9428 21.3847C72.9428 22.1224 73.0903 22.7125 73.3854 23.1551C73.6939 23.5842 74.1096 23.7988 74.6327 23.7988C75.1692 23.7988 75.6654 23.5842 76.1214 23.1551C76.5908 22.7259 76.9596 22.1961 77.2279 21.5658C77.7778 20.2782 78.0527 19.1651 78.0527 18.2262C78.0527 17.274 77.9052 16.5833 77.6101 16.1541C77.3151 15.7249 76.9127 15.5104 76.4031 15.5104ZM85.1736 15.5506C84.6639 15.5506 84.228 15.6981 83.8659 15.9932C83.5038 16.2882 83.3227 16.6638 83.3227 17.1198C83.3227 17.5758 83.5105 17.9915 83.886 18.3671C84.2616 18.7426 84.6706 19.0578 85.1132 19.3126C85.5558 19.554 85.9649 19.8759 86.3404 20.2782C86.7159 20.6806 86.9037 21.1098 86.9037 21.5658C86.9037 22.4241 86.5684 23.088 85.8978 23.5574C85.2406 24.0134 84.4426 24.2414 83.5038 24.2414C82.565 24.2414 81.7401 24.0201 81.0293 23.5775C81.2573 23.1215 81.4719 22.3302 81.6731 21.2036L82.0151 21.264C81.9212 21.8139 81.8743 22.2498 81.8743 22.5716C81.8743 22.8801 82.0218 23.1685 82.3169 23.4367C82.6253 23.6915 83.0612 23.8189 83.6245 23.8189C84.2012 23.8189 84.684 23.6446 85.073 23.2959C85.4753 22.9472 85.6765 22.4912 85.6765 21.9279C85.6765 21.5658 85.4954 21.2171 85.1333 20.8818C84.7846 20.5331 84.3957 20.2447 83.9665 20.0167C83.5507 19.7887 83.1618 19.4668 82.7997 19.0511C82.451 18.6353 82.2766 18.1793 82.2766 17.6831C82.2766 16.9454 82.565 16.3285 83.1417 15.8322C83.7318 15.3226 84.503 15.0678 85.4552 15.0678C86.1929 15.0678 86.9238 15.2488 87.648 15.6109C87.581 15.7585 87.467 16.0938 87.306 16.6168C87.1585 17.1399 87.0445 17.6361 86.964 18.1055L86.622 18.0452C86.7025 17.616 86.7427 17.2069 86.7427 16.818C86.7427 16.4156 86.6086 16.1072 86.3404 15.8926C86.0856 15.6646 85.6966 15.5506 85.1736 15.5506ZM92.233 13.056C92.0586 12.8816 91.9714 12.6671 91.9714 12.4122C91.9714 12.1574 92.0586 11.9428 92.233 11.7685C92.4073 11.5941 92.6219 11.5069 92.8767 11.5069C93.1316 11.5069 93.3461 11.5941 93.5205 11.7685C93.6948 11.9428 93.782 12.1574 93.782 12.4122C93.782 12.6671 93.6948 12.8816 93.5205 13.056C93.3461 13.2304 93.1316 13.3175 92.8767 13.3175C92.6219 13.3175 92.4073 13.2304 92.233 13.056ZM89.9597 22.7326C89.9597 22.0218 90.4492 19.7753 91.4283 15.9932L90.1407 16.0938L90.1206 15.7518C91.046 15.6311 91.9111 15.4634 92.7158 15.2488L92.9974 15.45C92.528 16.8448 92.0854 18.3402 91.6697 19.9362C91.2539 21.5322 91.046 22.5582 91.046 23.0142C91.046 23.4568 91.2137 23.6781 91.549 23.6781C91.8038 23.6781 92.0787 23.5105 92.3738 23.1752C92.6688 22.8265 92.9237 22.3369 93.1383 21.7066L93.4601 21.7871C92.8834 23.4233 92.1324 24.2414 91.207 24.2414C90.3754 24.2414 89.9597 23.7385 89.9597 22.7326ZM95.8615 16.0334L95.9621 15.6512H100.428L100.328 16.0334H95.8615ZM99.0602 13.1767L99.3419 13.3779C99.0334 14.3167 98.6176 15.792 98.0946 17.8038C97.5849 19.8155 97.2765 21.1165 97.1692 21.7066C97.0619 22.2833 97.0082 22.7192 97.0082 23.0142C97.0082 23.4568 97.1759 23.6781 97.5112 23.6781C97.766 23.6781 98.0409 23.5105 98.336 23.1752C98.6311 22.8265 98.8859 22.3369 99.1005 21.7066L99.4224 21.7871C98.8456 23.4233 98.0946 24.2414 97.1692 24.2414C96.3376 24.2414 95.9219 23.7385 95.9219 22.7326C95.9219 21.9011 96.4181 19.5808 97.4106 15.7719L95.9621 15.6512C96.6998 15.6512 97.2966 15.4768 97.7526 15.1281C98.2086 14.766 98.6445 14.1155 99.0602 13.1767ZM114.699 18.87H107.195L107.416 17.8038H114.92L114.699 18.87ZM113.975 22.29H106.471L106.692 21.2238H114.196L113.975 22.29ZM129.121 24L127.693 24.1207L128.417 21.3646C128.497 21.0561 128.618 20.6001 128.779 19.9966C128.953 19.3931 129.081 18.9304 129.161 18.6085C129.389 17.7233 129.503 17.1265 129.503 16.818C129.503 16.5095 129.423 16.2547 129.262 16.0535C129.114 15.8389 128.886 15.7316 128.578 15.7316C127.907 15.7316 127.176 16.4089 126.385 17.7635C125.594 19.1181 124.87 21.1969 124.212 24L122.804 24.1207L124.776 15.9932L123.488 16.0938L123.468 15.7518C124.393 15.6311 125.258 15.4634 126.063 15.2488L126.345 15.45C125.701 16.9253 125.138 18.6219 124.655 20.5398H124.816L125.138 19.6546C125.768 17.9379 126.439 16.7442 127.15 16.0736C127.86 15.4031 128.524 15.0678 129.141 15.0678C130.08 15.0678 130.549 15.5975 130.549 16.6571C130.549 17.274 130.355 18.1458 129.966 19.2724L129.544 20.5398H129.725L130.046 19.6546C130.771 17.6294 131.555 16.3151 132.4 15.7115C132.803 15.4433 133.131 15.2689 133.386 15.1885C133.654 15.108 133.969 15.0678 134.332 15.0678C134.694 15.0678 134.995 15.2287 135.237 15.5506C135.478 15.8725 135.599 16.3218 135.599 16.8985C135.599 17.4752 135.27 18.5347 134.613 20.0771C133.969 21.6194 133.648 22.6052 133.648 23.0344C133.648 23.4635 133.815 23.6781 134.15 23.6781C134.405 23.6781 134.68 23.5105 134.975 23.1752C135.27 22.8265 135.525 22.3369 135.74 21.7066L136.062 21.7871C135.485 23.4233 134.734 24.2414 133.808 24.2414C132.977 24.2414 132.561 23.7854 132.561 22.8734C132.561 22.4845 132.863 21.5188 133.466 19.9765C134.083 18.4341 134.392 17.3813 134.392 16.818C134.392 16.0938 134.157 15.7316 133.688 15.7316C133.017 15.7316 132.293 16.2748 131.515 17.3612C130.616 18.6621 129.818 20.8751 129.121 24ZM146.067 15.45C145.597 16.8448 145.155 18.3402 144.739 19.9362C144.323 21.5322 144.115 22.5582 144.115 23.0142C144.115 23.4568 144.283 23.6781 144.618 23.6781C144.873 23.6781 145.148 23.5105 145.443 23.1752C145.738 22.8265 145.993 22.3369 146.208 21.7066L146.529 21.7871C145.953 23.4233 145.202 24.2414 144.276 24.2414C143.445 24.2414 143.029 23.7385 143.029 22.7326C143.029 22.5314 143.062 22.2095 143.13 21.7669H143.029C142.197 23.4166 141.232 24.2414 140.132 24.2414C139.502 24.2414 138.972 23.9665 138.543 23.4166C138.127 22.8533 137.919 22.1693 137.919 21.3646C137.919 20.5465 138.026 19.7887 138.241 19.0913C138.456 18.3939 138.757 17.7434 139.146 17.1399C139.535 16.5229 140.052 16.0267 140.695 15.6512C141.339 15.2622 142.043 15.0678 142.808 15.0678C143.8 15.0678 144.585 15.4902 145.161 16.3352L145.785 15.2488L146.067 15.45ZM140.615 23.6379C141.178 23.6379 141.748 23.202 142.325 22.3302C142.982 21.3244 143.592 19.6814 144.156 17.4014C144.276 16.8649 144.37 16.476 144.437 16.2346C143.968 15.7786 143.425 15.5506 142.808 15.5506C142.204 15.5506 141.661 15.7585 141.178 16.1742C140.709 16.59 140.34 17.1131 140.072 17.7434C139.522 19.0309 139.247 20.2447 139.247 21.3847C139.247 22.1358 139.368 22.6991 139.609 23.0746C139.864 23.4501 140.199 23.6379 140.615 23.6379ZM150.855 15.0678C151.391 15.0678 151.827 15.3628 152.162 15.9529C152.498 16.5431 152.726 17.2606 152.846 18.1055C152.98 18.9505 153.094 19.7954 153.188 20.6404C153.416 22.6655 153.792 23.6781 154.315 23.6781C154.57 23.6781 154.845 23.5105 155.14 23.1752C155.435 22.8265 155.69 22.3369 155.904 21.7066L156.226 21.7871C155.649 23.4233 154.898 24.2414 153.973 24.2414C153.436 24.2414 153.001 23.9464 152.665 23.3562C152.33 22.7661 152.095 22.0486 151.961 21.2036C151.84 20.3587 151.733 19.5138 151.639 18.6688C151.411 16.6436 151.036 15.6311 150.513 15.6311C150.258 15.6311 149.983 15.8054 149.688 16.1541C149.393 16.4894 149.138 16.9722 148.923 17.6026L148.602 17.5221C149.178 15.8859 149.929 15.0678 150.855 15.0678ZM151.237 20.922L151.981 19.6345L152.484 19.5942L151.519 21.2841C150.405 23.2556 149.426 24.2414 148.581 24.2414C148.179 24.2414 147.978 23.8793 147.978 23.1551C149.359 23.0344 150.446 22.29 151.237 20.922ZM153.39 18.3872L152.645 19.6747L152.142 19.7149L153.108 18.0251C154.221 16.0535 155.2 15.0678 156.045 15.0678C156.447 15.0678 156.649 15.4299 156.649 16.1541C155.267 16.2748 154.181 17.0192 153.39 18.3872ZM169.422 11.5271C168.027 12.5598 166.941 14.0082 166.163 15.8725C165.385 17.7233 164.996 19.6412 164.996 21.6261C164.996 23.5976 165.452 25.0461 166.364 25.9715L166.082 26.2733C165.238 25.7502 164.594 25.0126 164.151 24.0604C163.722 23.1081 163.507 22.0486 163.507 20.8818C163.507 18.9639 164.03 17.0929 165.077 15.2689C166.136 13.4315 167.538 12.0836 169.281 11.2253L169.422 11.5271Z" fill="#6082FA"/>
<path opacity="0.86" d="M172.152 36.7729V31.9376C172.152 31.815 172.091 31.7537 171.968 31.7537H171.351V31.5172H171.995C172.52 31.5172 172.888 31.4909 173.098 31.4383V36.7992C173.098 36.9043 173.16 36.9569 173.282 36.9569H173.9V37.1934H171.351V36.9569H171.968C172.091 36.9569 172.152 36.8955 172.152 36.7729ZM172.179 30.0719C172.065 29.9492 172.008 29.8003 172.008 29.6251C172.008 29.4499 172.065 29.3054 172.179 29.1915C172.301 29.0689 172.45 29.0076 172.625 29.0076C172.8 29.0076 172.945 29.0689 173.059 29.1915C173.182 29.3054 173.243 29.4499 173.243 29.6251C173.243 29.8003 173.182 29.9492 173.059 30.0719C172.945 30.1857 172.8 30.2427 172.625 30.2427C172.45 30.2427 172.301 30.1857 172.179 30.0719ZM180.621 33.8428H175.471V33.1465H180.621V33.8428ZM180.621 36.0765H175.471V35.3801H180.621V36.0765ZM182.766 37.1934V36.9437H184.303C184.408 36.9437 184.47 36.8912 184.487 36.786V30.742C184.487 30.523 184.356 30.4135 184.093 30.4135L182.635 30.4923L182.608 30.177L183.804 30.0062C184.557 29.8923 185.153 29.7521 185.591 29.5857C185.503 29.9186 185.46 30.4179 185.46 31.0836V36.7598C185.46 36.8824 185.525 36.9437 185.657 36.9437H186.892V37.1934H182.766Z" fill="#6082FA"/>
<path opacity="0.86" d="M180.165 -0.607663H180.599V4.83201H181.702V5.23933H180.599V6.59268C180.599 6.6978 180.664 6.75035 180.796 6.75035H181.702V7H178.536V6.75035H179.443C179.565 6.75035 179.626 6.68904 179.626 6.5664V5.23933H176L180.165 -0.607663ZM176.749 4.83201H179.626V0.798244L176.749 4.83201Z" fill="#6082FA"/>
<path opacity="0.86" d="M186.132 21.035L185.482 25.4595H172.837L179.38 18.2042L172.963 10.5924H184.832L185.23 13.9055H184.811C184.503 12.871 184.098 12.207 183.595 11.9134C183.105 11.6059 182.518 11.4521 181.833 11.4521H175.752L181.099 17.7009L175.438 23.8449H182.903C183.615 23.8449 184.182 23.6561 184.601 23.2787C185.02 22.9012 185.377 22.1533 185.67 21.035H186.132Z" fill="#6082FA"/>
<path opacity="0.86" d="M194.633 11.6075C195.411 11.2588 196.236 11.0845 197.107 11.0845C198.435 11.0845 199.481 11.4868 200.246 12.2915C201.024 13.0828 201.413 14.2027 201.413 15.6512C201.413 16.6302 201.252 17.6227 200.93 18.6286C200.608 19.6211 200.159 20.5398 199.582 21.3847C199.005 22.2296 198.254 22.9204 197.329 23.4568C196.403 23.9799 195.337 24.2414 194.13 24.2414C192.923 24.2414 191.93 23.8391 191.153 23.0344C190.388 22.2296 190.006 21.0628 190.006 19.5339C190.006 18.0049 190.422 16.4626 191.253 14.9068C192.098 13.3511 193.225 12.2513 194.633 11.6075ZM199.18 12.6335C198.643 11.9495 197.932 11.6075 197.047 11.6075C196.162 11.6075 195.344 11.8959 194.593 12.4726C193.842 13.0359 193.245 13.7534 192.802 14.6252C191.877 16.4224 191.414 18.1659 191.414 19.8558C191.414 21.0762 191.676 22.0285 192.199 22.7125C192.735 23.3831 193.446 23.7184 194.331 23.7184C195.23 23.7184 196.055 23.4367 196.806 22.8734C197.557 22.2967 198.16 21.5792 198.616 20.7208C199.542 18.9371 200.004 17.1935 200.004 15.4902C200.004 14.2698 199.729 13.3175 199.18 12.6335ZM203.061 16.0334L203.162 15.6512H208.232L208.131 16.0334H203.061ZM206.481 14.5246L204.59 23.3562C204.201 25.1266 203.725 26.4409 203.162 27.2993C202.599 28.1576 201.915 28.5868 201.11 28.5868C200.6 28.5868 200.205 28.4326 199.923 28.1241C199.641 27.8156 199.5 27.4669 199.5 27.078C199.5 26.7025 199.581 26.3605 199.742 26.052C199.889 25.7569 200.131 25.6094 200.466 25.6094C200.801 25.6094 201.043 25.6966 201.19 25.8709C201.016 26.0051 200.875 26.2062 200.768 26.4745C200.647 26.7427 200.587 27.0042 200.587 27.2591C200.587 27.8358 200.828 28.1241 201.311 28.1241C201.848 28.1241 202.257 27.7084 202.538 26.8768C202.82 26.0453 203.209 24.3755 203.705 21.8675L204.872 15.9127C205.154 14.4911 205.65 13.2706 206.361 12.2513C207.071 11.232 207.896 10.7224 208.835 10.7224C209.506 10.7224 210.009 10.8766 210.344 11.1851C210.693 11.4935 210.867 11.8556 210.867 12.2714C210.867 12.6872 210.78 13.0627 210.605 13.398C210.444 13.7333 210.183 13.9009 209.821 13.9009C209.459 13.9009 209.197 13.8071 209.036 13.6193C209.425 13.1231 209.62 12.6201 209.62 12.1105C209.62 11.4935 209.325 11.1851 208.734 11.1851C208.158 11.1851 207.695 11.4801 207.346 12.0702C206.998 12.6469 206.709 13.4651 206.481 14.5246ZM209.299 16.0334L209.399 15.6512H214.469L214.368 16.0334H209.299ZM212.719 14.5246L210.827 23.3562C210.439 25.1266 209.962 26.4409 209.399 27.2993C208.836 28.1576 208.152 28.5868 207.347 28.5868C206.837 28.5868 206.442 28.4326 206.16 28.1241C205.879 27.8156 205.738 27.4669 205.738 27.078C205.738 26.7025 205.818 26.3605 205.979 26.052C206.127 25.7569 206.368 25.6094 206.703 25.6094C207.039 25.6094 207.28 25.6966 207.428 25.8709C207.253 26.0051 207.112 26.2062 207.005 26.4745C206.884 26.7427 206.824 27.0042 206.824 27.2591C206.824 27.8358 207.065 28.1241 207.548 28.1241C208.085 28.1241 208.494 27.7084 208.775 26.8768C209.057 26.0453 209.446 24.3755 209.942 21.8675L211.109 15.9127C211.391 14.4911 211.887 13.2706 212.598 12.2513C213.309 11.232 214.133 10.7224 215.072 10.7224C215.743 10.7224 216.246 10.8766 216.581 11.1851C216.93 11.4935 217.104 11.8556 217.104 12.2714C217.104 12.6872 217.017 13.0627 216.843 13.398C216.682 13.7333 216.42 13.9009 216.058 13.9009C215.696 13.9009 215.434 13.8071 215.273 13.6193C215.662 13.1231 215.857 12.6201 215.857 12.1105C215.857 11.4935 215.562 11.1851 214.972 11.1851C214.395 11.1851 213.932 11.4801 213.584 12.0702C213.235 12.6469 212.947 13.4651 212.719 14.5246ZM220.143 15.0678C220.854 15.0678 221.383 15.2421 221.732 15.5908C222.094 15.9261 222.275 16.4156 222.275 17.0594C222.275 17.6898 222.027 18.2396 221.531 18.7091C220.686 19.5138 219.432 19.9161 217.769 19.9161C217.273 19.9161 216.843 19.8759 216.481 19.7954V19.4132C216.951 19.4802 217.34 19.5138 217.648 19.5138C218.761 19.5138 219.62 19.2321 220.223 18.6688C220.84 18.1055 221.149 17.4886 221.149 16.818C221.149 16.4559 221.048 16.1541 220.847 15.9127C220.659 15.6713 220.337 15.5506 219.881 15.5506C219.439 15.5506 218.983 15.7585 218.513 16.1742C218.057 16.59 217.695 17.1064 217.427 17.7233C216.89 19.0242 216.622 20.1508 216.622 21.1031C216.622 22.8734 217.159 23.7586 218.232 23.7586C219.559 23.7586 220.532 23.0344 221.149 21.5859L221.471 21.6664C221.149 22.4845 220.679 23.1215 220.062 23.5775C219.459 24.0201 218.775 24.2414 218.01 24.2414C217.246 24.2414 216.602 23.9598 216.079 23.3965C215.556 22.8332 215.294 22.0754 215.294 21.1232C215.294 20.1709 215.475 19.2522 215.838 18.3671C216.2 17.4685 216.763 16.6973 217.527 16.0535C218.292 15.3964 219.164 15.0678 220.143 15.0678ZM227.052 15.2488L227.334 15.45C226.69 16.9253 226.127 18.6219 225.644 20.5398H225.805L226.127 19.6546C226.757 17.9379 227.381 16.7442 227.998 16.0736C228.615 15.4031 229.151 15.0678 229.607 15.0678C230.063 15.0678 230.399 15.2153 230.613 15.5104C230.841 15.8054 230.955 16.1876 230.955 16.6571C230.955 17.1265 230.868 17.5355 230.694 17.8842C230.519 18.2329 230.264 18.4073 229.929 18.4073C229.607 18.4073 229.339 18.3 229.124 18.0854C229.259 17.9111 229.386 17.6562 229.507 17.3209C229.627 16.9856 229.688 16.6906 229.688 16.4358C229.688 16.0468 229.527 15.8524 229.205 15.8524C228.87 15.8524 228.454 16.1809 227.958 16.8381C226.871 18.2598 225.953 20.6471 225.202 24L223.793 24.1207L225.765 15.9932L224.477 16.0938L224.457 15.7518C225.383 15.6311 226.248 15.4634 227.052 15.2488Z" fill="#6082FA"/>
<path opacity="0.86" d="M233.454 18.704C233.338 18.5878 233.28 18.4447 233.28 18.2748C233.28 18.1049 233.338 17.9619 233.454 17.8456C233.571 17.7294 233.714 17.6713 233.884 17.6713C234.053 17.6713 234.196 17.7294 234.313 17.8456C234.429 17.9619 234.487 18.1049 234.487 18.2748C234.487 18.4447 234.429 18.5878 234.313 18.704C234.196 18.8202 234.053 18.8784 233.884 18.8784C233.714 18.8784 233.571 18.8202 233.454 18.704ZM231.939 25.1551C231.939 24.6812 232.265 23.1835 232.918 20.6621L232.06 20.7292L232.046 20.5012C232.663 20.4207 233.24 20.3089 233.776 20.1659L233.964 20.3C233.651 21.2299 233.356 22.2268 233.079 23.2908C232.802 24.3548 232.663 25.0388 232.663 25.3428C232.663 25.6379 232.775 25.7854 232.998 25.7854C233.168 25.7854 233.352 25.6736 233.548 25.4501C233.745 25.2176 233.915 24.8913 234.058 24.4711L234.272 24.5247C233.888 25.6155 233.387 26.1609 232.77 26.1609C232.216 26.1609 231.939 25.8256 231.939 25.1551Z" fill="#6082FA"/>
<path opacity="0.86" d="M239.778 20.9598C239.644 20.8167 239.577 20.6468 239.577 20.4501C239.577 20.2534 239.644 20.088 239.778 19.9539C239.921 19.8108 240.091 19.7393 240.288 19.7393C240.484 19.7393 240.65 19.8108 240.784 19.9539C240.927 20.088 240.998 20.2534 240.998 20.4501C240.998 20.6468 240.927 20.8167 240.784 20.9598C240.65 21.0939 240.484 21.1609 240.288 21.1609C240.091 21.1609 239.921 21.0939 239.778 20.9598ZM246.663 21L245.711 21.0805L246.194 19.2431C246.247 19.0374 246.328 18.7334 246.435 18.3311C246.551 17.9287 246.636 17.6202 246.69 17.4056C246.842 16.8155 246.918 16.4176 246.918 16.212C246.918 16.0064 246.864 15.8365 246.757 15.7024C246.659 15.5593 246.507 15.4878 246.301 15.4878C245.854 15.4878 245.367 15.9393 244.839 16.8424C244.312 17.7454 243.829 19.1313 243.391 21L242.452 21.0805L243.766 15.6621L242.908 15.7292L242.895 15.5012C243.511 15.4207 244.088 15.3089 244.625 15.1659L244.812 15.3C244.383 16.2835 244.008 17.4146 243.686 18.6932H243.793L244.008 18.1031C244.428 16.9586 244.875 16.1628 245.349 15.7158C245.823 15.2687 246.265 15.0452 246.677 15.0452C247.303 15.0452 247.615 15.3984 247.615 16.1047C247.615 16.516 247.486 17.0972 247.227 17.8482L246.945 18.6932H247.066L247.28 18.1031C247.763 16.7529 248.286 15.8767 248.849 15.4744C249.118 15.2955 249.337 15.1793 249.507 15.1256C249.685 15.072 249.895 15.0452 250.137 15.0452C250.378 15.0452 250.579 15.1525 250.74 15.3671C250.901 15.5816 250.982 15.8812 250.982 16.2656C250.982 16.6501 250.763 17.3565 250.325 18.3847C249.895 19.4129 249.681 20.0701 249.681 20.3562C249.681 20.6424 249.793 20.7854 250.016 20.7854C250.186 20.7854 250.369 20.6736 250.566 20.4501C250.763 20.2176 250.933 19.8913 251.076 19.4711L251.29 19.5247C250.906 20.6155 250.405 21.1609 249.788 21.1609C249.234 21.1609 248.957 20.8569 248.957 20.2489C248.957 19.9896 249.158 19.3459 249.56 18.3176C249.971 17.2894 250.177 16.5875 250.177 16.212C250.177 15.7292 250.021 15.4878 249.708 15.4878C249.261 15.4878 248.778 15.8499 248.259 16.5741C247.66 17.4414 247.128 18.9167 246.663 21ZM254.446 13.704C254.33 13.5878 254.272 13.4447 254.272 13.2748C254.272 13.1049 254.33 12.9619 254.446 12.8456C254.563 12.7294 254.706 12.6713 254.876 12.6713C255.046 12.6713 255.189 12.7294 255.305 12.8456C255.421 12.9619 255.479 13.1049 255.479 13.2748C255.479 13.4447 255.421 13.5878 255.305 13.704C255.189 13.8202 255.046 13.8784 254.876 13.8784C254.706 13.8784 254.563 13.8202 254.446 13.704ZM252.931 20.1551C252.931 19.6812 253.257 18.1835 253.91 15.6621L253.052 15.7292L253.038 15.5012C253.655 15.4207 254.232 15.3089 254.768 15.1659L254.956 15.3C254.643 16.2299 254.348 17.2268 254.071 18.2908C253.794 19.3548 253.655 20.0388 253.655 20.3428C253.655 20.6379 253.767 20.7854 253.99 20.7854C254.16 20.7854 254.344 20.6736 254.54 20.4501C254.737 20.2176 254.907 19.8913 255.05 19.4711L255.265 19.5247C254.88 20.6155 254.379 21.1609 253.762 21.1609C253.208 21.1609 252.931 20.8256 252.931 20.1551ZM261.975 16.2656C261.975 16.6501 261.756 17.3565 261.318 18.3847C260.889 19.4129 260.674 20.0701 260.674 20.3562C260.674 20.6424 260.786 20.7854 261.01 20.7854C261.18 20.7854 261.363 20.6736 261.56 20.4501C261.756 20.2176 261.926 19.8913 262.069 19.4711L262.284 19.5247C261.899 20.6155 261.399 21.1609 260.782 21.1609C260.227 21.1609 259.95 20.8569 259.95 20.2489C259.95 19.9896 260.151 19.3459 260.554 18.3176C260.965 17.2894 261.171 16.6278 261.171 16.3327C261.171 15.7694 260.965 15.4878 260.554 15.4878C260.107 15.4878 259.624 15.8499 259.105 16.5741C258.506 17.4414 257.974 18.9167 257.509 21L256.57 21.0805L257.885 15.6621L257.026 15.7292L257.013 15.5012C257.63 15.4207 258.207 15.3089 258.743 15.1659L258.931 15.3C258.502 16.2835 258.126 17.4146 257.804 18.6932H257.912L258.126 18.1031C258.609 16.7529 259.132 15.8767 259.695 15.4744C259.964 15.2955 260.183 15.1793 260.353 15.1256C260.531 15.072 260.75 15.0452 261.01 15.0452C261.278 15.0452 261.506 15.1525 261.694 15.3671C261.882 15.5816 261.975 15.8812 261.975 16.2656ZM268.063 12.8591H266.521L264.871 20.6915H266.427C266.999 20.6915 267.527 20.5127 268.01 20.1551C268.493 19.7974 268.882 19.3459 269.177 18.8005C269.785 17.6649 270.089 16.5339 270.089 15.4073C270.089 14.6026 269.901 13.9767 269.525 13.5296C269.159 13.0826 268.671 12.8591 268.063 12.8591ZM264.898 12.5506H268.144C269.038 12.5506 269.744 12.8144 270.263 13.3419C270.782 13.8605 271.041 14.5892 271.041 15.528C271.041 16.1628 270.929 16.8021 270.706 17.4459C270.491 18.0807 270.191 18.6664 269.807 19.2028C269.422 19.7304 268.926 20.164 268.318 20.5038C267.719 20.8346 267.066 21 266.36 21H263.114L263.155 20.7586H263.772C263.888 20.7586 263.959 20.6915 263.986 20.5574C265.059 15.4788 265.596 12.9172 265.596 12.8725C265.596 12.8188 265.546 12.792 265.448 12.792H264.858L264.898 12.5506ZM275.216 15.0452C275.69 15.0452 276.043 15.1614 276.276 15.3939C276.517 15.6174 276.638 15.9438 276.638 16.3729C276.638 16.7932 276.473 17.1598 276.142 17.4727C275.578 18.0092 274.742 18.2774 273.634 18.2774C273.303 18.2774 273.017 18.2506 272.775 18.1969V17.9421C273.088 17.9868 273.348 18.0092 273.553 18.0092C274.295 18.0092 274.868 17.8214 275.27 17.4459C275.681 17.0704 275.887 16.6591 275.887 16.212C275.887 15.9706 275.82 15.7694 275.686 15.6085C275.561 15.4475 275.346 15.3671 275.042 15.3671C274.747 15.3671 274.443 15.5056 274.13 15.7828C273.826 16.06 273.585 16.4042 273.406 16.8155C273.048 17.6828 272.869 18.4339 272.869 19.0687C272.869 20.2489 273.227 20.8391 273.942 20.8391C274.827 20.8391 275.476 20.3562 275.887 19.3906L276.101 19.4442C275.887 19.9896 275.574 20.4144 275.163 20.7184C274.76 21.0134 274.304 21.1609 273.795 21.1609C273.285 21.1609 272.856 20.9732 272.507 20.5976C272.158 20.2221 271.984 19.7169 271.984 19.0821C271.984 18.4473 272.105 17.8348 272.346 17.2447C272.588 16.6456 272.963 16.1315 273.473 15.7024C273.982 15.2642 274.564 15.0452 275.216 15.0452ZM279.836 15.1659L280.024 15.3C279.595 16.2835 279.219 17.4146 278.897 18.6932H279.005L279.219 18.1031C279.961 16.0645 280.811 15.0452 281.767 15.0452C282.152 15.0452 282.478 15.2329 282.746 15.6085C283.024 15.984 283.162 16.44 283.162 16.9765C283.162 17.5129 283.091 18.0136 282.948 18.4786C282.814 18.9346 282.617 19.3638 282.358 19.7661C282.098 20.1595 281.758 20.4814 281.338 20.7318C280.918 20.9821 280.453 21.1073 279.943 21.1073C279.166 21.1073 278.558 20.7631 278.119 20.0746L278.213 19.8466C278.642 20.4993 279.206 20.8256 279.903 20.8256C280.306 20.8256 280.663 20.6915 280.976 20.4233C281.298 20.1551 281.544 19.8198 281.714 19.4174C282.054 18.5948 282.223 17.7901 282.223 17.0033C282.223 16.5473 282.156 16.1941 282.022 15.9438C281.897 15.6845 281.732 15.5548 281.526 15.5548C281.106 15.5548 280.632 15.9616 280.104 16.7753C279.586 17.5889 279.116 18.8586 278.696 20.5842L277.891 23.8969L276.953 23.9774L278.978 15.6621L278.119 15.7292L278.106 15.5012C278.723 15.4207 279.3 15.3089 279.836 15.1659ZM284.23 19.0553C284.23 18.1344 284.498 17.2536 285.034 16.4132C285.294 16.0108 285.633 15.6845 286.054 15.4341C286.474 15.1748 286.952 15.0452 287.489 15.0452C288.034 15.0452 288.477 15.2285 288.816 15.5951C289.156 15.9616 289.326 16.4624 289.326 17.0972C289.326 17.732 289.21 18.3489 288.977 18.948C288.745 19.5471 288.378 20.0656 287.878 20.5038C287.377 20.9419 286.814 21.1609 286.188 21.1609C285.562 21.1609 285.079 20.9776 284.739 20.6111C284.399 20.2445 284.23 19.7259 284.23 19.0553ZM287.381 15.3402C286.899 15.3402 286.469 15.5816 286.094 16.0645C285.727 16.5473 285.463 17.0748 285.303 17.6471C285.151 18.2193 285.075 18.7558 285.075 19.2565C285.075 19.7482 285.173 20.1416 285.37 20.4367C285.575 20.7228 285.852 20.8659 286.201 20.8659C286.559 20.8659 286.89 20.7228 287.194 20.4367C287.507 20.1506 287.752 19.7974 287.931 19.3772C288.298 18.5188 288.481 17.7767 288.481 17.1508C288.481 16.516 288.383 16.0555 288.186 15.7694C287.989 15.4833 287.721 15.3402 287.381 15.3402ZM293.228 15.3671C292.889 15.3671 292.598 15.4654 292.357 15.6621C292.115 15.8588 291.994 16.1092 291.994 16.4132C291.994 16.7172 292.12 16.9944 292.37 17.2447C292.62 17.4951 292.893 17.7052 293.188 17.8751C293.483 18.036 293.756 18.2506 294.006 18.5188C294.257 18.7871 294.382 19.0732 294.382 19.3772C294.382 19.9494 294.158 20.392 293.711 20.7049C293.273 21.0089 292.741 21.1609 292.115 21.1609C291.489 21.1609 290.939 21.0134 290.466 20.7184C290.618 20.4144 290.761 19.8868 290.895 19.1358L291.123 19.176C291.06 19.5426 291.029 19.8332 291.029 20.0478C291.029 20.2534 291.127 20.4456 291.324 20.6245C291.53 20.7944 291.82 20.8793 292.196 20.8793C292.58 20.8793 292.902 20.7631 293.161 20.5306C293.43 20.2981 293.564 19.9941 293.564 19.6186C293.564 19.3772 293.443 19.1447 293.202 18.9212C292.969 18.6887 292.71 18.4965 292.424 18.3445C292.146 18.1925 291.887 17.9779 291.646 17.7007C291.413 17.4235 291.297 17.1195 291.297 16.7887C291.297 16.2969 291.489 15.8856 291.874 15.5548C292.267 15.2151 292.781 15.0452 293.416 15.0452C293.908 15.0452 294.395 15.1659 294.878 15.4073C294.833 15.5056 294.757 15.7292 294.65 16.0779C294.552 16.4266 294.476 16.7574 294.422 17.0704L294.194 17.0301C294.248 16.744 294.274 16.4713 294.274 16.212C294.274 15.9438 294.185 15.7381 294.006 15.5951C293.836 15.4431 293.577 15.3671 293.228 15.3671ZM297.935 13.704C297.818 13.5878 297.76 13.4447 297.76 13.2748C297.76 13.1049 297.818 12.9619 297.935 12.8456C298.051 12.7294 298.194 12.6713 298.364 12.6713C298.534 12.6713 298.677 12.7294 298.793 12.8456C298.909 12.9619 298.967 13.1049 298.967 13.2748C298.967 13.4447 298.909 13.5878 298.793 13.704C298.677 13.8202 298.534 13.8784 298.364 13.8784C298.194 13.8784 298.051 13.8202 297.935 13.704ZM296.419 20.1551C296.419 19.6812 296.745 18.1835 297.398 15.6621L296.54 15.7292L296.526 15.5012C297.143 15.4207 297.72 15.3089 298.257 15.1659L298.444 15.3C298.131 16.2299 297.836 17.2268 297.559 18.2908C297.282 19.3548 297.143 20.0388 297.143 20.3428C297.143 20.6379 297.255 20.7854 297.479 20.7854C297.649 20.7854 297.832 20.6736 298.029 20.4501C298.225 20.2176 298.395 19.8913 298.538 19.4711L298.753 19.5247C298.368 20.6155 297.868 21.1609 297.251 21.1609C296.696 21.1609 296.419 20.8256 296.419 20.1551ZM300.354 15.6889L300.421 15.4341H303.398L303.331 15.6889H300.354ZM302.486 13.7845L302.674 13.9186C302.468 14.5445 302.191 15.528 301.842 16.8692C301.503 18.2104 301.297 19.0776 301.225 19.4711C301.154 19.8555 301.118 20.1461 301.118 20.3428C301.118 20.6379 301.23 20.7854 301.453 20.7854C301.623 20.7854 301.807 20.6736 302.003 20.4501C302.2 20.2176 302.37 19.8913 302.513 19.4711L302.728 19.5247C302.343 20.6155 301.842 21.1609 301.225 21.1609C300.671 21.1609 300.394 20.8256 300.394 20.1551C300.394 19.6007 300.725 18.0539 301.386 15.5146L300.421 15.4341C300.913 15.4341 301.31 15.3179 301.614 15.0854C301.918 14.844 302.209 14.4104 302.486 13.7845ZM303.497 22.4887C304.078 22.0416 304.369 21.5722 304.369 21.0805C304.369 20.8122 304.275 20.5932 304.087 20.4233C304.132 20.2176 304.235 20.0388 304.396 19.8868C304.565 19.7348 304.744 19.6588 304.932 19.6588C305.299 19.6588 305.482 19.8421 305.482 20.2087C305.482 20.5753 305.299 21.0089 304.932 21.5096C304.574 22.0193 304.132 22.4082 303.604 22.6765L303.497 22.4887ZM310.292 19.0553C310.292 18.1344 310.56 17.2536 311.097 16.4132C311.356 16.0108 311.696 15.6845 312.116 15.4341C312.536 15.1748 313.014 15.0452 313.551 15.0452C314.096 15.0452 314.539 15.2285 314.879 15.5951C315.218 15.9616 315.388 16.4624 315.388 17.0972C315.388 17.732 315.272 18.3489 315.04 18.948C314.807 19.5471 314.441 20.0656 313.94 20.5038C313.439 20.9419 312.876 21.1609 312.25 21.1609C311.624 21.1609 311.141 20.9776 310.802 20.6111C310.462 20.2445 310.292 19.7259 310.292 19.0553ZM313.444 15.3402C312.961 15.3402 312.532 15.5816 312.156 16.0645C311.79 16.5473 311.526 17.0748 311.365 17.6471C311.213 18.2193 311.137 18.7558 311.137 19.2565C311.137 19.7482 311.235 20.1416 311.432 20.4367C311.638 20.7228 311.915 20.8659 312.263 20.8659C312.621 20.8659 312.952 20.7228 313.256 20.4367C313.569 20.1506 313.815 19.7974 313.994 19.3772C314.36 18.5188 314.543 17.7767 314.543 17.1508C314.543 16.516 314.445 16.0555 314.248 15.7694C314.052 15.4833 313.783 15.3402 313.444 15.3402ZM318.969 15.1659L319.157 15.3C318.727 16.2835 318.352 17.4146 318.03 18.6932H318.137L318.352 18.1031C318.772 16.9586 319.188 16.1628 319.599 15.7158C320.01 15.2687 320.368 15.0452 320.672 15.0452C320.976 15.0452 321.2 15.1435 321.343 15.3402C321.495 15.5369 321.571 15.7918 321.571 16.1047C321.571 16.4176 321.513 16.6904 321.396 16.9228C321.28 17.1553 321.11 17.2715 320.887 17.2715C320.672 17.2715 320.493 17.2 320.35 17.0569C320.44 16.9407 320.525 16.7708 320.605 16.5473C320.685 16.3238 320.726 16.1271 320.726 15.9572C320.726 15.6979 320.618 15.5682 320.404 15.5682C320.18 15.5682 319.903 15.7873 319.572 16.2254C318.848 17.1732 318.236 18.7647 317.735 21L316.796 21.0805L318.11 15.6621L317.252 15.7292L317.239 15.5012C317.856 15.4207 318.432 15.3089 318.969 15.1659ZM326.105 20.3428C326.105 20.6379 326.217 20.7854 326.44 20.7854C326.61 20.7854 326.794 20.6736 326.99 20.4501C327.187 20.2176 327.357 19.8913 327.5 19.4711L327.715 19.5247C327.33 20.6155 326.829 21.1609 326.212 21.1609C325.658 21.1609 325.381 20.8122 325.381 20.1148C325.381 19.4085 325.967 16.9318 327.138 12.6847L326.279 12.7518L326.266 12.5238C326.883 12.4433 327.46 12.3315 327.996 12.1885L328.184 12.3226C327.808 13.4224 327.366 14.9155 326.856 16.8021C326.355 18.6798 326.105 19.86 326.105 20.3428ZM325.515 19.5113H325.381C324.827 20.6111 324.183 21.1609 323.45 21.1609C323.029 21.1609 322.676 20.9776 322.39 20.6111C322.113 20.2355 321.974 19.7795 321.974 19.2431C321.974 18.6976 322.046 18.1925 322.189 17.7275C322.332 17.2626 322.533 16.8289 322.792 16.4266C323.052 16.0153 323.396 15.6845 323.825 15.4341C324.254 15.1748 324.692 15.0452 325.139 15.0452C325.998 15.0452 326.606 15.4207 326.963 16.1718L326.776 16.4132C326.355 15.7158 325.832 15.3671 325.207 15.3671C324.822 15.3671 324.469 15.5056 324.147 15.7828C323.834 16.06 323.588 16.4087 323.409 16.8289C323.043 17.6873 322.859 18.4965 322.859 19.2565C322.859 19.7572 322.94 20.1327 323.101 20.3831C323.271 20.6334 323.494 20.7586 323.771 20.7586C324.156 20.7586 324.549 20.4367 324.952 19.7929C325.354 19.1402 325.712 18.2104 326.025 17.0033L325.515 19.5113ZM332.181 15.0452C332.655 15.0452 333.008 15.1614 333.24 15.3939C333.482 15.6174 333.602 15.9438 333.602 16.3729C333.602 16.7932 333.437 17.1598 333.106 17.4727C332.543 18.0092 331.707 18.2774 330.598 18.2774C330.267 18.2774 329.981 18.2506 329.74 18.1969V17.9421C330.053 17.9868 330.312 18.0092 330.518 18.0092C331.26 18.0092 331.832 17.8214 332.234 17.4459C332.646 17.0704 332.851 16.6591 332.851 16.212C332.851 15.9706 332.784 15.7694 332.65 15.6085C332.525 15.4475 332.31 15.3671 332.006 15.3671C331.711 15.3671 331.407 15.5056 331.094 15.7828C330.79 16.06 330.549 16.4042 330.37 16.8155C330.012 17.6828 329.834 18.4339 329.834 19.0687C329.834 20.2489 330.191 20.8391 330.907 20.8391C331.792 20.8391 332.44 20.3562 332.851 19.3906L333.066 19.4442C332.851 19.9896 332.538 20.4144 332.127 20.7184C331.725 21.0134 331.269 21.1609 330.759 21.1609C330.249 21.1609 329.82 20.9732 329.471 20.5976C329.123 20.2221 328.948 19.7169 328.948 19.0821C328.948 18.4473 329.069 17.8348 329.311 17.2447C329.552 16.6456 329.927 16.1315 330.437 15.7024C330.947 15.2642 331.528 15.0452 332.181 15.0452ZM336.787 15.1659L336.975 15.3C336.546 16.2835 336.17 17.4146 335.848 18.6932H335.956L336.17 18.1031C336.59 16.9586 337.006 16.1628 337.417 15.7158C337.829 15.2687 338.186 15.0452 338.49 15.0452C338.794 15.0452 339.018 15.1435 339.161 15.3402C339.313 15.5369 339.389 15.7918 339.389 16.1047C339.389 16.4176 339.331 16.6904 339.215 16.9228C339.098 17.1553 338.928 17.2715 338.705 17.2715C338.49 17.2715 338.312 17.2 338.168 17.0569C338.258 16.9407 338.343 16.7708 338.423 16.5473C338.504 16.3238 338.544 16.1271 338.544 15.9572C338.544 15.6979 338.437 15.5682 338.222 15.5682C337.999 15.5682 337.721 15.7873 337.391 16.2254C336.666 17.1732 336.054 18.7647 335.553 21L334.614 21.0805L335.929 15.6621L335.07 15.7292L335.057 15.5012C335.674 15.4207 336.251 15.3089 336.787 15.1659ZM347.96 13.4224L343.561 21H343.132L342.059 13.4224C341.058 18.1791 340.557 20.5932 340.557 20.6647C340.557 20.7273 340.606 20.7586 340.705 20.7586H341.295L341.254 21H339.256L339.296 20.7586H339.913C340.029 20.7586 340.101 20.6915 340.128 20.5574C341.201 15.4788 341.737 12.9172 341.737 12.8725C341.737 12.8188 341.688 12.792 341.59 12.792H341L341.04 12.5506H342.864L343.87 19.7393L348.014 12.5506H349.838L349.798 12.792H349.194C349.078 12.792 349.002 12.8546 348.966 12.9798C348.85 13.5431 348.644 14.5266 348.349 15.9304C347.688 18.9972 347.357 20.5708 347.357 20.6513C347.357 20.7228 347.406 20.7586 347.504 20.7586H348.094L348.054 21H345.586L345.627 20.7586H346.244C346.36 20.7586 346.431 20.6915 346.458 20.5574L347.96 13.4224ZM352.286 13.704C352.17 13.5878 352.112 13.4447 352.112 13.2748C352.112 13.1049 352.17 12.9619 352.286 12.8456C352.403 12.7294 352.546 12.6713 352.716 12.6713C352.885 12.6713 353.028 12.7294 353.145 12.8456C353.261 12.9619 353.319 13.1049 353.319 13.2748C353.319 13.4447 353.261 13.5878 353.145 13.704C353.028 13.8202 352.885 13.8784 352.716 13.8784C352.546 13.8784 352.403 13.8202 352.286 13.704ZM350.771 20.1551C350.771 19.6812 351.097 18.1835 351.75 15.6621L350.892 15.7292L350.878 15.5012C351.495 15.4207 352.072 15.3089 352.608 15.1659L352.796 15.3C352.483 16.2299 352.188 17.2268 351.911 18.2908C351.634 19.3548 351.495 20.0388 351.495 20.3428C351.495 20.6379 351.607 20.7854 351.83 20.7854C352 20.7854 352.184 20.6736 352.38 20.4501C352.577 20.2176 352.747 19.8913 352.89 19.4711L353.104 19.5247C352.72 20.6155 352.219 21.1609 351.602 21.1609C351.048 21.1609 350.771 20.8256 350.771 20.1551ZM359.815 16.2656C359.815 16.6501 359.596 17.3565 359.158 18.3847C358.729 19.4129 358.514 20.0701 358.514 20.3562C358.514 20.6424 358.626 20.7854 358.85 20.7854C359.019 20.7854 359.203 20.6736 359.399 20.4501C359.596 20.2176 359.766 19.8913 359.909 19.4711L360.124 19.5247C359.739 20.6155 359.239 21.1609 358.622 21.1609C358.067 21.1609 357.79 20.8569 357.79 20.2489C357.79 19.9896 357.991 19.3459 358.394 18.3176C358.805 17.2894 359.011 16.6278 359.011 16.3327C359.011 15.7694 358.805 15.4878 358.394 15.4878C357.947 15.4878 357.464 15.8499 356.945 16.5741C356.346 17.4414 355.814 18.9167 355.349 21L354.41 21.0805L355.725 15.6621L354.866 15.7292L354.853 15.5012C355.47 15.4207 356.047 15.3089 356.583 15.1659L356.771 15.3C356.342 16.2835 355.966 17.4146 355.644 18.6932H355.751L355.966 18.1031C356.449 16.7529 356.972 15.8767 357.535 15.4744C357.803 15.2955 358.023 15.1793 358.192 15.1256C358.371 15.072 358.59 15.0452 358.85 15.0452C359.118 15.0452 359.346 15.1525 359.534 15.3671C359.721 15.5816 359.815 15.8812 359.815 16.2656ZM363.275 13.704C363.158 13.5878 363.1 13.4447 363.1 13.2748C363.1 13.1049 363.158 12.9619 363.275 12.8456C363.391 12.7294 363.534 12.6713 363.704 12.6713C363.874 12.6713 364.017 12.7294 364.133 12.8456C364.249 12.9619 364.307 13.1049 364.307 13.2748C364.307 13.4447 364.249 13.5878 364.133 13.704C364.017 13.8202 363.874 13.8784 363.704 13.8784C363.534 13.8784 363.391 13.8202 363.275 13.704ZM361.759 20.1551C361.759 19.6812 362.085 18.1835 362.738 15.6621L361.88 15.7292L361.866 15.5012C362.483 15.4207 363.06 15.3089 363.596 15.1659L363.784 15.3C363.471 16.2299 363.176 17.2268 362.899 18.2908C362.622 19.3548 362.483 20.0388 362.483 20.3428C362.483 20.6379 362.595 20.7854 362.819 20.7854C362.988 20.7854 363.172 20.6736 363.368 20.4501C363.565 20.2176 363.735 19.8913 363.878 19.4711L364.093 19.5247C363.708 20.6155 363.207 21.1609 362.591 21.1609C362.036 21.1609 361.759 20.8256 361.759 20.1551ZM369.61 21L368.658 21.0805L369.14 19.2431C369.194 19.0374 369.275 18.7334 369.382 18.3311C369.498 17.9287 369.583 17.6202 369.637 17.4056C369.789 16.8155 369.865 16.4176 369.865 16.212C369.865 16.0064 369.811 15.8365 369.704 15.7024C369.605 15.5593 369.453 15.4878 369.248 15.4878C368.801 15.4878 368.313 15.9393 367.786 16.8424C367.258 17.7454 366.775 19.1313 366.337 21L365.399 21.0805L366.713 15.6621L365.855 15.7292L365.841 15.5012C366.458 15.4207 367.035 15.3089 367.571 15.1659L367.759 15.3C367.33 16.2835 366.954 17.4146 366.632 18.6932H366.74L366.954 18.1031C367.375 16.9586 367.822 16.1628 368.295 15.7158C368.769 15.2687 369.212 15.0452 369.623 15.0452C370.249 15.0452 370.562 15.3984 370.562 16.1047C370.562 16.516 370.432 17.0972 370.173 17.8482L369.891 18.6932H370.012L370.227 18.1031C370.71 16.7529 371.233 15.8767 371.796 15.4744C372.064 15.2955 372.283 15.1793 372.453 15.1256C372.632 15.072 372.842 15.0452 373.083 15.0452C373.325 15.0452 373.526 15.1525 373.687 15.3671C373.848 15.5816 373.928 15.8812 373.928 16.2656C373.928 16.6501 373.709 17.3565 373.271 18.3847C372.842 19.4129 372.627 20.0701 372.627 20.3562C372.627 20.6424 372.739 20.7854 372.963 20.7854C373.133 20.7854 373.316 20.6736 373.513 20.4501C373.709 20.2176 373.879 19.8913 374.022 19.4711L374.237 19.5247C373.852 20.6155 373.352 21.1609 372.735 21.1609C372.18 21.1609 371.903 20.8569 371.903 20.2489C371.903 19.9896 372.104 19.3459 372.507 18.3176C372.918 17.2894 373.124 16.5875 373.124 16.212C373.124 15.7292 372.967 15.4878 372.654 15.4878C372.207 15.4878 371.724 15.8499 371.206 16.5741C370.607 17.4414 370.075 18.9167 369.61 21ZM379.11 20.1551C379.11 20.0209 379.132 19.8064 379.177 19.5113H379.11C378.538 20.6111 377.876 21.1609 377.125 21.1609C376.32 21.1609 375.918 20.7139 375.918 19.8198C375.918 19.2386 376.123 18.1612 376.535 16.5875L376.776 15.6621L375.918 15.7292L375.904 15.5012C376.521 15.4207 377.098 15.3089 377.634 15.1659L377.822 15.3C377.071 17.6336 376.696 19.1268 376.696 19.7795C376.696 20.4322 376.942 20.7586 377.433 20.7586C377.845 20.7586 378.247 20.4591 378.64 19.86C379.043 19.252 379.374 18.4384 379.633 17.4191L380.089 15.6621L379.23 15.7292L379.217 15.5012C379.834 15.4207 380.411 15.3089 380.947 15.1659L381.135 15.3C380.822 16.2299 380.527 17.2268 380.25 18.2908C379.973 19.3548 379.834 20.0388 379.834 20.3428C379.834 20.6379 379.946 20.7854 380.169 20.7854C380.339 20.7854 380.522 20.6736 380.719 20.4501C380.916 20.2176 381.086 19.8913 381.229 19.4711L381.443 19.5247C381.059 20.6155 380.558 21.1609 379.941 21.1609C379.387 21.1609 379.11 20.8256 379.11 20.1551ZM386.95 21L385.998 21.0805L386.481 19.2431C386.535 19.0374 386.615 18.7334 386.722 18.3311C386.839 17.9287 386.923 17.6202 386.977 17.4056C387.129 16.8155 387.205 16.4176 387.205 16.212C387.205 16.0064 387.151 15.8365 387.044 15.7024C386.946 15.5593 386.794 15.4878 386.588 15.4878C386.141 15.4878 385.654 15.9393 385.126 16.8424C384.599 17.7454 384.116 19.1313 383.678 21L382.739 21.0805L384.053 15.6621L383.195 15.7292L383.182 15.5012C383.799 15.4207 384.375 15.3089 384.912 15.1659L385.099 15.3C384.67 16.2835 384.295 17.4146 383.973 18.6932H384.08L384.295 18.1031C384.715 16.9586 385.162 16.1628 385.636 15.7158C386.11 15.2687 386.552 15.0452 386.964 15.0452C387.59 15.0452 387.903 15.3984 387.903 16.1047C387.903 16.516 387.773 17.0972 387.514 17.8482L387.232 18.6932H387.353L387.567 18.1031C388.05 16.7529 388.573 15.8767 389.136 15.4744C389.405 15.2955 389.624 15.1793 389.794 15.1256C389.972 15.072 390.183 15.0452 390.424 15.0452C390.665 15.0452 390.867 15.1525 391.027 15.3671C391.188 15.5816 391.269 15.8812 391.269 16.2656C391.269 16.6501 391.05 17.3565 390.612 18.3847C390.183 19.4129 389.968 20.0701 389.968 20.3562C389.968 20.6424 390.08 20.7854 390.303 20.7854C390.473 20.7854 390.656 20.6736 390.853 20.4501C391.05 20.2176 391.22 19.8913 391.363 19.4711L391.577 19.5247C391.193 20.6155 390.692 21.1609 390.075 21.1609C389.521 21.1609 389.244 20.8569 389.244 20.2489C389.244 19.9896 389.445 19.3459 389.847 18.3176C390.259 17.2894 390.464 16.5875 390.464 16.212C390.464 15.7292 390.308 15.4878 389.995 15.4878C389.548 15.4878 389.065 15.8499 388.546 16.5741C387.947 17.4414 387.415 18.9167 386.95 21ZM397.362 12.8591H395.82L394.17 20.6915H395.726C396.298 20.6915 396.826 20.5127 397.309 20.1551C397.791 19.7974 398.18 19.3459 398.475 18.8005C399.083 17.6649 399.387 16.5339 399.387 15.4073C399.387 14.6026 399.2 13.9767 398.824 13.5296C398.458 13.0826 397.97 12.8591 397.362 12.8591ZM394.197 12.5506H397.443C398.337 12.5506 399.043 12.8144 399.562 13.3419C400.08 13.8605 400.34 14.5892 400.34 15.528C400.34 16.1628 400.228 16.8021 400.004 17.4459C399.79 18.0807 399.49 18.6664 399.106 19.2028C398.721 19.7304 398.225 20.164 397.617 20.5038C397.018 20.8346 396.365 21 395.659 21H392.413L392.454 20.7586H393.07C393.187 20.7586 393.258 20.6915 393.285 20.5574C394.358 15.4788 394.894 12.9172 394.894 12.8725C394.894 12.8188 394.845 12.792 394.747 12.792H394.157L394.197 12.5506ZM404.515 15.0452C404.989 15.0452 405.342 15.1614 405.575 15.3939C405.816 15.6174 405.937 15.9438 405.937 16.3729C405.937 16.7932 405.771 17.1598 405.441 17.4727C404.877 18.0092 404.041 18.2774 402.933 18.2774C402.602 18.2774 402.316 18.2506 402.074 18.1969V17.9421C402.387 17.9868 402.646 18.0092 402.852 18.0092C403.594 18.0092 404.166 17.8214 404.569 17.4459C404.98 17.0704 405.186 16.6591 405.186 16.212C405.186 15.9706 405.119 15.7694 404.985 15.6085C404.859 15.4475 404.645 15.3671 404.341 15.3671C404.046 15.3671 403.742 15.5056 403.429 15.7828C403.125 16.06 402.883 16.4042 402.705 16.8155C402.347 17.6828 402.168 18.4339 402.168 19.0687C402.168 20.2489 402.526 20.8391 403.241 20.8391C404.126 20.8391 404.774 20.3562 405.186 19.3906L405.4 19.4442C405.186 19.9896 404.873 20.4144 404.461 20.7184C404.059 21.0134 403.603 21.1609 403.093 21.1609C402.584 21.1609 402.155 20.9732 401.806 20.5976C401.457 20.2221 401.283 19.7169 401.283 19.0821C401.283 18.4473 401.404 17.8348 401.645 17.2447C401.886 16.6456 402.262 16.1315 402.772 15.7024C403.281 15.2642 403.862 15.0452 404.515 15.0452ZM409.135 15.1659L409.323 15.3C408.894 16.2835 408.518 17.4146 408.196 18.6932H408.303L408.518 18.1031C409.26 16.0645 410.11 15.0452 411.066 15.0452C411.451 15.0452 411.777 15.2329 412.045 15.6085C412.322 15.984 412.461 16.44 412.461 16.9765C412.461 17.5129 412.39 18.0136 412.246 18.4786C412.112 18.9346 411.916 19.3638 411.656 19.7661C411.397 20.1595 411.057 20.4814 410.637 20.7318C410.217 20.9821 409.752 21.1073 409.242 21.1073C408.464 21.1073 407.856 20.7631 407.418 20.0746L407.512 19.8466C407.941 20.4993 408.505 20.8256 409.202 20.8256C409.604 20.8256 409.962 20.6915 410.275 20.4233C410.597 20.1551 410.843 19.8198 411.013 19.4174C411.352 18.5948 411.522 17.7901 411.522 17.0033C411.522 16.5473 411.455 16.1941 411.321 15.9438C411.196 15.6845 411.03 15.5548 410.825 15.5548C410.405 15.5548 409.931 15.9616 409.403 16.7753C408.885 17.5889 408.415 18.8586 407.995 20.5842L407.19 23.8969L406.251 23.9774L408.277 15.6621L407.418 15.7292L407.405 15.5012C408.022 15.4207 408.598 15.3089 409.135 15.1659ZM413.528 19.0553C413.528 18.1344 413.797 17.2536 414.333 16.4132C414.592 16.0108 414.932 15.6845 415.352 15.4341C415.773 15.1748 416.251 15.0452 416.788 15.0452C417.333 15.0452 417.776 15.2285 418.115 15.5951C418.455 15.9616 418.625 16.4624 418.625 17.0972C418.625 17.732 418.509 18.3489 418.276 18.948C418.044 19.5471 417.677 20.0656 417.176 20.5038C416.676 20.9419 416.112 21.1609 415.487 21.1609C414.861 21.1609 414.378 20.9776 414.038 20.6111C413.698 20.2445 413.528 19.7259 413.528 19.0553ZM416.68 15.3402C416.197 15.3402 415.768 15.5816 415.393 16.0645C415.026 16.5473 414.762 17.0748 414.601 17.6471C414.449 18.2193 414.373 18.7558 414.373 19.2565C414.373 19.7482 414.472 20.1416 414.668 20.4367C414.874 20.7228 415.151 20.8659 415.5 20.8659C415.858 20.8659 416.188 20.7228 416.492 20.4367C416.805 20.1506 417.051 19.7974 417.23 19.3772C417.597 18.5188 417.78 17.7767 417.78 17.1508C417.78 16.516 417.682 16.0555 417.485 15.7694C417.288 15.4833 417.02 15.3402 416.68 15.3402ZM422.527 15.3671C422.187 15.3671 421.897 15.4654 421.655 15.6621C421.414 15.8588 421.293 16.1092 421.293 16.4132C421.293 16.7172 421.419 16.9944 421.669 17.2447C421.919 17.4951 422.192 17.7052 422.487 17.8751C422.782 18.036 423.055 18.2506 423.305 18.5188C423.555 18.7871 423.681 19.0732 423.681 19.3772C423.681 19.9494 423.457 20.392 423.01 20.7049C422.572 21.0089 422.04 21.1609 421.414 21.1609C420.788 21.1609 420.238 21.0134 419.764 20.7184C419.916 20.4144 420.059 19.8868 420.194 19.1358L420.422 19.176C420.359 19.5426 420.328 19.8332 420.328 20.0478C420.328 20.2534 420.426 20.4456 420.623 20.6245C420.828 20.7944 421.119 20.8793 421.495 20.8793C421.879 20.8793 422.201 20.7631 422.46 20.5306C422.728 20.2981 422.863 19.9941 422.863 19.6186C422.863 19.3772 422.742 19.1447 422.5 18.9212C422.268 18.6887 422.009 18.4965 421.723 18.3445C421.445 18.1925 421.186 17.9779 420.945 17.7007C420.712 17.4235 420.596 17.1195 420.596 16.7887C420.596 16.2969 420.788 15.8856 421.173 15.5548C421.566 15.2151 422.08 15.0452 422.715 15.0452C423.207 15.0452 423.694 15.1659 424.177 15.4073C424.132 15.5056 424.056 15.7292 423.949 16.0779C423.851 16.4266 423.775 16.7574 423.721 17.0704L423.493 17.0301C423.547 16.744 423.573 16.4713 423.573 16.212C423.573 15.9438 423.484 15.7381 423.305 15.5951C423.135 15.4431 422.876 15.3671 422.527 15.3671ZM427.233 13.704C427.117 13.5878 427.059 13.4447 427.059 13.2748C427.059 13.1049 427.117 12.9619 427.233 12.8456C427.35 12.7294 427.493 12.6713 427.663 12.6713C427.833 12.6713 427.976 12.7294 428.092 12.8456C428.208 12.9619 428.266 13.1049 428.266 13.2748C428.266 13.4447 428.208 13.5878 428.092 13.704C427.976 13.8202 427.833 13.8784 427.663 13.8784C427.493 13.8784 427.35 13.8202 427.233 13.704ZM425.718 20.1551C425.718 19.6812 426.044 18.1835 426.697 15.6621L425.839 15.7292L425.825 15.5012C426.442 15.4207 427.019 15.3089 427.555 15.1659L427.743 15.3C427.43 16.2299 427.135 17.2268 426.858 18.2908C426.581 19.3548 426.442 20.0388 426.442 20.3428C426.442 20.6379 426.554 20.7854 426.777 20.7854C426.947 20.7854 427.131 20.6736 427.327 20.4501C427.524 20.2176 427.694 19.8913 427.837 19.4711L428.052 19.5247C427.667 20.6155 427.166 21.1609 426.549 21.1609C425.995 21.1609 425.718 20.8256 425.718 20.1551ZM429.653 15.6889L429.72 15.4341H432.697L432.63 15.6889H429.653ZM431.785 13.7845L431.973 13.9186C431.767 14.5445 431.49 15.528 431.141 16.8692C430.801 18.2104 430.596 19.0776 430.524 19.4711C430.453 19.8555 430.417 20.1461 430.417 20.3428C430.417 20.6379 430.529 20.7854 430.752 20.7854C430.922 20.7854 431.105 20.6736 431.302 20.4501C431.499 20.2176 431.669 19.8913 431.812 19.4711L432.026 19.5247C431.642 20.6155 431.141 21.1609 430.524 21.1609C429.97 21.1609 429.693 20.8256 429.693 20.1551C429.693 19.6007 430.024 18.0539 430.685 15.5146L429.72 15.4341C430.211 15.4341 430.609 15.3179 430.913 15.0854C431.217 14.844 431.508 14.4104 431.785 13.7845ZM432.112 22.3144C433.006 21.6348 433.717 20.6647 434.244 19.404C434.772 18.1433 435.036 16.8692 435.036 15.5816C435.036 14.2852 434.736 13.3195 434.137 12.6847L434.298 12.4835C434.879 12.8322 435.313 13.324 435.599 13.9588C435.885 14.5847 436.028 15.2911 436.028 16.0779C436.028 17.3565 435.675 18.6082 434.969 19.8332C434.271 21.0581 433.337 21.9522 432.165 22.5155L432.112 22.3144Z" fill="#6082FA"/>
</svg>
