<svg width="363" height="45" viewBox="0 0 363 45" fill="none" xmlns="http://www.w3.org/2000/svg">
<path opacity="0.86" d="M15.7924 16.3259H18.3875L18.3272 16.688H17.6231C17.4353 16.688 17.2945 16.7819 17.2006 16.9696L11.1049 29H10.4612L9.45529 18.9814L4.24482 29H3.60106L2.61529 16.9696C2.58847 16.7819 2.48788 16.688 2.31353 16.688H1.60941L1.66976 16.3259H5.00929L4.94894 16.688H4.00341L4.82824 26.6462L9.37482 17.9152L9.27424 16.9696C9.24741 16.7819 9.14682 16.688 8.97247 16.688H8.26835L8.32871 16.3259H11.6884L11.628 16.688H10.6624L11.6682 26.5859L16.6775 16.688H15.732L15.7924 16.3259Z" fill="#6082FA"/>
<path opacity="0.86" d="M19.7896 25.1659L19.9774 25.3C19.5482 26.2835 19.1727 27.4146 18.8508 28.6932H18.9581L19.1727 28.1031C19.9148 26.0645 20.7642 25.0452 21.7209 25.0452C22.1054 25.0452 22.4318 25.2329 22.7 25.6085C22.9772 25.984 23.1158 26.44 23.1158 26.9765C23.1158 27.5129 23.0442 28.0136 22.9012 28.4786C22.7671 28.9346 22.5704 29.3638 22.3111 29.7661C22.0518 30.1595 21.712 30.4814 21.2918 30.7318C20.8715 30.9821 20.4066 31.1073 19.8969 31.1073C19.1191 31.1073 18.5111 30.7631 18.0729 30.0746L18.1668 29.8466C18.596 30.4993 19.1593 30.8256 19.8567 30.8256C20.2591 30.8256 20.6167 30.6915 20.9296 30.4233C21.2515 30.1551 21.4974 29.8198 21.6673 29.4174C22.0071 28.5948 22.1769 27.7901 22.1769 27.0033C22.1769 26.5473 22.1099 26.1941 21.9758 25.9438C21.8506 25.6845 21.6852 25.5548 21.4795 25.5548C21.0593 25.5548 20.5854 25.9616 20.0579 26.7753C19.5393 27.5889 19.0699 28.8586 18.6496 30.5842L17.8449 33.8969L16.9061 33.9774L18.9313 25.6621L18.0729 25.7292L18.0595 25.5012C18.6765 25.4207 19.2532 25.3089 19.7896 25.1659ZM24.1832 29.0553C24.1832 28.1344 24.4514 27.2536 24.9879 26.4132C25.2472 26.0108 25.5869 25.6845 26.0072 25.4341C26.4274 25.1748 26.9057 25.0452 27.4422 25.0452C27.9876 25.0452 28.4302 25.2285 28.77 25.5951C29.1097 25.9616 29.2796 26.4624 29.2796 27.0972C29.2796 27.732 29.1634 28.3489 28.9309 28.948C28.6984 29.5471 28.3319 30.0656 27.8312 30.5038C27.3304 30.9419 26.7672 31.1609 26.1413 31.1609C25.5154 31.1609 25.0326 30.9776 24.6928 30.6111C24.353 30.2445 24.1832 29.7259 24.1832 29.0553ZM27.3349 25.3402C26.8521 25.3402 26.4229 25.5816 26.0474 26.0645C25.6808 26.5473 25.417 27.0748 25.2561 27.6471C25.1041 28.2193 25.0281 28.7558 25.0281 29.2565C25.0281 29.7482 25.1264 30.1416 25.3232 30.4367C25.5288 30.7228 25.806 30.8659 26.1547 30.8659C26.5123 30.8659 26.8432 30.7228 27.1472 30.4367C27.4601 30.1506 27.706 29.7974 27.8848 29.3772C28.2514 28.5188 28.4347 27.7767 28.4347 27.1508C28.4347 26.516 28.3363 26.0555 28.1396 25.7694C27.9429 25.4833 27.6747 25.3402 27.3349 25.3402ZM33.1819 25.3671C32.8422 25.3671 32.5516 25.4654 32.3102 25.6621C32.0687 25.8588 31.948 26.1092 31.948 26.4132C31.948 26.7172 32.0732 26.9944 32.3236 27.2447C32.5739 27.4951 32.8466 27.7052 33.1417 27.8751C33.4367 28.036 33.7095 28.2506 33.9598 28.5188C34.2102 28.7871 34.3353 29.0732 34.3353 29.3772C34.3353 29.9494 34.1118 30.392 33.6647 30.7049C33.2266 31.0089 32.6946 31.1609 32.0687 31.1609C31.4429 31.1609 30.893 31.0134 30.4191 30.7184C30.5711 30.4144 30.7142 29.8868 30.8483 29.1358L31.0763 29.176C31.0137 29.5426 30.9824 29.8332 30.9824 30.0478C30.9824 30.2534 31.0807 30.4456 31.2775 30.6245C31.4831 30.7944 31.7737 30.8793 32.1492 30.8793C32.5337 30.8793 32.8556 30.7631 33.1149 30.5306C33.3831 30.2981 33.5172 29.9941 33.5172 29.6186C33.5172 29.3772 33.3965 29.1447 33.1551 28.9212C32.9226 28.6887 32.6633 28.4965 32.3772 28.3445C32.1 28.1925 31.8407 27.9779 31.5993 27.7007C31.3669 27.4235 31.2506 27.1195 31.2506 26.7887C31.2506 26.2969 31.4429 25.8856 31.8273 25.5548C32.2207 25.2151 32.7349 25.0452 33.3697 25.0452C33.8615 25.0452 34.3487 25.1659 34.8316 25.4073C34.7869 25.5056 34.7109 25.7292 34.6036 26.0779C34.5052 26.4266 34.4292 26.7574 34.3756 27.0704L34.1476 27.0301C34.2012 26.744 34.228 26.4713 34.228 26.212C34.228 25.9438 34.1386 25.7381 33.9598 25.5951C33.7899 25.4431 33.5306 25.3671 33.1819 25.3671ZM37.8882 23.704C37.772 23.5878 37.7138 23.4447 37.7138 23.2748C37.7138 23.1049 37.772 22.9619 37.8882 22.8456C38.0044 22.7294 38.1475 22.6713 38.3174 22.6713C38.4873 22.6713 38.6303 22.7294 38.7465 22.8456C38.8628 22.9619 38.9209 23.1049 38.9209 23.2748C38.9209 23.4447 38.8628 23.5878 38.7465 23.704C38.6303 23.8202 38.4873 23.8784 38.3174 23.8784C38.1475 23.8784 38.0044 23.8202 37.8882 23.704ZM36.3727 30.1551C36.3727 29.6812 36.699 28.1835 37.3517 25.6621L36.4934 25.7292L36.48 25.5012C37.0969 25.4207 37.6736 25.3089 38.2101 25.1659L38.3978 25.3C38.0849 26.2299 37.7898 27.2268 37.5127 28.2908C37.2355 29.3548 37.0969 30.0388 37.0969 30.3428C37.0969 30.6379 37.2087 30.7854 37.4322 30.7854C37.6021 30.7854 37.7854 30.6736 37.9821 30.4501C38.1788 30.2176 38.3487 29.8913 38.4917 29.4711L38.7063 29.5247C38.3218 30.6155 37.8211 31.1609 37.2042 31.1609C36.6498 31.1609 36.3727 30.8256 36.3727 30.1551ZM40.3072 25.6889L40.3743 25.4341H43.3517L43.2846 25.6889H40.3072ZM42.4397 23.7845L42.6275 23.9186C42.4218 24.5445 42.1446 25.528 41.7959 26.8692C41.4562 28.2104 41.2505 29.0776 41.179 29.4711C41.1075 29.8555 41.0717 30.1461 41.0717 30.3428C41.0717 30.6379 41.1835 30.7854 41.407 30.7854C41.5769 30.7854 41.7602 30.6736 41.9569 30.4501C42.1536 30.2176 42.3235 29.8913 42.4665 29.4711L42.6811 29.5247C42.2966 30.6155 41.7959 31.1609 41.179 31.1609C40.6246 31.1609 40.3475 30.8256 40.3475 30.1551C40.3475 29.6007 40.6783 28.0539 41.3399 25.5146L40.3743 25.4341C40.8661 25.4341 41.2639 25.3179 41.5679 25.0854C41.8719 24.844 42.1625 24.4104 42.4397 23.7845ZM45.8378 23.704C45.7216 23.5878 45.6635 23.4447 45.6635 23.2748C45.6635 23.1049 45.7216 22.9619 45.8378 22.8456C45.954 22.7294 46.0971 22.6713 46.267 22.6713C46.4369 22.6713 46.5799 22.7294 46.6962 22.8456C46.8124 22.9619 46.8705 23.1049 46.8705 23.2748C46.8705 23.4447 46.8124 23.5878 46.6962 23.704C46.5799 23.8202 46.4369 23.8784 46.267 23.8784C46.0971 23.8784 45.954 23.8202 45.8378 23.704ZM44.3223 30.1551C44.3223 29.6812 44.6486 28.1835 45.3013 25.6621L44.443 25.7292L44.4296 25.5012C45.0465 25.4207 45.6232 25.3089 46.1597 25.1659L46.3475 25.3C46.0345 26.2299 45.7395 27.2268 45.4623 28.2908C45.1851 29.3548 45.0465 30.0388 45.0465 30.3428C45.0465 30.6379 45.1583 30.7854 45.3818 30.7854C45.5517 30.7854 45.735 30.6736 45.9317 30.4501C46.1284 30.2176 46.2983 29.8913 46.4413 29.4711L46.6559 29.5247C46.2715 30.6155 45.7707 31.1609 45.1538 31.1609C44.5995 31.1609 44.3223 30.8256 44.3223 30.1551ZM50.0406 30.7184C50.6129 30.7184 51.1717 30.3026 51.7171 29.4711C52.2625 28.6395 52.5352 27.8751 52.5352 27.1776C52.5352 26.4802 52.3251 25.8633 51.9049 25.3268C52.1284 25.1391 52.3296 25.0452 52.5084 25.0452C52.6872 25.0452 52.8169 25.1569 52.8973 25.3805C52.9778 25.604 53.018 25.908 53.018 26.2925C53.018 26.668 52.942 27.1374 52.79 27.7007C52.638 28.264 52.4279 28.8094 52.1597 29.3369C51.8914 29.8555 51.5338 30.2892 51.0867 30.6379C50.6397 30.9866 50.1613 31.1609 49.6517 31.1609C49.3209 31.1609 49.0526 31.0492 48.847 30.8256C48.6503 30.5932 48.5519 30.2802 48.5519 29.8868C48.5519 29.4934 48.6994 28.8049 48.9945 27.8214C49.2985 26.8379 49.4505 26.1941 49.4505 25.8901C49.4505 25.5772 49.3343 25.4207 49.1018 25.4207C48.9319 25.4207 48.7531 25.5369 48.5653 25.7694C48.3776 25.9929 48.2256 26.3148 48.1093 26.7351L47.8813 26.6814C48.2121 25.5906 48.6905 25.0452 49.3164 25.0452C49.8976 25.0452 50.1881 25.3581 50.1881 25.984C50.1881 26.2344 50.0496 26.8558 49.7724 27.8482C49.4952 28.8407 49.3566 29.4934 49.3566 29.8064C49.3566 30.4144 49.5846 30.7184 50.0406 30.7184ZM57.3938 25.0452C57.8677 25.0452 58.2209 25.1614 58.4534 25.3939C58.6948 25.6174 58.8155 25.9438 58.8155 26.3729C58.8155 26.7932 58.6501 27.1598 58.3192 27.4727C57.7559 28.0092 56.9199 28.2774 55.8112 28.2774C55.4804 28.2774 55.1943 28.2506 54.9529 28.1969V27.9421C55.2658 27.9868 55.5251 28.0092 55.7308 28.0092C56.4729 28.0092 57.0451 27.8214 57.4475 27.4459C57.8588 27.0704 58.0644 26.6591 58.0644 26.212C58.0644 25.9706 57.9974 25.7694 57.8632 25.6085C57.7381 25.4475 57.5235 25.3671 57.2195 25.3671C56.9244 25.3671 56.6204 25.5056 56.3075 25.7828C56.0035 26.06 55.7621 26.4042 55.5832 26.8155C55.2256 27.6828 55.0468 28.4339 55.0468 29.0687C55.0468 30.2489 55.4044 30.8391 56.1197 30.8391C57.0049 30.8391 57.6531 30.3562 58.0644 29.3906L58.279 29.4442C58.0644 29.9896 57.7515 30.4144 57.3402 30.7184C56.9378 31.0134 56.4818 31.1609 55.9722 31.1609C55.4625 31.1609 55.0334 30.9732 54.6846 30.5976C54.3359 30.2221 54.1616 29.7169 54.1616 29.0821C54.1616 28.4473 54.2823 27.8348 54.5237 27.2447C54.7651 26.6456 55.1406 26.1315 55.6503 25.7024C56.1599 25.2642 56.7411 25.0452 57.3938 25.0452Z" fill="#6082FA"/>
<path opacity="0.86" d="M73.2232 23.87H65.7193L65.9406 22.8038H73.4445L73.2232 23.87ZM72.4989 27.29H64.9951L65.2164 26.2238H72.7202L72.4989 27.29Z" fill="#6082FA"/>
<path opacity="0.86" d="M203.454 23.704C203.338 23.5878 203.28 23.4447 203.28 23.2748C203.28 23.1049 203.338 22.9619 203.454 22.8456C203.571 22.7294 203.714 22.6713 203.884 22.6713C204.053 22.6713 204.196 22.7294 204.313 22.8456C204.429 22.9619 204.487 23.1049 204.487 23.2748C204.487 23.4447 204.429 23.5878 204.313 23.704C204.196 23.8202 204.053 23.8784 203.884 23.8784C203.714 23.8784 203.571 23.8202 203.454 23.704ZM201.939 30.1551C201.939 29.6812 202.265 28.1835 202.918 25.6621L202.06 25.7292L202.046 25.5012C202.663 25.4207 203.24 25.3089 203.776 25.1659L203.964 25.3C203.651 26.2299 203.356 27.2268 203.079 28.2908C202.802 29.3548 202.663 30.0388 202.663 30.3428C202.663 30.6379 202.775 30.7854 202.998 30.7854C203.168 30.7854 203.352 30.6736 203.548 30.4501C203.745 30.2176 203.915 29.8913 204.058 29.4711L204.272 29.5247C203.888 30.6155 203.387 31.1609 202.77 31.1609C202.216 31.1609 201.939 30.8256 201.939 30.1551Z" fill="#6082FA"/>
<path opacity="0.86" d="M104.184 20.2488L104.466 20.45C103.822 21.9253 103.259 23.6219 102.776 25.5398H102.937L103.259 24.6546C104.372 21.5967 105.646 20.0678 107.081 20.0678C107.658 20.0678 108.148 20.3494 108.55 20.9127C108.966 21.476 109.174 22.16 109.174 22.9647C109.174 23.7694 109.066 24.5205 108.852 25.2179C108.651 25.9019 108.356 26.5456 107.967 27.1492C107.578 27.7393 107.068 28.2221 106.438 28.5976C105.807 28.9732 105.11 29.1609 104.345 29.1609C103.179 29.1609 102.267 28.6446 101.609 27.6119L101.75 27.2699C102.394 28.2489 103.239 28.7385 104.285 28.7385C104.889 28.7385 105.425 28.5373 105.894 28.1349C106.377 27.7326 106.746 27.2296 107.001 26.6261C107.511 25.3922 107.765 24.1852 107.765 23.0049C107.765 22.3209 107.665 21.7912 107.464 21.4156C107.276 21.0267 107.028 20.8322 106.719 20.8322C106.089 20.8322 105.378 21.4425 104.587 22.6629C103.809 23.8834 103.105 25.7879 102.474 28.3764L101.267 33.3454L99.8592 33.4661L102.897 20.9932L101.609 21.0938L101.589 20.7518C102.515 20.6311 103.38 20.4634 104.184 20.2488ZM118.922 20.45C118.453 21.8448 118.01 23.3402 117.595 24.9362C117.179 26.5322 116.971 27.5582 116.971 28.0142C116.971 28.4568 117.139 28.6781 117.474 28.6781C117.729 28.6781 118.004 28.5105 118.299 28.1752C118.594 27.8265 118.849 27.3369 119.063 26.7066L119.385 26.7871C118.808 28.4233 118.057 29.2414 117.132 29.2414C116.3 29.2414 115.885 28.7385 115.885 27.7326C115.885 27.5314 115.918 27.2095 115.985 26.7669H115.885C115.053 28.4166 114.087 29.2414 112.988 29.2414C112.357 29.2414 111.828 28.9665 111.398 28.4166C110.983 27.8533 110.775 27.1693 110.775 26.3646C110.775 25.5465 110.882 24.7887 111.097 24.0913C111.311 23.3939 111.613 22.7434 112.002 22.1399C112.391 21.5229 112.907 21.0267 113.551 20.6512C114.195 20.2622 114.899 20.0678 115.663 20.0678C116.656 20.0678 117.44 20.4902 118.017 21.3352L118.641 20.2488L118.922 20.45ZM113.47 28.6379C114.034 28.6379 114.604 28.202 115.18 27.3302C115.838 26.3244 116.448 24.6814 117.011 22.4014C117.132 21.8649 117.226 21.476 117.293 21.2346C116.823 20.7786 116.28 20.5506 115.663 20.5506C115.06 20.5506 114.517 20.7585 114.034 21.1742C113.564 21.59 113.196 22.1131 112.927 22.7434C112.377 24.0309 112.102 25.2447 112.102 26.3847C112.102 27.1358 112.223 27.6991 112.465 28.0746C112.719 28.4501 113.055 28.6379 113.47 28.6379ZM124.113 18.056C123.938 17.8816 123.851 17.6671 123.851 17.4122C123.851 17.1574 123.938 16.9428 124.113 16.7685C124.287 16.5941 124.502 16.5069 124.756 16.5069C125.011 16.5069 125.226 16.5941 125.4 16.7685C125.575 16.9428 125.662 17.1574 125.662 17.4122C125.662 17.6671 125.575 17.8816 125.4 18.056C125.226 18.2304 125.011 18.3175 124.756 18.3175C124.502 18.3175 124.287 18.2304 124.113 18.056ZM121.839 27.7326C121.839 27.0218 122.329 24.7753 123.308 20.9932L122.02 21.0938L122 20.7518C122.926 20.6311 123.791 20.4634 124.596 20.2488L124.877 20.45C124.408 21.8448 123.965 23.3402 123.549 24.9362C123.134 26.5322 122.926 27.5582 122.926 28.0142C122.926 28.4568 123.093 28.6781 123.429 28.6781C123.684 28.6781 123.958 28.5105 124.254 28.1752C124.549 27.8265 124.803 27.3369 125.018 26.7066L125.34 26.7871C124.763 28.4233 124.012 29.2414 123.087 29.2414C122.255 29.2414 121.839 28.7385 121.839 27.7326ZM133.394 28.0142C133.394 28.4568 133.562 28.6781 133.897 28.6781C134.152 28.6781 134.427 28.5105 134.722 28.1752C135.017 27.8265 135.272 27.3369 135.487 26.7066L135.808 26.7871C135.232 28.4233 134.481 29.2414 133.555 29.2414C132.724 29.2414 132.308 28.7184 132.308 27.6722C132.308 26.6127 133.186 22.8976 134.943 16.5271L133.656 16.6276L133.636 16.2856C134.561 16.1649 135.426 15.9973 136.231 15.7827L136.513 15.9839C135.949 17.6335 135.285 19.8733 134.521 22.7032C133.77 25.5196 133.394 27.29 133.394 28.0142ZM132.509 26.7669H132.308C131.476 28.4166 130.511 29.2414 129.411 29.2414C128.781 29.2414 128.251 28.9665 127.822 28.4166C127.406 27.8533 127.198 27.1693 127.198 26.3646C127.198 25.5465 127.305 24.7887 127.52 24.0913C127.735 23.3939 128.036 22.7434 128.425 22.1399C128.814 21.5229 129.331 21.0267 129.974 20.6512C130.618 20.2622 131.275 20.0678 131.946 20.0678C133.233 20.0678 134.145 20.6311 134.682 21.7576L134.4 22.1198C133.77 21.0736 132.985 20.5506 132.046 20.5506C131.47 20.5506 130.94 20.7585 130.457 21.1742C129.988 21.59 129.619 22.1131 129.351 22.7434C128.801 24.0309 128.526 25.2447 128.526 26.3847C128.526 27.1358 128.647 27.6991 128.888 28.0746C129.143 28.4501 129.478 28.6379 129.894 28.6379C130.471 28.6379 131.061 28.1551 131.664 27.1894C132.268 26.2104 132.804 24.8155 133.274 23.0049L132.509 26.7669ZM144.479 16.7886H142.166L139.691 28.5373H142.025C142.883 28.5373 143.674 28.2691 144.399 27.7326C145.123 27.1961 145.706 26.5188 146.149 25.7007C147.061 23.9974 147.517 22.3008 147.517 20.6109C147.517 19.4039 147.235 18.4651 146.672 17.7945C146.122 17.1239 145.391 16.7886 144.479 16.7886ZM139.731 16.3259H144.6C145.941 16.3259 147.001 16.7215 147.778 17.5128C148.556 18.2907 148.945 19.3838 148.945 20.792C148.945 21.7442 148.778 22.7032 148.442 23.6688C148.12 24.6211 147.671 25.4995 147.094 26.3042C146.518 27.0955 145.773 27.746 144.861 28.2556C143.963 28.7519 142.984 29 141.924 29H137.056L137.116 28.6379H138.042C138.216 28.6379 138.323 28.5373 138.363 28.3361C139.973 20.7182 140.778 16.8758 140.778 16.8087C140.778 16.7282 140.704 16.688 140.556 16.688H139.671L139.731 16.3259ZM155.208 20.0678C155.919 20.0678 156.449 20.2421 156.798 20.5908C157.16 20.9261 157.341 21.4156 157.341 22.0594C157.341 22.6898 157.093 23.2396 156.597 23.7091C155.752 24.5138 154.498 24.9161 152.835 24.9161C152.338 24.9161 151.909 24.8759 151.547 24.7954V24.4132C152.016 24.4802 152.405 24.5138 152.714 24.5138C153.827 24.5138 154.685 24.2321 155.289 23.6688C155.906 23.1055 156.214 22.4886 156.214 21.818C156.214 21.4559 156.114 21.1541 155.913 20.9127C155.725 20.6713 155.403 20.5506 154.947 20.5506C154.504 20.5506 154.048 20.7585 153.579 21.1742C153.123 21.59 152.761 22.1064 152.493 22.7233C151.956 24.0242 151.688 25.1508 151.688 26.1031C151.688 27.8734 152.224 28.7586 153.297 28.7586C154.625 28.7586 155.597 28.0344 156.214 26.5859L156.536 26.6664C156.214 27.4845 155.745 28.1215 155.128 28.5775C154.524 29.0201 153.84 29.2414 153.076 29.2414C152.312 29.2414 151.668 28.9598 151.145 28.3965C150.622 27.8332 150.36 27.0754 150.36 26.1232C150.36 25.1709 150.541 24.2522 150.903 23.3671C151.265 22.4685 151.829 21.6973 152.593 21.0535C153.358 20.3964 154.229 20.0678 155.208 20.0678ZM162.138 20.2488L162.42 20.45C161.776 21.9253 161.213 23.6219 160.73 25.5398H160.891L161.213 24.6546C162.326 21.5967 163.6 20.0678 165.035 20.0678C165.612 20.0678 166.101 20.3494 166.504 20.9127C166.92 21.476 167.127 22.16 167.127 22.9647C167.127 23.7694 167.02 24.5205 166.806 25.2179C166.604 25.9019 166.309 26.5456 165.92 27.1492C165.531 27.7393 165.022 28.2221 164.391 28.5976C163.761 28.9732 163.064 29.1609 162.299 29.1609C161.132 29.1609 160.22 28.6446 159.563 27.6119L159.704 27.2699C160.348 28.2489 161.193 28.7385 162.239 28.7385C162.842 28.7385 163.379 28.5373 163.848 28.1349C164.331 27.7326 164.7 27.2296 164.955 26.6261C165.464 25.3922 165.719 24.1852 165.719 23.0049C165.719 22.3209 165.619 21.7912 165.417 21.4156C165.23 21.0267 164.982 20.8322 164.673 20.8322C164.043 20.8322 163.332 21.4425 162.541 22.6629C161.763 23.8834 161.059 25.7879 160.428 28.3764L159.221 33.3454L157.813 33.4661L160.851 20.9932L159.563 21.0938L159.543 20.7518C160.468 20.6311 161.334 20.4634 162.138 20.2488ZM168.728 26.0829C168.728 24.7015 169.131 23.3805 169.936 22.1198C170.324 21.5162 170.834 21.0267 171.464 20.6512C172.095 20.2622 172.812 20.0678 173.617 20.0678C174.435 20.0678 175.099 20.3427 175.609 20.8926C176.118 21.4425 176.373 22.1935 176.373 23.1458C176.373 24.098 176.199 25.0234 175.85 25.922C175.501 26.8206 174.952 27.5985 174.2 28.2556C173.449 28.9128 172.604 29.2414 171.666 29.2414C170.727 29.2414 170.003 28.9665 169.493 28.4166C168.983 27.8667 168.728 27.0888 168.728 26.0829ZM173.456 20.5104C172.732 20.5104 172.088 20.8725 171.525 21.5967C170.975 22.3209 170.579 23.1122 170.338 23.9706C170.11 24.8289 169.996 25.6336 169.996 26.3847C169.996 27.1224 170.143 27.7125 170.438 28.1551C170.747 28.5842 171.163 28.7988 171.686 28.7988C172.222 28.7988 172.718 28.5842 173.174 28.1551C173.644 27.7259 174.013 27.1961 174.281 26.5658C174.831 25.2782 175.106 24.1651 175.106 23.2262C175.106 22.274 174.958 21.5833 174.663 21.1541C174.368 20.7249 173.966 20.5104 173.456 20.5104ZM182.227 20.5506C181.717 20.5506 181.281 20.6981 180.919 20.9932C180.557 21.2882 180.376 21.6638 180.376 22.1198C180.376 22.5758 180.564 22.9915 180.939 23.3671C181.315 23.7426 181.724 24.0578 182.166 24.3126C182.609 24.554 183.018 24.8759 183.393 25.2782C183.769 25.6806 183.957 26.1098 183.957 26.5658C183.957 27.4241 183.621 28.088 182.951 28.5574C182.294 29.0134 181.496 29.2414 180.557 29.2414C179.618 29.2414 178.793 29.0201 178.082 28.5775C178.31 28.1215 178.525 27.3302 178.726 26.2036L179.068 26.264C178.974 26.8139 178.927 27.2498 178.927 27.5716C178.927 27.8801 179.075 28.1685 179.37 28.4367C179.678 28.6915 180.114 28.8189 180.678 28.8189C181.254 28.8189 181.737 28.6446 182.126 28.2959C182.528 27.9472 182.73 27.4912 182.73 26.9279C182.73 26.5658 182.549 26.2171 182.186 25.8818C181.838 25.5331 181.449 25.2447 181.02 25.0167C180.604 24.7887 180.215 24.4668 179.853 24.0511C179.504 23.6353 179.33 23.1793 179.33 22.6831C179.33 21.9454 179.618 21.3285 180.195 20.8322C180.785 20.3226 181.556 20.0678 182.508 20.0678C183.246 20.0678 183.977 20.2488 184.701 20.6109C184.634 20.7585 184.52 21.0938 184.359 21.6168C184.212 22.1399 184.098 22.6361 184.017 23.1055L183.675 23.0452C183.756 22.616 183.796 22.2069 183.796 21.818C183.796 21.4156 183.662 21.1072 183.393 20.8926C183.139 20.6646 182.75 20.5506 182.227 20.5506ZM189.286 18.056C189.112 17.8816 189.025 17.6671 189.025 17.4122C189.025 17.1574 189.112 16.9428 189.286 16.7685C189.46 16.5941 189.675 16.5069 189.93 16.5069C190.185 16.5069 190.399 16.5941 190.574 16.7685C190.748 16.9428 190.835 17.1574 190.835 17.4122C190.835 17.6671 190.748 17.8816 190.574 18.056C190.399 18.2304 190.185 18.3175 189.93 18.3175C189.675 18.3175 189.46 18.2304 189.286 18.056ZM187.013 27.7326C187.013 27.0218 187.502 24.7753 188.481 20.9932L187.194 21.0938L187.174 20.7518C188.099 20.6311 188.964 20.4634 189.769 20.2488L190.051 20.45C189.581 21.8448 189.139 23.3402 188.723 24.9362C188.307 26.5322 188.099 27.5582 188.099 28.0142C188.099 28.4568 188.267 28.6781 188.602 28.6781C188.857 28.6781 189.132 28.5105 189.427 28.1752C189.722 27.8265 189.977 27.3369 190.191 26.7066L190.513 26.7871C189.937 28.4233 189.185 29.2414 188.26 29.2414C187.429 29.2414 187.013 28.7385 187.013 27.7326ZM192.915 21.0334L193.015 20.6512H197.481L197.381 21.0334H192.915ZM196.113 18.1767L196.395 18.3779C196.086 19.3167 195.671 20.792 195.148 22.8038C194.638 24.8155 194.33 26.1165 194.222 26.7066C194.115 27.2833 194.061 27.7192 194.061 28.0142C194.061 28.4568 194.229 28.6781 194.564 28.6781C194.819 28.6781 195.094 28.5105 195.389 28.1752C195.684 27.8265 195.939 27.3369 196.154 26.7066L196.475 26.7871C195.899 28.4233 195.148 29.2414 194.222 29.2414C193.391 29.2414 192.975 28.7385 192.975 27.7326C192.975 26.9011 193.471 24.5808 194.464 20.7719L193.015 20.6512C193.753 20.6512 194.35 20.4768 194.806 20.1281C195.262 19.766 195.698 19.1155 196.113 18.1767Z" fill="#6082FA"/>
<path opacity="0.86" d="M244.204 7.162L244.222 7C244.222 6.808 244.078 6.712 243.79 6.712L241.864 6.82L241.918 6.388L243.538 6.154C244.558 5.998 245.374 5.806 245.986 5.578C245.77 6.034 245.566 6.718 245.374 7.63L243.61 16H242.332L244.204 7.162ZM243.736 15.406L243.718 15.478C243.718 15.598 243.79 15.658 243.934 15.658H245.554L245.482 16H240.1L240.172 15.658H242.17C242.326 15.658 242.422 15.574 242.458 15.406H243.736ZM246.073 17.998C246.853 17.398 247.243 16.768 247.243 16.108C247.243 15.748 247.117 15.454 246.865 15.226C246.925 14.95 247.063 14.71 247.279 14.506C247.507 14.302 247.747 14.2 247.999 14.2C248.491 14.2 248.737 14.446 248.737 14.938C248.737 15.43 248.491 16.012 247.999 16.684C247.519 17.368 246.925 17.89 246.217 18.25L246.073 17.998ZM258.217 8.17L258.469 8.35C257.893 9.67 257.389 11.188 256.957 12.904H257.101L257.389 12.112C258.385 9.376 259.525 8.008 260.809 8.008C261.325 8.008 261.763 8.26 262.123 8.764C262.495 9.268 262.681 9.88 262.681 10.6C262.681 11.32 262.585 11.992 262.393 12.616C262.213 13.228 261.949 13.804 261.601 14.344C261.253 14.872 260.797 15.304 260.233 15.64C259.669 15.976 259.045 16.144 258.361 16.144C257.317 16.144 256.501 15.682 255.913 14.758L256.039 14.452C256.615 15.328 257.371 15.766 258.307 15.766C258.847 15.766 259.327 15.586 259.747 15.226C260.179 14.866 260.509 14.416 260.737 13.876C261.193 12.772 261.421 11.692 261.421 10.636C261.421 10.024 261.331 9.55 261.151 9.214C260.983 8.866 260.761 8.692 260.485 8.692C259.921 8.692 259.285 9.238 258.577 10.33C257.881 11.422 257.251 13.126 256.687 15.442L255.607 19.888L254.347 19.996L257.065 8.836L255.913 8.926L255.895 8.62C256.723 8.512 257.497 8.362 258.217 8.17ZM264.113 13.39C264.113 12.154 264.473 10.972 265.193 9.844C265.541 9.304 265.997 8.866 266.561 8.53C267.125 8.182 267.767 8.008 268.487 8.008C269.219 8.008 269.813 8.254 270.269 8.746C270.725 9.238 270.953 9.91 270.953 10.762C270.953 11.614 270.797 12.442 270.485 13.246C270.173 14.05 269.681 14.746 269.009 15.334C268.337 15.922 267.581 16.216 266.741 16.216C265.901 16.216 265.253 15.97 264.797 15.478C264.341 14.986 264.113 14.29 264.113 13.39ZM268.343 8.404C267.695 8.404 267.119 8.728 266.615 9.376C266.123 10.024 265.769 10.732 265.553 11.5C265.349 12.268 265.247 12.988 265.247 13.66C265.247 14.32 265.379 14.848 265.643 15.244C265.919 15.628 266.291 15.82 266.759 15.82C267.239 15.82 267.683 15.628 268.091 15.244C268.511 14.86 268.841 14.386 269.081 13.822C269.573 12.67 269.819 11.674 269.819 10.834C269.819 9.982 269.687 9.364 269.423 8.98C269.159 8.596 268.799 8.404 268.343 8.404ZM276.19 8.44C275.734 8.44 275.344 8.572 275.02 8.836C274.696 9.1 274.534 9.436 274.534 9.844C274.534 10.252 274.702 10.624 275.038 10.96C275.374 11.296 275.74 11.578 276.136 11.806C276.532 12.022 276.898 12.31 277.234 12.67C277.57 13.03 277.738 13.414 277.738 13.822C277.738 14.59 277.438 15.184 276.838 15.604C276.25 16.012 275.536 16.216 274.696 16.216C273.856 16.216 273.118 16.018 272.482 15.622C272.686 15.214 272.878 14.506 273.058 13.498L273.364 13.552C273.28 14.044 273.238 14.434 273.238 14.722C273.238 14.998 273.37 15.256 273.634 15.496C273.91 15.724 274.3 15.838 274.804 15.838C275.32 15.838 275.752 15.682 276.1 15.37C276.46 15.058 276.64 14.65 276.64 14.146C276.64 13.822 276.478 13.51 276.154 13.21C275.842 12.898 275.494 12.64 275.11 12.436C274.738 12.232 274.39 11.944 274.066 11.572C273.754 11.2 273.598 10.792 273.598 10.348C273.598 9.688 273.856 9.136 274.372 8.692C274.9 8.236 275.59 8.008 276.442 8.008C277.102 8.008 277.756 8.17 278.404 8.494C278.344 8.626 278.242 8.926 278.098 9.394C277.966 9.862 277.864 10.306 277.792 10.726L277.486 10.672C277.558 10.288 277.594 9.922 277.594 9.574C277.594 9.214 277.474 8.938 277.234 8.746C277.006 8.542 276.658 8.44 276.19 8.44ZM282.507 6.208C282.351 6.052 282.273 5.86 282.273 5.632C282.273 5.404 282.351 5.212 282.507 5.056C282.663 4.9 282.855 4.822 283.083 4.822C283.311 4.822 283.503 4.9 283.659 5.056C283.815 5.212 283.893 5.404 283.893 5.632C283.893 5.86 283.815 6.052 283.659 6.208C283.503 6.364 283.311 6.442 283.083 6.442C282.855 6.442 282.663 6.364 282.507 6.208ZM280.473 14.866C280.473 14.23 280.911 12.22 281.787 8.836L280.635 8.926L280.617 8.62C281.445 8.512 282.219 8.362 282.939 8.17L283.191 8.35C282.771 9.598 282.375 10.936 282.003 12.364C281.631 13.792 281.445 14.71 281.445 15.118C281.445 15.514 281.595 15.712 281.895 15.712C282.123 15.712 282.369 15.562 282.633 15.262C282.897 14.95 283.125 14.512 283.317 13.948L283.605 14.02C283.089 15.484 282.417 16.216 281.589 16.216C280.845 16.216 280.473 15.766 280.473 14.866ZM285.753 8.872L285.843 8.53H289.839L289.749 8.872H285.753ZM288.615 6.316L288.867 6.496C288.591 7.336 288.219 8.656 287.751 10.456C287.295 12.256 287.019 13.42 286.923 13.948C286.827 14.464 286.779 14.854 286.779 15.118C286.779 15.514 286.929 15.712 287.229 15.712C287.457 15.712 287.703 15.562 287.967 15.262C288.231 14.95 288.459 14.512 288.651 13.948L288.939 14.02C288.423 15.484 287.751 16.216 286.923 16.216C286.179 16.216 285.807 15.766 285.807 14.866C285.807 14.122 286.251 12.046 287.139 8.638L285.843 8.53C286.503 8.53 287.037 8.374 287.445 8.062C287.853 7.738 288.243 7.156 288.615 6.316ZM293.176 6.208C293.02 6.052 292.942 5.86 292.942 5.632C292.942 5.404 293.02 5.212 293.176 5.056C293.332 4.9 293.524 4.822 293.752 4.822C293.98 4.822 294.172 4.9 294.328 5.056C294.484 5.212 294.562 5.404 294.562 5.632C294.562 5.86 294.484 6.052 294.328 6.208C294.172 6.364 293.98 6.442 293.752 6.442C293.524 6.442 293.332 6.364 293.176 6.208ZM291.142 14.866C291.142 14.23 291.58 12.22 292.456 8.836L291.304 8.926L291.286 8.62C292.114 8.512 292.888 8.362 293.608 8.17L293.86 8.35C293.44 9.598 293.044 10.936 292.672 12.364C292.3 13.792 292.114 14.71 292.114 15.118C292.114 15.514 292.264 15.712 292.564 15.712C292.792 15.712 293.038 15.562 293.302 15.262C293.566 14.95 293.794 14.512 293.986 13.948L294.274 14.02C293.758 15.484 293.086 16.216 292.258 16.216C291.514 16.216 291.142 15.766 291.142 14.866ZM298.817 15.622C299.585 15.622 300.335 15.064 301.067 13.948C301.799 12.832 302.165 11.806 302.165 10.87C302.165 9.934 301.883 9.106 301.319 8.386C301.619 8.134 301.889 8.008 302.129 8.008C302.369 8.008 302.543 8.158 302.651 8.458C302.759 8.758 302.813 9.166 302.813 9.682C302.813 10.186 302.711 10.816 302.507 11.572C302.303 12.328 302.021 13.06 301.661 13.768C301.301 14.464 300.821 15.046 300.221 15.514C299.621 15.982 298.979 16.216 298.295 16.216C297.851 16.216 297.491 16.066 297.215 15.766C296.951 15.454 296.819 15.034 296.819 14.506C296.819 13.978 297.017 13.054 297.413 11.734C297.821 10.414 298.025 9.55 298.025 9.142C298.025 8.722 297.869 8.512 297.557 8.512C297.329 8.512 297.089 8.668 296.837 8.98C296.585 9.28 296.381 9.712 296.225 10.276L295.919 10.204C296.363 8.74 297.005 8.008 297.845 8.008C298.625 8.008 299.015 8.428 299.015 9.268C299.015 9.604 298.829 10.438 298.457 11.77C298.085 13.102 297.899 13.978 297.899 14.398C297.899 15.214 298.205 15.622 298.817 15.622ZM308.685 8.008C309.321 8.008 309.795 8.164 310.107 8.476C310.431 8.776 310.593 9.214 310.593 9.79C310.593 10.354 310.371 10.846 309.927 11.266C309.171 11.986 308.049 12.346 306.561 12.346C306.117 12.346 305.733 12.31 305.409 12.238V11.896C305.829 11.956 306.177 11.986 306.453 11.986C307.449 11.986 308.217 11.734 308.757 11.23C309.309 10.726 309.585 10.174 309.585 9.574C309.585 9.25 309.495 8.98 309.315 8.764C309.147 8.548 308.859 8.44 308.451 8.44C308.055 8.44 307.647 8.626 307.227 8.998C306.819 9.37 306.495 9.832 306.255 10.384C305.775 11.548 305.535 12.556 305.535 13.408C305.535 14.992 306.015 15.784 306.975 15.784C308.163 15.784 309.033 15.136 309.585 13.84L309.873 13.912C309.585 14.644 309.165 15.214 308.613 15.622C308.073 16.018 307.461 16.216 306.777 16.216C306.093 16.216 305.517 15.964 305.049 15.46C304.581 14.956 304.347 14.278 304.347 13.426C304.347 12.574 304.509 11.752 304.833 10.96C305.157 10.156 305.661 9.466 306.345 8.89C307.029 8.302 307.809 8.008 308.685 8.008ZM319.602 15.622C320.37 15.622 321.12 15.064 321.852 13.948C322.584 12.832 322.95 11.806 322.95 10.87C322.95 9.934 322.668 9.106 322.104 8.386C322.404 8.134 322.674 8.008 322.914 8.008C323.154 8.008 323.328 8.158 323.436 8.458C323.544 8.758 323.598 9.166 323.598 9.682C323.598 10.186 323.496 10.816 323.292 11.572C323.088 12.328 322.806 13.06 322.446 13.768C322.086 14.464 321.606 15.046 321.006 15.514C320.406 15.982 319.764 16.216 319.08 16.216C318.636 16.216 318.276 16.066 318 15.766C317.736 15.454 317.604 15.034 317.604 14.506C317.604 13.978 317.802 13.054 318.198 11.734C318.606 10.414 318.81 9.55 318.81 9.142C318.81 8.722 318.654 8.512 318.342 8.512C318.114 8.512 317.874 8.668 317.622 8.98C317.37 9.28 317.166 9.712 317.01 10.276L316.704 10.204C317.148 8.74 317.79 8.008 318.63 8.008C319.41 8.008 319.8 8.428 319.8 9.268C319.8 9.604 319.614 10.438 319.242 11.77C318.87 13.102 318.684 13.978 318.684 14.398C318.684 15.214 318.99 15.622 319.602 15.622ZM325.132 13.39C325.132 12.154 325.492 10.972 326.212 9.844C326.56 9.304 327.016 8.866 327.58 8.53C328.144 8.182 328.786 8.008 329.506 8.008C330.238 8.008 330.832 8.254 331.288 8.746C331.744 9.238 331.972 9.91 331.972 10.762C331.972 11.614 331.816 12.442 331.504 13.246C331.192 14.05 330.7 14.746 330.028 15.334C329.356 15.922 328.6 16.216 327.76 16.216C326.92 16.216 326.272 15.97 325.816 15.478C325.36 14.986 325.132 14.29 325.132 13.39ZM329.362 8.404C328.714 8.404 328.138 8.728 327.634 9.376C327.142 10.024 326.788 10.732 326.572 11.5C326.368 12.268 326.266 12.988 326.266 13.66C326.266 14.32 326.398 14.848 326.662 15.244C326.938 15.628 327.31 15.82 327.778 15.82C328.258 15.82 328.702 15.628 329.11 15.244C329.53 14.86 329.86 14.386 330.1 13.822C330.592 12.67 330.838 11.674 330.838 10.834C330.838 9.982 330.706 9.364 330.442 8.98C330.178 8.596 329.818 8.404 329.362 8.404ZM334.258 8.872L334.348 8.53H338.344L338.254 8.872H334.258ZM337.12 6.316L337.372 6.496C337.096 7.336 336.724 8.656 336.256 10.456C335.8 12.256 335.524 13.42 335.428 13.948C335.332 14.464 335.284 14.854 335.284 15.118C335.284 15.514 335.434 15.712 335.734 15.712C335.962 15.712 336.208 15.562 336.472 15.262C336.736 14.95 336.964 14.512 337.156 13.948L337.444 14.02C336.928 15.484 336.256 16.216 335.428 16.216C334.684 16.216 334.312 15.766 334.312 14.866C334.312 14.122 334.756 12.046 335.644 8.638L334.348 8.53C335.008 8.53 335.542 8.374 335.95 8.062C336.358 7.738 336.748 7.156 337.12 6.316ZM343.444 8.008C344.08 8.008 344.554 8.164 344.866 8.476C345.19 8.776 345.352 9.214 345.352 9.79C345.352 10.354 345.13 10.846 344.686 11.266C343.93 11.986 342.808 12.346 341.32 12.346C340.876 12.346 340.492 12.31 340.168 12.238V11.896C340.588 11.956 340.936 11.986 341.212 11.986C342.208 11.986 342.976 11.734 343.516 11.23C344.068 10.726 344.344 10.174 344.344 9.574C344.344 9.25 344.254 8.98 344.074 8.764C343.906 8.548 343.618 8.44 343.21 8.44C342.814 8.44 342.406 8.626 341.986 8.998C341.578 9.37 341.254 9.832 341.014 10.384C340.534 11.548 340.294 12.556 340.294 13.408C340.294 14.992 340.774 15.784 341.734 15.784C342.922 15.784 343.792 15.136 344.344 13.84L344.632 13.912C344.344 14.644 343.924 15.214 343.372 15.622C342.832 16.018 342.22 16.216 341.536 16.216C340.852 16.216 340.276 15.964 339.808 15.46C339.34 14.956 339.106 14.278 339.106 13.426C339.106 12.574 339.268 11.752 339.592 10.96C339.916 10.156 340.42 9.466 341.104 8.89C341.788 8.302 342.568 8.008 343.444 8.008Z" fill="#6082FA"/>
<path opacity="0.86" d="M242.08 36.868C242.08 35.44 242.476 33.904 243.268 32.26C243.652 31.492 244.168 30.856 244.816 30.352C245.476 29.836 246.202 29.578 246.994 29.578C247.798 29.578 248.434 29.878 248.902 30.478C249.382 31.066 249.622 31.9 249.622 32.98C249.622 34.156 249.364 35.38 248.848 36.652C248.236 38.104 247.45 39.124 246.49 39.712C245.938 40.048 245.296 40.216 244.564 40.216C243.844 40.216 243.25 39.928 242.782 39.352C242.314 38.764 242.08 37.936 242.08 36.868ZM246.886 29.974C246.322 29.974 245.758 30.376 245.194 31.18C244.642 31.972 244.198 32.932 243.862 34.06C243.526 35.188 243.358 36.208 243.358 37.12C243.358 38.02 243.484 38.698 243.736 39.154C243.988 39.61 244.336 39.838 244.78 39.838C245.344 39.838 245.908 39.448 246.472 38.668C247.048 37.876 247.504 36.922 247.84 35.806C248.188 34.69 248.362 33.676 248.362 32.764C248.362 31.84 248.224 31.144 247.948 30.676C247.684 30.208 247.33 29.974 246.886 29.974ZM249.536 41.998C250.316 41.398 250.706 40.768 250.706 40.108C250.706 39.748 250.58 39.454 250.328 39.226C250.388 38.95 250.526 38.71 250.742 38.506C250.97 38.302 251.21 38.2 251.462 38.2C251.954 38.2 252.2 38.446 252.2 38.938C252.2 39.43 251.954 40.012 251.462 40.684C250.982 41.368 250.388 41.89 249.68 42.25L249.536 41.998ZM265.999 33.646C265.999 34.162 265.705 35.11 265.117 36.49C264.541 37.87 264.253 38.752 264.253 39.136C264.253 39.52 264.403 39.712 264.703 39.712C264.931 39.712 265.177 39.562 265.441 39.262C265.705 38.95 265.933 38.512 266.125 37.948L266.413 38.02C265.897 39.484 265.225 40.216 264.397 40.216C263.653 40.216 263.281 39.808 263.281 38.992C263.281 38.644 263.551 37.78 264.091 36.4C264.643 35.02 264.919 34.132 264.919 33.736C264.919 32.98 264.643 32.602 264.091 32.602C263.491 32.602 262.843 33.088 262.147 34.06C261.343 35.224 260.629 37.204 260.005 40L258.745 40.108L260.509 32.836L259.357 32.926L259.339 32.62C260.167 32.512 260.941 32.362 261.661 32.17L261.913 32.35C261.337 33.67 260.833 35.188 260.401 36.904H260.545L260.833 36.112C261.481 34.3 262.183 33.124 262.939 32.584C263.299 32.344 263.593 32.188 263.821 32.116C264.061 32.044 264.355 32.008 264.703 32.008C265.063 32.008 265.369 32.152 265.621 32.44C265.873 32.728 265.999 33.13 265.999 33.646ZM272.406 32.008C273.042 32.008 273.516 32.164 273.828 32.476C274.152 32.776 274.314 33.214 274.314 33.79C274.314 34.354 274.092 34.846 273.648 35.266C272.892 35.986 271.77 36.346 270.282 36.346C269.838 36.346 269.454 36.31 269.13 36.238V35.896C269.55 35.956 269.898 35.986 270.174 35.986C271.17 35.986 271.938 35.734 272.478 35.23C273.03 34.726 273.306 34.174 273.306 33.574C273.306 33.25 273.216 32.98 273.036 32.764C272.868 32.548 272.58 32.44 272.172 32.44C271.776 32.44 271.368 32.626 270.948 32.998C270.54 33.37 270.216 33.832 269.976 34.384C269.496 35.548 269.256 36.556 269.256 37.408C269.256 38.992 269.736 39.784 270.696 39.784C271.884 39.784 272.754 39.136 273.306 37.84L273.594 37.912C273.306 38.644 272.886 39.214 272.334 39.622C271.794 40.018 271.182 40.216 270.498 40.216C269.814 40.216 269.238 39.964 268.77 39.46C268.302 38.956 268.068 38.278 268.068 37.426C268.068 36.574 268.23 35.752 268.554 34.96C268.878 34.156 269.382 33.466 270.066 32.89C270.75 32.302 271.53 32.008 272.406 32.008ZM276.86 38.956L279.722 39.604C280.346 39.748 280.79 39.94 281.054 40.18C281.318 40.432 281.45 40.774 281.45 41.206C281.45 41.902 281.066 42.556 280.298 43.168C279.542 43.792 278.678 44.104 277.706 44.104C276.734 44.104 275.942 43.882 275.33 43.438C274.73 42.994 274.43 42.466 274.43 41.854C274.43 41.434 274.574 41.032 274.862 40.648C275.138 40.264 275.552 39.94 276.104 39.676L276.464 39.784C276.104 39.964 275.828 40.234 275.636 40.594C275.444 40.966 275.348 41.356 275.348 41.764C275.348 42.436 275.57 42.934 276.014 43.258C276.458 43.594 277.028 43.762 277.724 43.762C278.432 43.762 279.08 43.558 279.668 43.15C280.268 42.754 280.568 42.274 280.568 41.71C280.568 41.146 280.202 40.78 279.47 40.612L276.374 39.928C276.026 39.856 275.756 39.694 275.564 39.442C275.372 39.19 275.276 38.884 275.276 38.524C275.276 38.164 275.426 37.834 275.726 37.534C276.026 37.234 276.44 37.084 276.968 37.084H278.786L278.732 37.336H276.968C276.716 37.336 276.512 37.414 276.356 37.57C276.212 37.726 276.14 37.912 276.14 38.128C276.14 38.572 276.38 38.848 276.86 38.956ZM279.884 32.26L279.866 32.008C280.202 32.008 280.484 31.93 280.712 31.774C280.94 31.606 281.054 31.39 281.054 31.126C281.054 30.862 280.862 30.61 280.478 30.37C280.67 29.962 280.898 29.758 281.162 29.758C281.438 29.758 281.642 29.836 281.774 29.992C281.918 30.148 281.99 30.346 281.99 30.586C281.99 31.006 281.798 31.39 281.414 31.738C281.042 32.086 280.532 32.26 279.884 32.26ZM276.59 35.374C276.59 34.486 276.902 33.706 277.526 33.034C278.162 32.35 278.942 32.008 279.866 32.008C280.514 32.008 281.024 32.182 281.396 32.53C281.78 32.866 281.972 33.346 281.972 33.97C281.972 34.978 281.648 35.794 281 36.418C280.352 37.03 279.596 37.336 278.732 37.336C278.072 37.336 277.55 37.168 277.166 36.832C276.782 36.484 276.59 35.998 276.59 35.374ZM279.848 32.35C279.188 32.35 278.648 32.716 278.228 33.448C277.808 34.168 277.598 34.81 277.598 35.374C277.598 35.938 277.7 36.352 277.904 36.616C278.12 36.868 278.402 36.994 278.75 36.994C279.278 36.994 279.782 36.694 280.262 36.094C280.742 35.494 280.982 34.738 280.982 33.826C280.982 33.37 280.874 33.01 280.658 32.746C280.454 32.482 280.184 32.35 279.848 32.35ZM290.897 32.35C290.477 33.598 290.081 34.936 289.709 36.364C289.337 37.792 289.151 38.71 289.151 39.118C289.151 39.514 289.301 39.712 289.601 39.712C289.829 39.712 290.075 39.562 290.339 39.262C290.603 38.95 290.831 38.512 291.023 37.948L291.311 38.02C290.795 39.484 290.123 40.216 289.295 40.216C288.551 40.216 288.179 39.766 288.179 38.866C288.179 38.686 288.209 38.398 288.269 38.002H288.179C287.435 39.478 286.571 40.216 285.587 40.216C285.023 40.216 284.549 39.97 284.165 39.478C283.793 38.974 283.607 38.362 283.607 37.642C283.607 36.91 283.703 36.232 283.895 35.608C284.087 34.984 284.357 34.402 284.705 33.862C285.053 33.31 285.515 32.866 286.091 32.53C286.667 32.182 287.297 32.008 287.981 32.008C288.869 32.008 289.571 32.386 290.087 33.142L290.645 32.17L290.897 32.35ZM286.019 39.676C286.523 39.676 287.033 39.286 287.549 38.506C288.137 37.606 288.683 36.136 289.187 34.096C289.295 33.616 289.379 33.268 289.439 33.052C289.019 32.644 288.533 32.44 287.981 32.44C287.441 32.44 286.955 32.626 286.523 32.998C286.103 33.37 285.773 33.838 285.533 34.402C285.041 35.554 284.795 36.64 284.795 37.66C284.795 38.332 284.903 38.836 285.119 39.172C285.347 39.508 285.647 39.676 286.019 39.676ZM293.453 32.872L293.543 32.53H297.539L297.449 32.872H293.453ZM296.315 30.316L296.567 30.496C296.291 31.336 295.919 32.656 295.451 34.456C294.995 36.256 294.719 37.42 294.623 37.948C294.527 38.464 294.479 38.854 294.479 39.118C294.479 39.514 294.629 39.712 294.929 39.712C295.157 39.712 295.403 39.562 295.667 39.262C295.931 38.95 296.159 38.512 296.351 37.948L296.639 38.02C296.123 39.484 295.451 40.216 294.623 40.216C293.879 40.216 293.507 39.766 293.507 38.866C293.507 38.122 293.951 36.046 294.839 32.638L293.543 32.53C294.203 32.53 294.737 32.374 295.145 32.062C295.553 31.738 295.943 31.156 296.315 30.316ZM300.875 30.208C300.719 30.052 300.641 29.86 300.641 29.632C300.641 29.404 300.719 29.212 300.875 29.056C301.031 28.9 301.223 28.822 301.451 28.822C301.679 28.822 301.871 28.9 302.027 29.056C302.183 29.212 302.261 29.404 302.261 29.632C302.261 29.86 302.183 30.052 302.027 30.208C301.871 30.364 301.679 30.442 301.451 30.442C301.223 30.442 301.031 30.364 300.875 30.208ZM298.841 38.866C298.841 38.23 299.279 36.22 300.155 32.836L299.003 32.926L298.985 32.62C299.813 32.512 300.587 32.362 301.307 32.17L301.559 32.35C301.139 33.598 300.743 34.936 300.371 36.364C299.999 37.792 299.813 38.71 299.813 39.118C299.813 39.514 299.963 39.712 300.263 39.712C300.491 39.712 300.737 39.562 301.001 39.262C301.265 38.95 301.493 38.512 301.685 37.948L301.973 38.02C301.457 39.484 300.785 40.216 299.957 40.216C299.213 40.216 298.841 39.766 298.841 38.866ZM306.516 39.622C307.284 39.622 308.034 39.064 308.766 37.948C309.498 36.832 309.864 35.806 309.864 34.87C309.864 33.934 309.582 33.106 309.018 32.386C309.318 32.134 309.588 32.008 309.828 32.008C310.068 32.008 310.242 32.158 310.35 32.458C310.458 32.758 310.512 33.166 310.512 33.682C310.512 34.186 310.41 34.816 310.206 35.572C310.002 36.328 309.72 37.06 309.36 37.768C309 38.464 308.52 39.046 307.92 39.514C307.32 39.982 306.678 40.216 305.994 40.216C305.55 40.216 305.19 40.066 304.914 39.766C304.65 39.454 304.518 39.034 304.518 38.506C304.518 37.978 304.716 37.054 305.112 35.734C305.52 34.414 305.724 33.55 305.724 33.142C305.724 32.722 305.568 32.512 305.256 32.512C305.028 32.512 304.788 32.668 304.536 32.98C304.284 33.28 304.08 33.712 303.924 34.276L303.618 34.204C304.062 32.74 304.704 32.008 305.544 32.008C306.324 32.008 306.714 32.428 306.714 33.268C306.714 33.604 306.528 34.438 306.156 35.77C305.784 37.102 305.598 37.978 305.598 38.398C305.598 39.214 305.904 39.622 306.516 39.622ZM316.385 32.008C317.021 32.008 317.495 32.164 317.807 32.476C318.131 32.776 318.293 33.214 318.293 33.79C318.293 34.354 318.071 34.846 317.627 35.266C316.871 35.986 315.749 36.346 314.261 36.346C313.817 36.346 313.433 36.31 313.109 36.238V35.896C313.529 35.956 313.877 35.986 314.153 35.986C315.149 35.986 315.917 35.734 316.457 35.23C317.009 34.726 317.285 34.174 317.285 33.574C317.285 33.25 317.195 32.98 317.015 32.764C316.847 32.548 316.559 32.44 316.151 32.44C315.755 32.44 315.347 32.626 314.927 32.998C314.519 33.37 314.195 33.832 313.955 34.384C313.475 35.548 313.235 36.556 313.235 37.408C313.235 38.992 313.715 39.784 314.675 39.784C315.863 39.784 316.733 39.136 317.285 37.84L317.573 37.912C317.285 38.644 316.865 39.214 316.313 39.622C315.773 40.018 315.161 40.216 314.477 40.216C313.793 40.216 313.217 39.964 312.749 39.46C312.281 38.956 312.047 38.278 312.047 37.426C312.047 36.574 312.209 35.752 312.533 34.96C312.857 34.156 313.361 33.466 314.045 32.89C314.729 32.302 315.509 32.008 316.385 32.008ZM327.301 39.622C328.069 39.622 328.819 39.064 329.551 37.948C330.283 36.832 330.649 35.806 330.649 34.87C330.649 33.934 330.367 33.106 329.803 32.386C330.103 32.134 330.373 32.008 330.613 32.008C330.853 32.008 331.027 32.158 331.135 32.458C331.243 32.758 331.297 33.166 331.297 33.682C331.297 34.186 331.195 34.816 330.991 35.572C330.787 36.328 330.505 37.06 330.145 37.768C329.785 38.464 329.305 39.046 328.705 39.514C328.105 39.982 327.463 40.216 326.779 40.216C326.335 40.216 325.975 40.066 325.699 39.766C325.435 39.454 325.303 39.034 325.303 38.506C325.303 37.978 325.501 37.054 325.897 35.734C326.305 34.414 326.509 33.55 326.509 33.142C326.509 32.722 326.353 32.512 326.041 32.512C325.813 32.512 325.573 32.668 325.321 32.98C325.069 33.28 324.865 33.712 324.709 34.276L324.403 34.204C324.847 32.74 325.489 32.008 326.329 32.008C327.109 32.008 327.499 32.428 327.499 33.268C327.499 33.604 327.313 34.438 326.941 35.77C326.569 37.102 326.383 37.978 326.383 38.398C326.383 39.214 326.689 39.622 327.301 39.622ZM332.832 37.39C332.832 36.154 333.192 34.972 333.912 33.844C334.26 33.304 334.716 32.866 335.28 32.53C335.844 32.182 336.486 32.008 337.206 32.008C337.938 32.008 338.532 32.254 338.988 32.746C339.444 33.238 339.672 33.91 339.672 34.762C339.672 35.614 339.516 36.442 339.204 37.246C338.892 38.05 338.4 38.746 337.728 39.334C337.056 39.922 336.3 40.216 335.46 40.216C334.62 40.216 333.972 39.97 333.516 39.478C333.06 38.986 332.832 38.29 332.832 37.39ZM337.062 32.404C336.414 32.404 335.838 32.728 335.334 33.376C334.842 34.024 334.488 34.732 334.272 35.5C334.068 36.268 333.966 36.988 333.966 37.66C333.966 38.32 334.098 38.848 334.362 39.244C334.638 39.628 335.01 39.82 335.478 39.82C335.958 39.82 336.402 39.628 336.81 39.244C337.23 38.86 337.56 38.386 337.8 37.822C338.292 36.67 338.538 35.674 338.538 34.834C338.538 33.982 338.406 33.364 338.142 32.98C337.878 32.596 337.518 32.404 337.062 32.404ZM341.957 32.872L342.047 32.53H346.043L345.953 32.872H341.957ZM344.819 30.316L345.071 30.496C344.795 31.336 344.423 32.656 343.955 34.456C343.499 36.256 343.223 37.42 343.127 37.948C343.031 38.464 342.983 38.854 342.983 39.118C342.983 39.514 343.133 39.712 343.433 39.712C343.661 39.712 343.907 39.562 344.171 39.262C344.435 38.95 344.663 38.512 344.855 37.948L345.143 38.02C344.627 39.484 343.955 40.216 343.127 40.216C342.383 40.216 342.011 39.766 342.011 38.866C342.011 38.122 342.455 36.046 343.343 32.638L342.047 32.53C342.707 32.53 343.241 32.374 343.649 32.062C344.057 31.738 344.447 31.156 344.819 30.316ZM351.144 32.008C351.78 32.008 352.254 32.164 352.566 32.476C352.89 32.776 353.052 33.214 353.052 33.79C353.052 34.354 352.83 34.846 352.386 35.266C351.63 35.986 350.508 36.346 349.02 36.346C348.576 36.346 348.192 36.31 347.868 36.238V35.896C348.288 35.956 348.636 35.986 348.912 35.986C349.908 35.986 350.676 35.734 351.216 35.23C351.768 34.726 352.044 34.174 352.044 33.574C352.044 33.25 351.954 32.98 351.774 32.764C351.606 32.548 351.318 32.44 350.91 32.44C350.514 32.44 350.106 32.626 349.686 32.998C349.278 33.37 348.954 33.832 348.714 34.384C348.234 35.548 347.994 36.556 347.994 37.408C347.994 38.992 348.474 39.784 349.434 39.784C350.622 39.784 351.492 39.136 352.044 37.84L352.332 37.912C352.044 38.644 351.624 39.214 351.072 39.622C350.532 40.018 349.92 40.216 349.236 40.216C348.552 40.216 347.976 39.964 347.508 39.46C347.04 38.956 346.806 38.278 346.806 37.426C346.806 36.574 346.968 35.752 347.292 34.96C347.616 34.156 348.12 33.466 348.804 32.89C349.488 32.302 350.268 32.008 351.144 32.008Z" fill="#6082FA"/>
<path opacity="0.86" d="M214.029 18.9613L213.949 16.9495C213.949 16.5606 214.036 16.2588 214.21 16.0442C214.385 15.8296 214.606 15.7224 214.874 15.7224C215.236 15.7224 215.418 15.9101 215.418 16.2856C215.418 16.3929 215.404 16.5069 215.377 16.6276C215.35 16.7349 215.203 17.0635 214.935 17.6134C214.68 18.1633 214.485 18.6126 214.351 18.9613C214.66 18.7869 215.022 18.5724 215.438 18.3175C216.229 17.8347 216.718 17.5933 216.906 17.5933C217.094 17.5933 217.242 17.6536 217.349 17.7744C217.456 17.8816 217.51 18.0359 217.51 18.2371C217.51 18.4248 217.47 18.5858 217.389 18.7199C217.322 18.8406 217.181 18.9345 216.967 19.0015C216.765 19.0552 216.564 19.0954 216.363 19.1222C216.175 19.1356 215.874 19.1558 215.458 19.1826C215.042 19.2094 214.673 19.2429 214.351 19.2832C214.552 19.5246 214.801 19.7928 215.096 20.0879C215.391 20.3695 215.599 20.5908 215.719 20.7518C215.853 20.9127 215.92 21.0938 215.92 21.2949C215.92 21.4827 215.827 21.6705 215.639 21.8582C215.451 22.046 215.243 22.1399 215.015 22.1399C214.801 22.1399 214.646 22.0594 214.552 21.8985C214.472 21.7375 214.392 21.3821 214.311 20.8322C214.231 20.2689 214.15 19.8129 214.07 19.4642C213.667 20.1214 213.372 20.6109 213.184 20.9328C213.01 21.2547 212.863 21.5028 212.742 21.6772C212.514 21.9856 212.286 22.1399 212.058 22.1399C211.843 22.1399 211.682 22.0795 211.575 21.9588C211.468 21.8381 211.414 21.6973 211.414 21.5364C211.414 21.362 211.481 21.1944 211.615 21.0334C211.749 20.8591 211.904 20.7115 212.078 20.5908C212.252 20.4567 212.521 20.2622 212.883 20.0074C213.258 19.7526 213.587 19.5112 213.868 19.2832C213.573 19.2429 213.258 19.2161 212.923 19.2027C212.588 19.1759 212.326 19.1558 212.138 19.1424C211.951 19.1289 211.77 19.1021 211.595 19.0619C211.273 19.0082 211.112 18.8473 211.112 18.5791C211.112 18.3108 211.2 18.0828 211.374 17.8951C211.548 17.6939 211.729 17.5933 211.917 17.5933C212.105 17.5933 212.286 17.6536 212.46 17.7744C212.635 17.8816 212.876 18.0627 213.184 18.3175C213.493 18.5724 213.775 18.7869 214.029 18.9613Z" fill="#6082FA"/>
<path opacity="0.86" d="M230.214 22.2774V22.5013C231.52 22.9118 232.472 23.5836 233.069 24.5166C233.703 25.4496 234.02 26.8117 234.02 28.6031V35.7125C234.02 37.8397 234.45 39.3698 235.308 40.3028C235.718 40.7133 236.577 41.441 237.883 42.486L237.323 43.3257C236.166 42.7286 235.401 42.3367 235.028 42.1501C234.655 41.9635 234.076 41.6276 233.293 41.1425C232.546 40.6946 232.08 40.3774 231.893 40.1908C231.744 40.0042 231.445 39.687 230.997 39.2392C230.587 38.7913 230.344 38.3995 230.27 38.0636C230.232 37.7651 230.12 37.2799 229.934 36.6081C229.785 35.8991 229.71 34.5369 229.71 32.5216V26.1959C229.71 25.1137 229.486 24.274 229.038 23.6769C228.59 23.0798 227.751 22.7812 226.519 22.7812V21.9975C227.751 21.9975 228.59 21.6989 229.038 21.1018C229.486 20.5047 229.71 19.665 229.71 18.5827V12.257C229.71 10.2418 229.785 8.89827 229.934 8.22652C230.12 7.51744 230.232 7.01362 230.27 6.71507C230.344 6.37919 230.587 5.98733 230.997 5.5395C231.445 5.09166 231.744 4.77444 231.893 4.58784C232.08 4.40124 232.546 4.08403 233.293 3.63619C234.076 3.15104 234.655 2.81516 235.028 2.62856C235.401 2.44196 236.166 2.0501 237.323 1.45299L237.883 2.29268C236.577 3.33764 235.718 4.06537 235.308 4.47588C234.45 5.40888 234.02 6.93898 234.02 9.06621V16.1756C234.02 17.967 233.703 19.3291 233.069 20.2621C232.472 21.1951 231.52 21.8669 230.214 22.2774Z" fill="#6082FA"/>
<path opacity="0.86" d="M79.2601 43.7801V37.9943C79.2601 37.8476 79.1867 37.7742 79.0399 37.7742H78.301V37.4912H79.0714C79.7003 37.4912 80.1405 37.4598 80.392 37.3969V43.8115C80.392 43.9373 80.4654 44.0002 80.6122 44.0002H81.3511V44.2832H78.301V44.0002H79.0399C79.1867 44.0002 79.2601 43.9268 79.2601 43.7801ZM79.2915 35.7618C79.1552 35.6151 79.0871 35.4369 79.0871 35.2273C79.0871 35.0176 79.1552 34.8447 79.2915 34.7084C79.4382 34.5617 79.6164 34.4883 79.826 34.4883C80.0357 34.4883 80.2086 34.5617 80.3449 34.7084C80.4916 34.8447 80.565 35.0176 80.565 35.2273C80.565 35.4369 80.4916 35.6151 80.3449 35.7618C80.2086 35.8981 80.0357 35.9662 79.826 35.9662C79.6164 35.9662 79.4382 35.8981 79.2915 35.7618ZM89.3938 40.2741H83.2308V39.4408H89.3938V40.2741ZM89.3938 42.9468H83.2308V42.1135H89.3938V42.9468ZM91.9601 44.2832V43.9845H93.7996C93.9254 43.9845 93.9987 43.9216 94.0197 43.7958V36.5636C94.0197 36.3016 93.8625 36.1706 93.548 36.1706L91.8029 36.2649L91.7714 35.8876L93.2021 35.6832C94.1036 35.5469 94.8163 35.3792 95.3404 35.1801C95.2355 35.5784 95.1831 36.1758 95.1831 36.9724V43.7644C95.1831 43.9111 95.2617 43.9845 95.419 43.9845H96.8969V44.2832H91.9601Z" fill="#6082FA"/>
<path opacity="0.86" d="M91.0323 4.47069C91.0323 5.00093 90.7302 5.97508 90.126 7.39316C89.5341 8.81123 89.2382 9.71757 89.2382 10.1122C89.2382 10.5068 89.3923 10.7041 89.7006 10.7041C89.9349 10.7041 90.1877 10.5499 90.4589 10.2416C90.7302 9.92103 90.9645 9.47095 91.1618 8.89138L91.4578 8.96537C90.9275 10.4698 90.237 11.222 89.3861 11.222C88.6216 11.222 88.2393 10.8027 88.2393 9.96419C88.2393 9.60659 88.5168 8.71875 89.0717 7.30067C89.6389 5.8826 89.9225 4.9701 89.9225 4.56317C89.9225 3.78631 89.6389 3.39788 89.0717 3.39788C88.4551 3.39788 87.7893 3.89729 87.0741 4.89611C86.2479 6.09223 85.5142 8.12686 84.873 11L83.5782 11.111L85.3909 3.63834L84.2071 3.73082L84.1886 3.41638C85.0394 3.3054 85.8348 3.15126 86.5747 2.95396L86.8336 3.13893C86.2417 4.49535 85.7238 6.05523 85.2799 7.81858H85.4279L85.7238 7.00473C86.3897 5.14273 87.1111 3.93429 87.8879 3.37939C88.2578 3.13277 88.56 2.97246 88.7942 2.89847C89.0409 2.82449 89.343 2.78749 89.7006 2.78749C90.0705 2.78749 90.385 2.93547 90.6439 3.23141C90.9029 3.52736 91.0323 3.94045 91.0323 4.47069Z" fill="#6082FA"/>
<path opacity="0.86" d="M95.4994 26.7687L94.7216 32.063H79.5917L87.4201 23.3815L79.7422 14.2734H93.9438L94.4205 18.2378H93.9187C93.5507 17 93.0656 16.2054 92.4634 15.8541C91.8779 15.4861 91.1754 15.3021 90.3557 15.3021H83.0793L89.4776 22.7793L82.703 30.131H91.6354C92.4885 30.131 93.1659 29.9051 93.6678 29.4535C94.1696 29.0019 94.5961 28.1069 94.9474 26.7687H95.4994Z" fill="#6082FA"/>
</svg>
