<svg width="441" height="56" viewBox="0 0 441 56" fill="none" xmlns="http://www.w3.org/2000/svg">
<path opacity="0.86" d="M71.4556 14.8451L71.8194 14.9361C71.6982 15.6334 71.4784 16.1564 71.16 16.5051L65.3844 22.7809C65.6876 22.7961 66.2257 22.9629 66.9988 23.2812C67.7871 23.5995 68.4011 23.7587 68.8407 23.7587C69.7199 23.7587 70.2656 23.1523 70.4779 21.9396L70.9099 22.0078C70.6977 24.0543 70.0686 25.0776 69.0226 25.0776C68.3859 25.0776 67.6355 24.835 66.7714 24.3499C65.9225 23.8648 65.3237 23.6223 64.9751 23.6223C64.4445 23.6223 64.0352 24.1074 63.7472 25.0776L63.4061 24.9639C63.6638 24.1453 63.9518 23.5541 64.2702 23.1902L70.0913 16.8461C69.8336 16.831 69.3561 16.687 68.6588 16.4141C67.9614 16.1412 67.4005 16.0048 66.9761 16.0048C66.0969 16.0048 65.5511 16.5809 65.3389 17.7329L64.9069 17.6647C65.1191 15.694 65.7482 14.7087 66.7942 14.7087C67.446 14.7087 68.1509 14.9209 68.9089 15.3454C69.682 15.7698 70.1747 15.9821 70.3869 15.9821C70.8872 15.9821 71.2434 15.6031 71.4556 14.8451Z" fill="#6082FA"/>
<path opacity="0.86" d="M76.227 5.76214C75.7718 5.76214 75.4262 5.90544 75.1902 6.19203C74.9542 6.47862 74.8362 6.82843 74.8362 7.24146C74.8362 7.35946 74.8488 7.46904 74.8741 7.57019C74.7139 7.69663 74.5158 7.75985 74.2798 7.75985C74.0691 7.75985 73.9637 7.62498 73.9637 7.35525C73.9637 6.8495 74.1703 6.41119 74.5833 6.0403C74.9963 5.66942 75.5273 5.48398 76.1764 5.48398C76.8254 5.48398 77.3017 5.61463 77.6051 5.87594C77.917 6.12881 78.0729 6.44912 78.0729 6.83686C78.0729 7.2246 77.9971 7.54069 77.8454 7.78514C77.7021 8.02115 77.5883 8.20238 77.504 8.32882C77.4197 8.45525 77.289 8.61119 77.112 8.79663C76.935 8.97364 76.8001 9.10851 76.7074 9.20123C76.6147 9.28552 76.463 9.42039 76.2523 9.60583C76.0415 9.79127 75.9067 9.91349 75.8477 9.9725L73.6224 12.0081H76.5178C76.7032 12.0081 76.8339 11.9154 76.9097 11.73L77.3017 10.63H77.5672L77.4408 11.2369C77.289 11.9702 77.2132 12.5307 77.2132 12.9185C76.9519 12.8426 76.5009 12.8047 75.8603 12.8047H72.3074L75.7086 9.64376C76.2227 9.17173 76.5852 8.6702 76.7959 8.13916C77.0151 7.59969 77.1247 7.14452 77.1247 6.77364C77.1247 6.09931 76.8254 5.76214 76.227 5.76214Z" fill="#6082FA"/>
<path opacity="0.86" d="M82.0936 20.7748L80.6396 24.7702C80.7239 25.2422 80.8588 25.6005 81.0442 25.8449C81.2381 26.0894 81.432 26.2116 81.6258 26.2116C81.9799 26.2116 82.2074 25.8702 82.3086 25.1874H82.5362L82.5109 25.9334C82.5109 26.2453 82.414 26.5192 82.2201 26.7553C82.0346 26.9913 81.8323 27.1093 81.6132 27.1093C81.217 27.1093 80.804 26.5235 80.3741 25.3518C79.9021 26.1526 79.4553 26.6541 79.0339 26.8564C78.6208 27.0503 78.191 27.1472 77.7442 27.1472C77.0277 27.1472 76.4208 26.8817 75.9235 26.3507C75.4346 25.8196 75.1902 25.0526 75.1902 24.0495C75.1902 22.8947 75.4641 22.0349 76.012 21.4702C76.5599 20.897 77.209 20.6104 77.9592 20.6104C78.0182 20.6104 78.0814 20.6146 78.1488 20.6231C78.2162 20.6315 78.2668 20.6357 78.3005 20.6357C79.3289 20.8127 79.9484 21.6093 80.1592 23.0254L80.981 20.7748H82.0936ZM79.8178 24.1001C79.6323 22.8526 79.371 22.0434 79.0339 21.6725C78.7051 21.2932 78.3047 21.1035 77.8327 21.1035C77.4787 21.1035 77.1668 21.3606 76.8971 21.8748C76.6273 22.3805 76.4925 23.0591 76.4925 23.9104C76.4925 24.8966 76.6273 25.6131 76.8971 26.0599C77.1668 26.4982 77.504 26.7173 77.9086 26.7173C78.5408 26.7173 79.0507 26.1905 79.4385 25.1369L79.8178 24.1001ZM86.0385 28.7403H85.6212L88.7695 19.6116H89.1994L86.0385 28.7403ZM93.414 20.7621C92.9588 20.7621 92.6132 20.9054 92.3772 21.192C92.1412 21.4786 92.0232 21.8284 92.0232 22.2415C92.0232 22.3595 92.0358 22.469 92.0611 22.5702C91.901 22.6966 91.7029 22.7598 91.4669 22.7598C91.2561 22.7598 91.1508 22.625 91.1508 22.3552C91.1508 21.8495 91.3573 21.4112 91.7703 21.0403C92.1834 20.6694 92.7144 20.484 93.3634 20.484C94.0125 20.484 94.4887 20.6146 94.7922 20.8759C95.1041 21.1288 95.26 21.4491 95.26 21.8369C95.26 22.2246 95.1841 22.5407 95.0324 22.7851C94.8891 23.0212 94.7753 23.2024 94.691 23.3288C94.6067 23.4553 94.4761 23.6112 94.2991 23.7966C94.1221 23.9736 93.9872 24.1085 93.8945 24.2012C93.8017 24.2855 93.65 24.4204 93.4393 24.6058C93.2286 24.7913 93.0937 24.9135 93.0347 24.9725L90.8094 27.0081H93.7048C93.8903 27.0081 94.0209 26.9154 94.0968 26.73L94.4887 25.63H94.7542L94.6278 26.2369C94.4761 26.9702 94.4002 27.5307 94.4002 27.9185C94.1389 27.8426 93.688 27.8047 93.0473 27.8047H89.4945L92.8956 24.6438C93.4098 24.1717 93.7722 23.6702 93.983 23.1392C94.2021 22.5997 94.3117 22.1445 94.3117 21.7736C94.3117 21.0993 94.0125 20.7621 93.414 20.7621Z" fill="#6082FA"/>
<path opacity="0.86" d="M70.1205 34.0656C69.4622 34.0656 68.9624 34.2728 68.6211 34.6873C68.2798 35.1017 68.1092 35.6076 68.1092 36.2049C68.1092 36.3755 68.1275 36.534 68.164 36.6803C67.9324 36.8631 67.646 36.9545 67.3047 36.9545C66.9999 36.9545 66.8476 36.7595 66.8476 36.3694C66.8476 35.6381 67.1462 35.0042 67.7435 34.4679C68.3408 33.9315 69.1087 33.6633 70.0473 33.6633C70.9859 33.6633 71.6746 33.8523 72.1135 34.2302C72.5645 34.5958 72.79 35.0591 72.79 35.6198C72.79 36.1805 72.6803 36.6376 72.4609 36.9911C72.2536 37.3324 72.0891 37.5945 71.9672 37.7773C71.8453 37.9602 71.6563 38.1857 71.4004 38.4539C71.1444 38.7098 70.9493 38.9049 70.8153 39.039C70.6812 39.1608 70.4618 39.3559 70.157 39.6241C69.8523 39.8922 69.6572 40.069 69.5719 40.1543L66.3539 43.0981H70.541C70.8092 43.0981 70.9981 42.964 71.1078 42.6958L71.6746 41.1051H72.0586L71.8758 41.9827C71.6563 43.0432 71.5466 43.8538 71.5466 44.4146C71.1688 44.3049 70.5166 44.25 69.5902 44.25H64.4523L69.3708 39.6789C70.1144 38.9963 70.6385 38.271 70.9433 37.5031C71.2602 36.7229 71.4186 36.0647 71.4186 35.5284C71.4186 34.5532 70.9859 34.0656 70.1205 34.0656Z" fill="#6082FA"/>
<path opacity="0.86" d="M79.1875 41.9471C79.1875 42.2965 78.9884 42.9385 78.5902 43.873C78.2001 44.8076 78.0051 45.4049 78.0051 45.6649C78.0051 45.9249 78.1067 46.055 78.3098 46.055C78.4642 46.055 78.6308 45.9534 78.8096 45.7502C78.9884 45.5389 79.1428 45.2423 79.2728 44.8604L79.4679 44.9091C79.1184 45.9006 78.6633 46.3963 78.1026 46.3963C77.5988 46.3963 77.3469 46.12 77.3469 45.5674C77.3469 45.3317 77.5297 44.7466 77.8954 43.8121C78.2692 42.8775 78.4561 42.2762 78.4561 42.008C78.4561 41.4961 78.2692 41.2401 77.8954 41.2401C77.4891 41.2401 77.0503 41.5692 76.5789 42.2274C76.0345 43.0157 75.5509 44.3566 75.1284 46.25L74.2751 46.3231L75.4697 41.3985L74.6895 41.4595L74.6774 41.2523C75.2381 41.1791 75.7622 41.0776 76.2498 40.9475L76.4205 41.0694C76.0304 41.9633 75.6891 42.9913 75.3965 44.1534H75.4941L75.6891 43.617C76.1279 42.39 76.6033 41.5936 77.1153 41.2279C77.3591 41.0654 77.5582 40.9597 77.7126 40.911C77.8751 40.8622 78.0742 40.8378 78.3098 40.8378C78.5536 40.8378 78.7609 40.9353 78.9315 41.1304C79.1022 41.3254 79.1875 41.5976 79.1875 41.9471Z" fill="#6082FA"/>
<path opacity="0.86" d="M53.3045 22.2139V26.39H57.5053V27.6996H53.3045V31.9004H51.9949V27.6996H47.8188V26.39H51.9949V22.2139H53.3045Z" fill="#6082FA"/>
<path opacity="0.86" d="M107.602 19.7429V23.9189H111.803V25.2286H107.602V29.4294H106.292V25.2286H102.116V23.9189H106.292V19.7429H107.602ZM111.803 31.9004H102.116V30.5907H111.803V31.9004Z" fill="#6082FA"/>
<line x1="61.0378" y1="29.9989" x2="95.4681" y2="29.9989" stroke="#6082FA" stroke-width="1.61154"/>
<path opacity="0.86" d="M35.4361 20.3545L35.7821 20.6016C34.9914 22.4137 34.2995 24.4976 33.7064 26.8533H33.9041L34.2995 25.7661C35.6668 22.0101 37.2318 20.1321 38.9944 20.1321C39.7028 20.1321 40.3041 20.4781 40.7983 21.17C41.309 21.8618 41.5643 22.702 41.5643 23.6904C41.5643 24.6788 41.4325 25.6013 41.1689 26.458C40.9218 27.2981 40.5594 28.0889 40.0817 28.8302C39.604 29.555 38.978 30.148 38.2037 30.6093C37.4294 31.0706 36.5728 31.3012 35.6338 31.3012C34.2006 31.3012 33.0804 30.667 32.2732 29.3985L32.4462 28.9784C33.2369 30.181 34.2748 30.7823 35.5597 30.7823C36.301 30.7823 36.9599 30.5352 37.5365 30.041C38.1296 29.5468 38.5826 28.929 38.8956 28.1877C39.5216 26.6721 39.8346 25.1895 39.8346 23.7398C39.8346 22.8997 39.711 22.249 39.4639 21.7877C39.2333 21.31 38.9285 21.0711 38.5496 21.0711C37.7754 21.0711 36.9023 21.8207 35.9303 23.3198C34.9749 24.8188 34.11 27.1581 33.3358 30.3375L31.8531 36.441L30.1234 36.5892L33.8547 21.2688L32.2732 21.3923L32.2485 20.9723C33.3852 20.824 34.4477 20.6181 35.4361 20.3545Z" fill="#6082FA"/>
<path opacity="0.86" d="M34.0199 19.0384L38.0482 16.4728L42.0286 19.0384C42.2684 19.0384 42.8678 18.8466 42.9158 18.7027L38.7675 14.7703C38.4798 14.6504 37.5926 14.6504 37.3049 14.7703L33.1566 18.7027C33.2046 18.8466 33.7801 19.0145 34.0199 19.0384Z" fill="#6082FA"/>
<path opacity="0.86" d="M339.044 33.729H338.08L344.233 15.8881H345.221L339.044 33.729ZM350.221 20.3359C349.644 21.9504 349.356 23.6554 349.356 25.451C349.356 27.2466 349.644 28.9599 350.221 30.5907C350.798 32.2052 351.621 33.4489 352.692 34.322L352.445 34.6927C350.814 33.836 349.554 32.5758 348.664 30.912C347.775 29.2317 347.33 27.4113 347.33 25.451C347.33 23.4906 347.775 21.6785 348.664 20.0147C349.554 18.3344 350.814 17.0659 352.445 16.2093L352.692 16.58C351.621 17.4531 350.798 18.7051 350.221 20.3359ZM355.487 31.9004V31.4309H358.378C358.576 31.4309 358.691 31.3321 358.724 31.1344V19.7676C358.724 19.3558 358.477 19.1498 357.983 19.1498L355.24 19.2981L355.19 18.7051L357.439 18.3838C358.856 18.1697 359.976 17.9061 360.8 17.5931C360.635 18.2191 360.553 19.1581 360.553 20.4101V31.0849C360.553 31.3156 360.676 31.4309 360.923 31.4309H363.246V31.9004H355.487ZM372.831 22.2139V26.39H377.032V27.6996H372.831V31.9004H371.521V27.6996H367.345V26.39H371.521V22.2139H372.831Z" fill="#6082FA"/>
<path opacity="0.86" d="M436.587 30.5907C437.164 28.9599 437.452 27.2466 437.452 25.451C437.452 23.6554 437.164 21.9504 436.587 20.3359C436.011 18.7051 435.187 17.4531 434.116 16.58L434.363 16.2093C435.994 17.0659 437.254 18.3344 438.144 20.0147C439.034 21.6785 439.478 23.4906 439.478 25.451C439.478 27.4113 439.034 29.2317 438.144 30.912C437.254 32.5758 435.994 33.836 434.363 34.6927L434.116 34.322C435.187 33.4489 436.011 32.2052 436.587 30.5907Z" fill="#6082FA"/>
<path opacity="0.86" d="M23.1593 15.0893C22.0949 18.0698 21.5626 21.2176 21.5626 24.5326C21.5626 27.8477 22.0949 31.0107 23.1593 34.0216C24.2238 37.0021 25.7445 39.2983 27.7213 40.9102L27.2651 41.5945C24.2542 40.013 21.9276 37.6864 20.2853 34.6147C18.6429 31.5125 17.8218 28.1518 17.8218 24.5326C17.8218 20.9134 18.6429 17.568 20.2853 14.4962C21.9276 11.394 24.2542 9.05221 27.2651 7.47072L27.7213 8.15502C25.7445 9.76693 24.2238 12.0783 23.1593 15.0893Z" fill="#6082FA"/>
<path opacity="0.86" d="M328.428 34.0216C329.492 31.0107 330.025 27.8477 330.025 24.5326C330.025 21.2176 329.492 18.0698 328.428 15.0893C327.363 12.0783 325.843 9.76693 323.866 8.15502L324.322 7.47072C327.333 9.05221 329.66 11.394 331.302 14.4962C332.944 17.568 333.765 20.9134 333.765 24.5326C333.765 28.1518 332.944 31.5125 331.302 34.6147C329.66 37.6864 327.333 40.013 324.322 41.5945L323.866 40.9102C325.843 39.2983 327.363 37.0021 328.428 34.0216Z" fill="#6082FA"/>
<path opacity="0.86" d="M245.875 21.1535L246.286 21.2563C246.149 22.0446 245.9 22.6358 245.54 23.0299L239.011 30.1244C239.354 30.1415 239.962 30.33 240.836 30.6899C241.728 31.0498 242.422 31.2297 242.919 31.2297C243.912 31.2297 244.529 30.5442 244.769 29.1733L245.258 29.2504C245.018 31.5639 244.307 32.7206 243.124 32.7206C242.404 32.7206 241.556 32.4464 240.579 31.898C239.62 31.3497 238.943 31.0755 238.549 31.0755C237.949 31.0755 237.486 31.6238 237.161 32.7206L236.775 32.592C237.066 31.6667 237.392 30.9984 237.752 30.5871L244.332 23.4155C244.041 23.3984 243.501 23.2356 242.713 22.9271C241.925 22.6186 241.291 22.4644 240.811 22.4644C239.817 22.4644 239.2 23.1156 238.96 24.418L238.472 24.3409C238.712 22.1131 239.423 20.9993 240.605 20.9993C241.342 20.9993 242.139 21.2392 242.996 21.719C243.87 22.1988 244.427 22.4387 244.666 22.4387C245.232 22.4387 245.635 22.0103 245.875 21.1535Z" fill="#6082FA"/>
<path opacity="0.86" d="M250.446 15.6758C250.01 15.6758 249.68 15.8128 249.454 16.087C249.228 16.3611 249.115 16.6957 249.115 17.0908C249.115 17.2036 249.127 17.3084 249.152 17.4052C248.998 17.5261 248.809 17.5866 248.583 17.5866C248.382 17.5866 248.281 17.4576 248.281 17.1996C248.281 16.7158 248.478 16.2966 248.873 15.9418C249.269 15.5871 249.776 15.4097 250.397 15.4097C251.018 15.4097 251.474 15.5347 251.764 15.7846C252.062 16.0265 252.211 16.3329 252.211 16.7038C252.211 17.0746 252.139 17.377 251.994 17.6108C251.857 17.8366 251.748 18.0099 251.667 18.1308C251.587 18.2518 251.462 18.4009 251.292 18.5783C251.123 18.7476 250.994 18.8766 250.905 18.9653C250.817 19.046 250.671 19.175 250.47 19.3523C250.268 19.5297 250.139 19.6466 250.083 19.7031L247.954 21.6502H250.724C250.901 21.6502 251.026 21.5615 251.099 21.3841L251.474 20.3319H251.728L251.607 20.9125C251.462 21.6139 251.389 22.1501 251.389 22.521C251.139 22.4484 250.708 22.4121 250.095 22.4121H246.697L249.95 19.3886C250.442 18.9371 250.788 18.4574 250.99 17.9494C251.2 17.4334 251.304 16.998 251.304 16.6433C251.304 15.9983 251.018 15.6758 250.446 15.6758Z" fill="#6082FA"/>
<path opacity="0.86" d="M256.057 29.6879L254.666 33.5096C254.747 33.9611 254.876 34.3037 255.053 34.5375C255.239 34.7714 255.424 34.8883 255.61 34.8883C255.948 34.8883 256.166 34.5617 256.263 33.9087H256.481L256.456 34.6222C256.456 34.9205 256.364 35.1826 256.178 35.4083C256.001 35.6341 255.807 35.7469 255.598 35.7469C255.219 35.7469 254.824 35.1866 254.412 34.0659C253.961 34.8318 253.534 35.3116 253.131 35.5051C252.735 35.6905 252.324 35.7832 251.897 35.7832C251.212 35.7832 250.631 35.5292 250.155 35.0213C249.688 34.5134 249.454 33.7797 249.454 32.8202C249.454 31.7156 249.716 30.8932 250.24 30.353C250.764 29.8048 251.385 29.5306 252.103 29.5306C252.159 29.5306 252.219 29.5347 252.284 29.5427C252.348 29.5508 252.397 29.5548 252.429 29.5548C253.413 29.7241 254.005 30.4861 254.207 31.8406L254.993 29.6879H256.057ZM253.88 32.8686C253.703 31.6753 253.453 30.9013 253.131 30.5465C252.816 30.1837 252.433 30.0023 251.982 30.0023C251.643 30.0023 251.345 30.2482 251.087 30.74C250.829 31.2238 250.7 31.8728 250.7 32.6872C250.7 33.6305 250.829 34.3158 251.087 34.7431C251.345 35.1624 251.667 35.372 252.054 35.372C252.659 35.372 253.147 34.8681 253.518 33.8603L253.88 32.8686ZM259.831 37.3071H259.431L262.443 28.5752H262.854L259.831 37.3071ZM266.885 29.6758C266.45 29.6758 266.119 29.8128 265.894 30.087C265.668 30.3611 265.555 30.6957 265.555 31.0908C265.555 31.2036 265.567 31.3084 265.591 31.4052C265.438 31.5261 265.249 31.5866 265.023 31.5866C264.821 31.5866 264.721 31.4576 264.721 31.1996C264.721 30.7158 264.918 30.2966 265.313 29.9418C265.708 29.5871 266.216 29.4097 266.837 29.4097C267.458 29.4097 267.913 29.5347 268.204 29.7846C268.502 30.0265 268.651 30.3329 268.651 30.7038C268.651 31.0746 268.579 31.377 268.433 31.6108C268.296 31.8366 268.188 32.0099 268.107 32.1308C268.026 32.2518 267.901 32.4009 267.732 32.5783C267.563 32.7476 267.434 32.8766 267.345 32.9653C267.256 33.046 267.111 33.175 266.91 33.3523C266.708 33.5297 266.579 33.6466 266.523 33.7031L264.394 35.6502H267.164C267.341 35.6502 267.466 35.5615 267.539 35.3841L267.913 34.3319H268.167L268.046 34.9125C267.901 35.6139 267.829 36.1501 267.829 36.521C267.579 36.4484 267.147 36.4121 266.535 36.4121H263.136L266.39 33.3886C266.881 32.9371 267.228 32.4574 267.43 31.9494C267.639 31.4334 267.744 30.998 267.744 30.6433C267.744 29.9983 267.458 29.6758 266.885 29.6758Z" fill="#6082FA"/>
<path opacity="0.86" d="M389.744 18.6945L390.155 18.7973C390.018 19.5856 389.769 20.1768 389.41 20.5709L382.881 27.6654C383.223 27.6825 383.832 27.871 384.706 28.2309C385.597 28.5908 386.291 28.7707 386.788 28.7707C387.782 28.7707 388.398 28.0853 388.638 26.7143L389.127 26.7915C388.887 29.1049 388.176 30.2616 386.993 30.2616C386.274 30.2616 385.425 29.9874 384.449 29.439C383.489 28.8907 382.812 28.6165 382.418 28.6165C381.818 28.6165 381.355 29.1648 381.03 30.2616L380.644 30.1331C380.936 29.2077 381.261 28.5394 381.621 28.1281L388.201 20.9565C387.91 20.9394 387.37 20.7766 386.582 20.4681C385.794 20.1597 385.16 20.0054 384.68 20.0054C383.686 20.0054 383.069 20.6566 382.829 21.959L382.341 21.8819C382.581 19.6541 383.292 18.5403 384.474 18.5403C385.211 18.5403 386.008 18.7802 386.865 19.26C387.739 19.7398 388.296 19.9797 388.536 19.9797C389.101 19.9797 389.504 19.5513 389.744 18.6945Z" fill="#6082FA"/>
<path opacity="0.86" d="M394.315 13.2168C393.879 13.2168 393.549 13.3538 393.323 13.628C393.097 13.9021 392.984 14.2367 392.984 14.6318C392.984 14.7447 392.997 14.8495 393.021 14.9462C392.868 15.0672 392.678 15.1276 392.452 15.1276C392.251 15.1276 392.15 14.9986 392.15 14.7406C392.15 14.2569 392.348 13.8376 392.743 13.4828C393.138 13.1281 393.646 12.9507 394.266 12.9507C394.887 12.9507 395.343 13.0757 395.633 13.3256C395.931 13.5675 396.081 13.8739 396.081 14.2448C396.081 14.6156 396.008 14.918 395.863 15.1518C395.726 15.3776 395.617 15.5509 395.536 15.6719C395.456 15.7928 395.331 15.942 395.161 16.1193C394.992 16.2886 394.863 16.4177 394.774 16.5063C394.686 16.587 394.541 16.716 394.339 16.8933C394.137 17.0707 394.008 17.1876 393.952 17.2441L391.823 19.1912H394.593C394.77 19.1912 394.895 19.1025 394.968 18.9251L395.343 17.873H395.597L395.476 18.4535C395.331 19.1549 395.258 19.6911 395.258 20.062C395.008 19.9894 394.577 19.9531 393.964 19.9531H390.566L393.819 16.9296C394.311 16.4781 394.657 15.9984 394.859 15.4904C395.069 14.9744 395.173 14.5391 395.173 14.1843C395.173 13.5393 394.887 13.2168 394.315 13.2168Z" fill="#6082FA"/>
<path opacity="0.86" d="M399.926 27.2289L398.536 31.0506C398.616 31.5021 398.745 31.8447 398.923 32.0786C399.108 32.3124 399.293 32.4293 399.479 32.4293C399.818 32.4293 400.035 32.1027 400.132 31.4497H400.35L400.326 32.1632C400.326 32.4615 400.233 32.7236 400.047 32.9493C399.87 33.1751 399.676 33.288 399.467 33.288C399.088 33.288 398.693 32.7276 398.282 31.6069C397.83 32.3728 397.403 32.8526 397 33.0461C396.605 33.2315 396.193 33.3242 395.766 33.3242C395.081 33.3242 394.5 33.0703 394.025 32.5623C393.557 32.0544 393.323 31.3207 393.323 30.3612C393.323 29.2566 393.585 28.4342 394.109 27.894C394.633 27.3458 395.254 27.0717 395.972 27.0717C396.028 27.0717 396.089 27.0757 396.153 27.0837C396.218 27.0918 396.266 27.0958 396.298 27.0958C397.282 27.2652 397.874 28.0271 398.076 29.3816L398.862 27.2289H399.926ZM397.749 30.4096C397.572 29.2163 397.322 28.4423 397 28.0875C396.685 27.7247 396.302 27.5433 395.851 27.5433C395.512 27.5433 395.214 27.7892 394.956 28.281C394.698 28.7648 394.569 29.4139 394.569 30.2282C394.569 31.1715 394.698 31.8568 394.956 32.2842C395.214 32.7034 395.536 32.913 395.923 32.913C396.528 32.913 397.016 32.4091 397.387 31.4013L397.749 30.4096ZM403.7 34.8481H403.301L406.312 26.1162H406.723L403.7 34.8481ZM410.755 27.2168C410.319 27.2168 409.989 27.3538 409.763 27.628C409.537 27.9021 409.424 28.2367 409.424 28.6318C409.424 28.7447 409.436 28.8495 409.461 28.9462C409.307 29.0672 409.118 29.1276 408.892 29.1276C408.691 29.1276 408.59 28.9986 408.59 28.7406C408.59 28.2569 408.787 27.8376 409.182 27.4828C409.577 27.1281 410.085 26.9507 410.706 26.9507C411.327 26.9507 411.783 27.0757 412.073 27.3256C412.371 27.5675 412.52 27.8739 412.52 28.2448C412.52 28.6156 412.448 28.918 412.303 29.1518C412.166 29.3776 412.057 29.5509 411.976 29.6719C411.895 29.7928 411.77 29.942 411.601 30.1193C411.432 30.2886 411.303 30.4177 411.214 30.5063C411.125 30.587 410.98 30.716 410.779 30.8933C410.577 31.0707 410.448 31.1876 410.392 31.2441L408.263 33.1912H411.033C411.21 33.1912 411.335 33.1025 411.408 32.9251L411.783 31.873H412.037L411.916 32.4535C411.77 33.1549 411.698 33.6911 411.698 34.062C411.448 33.9894 411.017 33.9531 410.404 33.9531H407.005L410.259 30.9296C410.751 30.4781 411.097 29.9984 411.299 29.4904C411.508 28.9744 411.613 28.5391 411.613 28.1843C411.613 27.5393 411.327 27.2168 410.755 27.2168Z" fill="#6082FA"/>
<path opacity="0.86" d="M130.442 14.3003L130.916 14.4189C130.758 15.3285 130.471 16.0106 130.056 16.4654L122.523 24.6513C122.918 24.6711 123.62 24.8886 124.629 25.3039C125.657 25.7191 126.458 25.9267 127.031 25.9267C128.178 25.9267 128.89 25.1358 129.166 23.554L129.73 23.6429C129.453 26.3123 128.633 27.6469 127.268 27.6469C126.438 27.6469 125.459 27.3306 124.332 26.6978C123.225 26.0651 122.444 25.7487 121.989 25.7487C121.297 25.7487 120.763 26.3815 120.387 27.6469L119.942 27.4986C120.279 26.4309 120.654 25.6598 121.069 25.1852L128.662 16.9103C128.326 16.8905 127.703 16.7027 126.794 16.3468C125.884 15.9909 125.153 15.8129 124.599 15.8129C123.452 15.8129 122.74 16.5643 122.463 18.067L121.9 17.978C122.177 15.4076 122.997 14.1223 124.362 14.1223C125.212 14.1223 126.131 14.3992 127.12 14.9528C128.128 15.5064 128.771 15.7833 129.048 15.7833C129.7 15.7833 130.165 15.2889 130.442 14.3003Z" fill="#6082FA"/>
<path opacity="0.86" d="M144.578 22.1216L142.682 27.333C142.792 27.9487 142.968 28.4159 143.209 28.7348C143.462 29.0536 143.715 29.213 143.968 29.213C144.43 29.213 144.727 28.7678 144.859 27.8772H145.156L145.123 28.8502C145.123 29.257 144.996 29.6144 144.743 29.9222C144.501 30.23 144.237 30.384 143.952 30.384C143.435 30.384 142.896 29.6198 142.335 28.0916C141.72 29.1361 141.137 29.7903 140.587 30.0541C140.049 30.307 139.488 30.4334 138.905 30.4334C137.971 30.4334 137.179 30.0871 136.53 29.3945C135.893 28.7018 135.574 27.7013 135.574 26.393C135.574 24.8867 135.931 23.7653 136.646 23.0286C137.36 22.281 138.207 21.9072 139.185 21.9072C139.262 21.9072 139.345 21.9127 139.433 21.9237C139.521 21.9347 139.587 21.9402 139.631 21.9402C140.972 22.1711 141.78 23.21 142.055 25.0571L143.127 22.1216H144.578ZM141.61 26.4589C141.368 24.8317 141.027 23.7763 140.587 23.2925C140.159 22.7977 139.636 22.5504 139.021 22.5504C138.559 22.5504 138.152 22.8857 137.8 23.5564C137.448 24.216 137.272 25.1011 137.272 26.2115C137.272 27.4979 137.448 28.4324 137.8 29.0151C138.152 29.5869 138.592 29.8727 139.12 29.8727C139.944 29.8727 140.609 29.1856 141.115 27.8112L141.61 26.4589ZM149.724 32.5114H149.18L153.286 20.6043H153.847L149.724 32.5114ZM159.344 22.1051C158.75 22.1051 158.3 22.292 157.992 22.6658C157.684 23.0396 157.53 23.4959 157.53 24.0346C157.53 24.1886 157.546 24.3315 157.579 24.4634C157.37 24.6283 157.112 24.7108 156.804 24.7108C156.529 24.7108 156.392 24.5349 156.392 24.1831C156.392 23.5234 156.661 22.9517 157.2 22.4679C157.739 21.9841 158.431 21.7423 159.278 21.7423C160.125 21.7423 160.746 21.9127 161.142 22.2535C161.548 22.5833 161.752 23.0011 161.752 23.5069C161.752 24.0126 161.653 24.4249 161.455 24.7438C161.268 25.0516 161.12 25.288 161.01 25.4529C160.9 25.6178 160.729 25.8212 160.498 26.0631C160.268 26.294 160.092 26.4699 159.971 26.5909C159.85 26.7008 159.652 26.8767 159.377 27.1186C159.102 27.3605 158.926 27.5199 158.849 27.5969L155.947 30.252H159.723C159.965 30.252 160.136 30.1311 160.235 29.8892L160.746 28.4544H161.092L160.927 29.246C160.729 30.2026 160.63 30.9337 160.63 31.4394C160.29 31.3405 159.701 31.291 158.866 31.291H154.232L158.668 27.1681C159.338 26.5524 159.811 25.8982 160.086 25.2055C160.372 24.5019 160.515 23.9082 160.515 23.4244C160.515 22.5449 160.125 22.1051 159.344 22.1051Z" fill="#6082FA"/>
<path opacity="0.86" d="M177.737 22.4153V33.5142C177.737 33.6682 177.814 33.7451 177.968 33.7451H179.238V34.042H177.935C177.275 34.042 176.814 34.0749 176.55 34.1409V21.7886C176.814 21.8545 177.275 21.8875 177.935 21.8875H179.238V22.1844H177.968C177.814 22.1844 177.737 22.2613 177.737 22.4153Z" fill="#6082FA"/>
<path opacity="0.86" d="M166.348 35.948H164.331L162.551 21.8302H164.865L166.259 33.5456L176.076 11.4495H181.266L181.029 12.5469H176.758L166.348 35.948Z" fill="#6082FA"/>
<path opacity="0.86" d="M273.428 33.4977H272.785L276.892 21.5907H277.551L273.428 33.4977ZM283.362 22.7286H283.906V29.5562H285.292V30.0674H283.906V31.7661C283.906 31.898 283.989 31.964 284.154 31.964H285.292V32.2773H281.317V31.964H282.455C282.609 31.964 282.686 31.887 282.686 31.7331V30.0674H278.134L283.362 22.7286ZM279.074 29.5562H282.686V24.4932L279.074 29.5562ZM293.552 27.4617V31.7826C293.552 31.9145 293.629 31.9805 293.783 31.9805H294.558V32.2773H291.59V31.9805H292.134C292.288 31.9805 292.365 31.9145 292.365 31.7826V27.2473C292.365 26.6866 292.238 26.2743 291.985 26.0105C291.744 25.7356 291.419 25.5982 291.012 25.5982C290.441 25.5982 289.968 25.939 289.594 26.6207C289.22 27.2913 289.033 28.2588 289.033 29.5232V31.7496C289.033 31.9035 289.11 31.9805 289.264 31.9805H289.808V32.2773H286.84V31.9805H287.615C287.769 31.9805 287.846 31.9145 287.846 31.7826V25.6806C287.846 25.5267 287.769 25.4497 287.615 25.4497H286.84V25.1529H287.648C288.308 25.1529 288.77 25.1199 289.033 25.0539V27.2968C289.407 25.7356 290.232 24.955 291.507 24.955C292.079 24.955 292.563 25.1639 292.958 25.5817C293.354 25.9885 293.552 26.6152 293.552 27.4617ZM297.458 33.5142V22.4153C297.458 22.2613 297.381 22.1844 297.227 22.1844H295.957V21.8875H297.26C297.92 21.8875 298.382 21.8545 298.646 21.7886V34.1409C298.382 34.0749 297.92 34.042 297.26 34.042H295.957V33.7451H297.227C297.381 33.7451 297.458 33.6682 297.458 33.5142ZM305.468 33.4977H304.825L308.931 21.5907H309.591L305.468 33.4977ZM317.628 27.4617V31.7826C317.628 31.9145 317.705 31.9805 317.859 31.9805H318.634V32.2773H315.666V31.9805H316.21C316.364 31.9805 316.441 31.9145 316.441 31.7826V27.2473C316.441 26.6866 316.314 26.2743 316.061 26.0105C315.82 25.7356 315.495 25.5982 315.088 25.5982C314.517 25.5982 314.044 25.939 313.67 26.6207C313.296 27.2913 313.109 28.2588 313.109 29.5232V31.7496C313.109 31.9035 313.186 31.9805 313.34 31.9805H313.885V32.2773H310.916V31.9805H311.691C311.845 31.9805 311.922 31.9145 311.922 31.7826V25.6806C311.922 25.5267 311.845 25.4497 311.691 25.4497H310.916V25.1529H311.724C312.384 25.1529 312.846 25.1199 313.109 25.0539V27.2968C313.483 25.7356 314.308 24.955 315.583 24.955C316.155 24.955 316.639 25.1639 317.034 25.5817C317.43 25.9885 317.628 26.6152 317.628 27.4617Z" fill="#6082FA"/>
<path opacity="0.86" d="M417.298 31.0388H416.654L420.761 19.1317H421.42L417.298 31.0388ZM429.458 25.0028V29.3236C429.458 29.4555 429.534 29.5215 429.688 29.5215H430.464V29.8184H427.495V29.5215H428.039C428.193 29.5215 428.27 29.4555 428.27 29.3236V24.7884C428.27 24.2276 428.144 23.8153 427.891 23.5515C427.649 23.2766 427.325 23.1392 426.918 23.1392C426.346 23.1392 425.873 23.48 425.499 24.1617C425.126 24.8323 424.939 25.7999 424.939 27.0642V29.2906C424.939 29.4445 425.016 29.5215 425.17 29.5215H425.714V29.8184H422.745V29.5215H423.52C423.674 29.5215 423.751 29.4555 423.751 29.3236V23.2216C423.751 23.0677 423.674 22.9908 423.52 22.9908H422.745V22.6939H423.553C424.213 22.6939 424.675 22.6609 424.939 22.595V24.8378C425.313 23.2766 426.137 22.496 427.413 22.496C427.984 22.496 428.468 22.7049 428.864 23.1227C429.26 23.5295 429.458 24.1562 429.458 25.0028Z" fill="#6082FA"/>
<path opacity="0.86" d="M230.627 25.8126V28.5997H233.43V29.4737H230.627V32.2773H229.753V29.4737H226.965V28.5997H229.753V25.8126H230.627Z" fill="#6082FA"/>
<path opacity="0.86" d="M194.135 24.5592C193.75 25.6366 193.558 26.7746 193.558 27.973C193.558 29.1714 193.75 30.3148 194.135 31.4033C194.52 32.4807 195.07 33.3108 195.784 33.8935L195.619 34.1409C194.531 33.5692 193.69 32.7281 193.096 31.6177C192.502 30.4962 192.205 29.2813 192.205 27.973C192.205 26.6646 192.502 25.4552 193.096 24.3448C193.69 23.2234 194.531 22.3768 195.619 21.8051L195.784 22.0524C195.07 22.6351 194.52 23.4707 194.135 24.5592ZM197.65 32.2773V31.964H199.579C199.711 31.964 199.788 31.898 199.81 31.7661V24.1799C199.81 23.905 199.645 23.7676 199.315 23.7676L197.485 23.8665L197.452 23.4707L198.952 23.2563C199.898 23.1134 200.646 22.9375 201.195 22.7286C201.085 23.1464 201.03 23.7731 201.03 24.6087V31.7331C201.03 31.887 201.113 31.964 201.278 31.964H202.828V32.2773H197.65ZM204.904 28.7976V28.1379H209.06V28.7976H204.904Z" fill="#6082FA"/>
<path opacity="0.86" d="M221.642 31.4033C222.027 30.3148 222.219 29.1714 222.219 27.973C222.219 26.7746 222.027 25.6366 221.642 24.5592C221.257 23.4707 220.707 22.6351 219.993 22.0524L220.158 21.8051C221.246 22.3768 222.087 23.2234 222.681 24.3448C223.275 25.4552 223.571 26.6646 223.571 27.973C223.571 29.2813 223.275 30.4962 222.681 31.6177C222.087 32.7281 221.246 33.5692 220.158 34.1409L219.993 33.8935C220.707 33.3108 221.257 32.4807 221.642 31.4033Z" fill="#6082FA"/>
<path opacity="0.86" d="M184.231 24.8426L184.471 25.0136C183.924 26.2669 183.445 27.7083 183.035 29.3376H183.172L183.445 28.5856C184.391 25.9878 185.473 24.6888 186.693 24.6888C187.183 24.6888 187.598 24.9281 187.94 25.4067C188.294 25.8852 188.47 26.4663 188.47 27.15C188.47 27.8336 188.379 28.4717 188.197 29.0642C188.026 29.6453 187.775 30.1922 187.445 30.7049C187.114 31.2063 186.681 31.6165 186.146 31.9355C185.61 32.2546 185.018 32.4141 184.368 32.4141C183.377 32.4141 182.602 31.9754 182.044 31.098L182.163 30.8075C182.71 31.6393 183.428 32.0552 184.317 32.0552C184.83 32.0552 185.285 31.8842 185.684 31.5424C186.094 31.2006 186.408 30.7733 186.624 30.2606C187.057 29.2123 187.274 28.1868 187.274 27.1842C187.274 26.603 187.188 26.153 187.017 25.8339C186.858 25.5035 186.647 25.3383 186.385 25.3383C185.849 25.3383 185.246 25.8567 184.573 26.8936C183.912 27.9305 183.314 29.5484 182.779 31.7475L181.753 35.9691L180.557 36.0716L183.138 25.475L182.044 25.5605L182.027 25.2699C182.813 25.1674 183.548 25.025 184.231 24.8426Z" fill="#6082FA"/>
<path opacity="0.86" d="M183.268 23.2933L186.055 21.5187L188.808 23.2933C188.974 23.2933 189.388 23.1606 189.421 23.0611L186.552 20.3412C186.353 20.2583 185.74 20.2583 185.541 20.3412L182.671 23.0611C182.705 23.1606 183.103 23.2767 183.268 23.2933Z" fill="#6082FA"/>
<path opacity="0.86" d="M213.381 24.8426L213.62 25.0136C213.073 26.2669 212.594 27.7083 212.184 29.3376H212.321L212.594 28.5856C213.54 25.9878 214.623 24.6888 215.842 24.6888C216.332 24.6888 216.748 24.9281 217.089 25.4067C217.443 25.8852 217.619 26.4663 217.619 27.15C217.619 27.8336 217.528 28.4717 217.346 29.0642C217.175 29.6453 216.924 30.1922 216.594 30.7049C216.263 31.2063 215.83 31.6165 215.295 31.9355C214.759 32.2546 214.167 32.4141 213.517 32.4141C212.526 32.4141 211.751 31.9754 211.193 31.098L211.313 30.8075C211.86 31.6393 212.577 32.0552 213.466 32.0552C213.979 32.0552 214.435 31.8842 214.833 31.5424C215.244 31.2006 215.557 30.7733 215.773 30.2606C216.206 29.2123 216.423 28.1868 216.423 27.1842C216.423 26.603 216.337 26.153 216.167 25.8339C216.007 25.5035 215.796 25.3383 215.534 25.3383C214.999 25.3383 214.395 25.8567 213.722 26.8936C213.062 27.9305 212.463 29.5484 211.928 31.7475L210.902 35.9691L209.706 36.0716L212.287 25.475L211.193 25.5605L211.176 25.2699C211.962 25.1674 212.697 25.025 213.381 24.8426Z" fill="#6082FA"/>
<path opacity="0.86" d="M212.401 23.4671L215.187 21.6926L217.94 23.4671C218.106 23.4671 218.521 23.3345 218.554 23.2349L215.685 20.515C215.486 20.4321 214.872 20.4321 214.673 20.515L211.804 23.2349C211.837 23.3345 212.235 23.4506 212.401 23.4671Z" fill="#6082FA"/>
<line x1="179.084" y1="13.0345" x2="319.265" y2="13.0345" stroke="#7390F7" stroke-width="1.10669"/>
</svg>
