<svg width="534" height="38" viewBox="0 0 534 38" fill="none" xmlns="http://www.w3.org/2000/svg">
<path opacity="0.86" d="M12.6339 11.9696L10.2198 23.4367C10.2198 23.5708 10.2935 23.6379 10.4411 23.6379H11.3262L11.2659 24H7.56424L7.62459 23.6379H8.55C8.72435 23.6379 8.83165 23.5373 8.87188 23.3361L10.0186 17.9446H3.98329C3.23224 21.4987 2.85671 23.3361 2.85671 23.4568C2.85671 23.5775 2.93047 23.6379 3.078 23.6379H3.96318L3.90282 24H0.201176L0.261529 23.6379H1.18694C1.36129 23.6379 1.46859 23.5373 1.50882 23.3361C3.11824 15.7182 3.92294 11.8758 3.92294 11.8087C3.92294 11.7282 3.84918 11.688 3.70165 11.688H2.81647L2.87682 11.3259H6.57847L6.51812 11.688H5.61282C5.43847 11.688 5.32447 11.7819 5.27082 11.9696L4.104 17.3813H10.1192C10.8971 13.7199 11.286 11.8556 11.286 11.7886C11.286 11.7215 11.2122 11.688 11.0647 11.688H10.1795L10.2399 11.3259H13.9415L13.8812 11.688H12.9759C12.8015 11.688 12.6875 11.7819 12.6339 11.9696ZM14.7432 21.0829C14.7432 19.7015 15.1456 18.3805 15.9503 17.1198C16.3392 16.5162 16.8489 16.0267 17.4792 15.6512C18.1096 15.2622 18.8271 15.0678 19.6318 15.0678C20.45 15.0678 21.1138 15.3427 21.6235 15.8926C22.1331 16.4425 22.388 17.1935 22.388 18.1458C22.388 19.098 22.2136 20.0234 21.8649 20.922C21.5162 21.8206 20.9663 22.5985 20.2152 23.2556C19.4642 23.9128 18.6192 24.2414 17.6804 24.2414C16.7416 24.2414 16.0174 23.9665 15.5077 23.4166C14.9981 22.8667 14.7432 22.0888 14.7432 21.0829ZM19.4709 15.5104C18.7467 15.5104 18.1029 15.8725 17.5396 16.5967C16.9897 17.3209 16.5941 18.1122 16.3527 18.9706C16.1247 19.8289 16.0107 20.6336 16.0107 21.3847C16.0107 22.1224 16.1582 22.7125 16.4532 23.1551C16.7617 23.5842 17.1775 23.7988 17.7005 23.7988C18.237 23.7988 18.7332 23.5842 19.1892 23.1551C19.6587 22.7259 20.0275 22.1961 20.2957 21.5658C20.8456 20.2782 21.1205 19.1651 21.1205 18.2262C21.1205 17.274 20.973 16.5833 20.678 16.1541C20.3829 15.7249 19.9805 15.5104 19.4709 15.5104ZM25.8876 23.0142C25.8876 23.4568 26.0553 23.6781 26.3906 23.6781C26.6454 23.6781 26.9203 23.5105 27.2154 23.1752C27.5105 22.8265 27.7653 22.3369 27.9799 21.7066L28.3018 21.7871C27.7251 23.4233 26.974 24.2414 26.0486 24.2414C25.2171 24.2414 24.8013 23.7184 24.8013 22.6722C24.8013 21.6127 25.6798 17.8976 27.4367 11.5271L26.1492 11.6276L26.1291 11.2856C27.0545 11.1649 27.9195 10.9973 28.7242 10.7827L29.0059 10.9839C28.4426 12.6335 27.7787 14.8733 27.0142 17.7032C26.2632 20.5196 25.8876 22.29 25.8876 23.0142ZM36.3413 23.0142C36.3413 23.4568 36.5089 23.6781 36.8442 23.6781C37.099 23.6781 37.374 23.5105 37.669 23.1752C37.9641 22.8265 38.2189 22.3369 38.4335 21.7066L38.7554 21.7871C38.1787 23.4233 37.4276 24.2414 36.5022 24.2414C35.6707 24.2414 35.2549 23.7184 35.2549 22.6722C35.2549 21.6127 36.1334 17.8976 37.8903 11.5271L36.6028 11.6276L36.5827 11.2856C37.5081 11.1649 38.3732 10.9973 39.1779 10.7827L39.4595 10.9839C38.8962 12.6335 38.2323 14.8733 37.4679 17.7032C36.7168 20.5196 36.3413 22.29 36.3413 23.0142ZM35.4561 21.7669H35.2549C34.4234 23.4166 33.4577 24.2414 32.358 24.2414C31.7276 24.2414 31.1979 23.9665 30.7687 23.4166C30.3529 22.8533 30.145 22.1693 30.145 21.3646C30.145 20.5465 30.2523 19.7887 30.4669 19.0913C30.6815 18.3939 30.9833 17.7434 31.3722 17.1399C31.7612 16.5229 32.2775 16.0267 32.9213 15.6512C33.565 15.2622 34.2222 15.0678 34.8928 15.0678C36.1803 15.0678 37.0923 15.6311 37.6288 16.7576L37.3472 17.1198C36.7168 16.0736 35.9322 15.5506 34.9934 15.5506C34.4167 15.5506 33.8869 15.7585 33.4041 16.1742C32.9347 16.59 32.5659 17.1131 32.2976 17.7434C31.7477 19.0309 31.4728 20.2447 31.4728 21.3847C31.4728 22.1358 31.5935 22.6991 31.8349 23.0746C32.0897 23.4501 32.425 23.6379 32.8408 23.6379C33.4175 23.6379 34.0076 23.1551 34.6112 22.1894C35.2147 21.2104 35.7512 19.8155 36.2206 18.0049L35.4561 21.7669ZM47.4261 11.7886H45.1126L42.6381 23.5373H44.9717C45.8301 23.5373 46.6214 23.2691 47.3456 22.7326C48.0699 22.1961 48.6533 21.5188 49.0959 20.7007C50.0079 18.9974 50.4639 17.3008 50.4639 15.6109C50.4639 14.4039 50.1822 13.4651 49.6189 12.7945C49.069 12.1239 48.3381 11.7886 47.4261 11.7886ZM42.6783 11.3259H47.5468C48.888 11.3259 49.9475 11.7215 50.7254 12.5128C51.5033 13.2907 51.8922 14.3838 51.8922 15.792C51.8922 16.7442 51.7246 17.7032 51.3893 18.6688C51.0674 19.6211 50.6181 20.4995 50.0414 21.3042C49.4647 22.0955 48.7203 22.746 47.8083 23.2556C46.9097 23.7519 45.9307 24 44.8712 24H40.0027L40.063 23.6379H40.9884C41.1628 23.6379 41.2701 23.5373 41.3103 23.3361C42.9197 15.7182 43.7244 11.8758 43.7244 11.8087C43.7244 11.7282 43.6507 11.688 43.5032 11.688H42.618L42.6783 11.3259ZM58.1554 15.0678C58.8662 15.0678 59.396 15.2421 59.7447 15.5908C60.1068 15.9261 60.2879 16.4156 60.2879 17.0594C60.2879 17.6898 60.0398 18.2396 59.5435 18.7091C58.6986 19.5138 57.4446 19.9161 55.7815 19.9161C55.2853 19.9161 54.8561 19.8759 54.494 19.7954V19.4132C54.9634 19.4802 55.3523 19.5138 55.6608 19.5138C56.774 19.5138 57.6323 19.2321 58.2359 18.6688C58.8528 18.1055 59.1613 17.4886 59.1613 16.818C59.1613 16.4559 59.0607 16.1541 58.8595 15.9127C58.6718 15.6713 58.3499 15.5506 57.8939 15.5506C57.4513 15.5506 56.9953 15.7585 56.5259 16.1742C56.0699 16.59 55.7078 17.1064 55.4395 17.7233C54.9031 19.0242 54.6348 20.1508 54.6348 21.1031C54.6348 22.8734 55.1713 23.7586 56.2442 23.7586C57.572 23.7586 58.5443 23.0344 59.1613 21.5859L59.4832 21.6664C59.1613 22.4845 58.6919 23.1215 58.0749 23.5775C57.4714 24.0201 56.7874 24.2414 56.0229 24.2414C55.2585 24.2414 54.6147 23.9598 54.0916 23.3965C53.5686 22.8332 53.3071 22.0754 53.3071 21.1232C53.3071 20.1709 53.4881 19.2522 53.8502 18.3671C54.2123 17.4685 54.7756 16.6973 55.5401 16.0535C56.3046 15.3964 57.1763 15.0678 58.1554 15.0678ZM65.0851 15.2488L65.3668 15.45C64.723 16.9253 64.1597 18.6219 63.6769 20.5398H63.8379L64.1597 19.6546C65.2729 16.5967 66.547 15.0678 67.9821 15.0678C68.5588 15.0678 69.0483 15.3494 69.4507 15.9127C69.8664 16.476 70.0743 17.16 70.0743 17.9647C70.0743 18.7694 69.967 19.5205 69.7524 20.2179C69.5513 20.9019 69.2562 21.5456 68.8673 22.1492C68.4783 22.7393 67.9687 23.2221 67.3383 23.5976C66.708 23.9732 66.0106 24.1609 65.2461 24.1609C64.0793 24.1609 63.1673 23.6446 62.5101 22.6119L62.6509 22.2699C63.2947 23.2489 64.1396 23.7385 65.1857 23.7385C65.7893 23.7385 66.3257 23.5373 66.7951 23.1349C67.278 22.7326 67.6468 22.2296 67.9016 21.6261C68.4113 20.3922 68.6661 19.1852 68.6661 18.0049C68.6661 17.3209 68.5655 16.7912 68.3643 16.4156C68.1766 16.0267 67.9284 15.8322 67.62 15.8322C66.9896 15.8322 66.2788 16.4425 65.4875 17.6629C64.7096 18.8834 64.0055 20.7879 63.3751 23.3764L62.1681 28.3454L60.7599 28.4661L63.7976 15.9932L62.5101 16.0938L62.49 15.7518C63.4154 15.6311 64.2804 15.4634 65.0851 15.2488ZM71.6754 21.0829C71.6754 19.7015 72.0778 18.3805 72.8825 17.1198C73.2714 16.5162 73.7811 16.0267 74.4114 15.6512C75.0418 15.2622 75.7593 15.0678 76.564 15.0678C77.3821 15.0678 78.046 15.3427 78.5556 15.8926C79.0653 16.4425 79.3201 17.1935 79.3201 18.1458C79.3201 19.098 79.1458 20.0234 78.7971 20.922C78.4483 21.8206 77.8985 22.5985 77.1474 23.2556C76.3963 23.9128 75.5514 24.2414 74.6126 24.2414C73.6738 24.2414 72.9495 23.9665 72.4399 23.4166C71.9302 22.8667 71.6754 22.0888 71.6754 21.0829ZM76.4031 15.5104C75.6788 15.5104 75.0351 15.8725 74.4718 16.5967C73.9219 17.3209 73.5262 18.1122 73.2848 18.9706C73.0568 19.8289 72.9428 20.6336 72.9428 21.3847C72.9428 22.1224 73.0903 22.7125 73.3854 23.1551C73.6939 23.5842 74.1096 23.7988 74.6327 23.7988C75.1692 23.7988 75.6654 23.5842 76.1214 23.1551C76.5908 22.7259 76.9596 22.1961 77.2279 21.5658C77.7778 20.2782 78.0527 19.1651 78.0527 18.2262C78.0527 17.274 77.9052 16.5833 77.6101 16.1541C77.3151 15.7249 76.9127 15.5104 76.4031 15.5104ZM85.1736 15.5506C84.6639 15.5506 84.228 15.6981 83.8659 15.9932C83.5038 16.2882 83.3227 16.6638 83.3227 17.1198C83.3227 17.5758 83.5105 17.9915 83.886 18.3671C84.2616 18.7426 84.6706 19.0578 85.1132 19.3126C85.5558 19.554 85.9649 19.8759 86.3404 20.2782C86.7159 20.6806 86.9037 21.1098 86.9037 21.5658C86.9037 22.4241 86.5684 23.088 85.8978 23.5574C85.2406 24.0134 84.4426 24.2414 83.5038 24.2414C82.565 24.2414 81.7401 24.0201 81.0293 23.5775C81.2573 23.1215 81.4719 22.3302 81.6731 21.2036L82.0151 21.264C81.9212 21.8139 81.8743 22.2498 81.8743 22.5716C81.8743 22.8801 82.0218 23.1685 82.3169 23.4367C82.6253 23.6915 83.0612 23.8189 83.6245 23.8189C84.2012 23.8189 84.684 23.6446 85.073 23.2959C85.4753 22.9472 85.6765 22.4912 85.6765 21.9279C85.6765 21.5658 85.4954 21.2171 85.1333 20.8818C84.7846 20.5331 84.3957 20.2447 83.9665 20.0167C83.5507 19.7887 83.1618 19.4668 82.7997 19.0511C82.451 18.6353 82.2766 18.1793 82.2766 17.6831C82.2766 16.9454 82.565 16.3285 83.1417 15.8322C83.7318 15.3226 84.503 15.0678 85.4552 15.0678C86.1929 15.0678 86.9238 15.2488 87.648 15.6109C87.581 15.7585 87.467 16.0938 87.306 16.6168C87.1585 17.1399 87.0445 17.6361 86.964 18.1055L86.622 18.0452C86.7025 17.616 86.7427 17.2069 86.7427 16.818C86.7427 16.4156 86.6086 16.1072 86.3404 15.8926C86.0856 15.6646 85.6966 15.5506 85.1736 15.5506ZM92.233 13.056C92.0586 12.8816 91.9714 12.6671 91.9714 12.4122C91.9714 12.1574 92.0586 11.9428 92.233 11.7685C92.4073 11.5941 92.6219 11.5069 92.8767 11.5069C93.1316 11.5069 93.3461 11.5941 93.5205 11.7685C93.6948 11.9428 93.782 12.1574 93.782 12.4122C93.782 12.6671 93.6948 12.8816 93.5205 13.056C93.3461 13.2304 93.1316 13.3175 92.8767 13.3175C92.6219 13.3175 92.4073 13.2304 92.233 13.056ZM89.9597 22.7326C89.9597 22.0218 90.4492 19.7753 91.4283 15.9932L90.1407 16.0938L90.1206 15.7518C91.046 15.6311 91.9111 15.4634 92.7158 15.2488L92.9974 15.45C92.528 16.8448 92.0854 18.3402 91.6697 19.9362C91.2539 21.5322 91.046 22.5582 91.046 23.0142C91.046 23.4568 91.2137 23.6781 91.549 23.6781C91.8038 23.6781 92.0787 23.5105 92.3738 23.1752C92.6688 22.8265 92.9237 22.3369 93.1383 21.7066L93.4601 21.7871C92.8834 23.4233 92.1324 24.2414 91.207 24.2414C90.3754 24.2414 89.9597 23.7385 89.9597 22.7326ZM95.8615 16.0334L95.9621 15.6512H100.428L100.328 16.0334H95.8615ZM99.0602 13.1767L99.3419 13.3779C99.0334 14.3167 98.6176 15.792 98.0946 17.8038C97.5849 19.8155 97.2765 21.1165 97.1692 21.7066C97.0619 22.2833 97.0082 22.7192 97.0082 23.0142C97.0082 23.4568 97.1759 23.6781 97.5112 23.6781C97.766 23.6781 98.0409 23.5105 98.336 23.1752C98.6311 22.8265 98.8859 22.3369 99.1005 21.7066L99.4224 21.7871C98.8456 23.4233 98.0946 24.2414 97.1692 24.2414C96.3376 24.2414 95.9219 23.7385 95.9219 22.7326C95.9219 21.9011 96.4181 19.5808 97.4106 15.7719L95.9621 15.6512C96.6998 15.6512 97.2966 15.4768 97.7526 15.1281C98.2086 14.766 98.6445 14.1155 99.0602 13.1767ZM114.699 18.87H107.195L107.416 17.8038H114.92L114.699 18.87ZM113.975 22.29H106.471L106.692 21.2238H114.196L113.975 22.29ZM129.121 24L127.693 24.1207L128.417 21.3646C128.497 21.0561 128.618 20.6001 128.779 19.9966C128.953 19.3931 129.081 18.9304 129.161 18.6085C129.389 17.7233 129.503 17.1265 129.503 16.818C129.503 16.5095 129.423 16.2547 129.262 16.0535C129.114 15.8389 128.886 15.7316 128.578 15.7316C127.907 15.7316 127.176 16.4089 126.385 17.7635C125.594 19.1181 124.87 21.1969 124.212 24L122.804 24.1207L124.776 15.9932L123.488 16.0938L123.468 15.7518C124.393 15.6311 125.258 15.4634 126.063 15.2488L126.345 15.45C125.701 16.9253 125.138 18.6219 124.655 20.5398H124.816L125.138 19.6546C125.768 17.9379 126.439 16.7442 127.15 16.0736C127.86 15.4031 128.524 15.0678 129.141 15.0678C130.08 15.0678 130.549 15.5975 130.549 16.6571C130.549 17.274 130.355 18.1458 129.966 19.2724L129.544 20.5398H129.725L130.046 19.6546C130.771 17.6294 131.555 16.3151 132.4 15.7115C132.803 15.4433 133.131 15.2689 133.386 15.1885C133.654 15.108 133.969 15.0678 134.332 15.0678C134.694 15.0678 134.995 15.2287 135.237 15.5506C135.478 15.8725 135.599 16.3218 135.599 16.8985C135.599 17.4752 135.27 18.5347 134.613 20.0771C133.969 21.6194 133.648 22.6052 133.648 23.0344C133.648 23.4635 133.815 23.6781 134.15 23.6781C134.405 23.6781 134.68 23.5105 134.975 23.1752C135.27 22.8265 135.525 22.3369 135.74 21.7066L136.062 21.7871C135.485 23.4233 134.734 24.2414 133.808 24.2414C132.977 24.2414 132.561 23.7854 132.561 22.8734C132.561 22.4845 132.863 21.5188 133.466 19.9765C134.083 18.4341 134.392 17.3813 134.392 16.818C134.392 16.0938 134.157 15.7316 133.688 15.7316C133.017 15.7316 132.293 16.2748 131.515 17.3612C130.616 18.6621 129.818 20.8751 129.121 24ZM146.067 15.45C145.597 16.8448 145.155 18.3402 144.739 19.9362C144.323 21.5322 144.115 22.5582 144.115 23.0142C144.115 23.4568 144.283 23.6781 144.618 23.6781C144.873 23.6781 145.148 23.5105 145.443 23.1752C145.738 22.8265 145.993 22.3369 146.208 21.7066L146.529 21.7871C145.953 23.4233 145.202 24.2414 144.276 24.2414C143.445 24.2414 143.029 23.7385 143.029 22.7326C143.029 22.5314 143.062 22.2095 143.13 21.7669H143.029C142.197 23.4166 141.232 24.2414 140.132 24.2414C139.502 24.2414 138.972 23.9665 138.543 23.4166C138.127 22.8533 137.919 22.1693 137.919 21.3646C137.919 20.5465 138.026 19.7887 138.241 19.0913C138.456 18.3939 138.757 17.7434 139.146 17.1399C139.535 16.5229 140.052 16.0267 140.695 15.6512C141.339 15.2622 142.043 15.0678 142.808 15.0678C143.8 15.0678 144.585 15.4902 145.161 16.3352L145.785 15.2488L146.067 15.45ZM140.615 23.6379C141.178 23.6379 141.748 23.202 142.325 22.3302C142.982 21.3244 143.592 19.6814 144.156 17.4014C144.276 16.8649 144.37 16.476 144.437 16.2346C143.968 15.7786 143.425 15.5506 142.808 15.5506C142.204 15.5506 141.661 15.7585 141.178 16.1742C140.709 16.59 140.34 17.1131 140.072 17.7434C139.522 19.0309 139.247 20.2447 139.247 21.3847C139.247 22.1358 139.368 22.6991 139.609 23.0746C139.864 23.4501 140.199 23.6379 140.615 23.6379ZM150.855 15.0678C151.391 15.0678 151.827 15.3628 152.162 15.9529C152.498 16.5431 152.726 17.2606 152.846 18.1055C152.98 18.9505 153.094 19.7954 153.188 20.6404C153.416 22.6655 153.792 23.6781 154.315 23.6781C154.57 23.6781 154.845 23.5105 155.14 23.1752C155.435 22.8265 155.69 22.3369 155.904 21.7066L156.226 21.7871C155.649 23.4233 154.898 24.2414 153.973 24.2414C153.436 24.2414 153.001 23.9464 152.665 23.3562C152.33 22.7661 152.095 22.0486 151.961 21.2036C151.84 20.3587 151.733 19.5138 151.639 18.6688C151.411 16.6436 151.036 15.6311 150.513 15.6311C150.258 15.6311 149.983 15.8054 149.688 16.1541C149.393 16.4894 149.138 16.9722 148.923 17.6026L148.602 17.5221C149.178 15.8859 149.929 15.0678 150.855 15.0678ZM151.237 20.922L151.981 19.6345L152.484 19.5942L151.519 21.2841C150.405 23.2556 149.426 24.2414 148.581 24.2414C148.179 24.2414 147.978 23.8793 147.978 23.1551C149.359 23.0344 150.446 22.29 151.237 20.922ZM153.39 18.3872L152.645 19.6747L152.142 19.7149L153.108 18.0251C154.221 16.0535 155.2 15.0678 156.045 15.0678C156.447 15.0678 156.649 15.4299 156.649 16.1541C155.267 16.2748 154.181 17.0192 153.39 18.3872ZM169.422 11.5271C168.027 12.5598 166.941 14.0082 166.163 15.8725C165.385 17.7233 164.996 19.6412 164.996 21.6261C164.996 23.5976 165.452 25.0461 166.364 25.9715L166.082 26.2733C165.238 25.7502 164.594 25.0126 164.151 24.0604C163.722 23.1081 163.507 22.0486 163.507 20.8818C163.507 18.9639 164.03 17.0929 165.077 15.2689C166.136 13.4315 167.538 12.0836 169.281 11.2253L169.422 11.5271Z" fill="#6082FA"/>
<path opacity="0.86" d="M239.167 23.9396C238.966 23.7251 238.865 23.4702 238.865 23.1752C238.865 22.8801 238.966 22.632 239.167 22.4308C239.381 22.2162 239.636 22.1089 239.931 22.1089C240.226 22.1089 240.474 22.2162 240.676 22.4308C240.89 22.632 240.998 22.8801 240.998 23.1752C240.998 23.4702 240.89 23.7251 240.676 23.9396C240.474 24.1408 240.226 24.2414 239.931 24.2414C239.636 24.2414 239.381 24.1408 239.167 23.9396ZM249.495 24L248.067 24.1207L248.791 21.3646C248.871 21.0561 248.992 20.6001 249.153 19.9966C249.327 19.3931 249.455 18.9304 249.535 18.6085C249.763 17.7233 249.877 17.1265 249.877 16.818C249.877 16.5095 249.797 16.2547 249.636 16.0535C249.488 15.8389 249.26 15.7316 248.952 15.7316C248.281 15.7316 247.55 16.4089 246.759 17.7635C245.968 19.1181 245.243 21.1969 244.586 24L243.178 24.1207L245.149 15.9932L243.862 16.0938L243.842 15.7518C244.767 15.6311 245.632 15.4634 246.437 15.2488L246.719 15.45C246.075 16.9253 245.512 18.6219 245.029 20.5398H245.19L245.512 19.6546C246.142 17.9379 246.813 16.7442 247.523 16.0736C248.234 15.4031 248.898 15.0678 249.515 15.0678C250.454 15.0678 250.923 15.5975 250.923 16.6571C250.923 17.274 250.729 18.1458 250.34 19.2724L249.917 20.5398H250.098L250.42 19.6546C251.145 17.6294 251.929 16.3151 252.774 15.7115C253.176 15.4433 253.505 15.2689 253.76 15.1885C254.028 15.108 254.343 15.0678 254.705 15.0678C255.067 15.0678 255.369 15.2287 255.611 15.5506C255.852 15.8725 255.973 16.3218 255.973 16.8985C255.973 17.4752 255.644 18.5347 254.987 20.0771C254.343 21.6194 254.021 22.6052 254.021 23.0344C254.021 23.4635 254.189 23.6781 254.524 23.6781C254.779 23.6781 255.054 23.5105 255.349 23.1752C255.644 22.8265 255.899 22.3369 256.114 21.7066L256.435 21.7871C255.859 23.4233 255.108 24.2414 254.182 24.2414C253.351 24.2414 252.935 23.7854 252.935 22.8734C252.935 22.4845 253.237 21.5188 253.84 19.9765C254.457 18.4341 254.766 17.3813 254.766 16.818C254.766 16.0938 254.531 15.7316 254.062 15.7316C253.391 15.7316 252.667 16.2748 251.889 17.3612C250.99 18.6621 250.192 20.8751 249.495 24ZM261.17 13.056C260.995 12.8816 260.908 12.6671 260.908 12.4122C260.908 12.1574 260.995 11.9428 261.17 11.7685C261.344 11.5941 261.559 11.5069 261.813 11.5069C262.068 11.5069 262.283 11.5941 262.457 11.7685C262.632 11.9428 262.719 12.1574 262.719 12.4122C262.719 12.6671 262.632 12.8816 262.457 13.056C262.283 13.2304 262.068 13.3175 261.813 13.3175C261.559 13.3175 261.344 13.2304 261.17 13.056ZM258.896 22.7326C258.896 22.0218 259.386 19.7753 260.365 15.9932L259.077 16.0938L259.057 15.7518C259.983 15.6311 260.848 15.4634 261.653 15.2488L261.934 15.45C261.465 16.8448 261.022 18.3402 260.606 19.9362C260.191 21.5322 259.983 22.5582 259.983 23.0142C259.983 23.4568 260.15 23.6781 260.486 23.6781C260.741 23.6781 261.015 23.5105 261.311 23.1752C261.606 22.8265 261.86 22.3369 262.075 21.7066L262.397 21.7871C261.82 23.4233 261.069 24.2414 260.144 24.2414C259.312 24.2414 258.896 23.7385 258.896 22.7326ZM272.463 16.8985C272.463 17.4752 272.135 18.5347 271.477 20.0771C270.834 21.6194 270.512 22.6052 270.512 23.0344C270.512 23.4635 270.679 23.6781 271.015 23.6781C271.269 23.6781 271.544 23.5105 271.839 23.1752C272.135 22.8265 272.389 22.3369 272.604 21.7066L272.926 21.7871C272.349 23.4233 271.598 24.2414 270.673 24.2414C269.841 24.2414 269.425 23.7854 269.425 22.8734C269.425 22.4845 269.727 21.5188 270.331 19.9765C270.948 18.4341 271.256 17.4416 271.256 16.9991C271.256 16.1541 270.948 15.7316 270.331 15.7316C269.66 15.7316 268.936 16.2748 268.158 17.3612C267.259 18.6621 266.461 20.8751 265.764 24L264.356 24.1207L266.327 15.9932L265.04 16.0938L265.02 15.7518C265.945 15.6311 266.81 15.4634 267.615 15.2488L267.896 15.45C267.253 16.9253 266.689 18.6219 266.207 20.5398H266.367L266.689 19.6546C267.414 17.6294 268.198 16.3151 269.043 15.7115C269.445 15.4433 269.774 15.2689 270.029 15.1885C270.297 15.108 270.626 15.0678 271.015 15.0678C271.417 15.0678 271.759 15.2287 272.041 15.5506C272.322 15.8725 272.463 16.3218 272.463 16.8985ZM281.595 11.7886H279.282L276.807 23.5373H279.141C279.999 23.5373 280.79 23.2691 281.515 22.7326C282.239 22.1961 282.822 21.5188 283.265 20.7007C284.177 18.9974 284.633 17.3008 284.633 15.6109C284.633 14.4039 284.351 13.4651 283.788 12.7945C283.238 12.1239 282.507 11.7886 281.595 11.7886ZM276.847 11.3259H281.716C283.057 11.3259 284.117 11.7215 284.894 12.5128C285.672 13.2907 286.061 14.3838 286.061 15.792C286.061 16.7442 285.894 17.7032 285.558 18.6688C285.236 19.6211 284.787 20.4995 284.21 21.3042C283.634 22.0955 282.889 22.746 281.977 23.2556C281.079 23.7519 280.1 24 279.04 24H274.172L274.232 23.6379H275.157C275.332 23.6379 275.439 23.5373 275.479 23.3361C277.089 15.7182 277.893 11.8758 277.893 11.8087C277.893 11.7282 277.82 11.688 277.672 11.688H276.787L276.847 11.3259ZM292.324 15.0678C293.035 15.0678 293.565 15.2421 293.914 15.5908C294.276 15.9261 294.457 16.4156 294.457 17.0594C294.457 17.6898 294.209 18.2396 293.713 18.7091C292.868 19.5138 291.614 19.9161 289.951 19.9161C289.454 19.9161 289.025 19.8759 288.663 19.7954V19.4132C289.132 19.4802 289.521 19.5138 289.83 19.5138C290.943 19.5138 291.801 19.2321 292.405 18.6688C293.022 18.1055 293.33 17.4886 293.33 16.818C293.33 16.4559 293.23 16.1541 293.029 15.9127C292.841 15.6713 292.519 15.5506 292.063 15.5506C291.62 15.5506 291.164 15.7585 290.695 16.1742C290.239 16.59 289.877 17.1064 289.609 17.7233C289.072 19.0242 288.804 20.1508 288.804 21.1031C288.804 22.8734 289.34 23.7586 290.413 23.7586C291.741 23.7586 292.713 23.0344 293.33 21.5859L293.652 21.6664C293.33 22.4845 292.861 23.1215 292.244 23.5775C291.64 24.0201 290.956 24.2414 290.192 24.2414C289.427 24.2414 288.784 23.9598 288.261 23.3965C287.738 22.8332 287.476 22.0754 287.476 21.1232C287.476 20.1709 287.657 19.2522 288.019 18.3671C288.381 17.4685 288.945 16.6973 289.709 16.0535C290.474 15.3964 291.345 15.0678 292.324 15.0678ZM299.254 15.2488L299.536 15.45C298.892 16.9253 298.329 18.6219 297.846 20.5398H298.007L298.329 19.6546C299.442 16.5967 300.716 15.0678 302.151 15.0678C302.728 15.0678 303.217 15.3494 303.62 15.9127C304.035 16.476 304.243 17.16 304.243 17.9647C304.243 18.7694 304.136 19.5205 303.921 20.2179C303.72 20.9019 303.425 21.5456 303.036 22.1492C302.647 22.7393 302.138 23.2221 301.507 23.5976C300.877 23.9732 300.18 24.1609 299.415 24.1609C298.248 24.1609 297.336 23.6446 296.679 22.6119L296.82 22.2699C297.464 23.2489 298.309 23.7385 299.355 23.7385C299.958 23.7385 300.495 23.5373 300.964 23.1349C301.447 22.7326 301.816 22.2296 302.071 21.6261C302.58 20.3922 302.835 19.1852 302.835 18.0049C302.835 17.3209 302.735 16.7912 302.533 16.4156C302.346 16.0267 302.097 15.8322 301.789 15.8322C301.159 15.8322 300.448 16.4425 299.657 17.6629C298.879 18.8834 298.175 20.7879 297.544 23.3764L296.337 28.3454L294.929 28.4661L297.967 15.9932L296.679 16.0938L296.659 15.7518C297.584 15.6311 298.449 15.4634 299.254 15.2488ZM305.844 21.0829C305.844 19.7015 306.247 18.3805 307.051 17.1198C307.44 16.5162 307.95 16.0267 308.58 15.6512C309.211 15.2622 309.928 15.0678 310.733 15.0678C311.551 15.0678 312.215 15.3427 312.725 15.8926C313.234 16.4425 313.489 17.1935 313.489 18.1458C313.489 19.098 313.315 20.0234 312.966 20.922C312.617 21.8206 312.067 22.5985 311.316 23.2556C310.565 23.9128 309.72 24.2414 308.782 24.2414C307.843 24.2414 307.119 23.9665 306.609 23.4166C306.099 22.8667 305.844 22.0888 305.844 21.0829ZM310.572 15.5104C309.848 15.5104 309.204 15.8725 308.641 16.5967C308.091 17.3209 307.695 18.1122 307.454 18.9706C307.226 19.8289 307.112 20.6336 307.112 21.3847C307.112 22.1224 307.259 22.7125 307.554 23.1551C307.863 23.5842 308.279 23.7988 308.802 23.7988C309.338 23.7988 309.834 23.5842 310.29 23.1551C310.76 22.7259 311.129 22.1961 311.397 21.5658C311.947 20.2782 312.222 19.1651 312.222 18.2262C312.222 17.274 312.074 16.5833 311.779 16.1541C311.484 15.7249 311.082 15.5104 310.572 15.5104ZM319.343 15.5506C318.833 15.5506 318.397 15.6981 318.035 15.9932C317.673 16.2882 317.492 16.6638 317.492 17.1198C317.492 17.5758 317.68 17.9915 318.055 18.3671C318.431 18.7426 318.84 19.0578 319.282 19.3126C319.725 19.554 320.134 19.8759 320.509 20.2782C320.885 20.6806 321.073 21.1098 321.073 21.5658C321.073 22.4241 320.737 23.088 320.067 23.5574C319.41 24.0134 318.612 24.2414 317.673 24.2414C316.734 24.2414 315.909 24.0201 315.198 23.5775C315.426 23.1215 315.641 22.3302 315.842 21.2036L316.184 21.264C316.09 21.8139 316.043 22.2498 316.043 22.5716C316.043 22.8801 316.191 23.1685 316.486 23.4367C316.794 23.6915 317.23 23.8189 317.794 23.8189C318.37 23.8189 318.853 23.6446 319.242 23.2959C319.644 22.9472 319.846 22.4912 319.846 21.9279C319.846 21.5658 319.664 21.2171 319.302 20.8818C318.954 20.5331 318.565 20.2447 318.136 20.0167C317.72 19.7887 317.331 19.4668 316.969 19.0511C316.62 18.6353 316.446 18.1793 316.446 17.6831C316.446 16.9454 316.734 16.3285 317.311 15.8322C317.901 15.3226 318.672 15.0678 319.624 15.0678C320.362 15.0678 321.093 15.2488 321.817 15.6109C321.75 15.7585 321.636 16.0938 321.475 16.6168C321.328 17.1399 321.214 17.6361 321.133 18.1055L320.791 18.0452C320.872 17.616 320.912 17.2069 320.912 16.818C320.912 16.4156 320.778 16.1072 320.509 15.8926C320.255 15.6646 319.866 15.5506 319.343 15.5506ZM326.402 13.056C326.228 12.8816 326.14 12.6671 326.14 12.4122C326.14 12.1574 326.228 11.9428 326.402 11.7685C326.576 11.5941 326.791 11.5069 327.046 11.5069C327.301 11.5069 327.515 11.5941 327.69 11.7685C327.864 11.9428 327.951 12.1574 327.951 12.4122C327.951 12.6671 327.864 12.8816 327.69 13.056C327.515 13.2304 327.301 13.3175 327.046 13.3175C326.791 13.3175 326.576 13.2304 326.402 13.056ZM324.129 22.7326C324.129 22.0218 324.618 19.7753 325.597 15.9932L324.31 16.0938L324.29 15.7518C325.215 15.6311 326.08 15.4634 326.885 15.2488L327.166 15.45C326.697 16.8448 326.254 18.3402 325.839 19.9362C325.423 21.5322 325.215 22.5582 325.215 23.0142C325.215 23.4568 325.383 23.6781 325.718 23.6781C325.973 23.6781 326.248 23.5105 326.543 23.1752C326.838 22.8265 327.093 22.3369 327.307 21.7066L327.629 21.7871C327.052 23.4233 326.301 24.2414 325.376 24.2414C324.544 24.2414 324.129 23.7385 324.129 22.7326ZM330.031 16.0334L330.131 15.6512H334.597L334.497 16.0334H330.031ZM333.229 13.1767L333.511 13.3779C333.202 14.3167 332.787 15.792 332.264 17.8038C331.754 19.8155 331.445 21.1165 331.338 21.7066C331.231 22.2833 331.177 22.7192 331.177 23.0142C331.177 23.4568 331.345 23.6781 331.68 23.6781C331.935 23.6781 332.21 23.5105 332.505 23.1752C332.8 22.8265 333.055 22.3369 333.269 21.7066L333.591 21.7871C333.015 23.4233 332.264 24.2414 331.338 24.2414C330.507 24.2414 330.091 23.7385 330.091 22.7326C330.091 21.9011 330.587 19.5808 331.58 15.7719L330.131 15.6512C330.869 15.6512 331.466 15.4768 331.922 15.1281C332.378 14.766 332.813 14.1155 333.229 13.1767ZM334.745 26.2331C335.617 25.5625 336.053 24.8584 336.053 24.1207C336.053 23.7184 335.912 23.3898 335.631 23.1349C335.698 22.8265 335.852 22.5582 336.093 22.3302C336.348 22.1022 336.616 21.9882 336.898 21.9882C337.448 21.9882 337.723 22.2632 337.723 22.8131C337.723 23.3629 337.448 24.0134 336.898 24.7645C336.362 25.5289 335.698 26.1124 334.906 26.5147L334.745 26.2331ZM344.938 21.0829C344.938 19.7015 345.34 18.3805 346.145 17.1198C346.534 16.5162 347.044 16.0267 347.674 15.6512C348.304 15.2622 349.022 15.0678 349.826 15.0678C350.645 15.0678 351.308 15.3427 351.818 15.8926C352.328 16.4425 352.583 17.1935 352.583 18.1458C352.583 19.098 352.408 20.0234 352.06 20.922C351.711 21.8206 351.161 22.5985 350.41 23.2556C349.659 23.9128 348.814 24.2414 347.875 24.2414C346.936 24.2414 346.212 23.9665 345.702 23.4166C345.193 22.8667 344.938 22.0888 344.938 21.0829ZM349.666 15.5104C348.941 15.5104 348.298 15.8725 347.734 16.5967C347.184 17.3209 346.789 18.1122 346.547 18.9706C346.319 19.8289 346.205 20.6336 346.205 21.3847C346.205 22.1224 346.353 22.7125 346.648 23.1551C346.956 23.5842 347.372 23.7988 347.895 23.7988C348.432 23.7988 348.928 23.5842 349.384 23.1551C349.853 22.7259 350.222 22.1961 350.49 21.5658C351.04 20.2782 351.315 19.1651 351.315 18.2262C351.315 17.274 351.168 16.5833 350.873 16.1541C350.578 15.7249 350.175 15.5104 349.666 15.5104ZM357.953 15.2488L358.235 15.45C357.591 16.9253 357.028 18.6219 356.545 20.5398H356.706L357.028 19.6546C357.658 17.9379 358.282 16.7442 358.899 16.0736C359.516 15.4031 360.052 15.0678 360.508 15.0678C360.964 15.0678 361.299 15.2153 361.514 15.5104C361.742 15.8054 361.856 16.1876 361.856 16.6571C361.856 17.1265 361.769 17.5355 361.594 17.8842C361.42 18.2329 361.165 18.4073 360.83 18.4073C360.508 18.4073 360.24 18.3 360.025 18.0854C360.159 17.9111 360.287 17.6562 360.408 17.3209C360.528 16.9856 360.589 16.6906 360.589 16.4358C360.589 16.0468 360.428 15.8524 360.106 15.8524C359.77 15.8524 359.355 16.1809 358.858 16.8381C357.772 18.2598 356.853 20.6471 356.102 24L354.694 24.1207L356.666 15.9932L355.378 16.0938L355.358 15.7518C356.283 15.6311 357.148 15.4634 357.953 15.2488ZM368.658 23.0142C368.658 23.4568 368.825 23.6781 369.161 23.6781C369.415 23.6781 369.69 23.5105 369.985 23.1752C370.28 22.8265 370.535 22.3369 370.75 21.7066L371.072 21.7871C370.495 23.4233 369.744 24.2414 368.819 24.2414C367.987 24.2414 367.571 23.7184 367.571 22.6722C367.571 21.6127 368.45 17.8976 370.207 11.5271L368.919 11.6276L368.899 11.2856C369.824 11.1649 370.69 10.9973 371.494 10.7827L371.776 10.9839C371.213 12.6335 370.549 14.8733 369.784 17.7032C369.033 20.5196 368.658 22.29 368.658 23.0142ZM367.772 21.7669H367.571C366.74 23.4166 365.774 24.2414 364.674 24.2414C364.044 24.2414 363.514 23.9665 363.085 23.4166C362.669 22.8533 362.461 22.1693 362.461 21.3646C362.461 20.5465 362.569 19.7887 362.783 19.0913C362.998 18.3939 363.3 17.7434 363.689 17.1399C364.078 16.5229 364.594 16.0267 365.238 15.6512C365.881 15.2622 366.539 15.0678 367.209 15.0678C368.497 15.0678 369.409 15.6311 369.945 16.7576L369.664 17.1198C369.033 16.0736 368.249 15.5506 367.31 15.5506C366.733 15.5506 366.203 15.7585 365.72 16.1742C365.251 16.59 364.882 17.1131 364.614 17.7434C364.064 19.0309 363.789 20.2447 363.789 21.3847C363.789 22.1358 363.91 22.6991 364.151 23.0746C364.406 23.4501 364.741 23.6379 365.157 23.6379C365.734 23.6379 366.324 23.1551 366.928 22.1894C367.531 21.2104 368.068 19.8155 368.537 18.0049L367.772 21.7669ZM377.771 15.0678C378.482 15.0678 379.012 15.2421 379.36 15.5908C379.722 15.9261 379.903 16.4156 379.903 17.0594C379.903 17.6898 379.655 18.2396 379.159 18.7091C378.314 19.5138 377.06 19.9161 375.397 19.9161C374.901 19.9161 374.472 19.8759 374.11 19.7954V19.4132C374.579 19.4802 374.968 19.5138 375.276 19.5138C376.39 19.5138 377.248 19.2321 377.851 18.6688C378.468 18.1055 378.777 17.4886 378.777 16.818C378.777 16.4559 378.676 16.1541 378.475 15.9127C378.287 15.6713 377.965 15.5506 377.509 15.5506C377.067 15.5506 376.611 15.7585 376.141 16.1742C375.685 16.59 375.323 17.1064 375.055 17.7233C374.519 19.0242 374.25 20.1508 374.25 21.1031C374.25 22.8734 374.787 23.7586 375.86 23.7586C377.188 23.7586 378.16 23.0344 378.777 21.5859L379.099 21.6664C378.777 22.4845 378.307 23.1215 377.69 23.5775C377.087 24.0201 376.403 24.2414 375.638 24.2414C374.874 24.2414 374.23 23.9598 373.707 23.3965C373.184 22.8332 372.923 22.0754 372.923 21.1232C372.923 20.1709 373.104 19.2522 373.466 18.3671C373.828 17.4685 374.391 16.6973 375.156 16.0535C375.92 15.3964 376.792 15.0678 377.771 15.0678ZM384.681 15.2488L384.962 15.45C384.318 16.9253 383.755 18.6219 383.272 20.5398H383.433L383.755 19.6546C384.386 17.9379 385.009 16.7442 385.626 16.0736C386.243 15.4031 386.78 15.0678 387.236 15.0678C387.692 15.0678 388.027 15.2153 388.241 15.5104C388.469 15.8054 388.583 16.1876 388.583 16.6571C388.583 17.1265 388.496 17.5355 388.322 17.8842C388.148 18.2329 387.893 18.4073 387.557 18.4073C387.236 18.4073 386.967 18.3 386.753 18.0854C386.887 17.9111 387.014 17.6562 387.135 17.3209C387.256 16.9856 387.316 16.6906 387.316 16.4358C387.316 16.0468 387.155 15.8524 386.833 15.8524C386.498 15.8524 386.082 16.1809 385.586 16.8381C384.5 18.2598 383.581 20.6471 382.83 24L381.422 24.1207L383.393 15.9932L382.106 16.0938L382.085 15.7518C383.011 15.6311 383.876 15.4634 384.681 15.2488ZM401.44 12.6335L394.842 24H394.198L392.589 12.6335C391.087 19.7686 390.336 23.3898 390.336 23.4971C390.336 23.5909 390.409 23.6379 390.557 23.6379H391.442L391.382 24H388.384L388.444 23.6379H389.37C389.544 23.6379 389.652 23.5373 389.692 23.3361C391.301 15.7182 392.106 11.8758 392.106 11.8087C392.106 11.7282 392.032 11.688 391.885 11.688H390.999L391.06 11.3259H393.796L395.305 22.1089L401.521 11.3259H404.257L404.197 11.688H403.291C403.117 11.688 403.003 11.7819 402.949 11.9696C402.775 12.8146 402.466 14.2899 402.024 16.3955C401.031 20.9958 400.535 23.3562 400.535 23.4769C400.535 23.5842 400.609 23.6379 400.756 23.6379H401.642L401.581 24H397.88L397.94 23.6379H398.865C399.04 23.6379 399.147 23.5373 399.187 23.3361L401.44 12.6335ZM407.93 13.056C407.755 12.8816 407.668 12.6671 407.668 12.4122C407.668 12.1574 407.755 11.9428 407.93 11.7685C408.104 11.5941 408.318 11.5069 408.573 11.5069C408.828 11.5069 409.043 11.5941 409.217 11.7685C409.391 11.9428 409.479 12.1574 409.479 12.4122C409.479 12.6671 409.391 12.8816 409.217 13.056C409.043 13.2304 408.828 13.3175 408.573 13.3175C408.318 13.3175 408.104 13.2304 407.93 13.056ZM405.656 22.7326C405.656 22.0218 406.146 19.7753 407.125 15.9932L405.837 16.0938L405.817 15.7518C406.743 15.6311 407.608 15.4634 408.412 15.2488L408.694 15.45C408.225 16.8448 407.782 18.3402 407.366 19.9362C406.95 21.5322 406.743 22.5582 406.743 23.0142C406.743 23.4568 406.91 23.6781 407.246 23.6781C407.5 23.6781 407.775 23.5105 408.07 23.1752C408.365 22.8265 408.62 22.3369 408.835 21.7066L409.157 21.7871C408.58 23.4233 407.829 24.2414 406.904 24.2414C406.072 24.2414 405.656 23.7385 405.656 22.7326ZM419.223 16.8985C419.223 17.4752 418.894 18.5347 418.237 20.0771C417.593 21.6194 417.271 22.6052 417.271 23.0344C417.271 23.4635 417.439 23.6781 417.774 23.6781C418.029 23.6781 418.304 23.5105 418.599 23.1752C418.894 22.8265 419.149 22.3369 419.364 21.7066L419.686 21.7871C419.109 23.4233 418.358 24.2414 417.432 24.2414C416.601 24.2414 416.185 23.7854 416.185 22.8734C416.185 22.4845 416.487 21.5188 417.09 19.9765C417.707 18.4341 418.016 17.4416 418.016 16.9991C418.016 16.1541 417.707 15.7316 417.09 15.7316C416.42 15.7316 415.696 16.2748 414.918 17.3612C414.019 18.6621 413.221 20.8751 412.524 24L411.115 24.1207L413.087 15.9932L411.799 16.0938L411.779 15.7518C412.705 15.6311 413.57 15.4634 414.375 15.2488L414.656 15.45C414.012 16.9253 413.449 18.6219 412.966 20.5398H413.127L413.449 19.6546C414.173 17.6294 414.958 16.3151 415.803 15.7115C416.205 15.4433 416.534 15.2689 416.789 15.1885C417.057 15.108 417.385 15.0678 417.774 15.0678C418.177 15.0678 418.519 15.2287 418.8 15.5506C419.082 15.8725 419.223 16.3218 419.223 16.8985ZM424.412 13.056C424.237 12.8816 424.15 12.6671 424.15 12.4122C424.15 12.1574 424.237 11.9428 424.412 11.7685C424.586 11.5941 424.801 11.5069 425.056 11.5069C425.31 11.5069 425.525 11.5941 425.699 11.7685C425.874 11.9428 425.961 12.1574 425.961 12.4122C425.961 12.6671 425.874 12.8816 425.699 13.056C425.525 13.2304 425.31 13.3175 425.056 13.3175C424.801 13.3175 424.586 13.2304 424.412 13.056ZM422.139 22.7326C422.139 22.0218 422.628 19.7753 423.607 15.9932L422.32 16.0938L422.299 15.7518C423.225 15.6311 424.09 15.4634 424.895 15.2488L425.176 15.45C424.707 16.8448 424.264 18.3402 423.849 19.9362C423.433 21.5322 423.225 22.5582 423.225 23.0142C423.225 23.4568 423.393 23.6781 423.728 23.6781C423.983 23.6781 424.258 23.5105 424.553 23.1752C424.848 22.8265 425.103 22.3369 425.317 21.7066L425.639 21.7871C425.062 23.4233 424.311 24.2414 423.386 24.2414C422.554 24.2414 422.139 23.7385 422.139 22.7326ZM433.915 24L432.486 24.1207L433.211 21.3646C433.291 21.0561 433.412 20.6001 433.573 19.9966C433.747 19.3931 433.875 18.9304 433.955 18.6085C434.183 17.7233 434.297 17.1265 434.297 16.818C434.297 16.5095 434.217 16.2547 434.056 16.0535C433.908 15.8389 433.68 15.7316 433.372 15.7316C432.701 15.7316 431.97 16.4089 431.179 17.7635C430.387 19.1181 429.663 21.1969 429.006 24L427.598 24.1207L429.569 15.9932L428.282 16.0938L428.262 15.7518C429.187 15.6311 430.052 15.4634 430.857 15.2488L431.139 15.45C430.495 16.9253 429.931 18.6219 429.449 20.5398H429.61L429.931 19.6546C430.562 17.9379 431.232 16.7442 431.943 16.0736C432.654 15.4031 433.318 15.0678 433.935 15.0678C434.874 15.0678 435.343 15.5975 435.343 16.6571C435.343 17.274 435.149 18.1458 434.76 19.2724L434.337 20.5398H434.518L434.84 19.6546C435.564 17.6294 436.349 16.3151 437.194 15.7115C437.596 15.4433 437.925 15.2689 438.18 15.1885C438.448 15.108 438.763 15.0678 439.125 15.0678C439.487 15.0678 439.789 15.2287 440.031 15.5506C440.272 15.8725 440.393 16.3218 440.393 16.8985C440.393 17.4752 440.064 18.5347 439.407 20.0771C438.763 21.6194 438.441 22.6052 438.441 23.0344C438.441 23.4635 438.609 23.6781 438.944 23.6781C439.199 23.6781 439.474 23.5105 439.769 23.1752C440.064 22.8265 440.319 22.3369 440.533 21.7066L440.855 21.7871C440.279 23.4233 439.528 24.2414 438.602 24.2414C437.771 24.2414 437.355 23.7854 437.355 22.8734C437.355 22.4845 437.657 21.5188 438.26 19.9765C438.877 18.4341 439.186 17.3813 439.186 16.818C439.186 16.0938 438.951 15.7316 438.481 15.7316C437.811 15.7316 437.087 16.2748 436.309 17.3612C435.41 18.6621 434.612 20.8751 433.915 24ZM448.165 22.7326C448.165 22.5314 448.198 22.2095 448.265 21.7669H448.165C447.306 23.4166 446.314 24.2414 445.187 24.2414C443.98 24.2414 443.377 23.5708 443.377 22.2296C443.377 21.3579 443.685 19.7418 444.302 17.3813L444.664 15.9932L443.377 16.0938L443.357 15.7518C444.282 15.6311 445.147 15.4634 445.952 15.2488L446.233 15.45C445.107 18.9505 444.543 21.1902 444.543 22.1693C444.543 23.1484 444.912 23.6379 445.65 23.6379C446.267 23.6379 446.87 23.1886 447.461 22.29C448.064 21.378 448.56 20.1575 448.949 18.6286L449.633 15.9932L448.346 16.0938L448.326 15.7518C449.251 15.6311 450.116 15.4634 450.921 15.2488L451.202 15.45C450.733 16.8448 450.29 18.3402 449.875 19.9362C449.459 21.5322 449.251 22.5582 449.251 23.0142C449.251 23.4568 449.419 23.6781 449.754 23.6781C450.009 23.6781 450.284 23.5105 450.579 23.1752C450.874 22.8265 451.129 22.3369 451.343 21.7066L451.665 21.7871C451.088 23.4233 450.337 24.2414 449.412 24.2414C448.58 24.2414 448.165 23.7385 448.165 22.7326ZM459.925 24L458.497 24.1207L459.221 21.3646C459.302 21.0561 459.423 20.6001 459.583 19.9966C459.758 19.3931 459.885 18.9304 459.966 18.6085C460.194 17.7233 460.308 17.1265 460.308 16.818C460.308 16.5095 460.227 16.2547 460.066 16.0535C459.919 15.8389 459.691 15.7316 459.382 15.7316C458.712 15.7316 457.981 16.4089 457.189 17.7635C456.398 19.1181 455.674 21.1969 455.017 24L453.609 24.1207L455.58 15.9932L454.293 16.0938L454.272 15.7518C455.198 15.6311 456.063 15.4634 456.868 15.2488L457.149 15.45C456.505 16.9253 455.942 18.6219 455.459 20.5398H455.62L455.942 19.6546C456.573 17.9379 457.243 16.7442 457.954 16.0736C458.665 15.4031 459.329 15.0678 459.946 15.0678C460.884 15.0678 461.354 15.5975 461.354 16.6571C461.354 17.274 461.159 18.1458 460.77 19.2724L460.348 20.5398H460.529L460.851 19.6546C461.575 17.6294 462.36 16.3151 463.205 15.7115C463.607 15.4433 463.936 15.2689 464.19 15.1885C464.459 15.108 464.774 15.0678 465.136 15.0678C465.498 15.0678 465.8 15.2287 466.041 15.5506C466.283 15.8725 466.403 16.3218 466.403 16.8985C466.403 17.4752 466.075 18.5347 465.418 20.0771C464.774 21.6194 464.452 22.6052 464.452 23.0344C464.452 23.4635 464.62 23.6781 464.955 23.6781C465.21 23.6781 465.485 23.5105 465.78 23.1752C466.075 22.8265 466.33 22.3369 466.544 21.7066L466.866 21.7871C466.289 23.4233 465.538 24.2414 464.613 24.2414C463.781 24.2414 463.366 23.7854 463.366 22.8734C463.366 22.4845 463.667 21.5188 464.271 19.9765C464.888 18.4341 465.196 17.3813 465.196 16.818C465.196 16.0938 464.962 15.7316 464.492 15.7316C463.822 15.7316 463.097 16.2748 462.319 17.3612C461.421 18.6621 460.623 20.8751 459.925 24ZM475.543 11.7886H473.23L470.755 23.5373H473.089C473.947 23.5373 474.739 23.2691 475.463 22.7326C476.187 22.1961 476.771 21.5188 477.213 20.7007C478.125 18.9974 478.581 17.3008 478.581 15.6109C478.581 14.4039 478.299 13.4651 477.736 12.7945C477.186 12.1239 476.455 11.7886 475.543 11.7886ZM470.796 11.3259H475.664C477.005 11.3259 478.065 11.7215 478.843 12.5128C479.621 13.2907 480.009 14.3838 480.009 15.792C480.009 16.7442 479.842 17.7032 479.507 18.6688C479.185 19.6211 478.735 20.4995 478.159 21.3042C477.582 22.0955 476.838 22.746 475.926 23.2556C475.027 23.7519 474.048 24 472.988 24H468.12L468.18 23.6379H469.106C469.28 23.6379 469.387 23.5373 469.428 23.3361C471.037 15.7182 471.842 11.8758 471.842 11.8087C471.842 11.7282 471.768 11.688 471.62 11.688H470.735L470.796 11.3259ZM486.273 15.0678C486.983 15.0678 487.513 15.2421 487.862 15.5908C488.224 15.9261 488.405 16.4156 488.405 17.0594C488.405 17.6898 488.157 18.2396 487.661 18.7091C486.816 19.5138 485.562 19.9161 483.899 19.9161C483.403 19.9161 482.973 19.8759 482.611 19.7954V19.4132C483.081 19.4802 483.47 19.5138 483.778 19.5138C484.891 19.5138 485.75 19.2321 486.353 18.6688C486.97 18.1055 487.279 17.4886 487.279 16.818C487.279 16.4559 487.178 16.1541 486.977 15.9127C486.789 15.6713 486.467 15.5506 486.011 15.5506C485.569 15.5506 485.113 15.7585 484.643 16.1742C484.187 16.59 483.825 17.1064 483.557 17.7233C483.02 19.0242 482.752 20.1508 482.752 21.1031C482.752 22.8734 483.289 23.7586 484.361 23.7586C485.689 23.7586 486.662 23.0344 487.279 21.5859L487.6 21.6664C487.279 22.4845 486.809 23.1215 486.192 23.5775C485.589 24.0201 484.905 24.2414 484.14 24.2414C483.376 24.2414 482.732 23.9598 482.209 23.3965C481.686 22.8332 481.424 22.0754 481.424 21.1232C481.424 20.1709 481.605 19.2522 481.967 18.3671C482.33 17.4685 482.893 16.6973 483.657 16.0535C484.422 15.3964 485.294 15.0678 486.273 15.0678ZM493.202 15.2488L493.484 15.45C492.84 16.9253 492.277 18.6219 491.794 20.5398H491.955L492.277 19.6546C493.39 16.5967 494.664 15.0678 496.099 15.0678C496.676 15.0678 497.166 15.3494 497.568 15.9127C497.984 16.476 498.192 17.16 498.192 17.9647C498.192 18.7694 498.084 19.5205 497.87 20.2179C497.669 20.9019 497.373 21.5456 496.985 22.1492C496.596 22.7393 496.086 23.2221 495.456 23.5976C494.825 23.9732 494.128 24.1609 493.363 24.1609C492.197 24.1609 491.285 23.6446 490.627 22.6119L490.768 22.2699C491.412 23.2489 492.257 23.7385 493.303 23.7385C493.907 23.7385 494.443 23.5373 494.912 23.1349C495.395 22.7326 495.764 22.2296 496.019 21.6261C496.529 20.3922 496.783 19.1852 496.783 18.0049C496.783 17.3209 496.683 16.7912 496.482 16.4156C496.294 16.0267 496.046 15.8322 495.737 15.8322C495.107 15.8322 494.396 16.4425 493.605 17.6629C492.827 18.8834 492.123 20.7879 491.492 23.3764L490.285 28.3454L488.877 28.4661L491.915 15.9932L490.627 16.0938L490.607 15.7518C491.533 15.6311 492.398 15.4634 493.202 15.2488ZM499.793 21.0829C499.793 19.7015 500.195 18.3805 501 17.1198C501.389 16.5162 501.898 16.0267 502.529 15.6512C503.159 15.2622 503.877 15.0678 504.681 15.0678C505.499 15.0678 506.163 15.3427 506.673 15.8926C507.183 16.4425 507.437 17.1935 507.437 18.1458C507.437 19.098 507.263 20.0234 506.914 20.922C506.566 21.8206 506.016 22.5985 505.265 23.2556C504.514 23.9128 503.669 24.2414 502.73 24.2414C501.791 24.2414 501.067 23.9665 500.557 23.4166C500.048 22.8667 499.793 22.0888 499.793 21.0829ZM504.52 15.5104C503.796 15.5104 503.152 15.8725 502.589 16.5967C502.039 17.3209 501.644 18.1122 501.402 18.9706C501.174 19.8289 501.06 20.6336 501.06 21.3847C501.06 22.1224 501.208 22.7125 501.503 23.1551C501.811 23.5842 502.227 23.7988 502.75 23.7988C503.286 23.7988 503.783 23.5842 504.239 23.1551C504.708 22.7259 505.077 22.1961 505.345 21.5658C505.895 20.2782 506.17 19.1651 506.17 18.2262C506.17 17.274 506.022 16.5833 505.727 16.1541C505.432 15.7249 505.03 15.5104 504.52 15.5104ZM513.291 15.5506C512.781 15.5506 512.345 15.6981 511.983 15.9932C511.621 16.2882 511.44 16.6638 511.44 17.1198C511.44 17.5758 511.628 17.9915 512.003 18.3671C512.379 18.7426 512.788 19.0578 513.23 19.3126C513.673 19.554 514.082 19.8759 514.458 20.2782C514.833 20.6806 515.021 21.1098 515.021 21.5658C515.021 22.4241 514.686 23.088 514.015 23.5574C513.358 24.0134 512.56 24.2414 511.621 24.2414C510.682 24.2414 509.857 24.0201 509.147 23.5775C509.375 23.1215 509.589 22.3302 509.79 21.2036L510.132 21.264C510.038 21.8139 509.992 22.2498 509.992 22.5716C509.992 22.8801 510.139 23.1685 510.434 23.4367C510.743 23.6915 511.178 23.8189 511.742 23.8189C512.318 23.8189 512.801 23.6446 513.19 23.2959C513.593 22.9472 513.794 22.4912 513.794 21.9279C513.794 21.5658 513.613 21.2171 513.251 20.8818C512.902 20.5331 512.513 20.2447 512.084 20.0167C511.668 19.7887 511.279 19.4668 510.917 19.0511C510.568 18.6353 510.394 18.1793 510.394 17.6831C510.394 16.9454 510.682 16.3285 511.259 15.8322C511.849 15.3226 512.62 15.0678 513.572 15.0678C514.31 15.0678 515.041 15.2488 515.765 15.6109C515.698 15.7585 515.584 16.0938 515.423 16.6168C515.276 17.1399 515.162 17.6361 515.081 18.1055L514.739 18.0452C514.82 17.616 514.86 17.2069 514.86 16.818C514.86 16.4156 514.726 16.1072 514.458 15.8926C514.203 15.6646 513.814 15.5506 513.291 15.5506ZM520.35 13.056C520.176 12.8816 520.089 12.6671 520.089 12.4122C520.089 12.1574 520.176 11.9428 520.35 11.7685C520.525 11.5941 520.739 11.5069 520.994 11.5069C521.249 11.5069 521.463 11.5941 521.638 11.7685C521.812 11.9428 521.899 12.1574 521.899 12.4122C521.899 12.6671 521.812 12.8816 521.638 13.056C521.463 13.2304 521.249 13.3175 520.994 13.3175C520.739 13.3175 520.525 13.2304 520.35 13.056ZM518.077 22.7326C518.077 22.0218 518.566 19.7753 519.546 15.9932L518.258 16.0938L518.238 15.7518C519.163 15.6311 520.028 15.4634 520.833 15.2488L521.115 15.45C520.645 16.8448 520.203 18.3402 519.787 19.9362C519.371 21.5322 519.163 22.5582 519.163 23.0142C519.163 23.4568 519.331 23.6781 519.666 23.6781C519.921 23.6781 520.196 23.5105 520.491 23.1752C520.786 22.8265 521.041 22.3369 521.256 21.7066L521.577 21.7871C521.001 23.4233 520.25 24.2414 519.324 24.2414C518.493 24.2414 518.077 23.7385 518.077 22.7326ZM523.979 16.0334L524.079 15.6512H528.546L528.445 16.0334H523.979ZM527.178 13.1767L527.459 13.3779C527.151 14.3167 526.735 15.792 526.212 17.8038C525.702 19.8155 525.394 21.1165 525.286 21.7066C525.179 22.2833 525.126 22.7192 525.126 23.0142C525.126 23.4568 525.293 23.6781 525.628 23.6781C525.883 23.6781 526.158 23.5105 526.453 23.1752C526.748 22.8265 527.003 22.3369 527.218 21.7066L527.54 21.7871C526.963 23.4233 526.212 24.2414 525.286 24.2414C524.455 24.2414 524.039 23.7385 524.039 22.7326C524.039 21.9011 524.535 19.5808 525.528 15.7719L524.079 15.6512C524.817 15.6512 525.414 15.4768 525.87 15.1281C526.326 14.766 526.762 14.1155 527.178 13.1767ZM527.668 25.9715C529.009 24.9522 530.075 23.4971 530.866 21.606C531.658 19.7149 532.053 17.8038 532.053 15.8725C532.053 13.9278 531.604 12.4793 530.705 11.5271L530.947 11.2253C531.819 11.7484 532.469 12.486 532.898 13.4382C533.327 14.3771 533.542 15.4366 533.542 16.6168C533.542 18.5347 533.012 20.4124 531.953 22.2498C530.907 24.0872 529.505 25.4284 527.748 26.2733L527.668 25.9715Z" fill="#6082FA"/>
<path opacity="0.86" d="M172.152 36.7729V31.9376C172.152 31.815 172.091 31.7537 171.968 31.7537H171.351V31.5172H171.995C172.52 31.5172 172.888 31.4909 173.098 31.4383V36.7992C173.098 36.9043 173.16 36.9569 173.282 36.9569H173.9V37.1934H171.351V36.9569H171.968C172.091 36.9569 172.152 36.8955 172.152 36.7729ZM172.179 30.0719C172.065 29.9492 172.008 29.8003 172.008 29.6251C172.008 29.4499 172.065 29.3054 172.179 29.1915C172.301 29.0689 172.45 29.0076 172.625 29.0076C172.8 29.0076 172.945 29.0689 173.059 29.1915C173.182 29.3054 173.243 29.4499 173.243 29.6251C173.243 29.8003 173.182 29.9492 173.059 30.0719C172.945 30.1857 172.8 30.2427 172.625 30.2427C172.45 30.2427 172.301 30.1857 172.179 30.0719ZM180.621 33.8428H175.471V33.1465H180.621V33.8428ZM180.621 36.0765H175.471V35.3801H180.621V36.0765ZM182.766 37.1934V36.9437H184.303C184.408 36.9437 184.47 36.8912 184.487 36.786V30.742C184.487 30.523 184.356 30.4135 184.093 30.4135L182.635 30.4923L182.608 30.177L183.804 30.0062C184.557 29.8923 185.153 29.7521 185.591 29.5857C185.503 29.9186 185.46 30.4179 185.46 31.0836V36.7598C185.46 36.8824 185.525 36.9437 185.657 36.9437H186.892V37.1934H182.766Z" fill="#6082FA"/>
<path opacity="0.86" d="M180.165 -0.607663H180.599V4.83201H181.702V5.23933H180.599V6.59268C180.599 6.6978 180.664 6.75035 180.796 6.75035H181.702V7H178.536V6.75035H179.443C179.565 6.75035 179.626 6.68904 179.626 6.5664V5.23933H176L180.165 -0.607663ZM176.749 4.83201H179.626V0.798244L176.749 4.83201Z" fill="#6082FA"/>
<path opacity="0.86" d="M186.132 21.035L185.482 25.4595H172.837L179.38 18.2042L172.963 10.5924H184.832L185.23 13.9055H184.811C184.503 12.871 184.098 12.207 183.595 11.9134C183.105 11.6059 182.518 11.4521 181.833 11.4521H175.752L181.099 17.7009L175.438 23.8449H182.903C183.615 23.8449 184.182 23.6561 184.601 23.2787C185.02 22.9012 185.377 22.1533 185.67 21.035H186.132Z" fill="#6082FA"/>
<path opacity="0.86" d="M194.633 11.6075C195.411 11.2588 196.236 11.0845 197.107 11.0845C198.435 11.0845 199.481 11.4868 200.246 12.2915C201.024 13.0828 201.413 14.2027 201.413 15.6512C201.413 16.6302 201.252 17.6227 200.93 18.6286C200.608 19.6211 200.159 20.5398 199.582 21.3847C199.005 22.2296 198.254 22.9204 197.329 23.4568C196.403 23.9799 195.337 24.2414 194.13 24.2414C192.923 24.2414 191.93 23.8391 191.153 23.0344C190.388 22.2296 190.006 21.0628 190.006 19.5339C190.006 18.0049 190.422 16.4626 191.253 14.9068C192.098 13.3511 193.225 12.2513 194.633 11.6075ZM199.18 12.6335C198.643 11.9495 197.932 11.6075 197.047 11.6075C196.162 11.6075 195.344 11.8959 194.593 12.4726C193.842 13.0359 193.245 13.7534 192.802 14.6252C191.877 16.4224 191.414 18.1659 191.414 19.8558C191.414 21.0762 191.676 22.0285 192.199 22.7125C192.735 23.3831 193.446 23.7184 194.331 23.7184C195.23 23.7184 196.055 23.4367 196.806 22.8734C197.557 22.2967 198.16 21.5792 198.616 20.7208C199.542 18.9371 200.004 17.1935 200.004 15.4902C200.004 14.2698 199.729 13.3175 199.18 12.6335ZM203.061 16.0334L203.162 15.6512H208.232L208.131 16.0334H203.061ZM206.481 14.5246L204.59 23.3562C204.201 25.1266 203.725 26.4409 203.162 27.2993C202.599 28.1576 201.915 28.5868 201.11 28.5868C200.6 28.5868 200.205 28.4326 199.923 28.1241C199.641 27.8156 199.5 27.4669 199.5 27.078C199.5 26.7025 199.581 26.3605 199.742 26.052C199.889 25.7569 200.131 25.6094 200.466 25.6094C200.801 25.6094 201.043 25.6966 201.19 25.8709C201.016 26.0051 200.875 26.2062 200.768 26.4745C200.647 26.7427 200.587 27.0042 200.587 27.2591C200.587 27.8358 200.828 28.1241 201.311 28.1241C201.848 28.1241 202.257 27.7084 202.538 26.8768C202.82 26.0453 203.209 24.3755 203.705 21.8675L204.872 15.9127C205.154 14.4911 205.65 13.2706 206.361 12.2513C207.071 11.232 207.896 10.7224 208.835 10.7224C209.506 10.7224 210.009 10.8766 210.344 11.1851C210.693 11.4935 210.867 11.8556 210.867 12.2714C210.867 12.6872 210.78 13.0627 210.605 13.398C210.444 13.7333 210.183 13.9009 209.821 13.9009C209.459 13.9009 209.197 13.8071 209.036 13.6193C209.425 13.1231 209.62 12.6201 209.62 12.1105C209.62 11.4935 209.325 11.1851 208.734 11.1851C208.158 11.1851 207.695 11.4801 207.346 12.0702C206.998 12.6469 206.709 13.4651 206.481 14.5246ZM209.299 16.0334L209.399 15.6512H214.469L214.368 16.0334H209.299ZM212.719 14.5246L210.827 23.3562C210.439 25.1266 209.962 26.4409 209.399 27.2993C208.836 28.1576 208.152 28.5868 207.347 28.5868C206.837 28.5868 206.442 28.4326 206.16 28.1241C205.879 27.8156 205.738 27.4669 205.738 27.078C205.738 26.7025 205.818 26.3605 205.979 26.052C206.127 25.7569 206.368 25.6094 206.703 25.6094C207.039 25.6094 207.28 25.6966 207.428 25.8709C207.253 26.0051 207.112 26.2062 207.005 26.4745C206.884 26.7427 206.824 27.0042 206.824 27.2591C206.824 27.8358 207.065 28.1241 207.548 28.1241C208.085 28.1241 208.494 27.7084 208.775 26.8768C209.057 26.0453 209.446 24.3755 209.942 21.8675L211.109 15.9127C211.391 14.4911 211.887 13.2706 212.598 12.2513C213.309 11.232 214.133 10.7224 215.072 10.7224C215.743 10.7224 216.246 10.8766 216.581 11.1851C216.93 11.4935 217.104 11.8556 217.104 12.2714C217.104 12.6872 217.017 13.0627 216.843 13.398C216.682 13.7333 216.42 13.9009 216.058 13.9009C215.696 13.9009 215.434 13.8071 215.273 13.6193C215.662 13.1231 215.857 12.6201 215.857 12.1105C215.857 11.4935 215.562 11.1851 214.972 11.1851C214.395 11.1851 213.932 11.4801 213.584 12.0702C213.235 12.6469 212.947 13.4651 212.719 14.5246ZM220.143 15.0678C220.854 15.0678 221.383 15.2421 221.732 15.5908C222.094 15.9261 222.275 16.4156 222.275 17.0594C222.275 17.6898 222.027 18.2396 221.531 18.7091C220.686 19.5138 219.432 19.9161 217.769 19.9161C217.273 19.9161 216.843 19.8759 216.481 19.7954V19.4132C216.951 19.4802 217.34 19.5138 217.648 19.5138C218.761 19.5138 219.62 19.2321 220.223 18.6688C220.84 18.1055 221.149 17.4886 221.149 16.818C221.149 16.4559 221.048 16.1541 220.847 15.9127C220.659 15.6713 220.337 15.5506 219.881 15.5506C219.439 15.5506 218.983 15.7585 218.513 16.1742C218.057 16.59 217.695 17.1064 217.427 17.7233C216.89 19.0242 216.622 20.1508 216.622 21.1031C216.622 22.8734 217.159 23.7586 218.232 23.7586C219.559 23.7586 220.532 23.0344 221.149 21.5859L221.471 21.6664C221.149 22.4845 220.679 23.1215 220.062 23.5775C219.459 24.0201 218.775 24.2414 218.01 24.2414C217.246 24.2414 216.602 23.9598 216.079 23.3965C215.556 22.8332 215.294 22.0754 215.294 21.1232C215.294 20.1709 215.475 19.2522 215.838 18.3671C216.2 17.4685 216.763 16.6973 217.527 16.0535C218.292 15.3964 219.164 15.0678 220.143 15.0678ZM227.052 15.2488L227.334 15.45C226.69 16.9253 226.127 18.6219 225.644 20.5398H225.805L226.127 19.6546C226.757 17.9379 227.381 16.7442 227.998 16.0736C228.615 15.4031 229.151 15.0678 229.607 15.0678C230.063 15.0678 230.399 15.2153 230.613 15.5104C230.841 15.8054 230.955 16.1876 230.955 16.6571C230.955 17.1265 230.868 17.5355 230.694 17.8842C230.519 18.2329 230.264 18.4073 229.929 18.4073C229.607 18.4073 229.339 18.3 229.124 18.0854C229.259 17.9111 229.386 17.6562 229.507 17.3209C229.627 16.9856 229.688 16.6906 229.688 16.4358C229.688 16.0468 229.527 15.8524 229.205 15.8524C228.87 15.8524 228.454 16.1809 227.958 16.8381C226.871 18.2598 225.953 20.6471 225.202 24L223.793 24.1207L225.765 15.9932L224.477 16.0938L224.457 15.7518C225.383 15.6311 226.248 15.4634 227.052 15.2488Z" fill="#6082FA"/>
<path opacity="0.86" d="M233.454 18.704C233.338 18.5878 233.28 18.4447 233.28 18.2748C233.28 18.1049 233.338 17.9619 233.454 17.8456C233.571 17.7294 233.714 17.6713 233.884 17.6713C234.053 17.6713 234.196 17.7294 234.313 17.8456C234.429 17.9619 234.487 18.1049 234.487 18.2748C234.487 18.4447 234.429 18.5878 234.313 18.704C234.196 18.8202 234.053 18.8784 233.884 18.8784C233.714 18.8784 233.571 18.8202 233.454 18.704ZM231.939 25.1551C231.939 24.6812 232.265 23.1835 232.918 20.6621L232.06 20.7292L232.046 20.5012C232.663 20.4207 233.24 20.3089 233.776 20.1659L233.964 20.3C233.651 21.2299 233.356 22.2268 233.079 23.2908C232.802 24.3548 232.663 25.0388 232.663 25.3428C232.663 25.6379 232.775 25.7854 232.998 25.7854C233.168 25.7854 233.352 25.6736 233.548 25.4501C233.745 25.2176 233.915 24.8913 234.058 24.4711L234.272 24.5247C233.888 25.6155 233.387 26.1609 232.77 26.1609C232.216 26.1609 231.939 25.8256 231.939 25.1551Z" fill="#6082FA"/>
</svg>
